<svg width="80" height="80" viewBox="0 0 80 80" fill="none" xmlns="http://www.w3.org/2000/svg">
<g clip-path="url(#clip0_1500_2217)">
<path d="M78.3333 76.6667H1.66672C0.746719 76.6667 0 77.4133 0 78.3333C0 79.2533 0.746719 80 1.66672 80H78.3334C79.2534 80 80.0002 79.2533 80.0002 78.3333C80 77.4133 79.2533 76.6667 78.3333 76.6667Z" fill="#5FFF00"/>
<path d="M15.0007 56.6667H5.0007C4.0807 56.6667 3.33398 57.4135 3.33398 58.3335V78.3335C3.33398 79.2533 4.0807 80 5.0007 80H15.0007C15.9207 80 16.6674 79.2533 16.6674 78.3333V58.3333C16.6674 57.4133 15.9207 56.6667 15.0007 56.6667ZM13.334 76.6668H6.66742V60H13.3341V76.6668H13.334Z" fill="#5FFF00"/>
<path d="M35.0007 40H25.0007C24.0807 40 23.334 40.7467 23.334 41.6667V78.3334C23.334 79.2534 24.0807 80.0002 25.0007 80.0002H35.0007C35.9207 80.0002 36.6674 79.2534 36.6674 78.3334V41.6667C36.6674 40.7467 35.9207 40 35.0007 40ZM33.334 76.6667H26.6673V43.3333H33.334V76.6667Z" fill="#5FFF00"/>
<path d="M55.0007 46.6667H45.0007C44.0807 46.6667 43.334 47.4135 43.334 48.3335V78.3335C43.334 79.2535 44.0807 80.0002 45.0007 80.0002H55.0007C55.9207 80.0002 56.6674 79.2535 56.6674 78.3335V48.3335C56.6674 47.4133 55.9207 46.6667 55.0007 46.6667ZM53.334 76.6668H46.6673V50H53.334V76.6668V76.6668Z" fill="#5FFF00"/>
<path d="M75.0007 26.6667H65.0007C64.0807 26.6667 63.334 27.4135 63.334 28.3335V78.3335C63.334 79.2535 64.0807 80.0002 65.0007 80.0002H75.0007C75.9207 80.0002 76.6674 79.2535 76.6674 78.3335V28.3335C76.6674 27.4133 75.9207 26.6667 75.0007 26.6667ZM73.334 76.6667H66.6673V30H73.334V76.6667V76.6667Z" fill="#5FFF00"/>
<path d="M10.0007 30C6.32398 30 3.33398 32.99 3.33398 36.6667C3.33398 40.3434 6.32398 43.3334 10.0007 43.3334C13.6774 43.3334 16.6674 40.3434 16.6674 36.6667C16.6674 32.99 13.6774 30 10.0007 30ZM10.0007 40C8.1607 40 6.66742 38.5033 6.66742 36.6667C6.66742 34.83 8.1607 33.3334 10.0007 33.3334C11.8407 33.3334 13.334 34.8302 13.334 36.6667C13.334 38.5033 11.8407 40 10.0007 40Z" fill="#5FFF00"/>
<path d="M30.0007 13.3333C26.324 13.3333 23.334 16.3233 23.334 20C23.334 23.6767 26.324 26.6667 30.0007 26.6667C33.6774 26.6667 36.6674 23.6767 36.6674 20C36.6674 16.3233 33.6774 13.3333 30.0007 13.3333ZM30.0007 23.3333C28.1607 23.3333 26.6674 21.8365 26.6674 20C26.6674 18.1633 28.1607 16.6667 30.0007 16.6667C31.8407 16.6667 33.334 18.1634 33.334 20C33.334 21.8367 31.8407 23.3333 30.0007 23.3333Z" fill="#5FFF00"/>
<path d="M50.0007 20C46.324 20 43.334 22.99 43.334 26.6667C43.334 30.3434 46.324 33.3334 50.0007 33.3334C53.6774 33.3334 56.6674 30.3434 56.6674 26.6667C56.6674 22.99 53.6774 20 50.0007 20ZM50.0007 30C48.1607 30 46.6674 28.5033 46.6674 26.6667C46.6674 24.83 48.1607 23.3334 50.0007 23.3334C51.8407 23.3334 53.334 24.8302 53.334 26.6667C53.334 28.5033 51.8407 30 50.0007 30Z" fill="#5FFF00"/>
<path d="M70.0007 0C66.324 0 63.334 2.99 63.334 6.66672C63.334 10.3434 66.324 13.3334 70.0007 13.3334C73.6774 13.3334 76.6674 10.3434 76.6674 6.66672C76.6674 2.99 73.6774 0 70.0007 0ZM70.0007 10C68.1607 10 66.6674 8.50328 66.6674 6.66672C66.6674 4.83 68.1607 3.33344 70.0007 3.33344C71.8407 3.33344 73.334 4.83016 73.334 6.66672C73.334 8.50328 71.8407 10 70.0007 10Z" fill="#5FFF00"/>
<path d="M67.6466 9.01997C66.9966 8.36997 65.9399 8.36997 65.2899 9.01997L52.3566 21.9533C51.7066 22.6033 51.7066 23.66 52.3566 24.31C52.6834 24.6333 53.1099 24.7967 53.5366 24.7967C53.9599 24.7967 54.3866 24.6367 54.7134 24.31L67.6466 11.3767C68.2966 10.7267 68.2966 9.66997 67.6466 9.01997Z" fill="#5FFF00"/>
<path d="M45.9707 22.8198L35.264 19.7665C34.3673 19.5065 33.4573 20.0265 33.2073 20.9132C32.954 21.8 33.4673 22.72 34.3505 22.9732L45.0573 26.0265C45.2105 26.0698 45.364 26.0898 45.514 26.0898C46.2407 26.0898 46.9073 25.6131 47.1173 24.8798C47.3707 23.9965 46.8574 23.0731 45.9707 22.8198Z" fill="#5FFF00"/>
<path d="M27.4004 22.0767C26.8272 21.3567 25.7804 21.24 25.0604 21.81L12.4937 31.83C11.7737 32.4067 11.6537 33.4533 12.2304 34.1733C12.5604 34.5866 13.0472 34.8 13.5337 34.8C13.897 34.8 14.2637 34.68 14.5704 34.44L27.1372 24.42C27.8572 23.8433 27.9772 22.7967 27.4004 22.0767Z" fill="#5FFF00"/>
</g>
<defs>
<clipPath id="clip0_1500_2217">
<rect width="80" height="80" fill="white"/>
</clipPath>
</defs>
</svg>
