<svg width="80" height="80" viewBox="0 0 80 80" fill="none" xmlns="http://www.w3.org/2000/svg">
<path d="M48.7539 63.0258L40.6868 58.3698C40.5003 58.2621 40.2887 58.2054 40.0733 58.2054C39.8579 58.2054 39.6464 58.2621 39.4598 58.3698L31.3928 63.0258C31.2063 63.1337 31.0514 63.2887 30.9437 63.4754C30.836 63.662 30.7793 63.8737 30.7793 64.0892V73.375C30.7793 73.5905 30.836 73.8022 30.9437 73.9888C31.0514 74.1755 31.2063 74.3305 31.3928 74.4384L39.4598 79.101C39.6462 79.2092 39.8578 79.2661 40.0733 79.2661C40.2888 79.2661 40.5005 79.2092 40.6868 79.101L48.7539 74.445C48.9404 74.3371 49.0953 74.182 49.203 73.9954C49.3106 73.8087 49.3673 73.5971 49.3674 73.3816V64.0892C49.3673 63.8737 49.3106 63.662 49.203 63.4754C49.0953 63.2887 48.9404 63.1337 48.7539 63.0258V63.0258ZM40.075 60.8483L45.688 64.0892L40.075 67.3301L34.4619 64.0892L40.075 60.8483ZM33.2349 66.2143L38.8463 69.4487V75.9059L33.2333 72.6716L33.2349 66.2143ZM46.9134 72.6716L41.3003 75.9124V69.4487L46.9134 66.2078V72.6716Z" fill="#5FFF00"/>
<path d="M31.3928 16.9761L39.4598 21.6321C39.6462 21.7403 39.8578 21.7972 40.0733 21.7972C40.2888 21.7972 40.5005 21.7403 40.6868 21.6321L48.7539 16.9761C48.9404 16.8682 49.0953 16.7132 49.203 16.5265C49.3106 16.3399 49.3673 16.1282 49.3674 15.9127V6.62684C49.3673 6.41136 49.3106 6.19968 49.203 6.01303C49.0953 5.82638 48.9404 5.67134 48.7539 5.56345L40.6868 0.900897C40.5003 0.793206 40.2887 0.736511 40.0733 0.736511C39.8579 0.736511 39.6464 0.793206 39.4598 0.900897L31.3928 5.55855C31.2063 5.66643 31.0514 5.82148 30.9437 6.00812C30.836 6.19477 30.7793 6.40645 30.7793 6.62194V15.9127C30.7793 16.1282 30.836 16.3399 30.9437 16.5265C31.0514 16.7132 31.2063 16.8682 31.3928 16.9761ZM33.2333 8.75363L38.8463 11.9945V18.4517L33.2333 15.2043V8.75363ZM46.9134 15.2043L41.3003 18.4452V11.988L46.9134 8.75363V15.2043ZM40.075 3.38105L45.6864 6.62684L40.075 9.86282L34.4603 6.62684L40.075 3.38105Z" fill="#5FFF00"/>
<path d="M56.2717 31.3302L64.3388 35.9879C64.5251 36.0961 64.7368 36.153 64.9523 36.153C65.1677 36.153 65.3794 36.0961 65.5658 35.9879L73.6361 31.3302C73.8227 31.2229 73.9777 31.0682 74.0854 30.8818C74.1931 30.6953 74.2497 30.4838 74.2496 30.2685V20.9695C74.2495 20.7541 74.1928 20.5424 74.0852 20.3557C73.9775 20.1691 73.8226 20.014 73.6361 19.9062L65.569 15.2501C65.3825 15.1424 65.1709 15.0858 64.9555 15.0858C64.7402 15.0858 64.5286 15.1424 64.342 15.2501L56.2717 19.9062C56.0852 20.014 55.9303 20.1691 55.8226 20.3557C55.715 20.5424 55.6583 20.7541 55.6582 20.9695V30.2603C55.6566 30.477 55.7125 30.6902 55.8203 30.8782C55.9281 31.0662 56.0839 31.2222 56.2717 31.3302V31.3302ZM58.1122 23.1029L63.7253 26.3438V32.801L58.1122 29.5601V23.1029ZM71.7923 29.5601L66.1793 32.801V26.3356L71.7923 23.0947V29.5601ZM64.9523 17.7368L70.5653 20.9777L64.9523 24.2186L59.3392 20.9777L64.9523 17.7368Z" fill="#5FFF00"/>
<path d="M23.8792 19.9029L15.804 15.2468C15.6175 15.1392 15.4059 15.0825 15.1905 15.0825C14.9751 15.0825 14.7635 15.1392 14.577 15.2468L6.50998 19.9029C6.32345 20.0107 6.16857 20.1658 6.06089 20.3524C5.95321 20.5391 5.89651 20.7508 5.89648 20.9662V30.257C5.8963 30.4723 5.95293 30.6839 6.06064 30.8703C6.16836 31.0567 6.32335 31.2114 6.50998 31.3188L14.577 35.978C14.7637 36.0853 14.9752 36.1417 15.1905 36.1417C15.4058 36.1417 15.6173 36.0853 15.804 35.978L23.8792 31.3188C24.0659 31.2114 24.2208 31.0567 24.3286 30.8703C24.4363 30.6839 24.4929 30.4723 24.4927 30.257V20.9662C24.4927 20.7508 24.436 20.5391 24.3283 20.3524C24.2206 20.1658 24.0658 20.0107 23.8792 19.9029V19.9029ZM15.1905 17.7254L20.8036 20.9662L15.1905 24.2071L9.57745 20.9662L15.1905 17.7254ZM8.35046 23.0914L13.9635 26.3323V32.7895L8.35046 29.5486V23.0914ZM22.0306 29.5486L16.4175 32.7895V26.3323L22.0306 23.0914V29.5486Z" fill="#5FFF00"/>
<path d="M73.6722 48.6275L65.597 43.9699C65.4105 43.8622 65.1989 43.8055 64.9835 43.8055C64.7681 43.8055 64.5565 43.8622 64.37 43.9699L56.3029 48.6275C56.1164 48.735 55.9615 48.8897 55.8538 49.0761C55.7461 49.2625 55.6894 49.474 55.6895 49.6893V58.9784C55.6894 59.1937 55.7461 59.4051 55.8538 59.5915C55.9615 59.7779 56.1164 59.9327 56.3029 60.0401L64.3765 64.7043C64.5629 64.8125 64.7746 64.8695 64.99 64.8695C65.2055 64.8695 65.4172 64.8125 65.6035 64.7043L73.6722 60.0467C73.8587 59.9392 74.0136 59.7845 74.1213 59.5981C74.229 59.4117 74.2857 59.2002 74.2857 58.9849V49.6925C74.2863 49.4767 74.2299 49.2646 74.1221 49.0775C74.0144 48.8905 73.8592 48.7353 73.6722 48.6275V48.6275ZM64.99 46.45L70.6047 49.6893L64.99 52.9252L59.3802 49.6893L64.99 46.45ZM58.15 51.816L63.763 55.052V61.5076L58.15 58.2667V51.816ZM71.8317 58.2716L66.217 61.5125V55.052L71.8317 51.8111V58.2716Z" fill="#5FFF00"/>
<path d="M23.8414 48.6275L15.7744 43.9715C15.5879 43.8638 15.3763 43.8071 15.1609 43.8071C14.9455 43.8071 14.7339 43.8638 14.5474 43.9715L6.47873 48.6275C6.2922 48.7354 6.13732 48.8904 6.02964 49.077C5.92196 49.2637 5.86526 49.4754 5.86523 49.6909V58.9783C5.86505 59.1936 5.92168 59.4052 6.02939 59.5916C6.13711 59.778 6.2921 59.9327 6.47873 60.0401L14.5539 64.7043C14.7403 64.8125 14.952 64.8694 15.1674 64.8694C15.3829 64.8694 15.5946 64.8125 15.7809 64.7043L23.848 60.0466C24.0346 59.9393 24.1896 59.7846 24.2973 59.5982C24.405 59.4117 24.4617 59.2002 24.4615 58.9849V49.6909C24.4608 49.4747 24.4031 49.2626 24.2942 49.0759C24.1854 48.8892 24.0292 48.7345 23.8414 48.6275V48.6275ZM15.1609 46.45L20.7707 49.6909L15.1609 52.9252L9.5462 49.6859L15.1609 46.45ZM8.31921 51.816L9.18138 52.3068L13.9339 55.052V61.5141L8.31921 58.2732V51.816ZM16.3879 61.5141V55.052L21.1322 52.3084L21.9944 51.8176V58.2749L16.3879 61.5141Z" fill="#5FFF00"/>
<path d="M49.6553 32.6013V32.5899C49.6422 32.5686 49.6226 32.5572 49.6095 32.5375C48.4751 31.0884 47.0252 29.917 45.3702 29.1123C43.7151 28.3076 41.8983 27.8908 40.058 27.8936C38.2176 27.8965 36.4022 28.3188 34.7496 29.1286C33.097 29.9384 31.6507 31.1143 30.5208 32.567C30.5152 32.5753 30.5086 32.583 30.5012 32.5899C28.837 34.7142 27.9326 37.335 27.9326 40.0336C27.9326 42.7322 28.837 45.353 30.5012 47.4773L30.5175 47.4953C31.6432 48.9419 33.0821 50.1144 34.7261 50.9248C36.3701 51.7351 38.1764 52.1623 40.0092 52.1741C41.8421 52.1859 43.6537 51.7821 45.308 50.9929C46.9623 50.2038 48.4162 49.0499 49.5604 47.618C51.2678 45.4903 52.2065 42.8483 52.2243 40.1202C52.2422 37.3922 51.338 34.7381 49.6586 32.5882L49.6553 32.6013ZM48.4594 45.7579C47.8719 45.4969 47.268 45.2745 46.6516 45.0921C46.998 43.7607 47.202 42.3962 47.2602 41.0218H50.1755C50.0169 42.721 49.4261 44.3515 48.4594 45.7579V45.7579ZM29.94 41.0218H32.8848C32.9421 42.3958 33.1461 43.7598 33.4934 45.0904C32.8677 45.2765 32.255 45.5038 31.6595 45.771C30.6944 44.3586 30.1028 42.7247 29.94 41.0218V41.0218ZM31.6627 34.3142C32.2586 34.5807 32.8712 34.808 33.4967 34.9948C33.1494 36.3254 32.9454 37.6894 32.8881 39.0635H29.9433C30.105 37.3588 30.6966 35.723 31.6627 34.3093V34.3142ZM39.0917 33.9167C38.0711 33.8785 37.0543 33.7691 36.0488 33.5895C36.5673 32.0616 37.6581 30.7943 39.0917 30.0541V33.9167ZM39.0917 35.8798V39.0635H34.8496C34.9097 37.8475 35.0973 36.6412 35.4091 35.4643C36.6248 35.6959 37.8566 35.8332 39.0934 35.8749L39.0917 35.8798ZM39.0917 41.0267V44.2054C37.8554 44.2498 36.6243 44.3887 35.4091 44.6209C35.0973 43.4441 34.9097 42.2377 34.8496 41.0218L39.0917 41.0267ZM39.0917 46.1735V50.036C37.6581 49.2958 36.5673 48.0285 36.0488 46.5007C37.0548 46.3201 38.0721 46.2091 39.0934 46.1686L39.0917 46.1735ZM41.0549 46.1735C42.0756 46.2123 43.0923 46.3216 44.0979 46.5007C43.5809 48.0294 42.4897 49.2972 41.0549 50.036V46.1735ZM41.0549 44.2103V41.0218H45.2987C45.2372 42.2377 45.0492 43.444 44.7375 44.6209C43.5229 44.3887 42.2924 44.2498 41.0566 44.2054L41.0549 44.2103ZM41.0549 39.0635V35.8749C42.2913 35.8315 43.5225 35.6925 44.7375 35.4594C45.0489 36.6364 45.237 37.8426 45.2987 39.0586L41.0549 39.0635ZM41.0549 33.9167V30.0492C42.4899 30.7889 43.5816 32.0571 44.0995 33.5862C43.0939 33.7645 42.0771 33.8733 41.0566 33.9118L41.0549 33.9167ZM45.0271 31.1568C45.8022 31.5907 46.5172 32.1242 47.1539 32.7437C46.8005 32.886 46.4291 33.0152 46.0365 33.133C45.7609 32.4433 45.4231 31.7802 45.0271 31.1518V31.1568ZM34.1085 33.1298C33.7175 33.012 33.3445 32.8811 32.9911 32.7404C33.6286 32.1214 34.3435 31.5875 35.1179 31.1518C34.7222 31.7792 34.3844 32.4412 34.1085 33.1298ZM34.1085 46.9538C34.3854 47.6425 34.7244 48.3045 35.1212 48.9317C34.3464 48.4967 33.6315 47.9627 32.9944 47.3432C33.3445 47.1992 33.7175 47.07 34.1085 46.9522V46.9538ZM46.0381 46.9538C46.4324 47.0716 46.807 47.2025 47.1621 47.3432C46.525 47.9599 45.81 48.4906 45.0353 48.9219C45.4275 48.2971 45.7631 47.6384 46.0381 46.9538V46.9538ZM47.2602 39.0586C47.2021 37.6846 46.9981 36.3207 46.6516 34.9899C47.2768 34.8039 47.8889 34.5765 48.4839 34.3093C49.4494 35.72 50.042 37.3522 50.2066 39.0537L47.2602 39.0586Z" fill="#5FFF00"/>
<path d="M38.8486 24.1891V25.2542C38.8486 25.5796 38.9779 25.8917 39.208 26.1218C39.4381 26.3519 39.7502 26.4812 40.0756 26.4812C40.401 26.4812 40.7131 26.3519 40.9432 26.1218C41.1733 25.8917 41.3026 25.5796 41.3026 25.2542V24.1891C41.3026 23.8637 41.1733 23.5516 40.9432 23.3215C40.7131 23.0914 40.401 22.9622 40.0756 22.9622C39.7502 22.9622 39.4381 23.0914 39.208 23.3215C38.9779 23.5516 38.8486 23.8637 38.8486 24.1891Z" fill="#5FFF00"/>
<path d="M41.3026 56.1235V55.0519C41.3026 54.7265 41.1733 54.4144 40.9432 54.1843C40.7131 53.9542 40.401 53.825 40.0756 53.825C39.7502 53.825 39.4381 53.9542 39.208 54.1843C38.9779 54.4144 38.8486 54.7265 38.8486 55.0519V56.117C38.8486 56.4424 38.9779 56.7545 39.208 56.9846C39.4381 57.2147 39.7502 57.344 40.0756 57.344C40.401 57.344 40.7131 57.2147 40.9432 56.9846C41.1733 56.7545 41.3026 56.4424 41.3026 56.117V56.1235Z" fill="#5FFF00"/>
<path d="M25.6327 33.2345L26.5554 33.7679C26.6951 33.8484 26.8492 33.9007 27.0091 33.9217C27.1689 33.9427 27.3313 33.932 27.487 33.8902C27.6428 33.8484 27.7887 33.7764 27.9166 33.6782C28.0445 33.58 28.1517 33.4576 28.2323 33.318C28.3129 33.1783 28.3652 33.0242 28.3861 32.8643C28.4071 32.7045 28.3964 32.5421 28.3547 32.3864C28.3129 32.2306 28.2408 32.0847 28.1427 31.9568C28.0445 31.8289 27.9221 31.7217 27.7824 31.6411L26.8597 31.1078C26.5777 30.9451 26.2426 30.901 25.9281 30.9854C25.6136 31.0698 25.3455 31.2756 25.1828 31.5577C25.0201 31.8397 24.9761 32.1748 25.0605 32.4893C25.1449 32.8038 25.3507 33.0718 25.6327 33.2345Z" fill="#5FFF00"/>
<path d="M54.5158 47.0782L53.5931 46.5448C53.3111 46.3821 52.976 46.3381 52.6615 46.4225C52.347 46.5069 52.0789 46.7127 51.9162 46.9947C51.7535 47.2768 51.7095 47.6119 51.7939 47.9264C51.8783 48.2408 52.0841 48.5089 52.3661 48.6716L53.2888 49.205C53.4285 49.2855 53.5826 49.3378 53.7425 49.3588C53.9023 49.3798 54.0647 49.3691 54.2204 49.3273C54.3762 49.2855 54.5221 49.2135 54.65 49.1153C54.7779 49.0171 54.8851 48.8947 54.9657 48.7551C55.0463 48.6154 55.0985 48.4613 55.1195 48.3014C55.1405 48.1416 55.1298 47.9791 55.0881 47.8234C55.0463 47.6677 54.9742 47.5218 54.8761 47.3939C54.7779 47.266 54.6555 47.1587 54.5158 47.0782V47.0782Z" fill="#5FFF00"/>
<path d="M26.5554 46.5448L25.6327 47.0782C25.4931 47.1587 25.3707 47.266 25.2725 47.3939C25.1743 47.5218 25.1023 47.6677 25.0605 47.8234C25.0187 47.9791 25.008 48.1416 25.029 48.3014C25.05 48.4613 25.1023 48.6154 25.1828 48.7551C25.2634 48.8947 25.3707 49.0171 25.4986 49.1153C25.6264 49.2135 25.7724 49.2855 25.9281 49.3273C26.0838 49.3691 26.2462 49.3798 26.4061 49.3588C26.5659 49.3378 26.7201 49.2855 26.8597 49.2049L27.7824 48.6716C27.9221 48.5911 28.0445 48.4838 28.1427 48.3559C28.2408 48.228 28.3129 48.0821 28.3547 47.9263C28.3964 47.7706 28.4071 47.6082 28.3861 47.4484C28.3651 47.2885 28.3129 47.1344 28.2323 46.9947C28.1517 46.8551 28.0445 46.7327 27.9166 46.6345C27.7887 46.5363 27.6428 46.4643 27.487 46.4225C27.3313 46.3807 27.1689 46.37 27.0091 46.391C26.8492 46.412 26.6951 46.4643 26.5554 46.5448V46.5448Z" fill="#5FFF00"/>
<path d="M53.2888 31.1093L52.3661 31.6427C52.0841 31.8054 51.8783 32.0735 51.7939 32.3879C51.7095 32.7024 51.7535 33.0375 51.9162 33.3196C52.0789 33.6016 52.347 33.8074 52.6615 33.8918C52.976 33.9762 53.3111 33.9322 53.5931 33.7695L54.5158 33.2361C54.6555 33.1556 54.7779 33.0483 54.8761 32.9204C54.9742 32.7925 55.0463 32.6466 55.0881 32.4909C55.1298 32.3352 55.1405 32.1727 55.1195 32.0129C55.0985 31.853 55.0463 31.6989 54.9657 31.5592C54.8851 31.4196 54.7779 31.2972 54.65 31.199C54.5221 31.1008 54.3762 31.0288 54.2204 30.987C54.0647 30.9452 53.9023 30.9345 53.7425 30.9555C53.5826 30.9765 53.4285 31.0288 53.2888 31.1093Z" fill="#5FFF00"/>
</svg>
