<svg width="80" height="80" viewBox="0 0 80 80" fill="none" xmlns="http://www.w3.org/2000/svg">
<path d="M74.6667 6.66667C74.6623 2.9866 71.6801 0.00440816 68 0H6.66667C2.9866 0.00440816 0.00440816 2.9866 0 6.66667V68C0.00440816 71.6801 2.9866 74.6623 6.66667 74.6667H46.448C54.3201 81.9626 66.5515 81.7304 74.1409 74.1409C81.7304 66.5515 81.9626 54.3201 74.6667 46.448V6.66667ZM2.66667 6.66667C2.66667 4.45753 4.45753 2.66667 6.66667 2.66667H68C70.2091 2.66667 72 4.45753 72 6.66667V10.6667H2.66667V6.66667ZM6.66667 72C4.45753 72 2.66667 70.2091 2.66667 68V13.3333H72V44.0373C64.0522 38.0293 52.8912 38.8012 45.8462 45.8462C38.8012 52.8912 38.0293 64.0522 44.0373 72H6.66667ZM77.3333 60C77.3333 69.5729 69.5729 77.3333 60 77.3333C50.4271 77.3333 42.6667 69.5729 42.6667 60C42.6667 50.4271 50.4271 42.6667 60 42.6667C69.5684 42.6777 77.3223 50.4316 77.3333 60Z" fill="#5FFF00"/>
<path d="M6.66732 8.00016C7.4037 8.00016 8.00065 7.40321 8.00065 6.66683C8.00065 5.93045 7.4037 5.3335 6.66732 5.3335C5.93094 5.3335 5.33398 5.93045 5.33398 6.66683C5.33398 7.40321 5.93094 8.00016 6.66732 8.00016Z" fill="#5FFF00"/>
<path d="M11.9993 8.00016C12.7357 8.00016 13.3327 7.40321 13.3327 6.66683C13.3327 5.93045 12.7357 5.3335 11.9993 5.3335C11.263 5.3335 10.666 5.93045 10.666 6.66683C10.666 7.40321 11.263 8.00016 11.9993 8.00016Z" fill="#5FFF00"/>
<path d="M17.3333 8.00016C18.0697 8.00016 18.6667 7.40321 18.6667 6.66683C18.6667 5.93045 18.0697 5.3335 17.3333 5.3335C16.597 5.3335 16 5.93045 16 6.66683C16 7.40321 16.597 8.00016 17.3333 8.00016Z" fill="#5FFF00"/>
<path d="M45.3333 5.3335H29.3333C28.597 5.3335 28 5.93045 28 6.66683C28 7.40321 28.597 8.00016 29.3333 8.00016H45.3333C46.0697 8.00016 46.6667 7.40321 46.6667 6.66683C46.6667 5.93045 46.0697 5.3335 45.3333 5.3335Z" fill="#5FFF00"/>
<path d="M65.3327 54.6668H57.3327V50.6668C57.3327 49.1941 58.5266 48.0002 59.9993 48.0002C61.4721 48.0002 62.666 49.1941 62.666 50.6668C62.666 51.4032 63.263 52.0002 63.9993 52.0002C64.7357 52.0002 65.3327 51.4032 65.3327 50.6668C65.3327 47.7213 62.9449 45.3335 59.9993 45.3335C57.0538 45.3335 54.666 47.7213 54.666 50.6668V54.6668C52.4569 54.6668 50.666 56.4577 50.666 58.6668V69.3335C50.666 71.5426 52.4569 73.3335 54.666 73.3335H65.3327C67.5418 73.3335 69.3327 71.5426 69.3327 69.3335V58.6668C69.3327 56.4577 67.5418 54.6668 65.3327 54.6668ZM66.666 69.3335C66.666 70.0699 66.0691 70.6668 65.3327 70.6668H54.666C53.9296 70.6668 53.3327 70.0699 53.3327 69.3335V58.6668C53.3327 57.9305 53.9296 57.3335 54.666 57.3335H65.3327C66.0691 57.3335 66.666 57.9305 66.666 58.6668V69.3335Z" fill="#5FFF00"/>
<path d="M60 60C57.7909 60 56 61.7909 56 64C56 66.2091 57.7909 68 60 68C62.2091 68 64 66.2091 64 64C64 61.7909 62.2091 60 60 60ZM60 65.3333C59.2636 65.3333 58.6667 64.7364 58.6667 64C58.6667 63.2636 59.2636 62.6667 60 62.6667C60.7364 62.6667 61.3333 63.2636 61.3333 64C61.3333 64.7364 60.7364 65.3333 60 65.3333Z" fill="#5FFF00"/>
<path d="M27.0985 32.9825C27.4495 33.3045 27.9457 33.4147 28.4001 33.2717C28.8546 33.1287 29.1981 32.7541 29.3015 32.289C29.4048 31.824 29.2522 31.3391 28.9011 31.0171L22.6665 25.3731L28.9078 19.6491C29.2589 19.3271 29.4115 18.8423 29.3081 18.3772C29.2048 17.9122 28.8612 17.5376 28.4068 17.3946C27.9524 17.2515 27.4562 17.3618 27.1051 17.6838L20.8638 23.4078C20.3177 23.8989 20.0059 24.5987 20.0059 25.3331C20.0059 26.0675 20.3177 26.7674 20.8638 27.2585L27.0985 32.9825Z" fill="#5FFF00"/>
<path d="M45.6842 32.9011C45.9232 33.1618 46.256 33.3168 46.6093 33.332C46.9627 33.3473 47.3076 33.2215 47.5682 32.9825L53.8095 27.2585C54.3556 26.7674 54.6674 26.0675 54.6674 25.3331C54.6674 24.5987 54.3556 23.8989 53.8095 23.4078L47.5695 17.6838C47.2184 17.3618 46.7222 17.2515 46.2678 17.3946C45.8134 17.5376 45.4698 17.9122 45.3665 18.3772C45.2632 18.8423 45.4158 19.3271 45.7668 19.6491L52.0082 25.2931L45.7668 31.0171C45.506 31.256 45.3508 31.5887 45.3353 31.942C45.3198 32.2953 45.4453 32.6404 45.6842 32.9011Z" fill="#5FFF00"/>
<path d="M32.6466 33.1429C33.2777 33.522 34.0966 33.3179 34.4759 32.6869L42.4759 19.3535C42.8391 18.7238 42.6307 17.9191 42.0076 17.5447C41.3845 17.1702 40.5762 17.3639 40.1906 17.9802L32.1906 31.3135C31.8115 31.9446 32.0156 32.7636 32.6466 33.1429Z" fill="#5FFF00"/>
<path d="M9.33333 41.3332C10.0697 41.3332 10.6667 40.7362 10.6667 39.9998C10.6667 39.2635 10.0697 38.6665 9.33333 38.6665C8.59695 38.6665 8 39.2635 8 39.9998C8 40.7362 8.59695 41.3332 9.33333 41.3332Z" fill="#5FFF00"/>
<path d="M9.33333 46.6667C10.0697 46.6667 10.6667 46.0697 10.6667 45.3333C10.6667 44.597 10.0697 44 9.33333 44C8.59695 44 8 44.597 8 45.3333C8 46.0697 8.59695 46.6667 9.33333 46.6667Z" fill="#5FFF00"/>
<path d="M9.33333 52.0002C10.0697 52.0002 10.6667 51.4032 10.6667 50.6668C10.6667 49.9305 10.0697 49.3335 9.33333 49.3335C8.59695 49.3335 8 49.9305 8 50.6668C8 51.4032 8.59695 52.0002 9.33333 52.0002Z" fill="#5FFF00"/>
<path d="M9.33333 57.3332C10.0697 57.3332 10.6667 56.7362 10.6667 55.9998C10.6667 55.2635 10.0697 54.6665 9.33333 54.6665C8.59695 54.6665 8 55.2635 8 55.9998C8 56.7362 8.59695 57.3332 9.33333 57.3332Z" fill="#5FFF00"/>
<path d="M9.33333 62.6667C10.0697 62.6667 10.6667 62.0697 10.6667 61.3333C10.6667 60.597 10.0697 60 9.33333 60C8.59695 60 8 60.597 8 61.3333C8 62.0697 8.59695 62.6667 9.33333 62.6667Z" fill="#5FFF00"/>
<path d="M9.33333 68.0002C10.0697 68.0002 10.6667 67.4032 10.6667 66.6668C10.6667 65.9305 10.0697 65.3335 9.33333 65.3335C8.59695 65.3335 8 65.9305 8 66.6668C8 67.4032 8.59695 68.0002 9.33333 68.0002Z" fill="#5FFF00"/>
<path d="M14.6673 41.3332H28.0007C28.737 41.3332 29.334 40.7362 29.334 39.9998C29.334 39.2635 28.737 38.6665 28.0007 38.6665H14.6673C13.9309 38.6665 13.334 39.2635 13.334 39.9998C13.334 40.7362 13.9309 41.3332 14.6673 41.3332Z" fill="#5FFF00"/>
<path d="M34.6673 49.3335H14.6673C13.9309 49.3335 13.334 49.9305 13.334 50.6668C13.334 51.4032 13.9309 52.0002 14.6673 52.0002H34.6673C35.4037 52.0002 36.0007 51.4032 36.0007 50.6668C36.0007 49.9305 35.4037 49.3335 34.6673 49.3335Z" fill="#5FFF00"/>
<path d="M30.6673 60H14.6673C13.9309 60 13.334 60.597 13.334 61.3333C13.334 62.0697 13.9309 62.6667 14.6673 62.6667H30.6673C31.4037 62.6667 32.0007 62.0697 32.0007 61.3333C32.0007 60.597 31.4037 60 30.6673 60Z" fill="#5FFF00"/>
<path d="M14.6673 46.6667H40.0007C40.737 46.6667 41.334 46.0697 41.334 45.3333C41.334 44.597 40.737 44 40.0007 44H14.6673C13.9309 44 13.334 44.597 13.334 45.3333C13.334 46.0697 13.9309 46.6667 14.6673 46.6667Z" fill="#5FFF00"/>
<path d="M14.6673 57.3332H22.6673C23.4037 57.3332 24.0007 56.7362 24.0007 55.9998C24.0007 55.2635 23.4037 54.6665 22.6673 54.6665H14.6673C13.9309 54.6665 13.334 55.2635 13.334 55.9998C13.334 56.7362 13.9309 57.3332 14.6673 57.3332Z" fill="#5FFF00"/>
<path d="M21.334 65.3335H14.6673C13.9309 65.3335 13.334 65.9305 13.334 66.6668C13.334 67.4032 13.9309 68.0002 14.6673 68.0002H21.334C22.0704 68.0002 22.6673 67.4032 22.6673 66.6668C22.6673 65.9305 22.0704 65.3335 21.334 65.3335Z" fill="#5FFF00"/>
<path d="M33.3333 41.3332H37.3333C38.0697 41.3332 38.6667 40.7362 38.6667 39.9998C38.6667 39.2635 38.0697 38.6665 37.3333 38.6665H33.3333C32.597 38.6665 32 39.2635 32 39.9998C32 40.7362 32.597 41.3332 33.3333 41.3332Z" fill="#5FFF00"/>
<path d="M31.9993 54.6665H27.9993C27.263 54.6665 26.666 55.2635 26.666 55.9998C26.666 56.7362 27.263 57.3332 27.9993 57.3332H31.9993C32.7357 57.3332 33.3327 56.7362 33.3327 55.9998C33.3327 55.2635 32.7357 54.6665 31.9993 54.6665Z" fill="#5FFF00"/>
</svg>
