<svg width="80" height="80" viewBox="0 0 80 80" fill="none" xmlns="http://www.w3.org/2000/svg">
<g clip-path="url(#clip0_1500_2288)">
<path d="M63.2192 42.7937C62.9003 42.7933 62.592 42.679 62.35 42.4714L53.3633 34.7698H31.124C29.3513 34.7677 27.6518 34.0626 26.3983 32.8091C25.1448 31.5556 24.4396 29.8561 24.4375 28.0833V6.68651C24.4396 4.91379 25.1448 3.21428 26.3983 1.96078C27.6518 0.707275 29.3513 0.00212344 31.124 0H68.5685C70.3412 0.00212344 72.0407 0.707275 73.2942 1.96078C74.5477 3.21428 75.2528 4.91379 75.255 6.68651V28.0833C75.2528 29.8561 74.5477 31.5556 73.2942 32.8091C72.0407 34.0626 70.3412 34.7677 68.5685 34.7698H64.5565V41.4563C64.5565 41.811 64.4157 42.1512 64.1649 42.402C63.9141 42.6528 63.5739 42.7937 63.2192 42.7937ZM31.124 2.6746C30.06 2.6746 29.0395 3.09729 28.2872 3.84966C27.5348 4.60204 27.1121 5.62248 27.1121 6.68651V28.0833C27.1121 29.1474 27.5348 30.1678 28.2872 30.9202C29.0395 31.6726 30.06 32.0952 31.124 32.0952H53.8581C54.1772 32.0949 54.4857 32.2093 54.7274 32.4175L61.8819 38.5491V33.4325C61.8819 33.0779 62.0228 32.7377 62.2736 32.4869C62.5244 32.2361 62.8646 32.0952 63.2192 32.0952H68.5685C69.6325 32.0952 70.6529 31.6726 71.4053 30.9202C72.1577 30.1678 72.5804 29.1474 72.5804 28.0833V6.68651C72.5804 5.62248 72.1577 4.60204 71.4053 3.84966C70.6529 3.09729 69.6325 2.6746 68.5685 2.6746H31.124Z" fill="#5FFF00"/>
<path d="M49.8459 26.746C49.5402 26.7429 49.2449 26.6342 49.0103 26.4382C48.7757 26.2422 48.6161 25.971 48.5587 25.6707C48.5013 25.3704 48.5496 25.0595 48.6954 24.7908C48.8412 24.5221 49.0755 24.3121 49.3585 24.1965C49.6415 24.0809 49.9558 24.0668 50.248 24.1566C50.5403 24.2465 50.7924 24.4346 50.9617 24.6892C51.1309 24.9439 51.2068 25.2492 51.1765 25.5534C51.1462 25.8576 51.0115 26.142 50.7954 26.3582C50.5391 26.6025 50.1999 26.7411 49.8459 26.746Z" fill="#5FFF00"/>
<path d="M49.8453 22.7341C49.4906 22.7341 49.1505 22.5932 48.8997 22.3424C48.6489 22.0916 48.508 21.7515 48.508 21.3968V18.4855C48.5116 17.8996 48.7124 17.3321 49.078 16.8743C49.4436 16.4165 49.9528 16.0951 50.5233 15.962C51.1791 15.7908 51.7454 15.3771 52.1078 14.8044C52.4703 14.2317 52.6018 13.5428 52.4758 12.8769C52.3728 12.3477 52.1141 11.8613 51.7329 11.4801C51.3516 11.0989 50.8653 10.8402 50.3361 10.7372C49.9494 10.665 49.5515 10.679 49.1709 10.7782C48.7902 10.8774 48.4361 11.0593 48.1338 11.311C47.8315 11.5628 47.5885 11.8781 47.422 12.2345C47.2555 12.5909 47.1697 12.9796 47.1707 13.373C47.1707 13.7277 47.0298 14.0678 46.779 14.3186C46.5282 14.5694 46.1881 14.7103 45.8334 14.7103C45.4787 14.7103 45.1386 14.5694 44.8878 14.3186C44.637 14.0678 44.4961 13.7277 44.4961 13.373C44.4963 12.3732 44.7767 11.3935 45.3055 10.545C45.8343 9.69649 46.5903 9.01316 47.4877 8.57252C48.3852 8.13188 49.3881 7.95157 50.3829 8.05205C51.3776 8.15252 52.3243 8.52976 53.1155 9.14096C53.9067 9.75217 54.5107 10.5729 54.8592 11.51C55.2076 12.4471 55.2864 13.4631 55.0867 14.4427C54.887 15.4224 54.4167 16.3264 53.7292 17.0523C53.0418 17.7783 52.1646 18.297 51.1973 18.5497L51.1826 21.3968C51.1826 21.7515 51.0417 22.0916 50.7909 22.3424C50.5401 22.5932 50.2 22.7341 49.8453 22.7341Z" fill="#5FFF00"/>
<path d="M17.7506 80.2381C17.3959 80.2381 17.0557 80.0972 16.8049 79.8464C16.5542 79.5956 16.4133 79.2555 16.4133 78.9008V72.2143H12.4014C10.6286 72.2122 8.92913 71.507 7.67562 70.2535C6.42212 69 5.71697 67.3005 5.71484 65.5278V44.131C5.71697 42.3582 6.42212 40.6587 7.67562 39.4052C8.92913 38.1517 10.6286 37.4466 12.4014 37.4445H49.8458C51.6185 37.4466 53.318 38.1517 54.5715 39.4052C55.825 40.6587 56.5302 42.3582 56.5323 44.131V65.5278C56.5302 67.3005 55.825 69 54.5715 70.2535C53.318 71.507 51.6185 72.2122 49.8458 72.2143H27.6065L18.6211 79.9158C18.3787 80.1238 18.0699 80.2381 17.7506 80.2381ZM12.4014 40.1191C11.3373 40.1191 10.3169 40.5417 9.56451 41.2941C8.81213 42.0465 8.38945 43.0669 8.38945 44.131V65.5278C8.38945 66.5918 8.81213 67.6123 9.56451 68.3646C10.3169 69.117 11.3373 69.5397 12.4014 69.5397H17.7506C18.1052 69.5397 18.4454 69.6806 18.6962 69.9314C18.947 70.1822 19.0879 70.5223 19.0879 70.877V75.9935L26.2411 69.862C26.4835 69.6541 26.7923 69.5397 27.1117 69.5397H49.8458C50.9098 69.5397 51.9303 69.117 52.6826 68.3646C53.435 67.6123 53.8577 66.5918 53.8577 65.5278V44.131C53.8577 43.0669 53.435 42.0465 52.6826 41.2941C51.9303 40.5417 50.9098 40.1191 49.8458 40.1191H12.4014Z" fill="#5FFF00"/>
<path d="M17.7502 48.1429H15.0756C14.7209 48.1429 14.3808 48.002 14.13 47.7512C13.8792 47.5004 13.7383 47.1602 13.7383 46.8056C13.7383 46.4509 13.8792 46.1107 14.13 45.8599C14.3808 45.6092 14.7209 45.4683 15.0756 45.4683H17.7502C18.1049 45.4683 18.445 45.6092 18.6958 45.8599C18.9466 46.1107 19.0875 46.4509 19.0875 46.8056C19.0875 47.1602 18.9466 47.5004 18.6958 47.7512C18.445 48.002 18.1049 48.1429 17.7502 48.1429Z" fill="#5FFF00"/>
<path d="M47.1705 48.1429H23.099C22.7443 48.1429 22.4042 48.002 22.1534 47.7512C21.9026 47.5004 21.7617 47.1602 21.7617 46.8056C21.7617 46.4509 21.9026 46.1107 22.1534 45.8599C22.4042 45.6092 22.7443 45.4683 23.099 45.4683H47.1705C47.5251 45.4683 47.8653 45.6092 48.1161 45.8599C48.3669 46.1107 48.5078 46.4509 48.5078 46.8056C48.5078 47.1602 48.3669 47.5004 48.1161 47.7512C47.8653 48.002 47.5251 48.1429 47.1705 48.1429Z" fill="#5FFF00"/>
<path d="M17.7502 53.4921H15.0756C14.7209 53.4921 14.3808 53.3512 14.13 53.1004C13.8792 52.8496 13.7383 52.5094 13.7383 52.1547C13.7383 51.8001 13.8792 51.4599 14.13 51.2091C14.3808 50.9583 14.7209 50.8174 15.0756 50.8174H17.7502C18.1049 50.8174 18.445 50.9583 18.6958 51.2091C18.9466 51.4599 19.0875 51.8001 19.0875 52.1547C19.0875 52.5094 18.9466 52.8496 18.6958 53.1004C18.445 53.3512 18.1049 53.4921 17.7502 53.4921Z" fill="#5FFF00"/>
<path d="M47.1705 53.4921H23.099C22.7443 53.4921 22.4042 53.3512 22.1534 53.1004C21.9026 52.8496 21.7617 52.5094 21.7617 52.1547C21.7617 51.8001 21.9026 51.4599 22.1534 51.2091C22.4042 50.9583 22.7443 50.8174 23.099 50.8174H47.1705C47.5251 50.8174 47.8653 50.9583 48.1161 51.2091C48.3669 51.4599 48.5078 51.8001 48.5078 52.1547C48.5078 52.5094 48.3669 52.8496 48.1161 53.1004C47.8653 53.3512 47.5251 53.4921 47.1705 53.4921Z" fill="#5FFF00"/>
<path d="M17.7502 58.8413H15.0756C14.7209 58.8413 14.3808 58.7004 14.13 58.4496C13.8792 58.1988 13.7383 57.8587 13.7383 57.504C13.7383 57.1493 13.8792 56.8092 14.13 56.5584C14.3808 56.3076 14.7209 56.1667 15.0756 56.1667H17.7502C18.1049 56.1667 18.445 56.3076 18.6958 56.5584C18.9466 56.8092 19.0875 57.1493 19.0875 57.504C19.0875 57.8587 18.9466 58.1988 18.6958 58.4496C18.445 58.7004 18.1049 58.8413 17.7502 58.8413Z" fill="#5FFF00"/>
<path d="M47.1705 58.8413H23.099C22.7443 58.8413 22.4042 58.7004 22.1534 58.4496C21.9026 58.1988 21.7617 57.8587 21.7617 57.504C21.7617 57.1493 21.9026 56.8092 22.1534 56.5584C22.4042 56.3076 22.7443 56.1667 23.099 56.1667H47.1705C47.5251 56.1667 47.8653 56.3076 48.1161 56.5584C48.3669 56.8092 48.5078 57.1493 48.5078 57.504C48.5078 57.8587 48.3669 58.1988 48.1161 58.4496C47.8653 58.7004 47.5251 58.8413 47.1705 58.8413Z" fill="#5FFF00"/>
<path d="M17.7502 64.1905H15.0756C14.7209 64.1905 14.3808 64.0496 14.13 63.7988C13.8792 63.548 13.7383 63.2078 13.7383 62.8532C13.7383 62.4985 13.8792 62.1583 14.13 61.9076C14.3808 61.6568 14.7209 61.5159 15.0756 61.5159H17.7502C18.1049 61.5159 18.445 61.6568 18.6958 61.9076C18.9466 62.1583 19.0875 62.4985 19.0875 62.8532C19.0875 63.2078 18.9466 63.548 18.6958 63.7988C18.445 64.0496 18.1049 64.1905 17.7502 64.1905Z" fill="#5FFF00"/>
<path d="M47.1705 64.1905H23.099C22.7443 64.1905 22.4042 64.0496 22.1534 63.7988C21.9026 63.548 21.7617 63.2078 21.7617 62.8532C21.7617 62.4985 21.9026 62.1583 22.1534 61.9076C22.4042 61.6568 22.7443 61.5159 23.099 61.5159H47.1705C47.5251 61.5159 47.8653 61.6568 48.1161 61.9076C48.3669 62.1583 48.5078 62.4985 48.5078 62.8532C48.5078 63.2078 48.3669 63.548 48.1161 63.7988C47.8653 64.0496 47.5251 64.1905 47.1705 64.1905Z" fill="#5FFF00"/>
</g>
<defs>
<clipPath id="clip0_1500_2288">
<rect width="80" height="80" fill="white"/>
</clipPath>
</defs>
</svg>
