<svg width="80" height="80" viewBox="0 0 80 80" fill="none" xmlns="http://www.w3.org/2000/svg">
<g clip-path="url(#clip0_1500_2191)">
<path d="M57.9967 68.3657L57.4329 68.1717C57.8745 67.5004 58.2035 66.7626 58.4064 65.9864C66.2702 68.093 73.9805 62.1551 73.9862 54.0357V46.798C73.9831 41.2311 70.2324 36.3253 64.8658 34.8678C64.1721 34.6793 63.457 35.0891 63.2686 35.7829C63.0804 36.4766 63.4899 37.1917 64.1836 37.3801C68.4198 38.5305 71.3807 42.4039 71.383 46.799V54.035C71.3775 61.9472 62.372 66.6417 55.8954 61.9542C55.3125 61.5327 54.4992 61.6633 54.0779 62.2456C53.6564 62.8279 53.7869 63.6417 54.3692 64.0631C54.8766 64.4303 55.4069 64.7549 55.9551 65.0382C55.7934 65.8674 55.4109 66.6424 54.8464 67.2822L51.9188 66.2755C51.074 65.9849 50.312 65.5272 49.6543 64.9155C49.128 64.4258 48.3044 64.4555 47.8147 64.982C47.325 65.5083 47.3549 66.3319 47.8811 66.8215C48.1695 67.0898 48.4738 67.3345 48.7899 67.5601C46.0414 72.0773 40.1635 73.0359 36.0928 70.4131C35.4887 70.0236 34.683 70.198 34.2936 70.8021C33.9041 71.4063 34.0784 72.2118 34.6828 72.6012C40.0592 76.0658 47.6627 74.6455 51.1141 68.7516C51.6458 68.9345 55.775 70.3546 57.1498 70.8274C59.7229 71.7124 61.4516 74.1351 61.4516 76.8561V78.6985C61.4516 79.4173 62.0344 80.0001 62.7532 80.0001C63.472 80.0001 64.0548 79.4173 64.0548 78.6985V76.8559C64.0551 73.024 61.6203 69.6119 57.9967 68.3657Z" fill="#5FFF00"/>
<path d="M30.9943 68.7369C34.0083 67.7004 36.2099 65.1454 36.8495 62.1073C46.3727 64.7651 55.8504 57.7538 56.2326 47.9457C58.3914 47.3821 59.9876 45.4379 59.9876 43.132V30.4302C59.9876 29.7114 59.4048 29.1287 58.686 29.1287C57.9672 29.1287 57.3845 29.7114 57.3845 30.4302V43.132C57.3845 43.9576 56.9239 44.6994 56.2456 45.1268V38.1615C56.2487 33.6927 52.6249 30.0546 48.1669 30.0515H33.7504C29.2676 30.0515 25.6568 33.6743 25.6537 38.1407V47.3255C25.6579 53.4259 29.2222 58.7054 34.3717 61.1754C34.0361 63.5023 32.4169 65.4949 30.1478 66.2752L27.0957 67.3247C26.5098 66.677 26.1135 65.8871 25.9484 65.0386C26.5692 64.7176 27.167 64.3433 27.7354 63.9144C28.3091 63.4813 28.4232 62.665 27.9899 62.0914C27.557 61.5175 26.7405 61.4036 26.1669 61.8367C25.5123 62.3309 24.8091 62.7347 24.07 63.0459C17.4041 65.7578 10.5255 60.85 10.5206 54.036V46.7993C10.5231 42.4024 13.485 38.5289 17.7228 37.3793C18.4166 37.191 18.8264 36.4761 18.6382 35.7824C18.4502 35.0886 17.7352 34.6791 17.0413 34.8669C11.6727 36.3232 7.92056 41.2294 7.91747 46.7984V54.0367C7.92088 58.874 10.7107 63.0692 14.7612 65.1024C14.4316 66.7218 13.2613 68.0907 11.6607 68.6411L6.86757 70.2896C3.89898 71.3107 1.9043 74.106 1.9043 77.2454V78.6985C1.9043 79.4173 2.48708 80.0001 3.20588 80.0001C3.92469 80.0001 4.50747 79.4173 4.50747 78.6985V77.2454C4.50747 75.2171 5.79621 73.4109 7.71426 72.7512L12.5074 71.1027C14.8518 70.2964 16.6039 68.3564 17.2201 66.0249C19.3003 66.5574 21.4714 66.529 23.497 65.987C23.7044 66.7811 24.0436 67.5344 24.5003 68.2174L24.0698 68.3655C20.4462 69.6119 18.0114 73.024 18.0114 76.8559V78.6985C18.0114 79.4173 18.5942 80.0001 19.313 80.0001C20.0318 80.0001 20.6146 79.4173 20.6146 78.6985V76.8559C20.6146 74.1349 22.3434 71.7122 24.9164 70.8273C30.9435 68.7544 24.8622 70.846 30.9943 68.7369ZM28.2569 47.326V38.143C28.2588 35.1127 30.7074 32.6548 33.7493 32.6548H48.1658C51.1876 32.6569 53.6443 35.1264 53.6422 38.1599C53.6419 38.6608 53.6461 35.769 53.6422 47.3512C53.6398 54.3604 47.938 60.0627 40.9374 60.0627C33.9478 60.0627 28.2618 54.3481 28.2569 47.326Z" fill="#5FFF00"/>
<path d="M26.3257 24.5091C23.8857 24.9336 22.0791 27.0644 22.0791 29.5456V43.2654C22.0791 43.9842 22.6619 44.567 23.3807 44.567C24.0995 44.567 24.6823 43.9842 24.6823 43.2654V29.5537C24.6823 28.1657 25.8158 27.0364 27.209 27.0364C27.7408 27.0364 28.2192 26.7128 28.4172 26.2192C29.9405 22.4194 33.5767 19.9643 37.6804 19.9643H45.2295C45.9483 19.9643 46.531 19.3815 46.531 18.6627C46.531 17.9439 45.9483 17.3611 45.2295 17.3611H37.6804C32.779 17.3611 28.406 20.141 26.3257 24.5091Z" fill="#5FFF00"/>
<path d="M75.036 70.2897L70.2429 68.6413C69.5636 68.4073 68.8227 68.769 68.5887 69.4487C68.3549 70.1285 68.7164 70.8691 69.3963 71.1029L74.1894 72.7513C76.1075 73.4111 77.3962 75.217 77.3962 77.2456V78.6985C77.3962 79.4173 77.979 80 78.6978 80C79.4166 80 79.9994 79.4173 79.9994 78.6985V77.2454C79.9994 74.106 78.0047 71.3106 75.036 70.2897Z" fill="#5FFF00"/>
<path d="M74.7933 8.41272H53.4798C50.609 8.41272 48.2734 10.7483 48.2734 13.6191V21.754C48.2734 24.6248 50.609 26.9603 53.4798 26.9603H67.7382C67.6635 27.8806 67.3679 28.7697 66.8629 29.5777C66.3011 30.4761 66.9955 31.6316 68.0434 31.567C70.9539 31.3945 73.2096 29.6603 74.1381 26.9605H74.7933C77.6641 26.9605 79.9996 24.625 79.9996 21.7542V13.6191C79.9996 10.7483 77.6641 8.41272 74.7933 8.41272ZM77.3965 21.754C77.3965 23.1893 76.2286 24.3572 74.7933 24.3572H73.1443C72.5244 24.3572 71.9908 24.7942 71.8683 25.4017C71.6255 26.6071 71.0362 27.5591 70.1904 28.1767C70.3692 27.3087 70.4081 26.412 70.3026 25.5079C70.226 24.8518 69.6702 24.357 69.0098 24.357H53.4798C52.0445 24.357 50.8766 23.1892 50.8766 21.7538V13.6191C50.8766 12.1837 52.0445 11.0159 53.4798 11.0159H74.7933C76.2286 11.0159 77.3965 12.1837 77.3965 13.6191V21.754Z" fill="#5FFF00"/>
<path d="M61.6733 17.1643C61.1976 16.0767 59.7055 16.1174 59.2688 17.1643C58.912 18.0374 59.5576 18.9654 60.4711 18.9654C61.3919 18.9654 62.0269 18.0291 61.6733 17.1643Z" fill="#5FFF00"/>
<path d="M69.6499 17.1643C69.3295 16.3964 68.3911 16.1317 67.7252 16.5802C67.1552 16.9564 66.9507 17.7569 67.3656 18.3862C67.7644 18.9776 68.5549 19.147 69.1699 18.7457C69.6627 18.421 69.8955 17.7653 69.6499 17.1643Z" fill="#5FFF00"/>
<path d="M7.11065 27.123H7.76583C8.69435 29.823 10.95 31.5572 13.8605 31.7295C14.906 31.7941 15.6043 30.6412 15.0411 29.7402C14.536 28.9322 14.2404 28.0431 14.1657 27.1229H18.1898C18.9086 27.1229 19.4913 26.5401 19.4913 25.8213C19.4913 25.1025 18.9086 24.5197 18.1898 24.5197H12.8939C12.2334 24.5197 11.6776 25.0145 11.6011 25.6706C11.4959 26.5747 11.5347 27.4714 11.7134 28.3394C10.8677 27.7218 10.2784 26.7698 10.0355 25.5644C9.91296 24.9569 9.37931 24.5199 8.75943 24.5199H7.11065C5.67532 24.5199 4.50747 23.352 4.50747 21.9167V7.11113C4.50747 5.67581 5.67532 4.50796 7.11065 4.50796H28.4241C29.8595 4.50796 31.0273 5.67581 31.0273 7.11113V13.5644C31.0273 14.2832 31.6101 14.866 32.3289 14.866C33.0477 14.866 33.6305 14.2832 33.6305 13.5644V7.11113C33.6305 4.24032 31.295 1.90479 28.4241 1.90479H7.11065C4.23983 1.90479 1.9043 4.24032 1.9043 7.11113V21.9167C1.9043 24.7875 4.23983 27.123 7.11065 27.123Z" fill="#5FFF00"/>
<path d="M25.4954 10.5278C25.4954 9.80898 24.9126 9.2262 24.1938 9.2262H11.3406C10.6218 9.2262 10.0391 9.80898 10.0391 10.5278C10.0391 11.2466 10.6218 11.8294 11.3406 11.8294H24.1938C24.9126 11.8294 25.4954 11.2466 25.4954 10.5278Z" fill="#5FFF00"/>
<path d="M11.3406 17.0358C10.6218 17.0358 10.0391 17.6186 10.0391 18.3374C10.0391 19.0562 10.6218 19.6389 11.3406 19.6389H17.7672C18.486 19.6389 19.0688 19.0562 19.0688 18.3374C19.0688 17.6186 18.486 17.0358 17.7672 17.0358H11.3406Z" fill="#5FFF00"/>
</g>
<defs>
<clipPath id="clip0_1500_2191">
<rect width="78.0952" height="78.0952" fill="white" transform="translate(1.9043 1.90479)"/>
</clipPath>
</defs>
</svg>
