<svg width="102" height="102" viewBox="0 0 102 102" fill="none" xmlns="http://www.w3.org/2000/svg">
<path d="M90.5545 2.89863H10.8678C6.46803 2.90377 2.90357 6.46823 2.89844 10.868V71.4302C2.90357 75.8286 6.46803 79.393 10.8678 79.3986H41.0238C40.3388 84.2933 36.6735 88.9611 33.1795 88.9611C30.5396 88.9611 28.3987 91.1019 28.3987 93.7424C28.3987 96.3828 30.5396 98.5236 33.1795 98.5236H68.2428C70.8823 98.5236 73.0231 96.3828 73.0231 93.7424C73.0231 91.1019 70.8823 88.9611 68.2428 88.9611C64.7484 88.9611 61.0831 84.2933 60.3986 79.3986H90.5545C94.9538 79.393 98.5183 75.8286 98.5234 71.4302V10.868C98.5183 6.46823 94.9538 2.90377 90.5545 2.89863ZM10.8678 6.08582H90.5545C93.1954 6.08582 95.3362 8.22664 95.3362 10.868V63.4608H6.08563V10.868C6.08563 8.22664 8.22645 6.08582 10.8678 6.08582ZM68.2428 95.3364H33.1795C32.2999 95.3364 31.5859 94.6225 31.5859 93.7424C31.5859 92.8622 32.2999 92.1493 33.1795 92.1493H68.2428C69.122 92.1493 69.8359 92.8622 69.8359 93.7424C69.8359 94.6225 69.122 95.3364 68.2428 95.3364ZM61.6602 88.9611H39.7617C42.2602 86.3482 43.8356 82.9897 44.2488 79.3986H57.1731C57.5863 82.9897 59.1617 86.3482 61.6602 88.9611ZM95.3362 71.4302C95.3362 74.0701 93.1954 76.2114 90.5545 76.2114H10.8678C8.22645 76.2114 6.08563 74.0701 6.08563 71.4302V66.6485H95.3362V71.4302Z" fill="black"/>
<path d="M52.3053 71.4302C52.3053 72.3099 51.5914 73.0233 50.7112 73.0233C49.8311 73.0233 49.1172 72.3099 49.1172 71.4302C49.1172 70.5496 49.8311 69.8361 50.7112 69.8361C51.5914 69.8361 52.3053 70.5496 52.3053 71.4302Z" fill="black"/>
<path d="M52.1715 20.4305C52.1715 21.3097 51.4576 22.0236 50.577 22.0236C49.6973 22.0236 48.9834 21.3097 48.9834 20.4305C48.9834 19.5494 49.6973 18.8359 50.577 18.8359C51.4576 18.8359 52.1715 19.5494 52.1715 20.4305Z" fill="black"/>
<path d="M50.577 28.3989H53.7646C54.6448 28.3989 55.3587 27.685 55.3587 26.8049C55.3587 25.9247 54.6448 25.2108 53.7646 25.2108H50.577C49.6973 25.2108 48.9834 25.9247 48.9834 26.8049C48.9834 27.685 49.6973 28.3989 50.577 28.3989Z" fill="black"/>
<path d="M61.8677 37.9614H58.6805C57.7994 37.9614 57.0859 38.6754 57.0859 39.5546C57.0859 40.4356 57.7994 41.1486 58.6805 41.1486H61.8677C62.7473 41.1486 63.4608 40.4356 63.4608 39.5546C63.4608 38.6754 62.7473 37.9614 61.8677 37.9614Z" fill="black"/>
<path d="M77.805 28.3989H79.3991C80.2792 28.3989 80.9927 27.685 80.9927 26.8049C80.9927 25.9247 80.2792 25.2108 79.3991 25.2108H77.805C76.9258 25.2108 76.2119 25.9247 76.2119 26.8049C76.2119 27.685 76.9258 28.3989 77.805 28.3989Z" fill="black"/>
<path d="M88.9612 47.5239H90.5548C91.4354 47.5239 92.1494 46.81 92.1494 45.9299C92.1494 45.0497 91.4354 44.3368 90.5548 44.3368H88.9612C88.0811 44.3368 87.3672 45.0497 87.3672 45.9299C87.3672 46.81 88.0811 47.5239 88.9612 47.5239Z" fill="black"/>
<path d="M84.1798 57.086H82.5867C81.7056 57.086 80.9922 57.7994 80.9922 58.6805C80.9922 59.5597 81.7056 60.2736 82.5867 60.2736H84.1798C85.06 60.2736 85.7739 59.5597 85.7739 58.6805C85.7739 57.7994 85.06 57.086 84.1798 57.086Z" fill="black"/>
<path d="M66.6486 44.3368H65.055C64.1749 44.3368 63.4609 45.0497 63.4609 45.9299C63.4609 46.81 64.1749 47.5239 65.055 47.5239H66.6486C67.5292 47.5239 68.2431 46.81 68.2431 45.9299C68.2431 45.0497 67.5292 44.3368 66.6486 44.3368Z" fill="black"/>
<path d="M71.4304 57.086H69.8363C68.9562 57.086 68.2432 57.7994 68.2432 58.6805C68.2432 59.5597 68.9562 60.2736 69.8363 60.2736H71.4304C72.31 60.2736 73.0235 59.5597 73.0235 58.6805C73.0235 57.7994 72.31 57.086 71.4304 57.086Z" fill="black"/>
<path d="M77.805 34.7743H82.5872C83.4664 34.7743 84.1804 34.0603 84.1804 33.1797C84.1804 32.3001 83.4664 31.5861 82.5872 31.5861H77.805C76.9258 31.5861 76.2119 32.3001 76.2119 33.1797C76.2119 34.0603 76.9258 34.7743 77.805 34.7743Z" fill="black"/>
<path d="M53.8988 28.3989H69.8366C70.7167 28.3989 71.4307 27.685 71.4307 26.8049C71.4307 25.9247 70.7167 25.2108 69.8366 25.2108H53.8988C53.0196 25.2108 52.3057 25.9247 52.3057 26.8049C52.3057 27.685 53.0196 28.3989 53.8988 28.3989Z" fill="black"/>
<path d="M50.577 17.2424C51.4576 17.2424 52.1715 16.5294 52.1715 15.6483V10.868C52.1715 9.98695 51.4576 9.2735 50.577 9.2735C49.6973 9.2735 48.9834 9.98695 48.9834 10.868V15.6483C48.9834 16.5294 49.6973 17.2424 50.577 17.2424Z" fill="black"/>
<path d="M92.1491 20.4305C92.1491 21.3097 91.4351 22.0236 90.5545 22.0236C89.6749 22.0236 88.9609 21.3097 88.9609 20.4305C88.9609 19.5494 89.6749 18.836 90.5545 18.836C91.4351 18.836 92.1491 19.5494 92.1491 20.4305Z" fill="black"/>
<path d="M90.5545 17.2424C91.4351 17.2424 92.1491 16.5294 92.1491 15.6483V10.868C92.1491 9.98693 91.4351 9.27348 90.5545 9.27348C89.6749 9.27348 88.9609 9.98693 88.9609 10.868V15.6483C88.9609 16.5294 89.6749 17.2424 90.5545 17.2424Z" fill="black"/>
<path d="M50.577 34.7743H79.265C80.1446 34.7743 80.8581 34.0603 80.8581 33.1797C80.8581 32.3001 80.1446 31.5861 79.265 31.5861H50.577C49.6973 31.5861 48.9834 32.3001 48.9834 33.1797C48.9834 34.0603 49.6973 34.7743 50.577 34.7743Z" fill="black"/>
<path d="M50.577 41.1486H58.5459C59.426 41.1486 60.14 40.4356 60.14 39.5546C60.14 38.6753 59.426 37.9614 58.5459 37.9614H50.577C49.6973 37.9614 48.9834 38.6753 48.9834 39.5546C48.9834 40.4356 49.6973 41.1486 50.577 41.1486Z" fill="black"/>
<path d="M50.577 47.524H64.9208C65.8014 47.524 66.5153 46.81 66.5153 45.9299C66.5153 45.0498 65.8014 44.3368 64.9208 44.3368H50.577C49.6973 44.3368 48.9834 45.0498 48.9834 45.9299C48.9834 46.81 49.6973 47.524 50.577 47.524Z" fill="black"/>
<path d="M50.577 53.8983H55.3587C56.2384 53.8983 56.9518 53.1853 56.9518 52.3052C56.9518 51.4246 56.2384 50.7111 55.3587 50.7111H50.577C49.6973 50.7111 48.9834 51.4246 48.9834 52.3052C48.9834 53.1853 49.6973 53.8983 50.577 53.8983Z" fill="black"/>
<path d="M50.577 60.2736H71.2956C72.1767 60.2736 72.8897 59.5597 72.8897 58.6805C72.8897 57.7994 72.1767 57.086 71.2956 57.086H50.577C49.6973 57.086 48.9834 57.7994 48.9834 58.6805C48.9834 59.5597 49.6973 60.2736 50.577 60.2736Z" fill="black"/>
<path d="M90.5552 50.7111H73.0238C72.1436 50.7111 71.4307 51.4246 71.4307 52.3052C71.4307 53.1853 72.1436 53.8983 73.0238 53.8983H90.5552C91.4358 53.8983 92.1497 53.1853 92.1497 52.3052C92.1497 51.4246 91.4358 50.7111 90.5552 50.7111Z" fill="black"/>
<path d="M66.1481 22.0236H75.593C76.8317 22.0189 77.9584 21.3036 78.4883 20.183C79.0724 19.0064 78.9272 17.5977 78.1153 16.5649L73.3928 10.5201C72.7714 9.76839 71.8464 9.33323 70.8701 9.33323C69.8947 9.33323 68.9697 9.76839 68.3473 10.5201L63.6244 16.5649C62.8134 17.5977 62.6687 19.0064 63.2523 20.183C63.7823 21.3036 64.9085 22.0189 66.1481 22.0236ZM66.1365 18.5278L70.8607 12.4821H70.8794L75.6032 18.5278C75.6196 18.5474 75.6639 18.6034 75.593 18.836H70.8701L66.0893 18.7038C66.0776 18.6403 66.0949 18.5754 66.1365 18.5278Z" fill="black"/>
<g clip-path="url(#clip0_1332_2507)">
<path d="M25.8987 18.7169C16.5687 18.7169 8.92285 26.429 8.92285 35.7591C8.92285 45.0349 16.499 52.6686 25.8987 52.6686C35.2867 52.6686 42.8745 45.0463 42.8745 35.7591C42.8745 26.429 35.2287 18.7169 25.8987 18.7169ZM28.8827 50.3808C27.9279 50.5797 26.9133 50.6792 25.8987 50.6792C24.884 50.6792 23.8694 50.5797 22.9146 50.3808V45.7258C22.9146 44.6117 23.213 44.2138 23.6109 43.6766C23.8135 43.445 23.9357 43.2373 24.8442 41.8665L23.3125 41.6277C19.3734 41.0508 17.8218 39.0016 17.2051 37.4101C16.4093 35.2817 16.8272 32.6157 18.2596 30.925C18.4785 30.6663 18.6575 30.2285 18.4984 29.7711C18.1998 28.8559 18.2397 27.4038 18.4386 26.8466C19.4934 26.9974 20.5779 27.7529 21.4825 28.299C21.8992 28.5422 22.1179 28.478 22.3178 28.4979C23.0447 28.3466 24.1784 27.9806 25.9186 27.9806C26.9928 27.9806 28.1269 28.1397 29.2409 28.458C29.4401 28.4534 29.7603 28.6228 30.3151 28.299C31.2606 27.7229 32.3084 26.9932 33.3587 26.8466C33.5577 27.4038 33.5976 28.8559 33.2992 29.7711C33.1399 30.2285 33.3189 30.6663 33.538 30.925C34.9702 32.616 35.388 35.2817 34.5922 37.4101C33.9755 39.0016 32.4239 41.0508 28.4848 41.6277L26.9532 41.8665C27.8922 43.2834 27.9911 43.4533 28.1867 43.6766C28.5843 44.2138 28.8827 44.6117 28.8827 45.7258V50.3808ZM30.8721 49.8039V45.7258C30.8721 44.5917 30.6332 43.8359 30.3149 43.2787C33.3388 42.4633 35.4875 40.6726 36.4422 38.1064C37.4569 35.4011 36.9994 32.1782 35.3082 29.95C35.6069 28.6173 35.6069 26.4886 34.8907 25.4939C34.5723 25.0564 34.1345 24.8176 33.5776 24.8176C33.5577 24.8176 33.5577 24.8176 33.5577 24.8176C32.0152 24.901 30.8011 25.6779 29.4995 26.4687C28.3058 26.1503 27.0923 25.9913 25.8787 25.9913C24.6455 25.9913 23.412 26.1703 22.3181 26.4687C20.9478 25.6424 19.7454 24.8989 18.1601 24.8176C17.6628 24.8176 17.225 25.0564 16.9067 25.4939C16.1907 26.4886 16.1907 28.6173 16.4891 29.95C14.7979 32.1782 14.3405 35.4208 15.3551 38.1064C16.3099 40.6726 18.4585 42.4633 21.4825 43.2787C21.2356 43.7105 21.0403 44.2677 20.9634 45.0217C20.3526 45.2323 19.8229 45.301 19.3302 45.1562C18.8106 45.0026 18.4057 44.6557 18.0539 44.0641C17.2639 42.7368 15.9182 41.6533 14.3861 41.7942L14.5609 43.7758C15.2704 43.7108 15.9765 44.4614 16.3433 45.0803C16.9484 46.0993 17.7636 46.7676 18.7668 47.0639C19.5115 47.2833 20.1922 47.2781 20.9253 47.1217V49.8039C15.1362 47.7747 10.9122 42.2444 10.9122 35.7591C10.9122 27.5232 17.6628 20.7063 25.8987 20.7063C34.1345 20.7063 40.8851 27.5232 40.8851 35.7591C40.8851 42.2444 36.6611 47.7747 30.8721 49.8039Z" fill="black"/>
</g>
<defs>
<clipPath id="clip0_1332_2507">
<rect width="33.9516" height="33.9516" fill="white" transform="translate(8.92285 18.7169)"/>
</clipPath>
</defs>
</svg>
