<svg width="80" height="80" viewBox="0 0 80 80" fill="none" xmlns="http://www.w3.org/2000/svg">
<path d="M40 17.7778C35.5555 17.7778 32.0635 14.2857 32.0635 9.84129C32.0635 5.39685 35.5555 1.90479 40 1.90479C44.4444 1.90479 47.9365 5.39685 47.9365 9.84129C47.9365 14.2857 44.4444 17.7778 40 17.7778ZM40 5.07939C37.4603 5.07939 35.2381 7.30161 35.2381 9.84129C35.2381 12.381 37.4603 14.6032 40 14.6032C42.5397 14.6032 44.7619 12.381 44.7619 9.84129C44.7619 7.30161 42.5397 5.07939 40 5.07939Z" fill="#5FFF00"/>
<path d="M54.2857 33.6508C53.3333 33.6508 52.6984 33.0159 52.6984 32.0635V28.8889C52.6984 26.3492 50.4762 24.127 47.9365 24.127H32.0635C29.5238 24.127 27.3016 26.3492 27.3016 28.8889V32.0635C27.3016 33.0159 26.6666 33.6508 25.7143 33.6508C24.7619 33.6508 24.127 33.0159 24.127 32.0635V28.8889C24.127 24.4445 27.619 20.9524 32.0635 20.9524H47.9365C52.3809 20.9524 55.873 24.4445 55.873 28.8889V32.0635C55.873 33.0159 55.2381 33.6508 54.2857 33.6508Z" fill="#5FFF00"/>
<path d="M17.7773 62.2223C13.3329 62.2223 9.84082 58.7302 9.84082 54.2858C9.84082 49.8413 13.3329 46.3492 17.7773 46.3492C22.2218 46.3492 25.7138 49.8413 25.7138 54.2858C25.7138 58.7302 22.2218 62.2223 17.7773 62.2223ZM17.7773 49.5238C15.2376 49.5238 13.0154 51.7461 13.0154 54.2858C13.0154 56.8254 15.2376 59.0477 17.7773 59.0477C20.317 59.0477 22.5392 56.8254 22.5392 54.2858C22.5392 51.7461 20.317 49.5238 17.7773 49.5238Z" fill="#5FFF00"/>
<path d="M32.063 78.0953C31.1106 78.0953 30.4757 77.4603 30.4757 76.508V73.3334C30.4757 70.7937 28.2535 68.5715 25.7138 68.5715H9.8408C7.30112 68.5715 5.0789 70.7937 5.0789 73.3334V76.508C5.0789 77.4603 4.44398 78.0953 3.4916 78.0953C2.53922 78.0953 1.9043 77.4603 1.9043 76.508V73.3334C1.9043 68.8889 5.39636 65.3969 9.8408 65.3969H25.7138C30.1583 65.3969 33.6503 68.8889 33.6503 73.3334V76.508C33.6503 77.4603 33.0154 78.0953 32.063 78.0953Z" fill="#5FFF00"/>
<path d="M62.2217 62.2223C57.7772 62.2223 54.2852 58.7302 54.2852 54.2858C54.2852 49.8413 57.7772 46.3492 62.2217 46.3492C66.6661 46.3492 70.1582 49.8413 70.1582 54.2858C70.1582 58.7302 66.6661 62.2223 62.2217 62.2223ZM62.2217 49.5238C59.682 49.5238 57.4598 51.7461 57.4598 54.2858C57.4598 56.8254 59.682 59.0477 62.2217 59.0477C64.7613 59.0477 66.9836 56.8254 66.9836 54.2858C66.9836 51.7461 64.7613 49.5238 62.2217 49.5238Z" fill="#5FFF00"/>
<path d="M76.5074 78.0953C75.555 78.0953 74.9201 77.4603 74.9201 76.508V73.3334C74.9201 70.7937 72.6978 68.5715 70.1582 68.5715H54.2851C51.7455 68.5715 49.5232 70.7937 49.5232 73.3334V76.508C49.5232 77.4603 48.8883 78.0953 47.9359 78.0953C46.9836 78.0953 46.3486 77.4603 46.3486 76.508V73.3334C46.3486 68.8889 49.8407 65.3969 54.2851 65.3969H70.1582C74.6026 65.3969 78.0947 68.8889 78.0947 73.3334V76.508C78.0947 77.4603 77.4597 78.0953 76.5074 78.0953Z" fill="#5FFF00"/>
<path d="M9.84121 41.5873C8.88883 41.5873 8.25391 40.9524 8.25391 40C8.25391 27.6191 15.5555 16.5079 26.6666 11.1111C27.619 10.7937 28.2539 11.1111 28.8888 11.746C29.2063 12.6984 28.8888 13.3333 28.2539 13.9683C17.7777 18.7302 11.4285 28.8889 11.4285 40C11.4285 40.9524 10.7936 41.5873 9.84121 41.5873V41.5873Z" fill="#5FFF00"/>
<path d="M70.1581 41.5873C69.2058 41.5873 68.5708 40.9524 68.5708 40C68.5708 28.8889 62.2216 18.7302 52.0629 13.9683C51.1105 13.6508 50.7931 12.6984 51.428 11.7461C51.7454 11.1111 52.6978 10.4762 53.6502 11.1111C64.4439 16.508 71.7454 27.6191 71.7454 40C71.7454 40.9524 71.1105 41.5873 70.1581 41.5873Z" fill="#5FFF00"/>
<path d="M39.9997 71.7461C38.7298 71.7461 37.7775 71.7461 36.8251 71.4286C35.8727 71.4286 35.2378 70.4762 35.5552 69.8413C35.5552 68.8889 36.5076 68.254 37.1425 68.5715C39.0473 68.8889 41.2695 68.8889 43.1743 68.5715C44.1267 68.5715 44.7616 69.2064 45.079 69.8413C45.3965 70.4762 44.4441 71.4286 43.8092 71.7461C42.2219 71.7461 41.2695 71.7461 39.9997 71.7461Z" fill="#5FFF00"/>
</svg>
