<svg width="80" height="80" viewBox="0 0 80 80" fill="none" xmlns="http://www.w3.org/2000/svg">
<path d="M52.3046 59.2375C52.4783 59.3448 52.6766 59.406 52.8807 59.4151C53.0847 59.4243 53.2877 59.3811 53.4704 59.2898L67.8482 52.1008C68.0472 52.0013 68.2146 51.8483 68.3315 51.6591C68.4485 51.4698 68.5104 51.2517 68.5104 51.0292C68.5104 50.8067 68.4485 50.5886 68.3315 50.3994C68.2146 50.2101 68.0472 50.0571 67.8482 49.9576L53.4704 42.7687C53.2877 42.6773 53.0847 42.6342 52.8807 42.6434C52.6766 42.6525 52.4784 42.7137 52.3046 42.8211C52.1309 42.9284 51.9875 43.0784 51.888 43.2568C51.7885 43.4352 51.7363 43.636 51.7363 43.8403V58.2181C51.7363 58.4224 51.7885 58.6233 51.8879 58.8017C51.9874 58.9801 52.1308 59.1301 52.3046 59.2375V59.2375ZM54.1326 45.7789L64.6331 51.0292L54.1326 56.2795V45.7789Z" fill="#5FFF00"/>
<path d="M76.8969 33.0569H43.3485C43.0308 33.0569 42.726 33.1831 42.5013 33.4078C42.2766 33.6325 42.1504 33.9373 42.1504 34.255V67.8034C42.1504 68.1212 42.2766 68.426 42.5013 68.6507C42.726 68.8754 43.0308 69.0016 43.3485 69.0016H64.4196L71.2566 75.8401C71.4242 76.0078 71.6378 76.1221 71.8703 76.1684C72.1028 76.2147 72.3439 76.191 72.5629 76.1002C72.782 76.0095 72.9692 75.8557 73.1008 75.6585C73.2325 75.4613 73.3026 75.2295 73.3025 74.9924V69.0016H76.8969C77.2147 69.0016 77.5195 68.8754 77.7442 68.6507C77.9689 68.426 78.0951 68.1212 78.0951 67.8034V34.255C78.0951 33.9373 77.9689 33.6325 77.7442 33.4078C77.5195 33.1831 77.2147 33.0569 76.8969 33.0569ZM75.6988 66.6053H72.1043C71.7865 66.6053 71.4818 66.7315 71.2571 66.9562C71.0324 67.1809 70.9061 67.4857 70.9061 67.8034V72.1003L65.7631 66.9557C65.5381 66.7312 65.2332 66.6052 64.9154 66.6053H44.5467V35.4532H75.6988V66.6053Z" fill="#5FFF00"/>
<path d="M38.5561 1.90479H5.00773C4.68996 1.90479 4.3852 2.03102 4.1605 2.25572C3.9358 2.48042 3.80957 2.78517 3.80957 3.10294V36.6513C3.80957 36.9691 3.9358 37.2739 4.1605 37.4986C4.3852 37.7233 4.68996 37.8495 5.00773 37.8495H8.6022V43.8403C8.60201 44.0774 8.67218 44.3092 8.80382 44.5064C8.93546 44.7036 9.12266 44.8573 9.34171 44.9481C9.56076 45.0389 9.80182 45.0626 10.0344 45.0163C10.2669 44.97 10.4805 44.8557 10.648 44.688L17.485 37.8495H38.5561C38.8739 37.8495 39.1786 37.7233 39.4033 37.4986C39.628 37.2739 39.7543 36.9691 39.7543 36.6513V3.10294C39.7543 2.78517 39.628 2.48042 39.4033 2.25572C39.1786 2.03102 38.8739 1.90479 38.5561 1.90479ZM37.358 35.4532H16.9893C16.6715 35.4531 16.3666 35.5791 16.1416 35.8036L10.9985 40.9482V36.6513C10.9985 36.3336 10.8723 36.0288 10.6476 35.8041C10.4229 35.5794 10.1181 35.4532 9.80035 35.4532H6.20588V4.3011H37.358V35.4532Z" fill="#5FFF00"/>
<path d="M30.835 10.3443C30.6712 10.2352 30.4832 10.1679 30.2874 10.1483C30.0915 10.1287 29.8939 10.1575 29.7118 10.232L17.9489 15.0845H13.9934C13.1993 15.0853 12.4378 15.4012 11.8763 15.9627C11.3147 16.5243 10.9988 17.2857 10.998 18.0799V19.2781C10.9991 20.0044 11.264 20.7057 11.7433 21.2514C12.2227 21.7971 12.8839 22.1502 13.604 22.245L14.6165 27.3012C14.6705 27.5728 14.8171 27.8172 15.0312 27.9929C15.2454 28.1685 15.5138 28.2644 15.7907 28.2642H19.3851C19.5624 28.2644 19.7375 28.2251 19.8978 28.1493C20.0581 28.0735 20.1995 27.963 20.3119 27.8258C20.4242 27.6887 20.5047 27.5283 20.5475 27.3562C20.5903 27.1842 20.5943 27.0048 20.5593 26.8309L19.8015 23.0373L29.7118 27.126C29.8938 27.2011 30.0916 27.2301 30.2875 27.2106C30.4835 27.191 30.6716 27.1235 30.8352 27.0139C30.9989 26.9043 31.133 26.7561 31.2257 26.5823C31.3184 26.4086 31.3668 26.2146 31.3667 26.0177V11.3403C31.3667 11.1434 31.3182 10.9495 31.2254 10.7758C31.1327 10.6021 30.9986 10.4539 30.835 10.3443V10.3443ZM13.9934 19.8771C13.8346 19.8771 13.6822 19.814 13.5698 19.7017C13.4575 19.5893 13.3944 19.437 13.3944 19.2781V18.0799C13.3944 17.921 13.4575 17.7687 13.5698 17.6563C13.6822 17.544 13.8346 17.4808 13.9934 17.4808H16.9888V19.8771H13.9934ZM16.7732 25.8679L16.0543 22.2735H17.2045L17.9234 25.8679H16.7732ZM28.9704 24.228L19.3851 20.274V17.0839L28.9704 13.13V24.228Z" fill="#5FFF00"/>
<path d="M43.3485 30.6606H69.708C70.0258 30.6606 70.3305 30.5343 70.5552 30.3096C70.7799 30.0849 70.9062 29.7802 70.9062 29.4624V12.6882C70.9062 12.3704 70.7799 12.0657 70.5552 11.841C70.3305 11.6163 70.0258 11.4901 69.708 11.4901H43.3485C43.0308 11.4901 42.726 11.6163 42.5013 11.841C42.2766 12.0657 42.1504 12.3704 42.1504 12.6882V29.4624C42.1504 29.7802 42.2766 30.0849 42.5013 30.3096C42.726 30.5343 43.0308 30.6606 43.3485 30.6606ZM44.5467 13.8864H68.5098V28.2642H44.5467V13.8864Z" fill="#5FFF00"/>
<path d="M64.9157 19.8771H48.1415C47.8237 19.8771 47.519 20.0034 47.2943 20.2281C47.0696 20.4528 46.9434 20.7575 46.9434 21.0753C46.9434 21.3931 47.0696 21.6978 47.2943 21.9225C47.519 22.1472 47.8237 22.2734 48.1415 22.2734H64.9157C65.2335 22.2734 65.5382 22.1472 65.7629 21.9225C65.9876 21.6978 66.1139 21.3931 66.1139 21.0753C66.1139 20.7575 65.9876 20.4528 65.7629 20.2281C65.5382 20.0034 65.2335 19.8771 64.9157 19.8771Z" fill="#5FFF00"/>
<path d="M64.9157 16.2827H48.1415C47.8237 16.2827 47.519 16.4089 47.2943 16.6336C47.0696 16.8583 46.9434 17.163 46.9434 17.4808C46.9434 17.7986 47.0696 18.1033 47.2943 18.328C47.519 18.5527 47.8237 18.679 48.1415 18.679H64.9157C65.2335 18.679 65.5382 18.5527 65.7629 18.328C65.9876 18.1033 66.1139 17.7986 66.1139 17.4808C66.1139 17.163 65.9876 16.8583 65.7629 16.6336C65.5382 16.4089 65.2335 16.2827 64.9157 16.2827Z" fill="#5FFF00"/>
<path d="M57.577 23.4716H48.1415C47.8237 23.4716 47.519 23.5979 47.2943 23.8225C47.0696 24.0472 46.9434 24.352 46.9434 24.6698C46.9434 24.9875 47.0696 25.2923 47.2943 25.517C47.519 25.7417 47.8237 25.8679 48.1415 25.8679H57.577C57.8948 25.8679 58.1995 25.7417 58.4242 25.517C58.6489 25.2923 58.7752 24.9875 58.7752 24.6698C58.7752 24.352 58.6489 24.0472 58.4242 23.8225C58.1995 23.5979 57.8948 23.4716 57.577 23.4716Z" fill="#5FFF00"/>
<path d="M62.5194 23.4716H61.3212C61.0034 23.4716 60.6987 23.5979 60.474 23.8225C60.2493 24.0472 60.123 24.352 60.123 24.6698C60.123 24.9875 60.2493 25.2923 60.474 25.517C60.6987 25.7417 61.0034 25.8679 61.3212 25.8679H62.5194C62.8371 25.8679 63.1419 25.7417 63.3666 25.517C63.5913 25.2923 63.7175 24.9875 63.7175 24.6698C63.7175 24.352 63.5913 24.0472 63.3666 23.8225C63.1419 23.5979 62.8371 23.4716 62.5194 23.4716Z" fill="#5FFF00"/>
<path d="M39.7541 41.444H15.7909C15.4732 41.444 15.1684 41.5702 14.9437 41.7949C14.719 42.0196 14.5928 42.3244 14.5928 42.6421V57.02C14.5928 57.3378 14.719 57.6425 14.9437 57.8672C15.1684 58.0919 15.4732 58.2182 15.7909 58.2182H39.7541C40.0718 58.2182 40.3766 58.0919 40.6013 57.8672C40.826 57.6425 40.9522 57.3378 40.9522 57.02V42.6421C40.9522 42.3244 40.826 42.0196 40.6013 41.7949C40.3766 41.5702 40.0718 41.444 39.7541 41.444ZM38.5559 55.8218H16.9891V43.8403H38.5559V55.8218Z" fill="#5FFF00"/>
<path d="M19.3857 51.0292H36.1598C36.4776 51.0292 36.7824 50.903 37.0071 50.6783C37.2318 50.4536 37.358 50.1488 37.358 49.831C37.358 49.5133 37.2318 49.2085 37.0071 48.9838C36.7824 48.7591 36.4776 48.6329 36.1598 48.6329H19.3857C19.0679 48.6329 18.7631 48.7591 18.5384 48.9838C18.3137 49.2085 18.1875 49.5133 18.1875 49.831C18.1875 50.1488 18.3137 50.4536 18.5384 50.6783C18.7631 50.903 19.0679 51.0292 19.3857 51.0292V51.0292Z" fill="#5FFF00"/>
<path d="M19.3857 47.4347H36.1598C36.4776 47.4347 36.7824 47.3085 37.0071 47.0838C37.2318 46.8591 37.358 46.5543 37.358 46.2365C37.358 45.9188 37.2318 45.614 37.0071 45.3893C36.7824 45.1646 36.4776 45.0384 36.1598 45.0384H19.3857C19.0679 45.0384 18.7631 45.1646 18.5384 45.3893C18.3137 45.614 18.1875 45.9188 18.1875 46.2365C18.1875 46.5543 18.3137 46.8591 18.5384 47.0838C18.7631 47.3085 19.0679 47.4347 19.3857 47.4347V47.4347Z" fill="#5FFF00"/>
<path d="M19.3857 54.6237H28.8211C29.1389 54.6237 29.4437 54.4974 29.6684 54.2727C29.8931 54.048 30.0193 53.7433 30.0193 53.4255C30.0193 53.1077 29.8931 52.803 29.6684 52.5783C29.4437 52.3536 29.1389 52.2274 28.8211 52.2274H19.3857C19.0679 52.2274 18.7631 52.3536 18.5384 52.5783C18.3137 52.803 18.1875 53.1077 18.1875 53.4255C18.1875 53.7433 18.3137 54.048 18.5384 54.2727C18.7631 54.4974 19.0679 54.6237 19.3857 54.6237V54.6237Z" fill="#5FFF00"/>
<path d="M33.7635 52.2274H32.5653C32.2476 52.2274 31.9428 52.3536 31.7181 52.5783C31.4934 52.803 31.3672 53.1077 31.3672 53.4255C31.3672 53.7433 31.4934 54.048 31.7181 54.2727C31.9428 54.4974 32.2476 54.6237 32.5653 54.6237H33.7635C34.0813 54.6237 34.386 54.4974 34.6107 54.2727C34.8354 54.048 34.9617 53.7433 34.9617 53.4255C34.9617 53.1077 34.8354 52.803 34.6107 52.5783C34.386 52.3536 34.0813 52.2274 33.7635 52.2274Z" fill="#5FFF00"/>
</svg>
