<svg width="80" height="80" viewBox="0 0 80 80" fill="none" xmlns="http://www.w3.org/2000/svg">
<g clip-path="url(#clip0_1315_1890)">
<path d="M10.4584 31.0205C10.6704 31.2324 10.9487 31.339 11.227 31.339C11.5052 31.339 11.7835 31.233 11.9961 31.0205C12.4206 30.596 12.4206 29.9074 11.9961 29.4829L9.3561 26.8429L11.9961 24.2035C12.4206 23.7785 12.4206 23.0904 11.9961 22.6659C11.5716 22.2414 10.8829 22.2414 10.4584 22.6659L7.04996 26.0744C6.84593 26.2784 6.73145 26.555 6.73145 26.8429C6.73145 27.1314 6.84593 27.408 7.04996 27.612L10.4584 31.0205Z" fill="#5FFF00"/>
<path d="M21.2473 26.8429L18.6074 29.4829C18.1829 29.9074 18.1829 30.596 18.6079 31.0205C18.8199 31.2325 19.0982 31.339 19.3765 31.339C19.6547 31.339 19.933 31.2325 20.145 31.0205L23.554 27.6115C23.9785 27.187 23.9785 26.4983 23.554 26.0744L20.145 22.6654C19.7205 22.2409 19.0324 22.2409 18.6079 22.6654C18.1829 23.0904 18.1829 23.7785 18.6079 24.203L21.2473 26.8429Z" fill="#5FFF00"/>
<path d="M13.6811 31.2637C13.8114 31.3147 13.9463 31.3391 14.0784 31.3391C14.5125 31.3391 14.9223 31.0772 15.0906 30.6493L17.7685 23.8318C17.9884 23.273 17.713 22.6422 17.1541 22.4223C16.5959 22.203 15.9645 22.4778 15.7452 23.0367L13.0667 29.8542C12.8474 30.413 13.1222 31.0444 13.6811 31.2637Z" fill="#5FFF00"/>
<path d="M8.4347 37.7173H15.7589C16.3591 37.7173 16.8459 37.2305 16.8459 36.6297C16.8459 36.0295 16.3591 35.5427 15.7589 35.5427H8.4347C7.83393 35.5427 7.34766 36.0295 7.34766 36.6297C7.34766 37.2305 7.83393 37.7173 8.4347 37.7173Z" fill="#5FFF00"/>
<path d="M32.6278 35.5427H19.7511C19.1509 35.5427 18.6641 36.0295 18.6641 36.6297C18.6641 37.2305 19.1509 37.7173 19.7511 37.7173H32.6278C33.2286 37.7173 33.7154 37.2305 33.7154 36.6297C33.7154 36.0295 33.2286 35.5427 32.6278 35.5427Z" fill="#5FFF00"/>
<path d="M8.4347 42.3029H11.5547C12.1549 42.3029 12.6417 41.8161 12.6417 41.2153C12.6417 40.6151 12.1549 40.1283 11.5547 40.1283H8.4347C7.83393 40.1283 7.34766 40.6151 7.34766 41.2153C7.34766 41.8161 7.83393 42.3029 8.4347 42.3029Z" fill="#5FFF00"/>
<path d="M28.6505 40.1283C28.0498 40.1283 27.5635 40.6151 27.5635 41.2153C27.5635 41.8161 28.0498 42.3029 28.6505 42.3029H30.5503C31.151 42.3029 31.6379 41.8161 31.6379 41.2153C31.6379 40.6151 31.151 40.1283 30.5503 40.1283H28.6505Z" fill="#5FFF00"/>
<path d="M25.7885 41.2153C25.7885 40.6151 25.3017 40.1283 24.7015 40.1283H15.3693C14.7685 40.1283 14.2822 40.6151 14.2822 41.2153C14.2822 41.8161 14.7685 42.3029 15.3693 42.3029H24.7015C25.3017 42.3029 25.7885 41.8161 25.7885 41.2153Z" fill="#5FFF00"/>
<path d="M32.9102 41.2153C32.9102 41.8161 33.397 42.3029 33.9972 42.3029H37.5559C38.1566 42.3029 38.6435 41.8161 38.6435 41.2153C38.6435 40.6151 38.1566 40.1283 37.5559 40.1283H33.9972C33.397 40.1283 32.9102 40.6151 32.9102 41.2153Z" fill="#5FFF00"/>
<path d="M26.99 27.7152H30.7436C31.3443 27.7152 31.8312 27.2283 31.8312 26.6276C31.8312 26.0274 31.3443 25.5405 30.7436 25.5405H26.99C26.3892 25.5405 25.9023 26.0274 25.9023 26.6276C25.9023 27.2283 26.3892 27.7152 26.99 27.7152Z" fill="#5FFF00"/>
<path d="M34.947 27.7152H57.8502C58.451 27.7152 58.9373 27.2283 58.9373 26.6276C58.9373 26.0274 58.451 25.5405 57.8502 25.5405H34.947C34.3462 25.5405 33.8594 26.0274 33.8594 26.6276C33.8594 27.2283 34.3462 27.7152 34.947 27.7152V27.7152Z" fill="#5FFF00"/>
<path d="M54.3717 30.324H45.0939C44.4937 30.324 44.0068 30.8108 44.0068 31.4116C44.0068 32.0118 44.4937 32.4986 45.0939 32.4986H54.3717C54.9719 32.4986 55.4587 32.0118 55.4587 31.4116C55.4587 30.8108 54.9719 30.324 54.3717 30.324Z" fill="#5FFF00"/>
<path d="M41.6151 30.324H38.4259C37.8251 30.324 37.3389 30.8108 37.3389 31.4116C37.3389 32.0118 37.8251 32.4986 38.4259 32.4986H41.6151C42.2158 32.4986 42.7021 32.0118 42.7021 31.4116C42.7021 30.8108 42.2158 30.324 41.6151 30.324Z" fill="#5FFF00"/>
<path d="M26.99 32.4986H34.8027C35.4029 32.4986 35.8897 32.0118 35.8897 31.4116C35.8897 30.8108 35.4029 30.324 34.8027 30.324H26.99C26.3892 30.324 25.9023 30.8108 25.9023 31.4116C25.9023 32.0118 26.3892 32.4986 26.99 32.4986Z" fill="#5FFF00"/>
<path d="M24.715 44.6754H17.3913C16.7906 44.6754 16.3037 45.1622 16.3037 45.7624C16.3037 46.3626 16.7906 46.8494 17.3913 46.8494H24.715C25.3151 46.8494 25.802 46.3626 25.802 45.7624C25.802 45.1622 25.3151 44.6754 24.715 44.6754Z" fill="#5FFF00"/>
<path d="M14.0615 44.6754H8.4347C7.83393 44.6754 7.34766 45.1622 7.34766 45.7624C7.34766 46.3626 7.83393 46.8494 8.4347 46.8494H14.0615C14.6622 46.8494 15.1485 46.3626 15.1485 45.7624C15.1485 45.1622 14.6622 44.6754 14.0615 44.6754Z" fill="#5FFF00"/>
<path d="M37.9914 44.6754H28.424C27.8232 44.6754 27.3369 45.1622 27.3369 45.7624C27.3369 46.3626 27.8232 46.8494 28.424 46.8494H37.9914C38.5916 46.8494 39.0784 46.3626 39.0784 45.7624C39.0784 45.1622 38.5916 44.6754 37.9914 44.6754V44.6754Z" fill="#5FFF00"/>
<path d="M50.9301 39.0906H45.6984C45.0982 39.0906 44.6113 39.5774 44.6113 40.1776C44.6113 40.7784 45.0982 41.2652 45.6984 41.2652H50.9301C51.5309 41.2652 52.0171 40.7784 52.0171 40.1776C52.0171 39.5774 51.5309 39.0906 50.9301 39.0906V39.0906Z" fill="#5FFF00"/>
<path d="M60.0079 41.2652H67.3934C67.9941 41.2652 68.481 40.7784 68.481 40.1776C68.481 39.5774 67.9941 39.0906 67.3934 39.0906H60.0079C59.4072 39.0906 58.9209 39.5774 58.9209 40.1776C58.9209 40.7784 59.4077 41.2652 60.0079 41.2652Z" fill="#5FFF00"/>
<path d="M56.3151 39.0906H54.6228C54.022 39.0906 53.5352 39.5774 53.5352 40.1776C53.5352 40.7784 54.022 41.2652 54.6228 41.2652H56.3151C56.9159 41.2652 57.4021 40.7784 57.4021 40.1776C57.4021 39.5774 56.9159 39.0906 56.3151 39.0906Z" fill="#5FFF00"/>
<path d="M45.6984 53.1127H50.9301C51.5309 53.1127 52.0171 52.6265 52.0171 52.0257C52.0171 51.4255 51.5309 50.9387 50.9301 50.9387H45.6984C45.0982 50.9387 44.6113 51.4255 44.6113 52.0257C44.6113 52.6265 45.0982 53.1127 45.6984 53.1127V53.1127Z" fill="#5FFF00"/>
<path d="M60.0079 53.1127H67.3934C67.9941 53.1127 68.481 52.6265 68.481 52.0257C68.481 51.4255 67.9941 50.9387 67.3934 50.9387H60.0079C59.4072 50.9387 58.9209 51.4255 58.9209 52.0257C58.9209 52.6265 59.4077 53.1127 60.0079 53.1127Z" fill="#5FFF00"/>
<path d="M54.6232 53.1127H56.3155C56.9163 53.1127 57.4031 52.6265 57.4031 52.0257C57.4031 51.4255 56.9163 50.9387 56.3155 50.9387H54.6232C54.0224 50.9387 53.5361 51.4255 53.5361 52.0257C53.5361 52.6265 54.0224 53.1127 54.6232 53.1127Z" fill="#5FFF00"/>
<path d="M50.9301 62.7867H45.6984C45.0982 62.7867 44.6113 63.2735 44.6113 63.8737C44.6113 64.4739 45.0982 64.9608 45.6984 64.9608H50.9301C51.5309 64.9608 52.0171 64.4739 52.0171 63.8737C52.0171 63.2735 51.5309 62.7867 50.9301 62.7867V62.7867Z" fill="#5FFF00"/>
<path d="M67.3934 62.7867H60.0079C59.4072 62.7867 58.9209 63.2735 58.9209 63.8737C58.9209 64.4739 59.4072 64.9608 60.0079 64.9608H67.3934C67.9941 64.9608 68.481 64.4739 68.481 63.8737C68.481 63.2735 67.9941 62.7867 67.3934 62.7867V62.7867Z" fill="#5FFF00"/>
<path d="M56.3151 62.7867H54.6228C54.022 62.7867 53.5352 63.2735 53.5352 63.8737C53.5352 64.4739 54.022 64.9608 54.6228 64.9608H56.3151C56.9159 64.9608 57.4021 64.4739 57.4021 63.8737C57.4021 63.2735 56.9159 62.7867 56.3151 62.7867Z" fill="#5FFF00"/>
<path d="M71.4057 3.95441H6.68943C4.05117 3.95441 1.9043 6.10072 1.9043 8.73954V61.3442C1.9043 63.9825 4.05117 66.1288 6.68943 66.1288H10.7808C11.381 66.1288 11.8679 65.6425 11.8679 65.0418C11.8679 64.4416 11.381 63.9547 10.7808 63.9547H6.68943C5.24986 63.9547 4.07894 62.7838 4.07894 61.3442V57.22H43.6879V59.0937H42.8259C41.6464 59.0937 40.6875 60.0526 40.6875 61.232V63.9547H17.3909C16.7907 63.9547 16.3039 64.4416 16.3039 65.0418C16.3039 65.6425 16.7907 66.1288 17.3909 66.1288H27.8442V70.0281H24.5616C22.3716 70.0281 20.5903 71.81 20.5903 73.9994V76.348C20.5903 77.3472 21.403 78.1599 22.4022 78.1599H55.6096C56.6088 78.1599 57.4216 77.3472 57.4216 76.348V73.9994C57.4216 71.81 55.6402 70.0281 53.4503 70.0281H50.1676V68.6537H70.2666C71.4454 68.6537 72.4044 67.6948 72.4044 66.5153V66.0036C74.5235 65.5116 76.1076 63.6101 76.1076 61.3442L76.1897 8.73897C76.1903 6.10072 74.044 3.95441 71.4057 3.95441V3.95441ZM42.8621 54.6316V49.4202H70.2303V54.6316H42.8621ZM45.862 47.2456V44.9582H67.2299V47.2456H45.862ZM67.2299 56.8057V59.0937H45.862V56.8057H67.2299ZM30.0183 66.1288H40.6875V66.5159C40.6875 67.6948 41.6464 68.6537 42.8259 68.6537H47.9936V70.0281H30.0183V66.1288ZM53.4509 72.2027C54.4416 72.2027 55.2475 73.0087 55.2475 73.9994V75.9858H22.7644V73.9994C22.7644 73.0087 23.5709 72.2027 24.5616 72.2027H53.4509ZM70.2303 66.4791H42.8621V61.2683H70.2303V66.4791ZM73.9335 61.3442C73.9335 62.3973 73.3055 63.3047 72.4049 63.7167V61.2315C72.4049 60.0526 71.4454 59.0937 70.2666 59.0937H69.4045V57.22H73.9335V61.3442ZM73.9335 55.0459H72.3692C72.3913 54.9229 72.4049 49.384 72.4049 49.384C72.4049 48.2045 71.4454 47.2456 70.2666 47.2456H69.4045V44.9582H70.2666C71.4454 44.9582 72.4049 43.9986 72.4049 42.8198V37.5359C72.4049 36.3571 71.4454 35.3975 70.2666 35.3975H64.1257C63.525 35.3975 63.0387 35.8844 63.0387 36.4851C63.0387 37.0853 63.525 37.5722 64.1257 37.5722H70.2303V42.7835H42.8621V37.5722H57.3609C57.9617 37.5722 58.448 37.0853 58.448 36.4851C58.448 35.8844 57.9617 35.3975 57.3609 35.3975H42.8259C41.6464 35.3975 40.6875 36.3571 40.6875 37.5359V42.8198C40.6875 43.9986 41.6464 44.9582 42.8259 44.9582H43.6879V47.2456H42.8259C41.6464 47.2456 40.6875 48.2051 40.6875 49.384C40.6875 49.384 40.7011 54.9229 40.7232 55.0459H4.07894V18.7434H73.9335V55.0459ZM73.9335 16.5687H4.15886V8.73897C4.15886 7.29997 5.32978 6.12905 6.76934 6.12905H71.323C72.7626 6.12905 73.9335 7.29997 73.9335 8.73954V16.5687Z" fill="#5FFF00"/>
<path d="M9.92172 8.1275C8.16251 8.1275 6.73145 9.55856 6.73145 11.3178C6.73145 13.077 8.16251 14.5086 9.92172 14.5086C11.6809 14.5086 13.1126 13.077 13.1126 11.3178C13.1126 9.55856 11.6809 8.1275 9.92172 8.1275ZM9.92172 12.334C9.36177 12.334 8.90553 11.8783 8.90553 11.3178C8.90553 10.7578 9.36177 10.3016 9.92172 10.3016C10.4822 10.3016 10.9379 10.7578 10.9379 11.3178C10.9379 11.8783 10.4822 12.334 9.92172 12.334Z" fill="#5FFF00"/>
<path d="M18.0453 8.1275C16.2861 8.1275 14.8545 9.55856 14.8545 11.3178C14.8545 13.077 16.2861 14.5086 18.0453 14.5086C19.8046 14.5086 21.2356 13.077 21.2356 11.3178C21.2356 9.55856 19.804 8.1275 18.0453 8.1275ZM18.0453 12.334C17.4848 12.334 17.0291 11.8783 17.0291 11.3178C17.0291 10.7578 17.4848 10.3016 18.0453 10.3016C18.6053 10.3016 19.0615 10.7578 19.0615 11.3178C19.0615 11.8783 18.6053 12.334 18.0453 12.334Z" fill="#5FFF00"/>
<path d="M26.1688 8.1275C24.4096 8.1275 22.9785 9.55856 22.9785 11.3178C22.9785 13.077 24.4096 14.5086 26.1688 14.5086C27.928 14.5086 29.3596 13.077 29.3596 11.3178C29.3596 9.55856 27.928 8.1275 26.1688 8.1275ZM26.1688 12.334C25.6088 12.334 25.1526 11.8783 25.1526 11.3178C25.1526 10.7578 25.6088 10.3016 26.1688 10.3016C26.7293 10.3016 27.185 10.7578 27.185 11.3178C27.185 11.8783 26.7293 12.334 26.1688 12.334Z" fill="#5FFF00"/>
</g>
<defs>
<clipPath id="clip0_1315_1890">
<rect width="74.2857" height="74.2857" fill="white" transform="translate(1.9043 3.80951)"/>
</clipPath>
</defs>
</svg>
