<svg width="80" height="80" viewBox="0 0 80 80" fill="none" xmlns="http://www.w3.org/2000/svg">
<g clip-path="url(#clip0_1500_2277)">
<g clip-path="url(#clip1_1500_2277)">
<path d="M27.6605 52.7006C25.8433 50.8492 22.8585 50.8211 21.0072 52.6381C20.1102 53.5184 19.6097 54.6951 19.5979 55.9517C19.586 57.2084 20.0643 58.3945 20.9444 59.2914C21.8247 60.1882 23.0015 60.6889 24.2582 60.7006C24.2733 60.7007 24.2885 60.7007 24.3037 60.7007C25.5433 60.7007 26.7118 60.2234 27.5977 59.3539C29.4496 57.5371 29.4779 54.5523 27.6605 52.7006C27.6605 52.7007 27.6605 52.7007 27.6605 52.7006V52.7006ZM25.4049 57.1193C25.1047 57.4139 24.709 57.5715 24.2877 57.5698C23.8674 57.5659 23.4738 57.3984 23.1793 57.0984C22.8847 56.7984 22.7249 56.4017 22.7288 55.9814C22.7327 55.5611 22.9002 55.1675 23.2002 54.8729C23.5062 54.5728 23.9044 54.4231 24.3024 54.4231C24.7104 54.4231 25.1182 54.5803 25.4258 54.8939C25.7204 55.1939 25.8802 55.5906 25.8763 56.0109C25.8722 56.4312 25.7049 56.825 25.4049 57.1193V57.1193Z" fill="#5FFF00"/>
<path d="M34.9007 58.9584C34.9033 58.9489 34.9058 58.9395 34.9085 58.93L37.2102 58.3364C38.8842 57.9047 39.8949 56.1914 39.4633 54.5175L38.2874 49.9576C37.8557 48.2836 36.1419 47.273 34.4685 47.7047L32.1719 48.2969C32.1678 48.2925 32.1635 48.2883 32.1592 48.2839C32.1555 48.28 32.1514 48.2761 32.1477 48.272L32.7832 45.987C33.0074 45.1803 32.9042 44.3344 32.4924 43.6051C32.0805 42.8759 31.4092 42.3508 30.6024 42.1264L26.0655 40.865C25.2586 40.6405 24.4127 40.7439 23.6836 41.1558C22.9544 41.5676 22.4294 42.2389 22.2049 43.0456L21.5682 45.3358C21.5585 45.3383 21.5491 45.3406 21.5396 45.3431L19.8746 43.6465C18.6636 42.4126 16.6747 42.3942 15.441 43.605L12.08 46.9033C10.8463 48.114 10.8274 50.103 12.0382 51.337L13.7032 53.0336C13.7005 53.043 13.698 53.0525 13.6953 53.0619L11.3936 53.6555C9.71972 54.0872 8.70909 55.8003 9.14065 57.4742L10.3164 62.034C10.7482 63.708 12.4617 64.7184 14.1353 64.287L16.4319 63.6948C16.4358 63.6989 16.44 63.7031 16.4439 63.7072C16.448 63.7112 16.4521 63.7155 16.4561 63.7197L15.8207 66.0047C15.3575 67.6703 16.3358 69.402 18.0016 69.8651L22.5383 71.1265C22.8183 71.2045 23.0997 71.2415 23.3771 71.2415C24.7499 71.2414 26.0135 70.3315 26.3991 68.9459L27.0358 66.6558C27.0453 66.6533 27.0547 66.6509 27.0642 66.6484L28.7292 68.345C29.9402 69.5789 31.9291 69.5973 33.1628 68.3867L36.5238 65.0884C37.7575 63.8776 37.7764 61.8887 36.5657 60.6547L34.9007 58.9584ZM30.9639 66.1522L28.6328 63.7769C28.2041 63.3401 27.5607 63.1931 26.9847 63.4006C26.518 63.5687 26.0317 63.6933 25.5392 63.7709C24.9333 63.8664 24.4389 64.307 24.2746 64.8979L23.3769 68.1103L18.8372 66.8437L19.7283 63.6395C19.8349 63.2561 19.7894 62.838 19.603 62.4864C19.391 62.0865 18.9891 61.8309 18.678 61.5139C18.3899 61.2203 18.1569 60.8447 17.8064 60.6212C17.443 60.3895 16.9913 60.3173 16.5738 60.425L13.3483 61.2525L12.1752 56.6876L15.401 55.8558C15.995 55.7026 16.4449 55.2165 16.5517 54.6123C16.6383 54.1222 16.7721 53.6383 16.9491 53.1742C17.1672 52.6025 17.0324 51.9562 16.6039 51.5195L14.2728 49.1384L17.6397 45.8401L19.9708 48.2155C20.3992 48.6522 21.0433 48.7992 21.6186 48.5919C22.0858 48.4236 22.5721 48.299 23.0641 48.2215C23.6702 48.1261 24.1646 47.6855 24.3289 47.0945L25.2266 43.8822L29.7663 45.1487L28.8752 48.353C28.7111 48.9431 28.9063 49.5747 29.3746 49.9694C29.5719 50.1356 29.7571 50.3067 29.925 50.4778C29.9252 50.478 29.9255 50.4781 29.9257 50.4784C30.0946 50.6505 30.2575 50.8336 30.4235 51.0381C30.8096 51.5136 31.4369 51.72 32.03 51.5673L35.2555 50.7398L36.4286 55.3047L33.2028 56.1365C32.6088 56.2897 32.1589 56.7758 32.0521 57.38C31.9655 57.8701 31.8317 58.354 31.6547 58.8181C31.4366 59.3898 31.5714 60.0361 31.9999 60.4728L34.331 62.8539L30.9639 66.1522Z" fill="#5FFF00"/>
<path d="M56.3333 19.9002C56.3181 19.9 56.3029 19.9 56.2876 19.9C55.0479 19.9 53.8795 20.3774 52.9936 21.2469C52.0965 22.1272 51.5961 23.3039 51.5842 24.5607C51.5725 25.8174 52.0506 27.0035 52.9309 27.9003C53.8508 28.8377 55.0695 29.3075 56.2892 29.3075C57.479 29.3075 58.6701 28.8602 59.5842 27.9628C60.4812 27.0825 60.9817 25.9056 60.9936 24.6491C61.0054 23.3924 60.5272 22.2063 59.647 21.3094C58.7669 20.4125 57.5901 19.9119 56.3333 19.9002V19.9002ZM57.3915 25.7282C56.7722 26.3358 55.774 26.3267 55.1659 25.7072C54.8714 25.4072 54.7114 25.0105 54.7153 24.59C54.7192 24.1697 54.8867 23.7761 55.1869 23.4816C55.4831 23.1906 55.8739 23.031 56.2887 23.031H56.3039C56.7244 23.0349 57.1179 23.2024 57.4123 23.5024H57.4125C57.707 23.8024 57.8669 24.1991 57.8629 24.6194C57.8589 25.04 57.6914 25.4336 57.3915 25.7282V25.7282Z" fill="#5FFF00"/>
<path d="M68.5541 29.2638L66.8891 27.5672C66.8918 27.5577 66.8943 27.5483 66.8969 27.5388L69.1986 26.9452C70.8725 26.5135 71.8832 24.8004 71.4516 23.1265L70.2758 18.5666C69.8441 16.8926 68.1303 15.8819 66.4569 16.3136L64.1603 16.9058C64.1564 16.9018 64.1524 16.8976 64.1483 16.8935C64.1443 16.8894 64.1402 16.8852 64.1361 16.881L64.7716 14.5961C64.9958 13.7893 64.8925 12.9433 64.4807 12.2141C64.0688 11.4851 63.3975 10.9599 62.5907 10.7355L58.0538 9.47412C57.2472 9.24958 56.401 9.35302 55.6719 9.7649C54.9427 10.1768 54.4177 10.848 54.1932 11.6547L53.5564 13.9449C53.5469 13.9474 53.5375 13.9497 53.528 13.9522L51.863 12.2557C50.6522 11.0218 48.6633 11.0032 47.4294 12.214L44.0685 15.5122C43.4707 16.0988 43.1372 16.883 43.1292 17.7204C43.1213 18.5577 43.44 19.3482 44.0266 19.946L45.6916 21.6426C45.6889 21.6519 45.6864 21.6615 45.6838 21.671L43.3821 22.2646C41.708 22.6963 40.6974 24.4096 41.1289 26.0835L42.3049 30.6433C42.7366 32.3176 44.45 33.3279 46.1238 32.8963L48.4202 32.3041C48.4242 32.3083 48.4283 32.3126 48.4324 32.3166C48.4364 32.3207 48.4405 32.3249 48.4446 32.329L47.8091 34.6138C47.346 36.2794 48.3242 38.0111 49.9899 38.4743L54.5267 39.7358C54.8067 39.8138 55.0883 39.8508 55.3657 39.8508C56.7385 39.8507 58.0021 38.9408 58.3874 37.5551L59.0241 35.2651C59.0336 35.2626 59.0432 35.2602 59.0527 35.2577L60.7177 36.9543C61.9285 38.188 63.9175 38.2068 65.1513 36.996L68.5122 33.6976C69.746 32.4866 69.7649 30.4977 68.5541 29.2638V29.2638ZM62.9525 34.761L60.6214 32.3857C60.193 31.9491 59.5493 31.8021 58.9735 32.0093C58.5063 32.1776 58.0199 32.3021 57.528 32.3796C56.9218 32.4751 56.4274 32.9157 56.263 33.5068L55.3655 36.7191L50.8258 35.4526L51.7169 32.2483C51.8235 31.8649 51.778 31.4468 51.5916 31.0952C51.3796 30.6955 50.978 30.4402 50.6671 30.1233C50.3786 29.8296 50.1457 29.4536 49.795 29.2301C49.4317 28.9983 48.9799 28.926 48.5624 29.0338L45.3369 29.8613L44.1638 25.2965L47.3896 24.4646C47.9836 24.3115 48.4335 23.8254 48.5403 23.2211C48.6269 22.731 48.7607 22.2472 48.9377 21.7829C49.1558 21.2111 49.021 20.5649 48.5925 20.1282L46.2614 17.7471L49.6282 14.4488L51.9592 16.8241C52.3877 17.2607 53.0316 17.4079 53.6072 17.2005C54.0742 17.0322 54.5607 16.9077 55.0527 16.8301C55.6588 16.7346 56.153 16.294 56.3174 15.703L57.2149 12.4908L61.7547 13.7574L60.8636 16.9616C60.6996 17.5518 60.8947 18.1833 61.363 18.578C61.5603 18.7443 61.7455 18.9154 61.9135 19.0865C62.0814 19.2577 62.2492 19.4461 62.4117 19.6466C62.7978 20.1222 63.4257 20.3288 64.0185 20.1761L67.2439 19.3486L68.4171 23.9135L65.1913 24.7454C64.5972 24.8985 64.1474 25.3846 64.0405 25.9888C63.9539 26.4788 63.8202 26.9627 63.6432 27.4271C63.425 27.9988 63.5599 28.6451 63.9883 29.0818L66.3194 31.4629L62.9525 34.761Z" fill="#5FFF00"/>
<path d="M72.7694 7.16879C68.3166 2.63176 62.3552 0.0858195 55.9832 3.82649e-05C55.1173 -0.00589923 54.4082 0.679882 54.3966 1.54441C54.3851 2.40894 55.0763 3.11926 55.941 3.13082C61.4816 3.20535 66.6643 5.41816 70.5344 9.36191C74.4272 13.3286 76.5423 18.5829 76.4899 24.1569C76.4376 29.731 74.2241 34.9446 70.2574 38.8372C70.0994 38.9922 69.9374 39.1463 69.7758 39.2952C69.1401 39.881 69.0993 40.8714 69.6851 41.5074C69.9938 41.8425 70.4146 42.0122 70.8371 42.0122C71.2163 42.0122 71.5965 41.8754 71.8974 41.5982C72.083 41.4272 72.2691 41.2502 72.4505 41.0722C81.8855 31.813 82.0287 16.6041 72.7694 7.16879V7.16879Z" fill="#5FFF00"/>
<path d="M57.9519 44.6684C51.5396 45.3715 45.2811 43.145 40.7815 38.5601C33.3954 31.0339 32.8921 19.2823 39.195 11.177L39.1785 13.2337C39.1716 14.0982 39.8669 14.8048 40.7315 14.8117H40.7443C41.6029 14.8117 42.3025 14.119 42.3096 13.2587L42.3585 7.16449C42.3652 6.31262 41.6897 5.61168 40.8382 5.58715L34.6326 5.40762C33.7735 5.3809 33.0474 6.06293 33.0224 6.92731C32.9975 7.79153 33.6779 8.51246 34.5421 8.53746L37.2374 8.61543C31.2166 15.8315 30.0938 25.8022 33.909 34.0484C31.0008 32.7861 27.8391 32.107 24.5693 32.0762C24.4915 32.0754 24.4146 32.0751 24.3369 32.0751C18.0133 32.0751 12.0599 34.5037 7.55177 38.9279C-1.88338 48.1872 -2.02635 63.3961 7.23287 72.8312C11.6855 77.3684 17.6471 79.9143 24.0191 80C24.0263 80 24.0335 80.0001 24.0407 80.0001C24.8955 80.0001 25.5941 79.3129 25.6057 78.4556C25.6172 77.5911 24.926 76.8807 24.0613 76.8692C18.5207 76.7947 13.338 74.5818 9.46787 70.6381C5.57505 66.6714 3.46005 61.4171 3.5124 55.8431C3.56474 50.269 5.77818 45.0554 9.7449 41.1626C13.7118 37.2698 18.9671 35.1601 24.5401 35.2072C30.114 35.2597 35.3277 37.4729 39.2204 41.4398C46.6065 48.9661 47.1097 60.7176 40.8068 68.8229L40.8233 66.7662C40.8302 65.9017 40.1349 65.1951 39.2704 65.1882C39.2661 65.1882 39.2619 65.1882 39.2575 65.1882C38.399 65.1882 37.6993 65.8809 37.6922 66.7412L37.6433 72.8354C37.6366 73.6873 38.3121 74.3882 39.1636 74.4128L45.3693 74.5923C45.3847 74.5928 45.4 74.5929 45.4155 74.5929C46.259 74.5929 46.9549 73.9215 46.9796 73.0726C47.0046 72.2084 46.3241 71.4875 45.4599 71.4625L42.7646 71.3845C48.785 64.1689 49.908 54.1992 46.0938 45.9531C49.0719 47.2478 52.3043 47.9276 55.6199 47.9275C56.506 47.9275 57.399 47.879 58.2935 47.7809C59.153 47.6867 59.7733 46.9136 59.6791 46.054C59.5844 45.1945 58.8105 44.5739 57.9519 44.6684V44.6684Z" fill="#5FFF00"/>
<path d="M64.8867 45.9075C65.7497 45.9075 66.4492 45.2079 66.4492 44.345C66.4492 43.482 65.7497 42.7825 64.8867 42.7825C64.0238 42.7825 63.3242 43.482 63.3242 44.345C63.3242 45.2079 64.0238 45.9075 64.8867 45.9075Z" fill="#5FFF00"/>
</g>
</g>
<defs>
<clipPath id="clip0_1500_2277">
<rect width="80" height="80" fill="white"/>
</clipPath>
<clipPath id="clip1_1500_2277">
<rect width="80" height="80" fill="white"/>
</clipPath>
</defs>
</svg>
