<svg width="20" height="20" viewBox="0 0 20 20" fill="none" xmlns="http://www.w3.org/2000/svg">
<circle cx="10" cy="10" r="9.5" stroke="#04DE00"/>
<circle cx="10" cy="10" r="7" fill="#04DE00"/>
<path d="M13.6606 6.87457L9.11418 12.8954L6.38261 9.99322C6.34186 9.94992 6.28558 9.92457 6.22614 9.92277C6.1667 9.92096 6.10898 9.94284 6.06568 9.98358C6.02237 10.0243 5.99703 10.0806 5.99522 10.1401C5.99341 10.1995 6.01529 10.2572 6.05604 10.3005L8.96983 13.3961C8.99082 13.4183 9.01615 13.4361 9.04425 13.4482C9.07235 13.4603 9.10263 13.4665 9.13323 13.4665H9.14533C9.17799 13.4646 9.20984 13.4556 9.23864 13.4401C9.26745 13.4246 9.29252 13.403 9.31209 13.3768L14.0192 7.14353C14.0549 7.09598 14.0702 7.0362 14.0618 6.97735C14.0534 6.91851 14.0219 6.86541 13.9744 6.82974C13.9268 6.79407 13.8671 6.77876 13.8082 6.78717C13.7494 6.79557 13.6963 6.82701 13.6606 6.87457Z" fill="white" stroke="white"/>
</svg>
