<svg width="42" height="42" viewBox="0 0 42 42" fill="none" xmlns="http://www.w3.org/2000/svg">
<g clip-path="url(#clip0_1657_988)">
<path d="M12.6667 32C7.01 32 1 30.2483 1 27C1 23.7517 7.01 22 12.6667 22C18.3233 22 24.3333 23.7517 24.3333 27C24.3333 30.2483 18.3233 32 12.6667 32ZM12.6667 23.6667C6.47167 23.6667 2.66667 25.6083 2.66667 27C2.66667 28.3917 6.47167 30.3333 12.6667 30.3333C18.8617 30.3333 22.6667 28.3917 22.6667 27C22.6667 25.6083 18.8617 23.6667 12.6667 23.6667Z" fill="#5FFF00"/>
<path d="M12.6667 37C7.01 37 1 35.2483 1 32C1 31.54 1.37333 31.1666 1.83333 31.1666C2.29333 31.1666 2.66667 31.54 2.66667 32C2.66667 33.3916 6.47167 35.3333 12.6667 35.3333C18.8617 35.3333 22.6667 33.3916 22.6667 32C22.6667 31.54 23.04 31.1666 23.5 31.1666C23.96 31.1666 24.3333 31.54 24.3333 32C24.3333 35.2483 18.3233 37 12.6667 37Z" fill="#5FFF00"/>
<path d="M12.6667 42.0001C7.01 42.0001 1 40.2484 1 37.0001V27.0001C1 26.5401 1.37333 26.1667 1.83333 26.1667C2.29333 26.1667 2.66667 26.5401 2.66667 27.0001V37.0001C2.66667 38.3917 6.47167 40.3334 12.6667 40.3334C18.8617 40.3334 22.6667 38.3917 22.6667 37.0001V27.0001C22.6667 26.5401 23.04 26.1667 23.5 26.1667C23.96 26.1667 24.3333 26.5401 24.3333 27.0001V37.0001C24.3333 40.2484 18.3233 42.0001 12.6667 42.0001Z" fill="#5FFF00"/>
<path d="M29.3333 12C23.6766 12 17.6666 10.2483 17.6666 7C17.6666 3.75167 23.6766 2 29.3333 2C34.99 2 41 3.75167 41 7C41 10.2483 34.99 12 29.3333 12ZM29.3333 3.66667C23.1383 3.66667 19.3333 5.60833 19.3333 7C19.3333 8.39167 23.1383 10.3333 29.3333 10.3333C35.5283 10.3333 39.3333 8.39167 39.3333 7C39.3333 5.60833 35.5283 3.66667 29.3333 3.66667Z" fill="#5FFF00"/>
<path d="M29.3333 16.9999C23.6766 16.9999 17.6666 15.2482 17.6666 11.9999C17.6666 11.5399 18.04 11.1666 18.5 11.1666C18.96 11.1666 19.3333 11.5399 19.3333 11.9999C19.3333 13.3916 23.1383 15.3332 29.3333 15.3332C35.5283 15.3332 39.3333 13.3916 39.3333 11.9999C39.3333 11.5399 39.7066 11.1666 40.1666 11.1666C40.6266 11.1666 41 11.5399 41 11.9999C41 15.2482 34.99 16.9999 29.3333 16.9999Z" fill="#5FFF00"/>
<path d="M29.3333 22C23.6766 22 17.6666 20.2484 17.6666 17C17.6666 16.54 18.04 16.1667 18.5 16.1667C18.96 16.1667 19.3333 16.54 19.3333 17C19.3333 18.3917 23.1383 20.3334 29.3333 20.3334C35.5283 20.3334 39.3333 18.3917 39.3333 17C39.3333 16.54 39.7066 16.1667 40.1666 16.1667C40.6266 16.1667 41 16.54 41 17C41 20.2484 34.99 22 29.3333 22Z" fill="#5FFF00"/>
<path d="M29.3333 26.9999C28.4666 26.9999 27.625 26.9632 26.8166 26.8916C26.3583 26.8516 26.0183 26.4466 26.06 25.9882C26.1016 25.5299 26.495 25.1932 26.9633 25.2316C27.725 25.2982 28.5166 25.3332 29.3333 25.3332C35.5283 25.3332 39.3333 23.3916 39.3333 21.9999C39.3333 21.5399 39.7066 21.1666 40.1666 21.1666C40.6266 21.1666 41 21.5399 41 21.9999C41 25.2482 34.99 26.9999 29.3333 26.9999Z" fill="#5FFF00"/>
<path d="M29.3333 32C28.4533 32 27.5867 31.9616 26.7583 31.8866C26.3 31.845 25.9617 31.4383 26.0033 30.9816C26.045 30.5233 26.4367 30.1866 26.9083 30.2266C27.6883 30.2983 28.5033 30.3333 29.3333 30.3333C35.5283 30.3333 39.3333 28.3916 39.3333 27V6.99996C39.3333 6.53996 39.7067 6.16663 40.1667 6.16663C40.6267 6.16663 41 6.53996 41 6.99996V27C41 30.2483 34.99 32 29.3333 32Z" fill="#5FFF00"/>
<path d="M18.5 20.335C18.04 20.335 17.6666 19.9616 17.6666 19.5016V6.99996C17.6666 6.53996 18.04 6.16663 18.5 6.16663C18.96 6.16663 19.3333 6.53996 19.3333 6.99996V19.5016C19.3333 19.9616 18.96 20.335 18.5 20.335Z" fill="#5FFF00"/>
</g>
<defs>
<clipPath id="clip0_1657_988">
<rect width="42" height="42" fill="white"/>
</clipPath>
</defs>
</svg>
