<svg width="106" height="106" viewBox="0 0 106 106" fill="none" xmlns="http://www.w3.org/2000/svg">
<path d="M21.2012 7.06667H24.7345V10.6H21.2012V7.06667Z" fill="#010C04"/>
<path d="M28.2676 7.06667H31.8009V10.6H28.2676V7.06667Z" fill="#010C04"/>
<path d="M35.333 7.06667H38.8663V10.6H35.333V7.06667Z" fill="#010C04"/>
<path d="M1.76667 106H56.5333C57.2476 106 57.892 105.57 58.1654 104.91C58.4389 104.25 58.2871 103.49 57.7824 102.984L3.01576 48.2176C2.51025 47.7129 1.75028 47.5611 1.09036 47.8346C0.430453 48.108 0 48.7524 0 49.4667V104.233C0 105.209 0.791032 106 1.76667 106ZM3.53333 53.7315L52.2685 102.467H3.53333V53.7315Z" fill="#010C04"/>
<path d="M31.283 92.3842L13.6163 74.7176C13.1108 74.2129 12.3509 74.0611 11.691 74.3346C11.031 74.608 10.6006 75.2524 10.6006 75.9667V93.6333C10.6006 94.609 11.3916 95.4 12.3673 95.4H30.0339C30.7482 95.4 31.3926 94.9695 31.666 94.3096C31.9395 93.6497 31.7876 92.8897 31.283 92.3842ZM14.1339 91.8667V80.2315L25.7691 91.8667H14.1339Z" fill="#010C04"/>
<path d="M104.017 15.0805C106.659 12.4391 106.659 8.15703 104.017 5.51566C101.376 2.87428 97.0937 2.87428 94.4523 5.51566L91.8023 8.16566C91.4616 3.57043 87.641 0.0120768 83.0328 0H22.9661C18.0897 0.00603842 14.1389 3.95688 14.1328 8.83333V54.7667H17.6661V8.83333C17.6661 5.90643 20.0392 3.53333 22.9661 3.53333H83.0328C85.9597 3.53333 88.3328 5.90643 88.3328 8.83333V11.6352L71.7013 28.2667H58.7161C55.2328 19.3479 45.7698 14.2972 36.4215 16.3693C27.0723 18.4404 20.6284 27.015 21.2383 36.5703C21.8482 46.1266 29.3306 53.8126 38.8661 54.6787V61.8333C38.8661 62.809 39.6572 63.6 40.6328 63.6H79.4995C80.4751 63.6 81.2661 62.809 81.2661 61.8333V37.8315L88.3328 30.7648V67.1333H47.6995C46.7238 67.1333 45.9328 67.9244 45.9328 68.9V83.0333C45.9328 84.009 46.7238 84.8 47.6995 84.8H88.3328V86.5667C88.3328 89.4936 85.9597 91.8667 83.0328 91.8667H54.7661V95.4H83.0328C87.9093 95.394 91.8601 91.4431 91.8661 86.5667V84.8H104.233C105.208 84.8 105.999 84.009 105.999 83.0333V68.9C105.999 67.9244 105.208 67.1333 104.233 67.1333H91.8661V27.2315L104.017 15.0805ZM96.9505 8.01383C97.7605 7.16759 98.9647 6.82685 100.098 7.12187C101.231 7.41689 102.116 8.30195 102.411 9.43459C102.706 10.5681 102.365 11.7723 101.519 12.5823L100.699 13.4018L96.131 8.83333L96.9505 8.01383ZM56.5328 35.3333C56.5216 43.4257 50.4409 50.2223 42.3995 51.129V31.8H56.1231C56.3913 32.9585 56.5294 34.1438 56.5328 35.3333ZM38.8661 30.0333V51.129C31.2879 50.2948 25.3686 44.1977 24.7578 36.5979C24.1471 28.9982 29.0166 22.035 36.3645 20.0009C43.7124 17.9669 51.47 21.4346 54.8541 28.2667H40.6328C39.6572 28.2667 38.8661 29.0577 38.8661 30.0333ZM77.7328 60.0667H42.3995V54.6787C47.847 54.2016 52.8382 51.4429 56.1403 47.0841C59.4416 42.7252 60.745 37.1725 59.7289 31.8H68.168L64.1171 35.8509C63.8703 36.0968 63.7021 36.4116 63.6348 36.7541L61.8682 45.5874C61.7647 46.1059 61.8984 46.6441 62.2339 47.053C62.5695 47.4619 63.0707 47.7 63.5995 47.7C63.7185 47.7009 63.8367 47.6888 63.9532 47.6646L72.7865 45.898C73.1281 45.8307 73.443 45.6625 73.6888 45.4158L77.7328 41.3648V60.0667ZM66.4505 40.6825L68.8503 43.0823L65.8466 43.681L66.4505 40.6825ZM95.3995 70.6667V74.2H98.9328V70.6667H102.466V81.2667H49.4661V70.6667H52.9995V74.2H56.5328V70.6667H60.0661V74.2H63.5995V70.6667H67.1328V74.2H70.6661V70.6667H74.1995V74.2H77.7328V70.6667H81.2661V74.2H84.7995V70.6667H88.3328V74.2H91.8661V70.6667H95.3995ZM72.4328 41.6685L67.8643 37.1L93.6328 11.3315L98.2013 15.9L72.4328 41.6685Z" fill="#010C04"/>
</svg>
