<svg width="106" height="106" viewBox="0 0 106 106" fill="none" xmlns="http://www.w3.org/2000/svg">
<path d="M92.2705 56.627C92.3218 55.7525 92.0287 54.9109 91.4449 54.2577L89.1553 51.6966C87.9649 50.3645 85.9043 50.2403 84.5621 51.4193L78.6936 56.5748L76.2407 54.6331C76.2349 54.6285 76.2289 54.624 76.2231 54.6194C74.8664 53.5768 72.974 53.7433 71.8202 55.0053L69.4557 57.5914C68.8509 58.2528 68.5495 59.1099 68.6064 60.0045C68.6636 60.8991 69.072 61.7109 69.7554 62.2895L77.1307 68.5414C77.1309 68.5416 77.1313 68.5419 77.1316 68.5421C77.5783 68.9201 78.1336 69.1085 78.6884 69.1085C79.2611 69.1085 79.8333 68.9079 80.2855 68.5079L91.1732 58.8828C91.8297 58.3027 92.2194 57.5015 92.2705 56.627ZM89.1164 56.5566L78.6797 65.783L71.7634 59.92C71.7285 59.8904 71.7092 59.8521 71.7063 59.8066C71.7034 59.7608 71.7177 59.7205 71.7483 59.6869L74.1128 57.1009C74.1443 57.0663 74.1882 57.0487 74.2325 57.0487C74.2656 57.0487 74.2987 57.0587 74.3269 57.0789L77.2309 59.3776C77.2367 59.3822 77.2427 59.3867 77.2485 59.3911C78.1586 60.0908 79.4455 60.0484 80.3078 59.2909L86.6119 53.7526C86.6786 53.6938 86.7807 53.7 86.8401 53.7662L89.1296 56.3274C89.1592 56.3608 89.1733 56.4003 89.1706 56.4452C89.1679 56.4895 89.1495 56.5272 89.1164 56.5566Z" fill="#010C04"/>
<path d="M99.14 59.8596C99.14 49.5473 90.7505 41.1578 80.4381 41.1578C70.1259 41.1578 61.7363 49.5473 61.7363 59.8596C61.7363 70.1718 70.1259 78.5613 80.4381 78.5613C90.7505 78.5615 99.14 70.1718 99.14 59.8596ZM64.8418 59.8596C64.8418 51.2597 71.8382 44.2633 80.4381 44.2633C89.0379 44.2633 96.0346 51.2597 96.0346 59.8596C96.0346 68.4594 89.0379 75.4558 80.4381 75.4558C71.8382 75.4558 64.8418 68.4594 64.8418 59.8596Z" fill="#010C04"/>
<path d="M101.135 20.5789H59.7422C57.0595 20.5789 54.8769 22.7614 54.8769 25.4441V48.0174H47.8553C47.7658 48.0174 47.6932 47.9445 47.6932 47.8553V16.1294C47.6932 13.3821 45.4579 11.147 42.7105 11.147H32.259V4.86523C32.259 2.18252 30.0765 0 27.3938 0H4.86523C2.18252 0 0 2.18252 0 4.86523V27.3938C0 30.0765 2.18252 32.259 4.86523 32.259H27.3935C30.0763 32.259 32.2588 30.0765 32.2588 27.3938V21.112H37.5658C37.6553 21.112 37.7279 21.1849 37.7279 21.2741V30.5439C37.7279 31.4015 38.4229 32.0967 39.2807 32.0967C40.1384 32.0967 40.8334 31.4015 40.8334 30.5439V21.2741C40.8334 19.4723 39.3676 18.0065 37.5658 18.0065H32.2588V14.2524H42.7105C43.7457 14.2524 44.5877 15.0944 44.5877 16.1294V47.8553C44.5877 49.6571 46.0535 51.1228 47.8553 51.1228H54.8769V54.8771H47.8553C46.0535 54.8771 44.5877 56.3431 44.5877 58.1447V89.8706C44.5877 90.9056 43.7457 91.7476 42.7105 91.7476H32.259V87.9935H37.566C39.3678 87.9935 40.8336 86.5275 40.8336 84.7259V58.1447C40.8336 56.3429 39.3678 54.8771 37.566 54.8771H32.259V51.1228H37.566C39.3678 51.1228 40.8336 49.6569 40.8336 47.8553V37.759C40.8336 36.9015 40.1386 36.2062 39.2809 36.2062C38.4231 36.2062 37.7281 36.9015 37.7281 37.759V47.8553C37.7281 47.9447 37.6553 48.0174 37.566 48.0174H32.259V41.7358C32.259 39.0531 30.0765 36.8706 27.3938 36.8706H4.86523C2.18252 36.8706 0 39.0531 0 41.7358V64.2642C0 66.9469 2.18252 69.1294 4.86523 69.1294H27.3935C30.0763 69.1294 32.2588 66.9469 32.2588 64.2642V57.9826H37.5658C37.6553 57.9826 37.7279 58.0555 37.7279 58.1447V84.7259C37.7279 84.8153 37.655 84.888 37.5658 84.888H32.2588V78.6062C32.2588 75.9235 30.0763 73.741 27.3935 73.741H4.86523C2.18252 73.741 0 75.9235 0 78.6062V101.135C0 103.817 2.18252 106 4.86523 106H27.3935C30.0763 106 32.2588 103.817 32.2588 101.135V94.853H42.7105C45.4579 94.853 47.6932 92.6179 47.6932 89.8706V58.1447C47.6932 58.0553 47.766 57.9826 47.8553 57.9826H54.8769V80.5559C54.8769 83.2386 57.0595 85.4211 59.7422 85.4211H63.0965C63.9542 85.4211 64.6492 84.7259 64.6492 83.8684C64.6492 83.0108 63.9542 82.3156 63.0965 82.3156H59.7422C58.772 82.3156 57.9824 81.5262 57.9824 80.5559V37.4037H102.895V80.5559C102.895 81.5262 102.105 82.3156 101.135 82.3156H70.3428C69.4851 82.3156 68.7901 83.0108 68.7901 83.8684C68.7901 84.7259 69.4851 85.4211 70.3428 85.4211H101.135C103.817 85.4211 106 83.2386 106 80.5559V25.4441C106 22.7614 103.817 20.5789 101.135 20.5789ZM29.1533 27.3938C29.1533 28.3641 28.3637 29.1535 27.3935 29.1535H4.86523C3.89488 29.1535 3.10547 28.3641 3.10547 27.3938V4.86523C3.10547 3.89488 3.89488 3.10547 4.86523 3.10547H27.3935C28.3637 3.10547 29.1533 3.89488 29.1533 4.86523V27.3938ZM29.1533 60.461L19.5487 54.349L22.1439 51.7539C22.2024 51.6951 22.2956 51.6901 22.36 51.7417L29.1533 57.1762V60.461ZM4.86523 39.9761H27.3935C28.3637 39.9761 29.1533 40.7655 29.1533 41.7358V53.1992L24.3003 49.3167C22.9985 48.2753 21.128 48.3789 19.9483 49.5577L16.865 52.641L13.7552 50.662C12.5444 49.8912 10.942 50.0107 9.85345 50.9556L3.10547 56.8647V41.7358C3.10547 40.7655 3.89488 39.9761 4.86523 39.9761ZM27.3935 66.0239H4.86523C3.89488 66.0239 3.10547 65.2345 3.10547 64.2642V60.9926L11.8944 53.2961C11.9482 53.2493 12.0277 53.2435 12.0877 53.2818L16.2263 55.9154C16.2277 55.9165 16.2294 55.9173 16.2308 55.9183L29.1533 64.1418V64.2642C29.1533 65.2345 28.3639 66.0239 27.3935 66.0239ZM29.1533 101.135C29.1533 102.105 28.3637 102.895 27.3935 102.895H4.86523C3.89488 102.895 3.10547 102.105 3.10547 101.135V78.6062C3.10547 77.6359 3.89488 76.8465 4.86523 76.8465H27.3935C28.3637 76.8465 29.1533 77.6359 29.1533 78.6062V101.135ZM57.9824 34.2982V25.4441C57.9824 24.4738 58.772 23.6844 59.7422 23.6844H101.135C102.105 23.6844 102.895 24.4738 102.895 25.4441V34.2982H57.9824Z" fill="#010C04"/>
<path d="M65.0039 27.4385H63.2891C62.4313 27.4385 61.7363 28.1337 61.7363 28.9912C61.7363 29.8488 62.4313 30.544 63.2891 30.544H65.0039C65.8616 30.544 66.5566 29.8488 66.5566 28.9912C66.5566 28.1337 65.8616 27.4385 65.0039 27.4385Z" fill="#010C04"/>
<path d="M73.5791 27.4385H71.8643C71.0065 27.4385 70.3115 28.1337 70.3115 28.9912C70.3115 29.8488 71.0065 30.544 71.8643 30.544H73.5791C74.4368 30.544 75.1318 29.8488 75.1318 28.9912C75.1318 28.1337 74.4368 27.4385 73.5791 27.4385Z" fill="#010C04"/>
<path d="M82.1533 27.4385H80.4385C79.5807 27.4385 78.8857 28.1337 78.8857 28.9912C78.8857 29.8488 79.5807 30.544 80.4385 30.544H82.1533C83.0111 30.544 83.7061 29.8488 83.7061 28.9912C83.7061 28.1337 83.0111 27.4385 82.1533 27.4385Z" fill="#010C04"/>
<path d="M24.4024 13.9738L12.0664 7.80592C11.314 7.42954 10.4375 7.46867 9.72156 7.91109C9.00565 8.35352 8.57812 9.11995 8.57812 9.96153V22.2975C8.57812 23.1389 9.00565 23.9055 9.72156 24.3479C10.111 24.5887 10.5482 24.71 10.9869 24.71C11.3544 24.71 11.7233 24.6249 12.0662 24.4533L24.4024 18.2852C25.2243 17.8743 25.7348 17.0482 25.7346 16.1294C25.7346 15.2104 25.2241 14.3845 24.4024 13.9738ZM11.6838 21.1725V11.0865L21.7699 16.1296L11.6838 21.1725Z" fill="#010C04"/>
<path d="M23.8465 81.4581H8.41211C7.55438 81.4581 6.85938 82.1533 6.85938 83.0108C6.85938 83.8683 7.55438 84.5635 8.41211 84.5635H23.8465C24.7042 84.5635 25.3992 83.8683 25.3992 83.0108C25.3992 82.1533 24.704 81.4581 23.8465 81.4581Z" fill="#010C04"/>
<path d="M23.8465 88.3178H8.41211C7.55438 88.3178 6.85938 89.0131 6.85938 89.8706C6.85938 90.7281 7.55438 91.4233 8.41211 91.4233H23.8465C24.7042 91.4233 25.3992 90.7281 25.3992 89.8706C25.3992 89.0131 24.704 88.3178 23.8465 88.3178Z" fill="#010C04"/>
<path d="M20.4164 95.1774H11.8418C10.9841 95.1774 10.2891 95.8726 10.2891 96.7302C10.2891 97.5877 10.9841 98.2829 11.8418 98.2829H20.4164C21.2741 98.2829 21.9691 97.5877 21.9691 96.7302C21.9691 95.8726 21.2741 95.1774 20.4164 95.1774Z" fill="#010C04"/>
</svg>
