<svg width="74" height="74" viewBox="0 0 74 74" fill="none" xmlns="http://www.w3.org/2000/svg">
<path d="M53.9055 38.1311H58.5888C58.8723 39.8087 59.7758 41.3186 61.1201 42.3616C62.4645 43.4045 64.1516 43.9043 65.847 43.7621C67.5425 43.6198 69.1227 42.8457 70.2744 41.5933C71.4261 40.3409 72.0653 38.7016 72.0653 37.0001C72.0653 35.2987 71.4261 33.6593 70.2744 32.4069C69.1227 31.1545 67.5425 30.3804 65.847 30.2382C64.1516 30.0959 62.4645 30.5957 61.1201 31.6387C59.7758 32.6816 58.8723 34.1915 58.5888 35.8692H53.9055C53.662 32.1622 52.2014 28.6394 49.7504 25.8478L53.5956 22.0026C55.8455 23.8422 58.7165 24.7467 61.6146 24.5289C64.5127 24.3112 67.2162 22.9879 69.166 20.8327C71.1158 18.6775 72.1626 15.8554 72.0899 12.95C72.0173 10.0446 70.8307 7.27835 68.7757 5.2233C66.7206 3.16826 63.9544 1.9817 61.049 1.90906C58.1436 1.83642 55.3215 2.88325 53.1663 4.83302C51.0111 6.78279 49.6878 9.48634 49.4701 12.3844C49.2523 15.2825 50.1568 18.1535 51.9965 20.4034L48.1512 24.2486C45.3596 21.7976 41.8368 20.337 38.1298 20.0935V15.4102C39.8075 15.1267 41.3174 14.2232 42.3603 12.8789C43.4033 11.5345 43.9031 9.84745 43.7608 8.15196C43.6186 6.45647 42.8445 4.8763 41.5921 3.7246C40.3397 2.5729 38.7003 1.93371 36.9989 1.93371C35.2974 1.93371 33.6581 2.5729 32.4057 3.7246C31.1533 4.8763 30.3792 6.45647 30.2369 8.15196C30.0947 9.84745 30.5945 11.5345 31.6374 12.8789C32.6804 14.2232 34.1903 15.1267 35.8679 15.4102V20.0935C32.161 20.337 28.6382 21.7976 25.8466 24.2486L22.0013 20.4034C23.841 18.1535 24.7454 15.2825 24.5277 12.3844C24.31 9.48634 22.9866 6.78279 20.8315 4.83302C18.6763 2.88325 15.8541 1.83642 12.9488 1.90906C10.0434 1.9817 7.27713 3.16826 5.22208 5.2233C3.16704 7.27835 1.98048 10.0446 1.90784 12.95C1.8352 15.8554 2.88203 18.6775 4.8318 20.8327C6.78157 22.9879 9.48512 24.3112 12.3832 24.5289C15.2813 24.7467 18.1522 23.8422 20.4022 22.0026L24.2474 25.8478C21.7964 28.6394 20.3358 32.1622 20.0923 35.8692H15.409C15.1254 34.1915 14.222 32.6816 12.8776 31.6387C11.5333 30.5957 9.84623 30.0959 8.15074 30.2382C6.45525 30.3804 4.87508 31.1545 3.72338 32.4069C2.57168 33.6593 1.93249 35.2987 1.93249 37.0001C1.93249 38.7016 2.57168 40.3409 3.72338 41.5933C4.87508 42.8457 6.45525 43.6198 8.15074 43.7621C9.84623 43.9043 11.5333 43.4045 12.8776 42.3616C14.222 41.3186 15.1254 39.8087 15.409 38.1311H20.0923C20.3358 41.838 21.7964 45.3608 24.2474 48.1524L20.4022 51.9977C18.1522 50.158 15.2813 49.2536 12.3832 49.4713C9.48512 49.689 6.78157 51.0124 4.8318 53.1675C2.88203 55.3227 1.8352 58.1449 1.90784 61.0502C1.98048 63.9556 3.16704 66.7219 5.22208 68.7769C7.27713 70.832 10.0434 72.0185 12.9488 72.0912C15.8541 72.1638 18.6763 71.117 20.8315 69.1672C22.9866 67.2174 24.31 64.5139 24.5277 61.6158C24.7454 58.7177 23.841 55.8468 22.0013 53.5968L25.8466 49.7516C28.6382 52.2026 32.161 53.6632 35.8679 53.9067V58.59C34.1903 58.8736 32.6804 59.777 31.6374 61.1214C30.5945 62.4657 30.0947 64.1528 30.2369 65.8483C30.3792 67.5438 31.1533 69.1239 32.4057 70.2756C33.6581 71.4273 35.2974 72.0665 36.9989 72.0665C38.7003 72.0665 40.3397 71.4273 41.5921 70.2756C42.8445 69.1239 43.6186 67.5438 43.7608 65.8483C43.9031 64.1528 43.4033 62.4657 42.3603 61.1214C41.3174 59.777 39.8075 58.8736 38.1298 58.59V53.9067C41.8368 53.6632 45.3596 52.2026 48.1512 49.7516L51.9965 53.5968C50.1568 55.8468 49.2523 58.7177 49.4701 61.6158C49.6878 64.5139 51.0111 67.2174 53.1663 69.1672C55.3215 71.117 58.1436 72.1638 61.049 72.0912C63.9544 72.0185 66.7206 70.832 68.7757 68.7769C70.8307 66.7219 72.0173 63.9556 72.0899 61.0502C72.1626 58.1449 71.1158 55.3227 69.166 53.1675C67.2162 51.0124 64.5127 49.689 61.6146 49.4713C58.7165 49.2536 55.8455 50.158 53.5956 51.9977L49.7504 48.1524C52.2014 45.3608 53.662 41.838 53.9055 38.1311ZM65.2727 32.4763C66.1674 32.4763 67.0421 32.7416 67.786 33.2387C68.5299 33.7358 69.1098 34.4423 69.4522 35.2689C69.7945 36.0955 69.8841 37.0051 69.7096 37.8827C69.535 38.7602 69.1042 39.5663 68.4715 40.1989C67.8389 40.8316 67.0328 41.2624 66.1553 41.437C65.2777 41.6115 64.3681 41.522 63.5415 41.1796C62.7149 40.8372 62.0084 40.2573 61.5113 39.5134C61.0142 38.7695 60.7489 37.8948 60.7489 37.0001C60.7489 35.8003 61.2255 34.6497 62.0739 33.8013C62.9223 32.9529 64.0729 32.4763 65.2727 32.4763ZM8.72508 41.5239C7.83035 41.5239 6.95572 41.2586 6.21179 40.7615C5.46785 40.2644 4.88802 39.5579 4.54562 38.7313C4.20323 37.9047 4.11364 36.9951 4.28819 36.1176C4.46275 35.24 4.8936 34.434 5.52626 33.8013C6.15893 33.1686 6.965 32.7378 7.84253 32.5632C8.72006 32.3887 9.62965 32.4783 10.4563 32.8207C11.2829 33.163 11.9894 33.7429 12.4865 34.4868C12.9836 35.2308 13.2489 36.1054 13.2489 37.0001C13.2489 38.1999 12.7723 39.3505 11.9239 40.1989C11.0755 41.0473 9.92487 41.5239 8.72508 41.5239ZM27.9513 37.0001C27.9502 35.4813 28.0987 33.966 28.3946 32.4763C29.4456 32.1737 30.5146 31.9372 31.5952 31.7683C31.4301 33.4795 31.3441 35.2528 31.3441 37.0001C31.3441 38.7474 31.4301 40.5208 31.5952 42.233C30.5146 42.0637 29.4456 41.8269 28.3946 41.5239C28.0987 40.0342 27.9502 38.5189 27.9513 37.0001ZM25.9563 40.6293C23.6435 39.5787 22.2965 38.2577 22.2965 37.0001C22.2965 35.7425 23.6435 34.4227 25.9563 33.3709C25.6004 35.7773 25.6004 38.2229 25.9563 40.6293ZM40.3917 37.0001C40.3958 38.8448 40.2992 40.6884 40.1022 42.5226C39.1126 42.6085 38.0767 42.6549 36.9989 42.6549C35.9211 42.6549 34.8851 42.6085 33.8956 42.5226C33.5095 38.851 33.5095 35.1492 33.8956 31.4777C34.8851 31.3917 35.9211 31.3453 36.9989 31.3453C38.0767 31.3453 39.1126 31.3917 40.1022 31.4777C40.2992 33.3118 40.3958 35.1554 40.3917 37.0001ZM36.9989 51.7025C36.3067 51.7025 34.9801 49.3705 34.2077 44.8093C35.1125 44.8738 36.041 44.9168 36.9989 44.9168C37.9568 44.9168 38.8842 44.8738 39.7901 44.8093C39.0176 49.3705 37.691 51.7025 36.9989 51.7025ZM36.9989 29.0834C36.041 29.0834 35.1136 29.1264 34.2077 29.1909C34.9801 24.6298 36.3067 22.2977 36.9989 22.2977C37.691 22.2977 39.0176 24.6298 39.7901 29.1909C38.8842 29.1264 37.9568 29.0834 36.9989 29.0834ZM40.6044 23.5237C42.6765 25.1669 44.1892 27.4113 44.9348 29.9486C44.0425 29.7383 43.106 29.5596 42.121 29.4227C41.8544 27.4026 41.3452 25.4219 40.6044 23.5237ZM33.3934 23.5237C32.6526 25.4219 32.1434 27.4026 31.8768 29.4227C30.8917 29.5596 29.9542 29.7383 29.063 29.9486C29.8085 27.4113 31.3212 25.1669 33.3934 23.5237ZM31.8768 44.5775C32.1433 46.598 32.6525 48.5791 33.3934 50.4777C31.3212 48.8345 29.8085 46.5901 29.063 44.0527C29.9553 44.262 30.8917 44.4406 31.8768 44.5775ZM40.6044 50.4777C41.3453 48.5791 41.8545 46.598 42.121 44.5775C43.106 44.4418 44.0436 44.2631 44.9348 44.0527C44.189 46.5897 42.6763 48.8336 40.6044 50.4765V50.4777ZM42.4026 42.2342C42.5677 40.5208 42.6537 38.7486 42.6537 37.0001C42.6537 35.2517 42.5677 33.4795 42.4026 31.7672C43.4832 31.9361 44.5521 32.1726 45.6032 32.4752C46.194 35.4621 46.194 38.5359 45.6032 41.5228C44.5522 41.8262 43.4832 42.0634 42.4026 42.233V42.2342ZM48.0415 33.372C50.3543 34.4227 51.7013 35.7436 51.7013 37.0001C51.7013 38.2566 50.3543 39.5787 48.0415 40.6293C48.3974 38.2229 48.3974 35.7773 48.0415 33.3709V33.372ZM60.7489 4.20249C62.5383 4.20249 64.2876 4.73312 65.7755 5.72729C67.2634 6.72146 68.423 8.1345 69.1078 9.78774C69.7926 11.441 69.9718 13.2601 69.6227 15.0152C69.2736 16.7703 68.4118 18.3824 67.1465 19.6477C65.8812 20.9131 64.2691 21.7748 62.514 22.1239C60.7589 22.473 58.9398 22.2938 57.2865 21.609C55.6333 20.9242 54.2202 19.7646 53.2261 18.2767C52.2319 16.7888 51.7013 15.0396 51.7013 13.2501C51.704 10.8514 52.6581 8.55163 54.3542 6.85545C56.0504 5.15928 58.3501 4.20519 60.7489 4.20249ZM50.9492 32.3881C49.8704 31.6847 48.7088 31.1176 47.4907 30.6996C46.9109 28.438 45.9136 26.3046 44.5503 24.4092C47.5661 26.2211 49.8354 29.0508 50.9492 32.3881ZM32.4751 8.7263C32.4751 7.83158 32.7404 6.95694 33.2375 6.21301C33.7346 5.46907 34.4411 4.88924 35.2677 4.54685C36.0943 4.20445 37.0039 4.11486 37.8814 4.28942C38.759 4.46397 39.565 4.89482 40.1977 5.52748C40.8304 6.16015 41.2612 6.96622 41.4358 7.84375C41.6103 8.72128 41.5207 9.63087 41.1783 10.4575C40.8359 11.2841 40.2561 11.9906 39.5122 12.4877C38.7682 12.9848 37.8936 13.2501 36.9989 13.2501C35.7991 13.2501 34.6485 12.7735 33.8001 11.9251C32.9517 11.0767 32.4751 9.92609 32.4751 8.7263ZM29.4464 24.4092C28.083 26.3046 27.0858 28.438 26.5059 30.6996C25.2878 31.1176 24.1262 31.6847 23.0475 32.3881C24.1612 29.0508 26.4306 26.2211 29.4464 24.4092ZM4.20127 13.2501C4.20127 11.4607 4.7319 9.7114 5.72607 8.22352C6.72023 6.73565 8.13328 5.57599 9.78652 4.8912C11.4398 4.20641 13.2589 4.02723 15.014 4.37634C16.7691 4.72544 18.3812 5.58715 19.6465 6.85248C20.9119 8.11781 21.7736 9.72994 22.1227 11.485C22.4718 13.2401 22.2926 15.0592 21.6078 16.7125C20.923 18.3657 19.7634 19.7788 18.2755 20.7729C16.7876 21.7671 15.0383 22.2977 13.2489 22.2977C10.8501 22.295 8.55041 21.3409 6.85423 19.6448C5.15806 17.9486 4.20396 15.6489 4.20127 13.2501ZM13.2489 69.7977C11.4594 69.7977 9.71017 69.2671 8.2223 68.2729C6.73443 67.2788 5.57477 65.8657 4.88998 64.2125C4.20519 62.5592 4.02601 60.7401 4.37512 58.985C4.72422 57.2299 5.58592 55.6178 6.85126 54.3525C8.11659 53.0871 9.72872 52.2254 11.4838 51.8763C13.2389 51.5272 15.058 51.7064 16.7113 52.3912C18.3645 53.076 19.7775 54.2356 20.7717 55.7235C21.7659 57.2114 22.2965 58.9607 22.2965 60.7501C22.2938 63.1489 21.3397 65.4486 19.6435 67.1448C17.9474 68.8409 15.6476 69.795 13.2489 69.7977ZM23.0486 41.6121C24.1273 42.3155 25.289 42.8826 26.507 43.3006C27.0868 45.5619 28.0841 47.695 29.4475 49.5899C26.4317 47.7785 24.1623 44.9492 23.0486 41.6121ZM41.5227 65.2739C41.5227 66.1686 41.2574 67.0433 40.7603 67.7872C40.2632 68.5312 39.5567 69.111 38.7301 69.4534C37.9035 69.7958 36.9939 69.8854 36.1163 69.7108C35.2388 69.5363 34.4327 69.1054 33.8001 68.4727C33.1674 67.8401 32.7366 67.034 32.562 66.1565C32.3874 65.2789 32.477 64.3694 32.8194 63.5427C33.1618 62.7161 33.7417 62.0096 34.4856 61.5125C35.2295 61.0154 36.1042 60.7501 36.9989 60.7501C38.1987 60.7501 39.3493 61.2267 40.1977 62.0751C41.0461 62.9235 41.5227 64.0741 41.5227 65.2739ZM44.5525 49.5899C45.9159 47.695 46.9132 45.5619 47.493 43.3006C48.7111 42.8826 49.8727 42.3155 50.9515 41.6121C49.8378 44.9492 47.5684 47.7785 44.5525 49.5899ZM69.7965 60.7501C69.7965 62.5396 69.2659 64.2888 68.2717 65.7767C67.2775 67.2646 65.8645 68.4242 64.2113 69.109C62.558 69.7938 60.7389 69.973 58.9838 69.6239C57.2287 69.2748 55.6166 68.4131 54.3513 67.1477C53.0859 65.8824 52.2242 64.2703 51.8751 62.5152C51.526 60.7601 51.7052 58.941 52.39 57.2877C53.0748 55.6345 54.2344 54.2215 55.7223 53.2273C57.2102 52.2331 58.9594 51.7025 60.7489 51.7025C63.1476 51.7052 65.4474 52.6593 67.1435 54.3555C68.8397 56.0516 69.7938 58.3514 69.7965 60.7501Z" fill="#5FFF00"/>
<path d="M15.9412 11.8986C16.3926 11.3136 16.6386 10.5961 16.6413 9.85721C16.6413 8.95737 16.2838 8.09438 15.6475 7.4581C15.0112 6.82182 14.1483 6.46436 13.2484 6.46436C12.3486 6.46436 11.4856 6.82182 10.8493 7.4581C10.213 8.09438 9.85556 8.95737 9.85556 9.85721C9.85943 10.5942 10.1054 11.3095 10.5556 11.8929C9.98865 12.3109 9.52764 12.8561 9.20964 13.4847C8.89163 14.1132 8.72551 14.8076 8.72461 15.512V18.9048C8.72461 19.2048 8.84376 19.4924 9.05586 19.7045C9.26795 19.9166 9.55561 20.0358 9.85556 20.0358H16.6413C16.9412 20.0358 17.2289 19.9166 17.441 19.7045C17.6531 19.4924 17.7722 19.2048 17.7722 18.9048V15.512C17.7704 14.8085 17.6039 14.1153 17.2859 13.4878C16.968 12.8603 16.5074 12.316 15.9412 11.8986ZM12.1175 9.85721C12.1175 9.63353 12.1838 9.41487 12.3081 9.22889C12.4323 9.04291 12.609 8.89795 12.8156 8.81235C13.0223 8.72675 13.2497 8.70435 13.4691 8.74799C13.6884 8.79163 13.89 8.89934 14.0481 9.05751C14.2063 9.21568 14.314 9.41719 14.3576 9.63657C14.4013 9.85596 14.3789 10.0834 14.2933 10.29C14.2077 10.4967 14.0627 10.6733 13.8767 10.7976C13.6908 10.9218 13.4721 10.9882 13.2484 10.9882C12.9485 10.9882 12.6608 10.869 12.4487 10.6569C12.2366 10.4448 12.1175 10.1572 12.1175 9.85721ZM15.5103 17.7739H10.9865V15.512C10.9865 14.9121 11.2248 14.3368 11.649 13.9126C12.0732 13.4884 12.6485 13.2501 13.2484 13.2501C13.8483 13.2501 14.4236 13.4884 14.8478 13.9126C15.272 14.3368 15.5103 14.9121 15.5103 15.512V17.7739Z" fill="#5FFF00"/>
<path d="M57.3556 20.0358H64.1413C64.4412 20.0358 64.7289 19.9166 64.941 19.7045C65.1531 19.4924 65.2722 19.2048 65.2722 18.9048V15.512C65.2704 14.8085 65.1039 14.1153 64.7859 13.4878C64.468 12.8603 64.0074 12.316 63.4412 11.8986C63.8926 11.3136 64.1387 10.5961 64.1413 9.85721C64.1413 8.95737 63.7838 8.09438 63.1475 7.4581C62.5112 6.82182 61.6483 6.46436 60.7484 6.46436C59.8486 6.46436 58.9856 6.82182 58.3493 7.4581C57.713 8.09438 57.3556 8.95737 57.3556 9.85721C57.3594 10.5942 57.6054 11.3095 58.0556 11.8929C57.4886 12.3109 57.0276 12.8561 56.7096 13.4847C56.3916 14.1132 56.2255 14.8076 56.2246 15.512V18.9048C56.2246 19.2048 56.3438 19.4924 56.5559 19.7045C56.768 19.9166 57.0556 20.0358 57.3556 20.0358ZM63.0103 17.7739H58.4865V15.512C58.4865 14.9121 58.7248 14.3368 59.149 13.9126C59.5732 13.4884 60.1485 13.2501 60.7484 13.2501C61.3483 13.2501 61.9236 13.4884 62.3478 13.9126C62.772 14.3368 63.0103 14.9121 63.0103 15.512V17.7739ZM59.6175 9.85721C59.6175 9.63353 59.6838 9.41487 59.8081 9.22889C59.9323 9.04291 60.109 8.89795 60.3156 8.81235C60.5223 8.72675 60.7497 8.70435 60.9691 8.74799C61.1884 8.79163 61.39 8.89934 61.5481 9.05751C61.7063 9.21568 61.814 9.41719 61.8576 9.63657C61.9013 9.85596 61.8789 10.0834 61.7933 10.29C61.7077 10.4967 61.5627 10.6733 61.3767 10.7976C61.1908 10.9218 60.9721 10.9882 60.7484 10.9882C60.4485 10.9882 60.1608 10.869 59.9487 10.6569C59.7366 10.4448 59.6175 10.1572 59.6175 9.85721Z" fill="#5FFF00"/>
<path d="M15.9412 59.3986C16.3926 58.8136 16.6386 58.0961 16.6413 57.3572C16.6413 56.4574 16.2838 55.5944 15.6475 54.9581C15.0112 54.3218 14.1483 53.9644 13.2484 53.9644C12.3486 53.9644 11.4856 54.3218 10.8493 54.9581C10.213 55.5944 9.85556 56.4574 9.85556 57.3572C9.85943 58.0942 10.1054 58.8095 10.5556 59.3929C9.98858 59.8109 9.52752 60.356 9.20952 60.9846C8.89151 61.6131 8.72542 62.3076 8.72461 63.012V66.4048C8.72461 66.7048 8.84376 66.9924 9.05586 67.2045C9.26795 67.4166 9.55561 67.5358 9.85556 67.5358H16.6413C16.9412 67.5358 17.2289 67.4166 17.441 67.2045C17.6531 66.9924 17.7722 66.7048 17.7722 66.4048V63.012C17.7705 62.3085 17.604 61.6152 17.286 60.9877C16.9681 60.3602 16.5075 59.816 15.9412 59.3986ZM12.1175 57.3572C12.1175 57.1335 12.1838 56.9149 12.3081 56.7289C12.4323 56.5429 12.609 56.3979 12.8156 56.3124C13.0223 56.2268 13.2497 56.2044 13.4691 56.248C13.6884 56.2916 13.89 56.3993 14.0481 56.5575C14.2063 56.7157 14.314 56.9172 14.3576 57.1366C14.4013 57.356 14.3789 57.5834 14.2933 57.79C14.2077 57.9967 14.0627 58.1733 13.8767 58.2976C13.6908 58.4218 13.4721 58.4882 13.2484 58.4882C12.9485 58.4882 12.6608 58.369 12.4487 58.1569C12.2366 57.9448 12.1175 57.6572 12.1175 57.3572ZM15.5103 65.2739H10.9865V63.012C10.9865 62.4121 11.2248 61.8368 11.649 61.4126C12.0732 60.9884 12.6485 60.7501 13.2484 60.7501C13.8483 60.7501 14.4236 60.9884 14.8478 61.4126C15.272 61.8368 15.5103 62.4121 15.5103 63.012V65.2739Z" fill="#5FFF00"/>
<path d="M57.3556 67.5358H64.1413C64.4412 67.5358 64.7289 67.4166 64.941 67.2045C65.1531 66.9924 65.2722 66.7048 65.2722 66.4048V63.012C65.2705 62.3085 65.104 61.6152 64.7861 60.9877C64.4681 60.3602 64.0075 59.816 63.4412 59.3986C63.8926 58.8136 64.1387 58.0961 64.1413 57.3572C64.1413 56.4574 63.7838 55.5944 63.1475 54.9581C62.5112 54.3218 61.6483 53.9644 60.7484 53.9644C59.8486 53.9644 58.9856 54.3218 58.3493 54.9581C57.713 55.5944 57.3556 56.4574 57.3556 57.3572C57.3594 58.0942 57.6054 58.8095 58.0556 59.3929C57.4886 59.8109 57.0275 60.356 56.7095 60.9846C56.3915 61.6131 56.2254 62.3076 56.2246 63.012V66.4048C56.2246 66.7048 56.3438 66.9924 56.5559 67.2045C56.768 67.4166 57.0556 67.5358 57.3556 67.5358ZM63.0103 65.2739H58.4865V63.012C58.4865 62.4121 58.7248 61.8368 59.149 61.4126C59.5732 60.9884 60.1485 60.7501 60.7484 60.7501C61.3483 60.7501 61.9236 60.9884 62.3478 61.4126C62.772 61.8368 63.0103 62.4121 63.0103 63.012V65.2739ZM59.6175 57.3572C59.6175 57.1335 59.6838 56.9149 59.8081 56.7289C59.9323 56.5429 60.109 56.3979 60.3156 56.3124C60.5223 56.2268 60.7497 56.2044 60.9691 56.248C61.1884 56.2916 61.39 56.3993 61.5481 56.5575C61.7063 56.7157 61.814 56.9172 61.8576 57.1366C61.9013 57.356 61.8789 57.5834 61.7933 57.79C61.7077 57.9967 61.5627 58.1733 61.3767 58.2976C61.1908 58.4218 60.9721 58.4882 60.7484 58.4882C60.4485 58.4882 60.1608 58.369 59.9487 58.1569C59.7366 57.9448 59.6175 57.6572 59.6175 57.3572Z" fill="#5FFF00"/>
<path d="M36.9982 10.9882C38.2474 10.9882 39.2601 9.97548 39.2601 8.72626C39.2601 7.47704 38.2474 6.46436 36.9982 6.46436C35.749 6.46436 34.7363 7.47704 34.7363 8.72626C34.7363 9.97548 35.749 10.9882 36.9982 10.9882Z" fill="#5FFF00"/>
<path d="M36.9982 67.5358C38.2474 67.5358 39.2601 66.5231 39.2601 65.2739C39.2601 64.0247 38.2474 63.012 36.9982 63.012C35.749 63.012 34.7363 64.0247 34.7363 65.2739C34.7363 66.5231 35.749 67.5358 36.9982 67.5358Z" fill="#5FFF00"/>
<path d="M65.2736 39.2618C66.5228 39.2618 67.5355 38.2492 67.5355 36.9999C67.5355 35.7507 66.5228 34.738 65.2736 34.738C64.0244 34.738 63.0117 35.7507 63.0117 36.9999C63.0117 38.2492 64.0244 39.2618 65.2736 39.2618Z" fill="#5FFF00"/>
<path d="M8.7248 39.2618C9.97401 39.2618 10.9867 38.2492 10.9867 36.9999C10.9867 35.7507 9.97401 34.738 8.7248 34.738C7.47558 34.738 6.46289 35.7507 6.46289 36.9999C6.46289 38.2492 7.47558 39.2618 8.7248 39.2618Z" fill="#5FFF00"/>
</svg>
