<svg width="80" height="80" viewBox="0 0 80 80" fill="none" xmlns="http://www.w3.org/2000/svg">
<path d="M43.0026 6.33594L37.3808 11.9577L35.6876 10.2645L33.8359 12.1162L36.455 14.7352C36.7103 14.9906 37.0456 15.1189 37.3808 15.1189C37.7161 15.1189 38.0513 14.9906 38.3067 14.7352L44.8543 8.1876L43.0026 6.33594Z" fill="#5FFF00"/>
<path d="M66.1914 29.5237C66.5266 29.5237 66.8618 29.3954 67.1172 29.14L73.6648 22.5924L71.8131 20.7407L66.1914 26.3625L64.4982 24.6693L62.6465 26.521L65.2655 29.14C65.5209 29.3954 65.8561 29.5237 66.1914 29.5237Z" fill="#5FFF00"/>
<path d="M68.8101 58.3334C65.8217 58.3334 63.1281 59.5984 61.2175 61.6125L40.7902 46.642C41.9452 44.6921 42.6196 42.4253 42.6196 40.0001C42.6196 38.8752 42.4625 37.7896 42.194 36.7472L59.5112 30.4013C61.2567 33.7641 64.7663 36.0715 68.8101 36.0715C74.5864 36.0715 79.2863 31.3716 79.2863 25.5953C79.2863 19.819 74.5864 15.1191 68.8101 15.1191C63.0338 15.1191 58.3339 19.819 58.3339 25.5953C58.3339 26.4033 58.4347 27.1864 58.6089 27.942L41.2904 34.2892C40.0006 31.6414 37.849 29.4977 35.1972 28.2157L37.684 21.3996C38.4304 21.5698 39.2031 21.6667 40.0006 21.6667C45.7769 21.6667 50.4767 16.9669 50.4767 11.1905C50.4767 5.41424 45.7769 0.714355 40.0006 0.714355C34.2243 0.714355 29.5244 5.41424 29.5244 11.1905C29.5244 15.2461 31.8448 18.7622 35.2234 20.5026L32.7353 27.32C31.706 27.058 30.6335 26.9048 29.5244 26.9048C27.4082 26.9048 25.4138 27.4208 23.642 28.3165L17.8762 19.248C20.1901 17.3244 21.6672 14.4277 21.6672 11.1905C21.6672 5.41424 16.9673 0.714355 11.191 0.714355C5.41472 0.714355 0.714844 5.41424 0.714844 11.1905C0.714844 16.9669 5.41472 21.6667 11.191 21.6667C12.7926 21.6667 14.3051 21.2948 15.6644 20.6492L21.4328 29.7242C18.3921 32.1246 16.4291 35.8332 16.4291 40.0001C16.4291 43.9588 18.2022 47.5063 20.9876 49.9092L16.0729 56.9296C14.6141 56.157 12.9537 55.7144 11.191 55.7144C5.41472 55.7144 0.714844 60.4142 0.714844 66.1905C0.714844 71.9669 5.41472 76.6667 11.191 76.6667C16.9673 76.6667 21.6672 71.9669 21.6672 66.1905C21.6672 63.1171 20.3289 60.3579 18.214 58.4395L23.13 51.4165C25.0235 52.4811 27.2026 53.0953 29.5244 53.0953C33.3796 53.0953 36.8394 51.4113 39.2384 48.7503L59.6618 63.7182C58.8184 65.228 58.3339 66.9619 58.3339 68.8096C58.3339 74.5859 63.0338 79.2858 68.8101 79.2858C74.5864 79.2858 79.2863 74.5859 79.2863 68.8096C79.2863 63.0333 74.5864 58.3334 68.8101 58.3334ZM68.8101 17.7382C73.1433 17.7382 76.6672 21.2621 76.6672 25.5953C76.6672 29.9285 73.1433 33.4524 68.8101 33.4524C64.4769 33.4524 60.9529 29.9285 60.9529 25.5953C60.9529 21.2621 64.4769 17.7382 68.8101 17.7382ZM32.1434 11.1905C32.1434 6.85733 35.6673 3.3334 40.0006 3.3334C44.3338 3.3334 47.8577 6.85733 47.8577 11.1905C47.8577 15.5238 44.3338 19.0477 40.0006 19.0477C35.6673 19.0477 32.1434 15.5238 32.1434 11.1905ZM3.33389 11.1905C3.33389 6.85733 6.85782 3.3334 11.191 3.3334C15.5242 3.3334 19.0482 6.85733 19.0482 11.1905C19.0482 15.5238 15.5242 19.0477 11.191 19.0477C6.85782 19.0477 3.33389 15.5238 3.33389 11.1905ZM19.0482 66.1905C19.0482 70.5238 15.5242 74.0477 11.191 74.0477C6.85782 74.0477 3.33389 70.5238 3.33389 66.1905C3.33389 61.8573 6.85782 58.3334 11.191 58.3334C15.5242 58.3334 19.0482 61.8573 19.0482 66.1905ZM29.5244 50.4763C23.7481 50.4763 19.0482 45.7764 19.0482 40.0001C19.0482 34.2238 23.7481 29.5239 29.5244 29.5239C35.3007 29.5239 40.0006 34.2238 40.0006 40.0001C40.0006 45.7764 35.3007 50.4763 29.5244 50.4763ZM68.8101 76.6667C64.4769 76.6667 60.9529 73.1428 60.9529 68.8096C60.9529 64.4764 64.4769 60.9524 68.8101 60.9524C73.1433 60.9524 76.6672 64.4764 76.6672 68.8096C76.6672 73.1428 73.1433 76.6667 68.8101 76.6667Z" fill="#5FFF00"/>
<path d="M8.57222 66.9577L6.87901 65.2645L5.02734 67.1162L7.64639 69.7352C7.90175 69.9906 8.23699 70.1189 8.57222 70.1189C8.90746 70.1189 9.2427 69.9906 9.49806 69.7352L16.0457 63.1876L14.194 61.3359L8.57222 66.9577Z" fill="#5FFF00"/>
</svg>
