<svg width="102" height="102" viewBox="0 0 102 102" fill="none" xmlns="http://www.w3.org/2000/svg">
<path d="M95.2 8.5C95.1944 3.80791 91.3921 0.0056204 86.7 0H8.5C3.80791 0.0056204 0.0056204 3.80791 0 8.5V86.7C0.0056204 91.3921 3.80791 95.1944 8.5 95.2H59.2212C69.2581 104.502 84.8531 104.206 94.5297 94.5297C104.206 84.8531 104.502 69.2581 95.2 59.2212V8.5ZM3.4 8.5C3.4 5.68335 5.68335 3.4 8.5 3.4H86.7C89.5167 3.4 91.8 5.68335 91.8 8.5V13.6H3.4V8.5ZM8.5 91.8C5.68335 91.8 3.4 89.5167 3.4 86.7V17H91.8V56.1476C81.6665 48.4873 67.4363 49.4715 58.4539 58.4539C49.4715 67.4363 48.4873 81.6665 56.1476 91.8H8.5ZM98.6 76.5C98.6 88.7055 88.7055 98.6 76.5 98.6C64.2945 98.6 54.4 88.7055 54.4 76.5C54.4 64.2945 64.2945 54.4 76.5 54.4C88.6997 54.4141 98.586 64.3003 98.6 76.5Z" fill="black"/>
<path d="M8.4998 10.2C9.43869 10.2 10.1998 9.43888 10.1998 8.5C10.1998 7.56111 9.43869 6.8 8.4998 6.8C7.56092 6.8 6.7998 7.56111 6.7998 8.5C6.7998 9.43888 7.56092 10.2 8.4998 10.2Z" fill="black"/>
<path d="M15.3006 10.2C16.2395 10.2 17.0006 9.43888 17.0006 8.5C17.0006 7.56111 16.2395 6.8 15.3006 6.8C14.3617 6.8 13.6006 7.56111 13.6006 8.5C13.6006 9.43888 14.3617 10.2 15.3006 10.2Z" fill="black"/>
<path d="M22.1004 10.2C23.0393 10.2 23.8004 9.43888 23.8004 8.5C23.8004 7.56111 23.0393 6.8 22.1004 6.8C21.1615 6.8 20.4004 7.56111 20.4004 8.5C20.4004 9.43888 21.1615 10.2 22.1004 10.2Z" fill="black"/>
<path d="M57.8002 6.8H37.4002C36.4613 6.8 35.7002 7.56111 35.7002 8.5C35.7002 9.43888 36.4613 10.2 37.4002 10.2H57.8002C58.7391 10.2 59.5002 9.43888 59.5002 8.5C59.5002 7.56111 58.7391 6.8 57.8002 6.8Z" fill="black"/>
<path d="M83.3006 69.7H73.1006V64.6C73.1006 62.7222 74.6228 61.2 76.5006 61.2C78.3784 61.2 79.9006 62.7222 79.9006 64.6C79.9006 65.5389 80.6617 66.3 81.6006 66.3C82.5395 66.3 83.3006 65.5389 83.3006 64.6C83.3006 60.8445 80.2561 57.8 76.5006 57.8C72.745 57.8 69.7006 60.8445 69.7006 64.6V69.7C66.8839 69.7 64.6006 71.9833 64.6006 74.8V88.4C64.6006 91.2166 66.8839 93.5 69.7006 93.5H83.3006C86.1172 93.5 88.4006 91.2166 88.4006 88.4V74.8C88.4006 71.9833 86.1172 69.7 83.3006 69.7ZM85.0006 88.4C85.0006 89.3389 84.2395 90.1 83.3006 90.1H69.7006C68.7617 90.1 68.0006 89.3389 68.0006 88.4V74.8C68.0006 73.8611 68.7617 73.1 69.7006 73.1H83.3006C84.2395 73.1 85.0006 73.8611 85.0006 74.8V88.4Z" fill="black"/>
<path d="M76.5004 76.5C73.6837 76.5 71.4004 78.7834 71.4004 81.6C71.4004 84.4167 73.6837 86.7 76.5004 86.7C79.317 86.7 81.6004 84.4167 81.6004 81.6C81.6004 78.7834 79.317 76.5 76.5004 76.5ZM76.5004 83.3C75.5615 83.3 74.8004 82.5389 74.8004 81.6C74.8004 80.6611 75.5615 79.9 76.5004 79.9C77.4393 79.9 78.2004 80.6611 78.2004 81.6C78.2004 82.5389 77.4393 83.3 76.5004 83.3Z" fill="black"/>
<path d="M34.5509 42.0529C34.9985 42.4635 35.6312 42.604 36.2105 42.4217C36.7899 42.2393 37.228 41.7617 37.3597 41.1688C37.4915 40.5758 37.2969 39.9577 36.8493 39.5471L28.9001 32.351L36.8578 25.0529C37.3054 24.6423 37.5 24.0241 37.3682 23.4312C37.2365 22.8383 36.7984 22.3607 36.219 22.1783C35.6397 21.9959 35.007 22.1365 34.5594 22.5471L26.6017 29.8452C25.9054 30.4713 25.5078 31.3636 25.5078 32.3C25.5078 33.2364 25.9054 34.1287 26.6017 34.7548L34.5509 42.0529Z" fill="black"/>
<path d="M58.2473 41.9492C58.552 42.2815 58.9764 42.4791 59.4268 42.4986C59.8773 42.518 60.3171 42.3577 60.6494 42.0529L68.6071 34.7548C69.3033 34.1287 69.7009 33.2364 69.7009 32.3C69.7009 31.3636 69.3033 30.4713 68.6071 29.8452L60.6511 22.5471C60.2035 22.1365 59.5708 21.9959 58.9914 22.1783C58.4121 22.3607 57.974 22.8383 57.8422 23.4312C57.7105 24.0241 57.9051 24.6423 58.3527 25.0529L66.3104 32.249L58.3527 39.5471C58.0201 39.8516 57.8222 40.2758 57.8024 40.7263C57.7827 41.1768 57.9427 41.6167 58.2473 41.9492Z" fill="black"/>
<path d="M41.6242 42.2569C42.4288 42.7403 43.473 42.48 43.9566 41.6755L54.1566 24.6755C54.6196 23.8725 54.354 22.8466 53.5595 22.3692C52.765 21.8917 51.7345 22.1387 51.2428 22.9245L41.0428 39.9245C40.5594 40.7291 40.8197 41.7733 41.6242 42.2569Z" fill="black"/>
<path d="M11.9002 52.7C12.8391 52.7 13.6002 51.9389 13.6002 51C13.6002 50.0611 12.8391 49.3 11.9002 49.3C10.9613 49.3 10.2002 50.0611 10.2002 51C10.2002 51.9389 10.9613 52.7 11.9002 52.7Z" fill="black"/>
<path d="M11.9002 59.5C12.8391 59.5 13.6002 58.7389 13.6002 57.8C13.6002 56.8611 12.8391 56.1 11.9002 56.1C10.9613 56.1 10.2002 56.8611 10.2002 57.8C10.2002 58.7389 10.9613 59.5 11.9002 59.5Z" fill="black"/>
<path d="M11.9002 66.3C12.8391 66.3 13.6002 65.5389 13.6002 64.6C13.6002 63.6611 12.8391 62.9 11.9002 62.9C10.9613 62.9 10.2002 63.6611 10.2002 64.6C10.2002 65.5389 10.9613 66.3 11.9002 66.3Z" fill="black"/>
<path d="M11.9002 73.1C12.8391 73.1 13.6002 72.3389 13.6002 71.4C13.6002 70.4611 12.8391 69.7 11.9002 69.7C10.9613 69.7 10.2002 70.4611 10.2002 71.4C10.2002 72.3389 10.9613 73.1 11.9002 73.1Z" fill="black"/>
<path d="M11.9002 79.9C12.8391 79.9 13.6002 79.1389 13.6002 78.2C13.6002 77.2611 12.8391 76.5 11.9002 76.5C10.9613 76.5 10.2002 77.2611 10.2002 78.2C10.2002 79.1389 10.9613 79.9 11.9002 79.9Z" fill="black"/>
<path d="M11.9002 86.7C12.8391 86.7 13.6002 85.9389 13.6002 85C13.6002 84.0611 12.8391 83.3 11.9002 83.3C10.9613 83.3 10.2002 84.0611 10.2002 85C10.2002 85.9389 10.9613 86.7 11.9002 86.7Z" fill="black"/>
<path d="M18.7 52.7H35.7C36.6389 52.7 37.4 51.9389 37.4 51C37.4 50.0611 36.6389 49.3 35.7 49.3H18.7C17.7611 49.3 17 50.0611 17 51C17 51.9389 17.7611 52.7 18.7 52.7Z" fill="black"/>
<path d="M44.2 62.9H18.7C17.7611 62.9 17 63.6611 17 64.6C17 65.5389 17.7611 66.3 18.7 66.3H44.2C45.1389 66.3 45.9 65.5389 45.9 64.6C45.9 63.6611 45.1389 62.9 44.2 62.9Z" fill="black"/>
<path d="M39.1 76.5H18.7C17.7611 76.5 17 77.2611 17 78.2C17 79.1389 17.7611 79.9 18.7 79.9H39.1C40.0389 79.9 40.8 79.1389 40.8 78.2C40.8 77.2611 40.0389 76.5 39.1 76.5Z" fill="black"/>
<path d="M18.7 59.5H51C51.9389 59.5 52.7 58.7389 52.7 57.8C52.7 56.8611 51.9389 56.1 51 56.1H18.7C17.7611 56.1 17 56.8611 17 57.8C17 58.7389 17.7611 59.5 18.7 59.5Z" fill="black"/>
<path d="M18.7 73.1H28.9C29.8389 73.1 30.6 72.3389 30.6 71.4C30.6 70.4611 29.8389 69.7 28.9 69.7H18.7C17.7611 69.7 17 70.4611 17 71.4C17 72.3389 17.7611 73.1 18.7 73.1Z" fill="black"/>
<path d="M27.2 83.3H18.7C17.7611 83.3 17 84.0611 17 85C17 85.9389 17.7611 86.7 18.7 86.7H27.2C28.1389 86.7 28.9 85.9389 28.9 85C28.9 84.0611 28.1389 83.3 27.2 83.3Z" fill="black"/>
<path d="M42.4998 52.7H47.5998C48.5387 52.7 49.2998 51.9389 49.2998 51C49.2998 50.0611 48.5387 49.3 47.5998 49.3H42.4998C41.5609 49.3 40.7998 50.0611 40.7998 51C40.7998 51.9389 41.5609 52.7 42.4998 52.7Z" fill="black"/>
<path d="M40.8 69.7H35.7C34.7611 69.7 34 70.4611 34 71.4C34 72.3389 34.7611 73.1 35.7 73.1H40.8C41.7389 73.1 42.5 72.3389 42.5 71.4C42.5 70.4611 41.7389 69.7 40.8 69.7Z" fill="black"/>
</svg>
