<svg width="80" height="80" viewBox="0 0 80 80" fill="none" xmlns="http://www.w3.org/2000/svg">
<path d="M11.6129 23.2258C15.6297 23.2258 19.1768 21.1742 21.2619 18.0645H49.0323V15.4839H22.5484C22.9794 14.271 23.2258 12.9716 23.2258 11.6129C23.2258 5.20903 18.0155 0 11.6129 0C5.21032 0 0 5.20903 0 11.6129C0 18.0168 5.21032 23.2258 11.6129 23.2258ZM11.6129 2.58065C16.5935 2.58065 20.6452 6.63355 20.6452 11.6129C20.6452 16.5923 16.5935 20.6452 11.6129 20.6452C6.63226 20.6452 2.58065 16.5923 2.58065 11.6129C2.58065 6.63355 6.63226 2.58065 11.6129 2.58065Z" fill="#5FFF00"/>
<path d="M17.6862 8.65411L15.8616 6.82959L9.03197 13.6593L7.36358 11.9909L5.53906 13.8154L9.03197 17.3083L17.6862 8.65411Z" fill="#5FFF00"/>
<path d="M72.2584 0V18.0645H69.6778V5.16129H61.9359V18.0645H59.3552V10.3226H51.6133V20.6452H80.0004V0H72.2584ZM56.7746 18.0645H54.1939V12.9032H56.7746V18.0645ZM64.5165 7.74194H67.0972V18.0645H64.5165V7.74194ZM77.4197 18.0645H74.8391V2.58065H77.4197V18.0645Z" fill="#5FFF00"/>
<path d="M39.9999 36.1292C37.8657 36.1292 36.1289 37.8659 36.1289 40.0001C36.1289 42.1343 37.8657 43.8711 39.9999 43.8711C42.1341 43.8711 43.8708 42.1343 43.8708 40.0001C43.8708 37.8659 42.1341 36.1292 39.9999 36.1292ZM39.9999 41.2904C39.2889 41.2904 38.7096 40.7124 38.7096 40.0001C38.7096 39.2879 39.2889 38.7098 39.9999 38.7098C40.7108 38.7098 41.2902 39.2879 41.2902 40.0001C41.2902 40.7124 40.7108 41.2904 39.9999 41.2904Z" fill="#5FFF00"/>
<path d="M45.4745 29.0517L43.8706 30.6556V28.3872H36.1287V30.6556L34.5248 29.0517L29.0512 34.5266L30.6538 36.1291H28.3867V43.8711H30.6538L29.0512 45.4737L34.5248 50.9485L36.1287 49.3459V51.613H43.8706V49.3446L45.4745 50.9485L50.9493 45.4737L49.3454 43.8711H51.6125V36.1291H49.3454L50.948 34.5266L45.4745 29.0517ZM49.0319 41.2904H46.428L45.4577 43.6324L47.299 45.4737L45.4732 47.2995L43.6319 45.4569L41.2899 46.4285V49.0324H38.7093V46.4285L36.3674 45.4569L34.5248 47.2995L32.7003 45.4737L34.5428 43.6298L33.5725 41.2904H30.9674V38.7098H33.5712L34.5416 36.3679L32.7003 34.5266L34.5248 32.7008L36.3661 34.5433L38.7093 33.5717V30.9679H41.2899V33.5717L43.6319 34.5433L45.4732 32.7008L47.299 34.5266L45.4577 36.3679L46.428 38.7098H49.0319V41.2904Z" fill="#5FFF00"/>
<path d="M64.5159 37.4194C64.5159 38.1316 63.9366 38.7097 63.2256 38.7097H54.1934V41.2903H63.2256C65.3598 41.2903 67.0966 39.5536 67.0966 37.4194V23.2258H64.5159V37.4194Z" fill="#5FFF00"/>
<path d="M71.4104 56.7742H70.5239C65.7884 56.7742 61.9355 60.6271 61.9355 65.3639C61.9355 67.6568 62.8285 69.8129 64.4517 71.4374L67.0968 74.0826V76.129C67.0968 78.2632 68.8336 80 70.9678 80C73.102 80 74.8388 78.2632 74.8388 76.129V74.0826L77.4852 71.4374C79.1072 69.8129 80.0001 67.658 80.0001 65.3639C80.0001 60.6271 76.1472 56.7742 71.4104 56.7742ZM70.9678 77.4193C70.2568 77.4193 69.6775 76.8413 69.6775 76.129V74.8387H72.2581V76.129C72.2581 76.8413 71.6788 77.4193 70.9678 77.4193ZM75.6594 69.6129L73.0143 72.258H72.2581V67.0968H74.8388V64.5161H67.0968V67.0968H69.6775V72.258H68.9214L66.2762 69.6129C65.1407 68.4774 64.5162 66.9677 64.5162 65.3639C64.5162 62.0503 67.2117 59.3548 70.5252 59.3548H71.4117C74.7239 59.3548 77.4194 62.0503 77.4194 65.3639C77.4194 66.9677 76.7949 68.4774 75.6594 69.6129Z" fill="#5FFF00"/>
<path d="M69.6777 49.0322H72.2584V54.1935H69.6777V49.0322Z" fill="#5FFF00"/>
<path d="M63.3809 50.783L65.7648 49.7948L67.7416 54.5639L65.3577 55.5521L63.3809 50.783Z" fill="#5FFF00"/>
<path d="M74.252 54.5967L76.2288 49.8276L78.6127 50.8157L76.6359 55.5848L74.252 54.5967Z" fill="#5FFF00"/>
<path d="M10.3226 70.9678V69.6775H15.4839C16.9071 69.6775 18.0645 68.52 18.0645 67.0968V46.4517C18.0645 45.0284 16.9071 43.871 15.4839 43.871H10.3226V42.5807C10.3226 41.8684 10.9019 41.2904 11.6129 41.2904H25.8064V38.7097H11.6129C9.47871 38.7097 7.74194 40.4465 7.74194 42.5807V43.871H2.58065C1.15742 43.871 0 45.0284 0 46.4517V67.0968C0 68.52 1.15742 69.6775 2.58065 69.6775H7.74194V70.9678C7.74194 73.102 9.47871 74.8387 11.6129 74.8387H61.9355V72.2581H11.6129C10.9019 72.2581 10.3226 71.68 10.3226 70.9678ZM2.58065 46.4517H15.4839L15.4852 67.0968H2.58065V46.4517Z" fill="#5FFF00"/>
<path d="M5.16211 49.0322H12.904V51.6129H5.16211V49.0322Z" fill="#5FFF00"/>
<path d="M5.16211 54.1936H12.904V56.7743H5.16211V54.1936Z" fill="#5FFF00"/>
<path d="M5.16211 59.355H12.904V61.9356H5.16211V59.355Z" fill="#5FFF00"/>
</svg>
