<svg width="80" height="80" viewBox="0 0 80 80" fill="none" xmlns="http://www.w3.org/2000/svg">
<path d="M26.9062 24.2856H42.6205V26.9047H26.9062V24.2856Z" fill="#5FFF00"/>
<path d="M45.2383 24.2856H47.8573V26.9047H45.2383V24.2856Z" fill="#5FFF00"/>
<path d="M50.4766 24.2856H53.0956V26.9047H50.4766V24.2856Z" fill="#5FFF00"/>
<path d="M26.9062 34.7622H42.6205V37.3813H26.9062V34.7622Z" fill="#5FFF00"/>
<path d="M45.2383 34.7622H47.8573V37.3813H45.2383V34.7622Z" fill="#5FFF00"/>
<path d="M50.4766 34.7622H53.0956V37.3813H50.4766V34.7622Z" fill="#5FFF00"/>
<path d="M26.9062 45.2383H42.6205V47.8573H26.9062V45.2383Z" fill="#5FFF00"/>
<path d="M45.2383 45.2383H47.8573V47.8573H45.2383V45.2383Z" fill="#5FFF00"/>
<path d="M50.4766 45.2383H53.0956V47.8573H50.4766V45.2383Z" fill="#5FFF00"/>
<path d="M74.0482 54.4048C72.8872 54.4063 71.7596 54.7927 70.8417 55.5036C69.9239 56.2145 69.2677 57.2097 68.9759 58.3333H54.4053V53.0952C55.4469 53.094 56.4454 52.6797 57.1819 51.9433C57.9184 51.2068 58.3327 50.2082 58.3339 49.1667V45.2381H66.191C68.0002 45.2368 69.7895 44.8606 71.446 44.1333C73.1025 43.406 74.5904 42.3433 75.8157 41.0123C77.0411 39.6813 77.9773 38.1108 78.5655 36.3999C79.1536 34.6891 79.3808 32.8749 79.2329 31.0718C79.0849 29.2687 78.5649 27.5158 77.7057 25.9237C76.8465 24.3315 75.6667 22.9347 74.2407 21.8213C72.8148 20.7079 71.1736 19.902 69.4206 19.4545C67.6677 19.0071 65.841 18.9276 64.0559 19.2213C62.7748 14.3888 60.068 10.0541 56.288 6.78212C52.5081 3.51011 47.8302 1.45244 42.864 0.87721C37.8978 0.301983 32.8735 1.23587 28.4456 3.55719C24.0178 5.87851 20.3918 9.47964 18.04 13.8914C17.5048 13.8369 16.9671 13.8096 16.4291 13.8095C12.2614 13.8095 8.26445 15.4651 5.31745 18.4121C2.37045 21.3591 0.714844 25.3561 0.714844 29.5238C0.714844 33.6915 2.37045 37.6885 5.31745 40.6355C8.26445 43.5825 12.2614 45.2381 16.4291 45.2381H21.6672V49.1667C21.6684 50.2082 22.0827 51.2068 22.8192 51.9433C23.5557 52.6797 24.5542 53.094 25.5958 53.0952V58.3333H11.0252C10.7065 57.0989 9.94849 56.0231 8.8933 55.3076C7.83811 54.592 6.55819 54.2859 5.29343 54.4465C4.02867 54.6072 2.86592 55.2236 2.02313 56.1802C1.18033 57.1368 0.715357 58.3679 0.715357 59.6429C0.715357 60.9178 1.18033 62.1489 2.02313 63.1056C2.86592 64.0622 4.02867 64.6786 5.29343 64.8392C6.55819 64.9999 7.83811 64.6937 8.8933 63.9782C9.94849 63.2626 10.7065 62.1868 11.0252 60.9524H26.9053C27.2526 60.9524 27.5857 60.8144 27.8313 60.5688C28.0769 60.3233 28.2148 59.9902 28.2148 59.6429V53.0952H30.8339V63.5714H20.3577C20.0104 63.5714 19.6773 63.7094 19.4317 63.955C19.1861 64.2006 19.0482 64.5337 19.0482 64.881V68.9753C17.8137 69.2941 16.7379 70.0521 16.0224 71.1073C15.3068 72.1624 15.0007 73.4424 15.1614 74.7071C15.322 75.9719 15.9384 77.1346 16.895 77.9774C17.8516 78.8202 19.0828 79.2852 20.3577 79.2852C21.6326 79.2852 22.8638 78.8202 23.8204 77.9774C24.777 77.1346 25.3934 75.9719 25.554 74.7071C25.7147 73.4424 25.4086 72.1624 24.693 71.1073C23.9775 70.0521 22.9017 69.2941 21.6672 68.9753V66.1905H32.1434C32.4907 66.1905 32.8238 66.0525 33.0694 65.8069C33.315 65.5613 33.4529 65.2283 33.4529 64.881V53.0952H38.691V66.3563C37.4566 66.675 36.3808 67.433 35.6652 68.4882C34.9497 69.5434 34.6436 70.8233 34.8042 72.0881C34.9649 73.3528 35.5813 74.5156 36.5379 75.3584C37.4945 76.2012 38.7256 76.6662 40.0006 76.6662C41.2755 76.6662 42.5066 76.2012 43.4632 75.3584C44.4199 74.5156 45.0363 73.3528 45.1969 72.0881C45.3576 70.8233 45.0514 69.5434 44.3359 68.4882C43.6203 67.433 42.5445 66.675 41.3101 66.3563V53.0952H46.5482V64.881C46.5482 65.2283 46.6861 65.5613 46.9317 65.8069C47.1773 66.0525 47.5104 66.1905 47.8577 66.1905H58.3339V68.9753C57.0995 69.2941 56.0236 70.0521 55.3081 71.1073C54.5926 72.1624 54.2864 73.4424 54.4471 74.7071C54.6077 75.9719 55.2241 77.1346 56.1807 77.9774C57.1373 78.8202 58.3685 79.2852 59.6434 79.2852C60.9183 79.2852 62.1495 78.8202 63.1061 77.9774C64.0627 77.1346 64.6791 75.9719 64.8398 74.7071C65.0004 73.4424 64.6943 72.1624 63.9787 71.1073C63.2632 70.0521 62.1874 69.2941 60.9529 68.9753V64.881C60.9529 64.5337 60.815 64.2006 60.5694 63.955C60.3238 63.7094 59.9907 63.5714 59.6434 63.5714H49.1672V53.0952H51.7863V59.6429C51.7863 59.9902 51.9242 60.3233 52.1698 60.5688C52.4154 60.8144 52.7485 60.9524 53.0958 60.9524H68.9759C69.2208 61.901 69.7269 62.7618 70.4365 63.4372C71.1462 64.1126 72.031 64.5755 72.9905 64.7732C73.95 64.9709 74.9458 64.8956 75.8646 64.5557C76.7835 64.2159 77.5886 63.6252 78.1886 62.8507C78.7886 62.0763 79.1593 61.149 79.2587 60.1744C79.3581 59.1998 79.1822 58.2168 78.751 57.3372C78.3198 56.4575 77.6505 55.7164 76.8192 55.1981C75.9879 54.6797 75.0279 54.4049 74.0482 54.4048ZM5.95294 62.2619C5.43494 62.2619 4.92857 62.1083 4.49787 61.8205C4.06717 61.5327 3.73148 61.1237 3.53325 60.6451C3.33502 60.1666 3.28316 59.64 3.38422 59.1319C3.48527 58.6239 3.73471 58.1572 4.10099 57.7909C4.46727 57.4246 4.93394 57.1752 5.44199 57.0741C5.95003 56.9731 6.47664 57.0249 6.95521 57.2232C7.43377 57.4214 7.84281 57.7571 8.1306 58.1878C8.41838 58.6185 8.57199 59.1249 8.57199 59.6429C8.57116 60.3372 8.29496 61.0029 7.80398 61.4939C7.31299 61.9849 6.6473 62.2611 5.95294 62.2619ZM22.9767 74.0476C22.9767 74.5656 22.8231 75.072 22.5354 75.5027C22.2476 75.9334 21.8385 76.2691 21.36 76.4673C20.8814 76.6655 20.3548 76.7174 19.8468 76.6163C19.3387 76.5153 18.872 76.2659 18.5058 75.8996C18.1395 75.5333 17.89 75.0666 17.789 74.5586C17.6879 74.0505 17.7398 73.5239 17.938 73.0454C18.1362 72.5668 18.4719 72.1578 18.9026 71.87C19.3333 71.5822 19.8397 71.4286 20.3577 71.4286C21.0521 71.4294 21.7177 71.7056 22.2087 72.1966C22.6997 72.6876 22.9759 73.3533 22.9767 74.0476ZM42.6196 71.4286C42.6196 71.9466 42.466 72.4529 42.1782 72.8836C41.8904 73.3143 41.4814 73.65 41.0028 73.8483C40.5243 74.0465 39.9977 74.0984 39.4896 73.9973C38.9816 73.8962 38.5149 73.6468 38.1486 73.2805C37.7823 72.9142 37.5329 72.4476 37.4318 71.9395C37.3308 71.4315 37.3826 70.9049 37.5809 70.4263C37.7791 69.9477 38.1148 69.5387 38.5455 69.2509C38.9762 68.9631 39.4826 68.8095 40.0006 68.8095C40.6949 68.8104 41.3606 69.0865 41.8516 69.5775C42.3426 70.0685 42.6188 70.7342 42.6196 71.4286ZM62.2625 74.0476C62.2625 74.5656 62.1089 75.072 61.8211 75.5027C61.5333 75.9334 61.1242 76.2691 60.6457 76.4673C60.1671 76.6655 59.6405 76.7174 59.1325 76.6163C58.6244 76.5153 58.1577 76.2659 57.7915 75.8996C57.4252 75.5333 57.1757 75.0666 57.0747 74.5586C56.9736 74.0505 57.0255 73.5239 57.2237 73.0454C57.422 72.5668 57.7576 72.1578 58.1884 71.87C58.619 71.5822 59.1254 71.4286 59.6434 71.4286C60.3378 71.4294 61.0035 71.7056 61.4945 72.1966C61.9854 72.6876 62.2616 73.3533 62.2625 74.0476ZM24.2863 28.2143V22.9762C24.2867 22.629 24.4248 22.2962 24.6703 22.0507C24.9158 21.8052 25.2486 21.6671 25.5958 21.6667H54.4053C54.7525 21.6671 55.0854 21.8052 55.3309 22.0507C55.5764 22.2962 55.7145 22.629 55.7148 22.9762V28.2143C55.7145 28.5615 55.5764 28.8943 55.3309 29.1398C55.0854 29.3853 54.7525 29.5234 54.4053 29.5238H25.5958C25.2486 29.5234 24.9158 29.3853 24.6703 29.1398C24.4248 28.8943 24.2867 28.5615 24.2863 28.2143ZM24.2863 38.6905V33.4524C24.2867 33.1052 24.4248 32.7723 24.6703 32.5268C24.9158 32.2813 25.2486 32.1433 25.5958 32.1429H54.4053C54.7525 32.1433 55.0854 32.2813 55.3309 32.5268C55.5764 32.7723 55.7145 33.1052 55.7148 33.4524V38.6905C55.7145 39.0377 55.5764 39.3705 55.3309 39.616C55.0854 39.8615 54.7525 39.9996 54.4053 40H25.5958C25.2486 39.9996 24.9158 39.8615 24.6703 39.616C24.4248 39.3705 24.2867 39.0377 24.2863 38.6905ZM3.33389 29.5238C3.33783 26.052 4.71877 22.7234 7.17375 20.2684C9.62873 17.8135 12.9573 16.4325 16.4291 16.4286C17.1475 16.4284 17.8646 16.4867 18.5735 16.6027C18.8521 16.6489 19.1381 16.6037 19.3889 16.4739C19.6396 16.3441 19.8417 16.1366 19.9648 15.8825C21.9926 11.702 25.2773 8.26059 29.3588 6.04023C33.4402 3.81987 38.114 2.93183 42.7254 3.5005C47.3368 4.06917 51.6548 6.06606 55.0745 9.21146C58.4943 12.3569 60.8445 16.4932 61.7959 21.041C61.8324 21.2163 61.9043 21.3823 62.0074 21.5287C62.1105 21.6751 62.2425 21.7988 62.3953 21.8921C62.5481 21.9855 62.7184 22.0465 62.8957 22.0714C63.073 22.0964 63.2535 22.0847 63.4261 22.0371C64.8666 21.6435 66.3745 21.5624 67.8489 21.7993C69.3232 22.0361 70.7299 22.5854 71.9746 23.4103C73.2194 24.2352 74.2733 25.3167 75.0659 26.5822C75.8585 27.8478 76.3714 29.2681 76.5703 30.7481C76.7691 32.228 76.6492 33.7334 76.2187 35.1632C75.7882 36.5931 75.057 37.9144 74.0741 39.0385C73.0912 40.1627 71.8793 41.0637 70.5197 41.6812C69.1602 42.2988 67.6843 42.6185 66.191 42.6191H58.1087C57.9371 42.136 57.6727 41.6911 57.3303 41.3095C57.977 40.5906 58.3346 39.6575 58.3339 38.6905V33.4524C58.3346 32.4853 57.977 31.5523 57.3303 30.8333C57.977 30.1144 58.3346 29.1813 58.3339 28.2143V22.9762C58.3327 21.9346 57.9184 20.9361 57.1819 20.1996C56.4454 19.4631 55.4469 19.0488 54.4053 19.0476H25.5958C24.5542 19.0488 23.5557 19.4631 22.8192 20.1996C22.0827 20.9361 21.6684 21.9346 21.6672 22.9762V28.2143C21.6666 29.1813 22.0241 30.1144 22.6708 30.8333C22.0241 31.5523 21.6666 32.4853 21.6672 33.4524V38.6905C21.6666 39.6575 22.0241 40.5906 22.6708 41.3095C22.3285 41.6911 22.064 42.136 21.8925 42.6191H16.4291C12.9573 42.6151 9.62873 41.2342 7.17375 38.7792C4.71877 36.3242 3.33783 32.9957 3.33389 29.5238ZM24.2863 49.1667V43.9286C24.2867 43.5814 24.4248 43.2485 24.6703 43.003C24.9158 42.7575 25.2486 42.6194 25.5958 42.6191H54.4053C54.7525 42.6194 55.0854 42.7575 55.3309 43.003C55.5764 43.2485 55.7145 43.5814 55.7148 43.9286V49.1667C55.7145 49.5139 55.5764 49.8467 55.3309 50.0922C55.0854 50.3377 54.7525 50.4758 54.4053 50.4762H25.5958C25.2486 50.4758 24.9158 50.3377 24.6703 50.0922C24.4248 49.8467 24.2867 49.5139 24.2863 49.1667ZM74.0482 62.2619C73.5302 62.2619 73.0238 62.1083 72.5931 61.8205C72.1624 61.5327 71.8267 61.1237 71.6285 60.6451C71.4303 60.1666 71.3784 59.64 71.4795 59.1319C71.5805 58.6239 71.8299 58.1572 72.1962 57.7909C72.5625 57.4246 73.0292 57.1752 73.5372 57.0741C74.0453 56.9731 74.5719 57.0249 75.0504 57.2232C75.529 57.4214 75.9381 57.7571 76.2258 58.1878C76.5136 58.6185 76.6672 59.1249 76.6672 59.6429C76.6664 60.3372 76.3902 61.0029 75.8992 61.4939C75.4082 61.9849 74.7425 62.2611 74.0482 62.2619Z" fill="#5FFF00"/>
</svg>
