<svg width="74" height="74" viewBox="0 0 74 74" fill="none" xmlns="http://www.w3.org/2000/svg">
<g clip-path="url(#clip0_1500_2318)">
<path d="M71.1647 0.714355H20.1305C18.9594 0.714355 18.01 1.66379 18.01 2.83489V34.7843H3.02483C1.85373 34.7843 0.904297 35.7337 0.904297 36.9048V70.9748C0.904297 72.1459 1.85373 73.0953 3.02483 73.0953H37.0948C38.2659 73.0953 39.2153 72.1459 39.2153 70.9748V55.9897H71.1647C72.3358 55.9897 73.2852 55.0402 73.2852 53.8691V2.83489C73.2852 1.66379 72.3358 0.714355 71.1647 0.714355ZM34.9742 68.8542H5.14537V39.0254H18.01V53.8691C18.01 55.0402 18.9594 55.9897 20.1305 55.9897H34.9742V68.8542ZM34.9742 51.7486H22.251V39.0254H34.9742V51.7486ZM69.0442 51.7486H39.2153V36.9048C39.2153 35.7337 38.2659 34.7843 37.0948 34.7843H22.251V4.95543H69.0442V51.7486Z" fill="#5FFF00"/>
<path d="M47.0769 29.9222L60.4212 16.5778V19.9406C60.4212 21.1117 61.3707 22.0611 62.5418 22.0611C63.7129 22.0611 64.6623 21.1117 64.6623 19.9406V11.4584C64.6623 11.4563 64.662 11.4543 64.662 11.4522C64.6603 10.9023 64.4401 10.3579 64.0413 9.95907C64.0247 9.94846 63.4564 9.33789 62.5414 9.33789H54.0596C52.8885 9.33789 51.9391 10.2873 51.9391 11.4584C51.9391 12.6295 52.8885 13.579 54.0596 13.579H57.4224L44.0781 26.9232C43.25 27.7514 43.25 29.0939 44.0781 29.9221C44.906 30.7502 46.2489 30.7504 47.0769 29.9222Z" fill="#5FFF00"/>
</g>
<defs>
<clipPath id="clip0_1500_2318">
<rect width="72.381" height="72.381" fill="white" transform="translate(0.904297 0.714355)"/>
</clipPath>
</defs>
</svg>
