<svg width="30" height="27" viewBox="0 0 30 27" fill="none" xmlns="http://www.w3.org/2000/svg">
<path fill-rule="evenodd" clip-rule="evenodd" d="M6.4608 15.8811C6.52416 15.9022 6.58932 15.9175 6.65546 15.9268C7.07269 16.9099 7.48757 17.894 7.90011 18.8792C8.64188 20.6517 9.38956 22.4774 9.55325 23.0024C9.75823 23.6483 9.97354 24.0878 10.2095 24.3886C10.3319 24.542 10.472 24.6777 10.6372 24.7809C10.7232 24.8347 10.8153 24.8783 10.9115 24.9107C11.3834 25.0876 11.814 25.0139 12.0838 24.924C12.2422 24.8699 12.3929 24.7956 12.5321 24.7028L12.5395 24.6998L16.707 22.1014L21.5219 25.7911C21.5927 25.8456 21.6694 25.8914 21.752 25.9282C22.3301 26.1789 22.8905 26.2674 23.4184 26.1966C23.9434 26.1229 24.3607 25.9032 24.6719 25.6539C25.0292 25.366 25.314 24.9983 25.5036 24.5804L25.5169 24.5479L25.5213 24.5361L25.5243 24.5302V24.5273L25.5258 24.5258C25.5514 24.4624 25.5711 24.3967 25.5847 24.3297L29.9794 2.17225C29.9932 2.10133 30.0001 2.02921 30 1.95694C30 1.30807 29.7552 0.690175 29.1815 0.317075C28.689 -0.00293519 28.1419 -0.0176824 27.7953 0.00886225C27.4237 0.0383563 27.0786 0.129788 26.8471 0.203523C26.7175 0.244601 26.5896 0.290845 26.4637 0.342145L26.4474 0.349518L1.79927 10.0177L1.79632 10.0191C1.71292 10.0498 1.63077 10.0838 1.55004 10.1209C1.35459 10.2088 1.16709 10.3134 0.989655 10.4335C0.654897 10.6621 -0.116372 11.2903 0.0148767 12.3285C0.118106 13.1544 0.684391 13.6631 1.03095 13.9079C1.21971 14.0421 1.39962 14.138 1.53235 14.2014C1.59133 14.2309 1.71816 14.281 1.77272 14.3046L1.78747 14.309L6.4608 15.8811ZM27.3101 2.38461H27.3072C27.2945 2.39024 27.2817 2.39565 27.2689 2.40083L2.59118 12.0822C2.57849 12.0874 2.5657 12.0923 2.55284 12.097L2.53809 12.1014C2.49301 12.1191 2.44873 12.1388 2.40537 12.1604C2.44642 12.1839 2.48876 12.2051 2.53219 12.2238L7.16571 13.7841C7.24851 13.812 7.32771 13.8496 7.40166 13.8961L22.7046 4.93732L22.7194 4.92994C22.7788 4.89382 22.8398 4.86036 22.9023 4.82966C23.0084 4.7751 23.178 4.69547 23.3697 4.63648C23.5025 4.59519 23.8962 4.47868 24.3209 4.61583C24.5462 4.68684 24.747 4.81977 24.9003 4.99943C25.0536 5.1791 25.1533 5.39827 25.188 5.6319C25.243 5.83652 25.2445 6.0518 25.1925 6.25718C25.0892 6.66272 24.8061 6.97831 24.548 7.22016C24.3268 7.42662 21.457 10.1932 18.6271 12.9243L14.7737 16.6406L14.088 17.3042L22.7474 23.9433C22.8643 23.9923 22.9912 24.0126 23.1176 24.0023C23.1812 23.9936 23.2411 23.967 23.2901 23.9256C23.3499 23.8751 23.4012 23.8154 23.442 23.7486L23.4449 23.7471L27.7068 2.25631C27.5726 2.2886 27.441 2.331 27.3131 2.38313L27.3101 2.38461ZM14.8327 20.6621L13.1043 19.3378L12.6855 21.9996L14.8327 20.6621ZM11.519 16.7099L13.2371 15.0508L17.0905 11.3316L18.5253 9.94835L8.91028 15.5773L8.96189 15.6982C9.5683 17.1308 10.168 18.5662 10.761 20.0043L11.1784 17.3499C11.2161 17.1037 11.3362 16.879 11.519 16.7099Z" fill="black"/>
</svg>
