<svg width="81" height="81" viewBox="0 0 81 81" fill="none" xmlns="http://www.w3.org/2000/svg">
<path d="M31.4947 25.7367C30.9915 24.7255 30.2155 23.8752 29.2545 23.2818C28.2935 22.6884 27.1857 22.3755 26.0563 22.3784C24.4426 22.3802 22.8956 23.0222 21.7547 24.1634C20.6137 25.3045 19.9721 26.8517 19.9707 28.4654V58.5549H23.9897V28.4668C23.9901 27.9188 24.2079 27.3933 24.5954 27.0058C24.9828 26.6184 25.5083 26.4005 26.0563 26.4002C26.4399 26.3989 26.8161 26.5049 27.1426 26.7063C27.4691 26.9076 27.7329 27.1962 27.904 27.5395L41.4429 54.5359H36.9495L29.889 40.468H25.3928L34.4682 58.5508H47.9555L31.4947 25.7367Z" fill="#5FFF00"/>
<path d="M56.9474 22.3785V52.4693C56.9467 53.0171 56.7287 53.5421 56.3412 53.9293C55.9538 54.3165 55.4286 54.5342 54.8808 54.5345C54.4972 54.5358 54.121 54.4298 53.7945 54.2284C53.468 54.0271 53.2042 53.7385 53.0331 53.3952L39.4982 26.3988H43.9849L51.044 40.4667H55.5416L46.4649 22.3839H32.9775L49.437 55.2021C49.9398 56.2135 50.7156 57.0641 51.6767 57.6576C52.6378 58.2511 53.7458 58.5638 54.8754 58.5604C56.4888 58.5586 58.0356 57.9168 59.1765 56.7759C60.3174 55.6351 60.9591 54.0882 60.9609 52.4748V22.3839L56.9474 22.3785Z" fill="#5FFF00"/>
<path d="M40.4662 79.6614C62.1129 79.6614 79.661 62.1133 79.661 40.4667C79.661 18.82 62.1129 1.27191 40.4662 1.27191C18.8196 1.27191 1.27148 18.82 1.27148 40.4667C1.27148 62.1133 18.8196 79.6614 40.4662 79.6614Z" stroke="#5FFF00" stroke-miterlimit="10"/>
<path d="M64.2762 64.2755C77.4257 51.126 77.4257 29.8066 64.2762 16.6571C51.1268 3.50766 29.8073 3.50766 16.6578 16.6571C3.50837 29.8066 3.50837 51.126 16.6578 64.2755C29.8073 77.425 51.1268 77.425 64.2762 64.2755Z" stroke="#5FFF00" stroke-miterlimit="10" stroke-linecap="round" stroke-dasharray="16.44 2.07"/>
</svg>
