<svg xmlns="http://www.w3.org/2000/svg" viewBox="0 0 480 260"><defs><style>.cls-1{fill:#fff;}.cls-2{fill:#10e80c;}</style></defs><g id="logasy"><path class="cls-1" d="M43.93,202.77v32.47H30.82V188.47c0-5,2.68-8.12,6.86-8.12,2,0,3.42.67,5.28,2.38L75.73,212.9V180.42H88.84v47.44c0,5-2.76,8.12-6.85,8.12a7.08,7.08,0,0,1-5.29-2.38Z"/><path class="cls-1" d="M125.28,235.24c-15.71,0-27.25-11.92-27.25-27.63,0-15.94,11.54-26.52,27.25-26.52h13.63c16.16,0,27.33,10.8,27.33,26.52s-11.47,27.63-27.33,27.63Zm13.63-13.78c8,0,13.63-5.51,13.63-13.18s-5.66-13.48-13.63-13.48H125.28a13.11,13.11,0,0,0-13.48,13.48c0,7.74,5.59,13.18,13.48,13.18Z"/><path class="cls-1" d="M175.65,235.24V221.46h41.18c3.21,0,5.14-1.49,5.14-4.17s-1.93-4.39-5.14-4.39H192.71c-11.1,0-18-6.41-18-15.79,0-9.16,6.4-16,18.1-16h39.39V194.8H192.86a3.5,3.5,0,0,0-3.8,3.87,3.54,3.54,0,0,0,3.8,3.87h24c11.85,0,18.18,5,18.18,16,0,9.54-6,16.69-18.18,16.69Z"/><path class="cls-1" d="M253.85,190.76a15.22,15.22,0,0,1,4.14-6.92q2.89-2.75,8-2.74h16.17a12,12,0,0,1,8.27,2.74,14.57,14.57,0,0,1,4.33,6.92l13.31,44.48H293.22l-3.64-13-3.63-13-4.18-15.16h-15l-11.44,41.15H240.47Z"/><path class="cls-1" d="M395,190.76a15.22,15.22,0,0,1,4.14-6.92q2.89-2.75,8-2.74h16.17a12,12,0,0,1,8.27,2.74,14.57,14.57,0,0,1,4.33,6.92l13.31,44.48H434.33l-3.64-13-3.63-13-4.18-15.16h-15l-11.44,41.15H381.58Z"/><path class="cls-1" d="M329.45,202.77v32.47h-13.1V188.47c0-5,2.68-8.12,6.85-8.12,2,0,3.43.67,5.29,2.38l32.76,30.17V180.42h13.11v47.44c0,5-2.75,8.12-6.85,8.12a7.08,7.08,0,0,1-5.29-2.38Z"/><path class="cls-2" d="M210.81,34.94a19.8,19.8,0,0,0-37.49,8.88V141.7h13.07V43.82a6.72,6.72,0,0,1,12.73-3l44,87.82H228.54l-23-45.76H191l29.53,58.84h43.87Z"/><path class="cls-2" d="M293.61,24V121.9a6.72,6.72,0,0,1-12.73,3l-44-87.82h14.62l23,45.77h14.63L259.52,24H215.65l53.54,106.75a19.79,19.79,0,0,0,37.49-8.87V24Z"/></g></svg>