<svg width="300" height="200" viewBox="0 0 300 200" fill="none" xmlns="http://www.w3.org/2000/svg">
<path d="M128.106 64.0848C126.61 61.136 124.148 58.772 121.119 57.3761C118.09 55.9801 114.672 55.634 111.419 56.3938C108.165 57.1536 105.268 58.9748 103.195 61.5622C101.123 64.1496 99.9967 67.3516 100 70.649V143.031H109.802V70.649C109.819 69.5385 110.212 68.4654 110.917 67.5996C111.623 66.7338 112.601 66.1248 113.696 65.8689C114.792 65.613 115.943 65.7249 116.967 66.1868C117.991 66.6488 118.83 67.4344 119.351 68.4193L152.375 133.363H141.409L124.192 99.5184H113.227L135.369 143.031H168.267L128.106 64.0848Z" fill="#10E80C"/>
<path d="M190.188 56.0063V128.388C190.167 129.496 189.773 130.565 189.069 131.427C188.364 132.29 187.388 132.897 186.295 133.152C185.202 133.408 184.054 133.297 183.031 132.838C182.009 132.38 181.171 131.598 180.648 130.618L147.624 65.6738H158.59L175.806 99.5184H186.772L164.638 56.0063H131.74L171.884 134.952C173.383 137.898 175.846 140.259 178.875 141.653C181.903 143.047 185.32 143.392 188.572 142.633C191.824 141.873 194.722 140.054 196.795 137.469C198.869 134.884 199.998 131.684 199.998 128.388V56.0063H190.188Z" fill="#10E80C"/>
<path d="M28.1063 64.0848C26.61 61.136 24.1479 58.772 21.119 57.3761C18.0901 55.9801 14.672 55.634 11.4187 56.3938C8.16542 57.1536 5.26763 58.9748 3.19508 61.5622C1.12252 64.1496 -0.00333482 67.3516 7.41998e-06 70.649V143.031H9.80179V70.649C9.81926 69.5385 10.2117 68.4654 10.9171 67.5996C11.6225 66.7338 12.6005 66.1248 13.6964 65.8689C14.7922 65.613 15.9432 65.7249 16.9673 66.1868C17.9914 66.6488 18.83 67.4344 19.3505 68.4193L52.3746 133.363H41.4087L24.1924 99.5184H13.2265L35.3691 143.031H68.2666L28.1063 64.0848Z" fill="black" fill-opacity="0.02"/>
<path d="M90.1882 56.0063V128.388C90.1673 129.496 89.7734 130.565 89.0685 131.427C88.3637 132.29 87.3879 132.897 86.2949 133.152C85.2019 133.408 84.0538 133.297 83.0314 132.838C82.0091 132.38 81.1705 131.598 80.6479 130.618L47.6238 65.6738H58.5897L75.8061 99.5184H86.7719L64.6378 56.0063H31.7402L71.8837 134.952C73.3828 137.898 75.846 140.259 78.8746 141.653C81.9032 143.047 85.32 143.392 88.5723 142.633C91.8245 141.873 94.7218 140.054 96.7954 137.469C98.869 134.884 99.9975 131.684 99.9984 128.388V56.0063H90.1882Z" fill="black" fill-opacity="0.02"/>
<path d="M228.106 64.0848C226.61 61.136 224.148 58.772 221.119 57.3761C218.09 55.9801 214.672 55.634 211.419 56.3938C208.165 57.1536 205.268 58.9748 203.195 61.5622C201.123 64.1496 199.997 67.3516 200 70.649V143.031H209.802V70.649C209.819 69.5385 210.212 68.4654 210.917 67.5996C211.623 66.7338 212.601 66.1248 213.696 65.8689C214.792 65.613 215.943 65.7249 216.967 66.1868C217.991 66.6488 218.83 67.4344 219.351 68.4193L252.375 133.363H241.409L224.192 99.5184H213.227L235.369 143.031H268.267L228.106 64.0848Z" fill="black" fill-opacity="0.02"/>
<path d="M290.188 56.0063V128.388C290.167 129.496 289.773 130.565 289.069 131.427C288.364 132.29 287.388 132.897 286.295 133.152C285.202 133.408 284.054 133.297 283.031 132.838C282.009 132.38 281.171 131.598 280.648 130.618L247.624 65.6738H258.59L275.806 99.5184H286.772L264.638 56.0063H231.74L271.884 134.952C273.383 137.898 275.846 140.259 278.875 141.653C281.903 143.047 285.32 143.392 288.572 142.633C291.824 141.873 294.722 140.054 296.795 137.469C298.869 134.884 299.998 131.684 299.998 128.388V56.0063H290.188Z" fill="black" fill-opacity="0.02"/>
<mask id="mask0_594_2" style="mask-type:alpha" maskUnits="userSpaceOnUse" x="50" y="56" width="50" height="87">
<rect x="50" y="56" width="50" height="87" fill="#D9D9D9"/>
</mask>
<g mask="url(#mask0_594_2)">
<path d="M28.1063 64.0848C26.61 61.136 24.1479 58.772 21.119 57.3761C18.0901 55.9801 14.672 55.634 11.4187 56.3938C8.16542 57.1536 5.26763 58.9748 3.19508 61.5622C1.12252 64.1496 -0.00333482 67.3516 7.41998e-06 70.649V143.031H9.80179V70.649C9.81926 69.5385 10.2117 68.4654 10.9171 67.5996C11.6225 66.7338 12.6005 66.1248 13.6964 65.8689C14.7922 65.613 15.9432 65.7249 16.9673 66.1868C17.9914 66.6488 18.83 67.4344 19.3505 68.4193L52.3746 133.363H41.4087L24.1924 99.5184H13.2265L35.3691 143.031H68.2666L28.1063 64.0848Z" fill="black" fill-opacity="0.06"/>
<path d="M90.1882 56.0063V128.388C90.1673 129.496 89.7734 130.565 89.0685 131.427C88.3637 132.29 87.3879 132.897 86.2949 133.152C85.2019 133.408 84.0538 133.297 83.0314 132.838C82.0091 132.38 81.1705 131.598 80.6479 130.618L47.6238 65.6738H58.5897L75.8061 99.5184H86.7719L64.6378 56.0063H31.7402L71.8837 134.952C73.3828 137.898 75.846 140.259 78.8746 141.653C81.9032 143.047 85.32 143.392 88.5723 142.633C91.8245 141.873 94.7218 140.054 96.7954 137.469C98.869 134.884 99.9975 131.684 99.9984 128.388V56.0063H90.1882Z" fill="black" fill-opacity="0.06"/>
</g>
<mask id="mask1_594_2" style="mask-type:alpha" maskUnits="userSpaceOnUse" x="200" y="56" width="50" height="87">
<rect x="200" y="56" width="50" height="87" fill="#D9D9D9"/>
</mask>
<g mask="url(#mask1_594_2)">
<path d="M228.106 64.0848C226.61 61.136 224.148 58.772 221.119 57.3761C218.09 55.9801 214.672 55.634 211.419 56.3938C208.165 57.1536 205.268 58.9748 203.195 61.5622C201.123 64.1496 199.997 67.3516 200 70.649V143.031H209.802V70.649C209.819 69.5385 210.212 68.4654 210.917 67.5996C211.623 66.7338 212.601 66.1248 213.696 65.8689C214.792 65.613 215.943 65.7249 216.967 66.1868C217.991 66.6488 218.83 67.4344 219.351 68.4193L252.375 133.363H241.409L224.192 99.5184H213.227L235.369 143.031H268.267L228.106 64.0848Z" fill="black" fill-opacity="0.06"/>
<path d="M290.188 56.0063V128.388C290.167 129.496 289.773 130.565 289.069 131.427C288.364 132.29 287.388 132.897 286.295 133.152C285.202 133.408 284.054 133.297 283.031 132.838C282.009 132.38 281.171 131.598 280.648 130.618L247.624 65.6738H258.59L275.806 99.5184H286.772L264.638 56.0063H231.74L271.884 134.952C273.383 137.898 275.846 140.259 278.875 141.653C281.903 143.047 285.32 143.392 288.572 142.633C291.824 141.873 294.722 140.054 296.795 137.469C298.869 134.884 299.998 131.684 299.998 128.388V56.0063H290.188Z" fill="black" fill-opacity="0.06"/>
</g>
<path d="M128.106 151.085C126.61 148.136 124.148 145.772 121.119 144.376C118.09 142.98 114.672 142.634 111.419 143.394C108.165 144.154 105.268 145.975 103.195 148.562C101.123 151.15 99.9967 154.352 100 157.649V230.031H109.802V157.649C109.819 156.538 110.212 155.465 110.917 154.6C111.623 153.734 112.601 153.125 113.696 152.869C114.792 152.613 115.943 152.725 116.967 153.187C117.991 153.649 118.83 154.434 119.351 155.419L152.375 220.363H141.409L124.192 186.518H113.227L135.369 230.031H168.267L128.106 151.085Z" fill="black" fill-opacity="0.02"/>
<path d="M190.188 143.006V215.388C190.167 216.496 189.773 217.565 189.069 218.427C188.364 219.29 187.388 219.897 186.295 220.152C185.202 220.408 184.054 220.297 183.031 219.838C182.009 219.38 181.171 218.598 180.648 217.618L147.624 152.674H158.59L175.806 186.518H186.772L164.638 143.006H131.74L171.884 221.952C173.383 224.898 175.846 227.259 178.875 228.653C181.903 230.047 185.32 230.392 188.572 229.633C191.824 228.873 194.722 227.054 196.795 224.469C198.869 221.884 199.998 218.684 199.998 215.388V143.006H190.188Z" fill="black" fill-opacity="0.02"/>
<mask id="mask2_594_2" style="mask-type:alpha" maskUnits="userSpaceOnUse" x="100" y="143" width="100" height="44">
<rect x="100" y="186.5" width="43.5" height="100" transform="rotate(-90 100 186.5)" fill="#D9D9D9"/>
</mask>
<g mask="url(#mask2_594_2)">
<path d="M128.106 151.085C126.61 148.136 124.148 145.772 121.119 144.376C118.09 142.98 114.672 142.634 111.419 143.394C108.165 144.154 105.268 145.975 103.195 148.562C101.123 151.15 99.9967 154.352 100 157.649V230.031H109.802V157.649C109.819 156.538 110.212 155.465 110.917 154.6C111.623 153.734 112.601 153.125 113.696 152.869C114.792 152.613 115.943 152.725 116.967 153.187C117.991 153.649 118.83 154.434 119.351 155.419L152.375 220.363H141.409L124.192 186.518H113.227L135.369 230.031H168.267L128.106 151.085Z" fill="black" fill-opacity="0.06"/>
<path d="M190.19 143.006V215.388C190.169 216.496 189.775 217.565 189.07 218.427C188.366 219.29 187.39 219.897 186.297 220.152C185.204 220.408 184.056 220.297 183.033 219.838C182.011 219.38 181.172 218.598 180.65 217.618L147.626 152.674H158.592L175.808 186.518H186.774L164.64 143.006H131.742L171.886 221.952C173.385 224.898 175.848 227.259 178.877 228.653C181.905 230.047 185.322 230.392 188.574 229.633C191.826 228.873 194.724 227.054 196.797 224.469C198.871 221.884 199.999 218.684 200 215.388V143.006H190.19Z" fill="black" fill-opacity="0.06"/>
</g>
<path d="M128.106 -22.9152C126.61 -25.864 124.148 -28.228 121.119 -29.6239C118.09 -31.0199 114.672 -31.366 111.419 -30.6062C108.165 -29.8464 105.268 -28.0252 103.195 -25.4378C101.123 -22.8504 99.9967 -19.6484 100 -16.351V56.0306H109.802V-16.351C109.819 -17.4615 110.212 -18.5346 110.917 -19.4004C111.623 -20.2662 112.601 -20.8752 113.696 -21.1311C114.792 -21.387 115.943 -21.2751 116.967 -20.8132C117.991 -20.3512 118.83 -19.5656 119.351 -18.5807L152.375 46.363H141.409L124.192 12.5184H113.227L135.369 56.0306H168.267L128.106 -22.9152Z" fill="black" fill-opacity="0.02"/>
<path d="M190.188 -30.9937V41.3878C190.167 42.4955 189.773 43.5649 189.069 44.4275C188.364 45.2901 187.388 45.8969 186.295 46.1523C185.202 46.4078 184.054 46.2974 183.031 45.8384C182.009 45.3795 181.171 44.5982 180.648 43.6175L147.624 -21.3262H158.59L175.806 12.5184H186.772L164.638 -30.9937H131.74L171.884 47.9521C173.383 50.8982 175.846 53.2592 178.875 54.653C181.903 56.0469 185.32 56.3921 188.572 55.6328C191.824 54.8735 194.722 53.054 196.795 50.4689C198.869 47.8837 199.998 44.6842 199.998 41.3878V-30.9937H190.188Z" fill="black" fill-opacity="0.02"/>
<mask id="mask3_594_2" style="mask-type:alpha" maskUnits="userSpaceOnUse" x="100" y="12" width="100" height="44">
<rect x="100" y="56" width="43.5" height="100" transform="rotate(-90 100 56)" fill="#D9D9D9"/>
</mask>
<g mask="url(#mask3_594_2)">
<path d="M128.106 -22.9152C126.61 -25.864 124.148 -28.228 121.119 -29.6239C118.09 -31.0199 114.672 -31.366 111.419 -30.6062C108.165 -29.8464 105.268 -28.0252 103.195 -25.4378C101.123 -22.8504 99.9967 -19.6484 100 -16.351V56.0306H109.802V-16.351C109.819 -17.4615 110.212 -18.5346 110.917 -19.4004C111.623 -20.2662 112.601 -20.8752 113.696 -21.1311C114.792 -21.387 115.943 -21.2751 116.967 -20.8132C117.991 -20.3512 118.83 -19.5656 119.351 -18.5807L152.375 46.363H141.409L124.192 12.5184H113.227L135.369 56.0306H168.267L128.106 -22.9152Z" fill="black" fill-opacity="0.06"/>
<path d="M190.19 -30.9937V41.3878C190.169 42.4955 189.775 43.5649 189.07 44.4275C188.366 45.2901 187.39 45.8969 186.297 46.1523C185.204 46.4078 184.056 46.2974 183.033 45.8384C182.011 45.3795 181.172 44.5982 180.65 43.6175L147.626 -21.3262H158.592L175.808 12.5184H186.774L164.64 -30.9937H131.742L171.886 47.9521C173.385 50.8982 175.848 53.2592 178.877 54.653C181.905 56.0469 185.322 56.3921 188.574 55.6328C191.826 54.8735 194.724 53.054 196.797 50.4689C198.871 47.8837 199.999 44.6842 200 41.3878V-30.9937H190.19Z" fill="black" fill-opacity="0.06"/>
</g>
<rect x="49.5" y="12.5" width="201" height="174.5" stroke="black" stroke-opacity="0.1"/>
</svg>
