<svg width="200" height="27" viewBox="0 0 200 27" fill="none" xmlns="http://www.w3.org/2000/svg">
<path d="M6.2676 10.5717V25.8822H0V3.82881C0 1.47117 1.28124 0 3.27483 0C4.23098 0 4.91464 0.315924 5.80386 1.12695L21.4705 15.3483V0.0377213H27.7333V22.407C27.7333 24.7647 26.4186 26.2358 24.4584 26.2358C23.9805 26.2367 23.5079 26.1365 23.0725 25.9421C22.6371 25.7478 22.2489 25.4636 21.9342 25.1089L6.2676 10.5717Z" fill="black"/>
<path d="M45.1613 25.8822C37.6459 25.8822 32.1289 20.2663 32.1289 12.8539C32.1289 5.3377 37.6459 0.353643 45.1613 0.353643H51.6727C59.4032 0.353643 64.7434 5.44615 64.7434 12.8539C64.7434 20.2616 59.2598 25.8822 51.6727 25.8822H45.1613ZM51.6727 19.3892C55.5212 19.3892 58.1937 16.7864 58.1937 13.1698C58.1937 9.55316 55.483 6.81358 51.6727 6.81358H45.1613C44.3084 6.78948 43.4594 6.93742 42.6665 7.24832C41.8736 7.55922 41.1533 8.02654 40.55 8.62164C39.9466 9.21674 39.4728 9.92709 39.1576 10.7092C38.8424 11.4912 38.6924 12.3285 38.7168 13.1698C38.7168 16.8241 41.3845 19.3892 45.1613 19.3892H51.6727Z" fill="black"/>
<path d="M69.2419 25.8822V19.3892H88.9291C90.459 19.3892 91.3865 18.682 91.3865 17.4183C91.3865 16.1546 90.459 15.3483 88.9291 15.3483H77.3931C72.0912 15.3483 68.8164 12.3258 68.8164 7.90282C68.8164 3.58362 71.8761 0.358358 77.4648 0.358358H96.3011V6.8183H77.4648C77.2192 6.79817 76.9722 6.8318 76.7413 6.91677C76.5104 7.00174 76.3014 7.13597 76.1292 7.30985C75.957 7.48374 75.8259 7.69299 75.7452 7.92265C75.6645 8.15231 75.6363 8.39672 75.6625 8.6384C75.638 8.88097 75.6678 9.12587 75.7496 9.3559C75.8313 9.58593 75.9632 9.79549 76.1359 9.96986C76.3086 10.1442 76.5179 10.2792 76.7492 10.3652C76.9804 10.4513 77.228 10.4863 77.4744 10.4679H88.9483C94.6087 10.4679 97.6397 12.8256 97.6397 18.0124C97.6397 22.5061 94.7712 25.8775 88.9483 25.8775L69.2419 25.8822Z" fill="black"/>
<path d="M106.628 4.91332C106.977 3.67063 107.659 2.54356 108.602 1.65035C109.53 0.787449 110.802 0.353643 112.427 0.353643H120.153C121.591 0.280704 123.004 0.743559 124.111 1.65035C125.102 2.52175 125.82 3.65366 126.181 4.91332L132.554 25.8822H125.445L123.71 19.7523L121.97 13.6225L119.976 6.4788H112.805L107.336 25.8775H100.227L106.628 4.91332Z" fill="black"/>
<path d="M174.093 4.91331C174.441 3.67113 175.121 2.54412 176.063 1.65034C176.99 0.787439 178.262 0.353633 179.887 0.353633H187.613C189.051 0.280695 190.464 0.743549 191.571 1.65034C192.562 2.52174 193.28 3.65365 193.641 4.91331L200 25.8822H192.91L191.175 19.7523L189.434 13.6224L187.441 6.4835H180.27L174.8 25.8822H167.691L174.093 4.91331Z" fill="black"/>
<path d="M142.773 10.5717V25.8822H136.506V3.82883C136.506 1.47118 137.792 1.52588e-05 139.785 1.52588e-05C140.742 1.52588e-05 141.42 0.315939 142.31 1.12697L157.976 15.3483V0.0377366H164.244V22.407C164.244 24.7647 162.924 26.2359 160.969 26.2359C160.491 26.2355 160.018 26.1349 159.582 25.9406C159.146 25.7463 158.757 25.4628 158.44 25.1089L142.773 10.5717Z" fill="black"/>
</svg>
