<svg width="42" height="42" viewBox="0 0 42 42" fill="none" xmlns="http://www.w3.org/2000/svg">
<g clip-path="url(#clip0_2561_2187)">
<path d="M38.0588 8.7515C38.4736 8.18262 38.7192 7.48289 38.7192 6.72656C38.7192 4.8268 37.1736 3.28125 35.2738 3.28125C34.5175 3.28125 33.8178 3.52685 33.2489 3.9416C29.6667 1.36123 25.4464 0 21 0C16.6382 0 12.4555 1.32497 8.90392 3.8316C8.53379 4.09287 8.44553 4.60466 8.7068 4.97487C8.96807 5.34499 9.47994 5.43326 9.85007 5.17199C12.2224 3.49757 14.901 2.3958 17.7265 1.91584C17.3977 2.33371 17.0673 2.83664 16.7412 3.44236C15.746 5.29126 14.9247 7.83743 14.3522 10.8381C12.8461 10.9464 11.6054 12.0263 11.2554 13.4531H3.16698C3.64375 12.3277 4.22879 11.2444 4.91933 10.2167C5.17199 9.84071 5.07191 9.33105 4.69588 9.0784C4.31985 8.82566 3.81019 8.92574 3.55753 9.30177C1.23014 12.7655 0 16.8107 0 21C0 25.4449 1.36131 29.6662 3.94136 33.2488C3.52677 33.8176 3.28125 34.5173 3.28125 35.2734C3.28125 37.1732 4.8268 38.7188 6.72656 38.7188C7.48281 38.7188 8.18245 38.4732 8.75126 38.0586C12.3337 40.6388 16.5547 42 21 42C26.6093 42 31.8828 39.8156 35.8493 35.8492C39.8156 31.8829 42 26.6093 42 21C42 16.5541 40.6389 12.3338 38.0588 8.7515ZM39.4369 26.9062H30.6893C30.4083 25.7607 29.5532 24.839 28.4475 24.4638C28.5123 23.3242 28.5469 22.163 28.5469 21C28.5469 18.9717 28.4486 16.987 28.2592 15.0938H39.447C40.0497 16.9801 40.3594 18.9644 40.3594 21C40.3594 23.059 40.035 25.0434 39.4369 26.9062ZM21 40.3594C19.6256 40.3594 18.1384 38.3595 17.0218 35.0098C16.396 33.1322 15.9118 30.9388 15.5851 28.547H23.9975C24.2602 29.6178 25.0242 30.4936 26.0261 30.9097C24.7781 37.43 22.6263 40.3594 21 40.3594ZM6.72656 31.8281C6.17802 31.8281 5.65934 31.9577 5.19857 32.1867C4.38285 31.0383 3.7024 29.8198 3.1623 28.5469H13.931C14.272 31.1282 14.7893 33.5005 15.4654 35.5286C16.1154 37.4788 16.8724 39.0043 17.7156 40.0838C14.8741 39.6019 12.1929 38.4919 9.81332 36.8015C10.0423 36.3407 10.1719 35.822 10.1719 35.2734C10.1719 33.3737 8.62632 31.8281 6.72656 31.8281ZM15.0938 21C15.0938 19.8807 15.1266 18.7638 15.1881 17.6677C16.5396 17.4347 17.6237 16.4124 17.947 15.0938H26.6107C26.8052 16.9798 26.9062 18.9655 26.9062 21C26.9062 22.1156 26.8736 23.2291 26.8124 24.3223C25.4349 24.5363 24.3254 25.5694 23.9975 26.9062H15.3892C15.1949 25.0203 15.0938 23.0345 15.0938 21ZM27.3434 29.5312C26.3483 29.5312 25.5387 28.7217 25.5387 27.7266C25.5387 26.7314 26.3483 25.9219 27.3434 25.9219C28.3385 25.9219 29.1481 26.7314 29.1481 27.7266C29.1481 28.7217 28.3385 29.5312 27.3434 29.5312ZM26.5346 6.47145C25.8846 4.52115 25.1276 2.99554 24.2843 1.916C27.1263 2.39794 29.8074 3.50782 32.1871 5.19848C31.9581 5.65934 31.8285 6.17802 31.8285 6.72656C31.8285 8.62632 33.3741 10.1719 35.2738 10.1719C35.8224 10.1719 36.341 10.0423 36.8018 9.8134C37.6176 10.9617 38.2978 12.1803 38.8379 13.4532H28.069C27.728 10.8718 27.2106 8.4995 26.5346 6.47145ZM37.0785 6.72656C37.0785 7.72168 36.269 8.53125 35.2738 8.53125C34.2787 8.53125 33.4692 7.72168 33.4692 6.72656C33.4692 5.73144 34.2787 4.92188 35.2738 4.92188C36.269 4.92188 37.0785 5.73144 37.0785 6.72656ZM21 1.64062C22.3744 1.64062 23.8616 3.64046 24.9782 6.99021C25.604 8.86782 26.0882 11.0613 26.4149 13.4531H17.9471C17.689 12.4006 16.9463 11.5367 15.9698 11.1123C17.2166 4.57702 19.3705 1.64062 21 1.64062ZM14.6012 12.4688C15.5964 12.4688 16.4059 13.2784 16.4059 14.2735C16.4059 15.2686 15.5964 16.0782 14.6012 16.0782C13.6061 16.0782 12.7965 15.2686 12.7965 14.2735C12.7965 13.2784 13.6061 12.4688 14.6012 12.4688ZM11.2554 15.0938C11.541 16.2581 12.4194 17.1916 13.5514 17.5547C13.4874 18.6882 13.4531 19.843 13.4531 21C13.4531 23.0284 13.5514 25.0131 13.7408 26.9062H2.55339C1.95054 25.0196 1.64062 23.0353 1.64062 21C1.64062 18.9751 1.95275 16.9872 2.55831 15.0938H11.2554ZM4.92188 35.2734C4.92188 34.2783 5.73144 33.4688 6.72656 33.4688C7.72168 33.4688 8.53125 34.2783 8.53125 35.2734C8.53125 36.2686 7.72168 37.0781 6.72656 37.0781C5.73144 37.0781 4.92188 36.2686 4.92188 35.2734ZM24.2761 40.0808C24.6021 39.6661 24.9296 39.168 25.2529 38.5688C26.2511 36.7184 27.0751 34.1663 27.6488 31.1576C29.1295 31.0268 30.3438 29.9559 30.6893 28.5469H38.8275C36.2915 34.5148 30.8428 38.9567 24.2761 40.0808Z" fill="#5FFF00"/>
<path d="M6.56738 7.71588C6.78403 7.71588 6.99477 7.62893 7.14816 7.47553C7.30074 7.32295 7.3877 7.11131 7.3877 6.89557C7.3877 6.67983 7.30074 6.46901 7.14816 6.31561C6.99477 6.16303 6.78403 6.07526 6.56738 6.07526C6.35164 6.07526 6.14 6.16303 5.9875 6.31561C5.83493 6.46901 5.74707 6.67983 5.74707 6.89557C5.74707 7.11131 5.83484 7.32295 5.9875 7.47553C6.14 7.62893 6.35164 7.71588 6.56738 7.71588Z" fill="#5FFF00"/>
</g>
<defs>
<clipPath id="clip0_2561_2187">
<rect width="42" height="42" fill="white"/>
</clipPath>
</defs>
</svg>
