<svg width="624" height="469" viewBox="0 0 624 469" fill="none" xmlns="http://www.w3.org/2000/svg">
<g opacity="0.5" filter="url(#filter0_f_2455_6099)">
<rect x="55" y="212" width="514" height="202" fill="#5FFF00"/>
</g>
<g clip-path="url(#clip0_2455_6099)">
<rect x="1" width="623" height="410" rx="4" fill="#010702"/>
<g clip-path="url(#clip1_2455_6099)">
<path d="M93.7344 290.342L56.2987 355.386L16.5884 420.77L-24.8653 481.106L-67.1541 531.66L-108.732 569.337L-147.099 593.445L-178.989 605.754L-201.08 609.509L-210.983 607.867" stroke="#5FFF00" stroke-width="0.455843" stroke-linecap="round" stroke-linejoin="round"/>
<path d="M74.7025 175.402L36.4769 222.911L-3.17378 276.85L-43.4936 332.997L-83.9588 386.528L-124.001 432.784L-162.647 468.291L-198.148 491.604L-228.046 503.489L-249.632 506.304L-260.637 502.92" stroke="#5FFF00" stroke-width="0.455843" stroke-linecap="round" stroke-linejoin="round"/>
<path d="M36.8005 180.758L66.9346 153.36L93.9298 134.193L118.049 118.563L143.777 112.051L166.592 115.148L182.907 127.584L191.065 148.777L191.176 177.273L163.551 210.049L133.96 256.878L101.98 313.559L102.186 320.095L102.559 331.769L101.445 333.64" stroke="#5FFF00" stroke-width="0.455843" stroke-linecap="round" stroke-linejoin="round"/>
<path d="M259.941 179.067L246.032 208.886L223.813 236.03L195.606 254.812L164.809 261.108L155.791 256.173" stroke="#5FFF00" stroke-width="0.455843" stroke-linecap="round" stroke-linejoin="round"/>
<path d="M169.465 238.642L183.425 208.845L190.533 176.66L216.291 160.518L239.709 161.619L259.304 178.215" stroke="#5FFF00" stroke-width="0.455843" stroke-linecap="round" stroke-linejoin="round"/>
<path d="M77.6839 374.963L99.0284 397.465L122.923 418.328L142.274 430.875" stroke="#5FFF00" stroke-width="0.455843" stroke-linecap="round" stroke-linejoin="round"/>
<path d="M157.958 254.838L163.472 253.191L183.611 247.175L209.094 225.311" stroke="#5FFF00" stroke-width="0.455843" stroke-linecap="round" stroke-linejoin="round"/>
<path d="M146.561 265.131L170.447 272.726L203.031 270.052L233.513 255.97L258.017 233.727L273.472 207.673L277.509 181.724L268.953 158.991L266.974 154.442L264.269 148.224L256.367 130.058" stroke="#5FFF00" stroke-width="0.455843" stroke-linecap="round" stroke-linejoin="round"/>
<path d="M75.3503 175.614L97.1619 187.45L115.883 206.874L128.632 231.051L133.96 256.877L131.725 281.056L128.812 286.498L122.426 299.818" stroke="#5FFF00" stroke-width="0.455843" stroke-linecap="round" stroke-linejoin="round"/>
<path d="M66.9345 153.361L87.7719 140.909L111.3 137.91L133.509 144.559L150.811 159.93L161.013 182.494L163.551 210.049L158.75 239.073L148.914 260.399L147.063 264.405" stroke="#5FFF00" stroke-width="0.455843" stroke-linecap="round" stroke-linejoin="round"/>
<path d="M219.764 101.547L195.642 100.772L166.592 115.149L133.509 144.56L97.162 187.451L58.3307 241.052L17.7635 301.434L-23.9294 363.723L-66.2771 422.462L-108.763 472.444L-150.281 509.936L-188.769 533.646L-221.253 544.942L-244.494 546.94L-255.939 543.041" stroke="#5FFF00" stroke-width="0.455843" stroke-linecap="round" stroke-linejoin="round"/>
<path d="M210.935 111.261L217.983 131.767L216.291 160.517L206.831 193.847L190.285 225.393L167.644 248.102" stroke="#5FFF00" stroke-width="0.455843" stroke-linecap="round" stroke-linejoin="round"/>
<path d="M-66.1499 569.538L-85.6955 577.385L-108.012 569.761L-130.4 546.463L-149.767 510.506L-162.647 468.293L-166.185 427.958L-131.403 395.797L-129.076 368.364L-117.789 354.128" stroke="#5FFF00" stroke-width="0.455843" stroke-linecap="round" stroke-linejoin="round"/>
<path d="M61.0284 403.115L73.0867 418.496L92.748 441.999L106.77 457.025L113.215 461.578" stroke="#5FFF00" stroke-width="0.455843" stroke-linecap="round" stroke-linejoin="round"/>
<path d="M209.094 225.31L223.813 236.029L233.513 255.969L236.787 282.311L232.577 312.264L220.437 343.468" stroke="#5FFF00" stroke-width="0.455843" stroke-linecap="round" stroke-linejoin="round"/>
<path d="M-32.2608 535.577L-47.311 541.045L-66.5649 531.94L-87.9402 508.128L-108.379 472.869L-124.001 432.785L-131.403 395.796L-94.8057 355.005L-96.711 333.494L-89.8903 324.613" stroke="#5FFF00" stroke-width="0.455843" stroke-linecap="round" stroke-linejoin="round"/>
<path d="M3.96912 214.938L17.5225 213.84L36.4766 222.911L57.9099 240.898L78.0933 264.666L93.4845 290.064" stroke="#5FFF00" stroke-width="0.455843" stroke-linecap="round" stroke-linejoin="round"/>
<path d="M152.787 258.083L164.809 261.109L170.447 272.727L171.271 289.206L166.827 309.047L156.985 330.832L141.953 353.398L122.3 375.897L98.9052 397.762L72.8905 418.702L45.4821 438.532L34.3254 446.054" stroke="#5FFF00" stroke-width="0.455843" stroke-linecap="round" stroke-linejoin="round"/>
<path d="M-29.4416 253.741L-19.6715 260.128L-3.17379 276.85L17.5529 301.42L38.701 329.313L56.2751 355.238L67.4344 374.999L71.1627 386.438" stroke="#5FFF00" stroke-width="0.455843" stroke-linecap="round" stroke-linejoin="round"/>
<path d="M-238.25 580.382L-227.257 583.576L-203.832 581.249L-170.6 569.869L-131.04 545.959L-88.4466 507.773L-45.1764 456.286L-2.54163 395.085L38.8147 329.399L78.4314 264.888L115.883 206.874L150.811 159.929L182.907 127.583L211.805 111.947" stroke="#5FFF00" stroke-width="0.455843" stroke-linecap="round" stroke-linejoin="round"/>
<path d="M2.47178 492.139L-8.425 493.195L-24.8653 481.104L-45.1764 456.286L-66.2769 422.46L-84.0429 386.188L-94.7804 354.627L-57.1457 308.261L-19.3172 260.011L18.0375 213.852L54.0754 173.258L87.772 140.908L118.049 118.562L143.858 107.087L171.77 99.143L194.317 99.2215L198.064 99.5669L219.764 101.545L236.737 113.316L243.518 134.051L240.404 162.402L228.545 194.821L209.094 225.31L190.759 226.006L169.893 239.181L152.912 257.936L152.787 258.082L147.063 264.404L146.561 265.129L142.07 271.584L140.612 273.68L139.287 275.587L138.905 276.133L130.531 288.175L122.426 299.818L119.413 304.675L106.741 325.105L102.559 331.769L101.445 333.64L92.6762 348.942L92.3978 349.433L86.2156 360.227L77.6391 375.184L71.0779 386.636L60.8858 403.278L42.3295 433.57L37.4921 441.466L34.3255 446.052L21.0387 465.266L2.47178 492.139ZM2.47178 492.139L-3.1528 499.017L-14.8146 513.303L-32.8629 535.415L-33.143 535.689L-59.9622 562.381L-66.8697 569.257L-71.2533 572.674L-97.4407 593.129L-122.189 607.925L-138.909 615.364L-146.072 617.162L-156.141 618.315L-158.029 618.637L-170.002 620.692L-178.543 620.867L-197.132 613.42L-205.154 610.2L-210.983 607.866L-238.25 580.382L-255.939 543.039L-261.124 501.965L-252.905 463.697L-252.404 457.639L-235.11 433.831L-232.06 429.63L-203.153 413.779L-195.593 413.264L-194.474 413.183L-184.892 408.475L-184.04 407.91L-172.346 400.235L-166.472 396.388L-158.497 389.961L-158.434 389.916L-143.691 378.051L-117.761 353.669L-96.7399 331.587L-89.7595 324.252L-69.0411 301.046L-63.01 294.032L-29.065 253.591L4.48046 214.904L36.8004 180.757L54.0754 173.258L75.3505 175.614L111.3 137.909L143.777 112.051L171.77 99.143L195.642 100.77L211.805 111.947L236.737 113.316L256.367 130.057L263.787 151.668L259.941 179.066L273.472 207.671L278.788 243.879L274.255 283.532L269.401 296.308L259.132 323.32L244.798 337.089L222.054 371.798L203.538 391.28L191.264 404.206L154.151 434.117L142.034 431.32L106.44 457.346L69.1199 481.994L31.9164 505.44L26.9477 513.552L-13.682 537.802L-50.8233 560.33L-71.2533 572.674" stroke="#5FFF00" stroke-width="0.455843" stroke-linecap="round" stroke-linejoin="round"/>
<path d="M119.413 304.675L126.795 312.297L156.985 330.83L189.744 341.508L220.437 343.467" stroke="#5FFF00" stroke-width="0.455843" stroke-linecap="round" stroke-linejoin="round"/>
<path d="M106.741 325.105L112.996 332.007L141.953 353.396L172.614 367.999L200.62 374.243L222.054 371.798L233.717 361.051L238.332 354.195L259.132 323.32" stroke="#5FFF00" stroke-width="0.455843" stroke-linecap="round" stroke-linejoin="round"/>
<path d="M37.7675 441.385L30.6381 436.606L16.7921 420.76L-2.427 395.144L-23.9235 363.855L-43.4936 332.999L-57.3323 308.51L-63.2459 294.301" stroke="#5FFF00" stroke-width="0.455843" stroke-linecap="round" stroke-linejoin="round"/>
<path d="M130.531 288.176L136.086 293.58L166.827 309.046L200.585 315.345L232.577 312.264L258.416 301.072L262.615 265.651L258.017 233.727L246.032 208.886L228.545 194.822L207.414 194.519L183.956 209.434L158.75 239.074L142.472 264.354L140.558 267.333L136.747 273.249L131.725 281.057L128.812 286.499L118.601 303.838L117.145 306.378L106.502 324.849L102.555 331.697" stroke="#5FFF00" stroke-width="0.455843" stroke-linecap="round" stroke-linejoin="round"/>
<path d="M92.6761 348.943L95.1923 351.906L122.3 375.896L149.909 393.894L174.015 403.65L191.264 404.207" stroke="#5FFF00" stroke-width="0.455843" stroke-linecap="round" stroke-linejoin="round"/>
<path d="M140.612 273.681L140.639 276.842L136.086 293.58L126.795 312.299L112.996 332.008L95.1923 351.906L86.2156 360.229" stroke="#5FFF00" stroke-width="0.455843" stroke-linecap="round" stroke-linejoin="round"/>
<path d="M139.287 275.588L140.639 276.841L171.271 289.206L204.923 290.92L236.787 282.312L262.615 265.651L278.788 243.88L282.527 219.775" stroke="#5FFF00" stroke-width="0.455843" stroke-linecap="round" stroke-linejoin="round"/>
<path d="M-69.0412 301.046L-81.867 315.967L-96.6111 333.11L-101.757 338.614L-129.097 367.866L-147.619 384.981L-159.515 395.988L-186.615 416.253L-208.871 428.619L-224.675 434.014L-243.176 465.671L-250.131 505.388L-244.494 546.939L-227.257 583.576L-201.081 609.507L-170.002 620.693L-165.495 619.379L-150.35 614.982L-121.55 601.285L-86.4425 577.036L-47.932 540.831L-8.42508 493.195L30.3792 436.662L55.0172 395.743L67.3892 375.184L86.3212 341.457L99.7928 317.453L101.98 313.56L93.7343 290.341L128.632 231.052L161.013 182.494L191.065 148.777L218.782 132.477L243.518 134.052L263.787 151.669L277.509 181.723L282.527 219.774L279.581 242.815L279.142 246.267L277.197 261.49L274.255 283.532L258.416 301.071L244.798 337.089L220.437 343.467L200.62 374.244L174.015 403.649L142.034 431.32" stroke="#5FFF00" stroke-width="0.455843" stroke-linecap="round" stroke-linejoin="round"/>
<path d="M233.712 360.29L223.139 370.954L220.307 373.811L203.638 390.623" stroke="#5FFF00" stroke-width="0.455843" stroke-linecap="round" stroke-linejoin="round"/>
<path d="M152.912 257.937L155.791 256.173L157.958 254.838L168.039 248.637L183.611 247.175L195.606 254.812L203.031 270.052L204.923 290.919L200.585 315.345L189.744 341.509L172.614 368L149.909 393.894L122.728 418.707L92.4702 442.273L60.6495 464.582L28.7646 485.609L-1.8152 505.141L-3.60637 527.535L-13.682 537.803" stroke="#5FFF00" stroke-width="0.455843" stroke-linecap="round" stroke-linejoin="round"/>
</g>
<g clip-path="url(#clip2_2455_6099)">
<path d="M598.995 33.1609L644.109 -26.8136L691.522 -86.8465L740.047 -141.656L788.205 -186.656L834.081 -218.961L875.109 -238.193L908.266 -246.507L930.651 -247.531L940.278 -244.69" stroke="#5FFF00" stroke-width="0.455843" stroke-linecap="round" stroke-linejoin="round"/>
<path d="M603.819 149.565L647.571 107.09L693.524 58.4088L740.412 7.6168L787.123 -40.5599L832.525 -81.568L875.225 -112.079L913.312 -130.873L944.44 -139.01L966.208 -139.162L976.716 -134.457" stroke="#5FFF00" stroke-width="0.455843" stroke-linecap="round" stroke-linejoin="round"/>
<path d="M642.091 148.886L608.831 172.39L579.693 188.11L553.843 200.671L527.511 203.986L505.246 198.121L490.576 183.782L485.073 161.75L488.449 133.454L519.878 104.305L554.977 61.449L593.653 9.10655L594.248 2.59534L595.306 -9.0371L596.641 -10.7576" stroke="#5FFF00" stroke-width="0.455843" stroke-linecap="round" stroke-linejoin="round"/>
<path d="M420.421 123.26L437.874 95.3679L463.248 71.147L493.541 55.9576L524.877 53.4777L533.224 59.4787" stroke="#5FFF00" stroke-width="0.455843" stroke-linecap="round" stroke-linejoin="round"/>
<path d="M517.507 75.2045L500.006 103.069L489.012 134.142L461.473 147.011L438.366 143.053L420.949 124.184" stroke="#5FFF00" stroke-width="0.455843" stroke-linecap="round" stroke-linejoin="round"/>
<path d="M530.91 60.5376L525.235 61.4975L504.512 65.0041L476.544 83.5855" stroke="#5FFF00" stroke-width="0.455843" stroke-linecap="round" stroke-linejoin="round"/>
<path d="M543.48 51.7185L520.703 41.2569L488.037 39.9235L456.061 50.1703L429.019 69.2471L410.492 93.2146L403.31 118.475L409.02 142.084L410.427 146.841L412.351 153.342L417.971 172.339" stroke="#5FFF00" stroke-width="0.455843" stroke-linecap="round" stroke-linejoin="round"/>
<path d="M603.202 149.275L583.003 134.858L566.799 113.289L557.105 87.7337L554.977 61.4496L560.154 37.7258L563.711 32.6817L571.679 20.243" stroke="#5FFF00" stroke-width="0.455843" stroke-linecap="round" stroke-linejoin="round"/>
<path d="M608.831 172.391L586.627 182.199L562.908 182.296L541.68 172.98L526.389 155.607L519.025 131.964L519.877 104.305L528.194 76.0869L540.566 56.1256L542.893 52.3761" stroke="#5FFF00" stroke-width="0.455843" stroke-linecap="round" stroke-linejoin="round"/>
<path d="M450.809 205.114L474.656 208.835L505.246 198.121L541.68 172.98L583.002 134.858L628.101 86.4121L675.752 31.4483L724.754 -25.2711L773.971 -78.3865L822.254 -122.794L868.049 -154.924L909.148 -173.745L942.771 -180.982L966.081 -180.12L976.963 -174.85" stroke="#5FFF00" stroke-width="0.455843" stroke-linecap="round" stroke-linejoin="round"/>
<path d="M460.761 196.552L456.276 175.338L461.473 147.012L474.941 115.089L495.222 85.8051L520.472 66.0372" stroke="#5FFF00" stroke-width="0.455843" stroke-linecap="round" stroke-linejoin="round"/>
<path d="M476.544 83.5862L463.248 71.1464L456.061 50.1697L456.035 23.6252L463.879 -5.58727L479.746 -35.0711" stroke="#5FFF00" stroke-width="0.455843" stroke-linecap="round" stroke-linejoin="round"/>
<path d="M678.859 118.981L665.273 118.412L647.571 107.09L628.5 86.6161L611.377 60.5568L599.209 33.4656" stroke="#5FFF00" stroke-width="0.455843" stroke-linecap="round" stroke-linejoin="round"/>
<path d="M536.439 57.95L524.877 53.4763L520.703 41.2555L521.902 24.799L528.74 5.65126L541.175 -14.7659L558.855 -35.3227L581.113 -55.2474L607.008 -74.0854L635.39 -91.6847L665.019 -108.012L677.012 -114.112" stroke="#5FFF00" stroke-width="0.455843" stroke-linecap="round" stroke-linejoin="round"/>
<path d="M963.977 -214.075L953.457 -218.591L929.924 -219.148L895.549 -211.92L853.36 -193.031L806.414 -160.343L757.169 -114.538L707.365 -59.0146L658.282 1.11676L611.068 60.2948L566.799 113.29L526.389 155.608L490.576 183.783L459.982 195.766" stroke="#5FFF00" stroke-width="0.455843" stroke-linecap="round" stroke-linejoin="round"/>
<path d="M714.266 -155.954L725.21 -155.668L740.047 -141.656L757.168 -114.539L773.971 -78.3858L787.165 -40.2119L793.96 -7.57416L750.934 33.8382L707.486 77.0963L664.763 118.337L624.029 154.216L586.627 182.2L553.843 200.672L526.823 208.903L498.149 213.372L475.781 210.535L472.105 209.734L450.809 205.115L435.404 191.355L431.212 169.946L437.772 142.189L453.509 111.465L476.544 83.5861L494.827 85.1387L517.149 74.6161L536.297 58.0798L536.439 57.9508L542.893 52.3764L543.48 51.7179L548.727 45.8609L550.431 43.9596L551.98 42.2293L552.426 41.7343L562.21 30.8074L571.678 20.2433L575.263 15.791L590.34 -2.93468L595.306 -9.03617L596.641 -10.7566L607.216 -24.8708L607.553 -25.3243L615.009 -35.2807L625.352 -49.076L633.265 -59.6385L645.417 -74.9086L667.541 -102.702L673.308 -109.946L677.012 -114.111L692.55 -131.555L714.266 -155.954ZM714.266 -155.954L720.69 -162.092L734.012 -174.843L754.631 -194.58L754.942 -194.818L784.826 -218.027L792.523 -224.006L797.292 -226.862L825.786 -243.959L852.159 -255.614L869.663 -260.951L876.992 -261.86L887.127 -261.772L889.04 -261.86L901.175 -262.435L909.673 -261.563L927.211 -251.898L934.779 -247.72L940.278 -244.69L963.977 -214.076L976.963 -174.849L977.083 -133.45L964.243 -96.4753L963.004 -90.5235L942.927 -69.0114L939.385 -65.2151L908.756 -53.0198L901.19 -53.4343L900.069 -53.4909L889.983 -49.9908L889.069 -49.5338L876.523 -43.3475L870.223 -40.2483L861.521 -34.8458L861.453 -34.8091L845.369 -24.8371L816.65 -3.81123L793.085 15.5323L785.26 21.9584L761.857 42.4544L755.013 48.6779L716.374 84.6611L678.347 118.952L642.091 148.887L624.029 154.216L603.202 149.275L562.908 182.296L527.511 203.987L498.149 213.372L474.656 208.836L459.982 195.765L435.404 191.355L417.971 172.338L413.251 149.981L420.421 123.26L410.492 93.2139L409.646 56.6282L418.998 17.828L425.379 5.7417L438.876 -19.8112L454.787 -31.7219L481.608 -63.3873L502.369 -80.457L516.132 -91.7837L556.627 -116.928L568.31 -112.67L606.821 -134.145L646.877 -154.041L686.67 -172.758L692.594 -180.201L735.886 -199.297L775.505 -217.111L797.292 -226.862" stroke="#5FFF00" stroke-width="0.455843" stroke-linecap="round" stroke-linejoin="round"/>
<path d="M575.263 15.7918L568.87 7.32416L541.175 -14.7643L509.968 -29.3707L479.746 -35.0703" stroke="#5FFF00" stroke-width="0.455843" stroke-linecap="round" stroke-linejoin="round"/>
<path d="M590.34 -2.93474L584.977 -10.5496L558.855 -35.322L530.211 -53.5671L503.18 -63.1911L481.608 -63.3874L468.718 -54.1485L463.298 -47.9087L438.876 -19.8112" stroke="#5FFF00" stroke-width="0.455843" stroke-linecap="round" stroke-linejoin="round"/>
<path d="M562.21 30.8073L557.358 24.7641L528.74 5.65198L496.008 -4.72995L463.879 -5.58738L436.864 2.35909L428.362 37.0001L429.019 69.2464L437.874 95.3672L453.509 111.465L474.444 114.352L499.551 102.419L528.194 76.0872L547.444 52.9886L549.708 50.2667L554.214 44.8616L560.154 37.7261L563.711 32.682L575.967 16.7227L577.723 14.3798L590.546 -2.64983L595.302 -8.96331" stroke="#5FFF00" stroke-width="0.455843" stroke-linecap="round" stroke-linejoin="round"/>
<path d="M550.431 43.9592L550.791 40.8195L557.358 24.7637L568.87 7.32287L584.977 -10.55L605.082 -28.1198L615.009 -35.2811" stroke="#5FFF00" stroke-width="0.455843" stroke-linecap="round" stroke-linejoin="round"/>
<path d="M551.98 42.2299L550.791 40.8206L521.902 24.8004L488.713 18.9817L456.035 23.6258L428.362 37.0008L409.646 56.6288L402.986 80.0956" stroke="#5FFF00" stroke-width="0.455843" stroke-linecap="round" stroke-linejoin="round"/>
<path d="M761.857 42.455L776.412 29.2162L793.144 14.0065L798.924 9.17308L829.638 -16.514L850.116 -31.2329L863.269 -40.7014L892.645 -57.4988L916.247 -67.0479L932.593 -70.4686L954.828 -99.6233L966.591 -138.191L966.081 -180.119L953.457 -218.591L930.651 -247.53L901.175 -262.434L896.54 -261.682L880.971 -259.172L850.711 -249.101L812.901 -229.331L770.249 -198.11L725.21 -155.668L679.779 -104.308L650.319 -66.7111L635.524 -47.8207L612.608 -16.6636L596.3 5.51185L593.653 9.10804L598.995 33.1615L557.105 87.7346L519.025 131.965L485.073 161.751L455.57 174.536L431.212 169.947L413.251 149.982L403.31 118.474L402.986 80.0955L408.729 57.5883L409.588 54.2154L413.381 39.3445L418.998 17.8286L436.865 2.35968L454.788 -31.7213L479.746 -35.0706L503.18 -63.1905L533.183 -89.1196L568.31 -112.669" stroke="#5FFF00" stroke-width="0.455843" stroke-linecap="round" stroke-linejoin="round"/>
<path d="M536.297 58.0803L533.224 59.4786L530.91 60.5388L520.146 65.459L504.512 65.0053L493.541 55.9574L488.037 39.9234L488.713 18.9816L496.007 -4.7294L509.968 -29.371L530.211 -53.5665L555.914 -76.4876L585.928 -97.7878L618.841 -117.473L653.153 -135.722L687.371 -152.688L720.111 -168.332L724.629 -190.338L735.886 -199.296" stroke="#5FFF00" stroke-width="0.455843" stroke-linecap="round" stroke-linejoin="round"/>
</g>
<rect x="-17" width="659" height="410" fill="url(#paint0_linear_2455_6099)"/>
</g>
<rect x="1.5" y="0.5" width="622" height="409" rx="3.5" stroke="#5FFF00"/>
<defs>
<filter id="filter0_f_2455_6099" x="0" y="157" width="624" height="312" filterUnits="userSpaceOnUse" color-interpolation-filters="sRGB">
<feFlood flood-opacity="0" result="BackgroundImageFix"/>
<feBlend mode="normal" in="SourceGraphic" in2="BackgroundImageFix" result="shape"/>
<feGaussianBlur stdDeviation="27.5" result="effect1_foregroundBlur_2455_6099"/>
</filter>
<linearGradient id="paint0_linear_2455_6099" x1="312.5" y1="0" x2="312.5" y2="362.481" gradientUnits="userSpaceOnUse">
<stop offset="0.380434" stop-color="#010702" stop-opacity="0"/>
<stop offset="0.840737" stop-color="#010702" stop-opacity="0.8"/>
<stop offset="1" stop-color="#010702"/>
</linearGradient>
<clipPath id="clip0_2455_6099">
<rect x="1" width="623" height="410" rx="4" fill="white"/>
</clipPath>
<clipPath id="clip1_2455_6099">
<rect width="664.685" height="280.335" fill="white" transform="translate(365.901 283.203) rotate(144.493)"/>
</clipPath>
<clipPath id="clip2_2455_6099">
<rect width="664.685" height="280.335" fill="white" transform="translate(328 6.94141) rotate(-28.4785)"/>
</clipPath>
</defs>
</svg>
