<svg width="780" height="471" viewBox="0 0 780 471" fill="none" xmlns="http://www.w3.org/2000/svg">
<path d="M297.548 227L297.548 23.6936" stroke="#5FFF00" stroke-width="2.05578" stroke-linecap="round" stroke-linejoin="round"/>
<circle cx="297.393" cy="23.41" r="5.49663" transform="rotate(-180 297.393 23.41)" fill="#5FFF00" stroke="#5FFF00" stroke-width="2"/>
<circle cx="297.547" cy="23.3115" r="9.81818" transform="rotate(90 297.547 23.3115)" stroke="#5FFF00"/>
<circle opacity="0.4" cx="297.547" cy="23.3114" r="15.8926" transform="rotate(90 297.547 23.3114)" stroke="#5FFF00" stroke-width="1.08017"/>
<circle opacity="0.06" cx="298.312" cy="23.3114" r="22.7714" transform="rotate(90 298.312 23.3114)" stroke="#5FFF00" stroke-width="1.08017"/>
<path d="M593.548 318L593.548 114.694" stroke="#5FFF00" stroke-width="2.05578" stroke-linecap="round" stroke-linejoin="round"/>
<circle cx="593.393" cy="114.41" r="5.49663" transform="rotate(-180 593.393 114.41)" fill="#5FFF00" stroke="#5FFF00" stroke-width="2"/>
<circle cx="593.547" cy="114.311" r="9.81818" transform="rotate(90 593.547 114.311)" stroke="#5FFF00"/>
<circle opacity="0.4" cx="593.547" cy="114.311" r="15.8926" transform="rotate(90 593.547 114.311)" stroke="#5FFF00" stroke-width="1.08017"/>
<circle opacity="0.06" cx="594.312" cy="114.311" r="22.7714" transform="rotate(90 594.312 114.311)" stroke="#5FFF00" stroke-width="1.08017"/>
<g clip-path="url(#clip0_567_409)">
<path d="M571.298 242.612L593.279 293.21L615.81 329.433L639.165 348.369" stroke="#10E80C" stroke-linecap="round" stroke-linejoin="round"/>
<path d="M490.324 235.351L512.864 279.101L535.349 328.316L558.374 359.457L582.013 376.772" stroke="#10E80C" stroke-linecap="round" stroke-linejoin="round"/>
<path d="M470.028 256.567L492.706 298.604L515.429 342.225L538.619 370.655L562.368 386.542" stroke="#10E80C" stroke-linecap="round" stroke-linejoin="round"/>
<path d="M510.181 224.446L532.656 265.284L554.986 314.701L577.837 348.46L601.357 367.157" stroke="#10E80C" stroke-linecap="round" stroke-linejoin="round"/>
<path d="M405.88 281.747L428.575 321.907L451.5 350.768L474.699 373.723L498.21 393.336L522.133 406.539L542.411 396.458L562.368 386.542L582.013 376.772L601.357 367.157L620.407 357.69L639.165 348.369L657.638 339.185L675.837 330.138" stroke="#10E80C" stroke-linecap="round" stroke-linejoin="round"/>
<path d="M555.425 174.049L515.603 169.077L497.074 177.932L489.225 183.837L478.216 192.133L458.992 217.524L437.45 217.615L416.101 243.4L395.265 260.412L376.141 268.433L356.743 276.564L337.07 284.814L317.103 293.192L296.853 301.68L276.337 293.769L256.069 284.219L235.709 259.515L215.77 244.727L196.097 231.799L175.434 240.461L154.69 255.477L133.853 274.687L112.577 289.182L90.8984 300.948L71.6374 291.251L49.7019 303.63L30.8164 296.04L12.1874 288.367L-6.14864 281.637L-28.542 289.96" stroke="#10E80C" stroke-linecap="round" stroke-linejoin="round"/>
<path d="M405.88 281.747L384.86 312.485L363.639 342.921L342.207 369.538L320.51 392.466L298.456 408.672L276.017 420.319L253.596 410.724" stroke="#10E80C" stroke-linecap="round" stroke-linejoin="round"/>
<path d="M577.315 184.817L585.714 194.834" stroke="#10E80C" stroke-linecap="round" stroke-linejoin="round"/>
<path d="M426.579 273.158L449.338 293.732L472.144 329.332L495.233 356.115L518.579 381.56L542.41 396.458" stroke="#10E80C" stroke-linecap="round" stroke-linejoin="round"/>
<path d="M490.324 235.351L470.028 256.567L449.339 293.732L428.576 321.907L407.638 344.093L386.454 364.768L365.013 388.648L343.288 406.695L321.216 419.468L298.456 408.673L276.008 397.135L253.871 385.699L232.082 376.003L210.668 368.879L188.293 382.769" stroke="#10E80C" stroke-linecap="round" stroke-linejoin="round"/>
<path d="M657.638 339.185L634.283 322.328L611.715 291.15L589.661 248.912L567.451 214.813L556.295 208.422L544.838 201.848L522.334 197.023L500.216 188.663L478.216 192.133L456.565 197.352L455.585 198.359L454.339 199.678L438.009 216.764L436.937 217.615L435.133 219.474L414.187 240.287L393.708 245.24L374.831 253.041L355.689 260.953L336.273 268.983L316.068 260.669L296.368 269.532L276.383 277.69L256.069 284.219L235.535 294.346L214.662 302.852L193.477 311.487L171.926 318.464L151.978 311.358L132.186 300.948L112.577 289.182L93.2062 277.416L74.4214 273.149L52.7516 284.274L30.8162 296.04L8.45947 305.791" stroke="#10E80C" stroke-linecap="round" stroke-linejoin="round"/>
<path d="M393.708 245.24L412.392 223.75L432.999 209.182" stroke="#10E80C" stroke-linecap="round" stroke-linejoin="round"/>
<path d="M402.042 267.096L416.101 243.4L435.133 219.474L437.029 217.615L438.009 216.764L454.339 199.678L456.565 197.352L469.158 189.075L475.368 184.991L481.331 181.265L493.924 173.372" stroke="#10E80C" stroke-linecap="round" stroke-linejoin="round"/>
<path d="M209.743 391.953L232.082 376.002L254.035 356.087L268.818 345.649L275.797 340.723L283.435 338.058L294.032 334.378L297.357 333.215L314.859 325.395L318.962 323.161L334.468 316.202L341.017 313.254" stroke="#10E80C" stroke-linecap="round" stroke-linejoin="round"/>
<path d="M231.505 401.265L253.871 385.699L275.733 358.367" stroke="#10E80C" stroke-linecap="round" stroke-linejoin="round"/>
<path d="M711.418 312.448L688.082 300.407L670.423 307.705L652.491 315.085L634.283 322.328L615.809 329.433L597.006 337.573L577.837 348.46L558.374 359.457L538.619 370.655L518.579 381.56L498.21 393.336L477.529 405.303L456.546 416.446L435.225 427.699L411.485 417.426L388.093 404.268L365.013 388.647L342.207 369.538L319.631 347.718L297.439 336.996L275.797 340.723L254.512 343.049L233.465 339.212L212.775 336.941L192.241 328.536L171.926 318.464L150.165 329.149L130.19 320.863L110.425 311.093L88.3245 320.753L65.8945 330.376" stroke="#10E80C" stroke-linecap="round" stroke-linejoin="round"/>
<path d="M437.698 448.503L413.564 438.486L391.546 449.244L369.162 460.186L345.34 449.986" stroke="#10E80C" stroke-linecap="round" stroke-linejoin="round"/>
<path d="M506.856 207.452L529.634 219.318L552.156 252.465L574.357 301.03L597.006 337.573L620.407 357.69" stroke="#10E80C" stroke-linecap="round" stroke-linejoin="round"/>
<path d="M167.155 373.723L189.576 361.746L211.63 348.561L233.465 339.212L255.089 336.319L272.839 338.837" stroke="#10E80C" stroke-linecap="round" stroke-linejoin="round"/>
<path d="M415.716 459.435L393.36 470.542L369.162 460.186" stroke="#10E80C" stroke-linecap="round" stroke-linejoin="round"/>
<path d="M146.318 364.804L168.776 354.229L190.858 342.582L211.63 348.561L232.695 353.45L254.512 343.049L276.117 339.304L286.806 336.245" stroke="#10E80C" stroke-linecap="round" stroke-linejoin="round"/>
<path d="M276.017 420.319L298.776 430.062L321.884 439.951L344.305 429.338L366.369 418.232L389.788 428.551L411.485 417.426L432.843 404.552L453.909 389.911L474.699 373.723L495.233 356.115L515.429 342.225L535.349 328.316L554.986 314.701L574.357 301.03L593.279 293.21L611.715 291.15L629.832 289.374L647.673 286.618L665.276 283.001L682.623 278.707L705.484 293.165L728.829 303.804" stroke="#10E80C" stroke-linecap="round" stroke-linejoin="round"/>
<path d="M27.3359 313.876L49.7018 303.63L68.8804 312.054L90.8983 300.948L110.425 311.093L132.186 300.948L153.471 286.426L174.308 266.346L195.126 253.591L215.77 244.727L236.286 242.878L256.362 235.544L276.127 226.616L295.726 225.133L303.585 233.007L315.565 245.011L335.503 253.582L354.664 245.762L373.558 238.062L392.197 230.462L412.392 223.75L430.874 205.053L446.811 200.41L453.423 196.318L454 195.841L456.144 194.669L468.032 188.718L475.368 184.991L484.078 182.162L497.074 177.932L518.991 179.241L537.401 174.516L559.455 182.125L577.315 184.817L586.657 194.715L593.856 202.709L594.359 203.249L615.993 224.977L616.496 225.38L618.859 227.019L629.117 234.317L632.717 236.88L644.229 244.151L654.725 250.78L671.431 252.51L693.852 260.971L710.521 256.072L733.226 263.48" stroke="#10E80C" stroke-linecap="round" stroke-linejoin="round"/>
<path d="M779.542 278.597L756.233 270.988L739.582 277.874L722.647 285.611L705.484 293.165L688.082 300.407L665.276 283.001L642.837 262.61L625.353 260.486L603.372 229.51L597.922 220.948L582.572 196.867L581.638 195.393L559.455 182.125L541.073 187.811L518.991 179.241L500.216 188.663L481.046 206.701L461.712 219.694L442.03 242.887L422.128 269.495L400.284 280.978L393.909 286.792" stroke="#10E80C" stroke-linecap="round" stroke-linejoin="round"/>
<path d="M125.784 356.014L148.269 346.72L170.424 337.555L190.858 342.582L212.775 336.941L234.271 327.922L255.089 336.319L276.255 327.309L297.1 318.445L313.943 325.038" stroke="#10E80C" stroke-linecap="round" stroke-linejoin="round"/>
<path d="M-10.1694 297.825L12.1873 288.367L34.2509 279.503L52.7518 284.274L71.6373 291.251L93.2064 277.416L114.51 264.047L135.502 249.525L153.618 237.686L156.256 235.956L169.664 228.676L172.751 227.01L176.827 224.794L185.179 220.985L192.9 217.469L197.187 215.509L216.53 225.609L236.286 242.878L256.243 261.163L276.383 277.69L296.606 285.382L316.581 277.123L336.273 268.983L356.743 276.564L377.487 284.246L396.868 275.813L409.901 263.562" stroke="#10E80C" stroke-linecap="round" stroke-linejoin="round"/>
<path d="M85.5771 338.8L108.053 329.763L130.19 320.863L151.979 311.358L173.246 295.701" stroke="#10E80C" stroke-linecap="round" stroke-linejoin="round"/>
<path d="M459.322 437.753L437.698 448.503L415.717 459.435L391.546 449.244L367.752 439.218L345.34 449.986L321.884 439.951" stroke="#10E80C" stroke-linecap="round" stroke-linejoin="round"/>
<path d="M480.598 427.178L459.322 437.753L435.225 427.699L413.564 438.486L389.788 428.551L367.752 439.218L344.305 429.338L321.216 419.468L298.776 430.062" stroke="#10E80C" stroke-linecap="round" stroke-linejoin="round"/>
<path d="M446.976 262.253L470.028 256.567" stroke="#10E80C" stroke-linecap="round" stroke-linejoin="round"/>
<path d="M439.694 231.231L458.992 217.524L481.047 206.701L503.367 204.036L523.122 202.498L526.053 202.269L548.84 211.462L571.298 242.612L589.661 248.912L607.631 256.091L625.353 260.486L627.231 262.692L647.673 286.618L670.424 307.705L693.76 321.229" stroke="#10E80C" stroke-linecap="round" stroke-linejoin="round"/>
<path d="M-6.14893 281.637L15.9239 273.423L34.2507 279.503L56.0029 270.851L74.4214 273.149L88.9564 265.091L95.7615 261.328L107.237 255.037L116.827 249.791L124.438 246.101L137.663 239.691L149.789 237.256L156.256 235.956L175.434 240.461L195.126 253.591L215.348 278.304L235.534 294.346L255.775 302.266L276.291 310.305L297.1 318.445L317.643 309.71L337.884 301.094L357.832 292.615L377.487 284.246L392.325 284.494" stroke="#10E80C" stroke-linecap="round" stroke-linejoin="round"/>
<path d="M420.113 251.402L420.461 251.128L439.694 231.231L461.712 219.694L484.133 209.86L506.856 207.452L526.053 202.269L544.838 201.848L563.403 197.874L581.638 195.393L598.985 210.675L615.993 224.977L616.497 225.38L620.49 229.152L624.804 233.163L625.829 234.115L626.022 234.298L636.151 243.702L637.873 245.304L660.102 262.518L677.091 262.335L693.852 260.971L716.566 269.486L733.226 263.48L756.233 270.988" stroke="#10E80C" stroke-linecap="round" stroke-linejoin="round"/>
<path d="M501.535 416.776L480.598 427.178L456.547 416.446L432.844 404.552L409.498 388.895L386.454 364.768L363.639 342.92L341.017 313.254" stroke="#10E80C" stroke-linecap="round" stroke-linejoin="round"/>
<path d="M15.9243 273.424L37.6857 265.338L56.0034 270.851L77.4442 262.106L83.544 259.552L98.5736 253.261L106.743 249.928L119.428 244.764L137.664 239.691L144.807 236.697L150.046 234.5L158.271 231.048L166.111 228.411L176.827 224.794L196.097 231.799L216.53 225.609L236.726 221.772L256.362 235.544L276.273 253.051L296.368 269.532L316.581 277.123L337.07 284.814L357.833 292.615L368.787 296.726" stroke="#10E80C" stroke-linecap="round" stroke-linejoin="round"/>
<path d="M433.219 269.605L446.975 262.253L467.134 246.724L490.324 235.351L510.18 224.446" stroke="#10E80C" stroke-linecap="round" stroke-linejoin="round"/>
<path d="M522.133 406.539L501.535 416.776L477.53 405.303L453.909 389.911L430.646 368.54L407.639 344.092L384.861 312.485L362.302 300.105L359.509 301.625L359.417 301.671L359.298 301.735L357.824 302.532L340.211 312.082L333.223 315.717L318.963 323.161L314.86 325.395L297.439 336.996L295.882 338.525L275.733 358.367L254.036 356.087L232.696 353.45L210.669 368.879L189.576 361.746L168.776 354.229L148.269 346.72L128.019 338.177L108.053 329.763L88.3249 320.753L68.8807 312.054L46.4873 322.071" stroke="#10E80C" stroke-linecap="round" stroke-linejoin="round"/>
<path d="M37.6855 265.338L59.1355 257.363L80.2925 249.498L101.147 241.742L121.727 234.088L142.014 226.543L162.026 219.108L181.772 211.764L201.253 204.522L220.478 197.371L238.914 203.167L257.589 209.567L276.484 214.905L295.543 213.037L315.079 229.601L334.02 223.988L352.685 216.581L371.104 209.274L389.275 200.722L407.208 194.477L424.903 187.042L442.36 180.642L459.587 174.168L479.096 180.532L480.121 180.871" stroke="#10E80C" stroke-linecap="round" stroke-linejoin="round"/>
<path d="M217.4 211.792L219.653 212.955L236.726 221.772L256.646 219.694L265.97 218.33L276.246 216.837L295.727 225.133L315.079 229.601L334.753 238.583L354.664 245.762L374.832 253.041L391.253 258.966" stroke="#10E80C" stroke-linecap="round" stroke-linejoin="round"/>
<path d="M571.298 242.612L552.156 252.465L532.657 265.284L512.864 279.1L492.706 298.604L472.144 329.332L451.5 350.768L430.645 368.54L409.498 388.895L388.094 404.268L366.369 418.232L343.288 406.695L320.51 392.466L297.989 375.719L275.733 358.367" stroke="#10E80C" stroke-linecap="round" stroke-linejoin="round"/>
<path d="M316.068 260.669L335.503 253.582L355.689 260.953L376.141 268.433L392.032 274.092" stroke="#10E80C" stroke-linecap="round" stroke-linejoin="round"/>
<path d="M220.478 197.371L239.445 190.32L257.891 196.812L276.603 189.844L295.269 196.4L313.724 189.368L332.618 195.924L351.733 201.958L371.104 209.274L390.713 216.077L410.597 216.736L430.874 205.053L434.803 203.331L444.915 198.9L449.055 197.087L453.194 196.354" stroke="#10E80C" stroke-linecap="round" stroke-linejoin="round"/>
<path d="M225.698 212.872L237.458 214.402L257.177 217.121L276.246 216.837L280.404 216.013L295.544 213.037L314.576 212.433L333.305 209.768L352.686 216.581L372.313 223.475L392.197 230.462L410.597 216.736L428.777 204.861L444.439 198.854L449.055 197.087" stroke="#10E80C" stroke-linecap="round" stroke-linejoin="round"/>
<path d="M239.445 190.32L258.166 183.361L276.603 189.844L295.067 182.894L313.723 189.368L331.94 182.418L349.91 175.56L368.777 181.942L387.873 188.406L407.208 194.477L426.808 197.389L444.438 198.854" stroke="#10E80C" stroke-linecap="round" stroke-linejoin="round"/>
<path d="M258.166 183.361L276.639 176.494L295.067 182.894L313.293 176.027L331.281 169.261L349.91 175.56L367.66 168.794L386.5 175.093L404.002 168.336L421.276 161.661L440.317 167.878L459.587 174.168" stroke="#10E80C" stroke-linecap="round" stroke-linejoin="round"/>
<path d="M276.64 176.494L294.866 169.718L313.293 176.027L331.941 182.418L350.817 188.892L369.922 195.439L389.275 200.722L408.884 204.412L428.777 204.861" stroke="#10E80C" stroke-linecap="round" stroke-linejoin="round"/>
<path d="M536.119 174.196L555.425 174.049" stroke="#10E80C" stroke-linecap="round" stroke-linejoin="round"/>
<path d="M294.866 169.718L312.872 163.025L331.281 169.261L349.031 162.567L367.66 168.794L385.172 162.119L404.002 168.336L423.062 174.58L440.317 167.878" stroke="#10E80C" stroke-linecap="round" stroke-linejoin="round"/>
<path d="M312.872 163.025L330.64 156.414L349.031 162.567L366.561 155.965L383.871 149.455L402.464 155.526L421.276 161.661" stroke="#10E80C" stroke-linecap="round" stroke-linejoin="round"/>
<path d="M201.253 204.522L219.653 208.99L238.282 212.698L248.531 215.097" stroke="#10E80C" stroke-linecap="round" stroke-linejoin="round"/>
<path d="M59.1353 257.363L77.4438 262.106L95.7614 261.328L114.51 264.047L133.853 274.687L153.471 286.426L173.245 295.701L194.539 290.152L215.348 278.304L235.708 259.515L256.243 261.163L276.273 253.051L295.964 241.431L315.564 245.011L334.752 238.584L353.665 230.984L372.313 223.476L390.713 216.077L408.884 204.412L426.808 197.389L444.466 192.527L461.895 186.786L466.987 188.242" stroke="#10E80C" stroke-linecap="round" stroke-linejoin="round"/>
<path d="M330.64 156.414L348.179 149.895L366.561 155.965L385.172 162.119L402.464 155.526" stroke="#10E80C" stroke-linecap="round" stroke-linejoin="round"/>
<path d="M779.542 278.597L762.882 286.874L745.984 295.28L728.83 303.804L711.419 312.448L693.76 321.229L675.837 330.138L652.491 315.085L629.832 289.374L609.261 258.535L607.631 256.09L606.889 254.818L585.704 218.485L585.164 217.991L563.403 197.874L541.073 187.811L522.334 197.023L503.367 204.036L484.133 209.86L464.405 231.249L444.393 259.616L433.219 269.605L426.579 273.158L415.048 277.938L405.88 281.747L395.256 287.332L383.285 293.622L370.811 297.486L362.302 300.105L359.884 301.607L359.756 301.68L359.573 301.799L355.973 304.015L341.017 313.254L338.279 317.667L319.631 347.718L297.989 375.719L276.008 397.135L253.596 410.723L231.505 401.265L209.743 391.953L188.293 382.769L167.155 373.723L146.319 364.804L125.784 356.014L105.534 347.352L85.5771 338.8L65.8948 330.376L46.4872 322.071L27.3361 313.876L8.45971 305.791L-10.1694 297.825L-28.542 289.96" stroke="#10E80C" stroke-linecap="round" stroke-linejoin="round"/>
<path d="M101.147 241.742L119.428 244.764L125.912 242.045L139.99 236.148L160.276 227.953L172.833 223.338L180.316 220.591L196.271 215.033L200.099 213.696L214.405 210.254L219.653 208.99L238.914 203.167L257.891 196.812L276.566 203.533L295.479 210.272L314.172 203.048L333.305 209.768L351.733 201.958L369.922 195.439L387.874 188.406L405.578 181.475L423.062 174.58L442.359 180.642L461.895 186.786L479.096 180.532" stroke="#10E80C" stroke-linecap="round" stroke-linejoin="round"/>
<path d="M348.179 149.895L365.499 143.458L383.871 149.455" stroke="#10E80C" stroke-linecap="round" stroke-linejoin="round"/>
<path d="M181.772 211.764L200.099 213.696L208.91 213.358" stroke="#10E80C" stroke-linecap="round" stroke-linejoin="round"/>
<path d="M121.727 234.088L139.99 236.148L158.271 231.048" stroke="#10E80C" stroke-linecap="round" stroke-linejoin="round"/>
<path d="M162.026 219.108L180.316 220.591L191.279 217.863" stroke="#10E80C" stroke-linecap="round" stroke-linejoin="round"/>
<path d="M142.014 226.543L160.276 227.953L172.018 225.563" stroke="#10E80C" stroke-linecap="round" stroke-linejoin="round"/>
<path d="M292.704 333.847L276.255 327.309L255.437 319.05L234.903 310.891L213.728 319.654L193.477 311.487L173.246 295.701" stroke="#10E80C" stroke-linecap="round" stroke-linejoin="round"/>
<path d="M333.003 315.634L317.644 309.71L296.853 301.68L276.291 310.305L255.437 319.05L234.271 327.922L213.727 319.654L192.241 328.536L170.425 337.555L150.165 329.149L128.019 338.178L105.534 347.352" stroke="#10E80C" stroke-linecap="round" stroke-linejoin="round"/>
<path d="M634.338 237.201L649.322 243.537L671.431 252.51L688.119 248.756" stroke="#10E80C" stroke-linecap="round" stroke-linejoin="round"/>
<path d="M635.583 238.025L649.322 243.537L666 241.532" stroke="#10E80C" stroke-linecap="round" stroke-linejoin="round"/>
<path d="M404.313 250.78L414.187 240.287L432.999 209.182L446.811 200.411" stroke="#10E80C" stroke-linecap="round" stroke-linejoin="round"/>
<path d="M632.066 234.335L644.165 234.408" stroke="#10E80C" stroke-linecap="round" stroke-linejoin="round"/>
<path d="M415.048 277.938L422.128 269.495L444.393 259.616L467.134 246.724L487.21 220.6L506.856 207.452" stroke="#10E80C" stroke-linecap="round" stroke-linejoin="round"/>
<path d="M265.539 216.16L276.484 214.905L295.479 210.272L314.575 212.433L334.02 223.988L353.665 230.984L373.558 238.062L393.708 245.24" stroke="#10E80C" stroke-linecap="round" stroke-linejoin="round"/>
<path d="M396.575 285.666L400.284 280.978L415.469 258.334L420.113 251.402L420.543 250.963L437.029 217.615L438.879 214.795L451.427 199.065L453.424 196.318L454.001 195.842L456.144 194.669L466.814 188.342L466.988 188.242L472.511 185.01L480.122 180.871L493.924 173.372L515.603 169.077L536.119 174.196L537.401 174.516L555.426 174.049L567.066 179.772L577.315 184.817L586.108 194.789L590.751 200.85L598.985 210.675L603.418 216.031L620.81 237.054L624.044 240.808L642.837 262.61L660.102 262.518L682.623 278.707L699.778 273.167L716.566 269.486L739.582 277.874L762.882 286.874" stroke="#10E80C" stroke-linecap="round" stroke-linejoin="round"/>
<path d="M621.442 226.991L622.606 227.376L644.165 234.408L666 241.532L688.119 248.756L710.521 256.072" stroke="#10E80C" stroke-linecap="round" stroke-linejoin="round"/>
<path d="M357.988 302.403L358.922 301.662L359.252 301.726" stroke="#10E80C" stroke-linecap="round" stroke-linejoin="round"/>
<path d="M359.445 301.625L358.923 301.662L337.885 301.094L317.103 293.192L296.606 285.382L276.337 293.769L255.776 302.266L234.903 310.891L214.662 302.852L194.54 290.152L174.308 266.346L154.69 255.477L135.502 249.525L116.827 249.791L98.5735 253.261L80.2925 249.498" stroke="#10E80C" stroke-linecap="round" stroke-linejoin="round"/>
<path d="M420.369 251.302L442.03 242.887L464.405 231.249L487.21 220.6L510.181 224.446L529.634 219.318L548.84 211.462L567.451 214.814L585.704 218.485L603.372 229.51L620.81 237.054L637.873 245.304L654.725 250.78L662.126 254.598L677.091 262.335L699.778 273.167L722.647 285.611L745.984 295.28" stroke="#10E80C" stroke-linecap="round" stroke-linejoin="round"/>
<path d="M586.822 194.688L595.486 203.679L598.911 207.241L621.442 226.991" stroke="#10E80C" stroke-linecap="round" stroke-linejoin="round"/>
<path d="M316.068 260.669L303.814 248.939L295.965 241.431L276.127 226.616L256.646 219.694L237.458 214.401" stroke="#10E80C" stroke-linecap="round" stroke-linejoin="round"/>
<path d="M197.187 215.509L204.495 214.163L208.91 213.358L217.4 211.792L225.698 212.872L238.282 212.698L257.589 209.567L276.566 203.533L295.268 196.4L314.172 203.048L332.618 195.924L350.817 188.892L368.777 181.942L386.5 175.093L405.577 181.475L424.903 187.042L444.466 192.527L456.034 194.651" stroke="#10E80C" stroke-linecap="round" stroke-linejoin="round"/>
<path d="M201.548 357L201.548 153.694" stroke="#5FFF00" stroke-width="2.05578" stroke-linecap="round" stroke-linejoin="round"/>
<circle cx="201.393" cy="153.41" r="5.49663" transform="rotate(-180 201.393 153.41)" fill="#5FFF00" stroke="#5FFF00" stroke-width="2"/>
<circle cx="201.547" cy="153.311" r="9.81818" transform="rotate(90 201.547 153.311)" stroke="#5FFF00"/>
<circle opacity="0.4" cx="201.547" cy="153.311" r="15.8926" transform="rotate(90 201.547 153.311)" stroke="#5FFF00" stroke-width="1.08017"/>
<circle opacity="0.06" cx="202.312" cy="153.311" r="22.7714" transform="rotate(90 202.312 153.311)" stroke="#5FFF00" stroke-width="1.08017"/>
</g>
<defs>
<clipPath id="clip0_567_409">
<rect width="809" height="328" fill="white" transform="translate(-29 143)"/>
</clipPath>
</defs>
</svg>
