<svg width="436" height="604" viewBox="0 0 436 604" fill="none" xmlns="http://www.w3.org/2000/svg" style="">
<g clip-path="url(#clip0_1067_2402)">
<path d="M52.5 57.49L90.59 45L129.93 50.1L170.05 55.3L210.99 60.61L252.78 66.03L295.43 71.56" stroke="#10E80C" stroke-linecap="round" stroke-linejoin="round" class="aYbVNqPJ_0"></path>
<path d="M379 17.96L339.79 13.47L309.8 24.45L270.71 19.84L238.72 31.11L205.2 42.92L165.68 37.96L129.93 50.1L92.4102 62.84" stroke="#10E80C" stroke-linecap="round" stroke-linejoin="round" class="aYbVNqPJ_1"></path>
<path d="M328.58 58.4L286.63 53.14L245.51 47.98L205.2 42.92L170.05 55.3L133.15 68.3" stroke="#10E80C" stroke-linecap="round" stroke-linejoin="round" class="aYbVNqPJ_2"></path>
<path d="M390.23 33.93L349.63 29.1399L309.8 24.45L278.41 35.9399L245.51 47.9799L210.99 60.61L174.74 73.8799" stroke="#10E80C" stroke-linecap="round" stroke-linejoin="round" class="aYbVNqPJ_3"></path>
<path d="M161.58 21.74L199.78 26.38L232.36 15.32L263.5 4.75L301.29 9.07" stroke="#10E80C" stroke-linecap="round" stroke-linejoin="round" class="aYbVNqPJ_4"></path>
<path d="M360.14 45.87L318.87 40.86L278.41 35.94L238.72 31.11L199.78 26.38L165.68 37.96L126.92 33.1L90.5898 45" stroke="#10E80C" stroke-linecap="round" stroke-linejoin="round" class="aYbVNqPJ_5"></path>
<path d="M418.949 22.53L378.999 17.96L349.629 29.14L318.869 40.86L286.629 53.14L252.779 66.03L217.199 79.57" stroke="#10E80C" stroke-linecap="round" stroke-linejoin="round" class="aYbVNqPJ_6"></path>
<path d="M339.79 13.4699L301.29 9.06995L270.71 19.8399L232.36 15.3199L194.71 10.8799L161.58 21.7399L126.92 33.0999" stroke="#10E80C" stroke-linecap="round" stroke-linejoin="round" class="aYbVNqPJ_7"></path>
<path d="M263.501 4.75L226.391 0.5L194.711 10.88" stroke="#10E80C" stroke-linecap="round" stroke-linejoin="round" class="aYbVNqPJ_8"></path>
<path d="M53.3105 101.47L72.4305 104.25L93.0305 107.24L133.561 113.13L174.941 119.15L217.181 125.29L260.321 131.56L295.001 116.64L323.991 104.18L328.001 102.45L359.421 88.94L389.381 76.06L417.991 63.75" stroke="#10E80C" stroke-linecap="round" stroke-linejoin="round" class="aYbVNqPJ_9"></path>
<path d="M52.9102 79.5299L92.7202 85.0999L133.36 90.7799L174.84 96.5699L217.19 102.49L260.45 108.53L295.22 94.1599L328.29 80.4799L359.78 67.4599L389.81 55.0399L418.47 43.1899" stroke="#10E80C" stroke-linecap="round" stroke-linejoin="round" class="aYbVNqPJ_10"></path>
<path d="M52.5 57.49L92.41 62.84L133.15 68.3L174.74 73.88L217.2 79.57L260.57 85.39L295.43 71.56L328.58 58.4L360.14 45.87L390.23 33.93L418.95 22.53" stroke="#10E80C" stroke-linecap="round" stroke-linejoin="round" class="aYbVNqPJ_11"></path>
<path d="M260.57 85.39L260.45 108.53L260.32 131.56" stroke="#10E80C" stroke-linecap="round" stroke-linejoin="round" class="aYbVNqPJ_12"></path>
<path d="M217.18 125.29L217.19 102.49L217.2 79.5699" stroke="#10E80C" stroke-linecap="round" stroke-linejoin="round" class="aYbVNqPJ_13"></path>
<path d="M295 116.64L295.22 94.1601L295.43 71.5601" stroke="#10E80C" stroke-linecap="round" stroke-linejoin="round" class="aYbVNqPJ_14"></path>
<path d="M174.74 73.88L174.84 96.57L174.94 119.15" stroke="#10E80C" stroke-linecap="round" stroke-linejoin="round" class="aYbVNqPJ_15"></path>
<path d="M133.15 68.3L133.36 90.78L133.56 113.13" stroke="#10E80C" stroke-linecap="round" stroke-linejoin="round" class="aYbVNqPJ_16"></path>
<path d="M92.4102 62.84L92.7202 85.1L93.0302 107.24" stroke="#10E80C" stroke-linecap="round" stroke-linejoin="round" class="aYbVNqPJ_17"></path>
<path d="M328 102.45L328.29 80.48L328.58 58.4" stroke="#10E80C" stroke-linecap="round" stroke-linejoin="round" class="aYbVNqPJ_18"></path>
<path d="M53.31 101.47L52.91 79.53L52.5 57.49" stroke="#10E80C" stroke-linecap="round" stroke-linejoin="round" class="aYbVNqPJ_19"></path>
<path d="M360.14 45.87L359.78 67.46L359.42 88.94" stroke="#10E80C" stroke-linecap="round" stroke-linejoin="round" class="aYbVNqPJ_20"></path>
<path d="M390.231 33.9301L389.811 55.0401L389.381 76.0601" stroke="#10E80C" stroke-linecap="round" stroke-linejoin="round" class="aYbVNqPJ_21"></path>
<path d="M418.95 22.53L418.47 43.19L417.99 63.75" stroke="#10E80C" stroke-linecap="round" stroke-linejoin="round" class="aYbVNqPJ_22"></path>
</g>
<g clip-path="url(#clip1_1067_2402)">
<path d="M52.0898 300.49L90.1898 288L129.52 293.1L169.64 298.3L210.59 303.61L252.37 309.03L295.02 314.56" stroke="#10E80C" stroke-linecap="round" stroke-linejoin="round" class="aYbVNqPJ_23"></path>
<path d="M378.59 260.96L339.38 256.47L309.39 267.45L270.31 262.84L238.31 274.11L204.79 285.92L165.27 280.96L129.52 293.1L92 305.84" stroke="#10E80C" stroke-linecap="round" stroke-linejoin="round" class="aYbVNqPJ_24"></path>
<path d="M328.17 301.4L286.22 296.14L245.1 290.98L204.79 285.92L169.64 298.3L132.74 311.3" stroke="#10E80C" stroke-linecap="round" stroke-linejoin="round" class="aYbVNqPJ_25"></path>
<path d="M389.82 276.93L349.22 272.14L309.39 267.45L278 278.94L245.1 290.98L210.59 303.61L174.33 316.88" stroke="#10E80C" stroke-linecap="round" stroke-linejoin="round" class="aYbVNqPJ_26"></path>
<path d="M161.18 264.74L199.38 269.38L231.95 258.32L263.09 247.75L300.88 252.07" stroke="#10E80C" stroke-linecap="round" stroke-linejoin="round" class="aYbVNqPJ_27"></path>
<path d="M359.729 288.87L318.469 283.86L277.999 278.94L238.309 274.11L199.379 269.38L165.269 280.96L126.509 276.1L90.1895 288" stroke="#10E80C" stroke-linecap="round" stroke-linejoin="round" class="aYbVNqPJ_28"></path>
<path d="M418.549 265.53L378.589 260.96L349.219 272.14L318.469 283.86L286.219 296.14L252.369 309.03L216.789 322.57" stroke="#10E80C" stroke-linecap="round" stroke-linejoin="round" class="aYbVNqPJ_29"></path>
<path d="M339.38 256.47L300.88 252.07L270.31 262.84L231.95 258.32L194.3 253.88L161.18 264.74L126.51 276.1" stroke="#10E80C" stroke-linecap="round" stroke-linejoin="round" class="aYbVNqPJ_30"></path>
<path d="M263.091 247.75L225.981 243.5L194.301 253.88" stroke="#10E80C" stroke-linecap="round" stroke-linejoin="round" class="aYbVNqPJ_31"></path>
<path d="M52.9102 344.47L72.0202 347.25L92.6202 350.24L133.16 356.13L174.53 362.15L216.78 368.29L259.92 374.56L294.6 359.64L323.58 347.18L327.59 345.45L359.01 331.94L388.98 319.06L417.58 306.75" stroke="#10E80C" stroke-linecap="round" stroke-linejoin="round" class="aYbVNqPJ_32"></path>
<path d="M52.5 322.53L92.31 328.1L132.95 333.78L174.43 339.57L216.79 345.49L260.04 351.53L294.81 337.16L327.88 323.48L359.37 310.46L389.4 298.04L418.06 286.19" stroke="#10E80C" stroke-linecap="round" stroke-linejoin="round" class="aYbVNqPJ_33"></path>
<path d="M52.0898 300.49L91.9998 305.84L132.74 311.3L174.33 316.88L216.79 322.57L260.17 328.39L295.02 314.56L328.17 301.4L359.73 288.87L389.82 276.93L418.55 265.53" stroke="#10E80C" stroke-linecap="round" stroke-linejoin="round" class="aYbVNqPJ_34"></path>
<path d="M260.17 328.39L260.04 351.53L259.92 374.56" stroke="#10E80C" stroke-linecap="round" stroke-linejoin="round" class="aYbVNqPJ_35"></path>
<path d="M216.779 368.29L216.789 345.49V322.57" stroke="#10E80C" stroke-linecap="round" stroke-linejoin="round" class="aYbVNqPJ_36"></path>
<path d="M294.6 359.64L294.81 337.16L295.02 314.56" stroke="#10E80C" stroke-linecap="round" stroke-linejoin="round" class="aYbVNqPJ_37"></path>
<path d="M174.33 316.88L174.43 339.57L174.53 362.15" stroke="#10E80C" stroke-linecap="round" stroke-linejoin="round" class="aYbVNqPJ_38"></path>
<path d="M132.74 311.3L132.95 333.78L133.16 356.13" stroke="#10E80C" stroke-linecap="round" stroke-linejoin="round" class="aYbVNqPJ_39"></path>
<path d="M92 305.84L92.31 328.1L92.62 350.24" stroke="#10E80C" stroke-linecap="round" stroke-linejoin="round" class="aYbVNqPJ_40"></path>
<path d="M327.59 345.45L327.88 323.48L328.17 301.4" stroke="#10E80C" stroke-linecap="round" stroke-linejoin="round" class="aYbVNqPJ_41"></path>
<path d="M52.9098 344.47L52.4998 322.53L52.0898 300.49" stroke="#10E80C" stroke-linecap="round" stroke-linejoin="round" class="aYbVNqPJ_42"></path>
<path d="M359.73 288.87L359.37 310.46L359.01 331.94" stroke="#10E80C" stroke-linecap="round" stroke-linejoin="round" class="aYbVNqPJ_43"></path>
<path d="M389.82 276.93L389.4 298.04L388.98 319.06" stroke="#10E80C" stroke-linecap="round" stroke-linejoin="round" class="aYbVNqPJ_44"></path>
<path d="M418.55 265.53L418.06 286.19L417.58 306.75" stroke="#10E80C" stroke-linecap="round" stroke-linejoin="round" class="aYbVNqPJ_45"></path>
<path d="M300.24 389.58L249.06 388.15L198.13 386.72L147.43 385.31L96.9605 383.89L46.7305 382.49" stroke="#10E80C" stroke-linecap="round" stroke-linejoin="round" class="aYbVNqPJ_46"></path>
<path d="M300 413.02L248.96 411.53L198.17 410.06L147.6 408.59L97.2797 407.12L47.1797 405.67" stroke="#10E80C" stroke-linecap="round" stroke-linejoin="round" class="aYbVNqPJ_47"></path>
<path d="M299.761 436.32L248.871 434.79L198.211 433.26L147.781 431.74L97.5909 430.23L47.6309 428.72" stroke="#10E80C" stroke-linecap="round" stroke-linejoin="round" class="aYbVNqPJ_48"></path>
<path d="M269.221 370.56L305.561 371.54" stroke="#10E80C" stroke-linecap="round" stroke-linejoin="round" class="aYbVNqPJ_49"></path>
<path d="M161.2 360.21L157.19 367.51L147.43 385.31L147.6 408.59L147.78 431.74" stroke="#10E80C" stroke-linecap="round" stroke-linejoin="round" class="aYbVNqPJ_50"></path>
<path d="M116.111 353.66L108.181 366.18L96.9609 383.89L97.2809 407.12L97.5909 430.23" stroke="#10E80C" stroke-linecap="round" stroke-linejoin="round" class="aYbVNqPJ_51"></path>
<path d="M223.93 369.33L206.42 368.85L157.19 367.51L108.18 366.18L59.3805 364.86L50.9605 376.59L46.7305 382.49L47.1805 405.67L47.6305 428.72" stroke="#10E80C" stroke-linecap="round" stroke-linejoin="round" class="aYbVNqPJ_52"></path>
<path d="M80.3809 348.46L71.3209 348.22L59.3809 364.86" stroke="#10E80C" stroke-linecap="round" stroke-linejoin="round" class="aYbVNqPJ_53"></path>
<path d="M305.56 371.54L300.24 389.58L300 413.02" stroke="#10E80C" stroke-linecap="round" stroke-linejoin="round" class="aYbVNqPJ_54"></path>
<path d="M299.76 436.32L305.08 417.01L305.32 394.34L305.56 371.54L310.59 354.54" stroke="#10E80C" stroke-linecap="round" stroke-linejoin="round" class="aYbVNqPJ_55"></path>
<path d="M319.311 365.31L319.511 348.93" stroke="#10E80C" stroke-linecap="round" stroke-linejoin="round" class="aYbVNqPJ_56"></path>
<path d="M254.519 373.77L249.059 388.15L248.959 411.53L248.869 434.79" stroke="#10E80C" stroke-linecap="round" stroke-linejoin="round" class="aYbVNqPJ_57"></path>
<path d="M305.08 417.01L307.61 407.83L310.09 398.8L314.83 381.59L315.08 360.09L318.08 349.54" stroke="#10E80C" stroke-linecap="round" stroke-linejoin="round" class="aYbVNqPJ_58"></path>
<path d="M315.19 350.79L315.08 360.09L310.34 376.72L310.09 398.8" stroke="#10E80C" stroke-linecap="round" stroke-linejoin="round" class="aYbVNqPJ_59"></path>
<path d="M306.711 354.43L310.591 354.54" stroke="#10E80C" stroke-linecap="round" stroke-linejoin="round" class="aYbVNqPJ_60"></path>
<path d="M314.83 381.59L319.31 365.31L323.55 349.88L323.58 347.18" stroke="#10E80C" stroke-linecap="round" stroke-linejoin="round" class="aYbVNqPJ_61"></path>
<path d="M207.321 366.91L206.421 368.85L198.131 386.72L198.171 410.06L198.211 433.26" stroke="#10E80C" stroke-linecap="round" stroke-linejoin="round" class="aYbVNqPJ_62"></path>
<path d="M311.19 352.51L310.59 354.54L310.34 376.72L305.32 394.34L300 413.02L299.76 436.32" stroke="#10E80C" stroke-linecap="round" stroke-linejoin="round" class="aYbVNqPJ_63"></path>
<path d="M71.3203 348.22L72.0203 347.25" stroke="#10E80C" stroke-linecap="round" stroke-linejoin="round" class="aYbVNqPJ_64"></path>
<path d="M91.9707 449.83L112.221 470.25L163.671 465.5" stroke="#10E80C" stroke-linecap="round" stroke-linejoin="round" class="aYbVNqPJ_65"></path>
<path d="M126.77 431.11L142.05 445.36L163.67 465.5L214.42 460.81" stroke="#10E80C" stroke-linecap="round" stroke-linejoin="round" class="aYbVNqPJ_66"></path>
<path d="M182.039 432.78L191.469 440.94L214.419 460.81L264.479 456.19" stroke="#10E80C" stroke-linecap="round" stroke-linejoin="round" class="aYbVNqPJ_67"></path>
<path d="M71.7695 429.45L72.8895 430.58L91.9695 449.83L142.05 445.36L191.47 440.94L240.23 436.58L264.48 456.19L313.86 451.63L362.59 447.13" stroke="#10E80C" stroke-linecap="round" stroke-linejoin="round" class="aYbVNqPJ_68"></path>
<path d="M49.5 428.78L55.27 434.81L73.26 453.58L92.31 473.45L112.51 494.53L163.81 489.62L214.41 484.78L264.33 480.01L313.59 475.3L362.18 470.66" stroke="#10E80C" stroke-linecap="round" stroke-linejoin="round" class="aYbVNqPJ_69"></path>
<path d="M21.6602 378.91L37.8102 395.2L38.2602 417.05L38.7002 438.78L54.3802 455.69L55.6902 457.09L73.6402 476.45L92.6402 496.94L97.7001 502.39L112.79 518.67L163.95 513.61L214.41 508.62L264.19 503.7L313.31 498.85L361.77 494.06" stroke="#10E80C" stroke-linecap="round" stroke-linejoin="round" class="aYbVNqPJ_70"></path>
<path d="M335.869 428.03L301.189 431.13" stroke="#10E80C" stroke-linecap="round" stroke-linejoin="round" class="aYbVNqPJ_71"></path>
<path d="M21.6602 378.91L50.9602 376.59" stroke="#10E80C" stroke-linecap="round" stroke-linejoin="round" class="aYbVNqPJ_72"></path>
<path d="M313.309 498.85L313.589 475.3L313.859 451.63L293.449 436.13" stroke="#10E80C" stroke-linecap="round" stroke-linejoin="round" class="aYbVNqPJ_73"></path>
<path d="M112.791 518.67L112.511 494.53L112.221 470.25" stroke="#10E80C" stroke-linecap="round" stroke-linejoin="round" class="aYbVNqPJ_74"></path>
<path d="M163.67 465.5L163.81 489.62L163.95 513.61" stroke="#10E80C" stroke-linecap="round" stroke-linejoin="round" class="aYbVNqPJ_75"></path>
<path d="M214.42 460.81L214.41 484.78V508.62" stroke="#10E80C" stroke-linecap="round" stroke-linejoin="round" class="aYbVNqPJ_76"></path>
<path d="M264.189 503.7L264.329 480.01L264.479 456.19" stroke="#10E80C" stroke-linecap="round" stroke-linejoin="round" class="aYbVNqPJ_77"></path>
<path d="M22.1309 400.22L22.6009 421.43L38.7009 438.78" stroke="#10E80C" stroke-linecap="round" stroke-linejoin="round" class="aYbVNqPJ_78"></path>
<path d="M92.6407 496.94L92.3107 473.45L91.9707 449.83" stroke="#10E80C" stroke-linecap="round" stroke-linejoin="round" class="aYbVNqPJ_79"></path>
<path d="M72.8906 430.58L73.2606 453.58L73.6406 476.45" stroke="#10E80C" stroke-linecap="round" stroke-linejoin="round" class="aYbVNqPJ_80"></path>
<path d="M55.6899 457.09L55.2699 434.81L55.1699 428.95" stroke="#10E80C" stroke-linecap="round" stroke-linejoin="round" class="aYbVNqPJ_81"></path>
<path d="M237.6 434.45L240.23 436.58L257.37 435.05" stroke="#10E80C" stroke-linecap="round" stroke-linejoin="round" class="aYbVNqPJ_82"></path>
<path d="M21.6602 378.91L22.1302 400.22L38.2602 417.05L47.5902 426.78" stroke="#10E80C" stroke-linecap="round" stroke-linejoin="round" class="aYbVNqPJ_83"></path>
<path d="M47.1605 404.63L37.8105 395.2" stroke="#10E80C" stroke-linecap="round" stroke-linejoin="round" class="aYbVNqPJ_84"></path>
<path d="M72.8906 430.58L82.2706 429.77" stroke="#10E80C" stroke-linecap="round" stroke-linejoin="round" class="aYbVNqPJ_85"></path>
<path d="M37.8105 395.2L46.9605 394.46" stroke="#10E80C" stroke-linecap="round" stroke-linejoin="round" class="aYbVNqPJ_86"></path>
<path d="M361.77 494.06L362.1 475.75L362.18 470.66L362.59 447.13L335.87 428.03L310.62 409.99L306.92 410.31" stroke="#10E80C" stroke-linecap="round" stroke-linejoin="round" class="aYbVNqPJ_87"></path>
<path d="M307.6 407.83L310.62 409.99" stroke="#10E80C" stroke-linecap="round" stroke-linejoin="round" class="aYbVNqPJ_88"></path>
<path d="M434.63 497.23L380.54 481.21L361.91 486.52" stroke="#10E80C" stroke-linecap="round" stroke-linejoin="round" class="aYbVNqPJ_89"></path>
<path d="M355.811 494.65L399.041 507.83" stroke="#10E80C" stroke-linecap="round" stroke-linejoin="round" class="aYbVNqPJ_90"></path>
<path d="M191.84 534.97L245.54 553.55L285.69 541.59" stroke="#10E80C" stroke-linecap="round" stroke-linejoin="round" class="aYbVNqPJ_91"></path>
<path d="M193.391 510.7L231.851 523.57L285.691 541.59L324.621 530" stroke="#10E80C" stroke-linecap="round" stroke-linejoin="round" class="aYbVNqPJ_92"></path>
<path d="M65.79 467.99L39.69 459.25L0.5 468.76" stroke="#10E80C" stroke-linecap="round" stroke-linejoin="round" class="aYbVNqPJ_93"></path>
<path d="M1.61914 513.68L46.0291 530.04L92.4691 547.14L141.059 565.04L191.959 583.79L245.349 603.45L285.269 590.8L323.979 578.52L361.549 566.62L398.009 555.06L433.419 543.83" stroke="#10E80C" stroke-linecap="round" stroke-linejoin="round" class="aYbVNqPJ_94"></path>
<path d="M1.06055 491.28L45.5805 507.18L92.1305 523.81L140.851 541.21L191.901 559.45L245.441 578.58L285.481 566.27L324.301 554.33L361.961 542.75L398.521 531.51L434.031 520.59" stroke="#10E80C" stroke-linecap="round" stroke-linejoin="round" class="aYbVNqPJ_95"></path>
<path d="M137.631 516.21L140.651 517.26L191.841 534.97L231.851 523.57L270.671 512.51L324.621 530L362.391 518.75L399.041 507.83L434.631 497.23" stroke="#10E80C" stroke-linecap="round" stroke-linejoin="round" class="aYbVNqPJ_96"></path>
<path d="M45.1309 484.2L74.0709 476.91" stroke="#10E80C" stroke-linecap="round" stroke-linejoin="round" class="aYbVNqPJ_97"></path>
<path d="M245.54 553.55L245.44 578.58L245.35 603.45" stroke="#10E80C" stroke-linecap="round" stroke-linejoin="round" class="aYbVNqPJ_98"></path>
<path d="M285.27 590.8L285.48 566.27L285.69 541.59" stroke="#10E80C" stroke-linecap="round" stroke-linejoin="round" class="aYbVNqPJ_99"></path>
<path d="M191.96 583.79L191.9 559.45L191.84 534.97" stroke="#10E80C" stroke-linecap="round" stroke-linejoin="round" class="aYbVNqPJ_100"></path>
<path d="M323.98 578.52L324.3 554.33L324.62 530" stroke="#10E80C" stroke-linecap="round" stroke-linejoin="round" class="aYbVNqPJ_101"></path>
<path d="M362.391 518.75L361.961 542.75L361.551 566.62" stroke="#10E80C" stroke-linecap="round" stroke-linejoin="round" class="aYbVNqPJ_102"></path>
<path d="M141.06 565.04L140.85 541.21L140.65 517.26" stroke="#10E80C" stroke-linecap="round" stroke-linejoin="round" class="aYbVNqPJ_103"></path>
<path d="M399.04 507.83L398.52 531.51L398.01 555.06" stroke="#10E80C" stroke-linecap="round" stroke-linejoin="round" class="aYbVNqPJ_104"></path>
<path d="M362.39 518.75L308.37 501.77L270.67 512.51L248.33 505.27" stroke="#10E80C" stroke-linecap="round" stroke-linejoin="round" class="aYbVNqPJ_105"></path>
<path d="M433.42 543.83L434.03 520.59L434.63 497.23" stroke="#10E80C" stroke-linecap="round" stroke-linejoin="round" class="aYbVNqPJ_106"></path>
<path d="M92.4708 547.14L92.1308 523.81L91.8008 500.35" stroke="#10E80C" stroke-linecap="round" stroke-linejoin="round" class="aYbVNqPJ_107"></path>
<path d="M46.0309 530.04L45.5809 507.18L45.1309 484.2" stroke="#10E80C" stroke-linecap="round" stroke-linejoin="round" class="aYbVNqPJ_108"></path>
<path d="M1.62 513.68L1.06 491.28L0.5 468.76" stroke="#10E80C" stroke-linecap="round" stroke-linejoin="round" class="aYbVNqPJ_109"></path>
<path d="M362.09 475.75L380.54 481.21" stroke="#10E80C" stroke-linecap="round" stroke-linejoin="round" class="aYbVNqPJ_110"></path>
<path d="M39.6895 459.25L54.3795 455.69" stroke="#10E80C" stroke-linecap="round" stroke-linejoin="round" class="aYbVNqPJ_111"></path>
<path d="M302.461 499.92L308.371 501.77L321.461 498.04" stroke="#10E80C" stroke-linecap="round" stroke-linejoin="round" class="aYbVNqPJ_112"></path>
<path d="M148.37 515.15L140.65 517.26" stroke="#10E80C" stroke-linecap="round" stroke-linejoin="round" class="aYbVNqPJ_113"></path>
<path d="M0.5 468.76L45.13 484.2L91.8 500.35L97.7 502.39" stroke="#10E80C" stroke-linecap="round" stroke-linejoin="round" class="aYbVNqPJ_114"></path>
<path d="M91.8008 500.35L95.0208 499.51" stroke="#10E80C" stroke-linecap="round" stroke-linejoin="round" class="aYbVNqPJ_115"></path>
</g>
<defs>
<clipPath id="clip0_1067_2402">
<path width="367.45" height="132.06" fill="white" transform="translate(52)" d="M0 0 L367.45 0 L367.45 132.06 L0 132.06 Z" class="aYbVNqPJ_116"></path>
</clipPath>
<clipPath id="clip1_1067_2402">
<path width="435.13" height="360.95" fill="white" transform="translate(0 243)" d="M0 0 L435.13 0 L435.13 360.95 L0 360.95 Z" class="aYbVNqPJ_117"></path>
</clipPath>
</defs>
<style data-made-with="vivus-instant">.aYbVNqPJ_0{stroke-dasharray:247 249;stroke-dashoffset:248;animation:aYbVNqPJ_draw 1333ms linear 0ms forwards;}.aYbVNqPJ_1{stroke-dasharray:298 300;stroke-dashoffset:299;animation:aYbVNqPJ_draw 1333ms linear 5ms forwards;}.aYbVNqPJ_2{stroke-dasharray:201 203;stroke-dashoffset:202;animation:aYbVNqPJ_draw 1333ms linear 11ms forwards;}.aYbVNqPJ_3{stroke-dasharray:225 227;stroke-dashoffset:226;animation:aYbVNqPJ_draw 1333ms linear 17ms forwards;}.aYbVNqPJ_4{stroke-dasharray:144 146;stroke-dashoffset:145;animation:aYbVNqPJ_draw 1333ms linear 22ms forwards;}.aYbVNqPJ_5{stroke-dasharray:275 277;stroke-dashoffset:276;animation:aYbVNqPJ_draw 1333ms linear 28ms forwards;}.aYbVNqPJ_6{stroke-dasharray:214 216;stroke-dashoffset:215;animation:aYbVNqPJ_draw 1333ms linear 34ms forwards;}.aYbVNqPJ_7{stroke-dasharray:220 222;stroke-dashoffset:221;animation:aYbVNqPJ_draw 1333ms linear 39ms forwards;}.aYbVNqPJ_8{stroke-dasharray:71 73;stroke-dashoffset:72;animation:aYbVNqPJ_draw 1333ms linear 45ms forwards;}.aYbVNqPJ_9{stroke-dasharray:381 383;stroke-dashoffset:382;animation:aYbVNqPJ_draw 1333ms linear 51ms forwards;}.aYbVNqPJ_10{stroke-dasharray:381 383;stroke-dashoffset:382;animation:aYbVNqPJ_draw 1333ms linear 56ms forwards;}.aYbVNqPJ_11{stroke-dasharray:381 383;stroke-dashoffset:382;animation:aYbVNqPJ_draw 1333ms linear 62ms forwards;}.aYbVNqPJ_12{stroke-dasharray:47 49;stroke-dashoffset:48;animation:aYbVNqPJ_draw 1333ms linear 68ms forwards;}.aYbVNqPJ_13{stroke-dasharray:46 48;stroke-dashoffset:47;animation:aYbVNqPJ_draw 1333ms linear 74ms forwards;}.aYbVNqPJ_14{stroke-dasharray:46 48;stroke-dashoffset:47;animation:aYbVNqPJ_draw 1333ms linear 79ms forwards;}.aYbVNqPJ_15{stroke-dasharray:46 48;stroke-dashoffset:47;animation:aYbVNqPJ_draw 1333ms linear 85ms forwards;}.aYbVNqPJ_16{stroke-dasharray:45 47;stroke-dashoffset:46;animation:aYbVNqPJ_draw 1333ms linear 91ms forwards;}.aYbVNqPJ_17{stroke-dasharray:45 47;stroke-dashoffset:46;animation:aYbVNqPJ_draw 1333ms linear 96ms forwards;}.aYbVNqPJ_18{stroke-dasharray:45 47;stroke-dashoffset:46;animation:aYbVNqPJ_draw 1333ms linear 102ms forwards;}.aYbVNqPJ_19{stroke-dasharray:44 46;stroke-dashoffset:45;animation:aYbVNqPJ_draw 1333ms linear 108ms forwards;}.aYbVNqPJ_20{stroke-dasharray:44 46;stroke-dashoffset:45;animation:aYbVNqPJ_draw 1333ms linear 113ms forwards;}.aYbVNqPJ_21{stroke-dasharray:43 45;stroke-dashoffset:44;animation:aYbVNqPJ_draw 1333ms linear 119ms forwards;}.aYbVNqPJ_22{stroke-dasharray:42 44;stroke-dashoffset:43;animation:aYbVNqPJ_draw 1333ms linear 125ms forwards;}.aYbVNqPJ_23{stroke-dasharray:247 249;stroke-dashoffset:248;animation:aYbVNqPJ_draw 1333ms linear 131ms forwards;}.aYbVNqPJ_24{stroke-dasharray:298 300;stroke-dashoffset:299;animation:aYbVNqPJ_draw 1333ms linear 136ms forwards;}.aYbVNqPJ_25{stroke-dasharray:201 203;stroke-dashoffset:202;animation:aYbVNqPJ_draw 1333ms linear 142ms forwards;}.aYbVNqPJ_26{stroke-dasharray:225 227;stroke-dashoffset:226;animation:aYbVNqPJ_draw 1333ms linear 148ms forwards;}.aYbVNqPJ_27{stroke-dasharray:144 146;stroke-dashoffset:145;animation:aYbVNqPJ_draw 1333ms linear 153ms forwards;}.aYbVNqPJ_28{stroke-dasharray:275 277;stroke-dashoffset:276;animation:aYbVNqPJ_draw 1333ms linear 159ms forwards;}.aYbVNqPJ_29{stroke-dasharray:214 216;stroke-dashoffset:215;animation:aYbVNqPJ_draw 1333ms linear 165ms forwards;}.aYbVNqPJ_30{stroke-dasharray:220 222;stroke-dashoffset:221;animation:aYbVNqPJ_draw 1333ms linear 170ms forwards;}.aYbVNqPJ_31{stroke-dasharray:71 73;stroke-dashoffset:72;animation:aYbVNqPJ_draw 1333ms linear 176ms forwards;}.aYbVNqPJ_32{stroke-dasharray:381 383;stroke-dashoffset:382;animation:aYbVNqPJ_draw 1333ms linear 182ms forwards;}.aYbVNqPJ_33{stroke-dasharray:381 383;stroke-dashoffset:382;animation:aYbVNqPJ_draw 1333ms linear 188ms forwards;}.aYbVNqPJ_34{stroke-dasharray:381 383;stroke-dashoffset:382;animation:aYbVNqPJ_draw 1333ms linear 193ms forwards;}.aYbVNqPJ_35{stroke-dasharray:47 49;stroke-dashoffset:48;animation:aYbVNqPJ_draw 1333ms linear 199ms forwards;}.aYbVNqPJ_36{stroke-dasharray:46 48;stroke-dashoffset:47;animation:aYbVNqPJ_draw 1333ms linear 205ms forwards;}.aYbVNqPJ_37{stroke-dasharray:46 48;stroke-dashoffset:47;animation:aYbVNqPJ_draw 1333ms linear 210ms forwards;}.aYbVNqPJ_38{stroke-dasharray:46 48;stroke-dashoffset:47;animation:aYbVNqPJ_draw 1333ms linear 216ms forwards;}.aYbVNqPJ_39{stroke-dasharray:45 47;stroke-dashoffset:46;animation:aYbVNqPJ_draw 1333ms linear 222ms forwards;}.aYbVNqPJ_40{stroke-dasharray:45 47;stroke-dashoffset:46;animation:aYbVNqPJ_draw 1333ms linear 227ms forwards;}.aYbVNqPJ_41{stroke-dasharray:45 47;stroke-dashoffset:46;animation:aYbVNqPJ_draw 1333ms linear 233ms forwards;}.aYbVNqPJ_42{stroke-dasharray:44 46;stroke-dashoffset:45;animation:aYbVNqPJ_draw 1333ms linear 239ms forwards;}.aYbVNqPJ_43{stroke-dasharray:44 46;stroke-dashoffset:45;animation:aYbVNqPJ_draw 1333ms linear 245ms forwards;}.aYbVNqPJ_44{stroke-dasharray:43 45;stroke-dashoffset:44;animation:aYbVNqPJ_draw 1333ms linear 250ms forwards;}.aYbVNqPJ_45{stroke-dasharray:42 44;stroke-dashoffset:43;animation:aYbVNqPJ_draw 1333ms linear 256ms forwards;}.aYbVNqPJ_46{stroke-dasharray:254 256;stroke-dashoffset:255;animation:aYbVNqPJ_draw 1333ms linear 262ms forwards;}.aYbVNqPJ_47{stroke-dasharray:253 255;stroke-dashoffset:254;animation:aYbVNqPJ_draw 1333ms linear 267ms forwards;}.aYbVNqPJ_48{stroke-dasharray:253 255;stroke-dashoffset:254;animation:aYbVNqPJ_draw 1333ms linear 273ms forwards;}.aYbVNqPJ_49{stroke-dasharray:37 39;stroke-dashoffset:38;animation:aYbVNqPJ_draw 1333ms linear 279ms forwards;}.aYbVNqPJ_50{stroke-dasharray:76 78;stroke-dashoffset:77;animation:aYbVNqPJ_draw 1333ms linear 284ms forwards;}.aYbVNqPJ_51{stroke-dasharray:83 85;stroke-dashoffset:84;animation:aYbVNqPJ_draw 1333ms linear 290ms forwards;}.aYbVNqPJ_52{stroke-dasharray:233 235;stroke-dashoffset:234;animation:aYbVNqPJ_draw 1333ms linear 296ms forwards;}.aYbVNqPJ_53{stroke-dasharray:30 32;stroke-dashoffset:31;animation:aYbVNqPJ_draw 1333ms linear 301ms forwards;}.aYbVNqPJ_54{stroke-dasharray:43 45;stroke-dashoffset:44;animation:aYbVNqPJ_draw 1333ms linear 307ms forwards;}.aYbVNqPJ_55{stroke-dasharray:84 86;stroke-dashoffset:85;animation:aYbVNqPJ_draw 1333ms linear 313ms forwards;}.aYbVNqPJ_56{stroke-dasharray:17 19;stroke-dashoffset:18;animation:aYbVNqPJ_draw 1333ms linear 319ms forwards;}.aYbVNqPJ_57{stroke-dasharray:63 65;stroke-dashoffset:64;animation:aYbVNqPJ_draw 1333ms linear 324ms forwards;}.aYbVNqPJ_58{stroke-dasharray:70 72;stroke-dashoffset:71;animation:aYbVNqPJ_draw 1333ms linear 330ms forwards;}.aYbVNqPJ_59{stroke-dasharray:49 51;stroke-dashoffset:50;animation:aYbVNqPJ_draw 1333ms linear 336ms forwards;}.aYbVNqPJ_60{stroke-dasharray:4 6;stroke-dashoffset:5;animation:aYbVNqPJ_draw 1333ms linear 341ms forwards;}.aYbVNqPJ_61{stroke-dasharray:36 38;stroke-dashoffset:37;animation:aYbVNqPJ_draw 1333ms linear 347ms forwards;}.aYbVNqPJ_62{stroke-dasharray:69 71;stroke-dashoffset:70;animation:aYbVNqPJ_draw 1333ms linear 353ms forwards;}.aYbVNqPJ_63{stroke-dasharray:86 88;stroke-dashoffset:87;animation:aYbVNqPJ_draw 1333ms linear 358ms forwards;}.aYbVNqPJ_64{stroke-dasharray:2 4;stroke-dashoffset:3;animation:aYbVNqPJ_draw 1333ms linear 364ms forwards;}.aYbVNqPJ_65{stroke-dasharray:81 83;stroke-dashoffset:82;animation:aYbVNqPJ_draw 1333ms linear 370ms forwards;}.aYbVNqPJ_66{stroke-dasharray:102 104;stroke-dashoffset:103;animation:aYbVNqPJ_draw 1333ms linear 376ms forwards;}.aYbVNqPJ_67{stroke-dasharray:94 96;stroke-dashoffset:95;animation:aYbVNqPJ_draw 1333ms linear 381ms forwards;}.aYbVNqPJ_68{stroke-dasharray:308 310;stroke-dashoffset:309;animation:aYbVNqPJ_draw 1333ms linear 387ms forwards;}.aYbVNqPJ_69{stroke-dasharray:342 344;stroke-dashoffset:343;animation:aYbVNqPJ_draw 1333ms linear 393ms forwards;}.aYbVNqPJ_70{stroke-dasharray:426 428;stroke-dashoffset:427;animation:aYbVNqPJ_draw 1333ms linear 398ms forwards;}.aYbVNqPJ_71{stroke-dasharray:35 37;stroke-dashoffset:36;animation:aYbVNqPJ_draw 1333ms linear 404ms forwards;}.aYbVNqPJ_72{stroke-dasharray:30 32;stroke-dashoffset:31;animation:aYbVNqPJ_draw 1333ms linear 410ms forwards;}.aYbVNqPJ_73{stroke-dasharray:73 75;stroke-dashoffset:74;animation:aYbVNqPJ_draw 1333ms linear 415ms forwards;}.aYbVNqPJ_74{stroke-dasharray:49 51;stroke-dashoffset:50;animation:aYbVNqPJ_draw 1333ms linear 421ms forwards;}.aYbVNqPJ_75{stroke-dasharray:49 51;stroke-dashoffset:50;animation:aYbVNqPJ_draw 1333ms linear 427ms forwards;}.aYbVNqPJ_76{stroke-dasharray:48 50;stroke-dashoffset:49;animation:aYbVNqPJ_draw 1333ms linear 433ms forwards;}.aYbVNqPJ_77{stroke-dasharray:48 50;stroke-dashoffset:49;animation:aYbVNqPJ_draw 1333ms linear 438ms forwards;}.aYbVNqPJ_78{stroke-dasharray:45 47;stroke-dashoffset:46;animation:aYbVNqPJ_draw 1333ms linear 444ms forwards;}.aYbVNqPJ_79{stroke-dasharray:48 50;stroke-dashoffset:49;animation:aYbVNqPJ_draw 1333ms linear 450ms forwards;}.aYbVNqPJ_80{stroke-dasharray:46 48;stroke-dashoffset:47;animation:aYbVNqPJ_draw 1333ms linear 455ms forwards;}.aYbVNqPJ_81{stroke-dasharray:29 31;stroke-dashoffset:30;animation:aYbVNqPJ_draw 1333ms linear 461ms forwards;}.aYbVNqPJ_82{stroke-dasharray:21 23;stroke-dashoffset:22;animation:aYbVNqPJ_draw 1333ms linear 467ms forwards;}.aYbVNqPJ_83{stroke-dasharray:59 61;stroke-dashoffset:60;animation:aYbVNqPJ_draw 1333ms linear 472ms forwards;}.aYbVNqPJ_84{stroke-dasharray:14 16;stroke-dashoffset:15;animation:aYbVNqPJ_draw 1333ms linear 478ms forwards;}.aYbVNqPJ_85{stroke-dasharray:10 12;stroke-dashoffset:11;animation:aYbVNqPJ_draw 1333ms linear 484ms forwards;}.aYbVNqPJ_86{stroke-dasharray:10 12;stroke-dashoffset:11;animation:aYbVNqPJ_draw 1333ms linear 490ms forwards;}.aYbVNqPJ_87{stroke-dasharray:115 117;stroke-dashoffset:116;animation:aYbVNqPJ_draw 1333ms linear 495ms forwards;}.aYbVNqPJ_88{stroke-dasharray:4 6;stroke-dashoffset:5;animation:aYbVNqPJ_draw 1333ms linear 501ms forwards;}.aYbVNqPJ_89{stroke-dasharray:76 78;stroke-dashoffset:77;animation:aYbVNqPJ_draw 1333ms linear 507ms forwards;}.aYbVNqPJ_90{stroke-dasharray:46 48;stroke-dashoffset:47;animation:aYbVNqPJ_draw 1333ms linear 512ms forwards;}.aYbVNqPJ_91{stroke-dasharray:99 101;stroke-dashoffset:100;animation:aYbVNqPJ_draw 1333ms linear 518ms forwards;}.aYbVNqPJ_92{stroke-dasharray:138 140;stroke-dashoffset:139;animation:aYbVNqPJ_draw 1333ms linear 524ms forwards;}.aYbVNqPJ_93{stroke-dasharray:68 70;stroke-dashoffset:69;animation:aYbVNqPJ_draw 1333ms linear 529ms forwards;}.aYbVNqPJ_94{stroke-dasharray:458 460;stroke-dashoffset:459;animation:aYbVNqPJ_draw 1333ms linear 535ms forwards;}.aYbVNqPJ_95{stroke-dasharray:457 459;stroke-dashoffset:458;animation:aYbVNqPJ_draw 1333ms linear 541ms forwards;}.aYbVNqPJ_96{stroke-dasharray:311 313;stroke-dashoffset:312;animation:aYbVNqPJ_draw 1333ms linear 547ms forwards;}.aYbVNqPJ_97{stroke-dasharray:30 32;stroke-dashoffset:31;animation:aYbVNqPJ_draw 1333ms linear 552ms forwards;}.aYbVNqPJ_98{stroke-dasharray:50 52;stroke-dashoffset:51;animation:aYbVNqPJ_draw 1333ms linear 558ms forwards;}.aYbVNqPJ_99{stroke-dasharray:50 52;stroke-dashoffset:51;animation:aYbVNqPJ_draw 1333ms linear 564ms forwards;}.aYbVNqPJ_100{stroke-dasharray:49 51;stroke-dashoffset:50;animation:aYbVNqPJ_draw 1333ms linear 569ms forwards;}.aYbVNqPJ_101{stroke-dasharray:49 51;stroke-dashoffset:50;animation:aYbVNqPJ_draw 1333ms linear 575ms forwards;}.aYbVNqPJ_102{stroke-dasharray:48 50;stroke-dashoffset:49;animation:aYbVNqPJ_draw 1333ms linear 581ms forwards;}.aYbVNqPJ_103{stroke-dasharray:48 50;stroke-dashoffset:49;animation:aYbVNqPJ_draw 1333ms linear 586ms forwards;}.aYbVNqPJ_104{stroke-dasharray:48 50;stroke-dashoffset:49;animation:aYbVNqPJ_draw 1333ms linear 592ms forwards;}.aYbVNqPJ_105{stroke-dasharray:120 122;stroke-dashoffset:121;animation:aYbVNqPJ_draw 1333ms linear 598ms forwards;}.aYbVNqPJ_106{stroke-dasharray:47 49;stroke-dashoffset:48;animation:aYbVNqPJ_draw 1333ms linear 603ms forwards;}.aYbVNqPJ_107{stroke-dasharray:47 49;stroke-dashoffset:48;animation:aYbVNqPJ_draw 1333ms linear 609ms forwards;}.aYbVNqPJ_108{stroke-dasharray:46 48;stroke-dashoffset:47;animation:aYbVNqPJ_draw 1333ms linear 615ms forwards;}.aYbVNqPJ_109{stroke-dasharray:45 47;stroke-dashoffset:46;animation:aYbVNqPJ_draw 1333ms linear 621ms forwards;}.aYbVNqPJ_110{stroke-dasharray:20 22;stroke-dashoffset:21;animation:aYbVNqPJ_draw 1333ms linear 626ms forwards;}.aYbVNqPJ_111{stroke-dasharray:16 18;stroke-dashoffset:17;animation:aYbVNqPJ_draw 1333ms linear 632ms forwards;}.aYbVNqPJ_112{stroke-dasharray:20 22;stroke-dashoffset:21;animation:aYbVNqPJ_draw 1333ms linear 638ms forwards;}.aYbVNqPJ_113{stroke-dasharray:9 11;stroke-dashoffset:10;animation:aYbVNqPJ_draw 1333ms linear 643ms forwards;}.aYbVNqPJ_114{stroke-dasharray:103 105;stroke-dashoffset:104;animation:aYbVNqPJ_draw 1333ms linear 649ms forwards;}.aYbVNqPJ_115{stroke-dasharray:4 6;stroke-dashoffset:5;animation:aYbVNqPJ_draw 1333ms linear 655ms forwards;}.aYbVNqPJ_116{stroke-dasharray:1000 1002;stroke-dashoffset:1001;animation:aYbVNqPJ_draw 1333ms linear 660ms forwards;}.aYbVNqPJ_117{stroke-dasharray:1593 1595;stroke-dashoffset:1594;animation:aYbVNqPJ_draw 1333ms linear 666ms forwards;}@keyframes aYbVNqPJ_draw{100%{stroke-dashoffset:0;}}@keyframes aYbVNqPJ_fade{0%{stroke-opacity:1;}93.54838709677419%{stroke-opacity:1;}100%{stroke-opacity:0;}}</style></svg>
