<svg width="297" height="360" viewBox="0 0 297 360" fill="none" xmlns="http://www.w3.org/2000/svg">
<path d="M185 83C185 75.8203 190.82 70 198 70H277C284.18 70 290 75.8203 290 83V194H185V83Z" fill="url(#paint0_linear_1629_4100)"/>
<rect x="55" y="189" width="165" height="108" fill="url(#paint1_linear_1629_4100)"/>
<path d="M273.879 152.717H274.379V152.217V144.17V143.67H273.879H201.027H200.527V144.17V152.217V152.717H201.027H273.879ZM281.084 142.886V153.501C281.084 156.766 278.428 159.422 275.163 159.422H199.743C196.478 159.422 193.822 156.766 193.822 153.501V142.886C193.822 139.621 196.478 136.965 199.743 136.965H275.163C278.428 136.965 281.084 139.621 281.084 142.886Z" stroke="white"/>
<path d="M56.0934 189.213H55.5934V189.713V295.87V296.37H56.0934H219.219H219.719V295.87V189.713V189.213H219.219H56.0934ZM226.424 296.127C226.424 299.958 223.306 303.075 219.476 303.075H55.8366C52.0061 303.075 48.8887 299.958 48.8887 296.127V189.457C48.8887 185.626 52.0061 182.509 55.8366 182.509H219.476C223.306 182.509 226.424 185.626 226.424 189.457V296.127Z" stroke="white"/>
<path d="M255.718 237.496H255.218V237.996V245.701V246.201H255.718H272.669H273.169V245.701V237.996V237.496H272.669H255.718ZM273.953 252.905H254.434C251.17 252.905 248.514 250.249 248.514 246.985V236.712C248.514 233.447 251.17 230.791 254.434 230.791H273.953C277.217 230.791 279.873 233.447 279.873 236.712V246.985C279.873 250.249 277.217 252.905 273.953 252.905Z" stroke="white"/>
<path d="M191.085 336.964C191.085 337.013 191.085 337.045 191.086 337.064L191.086 337.08V337.08C191.086 337.082 191.087 337.097 191.089 337.115L191.089 337.133C191.089 337.242 191.089 337.437 191.089 337.776C191.089 338.315 191.089 339.219 191.089 340.714C191.089 342.966 191.089 346.562 191.089 352.282V352.782H191.589H230.415C232.267 352.782 233.767 354.283 233.767 356.135C233.767 357.987 232.267 359.487 230.415 359.487C219.552 359.487 211.394 359.491 205.253 359.494C198.268 359.497 193.893 359.499 191.116 359.493C188.504 359.487 187.318 359.474 186.706 359.448C186.257 359.429 186.149 359.406 185.971 359.368C185.918 359.357 185.86 359.344 185.785 359.33L185.686 359.312L185.589 359.333C185.493 359.353 185.429 359.374 185.39 359.385C185.36 359.394 185.342 359.399 185.304 359.405C185.203 359.421 184.991 359.438 184.415 359.452C183.278 359.478 180.832 359.491 175.304 359.497C169.791 359.502 161.219 359.5 147.836 359.496C134.394 359.492 116.097 359.487 91.1706 359.487C87.3402 359.487 84.2228 356.37 84.2228 352.539V337.044C84.2228 333.214 87.3402 330.096 91.1706 330.096H118.394H118.894V329.596V317.957V317.457H118.394H45.0493C39.2361 317.457 34.5059 312.727 34.5059 306.914V216.298C34.5059 214.446 36.0063 212.945 37.8582 212.945C39.7101 212.945 41.2106 214.446 41.2106 216.298V306.914C41.2106 309.031 42.9322 310.752 45.0493 310.752H45.0908H45.1361H45.1851H45.2377H45.294H45.354H45.4175H45.4847H45.5555H45.6299H45.7079H45.7894H45.8745H45.9631H46.0552H46.1508H46.2499H46.3525H46.4585H46.568H46.6809H46.7972H46.9169H47.0401H47.1665H47.2964H47.4296H47.5661H47.7059H47.8491H47.9955H48.1452H48.2981H48.4543H48.6137H48.7764H48.9422H49.1112H49.2834H49.4587H49.6372H49.8188H50.0036H50.1914H50.3823H50.5763H50.7733H50.9734H51.1765H51.3826H51.5917H51.8038H52.0189H52.2369H52.4578H52.6817H52.9085H53.1382H53.3708H53.6062H53.8445H54.0856H54.3296H54.5764H54.8259H55.0783H55.3334H55.5912H55.8518H56.1152H56.3812H56.6499H56.9213H57.1954H57.4721H57.7515H58.0335H58.3181H58.6053H58.8951H59.1874H59.4823H59.7797H60.0796H60.3821H60.687H60.9945H61.3043H61.6167H61.9314H62.2486H62.5682H62.8902H63.2146H63.5413H63.8704H64.2018H64.5356H64.8716H65.2099H65.5505H65.8934H66.2385H66.5859H66.9354H67.2872H67.6412H67.9973H68.3556H68.7161H69.0787H69.4434H69.8102H70.1791H70.55H70.9231H71.2981H71.6753H72.0544H72.4355H72.8186H73.2037H73.5908H73.9797H74.3707H74.7635H75.1583H75.5549H75.9534H76.3538H76.756H77.16H77.5658H77.9735H78.3829H78.7942H79.2071H79.6218H80.0383H80.4564H80.8763H81.2978H81.721H82.1459H82.5724H83.0006H83.4303H83.8617H84.2946H84.7291H85.1652H85.6028H86.0419H86.4826H86.9247H87.3683H87.8134H88.26H88.708H89.1574H89.6082H90.0604H90.5141H90.969H91.4254H91.883H92.342H92.8023H93.2639H93.7268H94.191H94.6564H95.123H95.5909H96.06H96.5303H97.0017H97.4743H97.9481H98.423H98.8991H99.3762H99.8545H100.334H100.814H101.296H101.778H102.262H102.746H103.232H103.718H104.205H104.694H105.183H105.673H106.165H106.657H107.15H107.643H108.138H108.633H109.13H109.627H110.125H110.623H111.123H111.623H112.124H112.626H113.128H113.631H114.135H114.639H115.144H115.65H116.156H116.663H117.17H117.678H118.187H118.696H119.206H119.716H120.227H120.738H121.25H121.762H122.274H122.787H123.301H123.815H124.329H124.843H125.358H125.874H126.389H126.905H127.421H127.938H128.455H128.972H129.489H130.007H130.524H131.042H131.56H132.079H132.597H133.116H133.634H134.153H134.672H135.191H135.71H136.23H136.749H137.268H137.787H138.306H138.826H139.345H139.864H140.383H140.902H141.421H141.94H142.459H142.977H143.496H144.014H144.532H145.05H145.568H146.085H146.602H147.119H147.636H148.153H148.669H149.185H149.7H150.216H150.73H151.245H151.759H152.273H152.786H153.299H153.812H154.324H154.835H155.346H155.857H156.367H156.877H157.386H157.894H158.402H158.91H159.416H159.923H160.428H160.933H161.437H161.941H162.444H162.946H163.448H163.948H164.448H164.948H165.446H165.944H166.441H166.937H167.433H167.927H168.421H168.913H169.405H169.896H170.387H170.876H171.364H171.851H172.338H172.823H173.307H173.791H174.273H174.754H175.234H175.713H176.192H176.669H177.144H177.619H178.093H178.565H179.036H179.506H179.975H180.443H180.909H181.375H181.839H182.301H182.763H183.223H183.682H184.139H184.595H185.05H185.503H185.955H186.406H186.855H187.303H187.749H188.194H188.637H189.079H189.52H189.959H190.396H190.832H191.266H191.699H192.13H192.559H192.987H193.413H193.838H194.261H194.682H195.102H195.52H195.936H196.35H196.763H197.174H197.583H197.99H198.396H198.8H199.202H199.602H200H200.396H200.791H201.183H201.574H201.962H202.349H202.734H203.117H203.498H203.876H204.253H204.628H205.001H205.371H205.74H206.106H206.471H206.833H207.193H207.551H207.907H208.26H208.612H208.961H209.308H209.653H209.995H210.335H210.673H211.009H211.342H211.674H212.002H212.329H212.653H212.974H213.293H213.61H213.925H214.236H214.546H214.853H215.158H215.46H215.759H216.056H216.351H216.643H216.932H217.219H217.503H217.784H218.063H218.34H218.613H218.884H219.153H219.418H219.681H219.941H220.199H220.453H220.705H220.954H221.201H221.444H221.685H221.923H222.158H222.39H222.619H222.845H223.069H223.289H223.507H223.721H223.933H224.141H224.347H224.55H224.749H224.946H225.139H225.33H225.517H225.701H225.882H226.06H226.235H226.407H226.575H226.741H226.903H227.062H227.217H227.37H227.519H227.665H227.807H227.947H228.083H228.215H228.345H228.471H228.593H228.712H228.828H228.941H229.049H229.155H229.257H229.355H229.451H229.542H229.63H229.715H229.796H229.873H229.947H230.017H230.084H230.147H230.206H230.262C232.379 310.752 234.1 309.031 234.1 306.914V178.67C234.1 176.553 232.379 174.831 230.262 174.831H45.0493C42.9322 174.831 41.2106 176.553 41.2106 178.67V198.32C41.2106 200.172 39.7101 201.672 37.8582 201.672C36.0063 201.672 34.5059 200.172 34.5059 198.32V178.67C34.5059 172.857 39.2361 168.126 45.0493 168.126H177.912H178.412V167.626V106.502C178.412 101.539 182.451 97.5 187.415 97.5H287.491C292.454 97.5 296.493 101.539 296.494 106.502V106.517V106.537V106.562V106.592V106.628V106.669V106.716V106.768V106.825V106.887V106.955V107.027V107.105V107.188V107.277V107.37V107.468V107.572V107.681V107.794V107.913V108.036V108.165V108.299V108.437V108.58V108.729V108.882V109.04V109.203V109.37V109.543V109.72V109.902V110.088V110.279V110.475V110.676V110.881V111.091V111.306V111.525V111.748V111.976V112.209V112.446V112.687V112.933V113.184V113.439V113.698V113.961V114.229V114.501V114.778V115.058V115.343V115.633V115.926V116.224V116.525V116.831V117.141V117.455V117.774V118.096V118.422V118.753V119.087V119.425V119.767V120.114V120.464V120.818V121.176V121.537V121.903V122.272V122.645V123.022V123.403V123.787V124.175V124.567V124.962V125.361V125.764V126.17V126.579V126.993V127.41V127.83V128.254V128.681V129.112V129.546V129.983V130.424V130.869V131.316V131.767V132.222V132.679V133.14V133.604V134.071V134.541V135.015V135.492V135.971V136.454V136.94V137.43V137.922V138.417V138.915V139.416V139.92V140.427V140.937V141.45V141.965V142.484V143.005V143.529V144.056V144.586V145.119V145.654V146.192V146.732V147.275V147.821V148.37V148.921V149.474V150.03V150.589V151.15V151.714V152.28V152.849V153.42V153.993V154.569V155.147V155.728V156.311V156.896V157.483V158.073V158.665V159.259V159.855V160.454V161.054V161.657V162.262V162.869V163.478V164.089V164.702V165.317V165.934V166.553V167.174V167.797V168.422V169.048V169.677V170.307V170.939V171.573V172.209V172.846V173.485V174.126V174.769V175.413V176.059V176.706V177.355V178.006V178.658V179.312V179.967V180.624V181.282V181.941V182.602V183.265V183.929V184.594V185.26V185.928V186.597V187.268V187.94V188.613V189.287V189.962V190.639V191.316V191.995V192.675V193.356V194.038V194.721V195.405V196.09V196.776V197.464V198.152V198.84V199.53V200.221V200.913V201.605V202.298V202.992V203.687V204.382V205.079V205.776V206.473V207.171V207.87V208.57V209.27V209.971V210.672V211.374V212.076V212.779V213.482V214.186V214.89V215.595V216.3V217.005V217.711V218.417V219.123V219.83V220.537V221.244V221.951V222.659V223.366V224.074V224.782V225.49V226.198V226.907V227.615V228.323V229.031V229.74V230.448V231.156V231.864V232.572V233.28V233.988V234.696V235.403V236.11V236.817V237.524V238.23V238.936V239.642V240.348V241.053V241.758V242.462V243.166V243.87V244.573V245.275V245.977V246.679V247.38V248.08V248.78V249.479V250.178V250.876V251.573V252.27V252.966V253.661V254.355V255.049V255.742V256.434V257.125V257.815V258.504V259.193V259.88V260.567V261.252V261.937V262.621V263.303V263.985V264.665V265.345V266.023V266.7V267.376V268.051V268.724V269.396V270.067V270.737V271.406V272.073V272.739V273.403V274.066V274.728V275.389V276.047V276.705V277.361V278.015V278.668V279.32V279.969V280.618V281.264V281.909V282.552V283.194V283.834V284.472V285.109V285.744V286.377V287.008V287.637V288.265V288.89V289.514V290.136V290.756V291.374V291.99V292.604V293.216V293.826V294.434V295.04V295.644V296.246V296.845V297.442V298.038V298.631V299.221V299.81V300.396V300.98V301.562V302.141V302.718V303.293V303.865V304.435V305.002V305.567V306.129V306.689V307.247V307.802V308.354V308.904V309.451V309.995V310.537V311.076V311.613V312.147V312.678V313.206V313.732V314.254V314.774V315.291V315.805V316.317V316.825V317.331V317.833V318.333V318.829V319.323V319.814V320.301V320.786V321.267V321.745V322.22V322.692V323.161V323.627V324.089V324.548V325.004V325.456V325.906V326.352V326.794V327.233V327.669V328.102V328.531V328.956V329.378V329.797V330.212V330.623V331.031V331.436V331.836V332.234V332.627V333.017V333.403V333.785V334.164V334.539V334.91V335.278V335.641V336.001V336.357V336.709V337.057V337.401V337.741V338.077V338.41V338.738V339.062V339.383V339.699V340.011V340.319V340.622V340.922V341.218V341.509V341.796V342.079V342.357V342.632V342.901V343.167V343.428V343.685V343.938V344.186V344.43V344.669V344.904V345.134V345.36V345.581V345.798V346.01V346.217V346.42V346.619V346.812V347.001V347.185V347.365V347.539V347.709V347.875V348.035V348.19V348.341V348.487V348.628V348.764V348.895V349.021V349.142V349.258V349.369V349.475V349.576V349.672V349.763V349.848V349.929V350.004V350.074V350.139V350.199V350.253V350.302V350.346V350.384V350.417V350.445V350.468V350.485C296.494 355.448 292.455 359.487 287.491 359.487H248.393C246.541 359.487 245.04 357.987 245.04 356.135C245.04 354.283 246.541 352.782 248.393 352.782H287.491C288.759 352.782 289.789 351.752 289.789 350.485V221.901V221.401H289.289H241.306H240.806V221.901V306.914C240.806 312.727 236.076 317.457 230.263 317.457H185.617H185.117V317.957V329.744V330.133L185.495 330.228L185.5 330.23L185.501 330.23L185.502 330.23L185.513 330.233L185.525 330.235C188.651 330.866 191.047 333.654 191.085 336.964ZM191.085 336.964L191.09 336.964C191.09 336.96 191.09 336.956 191.091 336.952C191.092 336.947 191.093 336.934 191.095 336.925C191.097 336.912 191.107 336.87 191.116 336.842C191.13 336.811 191.188 336.755 191.274 336.701M191.085 336.964C191.085 336.965 191.085 336.965 191.085 336.965L191.09 336.965C191.089 336.975 191.089 336.982 191.089 336.983C191.088 336.995 191.088 337.015 191.087 337.022L191.087 337.023C191.087 337.039 191.087 337.041 191.087 337.036L191.088 337.024C191.088 337.024 191.088 337.023 191.088 337.021C191.089 337.014 191.091 336.998 191.094 336.979C191.094 336.976 191.095 336.971 191.097 336.965L191.584 336.96M191.274 336.701C191.205 336.76 191.151 336.822 191.134 336.853C191.122 336.88 191.106 336.925 191.102 336.942C191.1 336.948 191.098 336.956 191.097 336.964L191.584 336.96M191.274 336.701C191.342 336.657 191.429 336.615 191.523 336.587M191.274 336.701C191.325 336.657 191.384 336.614 191.441 336.587C191.468 336.585 191.495 336.585 191.523 336.587M191.584 336.96C191.583 336.837 191.579 336.715 191.571 336.593M191.584 336.96C191.586 337.166 191.587 337.006 191.588 337.006C191.589 337.006 191.589 337.087 191.589 337.441L191.571 336.593M191.571 336.593C191.555 336.59 191.539 336.588 191.523 336.587M191.571 336.593L191.523 336.587M289.288 121.556H289.788V121.056V106.502C289.788 105.235 288.758 104.205 287.491 104.205H187.415C186.148 104.205 185.117 105.235 185.117 106.502V121.056V121.556H185.617H289.288ZM185.617 128.26H185.117V128.76V167.626V168.126H185.617H230.262H230.262H289.288H289.788V167.626V128.76V128.26H289.288H185.617ZM241.306 190.241H240.806V190.741V198.787V199.287H241.306H273.879H274.379V198.787V190.741V190.241H273.879H241.306ZM156.417 329.596V330.096H156.917H177.912H178.412V329.596V317.957V317.457H177.912H156.917H156.417V317.957V329.596ZM126.099 317.457H125.599V317.957V329.596V330.096H126.099H149.213H149.713V329.596V317.957V317.457H149.213H126.099ZM91.4275 336.801H90.9275V337.301V352.282V352.782H91.4275H183.883H184.383V352.282V337.301V336.801H183.883H181.778C181.772 336.801 181.764 336.801 181.755 336.801H91.4275ZM240.806 214.197V214.697H241.306H289.288H289.788V214.197V175.331V174.831H289.288H240.79H240.106L240.313 175.483C240.853 177.18 240.84 178.631 240.817 181.147C240.811 181.717 240.806 182.342 240.806 183.036V183.536H241.306H275.163C278.427 183.536 281.084 186.192 281.084 189.456V200.071C281.084 203.336 278.427 205.992 275.163 205.992H241.306H240.806V206.492V214.197Z" stroke="white"/>
<g filter="url(#filter0_d_1629_4100)">
<circle cx="90" cy="76" r="56" fill="#010C04"/>
</g>
<g clip-path="url(#clip0_1629_4100)">
<path d="M115.668 72.4119L115.107 71.4276C115.129 64.358 111.849 61.4765 108.024 59.2858C109.181 58.9807 110.376 58.7297 110.704 57.2761C112.693 56.7668 113.109 55.8463 113.309 54.871C113.829 54.5243 115.569 53.5507 115.387 51.8766C116.362 51.2039 116.905 50.3406 116.629 49.1174C117.676 47.9748 117.952 47.0308 117.507 46.1605C118.765 44.5985 118.207 43.7887 117.67 42.969C118.612 41.2611 117.781 39.4297 115.148 39.7363C114.101 38.1975 111.818 38.5469 111.465 38.5541C111.069 38.0602 110.548 37.637 108.944 37.8421C107.904 36.9153 106.742 37.0735 105.544 37.5288C104.12 36.4226 103.179 37.3094 102.103 37.6445C100.38 37.0899 99.9856 37.8497 99.139 38.1589C97.2596 37.7679 96.6885 38.6194 95.7876 39.5184L94.7395 39.4977C91.905 41.1428 90.497 44.4932 89.9979 46.2154C89.4985 44.4928 88.0935 41.1425 85.2597 39.4977L84.2119 39.5181C83.3098 38.6191 82.7385 37.7676 80.8594 38.1586C80.0129 37.8494 79.62 37.0896 77.8956 37.6442C77.1896 37.4243 76.54 36.9668 75.7754 36.9901L75.7769 36.9907C75.3763 37.0028 74.9449 37.1484 74.4557 37.529C73.2569 37.0736 72.0948 36.9154 71.0558 37.8423C69.4512 37.6372 68.9296 38.0603 68.5344 38.5542C68.1823 38.5471 65.8983 38.1976 64.8511 39.7364C62.2192 39.4297 61.3871 41.2614 62.3297 42.9692C61.7922 43.7889 61.2354 44.5988 62.4921 46.1611C62.0476 47.0314 62.3233 47.9754 63.3708 49.118C63.0943 50.3414 63.6379 51.2045 64.6124 51.8773C64.43 53.5515 66.171 54.5249 66.691 54.8717C66.8905 55.8472 67.3066 56.7677 69.2953 57.2766C69.6231 58.7305 70.8183 58.9815 71.9756 59.2866C68.1504 61.4765 64.8704 64.3582 64.8927 71.4284L64.3322 72.4129C59.9465 75.0401 56.0004 83.4842 62.1709 90.3474C62.5739 92.4959 63.2499 94.039 63.8517 95.7468C64.752 102.629 70.627 105.852 72.1766 106.233C74.4472 107.936 76.8656 109.553 80.1381 110.685C83.2231 113.819 86.5652 115.013 89.9258 115.011C89.9751 115.011 90.0252 115.012 90.0744 115.011C93.435 115.013 96.7772 113.819 99.8621 110.685C103.135 109.553 105.553 107.936 107.824 106.233C109.373 105.852 115.248 102.629 116.149 95.7468C116.75 94.039 117.426 92.4959 117.829 90.3474C124 83.4837 120.054 75.0392 115.668 72.4119ZM112.292 71.2042C112.063 74.0517 97.2223 61.2874 99.7844 60.8635C106.739 59.7069 112.525 63.7764 112.292 71.2042ZM105.739 85.3942C102.007 87.8027 96.6285 86.2481 93.7259 81.9219C90.8236 77.5961 91.4963 72.1363 95.2288 69.7279C98.9611 67.3192 104.34 68.8737 107.242 73.1999C110.144 77.526 109.472 82.9857 105.739 85.3942ZM95.3937 41.45C95.5223 42.0893 95.6676 42.4936 95.8339 42.6129C96.6588 41.7286 97.3329 40.823 98.3951 39.9722C98.3986 40.4719 98.1429 41.0142 98.7753 41.4107C99.3448 40.6448 100.114 39.9611 101.136 39.3806C100.644 40.2296 101.052 40.4874 101.317 40.8391C102.097 40.1698 102.838 39.4919 104.278 38.9669C103.884 39.4461 103.334 39.9141 103.918 40.4646C104.721 39.9627 105.53 39.4614 107.439 39.1048C107.009 39.5844 106.12 40.0639 106.659 40.5435C107.668 40.158 108.785 39.8782 110.02 39.7157C109.429 40.2021 108.935 40.6788 109.42 41.0558C110.5 40.7235 111.988 40.2762 113.442 40.6617L112.522 41.588C112.42 41.712 114.675 41.6846 116.163 41.7062C115.62 42.4608 115.066 43.1892 114.743 44.4853C114.89 44.6346 115.628 44.5517 116.323 44.4853C115.61 45.9866 114.372 46.3655 114.082 47.0081C114.518 47.338 115.123 47.2521 115.783 47.0277C115.27 48.0855 114.193 48.8105 113.342 49.6686C113.557 49.8213 113.933 49.9124 114.823 49.8067C114.037 50.6421 113.087 51.406 111.961 52.0928C112.161 52.3231 112.846 52.3141 113.482 52.3293C112.463 53.3271 111.15 53.8443 109.921 54.4972C110.534 54.9161 110.972 54.8184 111.441 54.8125C110.571 55.527 109.093 55.8988 107.72 56.3301C107.981 56.736 108.242 56.8468 108.8 56.9608C107.347 57.765 105.265 57.3974 104.678 57.8083C104.82 58.2124 105.219 58.4756 105.698 58.6951C103.359 58.8311 96.9604 58.61 95.7338 53.7678C98.1287 51.1366 102.5 48.0486 110.018 44.2297C104.169 46.1875 98.8906 48.7973 94.4732 52.3883C89.2794 49.9702 92.8599 43.8713 95.3937 41.45ZM90.1512 58.9134V58.9131C93.8341 58.8733 98.3943 61.6199 98.376 64.2079C98.3599 66.4922 95.1733 68.3414 90.1794 68.3062C85.2891 68.2486 81.996 65.9825 82.0076 63.769C82.0174 61.9476 86.0006 58.807 90.1512 58.9134ZM71.4109 56.9608C71.9689 56.8468 72.2303 56.7359 72.4912 56.3301C71.1183 55.8988 69.6394 55.527 68.7696 54.8125C69.2391 54.8184 69.677 54.9159 70.2902 54.4972C69.0603 53.8443 67.7481 53.3271 66.7286 52.3293C67.3642 52.3141 68.0498 52.3231 68.2492 52.0928C67.1236 51.406 66.1739 50.6421 65.3878 49.8067C66.2777 49.9124 66.6533 49.8213 66.8687 49.6686C66.0179 48.8105 64.9408 48.0855 64.4274 47.0277C65.0882 47.2521 65.6925 47.338 66.1284 47.0081C65.8391 46.3655 64.6004 45.9866 63.8871 44.4853C64.5827 44.5517 65.3203 44.6346 65.4681 44.4853C65.145 43.1899 64.5912 42.4614 64.0478 41.7068C65.5363 41.6852 67.7917 41.7126 67.6896 41.5886L66.7693 40.6622C68.2232 40.2767 69.711 40.7241 70.7911 41.0564C71.276 40.6796 70.7826 40.2029 70.1909 39.7162C71.4266 39.8788 72.5431 40.1587 73.5522 40.5441C74.0917 40.0644 73.2022 39.5848 72.7719 39.1053C74.681 39.462 75.4898 39.9632 76.2935 40.4652C76.8769 39.9146 76.3271 39.4466 75.9333 38.9673C77.3728 39.4925 78.1143 40.1703 78.8948 40.8396C79.1595 40.4877 79.5671 40.2299 79.0749 39.3811C80.0968 39.9614 80.8664 40.6451 81.436 41.4112C82.0683 41.0145 81.8129 40.4722 81.8162 39.9723C82.8782 40.8234 83.5524 41.7291 84.3776 42.6134C84.5437 42.4944 84.6892 42.0899 84.8176 41.4507C87.3514 43.8719 90.9317 49.9706 85.7381 52.3889C81.3204 48.8002 76.0448 46.1911 70.1986 44.2336C77.7133 48.0501 82.0827 51.1381 84.4768 53.7678C83.2503 58.61 76.8519 58.8309 74.5123 58.6951C74.9912 58.4756 75.391 58.2124 75.5327 57.8083C74.9457 57.3974 72.8641 57.7648 71.4109 56.9608ZM80.5705 60.6454C83.1325 61.0695 68.292 73.8336 68.0634 70.9863C67.8298 63.5592 73.6158 59.4888 80.5705 60.6454ZM64.8133 89.1129C61.2066 86.2557 60.0449 77.8879 66.7315 74.127C70.761 73.063 68.0919 90.5475 64.8133 89.1129ZM78.6804 104.064C76.6462 105.273 71.7065 104.775 68.1954 99.8066C65.8277 95.638 66.1326 91.3957 67.7953 90.1496C70.2815 88.6578 74.1228 90.6726 77.0796 94.0517C79.6558 97.1092 80.8303 102.481 78.6804 104.064ZM74.6446 85.8304C70.9123 83.4217 70.2393 77.9621 73.1419 73.636C76.0442 69.31 81.4226 67.7555 85.1549 70.1641C88.8873 72.5726 89.5601 78.0322 86.6577 82.3582C83.7554 86.6842 78.3767 88.2388 74.6446 85.8304ZM90.2318 112.579C85.7576 112.769 81.3705 108.969 81.4279 107.652C81.3609 105.72 86.8758 104.213 90.472 104.301C94.0906 104.146 98.9464 105.449 98.9559 107.179C99.0159 108.858 94.552 112.652 90.2318 112.579ZM99.1995 93.5355C99.2257 98.0538 95.214 101.736 90.2393 101.76C85.2646 101.784 81.2105 98.1401 81.1843 93.6218C81.1843 93.593 81.1843 93.5643 81.1843 93.5355C81.1582 89.0172 85.1697 85.3348 90.1445 85.3112C95.1192 85.2874 99.1733 88.9308 99.1994 93.4493C99.1997 93.4779 99.1997 93.5066 99.1995 93.5355ZM111.732 100.047C107.876 105.316 102.657 105.521 100.712 104.054C98.6788 102.164 100.231 96.2988 103.019 93.0828V93.0817C106.208 89.5343 109.619 87.218 111.994 89.0279C113.593 90.5975 114.531 96.508 111.732 100.047ZM115.218 88.8958C111.939 90.3304 109.27 72.8454 113.3 73.9089C119.986 77.6698 118.824 86.0382 115.218 88.8958Z" fill="white"/>
</g>
<defs>
<filter id="filter0_d_1629_4100" x="0" y="0" width="180" height="180" filterUnits="userSpaceOnUse" color-interpolation-filters="sRGB">
<feFlood flood-opacity="0" result="BackgroundImageFix"/>
<feColorMatrix in="SourceAlpha" type="matrix" values="0 0 0 0 0 0 0 0 0 0 0 0 0 0 0 0 0 0 127 0" result="hardAlpha"/>
<feOffset dy="14"/>
<feGaussianBlur stdDeviation="17"/>
<feComposite in2="hardAlpha" operator="out"/>
<feColorMatrix type="matrix" values="0 0 0 0 0.372549 0 0 0 0 1 0 0 0 0 0 0 0 0 0.6 0"/>
<feBlend mode="normal" in2="BackgroundImageFix" result="effect1_dropShadow_1629_4100"/>
<feBlend mode="normal" in="SourceGraphic" in2="effect1_dropShadow_1629_4100" result="shape"/>
</filter>
<linearGradient id="paint0_linear_1629_4100" x1="237.5" y1="70" x2="237.5" y2="194" gradientUnits="userSpaceOnUse">
<stop stop-color="#5FFF00"/>
<stop offset="0.0001" stop-color="#5FFF00" stop-opacity="0.9"/>
<stop offset="1" stop-color="#5FFF00" stop-opacity="0"/>
</linearGradient>
<linearGradient id="paint1_linear_1629_4100" x1="137.5" y1="189" x2="137.5" y2="297" gradientUnits="userSpaceOnUse">
<stop stop-color="#5FFF00"/>
<stop offset="0.0001" stop-color="#5FFF00" stop-opacity="0.9"/>
<stop offset="1" stop-color="#5FFF00" stop-opacity="0"/>
</linearGradient>
<clipPath id="clip0_1629_4100">
<rect width="78.0225" height="78.0225" fill="white" transform="translate(50.9883 36.9888)"/>
</clipPath>
</defs>
</svg>
