<svg width="685" height="761" viewBox="0 0 685 761" fill="none" xmlns="http://www.w3.org/2000/svg">
<g clip-path="url(#clip0_226_4365)">
<path d="M683.07 207.746V553.245M683.07 207.746V0.442824L682.877 760.539V553.236L564.838 531.417L472.969 514.432L399.628 500.839L339.451 489.708L289.27 480.428L246.81 472.582L210.372 465.852L178.835 460.016L151.197 454.907L126.802 450.399L105.147 446.388L85.8473 442.846L68.3612 439.614L52.5739 436.691L38.2142 434.035L25.0905 431.608L13.0859 429.386L2.00718 427.34V330.383L13.0859 328.4L25.0905 326.23L38.2142 323.875L52.5739 321.289L68.3612 318.446L85.8473 315.303L105.147 311.805L126.802 307.908L151.197 303.481L178.835 298.513L210.372 292.828L246.81 286.275L289.27 278.624L339.451 269.591L399.822 258.823L473.162 245.54L565.031 228.999L683.07 207.746ZM399.436 113.49V646.049M339.335 621.821V137.541M289.154 157.563V601.516M210.178 569.681V189.008M178.835 556.92V201.627M151.197 212.652V545.763M126.532 535.924V222.375M104.607 230.991V527.131M85.3068 238.722V519.312M24.5501 262.959L12.8541 267.82L1.77583 272.248V311.034M1.77583 311.034L12.8541 308.236V288.037L24.8587 284.114V263.039L37.9829 257.814L52.342 252.084L68.1294 245.78M1.77583 311.034V330.419M52.342 252.138V506.011M52.342 506.011L68.1294 512.396M52.342 506.011L37.9829 500.219V257.867M1.77583 427.429V466.206L12.8541 469.872L24.8587 473.848V494.924L37.9829 500.237M1.77583 446.84L12.8541 449.691V490.08L24.8587 494.942M1.69855 466.224V485.617L12.7768 490.045M1.69855 291.685L12.7768 288.081V267.82M1.96902 369.232L13.0473 368.851L25.0519 368.443L38.1761 368.001L52.5352 367.505L68.3226 366.973L85.8086 366.371L105.109 365.716L126.763 364.972L151.159 364.149L178.796 363.201L210.333 362.13L246.771 360.89L289.232 359.438L339.412 357.729L399.59 355.683L472.93 353.177L564.799 350.042L682.839 346.022M682.877 0.43396L564.838 47.5265V168.499L472.969 191.744L399.628 210.341L339.451 225.572L289.27 238.261L246.81 249.012L210.372 258.221L178.835 266.191L151.197 273.178L126.802 279.377L105.147 284.858L85.8473 289.764L68.3612 294.192V463.824L85.8473 468.323L105.147 473.326L126.802 478.914L151.197 485.201L178.835 492.285L210.372 500.423L246.81 509.81L289.27 520.764L339.451 533.701L399.628 549.225L472.969 568.184L564.838 591.872V712.845L682.877 760.513V0.43396ZM682.877 69.5055L564.838 107.982L472.969 137.939V622.033L564.838 652.434L682.877 691.486V69.5055ZM564.915 47.5354L473.046 84.1875V137.975L399.706 161.946L339.528 181.57L289.348 197.925L246.887 211.766V547.108L289.348 561.162L339.528 577.757L399.706 597.672L473.046 621.998V675.785L564.915 712.88V47.5354ZM682.877 138.639L564.838 168.508V591.925L682.877 622.37V138.639ZM472.969 84.1611L399.628 113.499L339.451 137.514L289.27 157.536L246.81 174.485V211.74L210.372 223.615L178.835 233.904L151.197 242.91L126.802 250.88L105.147 257.965L85.8473 264.287L68.3612 269.981V294.209L52.5739 298.203L38.2142 301.842L25.0905 305.154L13.0859 308.201V449.585L25.0905 452.684L38.2142 456.067L52.5739 459.768L68.3612 463.842V488.07L85.8473 493.844L105.147 500.264L126.802 507.437L151.197 515.495L178.835 524.625L210.372 535.074L246.81 547.117V584.381L289.27 601.525L339.451 621.794L399.628 646.093L472.969 675.794V84.1611ZM1.93038 407.929L13.0086 409.169L25.0132 410.515L38.1374 411.985L52.4966 413.588L68.284 415.359L85.77 417.307L105.07 419.477L126.725 421.903L151.12 424.631L178.758 427.721L210.294 431.263L246.733 435.337L289.193 440.092L339.373 445.706L399.552 452.436L472.892 460.663L564.76 470.944L682.8 484.156L1.93038 407.929ZM1.65991 388.545L12.7382 388.97L24.7428 389.44L37.867 389.953L52.2261 390.511L68.014 391.122L85.4995 391.804L104.8 392.557L126.455 393.398L150.85 394.345L178.488 395.426L210.024 396.648L246.463 398.065L288.923 399.72L339.103 401.677L399.281 404.015L472.622 406.876L564.49 410.418L682.53 415.005L1.65991 388.545ZM246.656 174.565L210.217 189.088L178.681 201.68L151.043 212.705L126.648 222.446L104.993 231.097L85.6927 238.828L68.2067 245.797V270.034L52.4193 275.179L38.0601 279.864L24.936 284.132V473.813L38.0601 478.152L52.4193 482.898L68.2067 488.123V512.36L85.6927 519.444L104.993 527.273L126.648 536.022L151.043 545.869L178.681 557.027L210.217 569.769L246.656 584.478V174.565ZM682.839 276.879L564.799 289.516L472.93 299.345L399.59 307.218L339.412 313.664L289.232 319.04L246.771 323.582L210.333 327.479L178.796 330.861L151.159 333.819L126.763 336.476L105.109 338.796L85.8086 340.868L68.3226 342.737L52.5352 344.428L38.1761 345.969L25.0519 347.368L13.0473 348.652L1.96902 349.839L682.839 276.879Z" stroke="url(#paint0_linear_226_4365)" stroke-linecap="round" stroke-linejoin="round"/>
</g>
<defs>
<linearGradient id="paint0_linear_226_4365" x1="683" y1="778.5" x2="-40" y2="179" gradientUnits="userSpaceOnUse">
<stop stop-color="#00F100" stop-opacity="0.7"/>
<stop offset="1" stop-color="#00F100" stop-opacity="0"/>
</linearGradient>
<clipPath id="clip0_226_4365">
<rect width="685" height="761" fill="white"/>
</clipPath>
</defs>
</svg>
