<svg width="42" height="42" viewBox="0 0 42 42" fill="none" xmlns="http://www.w3.org/2000/svg">
<path d="M13.9446 36.287H10.3037C9.39705 36.287 8.65942 37.0245 8.65942 37.9312C8.65942 38.8379 9.39705 39.5755 10.3037 39.5755H13.9446C14.8512 39.5755 15.5888 38.8379 15.5888 37.9312C15.5888 37.0245 14.8511 36.287 13.9446 36.287ZM13.9446 38.345H10.3037C10.0755 38.345 9.88989 38.1594 9.88989 37.9312C9.88989 37.7031 10.0755 37.5175 10.3037 37.5175H13.9446C14.1727 37.5175 14.3583 37.7031 14.3583 37.9312C14.3583 38.1594 14.1727 38.345 13.9446 38.345Z" fill="#5FFF00"/>
<path d="M26.2744 21.2866V21.2743H40.0762C42.5513 21.2743 42.5554 17.4269 40.0762 17.4269H26.2744V17.4146C26.2744 16.19 25.4032 15.1652 24.2481 14.9271V13.5353H33.7774V13.5476C33.7774 14.948 34.9166 16.0872 36.317 16.0872C37.7173 16.0872 38.8566 14.948 38.8566 13.5476V13.5353H40.0763C42.5514 13.5353 42.5554 9.68789 40.0763 9.68789H38.8566V9.67567C38.8566 8.27531 37.7173 7.13606 36.317 7.13606C34.9166 7.13606 33.7774 8.27531 33.7774 9.67567V9.68789H24.2481V2.40376C24.2481 1.07838 23.1698 0 21.8443 0H2.40376C1.07838 0 0 1.07838 0 2.40376V7.97992C0 8.77538 1.23047 8.77538 1.23047 7.97992V5.43236H23.0176V9.68781H15.5866C13.1115 9.68781 13.1074 13.5352 15.5866 13.5352H23.0176V14.9787C21.9655 15.289 21.1952 16.2632 21.1952 17.4145V17.4268H15.5866C13.1115 17.4268 13.1074 21.2742 15.5866 21.2742H21.1952V21.2865C21.1952 22.4379 21.9655 23.412 23.0176 23.7224V25.1658H15.5866C13.1115 25.1658 13.1074 29.0132 15.5866 29.0132H23.0176V33.8548H1.23047V11.6115C1.23047 10.8161 0 10.8161 0 11.6115V39.5962C0 40.9216 1.07838 42 2.40376 42H21.8443C23.1698 42 24.2481 40.9216 24.2481 39.5962V29.0134H28.7324V29.0257C28.7324 30.426 29.8717 31.5653 31.272 31.5653C32.6724 31.5653 33.8116 30.426 33.8116 29.0257V29.0134H36.2846C37.08 29.0134 37.08 27.7829 36.2846 27.7829H33.8116V26.3964H40.0762C40.4585 26.3964 40.7694 26.7074 40.7694 27.0897C40.7694 27.4719 40.4585 27.7829 40.0762 27.7829C39.2807 27.7829 39.2807 29.0134 40.0762 29.0134C41.1369 29.0134 41.9999 28.1503 41.9999 27.0897C41.9999 26.029 41.1369 25.166 40.0762 25.166H33.8116V25.1537C33.8116 23.7533 32.6724 22.614 31.272 22.614C29.8717 22.614 28.7324 23.7533 28.7324 25.1537V25.166H24.2481V23.7741C25.4033 23.536 26.2744 22.5112 26.2744 21.2866ZM1.23047 4.20189V2.40376C1.23047 1.75678 1.75686 1.23047 2.40376 1.23047H21.8443C22.4913 1.23047 23.0176 1.75678 23.0176 2.40376V4.20189H1.23047ZM40.0763 10.9183C40.9724 10.9183 40.9724 12.3048 40.0763 12.3048H38.8566V10.9183H40.0763ZM35.0078 9.6755C35.0078 8.95363 35.5951 8.36637 36.317 8.36637C37.0388 8.36637 37.6261 8.95363 37.6261 9.6755V13.5475C37.6261 14.2694 37.0388 14.8567 36.317 14.8567C35.5951 14.8567 35.0078 14.2694 35.0078 13.5475V9.6755ZM14.8933 11.6115C14.8933 11.2293 15.2043 10.9183 15.5866 10.9183H33.7774V12.3048H15.5866C15.2043 12.3048 14.8933 11.9938 14.8933 11.6115ZM21.8443 40.7695H2.40376C1.75686 40.7695 1.23047 40.2432 1.23047 39.5962V35.0854H23.0176V39.5962C23.0176 40.2432 22.4913 40.7695 21.8443 40.7695ZM29.9629 25.1536C29.9629 24.4317 30.5502 23.8444 31.272 23.8444C31.9939 23.8444 32.5812 24.4317 32.5812 25.1536V29.0257C32.5812 29.7476 31.9939 30.3348 31.272 30.3348C30.5502 30.3348 29.9629 29.7476 29.9629 29.0257V25.1536ZM28.7324 27.7829H15.5866C14.6905 27.7829 14.6905 26.3964 15.5866 26.3964H28.7324V27.7829ZM40.0763 18.6573C40.9724 18.6573 40.9724 20.0438 40.0763 20.0438H26.2744V18.6573H40.0763ZM15.5866 20.0438C14.6905 20.0438 14.6905 18.6574 15.5866 18.6574H21.1952V20.0438H15.5866ZM22.4256 21.2866V17.4145C22.4256 16.6926 23.0129 16.1054 23.7348 16.1054C24.4566 16.1054 25.0439 16.6926 25.0439 17.4145V21.2866C25.0439 22.0085 24.4566 22.5958 23.7348 22.5958C23.0129 22.5958 22.4256 22.0085 22.4256 21.2866Z" fill="#5FFF00"/>
</svg>
