<svg width="1441" height="224" viewBox="0 0 1441 224" fill="none" xmlns="http://www.w3.org/2000/svg">
<path d="M1440.9 223.058C1440.9 223.04 1440.9 223.021 1440.9 223.002C1440.9 223.002 1440.9 223.002 1440.9 222.965C1440.9 222.942 1440.9 222.919 1440.9 222.897C1440.9 222.878 1440.9 222.859 1440.9 222.841C1440.9 222.841 1440.9 222.841 1440.9 222.803L1432.44 211.39L1424.07 201.7L1415.98 192.272L1408.01 183.018L1400.26 173.982L1392.63 165.177L1385.23 156.52L1377.93 148.094L1370.92 139.935C1370.89 139.861 1370.84 139.799 1370.77 139.761L1363.88 131.758L1363.85 131.715L1350.41 116.082L1343.88 108.521L1337.51 101.053L1331.22 93.7904L1325.1 86.6773L1313.1 72.8245L1307.3 66.1159L1301.66 59.5256L1296.06 53.0721L1290.64 46.768L1285.29 40.5448L1280.03 34.4772L1274.9 28.4781L1269.83 22.6034L1264.88 16.8594L1255.22 5.62032L1250.5 0.703991C1250.48 0.674097 1250.44 0.65033 1250.4 0.634254C1250.37 0.618177 1250.33 0.610131 1250.29 0.610628L1215.06 0.0692139H1144.58H1109.34H1074.1L792.141 0.131431H615.919H580.665H474.952H439.698H404.456H369.207H333.965H298.724H263.482H228.234L193.041 1.31385C192.967 1.31517 192.896 1.34401 192.842 1.39476L188.044 5.68254L183.246 11.2834L178.33 16.9465L173.351 22.7029L168.254 28.5839L163.064 34.5768L157.774 40.6693L152.41 46.8552L152.373 46.8987L146.897 53.2152L141.296 59.6438V59.6811L135.601 66.2466L123.864 79.7758L123.827 79.8131L111.623 93.8837C111.605 93.8973 111.591 93.9143 111.58 93.9336L105.319 101.146C105.297 101.164 105.279 101.185 105.263 101.208L92.2693 116.181L85.5794 123.886C85.5539 123.906 85.533 123.932 85.5174 123.96L78.6719 131.82L78.6403 131.851L71.683 139.873C71.6518 139.896 71.6262 139.926 71.6082 139.96L64.5141 148.131C64.4825 148.158 64.4546 148.19 64.4327 148.225L57.1581 156.607L49.6903 165.183C49.6591 165.206 49.6335 165.236 49.6156 165.27L42.0231 174.02C41.9958 174.04 41.9729 174.065 41.9551 174.094L34.1512 183.093L26.1291 192.328L17.9144 201.788L9.50092 211.477L0.913049 222.137C0.898991 222.156 0.888569 222.177 0.882054 222.2C0.879159 222.22 0.879159 222.241 0.882054 222.262C0.882054 222.262 0.882054 222.262 0.882054 222.305C0.879689 222.326 0.879689 222.347 0.882054 222.368V222.424L0.913049 222.467C0.924127 222.487 0.938521 222.504 0.956198 222.517H0.993877H1.04979H1.11178H1.15553L49.0741 221.789H97.0552H145.042H193.023H288.997H336.99L384.977 221.826H432.964H480.951H528.932H576.925H624.912H672.905H720.892H768.885H816.86H864.841H912.833H960.821H1008.81H1056.79H1152.78H1200.76H1248.76L1296.73 221.789H1344.71H1392.69L1440.61 223.276C1440.67 223.277 1440.73 223.257 1440.78 223.22C1440.8 223.207 1440.81 223.19 1440.82 223.17C1440.82 223.156 1440.82 223.141 1440.82 223.127C1440.85 223.111 1440.88 223.087 1440.9 223.058ZM1392.87 221.192L1385.4 209.76L1431.96 211.875L1439.94 222.654L1392.87 221.192ZM1296.92 221.192L1290.52 209.691H1337.24L1344.16 221.185L1296.92 221.192ZM1248.94 221.229L1243.07 209.685H1289.81L1296.2 221.185L1248.94 221.229ZM1200.96 221.229L1195.63 209.741L1242.38 209.703L1248.24 221.247L1200.96 221.229ZM1152.98 221.229L1148.19 209.735H1194.94L1200.28 221.223L1152.98 221.229ZM1104.99 221.229L1100.76 209.703H1147.52L1152.31 221.241L1104.99 221.229ZM1057.02 221.229L1053.29 209.735H1100.08L1104.32 221.26L1057.02 221.229ZM1009.04 221.229L1005.86 209.685H1052.65L1056.38 221.179L1009.04 221.229ZM961.07 221.229L958.425 209.741H1005.22L1008.4 221.285L961.07 221.229ZM433.344 221.229L436.611 209.735H483.409L480.671 221.266L433.344 221.229ZM385.375 221.229L389.177 209.685H435.964L432.696 221.179L385.375 221.229ZM337.407 221.192L341.763 209.703H388.543L384.74 221.247L337.407 221.192ZM289.432 221.192L294.367 209.735H341.128L336.772 221.223L289.432 221.192ZM241.464 221.192L246.891 209.672H293.645L288.76 221.21L241.464 221.192ZM193.502 221.192L199.458 209.691H246.2L240.779 221.21L193.502 221.192ZM145.54 221.192L152.024 209.647H198.754L192.799 221.148L145.54 221.192ZM97.5779 221.192L104.597 209.697H151.309L144.824 221.241L97.5779 221.192ZM1.74078 221.92L9.83092 211.888L56.3924 209.741L48.8626 221.204L1.74078 221.92ZM188.387 6.06837L223.062 4.50635L219.079 9.32932L184.148 11.0034L188.387 6.06837ZM228.333 0.623087H262.648L259.194 3.73468L224.587 3.79067L228.333 0.623087ZM297.94 0.660462L294.753 3.81558H260.121L263.575 0.703991L297.94 0.660462ZM368.517 0.660462L365.853 3.82181L331.153 3.79067L334.071 0.679074L368.517 0.660462ZM439.087 0.660462L436.965 3.82181H402.19L404.58 0.71022L439.087 0.660462ZM474.367 0.660462L472.5 3.81558H437.693L439.815 0.654233L474.367 0.660462ZM509.659 0.660462L508.059 3.77206H473.209L475.076 0.616857L509.659 0.660462ZM544.937 0.660462L543.606 3.82181H508.756L510.356 0.71022L544.937 0.660462ZM580.217 0.660462L579.153 3.80935H544.303L545.641 0.648004L580.217 0.660462ZM615.496 0.660462L614.687 3.77206H579.837L580.895 0.623087L615.496 0.660462ZM650.769 0.660462L650.234 3.81558H615.334L616.137 0.703991L650.769 0.660462ZM827.109 0.660462L827.9 3.82181H793L792.477 0.71022L827.109 0.660462ZM862.37 0.660462L863.422 3.80935H828.541L827.75 0.648004L862.37 0.660462ZM897.63 0.660462L898.95 3.82804H864.1L863.042 0.679074L897.63 0.660462ZM932.885 0.660462L934.472 3.80313H899.622L898.303 0.635545L932.885 0.660462ZM968.146 0.660462L970.013 3.82804H935.163L933.582 0.685303L968.146 0.660462ZM1003.4 0.660462L1005.52 3.80313H970.716L968.849 0.635545L1003.4 0.660462ZM1038.66 0.660462L1041.04 3.81558H1006.3L1004.19 0.672921L1038.66 0.660462ZM1109.17 0.660462L1112.07 3.77206L1077.36 3.80313L1074.73 0.641774L1109.17 0.660462ZM1179.67 0.660462L1183.11 3.82181H1148.48L1145.3 0.666691L1179.67 0.660462ZM1214.91 0.660462L1218.64 3.8405H1184.04L1180.6 0.679074L1214.91 0.660462ZM1254.82 6.10575L1259.03 11.0096L1224.11 9.34801L1220.17 4.46905L1254.82 6.10575ZM1100.48 209.119L1096.31 200.07H1142.51L1147.19 209.087L1100.48 209.119ZM863.434 209.119L861.872 200.07H908.129L910.195 209.094L863.434 209.119ZM223.921 4.47528L258.715 4.41299L254.981 9.34801H219.913L223.921 4.47528ZM614.587 4.47528L613.729 9.41645H578.481L579.644 4.50635L614.587 4.47528ZM1219.35 4.4379L1223.3 9.33555H1188.23L1184.55 4.44413L1219.35 4.4379ZM205.998 199.398L211.661 190.598H257.265L252.118 199.417L205.998 199.398ZM255.286 9.97032H290.422L286.93 14.9986H251.514L255.286 9.97032ZM505.9 10.0263L504.163 15.036H468.629L470.645 9.99524L505.9 10.0263ZM577.69 10.0263L576.545 15.0733H540.992L542.436 10.0325L577.69 10.0263ZM721.29 10.0263V15.0547H685.731L686.011 10.0201L721.29 10.0263ZM793.075 10.0263L793.647 15.0609H758.094L757.808 10.0201L793.075 10.0263ZM1187.91 9.93295L1191.68 14.9862H1156.28L1152.79 9.9641L1187.91 9.93295ZM212.06 189.964L217.523 181.357H262.598L257.619 189.939L212.06 189.964ZM165.765 189.964L171.733 181.351H216.789L211.319 189.957L165.765 189.964ZM287.267 15.6086H322.739L319.441 20.724H283.669L287.267 15.6086ZM395.214 15.6086L392.532 20.7365H356.711L359.705 15.5961L395.214 15.6086ZM467.708 15.6086L465.623 20.7302H429.765L432.155 15.6023L467.708 15.6086ZM757.503 15.6086L757.752 20.78H721.869L721.912 15.6334L757.503 15.6086ZM938.598 15.6086L940.315 20.7488H904.426L903.02 15.6086H938.598ZM1159.47 20.7053H1123.68L1120.45 15.5774H1155.92L1159.47 20.7053ZM1224.81 180.697L1219.54 172.308H1264.08L1269.83 180.691L1224.81 180.697ZM1179.04 180.697L1174.24 172.302H1218.81L1224.08 180.691L1179.04 180.697ZM319.802 21.3027H355.629L352.61 26.5364H316.46L319.802 21.3027ZM465.368 21.3526L463.296 26.5862H427.083L429.466 21.3401L465.368 21.3526ZM538.522 21.3526L537.09 26.5987H500.852L502.602 21.3463L538.522 21.3526ZM575.083 21.3526L573.963 26.6173H537.738L539.163 21.365L575.083 21.3526ZM611.638 21.3526L610.816 26.6609L574.597 26.6111L575.724 21.3463L611.638 21.3526ZM684.711 21.3526L684.461 26.7605L648.267 26.6796L648.803 21.3401L684.711 21.3526ZM721.241 21.3526V26.7729H685.084L685.333 21.365L721.241 21.3526ZM1050.2 21.2903L1052.92 26.524H1016.72L1014.33 21.2841L1050.2 21.2903ZM1126.64 26.5115H1090.5L1087.5 21.2903H1123.33L1126.64 26.5115ZM1038.12 171.773L1034.79 163.577H1078.91L1082.7 171.748L1038.12 171.773ZM721.359 171.954V164.598L765.326 164.467L765.91 171.935L721.359 171.954ZM359.418 171.761L363.214 163.577H407.337L403.995 171.767L359.418 171.761ZM314.17 171.761L318.432 163.59H362.523L358.733 171.773L314.17 171.761ZM268.933 171.761L273.669 163.565H317.729L313.466 171.736L268.933 171.761ZM352.946 27.2708H389.152L386.359 32.6103H349.828L352.946 27.2708ZM647.558 27.4326L647.035 33.3135L610.524 33.0459L611.327 27.389L647.558 27.4326ZM758.038 27.5197L758.231 33.6122L721.794 33.7118L721.838 27.4886L758.038 27.5197ZM905.528 27.3206L906.903 32.7285L870.298 32.8218L869.259 27.333L905.528 27.3206ZM942.45 27.3206L944.155 32.685L907.544 32.7409L906.175 27.333L942.45 27.3206ZM979.378 27.3206L981.444 32.685H944.809L943.103 27.3206H979.378ZM1090.11 27.277L1093.16 32.629H1056.63L1053.91 27.277H1090.11ZM676.819 163.901L677.566 158.673L720.761 159.128L720.724 164.013L676.819 163.901ZM386.738 33.2575L423.331 33.2886L420.841 38.7526H383.9L386.738 33.2575ZM497.977 33.326L496.241 38.8397L459.201 38.765L461.323 33.3073L497.977 33.326ZM795.365 33.9483L795.739 41.3477L759.022 42.3371L758.859 34.247L795.365 33.9483ZM1075.38 154.348L1071.71 146.538H1114.89L1118.93 154.33L1075.38 154.348ZM458.354 39.3562L456.207 44.9944L418.775 44.9198L421.326 39.3189L458.354 39.3562ZM984.089 39.3562L986.18 44.9571L948.716 45.1687L947.012 39.3998L984.089 39.3562ZM1021.78 39.3064L1024.27 44.9073L986.846 44.9508L984.761 39.35L1021.78 39.3064ZM807.569 154.043L840.62 132.2L842.667 145.269L833.905 151.162C833.837 151.208 833.789 151.278 833.773 151.359C833.757 151.439 833.773 151.523 833.818 151.591C833.847 151.634 833.886 151.669 833.932 151.693C833.977 151.717 834.028 151.729 834.079 151.728C834.141 151.73 834.202 151.713 834.254 151.678L842.773 145.947L843.458 150.397L835.604 151.784L807.569 154.043ZM764.006 157.155H763.571L763.272 151.641L801.987 137.042L803.953 154.317L764.006 157.155ZM678.319 157.155L639.132 154.348L641.148 137.085L679.732 151.629L679.408 157.13L678.319 157.155ZM636.742 154.218L602.657 131.771L604.413 116.542L640.582 136.88L638.51 154.348L636.742 154.218ZM610.288 152.12L600.56 145.605L602.558 132.455L635.379 154.068L635.454 154.118L610.288 152.12ZM456.662 45.6478L494.2 45.847L492.476 51.9644L454.459 51.4354L456.662 45.6478ZM721.216 57.1172L721.247 76.7575L684.337 74.6043L684.505 56.0654L721.216 57.1172ZM988.595 51.4416L950.596 51.9644L948.916 45.8408L986.435 45.6292L988.595 51.4416ZM856.196 148.474L881.711 131.808L882.956 137.185L870.031 145.325C869.995 145.346 869.965 145.374 869.94 145.407C869.916 145.44 869.899 145.478 869.889 145.518C869.88 145.558 869.879 145.6 869.886 145.64C869.893 145.681 869.909 145.72 869.931 145.754C869.959 145.798 869.997 145.835 870.043 145.86C870.089 145.885 870.14 145.898 870.193 145.897C870.252 145.896 870.31 145.879 870.36 145.847L883.143 137.801L884.076 140.396L878.339 143.663C878.268 143.705 878.217 143.772 878.195 143.851C878.173 143.93 878.182 144.014 878.221 144.086C878.248 144.135 878.287 144.176 878.335 144.205C878.383 144.233 878.438 144.248 878.494 144.248C878.549 144.245 878.602 144.23 878.65 144.204L884.419 140.919L885.259 141.653L883.89 142.331C883.816 142.369 883.761 142.433 883.735 142.512C883.71 142.59 883.716 142.675 883.753 142.748C883.773 142.781 883.798 142.811 883.828 142.835L882.552 143.246L870.106 146.495L856.196 148.474ZM848.592 149.556L844.099 150.347L843.364 145.623L880.081 122.84L881.606 131.154L855.468 148.212C855.409 148.253 855.365 148.313 855.344 148.382C855.324 148.451 855.328 148.525 855.357 148.592L848.592 149.556ZM593.977 149.556L588.102 148.747L561.572 131.279L563.09 122.927L599.807 145.903L599.086 150.484L593.977 149.556ZM492.887 52.568L531.054 54.1861L529.809 62.6247L491.138 59.2953L492.887 52.568ZM950.067 52.568L951.785 59.2828L913.145 62.6122L911.944 54.1736L950.067 52.568ZM883.634 137.465L922.971 118.615L924.795 122.878L884.581 140.097L883.634 137.465ZM882.234 131.447L920.936 112.23L922.754 118.036L883.467 136.855L882.234 131.447ZM839.226 115.385L837.359 98.1155L874.829 83.9889L876.31 97.4683L839.226 115.385ZM566.694 97.4745L568.138 84.0262L605.638 98.2027L603.84 115.54L566.694 97.4745ZM517.724 123.338L558.025 140.763L557.129 141.516L515.682 126.636L517.724 123.338ZM556.631 142.163H556.6H557.042L557.776 142.53L556.631 142.163ZM515.321 127.165L554.447 141.211L513 130.215L515.321 127.165ZM512.596 130.75L552.592 141.367L509.995 134.291L512.596 130.75ZM561.267 143.576L557.751 141.802L558.641 141.062L564.46 144.404L561.267 143.576ZM558.436 140.271L517.985 122.79L519.914 118.434L559.456 137.614L558.436 140.271ZM559.68 137.042L520.175 117.887L521.955 112.037L560.9 131.565L559.68 137.042ZM561.025 130.93L522.136 111.408L523.891 103.94L562.556 122.542L561.025 130.93ZM562.649 121.938L524.003 103.318L525.652 94.4501L564.329 110.979L562.649 121.938ZM564.423 110.375L525.764 93.8527L527.37 84.1009L566.04 97.8604L564.423 110.375ZM530.357 63.3279L568.841 69.9929L567.596 83.1986L529.012 72.8494L530.357 63.3279ZM568.187 83.4039L569.432 70.1423L607.219 79.8691L605.701 97.5741L568.187 83.4039ZM528.882 73.4468L567.515 83.8084L566.078 97.2131L527.426 83.4599L528.882 73.4468ZM607.81 80.0061L645.032 90.6975L643.314 112.653L606.286 97.7732L607.81 80.0061ZM645.641 90.8531L682.924 99.3477L681.163 127.271L643.918 112.889L645.641 90.8531ZM683.547 99.4473L721.197 103.542V132.25L681.804 127.439L683.547 99.4473ZM721.819 103.542L759.414 99.3104L761.243 127.377L721.788 132.25L721.819 103.542ZM761.859 127.19L760.029 99.1859L797.319 90.6912L799.043 112.715L761.859 127.19ZM799.653 112.485L797.929 90.5544L835.162 79.9065L836.649 97.6737L799.653 112.485ZM912.591 63.2719L913.836 72.812L875.302 83.1301L874.126 69.9245L912.591 63.2719ZM876.87 97.1945L875.389 83.7586L913.972 73.4344L915.41 83.516L876.87 97.1945ZM873.541 70.0552L874.723 83.3168L837.253 97.4372L835.772 79.7385L873.541 70.0552ZM915.478 84.1444L917.028 93.9771L878.581 110.338L876.944 97.8293L915.478 84.1444ZM917.141 94.5994L918.87 103.517L880.461 121.826L878.669 110.973L917.141 94.5994ZM919.007 104.14L920.75 111.607L882.091 130.8L880.567 122.473L919.007 104.14ZM925.056 123.431L927.085 126.68L888.227 140.477L885.806 141.336L884.96 140.601L925.056 123.431ZM927.433 127.215L929.649 130.202L888.719 140.962L927.433 127.215ZM885.812 142.001H886.292L885.476 142.182L885.812 142.001ZM889.659 141.379L930.047 130.756L932.536 134.291L889.659 141.379ZM933.221 134.198L930.732 130.644L973.423 125L976.323 130.968L933.221 134.198ZM930.29 130.078L928.068 127.078L970.261 118.926L973.093 124.415L930.29 130.078ZM927.676 126.524L925.648 123.263L967.343 112.977L969.963 118.347L927.676 126.524ZM925.342 122.697L923.513 118.422L964.586 106.753L967.075 112.404L925.342 122.697ZM923.295 117.843L921.472 112.024L962.109 99.9327L964.38 106.156L923.295 117.843ZM921.31 111.427L919.567 103.959L959.775 92.4649L961.91 99.3104L921.31 111.427ZM919.443 103.337L917.706 94.4314L957.622 84.3934L959.607 91.8612L919.443 103.337ZM917.576 93.8153L916.033 84.0013L955.637 76.0605L957.448 83.796L917.576 93.8153ZM915.939 83.3915L914.508 73.341L953.714 67.7962L955.512 75.4569L915.939 83.3915ZM914.427 72.7249L913.182 63.2221L951.891 59.8927L953.577 67.1863L914.427 72.7249ZM911.253 54.2109L912.454 62.6869L874.051 69.3333L873.18 57.7084L911.253 54.2109ZM872.557 57.783L873.441 69.4577L835.679 79.1411L834.807 63.2968L872.557 57.783ZM834.192 63.3839L835.069 79.2904L797.842 89.9383L796.908 69.7191L834.192 63.3839ZM796.292 69.8125L797.226 90.1001L759.955 98.5885L759.295 75.0213L796.292 69.8125ZM758.673 75.0773L759.333 98.7254L721.763 102.951V77.3612L758.673 75.0773ZM721.122 77.3301V102.926L683.503 98.8312L684.181 75.1831L721.122 77.3301ZM682.906 98.7192L645.635 90.2307L646.594 69.8996L683.578 75.1208L682.906 98.7192ZM645.019 90.0689L607.81 79.3775L608.7 63.4524L645.977 69.8063L645.019 90.0689ZM607.194 79.2157L569.42 69.4889L570.328 57.808L608.085 63.3591L607.194 79.2157ZM568.804 69.3644L530.357 62.6994L531.601 54.2172L569.7 57.7333L568.804 69.3644ZM491.02 59.9052L529.759 63.2408L528.415 72.7187L489.209 67.149L491.02 59.9052ZM489.059 67.7526L528.328 73.3535L526.878 83.3106L487.224 75.3698L489.059 67.7526ZM487.075 75.9735L526.784 83.9204L525.185 93.6473L485.12 83.6466L487.075 75.9735ZM484.965 84.2503L525.08 94.2634L523.436 103.125L482.986 91.631L484.965 84.2503ZM482.793 92.2222L523.312 103.729L521.557 111.197L480.633 99.0615L482.793 92.2222ZM480.434 99.6464L521.395 111.788L519.616 117.656L478.163 105.901L480.434 99.6464ZM477.945 106.492L519.41 118.248L517.475 122.604L475.443 112.236L477.945 106.492ZM475.182 112.79L517.163 123.145L515.116 126.456L472.543 118.241L475.182 112.79ZM472.251 118.82L514.718 127.01L512.384 130.065L469.394 124.353L472.251 118.82ZM469.095 124.937L511.961 130.638L509.347 134.198L466.152 130.918L469.095 124.937ZM465.86 131.522L508.98 134.789L506.198 139.643L462.829 138.187L465.86 131.522ZM509.652 134.857L552.312 141.945L550.271 143.327L506.889 139.693L509.652 134.857ZM553.215 142.095L556.463 142.717L557.938 143.339L567.073 145.717L551.217 143.451L553.215 142.095ZM572.507 146.501L566.781 145.007L559.033 140.558L560.06 137.963L573.788 146.675L572.507 146.501ZM575.282 146.893L560.259 137.353L561.504 131.914L586.726 148.523L575.282 146.893ZM599.969 145.213L563.253 122.249L564.932 111.321L601.967 132.069L599.969 145.213ZM602.048 131.403L565.032 110.662L566.657 98.128L603.803 116.175L602.048 131.403ZM606.28 98.4205L643.308 113.3L640.644 136.164L604.469 115.827L606.28 98.4205ZM643.905 113.53L681.175 127.918L679.769 150.988L641.235 136.463L643.905 113.53ZM681.792 128.062L721.222 132.878L721.184 155.966L680.391 151.156L681.792 128.062ZM721.844 132.878L761.337 127.999L762.581 151.143L721.776 155.966L721.844 132.878ZM761.953 127.856L799.167 113.381L801.899 136.407L763.216 150.994L761.953 127.856ZM802.49 136.102L799.765 113.145L836.768 98.3271L838.672 115.665L802.49 136.102ZM876.403 98.0969L878.046 110.624L841.118 131.161L839.338 116.007L876.403 98.0969ZM878.146 111.278L879.938 122.143L843.221 144.914L841.186 131.845L878.146 111.278ZM882.708 143.794L886.547 142.549L889.54 141.989L891.407 143.389L875.488 145.661L882.708 143.794ZM892.297 143.283L890.393 141.858L932.985 134.826L935.679 139.674L892.297 143.283ZM936.364 139.624L933.656 134.758L976.659 131.534L979.652 138.149L936.364 139.624ZM980.324 138.131L977.331 131.509L1020.13 130.47L1023.37 137.72L980.324 138.131ZM977.045 130.893L974.145 124.913L1016.7 122.909L1019.85 129.854L977.045 130.893ZM973.84 124.309L971.002 118.814L1013.32 115.659L1016.43 122.299L973.84 124.309ZM970.697 118.216L968.083 112.846L1010.06 108.583L1013.02 115.055L970.697 118.216ZM967.803 112.248L965.314 106.604L1006.92 101.538L1009.78 107.986L967.803 112.248ZM965.071 106.025L962.806 99.802L1003.98 94.4998L1006.67 100.966L965.071 106.025ZM962.582 99.1797L960.454 92.3342L1001.2 87.2685L1003.73 93.89L962.582 99.1797ZM960.279 91.7119L958.3 84.244L998.533 79.95L1000.97 86.6276L960.279 91.7119ZM958.145 83.6591L956.328 75.9548L996.032 72.7187L998.321 79.3713L958.145 83.6591ZM956.184 75.3449L954.411 67.7153L993.567 65.5558L995.82 72.1151L956.184 75.3449ZM954.268 67.0992L952.581 59.8367L991.165 58.6605L993.387 64.9459L954.268 67.0992ZM952.401 59.2144L950.689 52.5245L988.756 52.0017L990.885 58.0444L952.401 59.2144ZM948.207 45.791L949.886 51.9271L911.838 53.5326L910.593 46.3884L948.207 45.791ZM909.965 46.4133L911.21 53.5824L873.186 57.0674L872.389 47.8322L909.965 46.4133ZM871.767 47.8695L872.563 57.1421L834.839 62.6558L834.359 50.3152L871.767 47.8695ZM833.737 50.3588L834.217 62.7492L796.945 69.0844L796.603 53.3335L833.737 50.3588ZM795.981 53.377L796.329 69.184L759.339 74.3865L759.121 55.9535L795.981 53.377ZM758.498 55.9845L758.717 74.455L721.801 76.7078L721.77 57.0674L758.498 55.9845ZM683.646 74.4861L646.674 69.2711L646.986 53.4455L683.814 55.9845L683.646 74.4861ZM646.052 69.1715L608.788 62.8239L609.254 50.3775L646.363 53.3895L646.052 69.1715ZM608.165 62.7243L570.434 57.1794L571.23 47.9006L608.632 50.3401L608.165 62.7243ZM569.818 57.1234L531.763 53.6198L533.008 46.4506L570.59 47.8882L569.818 57.1234ZM531.141 53.5762L493.042 51.9581L494.773 45.8221L532.392 46.4444L531.141 53.5762ZM454.16 52.0266L492.24 52.5556L490.491 59.2579L451.951 58.0569L454.16 52.0266ZM451.727 58.673L490.311 59.8802L488.506 67.0867L449.393 64.9833L451.727 58.673ZM449.194 65.5932L488.4 67.7028L486.577 75.2826L446.885 72.1026L449.194 65.5932ZM446.649 72.7063L486.408 75.8926L484.461 83.5408L444.197 79.3339L446.649 72.7063ZM443.973 79.9376L484.299 84.1444L482.307 91.4941L441.484 86.559L443.973 79.9376ZM441.253 87.169L482.133 92.1039L479.974 98.9494L438.639 93.8028L441.253 87.169ZM438.403 94.3754L479.768 99.5282L477.503 105.751L435.671 100.841L438.403 94.3754ZM435.416 101.457L477.26 106.367L474.771 112.093L432.603 107.923L435.416 101.457ZM432.304 108.521L474.46 112.684L471.815 118.136L429.317 115.024L432.304 108.521ZM429.037 115.609L471.51 118.721L468.647 124.259L425.957 122.28L429.037 115.609ZM425.677 122.909L468.342 124.881L465.399 130.874L422.459 129.866L425.677 122.909ZM422.192 130.482L465.132 131.49L462.094 138.162L418.999 137.739L422.192 130.482ZM418.7 138.361L461.802 138.778L458.778 146.009L415.402 145.928L418.7 138.361ZM462.474 138.79L505.819 140.246L502.975 146.52L459.449 146.015L462.474 138.79ZM506.484 140.284L549.742 143.906L547.253 147.913L503.653 146.538L506.484 140.284ZM550.433 143.974L572.319 147.086L592.713 149.992L591.4 150.565L547.956 147.932L550.433 143.974ZM593.883 150.197L599.285 151.143L600.187 151.299L592.719 150.677L593.883 150.197ZM606.883 151.84L599.689 150.596L600.368 146.277L608.93 152.015L606.883 151.84ZM680.317 151.84L721.147 156.651V158.412L680.024 157.217L680.317 151.84ZM721.757 156.651L762.6 151.828L762.892 157.223L721.757 158.393V156.651ZM804.525 154.323L802.534 136.83L838.716 116.399L840.502 131.578L806.274 154.199L804.525 154.323ZM848.542 150.204L849.662 150.739L842.089 151.361L848.542 150.204ZM850.895 150.639L849.65 150.017L870.081 147.104L891.986 143.993L894.357 147.982L850.895 150.639ZM895.079 147.957L892.69 143.931L935.953 140.334L938.648 146.557L895.079 147.957ZM939.32 146.557L936.612 140.303L979.882 138.828L982.813 146.09L939.32 146.557ZM983.504 146.084L980.573 138.815L1023.63 138.404L1026.84 145.972L983.504 146.084ZM1027.52 145.972L1024.3 138.398H1067.17L1070.73 145.99L1027.52 145.972ZM1024.04 137.776L1020.8 130.526L1063.34 130.302L1066.88 137.77L1024.04 137.776ZM1020.52 129.904L1017.36 122.952L1059.57 122.486L1063.04 129.68L1020.52 129.904ZM1017.08 122.336L1013.97 115.696L1055.89 114.831L1059.28 121.863L1017.08 122.336ZM1013.67 115.08L1010.72 108.614L1052.28 107.369L1055.58 114.215L1013.67 115.08ZM1010.44 107.998L1007.58 101.557L1048.84 100.082L1051.98 106.772L1010.44 107.998ZM1007.33 100.947L1004.65 94.4874L1045.47 92.8694L1048.58 99.4722L1007.33 100.947ZM1004.4 93.8775L1001.87 87.2747L1042.26 85.7563L1045.19 92.2595L1004.4 93.8775ZM1001.64 86.6649L999.205 80.0061L1039.11 78.7615L1041.99 85.1713L1001.64 86.6649ZM998.988 79.39L996.704 72.7623L1036.09 71.8039L1038.83 78.1204L998.988 79.39ZM996.498 72.1462L994.252 65.6056L1033.11 65.0393L1035.83 71.1878L996.498 72.1462ZM994.009 64.9895L991.8 58.7165L1030.2 58.4116L1032.82 64.417L994.009 64.9895ZM991.576 58.1004L989.453 52.0702L1027.33 51.9084L1029.94 57.7893L991.576 58.1004ZM989.23 51.4479L987.064 45.6416L1024.53 45.5981L1027.02 51.2861L989.23 51.4479ZM946.358 39.462L948.063 45.2371L910.513 45.8595L909.268 39.6363L946.358 39.462ZM908.621 39.6549L909.865 45.8781L872.346 47.297L871.518 40.1092L908.621 39.6549ZM870.914 40.103L871.742 47.3094L834.403 49.7552L833.949 40.9182L870.914 40.103ZM833.295 40.9307L833.75 49.7987L796.628 52.7734L796.435 41.9948L833.295 40.9307ZM795.813 42.0073L796.006 52.8169L759.152 55.3934L759.096 42.9967L795.813 42.0073ZM758.474 43.003L758.53 55.4493L721.813 56.5322L721.85 43.4137L758.474 43.003ZM721.184 56.5073L684.467 55.4556L684.598 43.0092L721.197 43.3888L721.184 56.5073ZM683.845 55.4245L647.023 52.8854L647.278 42.0322L683.995 42.9967L683.845 55.4245ZM646.4 52.8356L609.31 49.8236L609.821 40.9369L646.656 42.0135L646.4 52.8356ZM608.688 49.78L571.349 47.3468L572.239 40.1092L609.229 40.9244L608.688 49.78ZM570.727 47.2908L533.201 45.847L534.52 39.6238L571.61 40.0781L570.727 47.2908ZM532.566 45.8283L495.015 45.206L496.776 39.4371L533.885 39.6051L532.566 45.8283ZM494.368 45.206L456.886 45.0131L459.033 39.3686L496.123 39.4433L494.368 45.206ZM418.501 45.5545L455.984 45.6292L453.787 51.4105L415.944 51.2736L418.501 45.5545ZM415.663 51.8897L453.556 52.0328L451.353 58.0569L413.013 57.7644L415.663 51.8897ZM412.732 58.3805L451.123 58.673L448.821 64.9646L410.032 64.3423L412.732 58.3805ZM409.751 64.9833L448.597 65.6056L446.275 72.0901L406.957 71.1753L409.751 64.9833ZM406.677 71.7728L446.051 72.6938L443.612 79.2966L403.784 78.052L406.677 71.7728ZM403.509 78.6868L443.382 79.9314L440.892 86.5467L400.578 85.0966L403.509 78.6868ZM400.298 85.6941L440.612 87.1378L438.011 93.7344L397.211 92.216L400.298 85.6941ZM396.969 92.8321L437.8 94.3443L435.011 100.829L393.802 99.4099L396.969 92.8321ZM393.571 100.014L434.812 101.426L431.993 107.886L390.391 106.735L393.571 100.014ZM390.099 107.351L431.713 108.502L428.726 114.98L386.782 114.202L390.099 107.351ZM386.483 114.819L428.44 115.596L425.359 122.286L383.122 121.832L386.483 114.819ZM382.823 122.448L425.073 122.909L421.862 129.866L379.326 129.667L382.823 122.448ZM379.028 130.289L421.588 130.482L418.37 137.745L375.499 137.695L379.028 130.289ZM375.207 138.317L418.097 138.367L414.798 145.941H371.535L375.207 138.317ZM371.28 146.563H414.531L411.263 154.373H367.62L371.28 146.563ZM415.209 146.563L458.61 146.644L455.66 154.361H411.936L415.209 146.563ZM459.276 146.65L502.8 147.148L500.124 154.479L456.326 154.361L459.276 146.65ZM503.46 147.16L547.023 148.536L544.595 154.865L500.766 154.479L503.46 147.16ZM547.701 148.567L590.796 151.174H591.064L589.041 155.686L545.273 154.852L547.701 148.567ZM591.717 151.249L606.877 152.456L634.62 154.691L633.257 156.906L589.695 155.73L591.717 151.249ZM635.317 154.74L638.771 154.983L677.572 157.709L677.249 158.026L633.979 156.925L635.317 154.74ZM678.413 157.765L693.305 158.194L678.133 158.039L678.413 157.765ZM763.259 157.808H763.29L763.863 157.771L764.168 158.051L749.506 158.207L763.259 157.808ZM765.064 158.032L764.71 157.703L804.283 154.933H804.326L806.436 154.784L807.058 154.734L808.384 156.912L765.064 158.032ZM809.081 156.894L807.724 154.678L835.641 152.45L850.651 151.255L852.631 155.724L809.081 156.894ZM853.321 155.711L851.336 151.212L894.737 148.567L897.095 154.883L853.321 155.711ZM897.755 154.871L895.384 148.536L938.946 147.154L941.591 154.485L897.755 154.871ZM942.245 154.479L939.6 147.148L983.1 146.681L986.031 154.367L942.245 154.479ZM986.697 154.367L983.766 146.675L1027.12 146.563L1030.4 154.367H986.697ZM1031.07 154.367L1027.8 146.563H1071.04L1074.71 154.373L1031.07 154.367ZM1071.43 145.928L1067.87 138.336H1110.62L1114.58 145.972L1071.43 145.928ZM1067.58 137.714L1064.05 130.246H1106.37L1110.29 137.714H1067.58ZM1063.75 129.624L1060.29 122.429L1102.23 122.349L1106.04 129.599L1063.75 129.624ZM1059.99 121.813L1056.6 114.775L1098.17 114.638L1101.91 121.726L1059.99 121.813ZM1056.3 114.153L1052.99 107.307L1094.23 107.058L1097.85 113.991L1056.3 114.153ZM1052.69 106.685L1049.58 99.995L1090.37 99.6776L1093.93 106.442L1052.69 106.685ZM1049.25 99.3789L1046.14 92.7822L1086.59 92.4275L1090.02 99.0553L1049.25 99.3789ZM1045.87 92.1599L1042.94 85.6692L1082.91 85.3331L1086.26 91.8115L1045.87 92.1599ZM1042.66 85.0531L1039.79 78.6494L1079.36 78.3507L1082.6 84.717L1042.66 85.0531ZM1039.51 78.0333L1036.77 71.723L1075.85 71.5301L1079.04 77.7533L1039.51 78.0333ZM1036.49 71.1007L1033.78 64.9584L1072.46 64.8153L1075.53 70.914L1036.49 71.1007ZM1033.51 64.3361L1030.9 58.3307L1069.1 58.2374L1072.15 64.1992L1033.51 64.3361ZM1030.63 57.7084L1028.03 51.8337H1065.82L1068.79 57.6399L1030.63 57.7084ZM1027.76 51.2114L1025.22 45.5234L1062.59 45.486L1065.51 51.1865L1027.76 51.2114ZM1024.94 44.9011L1022.45 39.3002H1059.45L1062.29 44.9011H1024.94ZM1022.16 38.6779L1019.72 33.2201H1056.33L1059.12 38.6841L1022.16 38.6779ZM1021.53 38.6779L984.55 38.7152L982.44 33.2451H1019.06L1021.53 38.6779ZM983.884 38.7214L946.85 38.765L945.101 33.2575H981.774L983.884 38.7214ZM946.202 38.765L909.156 38.9517L907.793 33.3135L944.448 33.2575L946.202 38.765ZM907.152 33.3135L908.521 38.9579L871.487 39.3936L870.498 33.4069L907.152 33.3135ZM869.869 33.4069L870.859 39.406L833.905 40.2212L833.283 33.6122L869.869 33.4069ZM832.629 33.6184L833.251 40.2337L796.423 41.2978L796.05 33.9047L832.629 33.6184ZM758.343 34.1972L758.505 42.2874L721.888 42.6732V34.2781L758.343 34.1972ZM721.247 42.6918L684.655 42.3122L684.816 34.2221L721.259 34.3092L721.247 42.6918ZM684.032 42.2997L647.353 41.3352L647.708 33.9047L684.194 34.2034L684.032 42.2997ZM646.73 41.3165L609.92 40.2461L610.542 33.6309L647.085 33.8984L646.73 41.3165ZM609.292 40.2275L572.344 39.4184L573.309 33.4131L609.92 33.6247L609.292 40.2275ZM571.716 39.406L534.682 38.9517L536.032 33.3135L572.68 33.4069L571.716 39.406ZM534.041 38.9455L496.988 38.7775L498.724 33.2637L535.397 33.3135L534.041 38.9455ZM458.628 38.7028H421.644L424.133 33.2388H460.769L458.628 38.7028ZM383.695 39.3251H420.673L418.122 44.926H380.783L383.695 39.3251ZM417.842 45.5483L415.265 51.2612L377.534 51.2176L380.465 45.5296L417.842 45.5483ZM377.21 51.8399L414.979 51.8835L412.334 57.752L374.174 57.6524L377.21 51.8399ZM373.85 58.2747L412.054 58.3743L409.359 64.3485L370.776 64.2427L373.85 58.2747ZM370.446 64.865L409.079 64.9708L406.298 71.138L367.259 70.9264L370.446 64.865ZM366.929 71.5487L406.018 71.7604L403.13 78.052L363.706 77.7719L366.929 71.5487ZM363.383 78.3942L402.85 78.6743L399.925 85.0531L360.022 84.7482L363.383 78.3942ZM359.699 85.3705L399.633 85.6754L396.602 92.1911L356.313 91.8426L359.699 85.3705ZM355.965 92.4649L396.284 92.8134L393.173 99.3726L352.448 99.0988L355.965 92.4649ZM352.131 99.7211L392.886 99.995L389.707 106.716L348.559 106.486L352.131 99.7211ZM348.229 107.108L389.408 107.338L386.091 114.184L344.576 114.022L348.229 107.108ZM344.252 114.638L385.792 114.806L382.431 121.82L340.506 121.733L344.252 114.638ZM340.176 122.355L382.126 122.442L378.629 129.655L336.312 129.611L340.176 122.355ZM336.019 130.233L378.337 130.277L374.808 137.689H332.129L336.019 130.233ZM331.793 138.324H374.51L370.881 145.947H327.761L331.793 138.324ZM327.437 146.563H370.595L366.936 154.348H323.374L327.437 146.563ZM322.994 154.971H366.6L362.866 162.974H318.812L322.994 154.971ZM367.284 154.971H410.958L407.61 162.961H363.519L367.284 154.971ZM411.631 154.971H455.386L452.417 162.955H408.283L411.631 154.971ZM456.046 154.971L499.863 155.089L497.255 162.98H453.071L456.046 154.971ZM500.522 155.089L544.365 155.475L542.106 163.023L497.921 162.98L500.522 155.089ZM545.012 155.481L588.786 156.315L586.919 163.247L542.734 163.03L545.012 155.481ZM589.427 156.333L632.989 157.51L631.608 163.534L587.535 163.247L589.427 156.333ZM633.612 157.528L676.944 158.63L676.197 163.87L632.236 163.54L633.612 157.528ZM721.359 159.097L764.573 158.648L765.195 163.851L721.29 163.982L721.359 159.097ZM765.848 163.851L765.226 158.642L808.583 157.516L809.828 163.559L765.848 163.851ZM810.462 163.559L809.217 157.497L852.817 156.333L854.573 163.229L810.462 163.559ZM855.182 163.229L853.415 156.315L897.207 155.487L899.348 163.042L855.182 163.229ZM899.989 163.036L897.842 155.481L941.697 155.089L944.186 162.98L899.989 163.036ZM944.834 162.98L942.344 155.089L986.155 154.977L988.987 162.967L944.834 162.98ZM986.815 154.977H1030.55L1033.79 162.961H989.653L986.815 154.977ZM1031.22 154.977H1074.89L1078.55 162.98H1034.47L1031.22 154.977ZM1079.24 162.974L1075.57 154.971H1119.13L1123.27 162.961L1079.24 162.974ZM1119.88 154.964H1163.44L1168.01 162.961H1123.98L1119.88 154.964ZM1119.56 154.342L1115.49 146.551H1158.59L1163.11 154.348L1119.56 154.342ZM1115.16 145.928L1111.22 138.292H1153.87L1158.23 145.916L1115.16 145.928ZM1110.89 137.67L1106.97 130.202H1149.2L1153.51 137.627L1110.89 137.67ZM1106.64 129.58L1102.85 122.33H1144.66L1148.84 129.611L1106.64 129.58ZM1102.52 121.708L1098.79 114.619H1140.19L1144.32 121.733L1102.52 121.708ZM1098.44 113.997L1094.82 107.064H1135.82L1139.81 113.985L1098.44 113.997ZM1094.5 106.442L1090.94 99.6776L1131.54 99.6277L1135.46 106.423L1094.5 106.442ZM1090.61 99.0553L1087.18 92.4338L1127.37 92.3902L1131.18 99.0054L1090.61 99.0553ZM1086.88 91.8115L1083.52 85.3393L1123.28 85.2771L1127.02 91.7678L1086.88 91.8115ZM1083.2 84.717L1079.97 78.3569L1119.32 78.3133L1122.92 84.6548L1083.2 84.717ZM1079.65 77.7346L1076.46 71.5114L1115.38 71.4678L1118.96 77.691L1079.65 77.7346ZM1076.14 70.8891L1073.03 64.7966L1111.56 64.7655L1115.02 70.8455L1076.14 70.8891ZM1072.73 64.1743L1069.7 58.2187H1107.81L1111.22 64.1432L1072.73 64.1743ZM1069.38 57.5964L1066.43 51.7901H1104.15L1107.45 57.6212L1069.38 57.5964ZM1066.12 51.1678L1063.22 45.4674H1100.53L1103.79 51.1678H1066.12ZM1062.9 44.8451L1060.07 39.2442H1096.98L1100.17 44.8077L1062.9 44.8451ZM1059.75 38.6219L1056.93 33.1579H1093.5L1096.61 38.6219H1059.75ZM1053.2 27.1899L1055.93 32.5418H1019.35L1016.97 27.1961L1053.2 27.1899ZM1018.68 32.5481H982.098L980.032 27.1837H1016.26L1018.68 32.5481ZM868.612 27.2521L869.651 32.7409L833.084 32.9526L832.356 27.3143L868.612 27.2521ZM831.727 27.3143L832.455 32.9526L795.937 33.2388L795.489 27.3517L831.727 27.3143ZM794.867 27.3517L795.309 33.2451L758.841 33.5251L758.648 27.4388L794.867 27.3517ZM721.159 33.6309L684.729 33.5438L685.016 27.4388H721.278L721.159 33.6309ZM684.107 33.5375L647.645 33.2388L648.168 27.3579L684.393 27.4388L684.107 33.5375ZM609.889 32.9587L573.322 32.7472L574.43 27.2584L610.686 27.3081L609.889 32.9587ZM572.687 32.7409L536.088 32.6476L537.532 27.2334H573.794L572.687 32.7409ZM535.447 32.6476L498.818 32.5978L500.61 27.2334H536.885L535.447 32.6476ZM498.164 32.5978H461.553L463.682 27.2272H499.95L498.164 32.5978ZM460.881 32.5978H424.288L426.778 27.2459H463.028L460.881 32.5978ZM423.604 32.5978L387.049 32.5667L389.843 27.2272H426.075L423.604 32.5978ZM349.455 33.2201H386.023L383.215 38.6966H346.319L349.455 33.2201ZM345.958 39.2877H382.892L379.98 44.8886H342.703L345.958 39.2877ZM379.656 45.5109L376.731 51.1989H339.068L342.342 45.4922L379.656 45.5109ZM338.714 51.8213H376.401L373.365 57.6337H335.322L338.714 51.8213ZM334.98 58.2498H373.066L369.991 64.2179L331.539 64.168L334.98 58.2498ZM331.178 64.7966L369.668 64.8464L366.488 70.9078H327.636L331.178 64.7966ZM327.275 71.5114H366.158L362.897 77.7346L323.691 77.6849L327.275 71.5114ZM323.324 78.3195L362.567 78.3694L359.238 84.7232L319.602 84.661L323.324 78.3195ZM319.26 85.2709L358.927 85.3331L355.529 91.8052L315.507 91.7617L319.26 85.2709ZM315.146 92.384L355.205 92.4275L351.72 99.0677L311.27 99.0054L315.146 92.384ZM310.896 99.6277L351.396 99.69L347.843 106.455L306.969 106.411L310.896 99.6277ZM306.608 107.033L347.514 107.071L343.836 113.985H302.538L306.608 107.033ZM302.177 114.607H343.53L339.797 121.701H298.101L302.177 114.607ZM297.703 122.336H339.46L335.602 129.592H293.446L297.703 122.336ZM293.086 130.227H335.279L331.383 137.695H288.766L293.086 130.227ZM288.411 138.317H331.084L327.045 145.934H283.987L288.411 138.317ZM283.595 146.538H326.691L322.621 154.342H279.058L283.595 146.538ZM322.291 154.977L318.071 162.974H274.048L278.722 155.002L322.291 154.977ZM408.027 163.596H452.212L449.3 171.804H404.704L408.027 163.596ZM452.834 163.596H497.019L494.53 171.773H449.947L452.834 163.596ZM497.691 163.596L541.919 163.639L539.841 171.779H495.221L497.691 163.596ZM542.561 163.646L586.745 163.864L585.115 171.811H540.482L542.561 163.646ZM587.367 163.864L631.477 164.15L630.339 171.86L585.737 171.811L587.367 163.864ZM632.106 164.156L676.129 164.486L675.544 171.954L630.967 171.879L632.106 164.156ZM676.751 164.486L720.724 164.598V171.954H676.166L676.751 164.486ZM766.521 171.954L765.935 164.486L809.964 164.193L811.091 171.879L766.521 171.954ZM811.719 171.867L810.593 164.181L854.709 163.851L856.333 171.823L811.719 171.867ZM856.968 171.823L855.344 163.851L899.528 163.658L901.576 171.792L856.968 171.823ZM902.236 171.823L900.188 163.689L944.404 163.633L946.893 171.811L902.236 171.823ZM947.528 171.823L945.039 163.646H989.223L992.13 171.848L947.528 171.823ZM992.808 171.823L989.902 163.621H1034.09L1037.42 171.817L992.808 171.823ZM1083.35 171.823L1079.55 163.652H1123.65L1127.91 171.86L1083.35 171.823ZM1124.35 163.627H1168.43L1173.15 171.798H1128.59L1124.35 163.627ZM1173.87 171.811L1169.14 163.639H1213.19L1218.39 171.823L1173.87 171.811ZM1168.78 163.017L1164.21 155.02H1207.78L1212.8 163.011L1168.78 163.017ZM1163.86 154.398L1159.35 146.6H1202.42L1207.4 154.41L1163.86 154.398ZM1158.99 145.978L1154.63 138.355H1197.25L1202.04 145.953L1158.99 145.978ZM1154.26 137.732L1149.94 130.308H1192.11L1196.84 137.776L1154.26 137.732ZM1149.59 129.686L1145.41 122.405H1187.1L1191.71 129.667L1149.59 129.686ZM1145.05 121.782L1140.94 114.669H1182.2L1186.7 121.751L1145.05 121.782ZM1140.58 114.047L1136.59 107.127H1177.45L1181.81 114.078L1140.58 114.047ZM1136.23 106.504L1132.3 99.7086H1172.72L1177.08 106.492L1136.23 106.504ZM1131.94 99.0863L1128.12 92.4711H1168.16L1172.33 99.0988L1131.94 99.0863ZM1127.76 91.8488L1124.03 85.358H1163.67L1167.79 91.855L1127.76 91.8488ZM1123.65 84.7357L1120.05 78.3942H1159.25L1163.26 84.717L1123.65 84.7357ZM1119.69 77.7719L1116.11 71.5487L1154.94 71.5177L1158.86 77.7408L1119.69 77.7719ZM1115.75 70.9264L1112.31 64.8464H1150.7L1154.55 70.8953L1115.75 70.9264ZM1111.95 64.2241L1108.53 58.2996H1146.58L1150.32 64.2552L1111.95 64.2241ZM1108.18 57.6773L1104.86 51.8462H1142.51L1146.19 57.6648L1108.18 57.6773ZM1104.5 51.2239L1101.25 45.5234H1138.52L1142.11 51.1989L1104.5 51.2239ZM1100.9 44.9011L1097.72 39.3375H1134.62L1138.13 44.9384L1100.9 44.9011ZM1097.37 38.7152L1094.26 33.2513H1130.79L1134.25 38.6966L1097.37 38.7152ZM1093.87 32.629L1090.83 27.277H1127.03L1130.39 32.6165L1093.87 32.629ZM1086.74 21.4272L1089.76 26.6485H1053.59L1050.89 21.4148L1086.74 21.4272ZM1015.99 26.6796H979.801L977.729 21.4335H1013.62L1015.99 26.6796ZM979.129 26.6796H942.898L941.143 21.4272H977.045L979.129 26.6796ZM942.245 26.6796H906.007L904.57 21.4272H940.49L942.245 26.6796ZM905.366 26.6796H869.134L868.002 21.4272H903.922L905.366 26.6796ZM868.5 26.6796L832.281 26.7418L831.44 21.4335H867.361L868.5 26.6796ZM831.653 26.7418L795.446 26.7792L794.898 21.4335H830.812L831.653 26.7418ZM794.823 26.7792L758.642 26.8663L758.375 21.4645H794.276L794.823 26.7792ZM758.014 26.8663H721.9V21.4458H757.814L758.014 26.8663ZM647.614 26.7792L611.42 26.7356L612.241 21.4272H648.155L647.614 26.7792ZM500.174 26.6609H463.937L466.009 21.4272H501.923L500.174 26.6609ZM426.374 26.6609H390.179L392.88 21.421H428.763L426.374 26.6609ZM389.476 26.6609H353.307L356.319 21.4272H392.177L389.476 26.6609ZM316.043 27.2832H352.231L349.119 32.629H312.626L316.043 27.2832ZM312.222 33.2637H348.751L345.64 38.709H308.786L312.222 33.2637ZM308.369 39.3437H345.254L342.006 44.9446H304.791L308.369 39.3437ZM304.386 45.5296H341.645L338.371 51.2363L300.777 51.1989L304.386 45.5296ZM300.379 51.8399L338.01 51.8772L334.637 57.6773H296.645L300.379 51.8399ZM334.27 58.3058L330.823 64.2302H292.5L296.278 58.2809L334.27 58.3058ZM292.065 64.8588H330.462L326.921 70.9513L288.188 70.9078L292.065 64.8588ZM287.789 71.5239L326.56 71.5674L322.957 77.7533H283.8L287.789 71.5239ZM283.433 78.3694H322.639L318.905 84.7108H279.388L283.433 78.3694ZM279.002 85.3456H318.544L314.81 91.8364H274.876L279.002 85.3456ZM274.459 92.4275H314.431L310.541 99.049H270.19L274.459 92.4275ZM269.792 99.7024H310.18L306.26 106.486H265.479L269.792 99.7024ZM265.081 107.108H305.892L301.823 114.059H260.619L265.081 107.108ZM260.221 114.657H301.462L297.354 121.764H255.703L260.221 114.657ZM255.305 122.374H297L292.737 129.642H250.637L255.305 122.374ZM250.232 130.265H292.37L288.063 137.732H245.503L250.232 130.265ZM245.111 138.355H287.696L283.24 145.959H240.226L245.111 138.355ZM239.809 146.613H282.879L278.367 154.423H234.849L239.809 146.613ZM234.457 155.033H278.019L273.345 163.005H229.335L234.457 155.033ZM228.918 163.646H272.972L268.23 171.773H223.703L228.918 163.646ZM267.875 172.451L262.965 180.853H217.934L223.317 172.47L267.875 172.451ZM268.597 172.451H313.167L308.749 180.834H263.687L268.597 172.451ZM313.871 172.451H358.466L354.521 180.853H309.452L313.871 172.451ZM359.15 172.451H403.765L400.305 180.828H355.211L359.15 172.451ZM404.437 172.451H449.063L446.082 180.847H400.976L404.437 172.451ZM449.723 172.451H494.406L491.867 180.834H446.742L449.723 172.451ZM495.053 172.451H539.71L537.65 180.853H492.52L495.053 172.451ZM540.351 172.451H585.015L583.428 180.803H538.291L540.351 172.451ZM585.649 172.451L630.289 172.501L629.194 180.834H584.063L585.649 172.451ZM630.917 172.508L675.531 172.582L674.946 180.822H629.822L630.917 172.508ZM676.154 172.582H720.755L720.699 180.834H675.568L676.154 172.582ZM721.378 172.582H765.979L766.452 180.822H721.322L721.378 172.582ZM766.601 172.582L811.215 172.495L812.198 180.828H767.08L766.601 172.582ZM811.844 172.495L856.489 172.451L857.958 180.803H812.827L811.844 172.495ZM857.118 172.451H901.787L903.736 180.84H858.586L857.118 172.451ZM902.422 172.451H947.099L949.519 180.859H904.376L902.422 172.451ZM950.154 180.847L947.746 172.439H992.403L995.291 180.809L950.154 180.847ZM993.063 172.451H1037.7L1041.07 180.859H995.951L993.063 172.451ZM1041.72 180.847L1038.37 172.439H1082.99L1086.81 180.828L1041.72 180.847ZM1087.49 180.847L1083.67 172.458H1128.27L1132.57 180.834L1087.49 180.847ZM1133.27 180.847L1128.95 172.47H1173.54L1178.36 180.865L1133.27 180.847ZM1219.15 171.817L1213.96 163.633H1257.98L1263.65 171.829L1219.15 171.817ZM1213.55 163.011L1208.55 154.971H1252.12L1257.59 162.943L1213.55 163.011ZM1208.11 154.404L1203.17 146.594H1246.22L1251.63 154.404H1208.11ZM1202.78 145.972L1197.97 138.373H1240.56L1245.79 145.99L1202.78 145.972ZM1197.58 137.751L1192.86 130.283H1234.97L1240.13 137.751H1197.58ZM1192.47 129.661L1187.88 122.398H1229.58L1234.55 129.667L1192.47 129.661ZM1187.49 121.776L1182.96 114.694H1224.19L1229.13 121.801L1187.49 121.776ZM1182.57 114.072L1178.22 107.114H1219L1223.78 114.066L1182.57 114.072ZM1177.82 106.498L1173.46 99.7149H1213.86L1218.54 106.473L1177.82 106.498ZM1173.09 99.0926L1168.92 92.4649H1208.86L1213.46 99.1175L1173.09 99.0926ZM1168.53 91.8426L1164.41 85.3456H1203.98L1208.43 91.8239L1168.53 91.8426ZM1164.01 84.7232L1160.03 78.4005H1199.14L1203.57 84.6486L1164.01 84.7232ZM1159.66 77.7781L1155.73 71.555H1194.49L1198.74 77.7781H1159.66ZM1155.33 70.9326L1151.49 64.8837H1189.85L1194.06 70.9638L1155.33 70.9326ZM1151.09 64.2614L1147.36 58.3058H1185.32L1189.42 64.2302L1151.09 64.2614ZM1146.97 57.6835L1143.28 51.8648H1180.88L1184.89 57.6773L1146.97 57.6835ZM1142.89 51.2425L1139.32 45.5669H1176.53L1180.45 51.2798L1142.89 51.2425ZM1138.93 44.9446L1135.41 39.3437H1172.25L1176.11 44.8948L1138.93 44.9446ZM1135.01 38.7214L1131.55 33.2761H1168.07L1171.81 38.7463L1135.01 38.7214ZM1131.15 32.6538L1127.8 27.3143H1163.95L1167.64 32.6725L1131.15 32.6538ZM1127.42 26.692L1124.1 21.4397H1159.93L1163.53 26.6485L1127.42 26.692ZM1119.75 15.6894L1122.98 20.8174H1087.18L1084.23 15.6956L1119.75 15.6894ZM1086.44 20.8422H1050.63L1047.98 15.6956H1083.5L1086.44 20.8422ZM1047.3 15.7019L1049.92 20.8484H1014.08L1011.74 15.7143L1047.3 15.7019ZM1011.08 15.7019L1013.4 20.836H977.549L975.52 15.7019H1011.08ZM976.852 20.8422H940.956L939.239 15.7019H974.773L976.852 20.8422ZM902.391 15.7143L903.804 20.8547H867.915L866.807 15.7205L902.391 15.7143ZM866.172 15.7143L867.28 20.8484H831.391L830.582 15.6956L866.172 15.7143ZM829.947 15.7143L830.762 20.8671H794.886L794.363 15.733L829.947 15.7143ZM793.734 15.7143L794.264 20.8484H758.393L758.144 15.677L793.734 15.7143ZM721.266 20.8609H685.395L685.719 15.6956H721.278L721.266 20.8609ZM684.773 20.8609H648.896L649.519 15.7143H685.121L684.773 20.8609ZM648.267 20.8609H612.372L613.268 15.7019H648.853L648.267 20.8609ZM611.762 20.8609H575.886L577.055 15.7205H612.652L611.762 20.8609ZM575.244 20.8609H539.361L540.836 15.733H576.421L575.244 20.8609ZM538.714 20.8609H502.844L504.624 15.7143H540.202L538.714 20.8609ZM502.185 20.8609H466.314L468.399 15.7392H503.97L502.185 20.8609ZM429.099 20.8609H393.254L395.93 15.733H431.489L429.099 20.8609ZM356.008 20.8609H320.224L323.492 15.7455H359.008L356.008 20.8609ZM283.259 21.4832H319.073L315.756 26.7232H279.606L283.259 21.4832ZM279.17 27.3455H315.358L311.923 32.7036H275.455L279.17 27.3455ZM275.019 33.2948H311.531L308.07 38.7526H271.242L275.019 33.2948ZM270.813 39.3749H307.672L304.094 44.9384H266.904L270.813 39.3749ZM266.457 45.5981H303.702L300.087 51.2861H262.535L266.457 45.5981ZM262.1 51.9208H299.688L295.954 57.7395H258.036L262.1 51.9208ZM295.556 58.3556L291.778 64.305H253.456L257.601 58.3494L295.556 58.3556ZM291.38 64.9273L287.503 70.97H248.801L253.02 64.9086L291.38 64.9273ZM248.372 71.5986H287.099L283.11 77.8217H244.04L248.372 71.5986ZM243.605 78.4441H282.711L278.679 84.7979H239.205L243.605 78.4441ZM238.769 85.3891H278.281L274.123 91.8488H234.245L238.769 85.3891ZM233.791 92.5084H273.706L269.462 99.161H229.167L233.791 92.5084ZM228.738 99.7709H269.07L264.714 106.554H223.989L228.738 99.7709ZM223.579 107.152H264.34L259.878 114.078H218.712L223.579 107.152ZM218.277 114.738H259.48L254.969 121.832H213.354L218.277 114.738ZM212.918 122.461H254.57L249.89 129.729H207.828L212.918 122.461ZM207.392 130.339H249.498L244.768 137.807H202.233L207.392 130.339ZM201.791 138.429H244.364L239.466 146.065H196.464L201.791 138.429ZM239.068 146.669L234.089 154.466H190.59L196.01 146.675L239.068 146.669ZM190.173 155.064H233.735L228.601 163.054H184.628L190.173 155.064ZM184.173 163.689H228.177L222.968 171.867H178.479L184.173 163.689ZM178.044 172.495H222.57L217.188 180.878H172.162L178.044 172.495ZM263.301 181.531H308.394L303.926 190.132H258.329L263.301 181.531ZM309.098 181.531H354.21L350.233 190.125H304.623L309.098 181.531ZM354.894 181.531H400.025L396.539 190.138H350.917L354.894 181.531ZM400.697 181.531H445.84L442.846 190.113H397.211L400.697 181.531ZM446.499 181.531H491.661L489.172 190.156H443.524L446.499 181.531ZM492.308 181.531H537.476L535.466 190.107H489.806L492.308 181.531ZM538.111 181.531H583.285L581.767 190.156H536.101L538.111 181.531ZM583.92 181.531H629.088L628.073 190.113H582.401L583.92 181.531ZM629.716 181.531H674.884L674.368 190.119H628.702L629.716 181.531ZM675.506 181.531H720.668V190.125H675.015L675.506 181.531ZM721.29 181.531H766.465L766.962 190.113H721.284L721.29 181.531ZM767.585 190.094L767.087 181.512H812.248L813.263 190.107L767.585 190.094ZM813.885 190.094L812.871 181.5H858.038L859.557 190.119L813.885 190.094ZM860.186 190.094L858.674 181.475H903.854L905.851 190.063L860.186 190.094ZM906.492 190.094L904.495 181.506H949.675L952.164 190.113L906.492 190.094ZM952.799 190.094L950.31 181.488H995.49L998.459 190.088L952.799 190.094ZM999.112 190.094L996.143 181.494H1041.29L1044.73 190.082L999.112 190.094ZM1045.42 190.094L1041.94 181.506H1087.07L1091.04 190.113L1045.42 190.094ZM1091.73 190.094L1087.76 181.488H1132.87L1137.34 190.076L1091.73 190.094ZM1138.03 190.094L1133.57 181.506H1178.69L1183.62 190.113L1138.03 190.094ZM1179.39 181.5H1224.46L1229.91 190.082L1184.33 190.119L1179.39 181.5ZM1230.65 190.069L1225.2 181.488H1270.25L1276.22 190.088L1230.65 190.069ZM1276.97 190.069L1271.01 181.469H1316.08L1322.51 190.076L1276.97 190.069ZM1270.58 180.847L1264.82 172.464H1309.34L1315.61 180.859L1270.58 180.847ZM1264.39 171.842L1258.72 163.646H1302.74L1308.88 171.804L1264.39 171.842ZM1258.29 163.023L1252.81 155.051L1296.29 155.014L1302.27 163.03L1258.29 163.023ZM1252.38 154.429L1246.97 146.619H1290.01L1295.83 154.398L1252.38 154.429ZM1246.54 145.997L1241.31 138.38H1283.87L1289.55 146.003L1246.54 145.997ZM1240.88 137.763L1235.72 130.296H1277.84L1283.4 137.763H1240.88ZM1235.28 129.673L1230.3 122.405H1271.91L1277.38 129.661L1235.28 129.673ZM1229.87 121.782L1224.93 114.675H1266.14L1271.43 121.789L1229.87 121.782ZM1224.5 114.053L1219.76 107.052H1260.53L1265.71 113.966L1224.5 114.053ZM1219.29 106.479L1214.61 99.7211H1254.92L1260.03 106.523L1219.29 106.479ZM1214.19 99.0988L1209.61 92.4462H1249.53L1254.46 99.0801L1214.19 99.0988ZM1209.21 91.8239L1204.74 85.3456H1244.22L1249.09 91.8052L1209.21 91.8239ZM1204.32 84.7232L1199.91 78.388H1239L1243.75 84.7606L1204.32 84.7232ZM1199.47 77.7657L1195.22 71.5425H1233.93L1238.54 77.7222L1199.47 77.7657ZM1194.79 70.9202L1190.59 64.8402H1228.89L1233.46 70.9202H1194.79ZM1190.16 64.2179L1186.06 58.2872H1224.02L1228.44 64.2427L1190.16 64.2179ZM1185.63 57.6711L1181.61 51.8524H1219.18L1223.53 57.6711H1185.63ZM1181.18 51.2363L1177.28 45.5172H1214.48L1218.71 51.1865L1181.18 51.2363ZM1176.83 44.8948L1172.97 39.3437H1209.81L1213.99 44.9446L1176.83 44.8948ZM1172.54 38.7214L1168.81 33.2513H1205.27L1209.36 38.6903L1172.54 38.7214ZM1168.36 32.629L1164.63 27.2708H1200.79L1204.76 32.6227L1168.36 32.629ZM1164.23 26.6485L1160.62 21.4397L1196.42 21.4023L1200.35 26.6547L1164.23 26.6485ZM1160.19 20.8174L1156.67 15.6708H1192.14L1195.96 20.78L1160.19 20.8174ZM1152 10.0263L1155.47 15.0485H1120.04L1116.85 10.0699L1152 10.0263ZM1116.11 10.0263L1119.3 15.0049L1083.83 15.036L1080.98 9.97032L1116.11 10.0263ZM1083.13 15.0671H1047.65L1045.06 10.045H1080.25L1083.13 15.0671ZM1046.96 15.0671H1011.43L1009.14 10.0512H1044.35L1046.96 15.0671ZM1008.45 10.0885L1010.77 15.1045H975.253L973.23 10.0637L1008.45 10.0885ZM974.549 15.1107H939.077L937.359 10.0948H972.57L974.549 15.1107ZM938.392 15.1107H902.852L901.427 10.0948H936.675L938.392 15.1107ZM902.205 15.1107H866.658L865.519 10.0637H900.78L902.205 15.1107ZM866.017 15.1107H830.464L829.605 10.101H864.878L866.017 15.1107ZM828.976 10.0885L829.835 15.0982H794.282L793.709 10.0637L828.976 10.0885ZM757.186 10.0885L757.478 15.1294H721.9V10.101L757.186 10.0885ZM685.115 15.1294H649.55L650.128 10.0824H685.395L685.115 15.1294ZM648.933 15.1294H613.38L614.251 10.1197H649.525L648.933 15.1294ZM612.752 15.1294H577.186L578.337 10.0885H613.623L612.752 15.1294ZM540.37 15.1294H504.829L506.566 10.1197H541.826L540.37 15.1294ZM467.963 15.1294H432.447L434.762 10.0948H469.98L467.963 15.1294ZM431.763 15.1294H396.241L398.867 10.1134H434.078L431.763 15.1294ZM395.544 15.1294H360.072L362.972 10.0885H398.164L395.544 15.1294ZM359.356 15.1294H323.884L327.089 10.1072H362.262L359.356 15.1294ZM323.15 15.1294H287.677L291.156 10.101H326.33L323.15 15.1294ZM251.054 15.7517H286.526L282.954 20.8983H247.19L251.054 15.7517ZM246.698 21.4894H282.506L278.865 26.7294L242.771 26.692L246.698 21.4894ZM242.304 27.3455L278.398 27.3828L274.665 32.7099H238.228L242.304 27.3455ZM237.78 33.3384H274.26L270.477 38.7961H233.685L237.78 33.3384ZM233.218 39.4123H270.047L266.139 45.0131H228.993L233.218 39.4123ZM228.526 45.5918H265.71L261.764 51.2923H224.232L228.526 45.5918ZM223.765 51.9271H261.328L257.289 57.7208H219.39L223.765 51.9271ZM218.917 58.3431H256.879L252.722 64.2988H214.443L218.917 58.3431ZM252.261 64.9335L248.036 70.9949H209.365L213.951 64.9273L252.261 64.9335ZM208.898 71.611H247.6L243.244 77.8342H204.2L208.898 71.611ZM203.751 78.4565H242.827L238.415 84.7792H198.941L203.751 78.4565ZM198.468 85.4451H237.979L233.449 91.9421H193.589L198.468 85.4451ZM193.116 92.5334H233.013L228.414 99.1735H188.112L193.116 92.5334ZM187.64 99.7833H227.985L223.242 106.542H182.543L187.64 99.7833ZM182.076 107.214H222.813L217.972 114.178H176.818L182.076 107.214ZM176.344 114.763H217.536L212.601 121.863L171.005 121.826L176.344 114.763ZM170.538 122.467L212.165 122.504L207.075 129.76H165.037L170.538 122.467ZM164.564 130.383H206.62L201.455 137.851L158.951 137.807L164.564 130.383ZM158.509 138.417L201.05 138.454L195.742 146.059H152.759L158.509 138.417ZM152.286 146.663H195.3L189.861 154.454H146.386L152.286 146.663ZM145.913 155.107H189.426L183.825 163.11H139.852L145.913 155.107ZM139.391 163.695H183.402L177.726 171.879H133.237L139.391 163.695ZM132.77 172.508H177.291L171.41 180.884H126.428L132.77 172.508ZM125.961 181.531H170.98L165.012 190.144H119.49L125.961 181.531ZM119.017 190.729H164.583L158.416 199.541H112.333L119.017 190.729ZM165.342 190.729H210.927L205.27 199.529H159.218L165.342 190.729ZM257.993 190.729H303.621L298.979 199.56H252.84L257.993 190.729ZM304.324 190.729H349.965L345.833 199.522H299.682L304.324 190.729ZM350.65 190.729H396.309L392.688 199.553H346.524L350.65 190.729ZM396.988 190.729H442.654L439.542 199.535H393.366L396.988 190.729ZM443.313 190.729H488.997L486.39 199.535H440.195L443.313 190.729ZM489.645 190.729H535.341L533.238 199.547H487.037L489.645 190.729ZM535.982 190.729H581.679L580.086 199.535H533.879L535.982 190.729ZM582.314 190.729H628.024L626.935 199.535H580.721L582.314 190.729ZM628.652 190.729H674.355L673.789 199.566H627.563L628.652 190.729ZM674.977 190.729H720.668L720.637 199.51H674.411L674.977 190.729ZM721.309 190.729H767.024L767.497 199.572H721.278L721.309 190.729ZM767.647 190.729H813.356L814.321 199.522H768.12L767.647 190.729ZM814.943 199.541L813.978 190.748H859.682L861.156 199.553L814.943 199.541ZM861.785 199.541L860.31 190.735H906.013L908.004 199.572L861.785 199.541ZM908.64 199.541L906.654 190.704H952.351L954.84 199.491L908.64 199.541ZM952.998 190.729H998.682L1001.68 199.56H955.5L952.998 190.729ZM1002.34 199.529L999.342 190.698H1045L1048.53 199.497L1002.34 199.529ZM1045.69 190.71H1091.35L1095.35 199.516H1049.24L1045.69 190.71ZM1096.04 199.504L1092.02 190.698H1137.67L1142.21 199.535L1096.04 199.504ZM1142.9 199.504L1138.37 190.667H1184L1189.04 199.448L1142.9 199.504ZM1189.77 199.46L1184.71 190.679L1230.32 190.642L1235.89 199.479L1189.77 199.46ZM1236.62 199.46L1231.06 190.623H1276.67L1282.72 199.423L1236.62 199.46ZM1283.47 199.46L1277.42 190.661H1322.99L1329.55 199.448L1283.47 199.46ZM1330.33 199.46L1323.75 190.673H1369.29L1376.4 199.51L1330.33 199.46ZM1323.28 190.051L1316.84 181.444H1361.89L1368.79 190.026L1323.28 190.051ZM1316.38 180.822L1310.15 172.427H1354.62L1361.41 180.803L1316.38 180.822ZM1309.67 171.804L1303.56 163.646H1347.53L1354.1 171.848L1309.67 171.804ZM1303.1 163.023L1297.1 155.008H1340.58L1347.03 162.974L1303.1 163.023ZM1296.63 154.386L1290.8 146.607H1333.82L1340.09 154.423L1296.63 154.386ZM1290.34 145.99L1284.63 138.367H1327.18L1333.32 145.984L1290.34 145.99ZM1284.17 137.745L1278.64 130.277H1320.69L1326.68 137.701L1284.17 137.745ZM1278.17 129.655L1272.73 122.398H1314.32L1320.18 129.686L1278.17 129.655ZM1272.27 121.776L1266.94 114.663H1308.13L1313.82 121.745L1272.27 121.776ZM1266.47 114.041L1261.29 107.12H1302.03L1307.63 114.078L1266.47 114.041ZM1260.83 106.43L1255.73 99.6216H1296.04L1301.53 106.386L1260.83 106.43ZM1255.26 98.9993L1250.34 92.3653H1290.21L1295.53 98.993L1255.26 98.9993ZM1249.87 91.743L1245 85.2833H1284.48L1289.71 91.7928L1249.87 91.743ZM1244.53 84.661L1239.79 78.2885H1278.89L1283.97 84.605L1244.53 84.661ZM1239.32 77.6662L1234.69 71.4803H1273.39L1278.37 77.7035L1239.32 77.6662ZM1234.22 70.8642L1229.67 64.7841H1267.96L1272.88 70.8517L1234.22 70.8642ZM1229.2 64.1618L1224.79 58.2062H1262.7L1267.46 64.137L1229.2 64.1618ZM1224.33 57.5839L1219.97 51.7653H1257.5L1262.22 57.5777L1224.33 57.5839ZM1219.49 51.1429L1215.25 45.4736H1252.42L1256.98 51.1865L1219.49 51.1429ZM1214.79 44.8513L1210.61 39.2504H1247.42L1251.92 44.8015L1214.79 44.8513ZM1210.14 38.6281L1206.05 33.1891H1242.51L1246.92 38.6717L1210.14 38.6281ZM1205.58 32.5667L1201.61 27.2147H1237.7L1241.99 32.5481L1205.58 32.5667ZM1201.15 26.5924L1197.21 21.3463H1232.98L1237.22 26.5738L1201.15 26.5924ZM1196.75 20.7178L1192.93 15.6147H1228.36L1232.48 20.7675L1196.75 20.7178ZM1192.46 14.9924L1188.69 9.93918H1223.8L1227.86 14.9177L1192.46 14.9924ZM1183.75 4.41299L1187.43 9.30448H1152.33L1148.94 4.39437L1183.75 4.41299ZM1148.19 4.41299L1151.57 9.32309H1116.45L1113.34 4.38192L1148.19 4.41299ZM1112.61 4.41299L1115.72 9.35423H1080.57L1077.76 4.45036L1112.61 4.41299ZM1077.04 4.44413L1079.85 9.34801H1044.7L1042.17 4.44413H1077.04ZM1041.47 4.44413L1044.01 9.34801H1008.83L1006.57 4.40683L1041.47 4.44413ZM1005.9 4.44413L1008.14 9.38538H972.956L970.989 4.49389L1005.9 4.44413ZM970.324 4.44413L972.272 9.33555H937.092L935.405 4.4006L970.324 4.44413ZM934.752 4.44413L936.438 9.37915H901.222L899.827 4.46282L934.752 4.44413ZM899.18 4.44413L900.574 9.35423H865.351L864.243 4.45036L899.18 4.44413ZM863.608 4.44413L864.716 9.35423H829.474L828.665 4.4379L863.608 4.44413ZM828.03 4.44413L828.845 9.36046H793.616L793.081 4.43167L828.03 4.44413ZM792.453 4.44413L792.988 9.37292H757.752L757.503 4.48151L792.453 4.44413ZM756.875 4.44413L757.13 9.33555H721.894V4.4006L756.875 4.44413ZM721.272 9.35423H686.03L686.347 4.45036H721.297L721.272 9.35423ZM685.408 9.35423H650.178L650.769 4.45036H685.725L685.408 9.35423ZM649.568 9.35423H614.333L615.191 4.41299H650.147L649.568 9.35423ZM577.821 9.35423H542.598L544.042 4.45036H578.984L577.821 9.35423ZM541.981 9.35423H506.752L508.464 4.41922H543.394L541.981 9.35423ZM506.099 9.35423H470.882L472.898 4.45036H507.81L506.099 9.35423ZM470.209 9.35423H435.023L437.32 4.45659H472.226L470.209 9.35423ZM434.339 9.35423H399.166L401.748 4.41299L436.636 4.44413L434.339 9.35423ZM398.469 9.35423H363.308L366.176 4.46282H401.026L398.469 9.35423ZM362.586 9.35423H327.456L330.611 4.41922L365.461 4.45036L362.586 9.35423ZM326.722 9.35423H291.592L295.033 4.45036H329.883L326.722 9.35423ZM290.833 9.35423H255.784L259.517 4.41922H294.33L290.833 9.35423ZM219.378 9.97655H254.489L250.718 14.9986H215.333L219.378 9.97655ZM214.816 15.6396H250.245L246.355 20.7551H210.628L214.816 15.6396ZM210.118 21.4023H245.888L241.962 26.636H205.867L210.118 21.4023ZM205.382 27.2646H241.476L237.425 32.6352H201.013L205.382 27.2646ZM200.516 33.2139H236.971L232.876 38.6654H196.103L200.516 33.2139ZM195.599 39.3002H232.403L228.184 44.8575H191.056L195.599 39.3002ZM190.552 45.5234H227.71L223.423 51.2363H185.934L190.552 45.5234ZM185.431 51.8213H222.956L218.6 57.6151H180.707L185.431 51.8213ZM180.191 58.2747H218.114L213.621 64.2302H175.386L180.191 58.2747ZM174.882 64.8153H213.155L208.581 70.8829H169.947L174.882 64.8153ZM169.443 71.5177H208.107L203.403 77.7408H164.396L169.443 71.5177ZM163.892 78.3632H202.936L198.15 84.7295H158.721L163.892 78.3632ZM158.216 85.3083H197.678L192.786 91.7741H152.958L158.216 85.3083ZM152.46 92.4275H192.288L187.273 99.0553H147.033L152.46 92.4275ZM146.554 99.69H186.831L181.734 106.498H141.047L146.554 99.69ZM140.536 107.071H181.267L176.027 113.997H134.886L140.536 107.071ZM134.382 114.638H175.56L170.203 121.72H128.625L134.382 114.638ZM128.121 122.38H169.736L164.222 129.673H122.203L128.121 122.38ZM121.699 130.24H163.749L158.148 137.651H115.668L121.699 130.24ZM115.164 138.33H157.675L151.912 145.953H108.972L115.164 138.33ZM108.468 146.563H151.445L145.633 154.348H102.189L108.468 146.563ZM101.623 154.964H145.098L139.043 162.93H95.1007L101.623 154.964ZM94.5969 163.596H138.576L132.403 171.786H87.969L94.5969 163.596ZM87.4652 172.402H131.936L125.6 180.803H80.6257L87.4652 172.402ZM80.1152 181.394H125.134L118.668 189.97H73.1579L80.1152 181.394ZM72.6474 190.636H118.195L111.511 199.448H65.4598L72.6474 190.636ZM64.9493 200.076H111.045L104.237 209.15H57.6249L64.9493 200.076ZM111.823 200.076H157.936L151.657 209.106H104.983L111.823 200.076ZM158.714 200.076H204.828L199.072 209.143H152.398L158.714 200.076ZM205.562 200.076H251.72L246.486 209.125H199.812L205.562 200.076ZM252.436 200.076H298.605L293.901 209.1H247.227L252.436 200.076ZM299.309 200.076H345.503L341.309 209.15H294.635L299.309 200.076ZM346.187 200.076H392.389L388.717 209.1H341.993L346.187 200.076ZM393.061 200.076H439.274L436.162 209.15H389.42L393.061 200.076ZM439.934 200.076H486.16L483.54 209.106H436.791L439.934 200.076ZM486.807 200.076H533.051L530.954 209.143H484.187L486.807 200.076ZM533.686 200.076H579.937L578.362 209.112H531.589L533.686 200.076ZM580.565 200.076H626.822L625.764 209.15H578.991L580.565 200.076ZM627.444 200.076H673.708L673.167 209.1H626.393L627.444 200.076ZM674.33 200.076H720.594V209.156H673.814L674.33 200.076ZM721.228 200.076H767.485L767.971 209.1H721.197L721.228 200.076ZM768.593 209.131L768.107 200.107H814.346L815.379 209.181L768.593 209.131ZM816.001 209.131L814.974 200.058H861.225L862.787 209.106L816.001 209.131ZM910.818 209.131L908.745 200.107H954.99L957.578 209.181L910.818 209.131ZM958.226 209.131L955.637 200.051H1001.86L1004.97 209.081L958.226 209.131ZM1005.63 209.094L1002.52 200.064H1048.75L1052.38 209.137L1005.63 209.094ZM1053.04 209.094L1049.42 200.02H1095.6L1099.78 209.069L1053.04 209.094ZM1147.86 209.05L1143.19 200.033L1189.35 199.989L1194.56 209.069L1147.86 209.05ZM1195.28 209.05L1190.08 199.97H1236.24L1241.96 208.994L1195.28 209.05ZM1242.69 209.013L1236.97 199.989H1283.11L1289.36 209.044L1242.69 209.013ZM1290.11 209.013L1283.89 199.958H1330.01L1336.78 209.031L1290.11 209.013ZM1337.53 209.013L1330.76 199.939L1376.86 199.97L1384.15 209.044L1337.53 209.013ZM1384.96 209.05L1377.68 200.002L1423.59 202.124L1431.4 211.166L1384.96 209.05ZM1377.2 199.404L1370.11 190.592L1415.51 192.745L1423.07 201.526L1377.2 199.404ZM1369.6 189.945L1362.71 181.394L1407.52 183.485L1414.94 192.092L1369.6 189.945ZM1362.19 180.747L1355.42 172.395L1399.78 174.462L1406.97 182.844L1362.19 180.747ZM1354.9 171.742L1348.36 163.565L1392.16 165.643L1399.23 173.808L1354.9 171.742ZM1347.83 162.918L1341.42 154.971L1384.76 156.987L1391.6 164.99L1347.83 162.918ZM1340.89 154.33L1334.67 146.538L1377.47 148.567L1384.21 156.34L1340.89 154.33ZM1334.12 145.891L1328.01 138.299L1370.38 140.303L1376.9 147.92L1334.12 145.891ZM1327.48 137.651L1321.52 130.258L1363.4 132.206L1369.82 139.674L1327.48 137.651ZM1321 129.611L1315.14 122.342L1356.61 124.321L1362.83 131.559L1321 129.611ZM1314.62 121.695L1308.93 114.638L1349.91 116.549L1356.05 123.668L1314.62 121.695ZM1308.4 113.997L1302.84 107.058L1343.39 108.994L1349.34 115.901L1308.4 113.997ZM1302.32 106.411L1296.85 99.6713L1337.02 101.538L1342.84 108.334L1302.32 106.411ZM1296.33 99.0241L1291.03 92.4213L1330.72 94.2883L1336.46 100.91L1296.33 99.0241ZM1290.51 91.7741L1285.27 85.2896L1324.6 87.1565L1330.17 93.6162L1290.51 91.7741ZM1284.76 84.6423L1279.67 78.3507L1318.57 80.1679L1324.04 86.5155L1284.76 84.6423ZM1279.16 77.7035L1274.18 71.4803L1312.67 73.3472L1318 79.5269L1279.16 77.7035ZM1273.67 70.858L1268.78 64.8153L1306.92 66.6325L1312.13 72.6876L1273.67 70.858ZM1268.25 64.168L1263.51 58.2685L1301.24 60.0296L1306.36 65.979L1268.25 64.168ZM1262.99 57.6212L1258.3 51.8275L1295.68 53.5824L1300.66 59.3824L1262.99 57.6212ZM1257.77 51.1802L1253.23 45.4922L1290.25 47.2659L1295.12 52.929L1257.77 51.1802ZM1252.74 44.8202L1248.26 39.294L1284.91 41.0054L1289.72 46.6062L1252.74 44.8202ZM1247.76 38.6467L1243.37 33.1891L1279.68 34.9315L1284.37 40.3581L1247.76 38.6467ZM1242.84 32.5418L1238.57 27.2334L1274.54 28.9324L1279.12 34.2843L1242.84 32.5418ZM1238.05 26.5862L1233.84 21.3836L1269.47 23.0515L1273.98 28.279L1238.05 26.5862ZM1233.32 20.7365L1229.21 15.6086L1264.52 17.3013L1268.91 22.4042L1233.32 20.7365ZM1228.69 14.9613L1224.66 9.98278L1259.63 11.6195L1263.99 16.654L1228.69 14.9613ZM1144.45 0.635545L1147.64 3.79067H1112.95L1110.06 0.679074L1144.45 0.635545ZM1073.95 0.635545L1076.6 3.7969H1041.86L1039.48 0.641774L1073.95 0.635545ZM792.403 3.82804H757.497L757.242 0.666691H791.886L792.403 3.82804ZM756.875 3.82804H721.956V0.71645H756.601L756.875 3.82804ZM721.334 3.82804H686.434L686.702 0.672921H721.353L721.334 3.82804ZM685.812 3.82804H650.9L651.435 0.672921H686.08L685.812 3.82804ZM401.45 3.76583H366.706L369.363 0.604399H403.839L401.45 3.76583ZM330.343 3.76583H295.668L298.86 0.610628H333.262L330.343 3.76583ZM183.595 11.6506L218.563 9.97655L214.518 14.9924L179.244 16.6665L183.595 11.6506ZM178.678 17.3199L213.995 15.6396L209.826 20.7613L174.26 22.4167L178.678 17.3199ZM173.699 23.0764L209.321 21.4085L205.108 26.6173L169.163 28.3038L173.699 23.0764ZM168.597 28.951L204.579 27.2646L200.223 32.5667L163.954 34.2967L168.597 28.951ZM163.413 34.9502L199.713 33.2139L195.319 38.653L158.683 40.3893L163.413 34.9502ZM158.123 41.0427L194.796 39.3064L190.272 44.8637L153.3 46.6L158.123 41.0427ZM152.74 47.2659L189.743 45.5296L185.156 51.1802L147.817 52.9538L152.74 47.2659ZM147.239 53.6073L184.628 51.8275L179.904 57.6337L142.21 59.4011L147.239 53.6073ZM141.638 60.0483L179.369 58.2809L174.577 64.1805L136.485 65.9915L141.638 60.0483ZM135.919 66.6387L174.054 64.8277L169.132 70.8829L130.666 72.6938L135.919 66.6387ZM130.1 73.3472L168.609 71.5239L163.631 77.7159L124.754 79.5331L130.1 73.3472ZM124.169 80.1927L163.083 78.3694L157.93 84.6672L118.662 86.5342L124.169 80.1927ZM118.096 87.1876L157.407 85.3206L152.18 91.7928L112.489 93.6597L118.096 87.1876ZM111.922 94.3007L151.651 92.4338L146.268 99.049L106.178 100.916L111.922 94.3007ZM105.618 101.569L145.739 99.7024L140.257 106.436L99.725 108.365L105.618 101.569ZM99.1586 109.006L139.727 107.077L134.095 113.997L93.1469 115.933L99.1586 109.006ZM92.5865 116.586L133.573 114.644L127.841 121.739L86.4381 123.668L92.5865 116.586ZM85.8717 124.321L127.312 122.386L121.413 129.605L79.5616 131.59L85.8717 124.321ZM79.0262 132.237L120.915 130.252L114.909 137.72L72.5915 139.693L79.0262 132.237ZM72.0251 140.327L114.38 138.355L108.157 145.941L65.385 147.945L72.0251 140.327ZM64.8502 148.592L107.666 146.588L101.374 154.342L58.0788 156.396L64.8502 148.592ZM57.513 157.043L100.845 154.989L94.3666 162.974L50.5928 165.021L57.513 157.043ZM50.0452 165.668L93.85 163.621L87.2348 171.779L42.9384 173.852L50.0452 165.668ZM42.3781 174.505L86.7055 172.427L79.86 180.772L35.0531 182.9L42.3781 174.505ZM34.5304 183.547L79.3373 181.419L72.3989 190.013L27.0504 192.129L34.5304 183.547ZM26.5089 192.776L71.8944 190.661L64.7256 199.454L18.8545 201.595L26.5089 192.776ZM18.2881 202.242L64.203 200.101L56.8907 209.143L10.4405 211.284L18.2881 202.242ZM57.208 209.76H103.882L96.8619 221.254H49.6344L57.208 209.76ZM484.119 209.76H530.923L528.72 221.272H481.386L484.119 209.76ZM531.558 209.76H578.362L576.695 221.266H529.355L531.558 209.76ZM578.991 209.76H625.802L624.675 221.266H577.323L578.991 209.76ZM626.424 209.76H673.229L672.65 221.297H625.297L626.424 209.76ZM673.857 209.76H720.662V221.247H673.31L673.857 209.76ZM721.297 209.76H768.101L768.599 221.297H721.253L721.297 209.76ZM768.724 209.76H815.54L816.573 221.254H769.221L768.724 209.76ZM816.163 209.76H862.98L864.536 221.279H817.196L816.163 209.76ZM863.608 209.76H910.407L912.516 221.303H865.164L863.608 209.76ZM911.041 209.76H957.84L960.485 221.241H913.151L911.041 209.76ZM1344.94 221.204L1338.03 209.71H1384.73L1392.2 221.167L1344.94 221.204ZM1254.28 5.46474L1219.67 3.85296L1215.94 0.679074L1250.17 1.20188L1254.28 5.46474ZM193.228 1.82419L227.456 0.672921L223.722 3.8778L189.195 5.43983L193.228 1.82419Z" fill="url(#paint0_linear)"/>
<defs>
<linearGradient id="paint0_linear" x1="720.855" y1="223.282" x2="720.855" y2="0.000754286" gradientUnits="userSpaceOnUse">
<stop stop-color="#5FFF00"/>
<stop offset="1" stop-color="#010C04" stop-opacity="0"/>
</linearGradient>
</defs>
</svg>
