<svg width="1920" height="327" viewBox="0 0 1920 327" fill="none" xmlns="http://www.w3.org/2000/svg">
<path d="M1918.12 324.209L1765.88 245.145H1676.69H1587.51H1498.31H1409.13H1319.93H1230.73L1195.68 188.157L1169.2 145.123L1148.5 111.493L1131.88 84.4502L1118.23 62.2632L1106.82 43.7322L1097.15 28.0199H1055.38H1013.62H971.83H930.064H888.297H846.531L835.595 43.7322L822.721 62.2632L807.286 84.4502L788.502 111.493L765.125 145.123L735.197 188.157L695.595 245.145H606.397H517.198H428.018H338.82H249.621H160.441L1.88281 324.209" stroke="#5FFF00" stroke-width="3.76385" stroke-linecap="round" stroke-linejoin="round"/>
<path d="M108.344 324.209L249.623 245.145L351.489 188.157H428.228H504.966H581.723H658.461L697.781 145.123H765.127H832.473H899.819H967.165H1034.51H1101.86H1169.2H1236.55L1272.42 188.157H1349.16H1425.92H1502.66H1579.4L1676.69 245.145L1811.66 324.209" stroke="#5FFF00" stroke-width="3.76385" stroke-linecap="round" stroke-linejoin="round"/>
<path d="M214.799 324.209L338.819 245.146L428.224 188.157L495.74 145.123L548.517 111.493H608.504H668.509L699.095 84.4503H753.19H807.285H861.38H915.475H969.589H1023.68H1077.78H1131.87H1185.97H1240.06L1268.49 111.493H1328.49H1388.5L1438.58 145.123L1502.65 188.157L1587.5 245.146L1705.2 324.209" stroke="#5FFF00" stroke-width="3.76385" stroke-linecap="round" stroke-linejoin="round"/>
<path d="M160.443 245.146L274.732 188.157H351.489L428.378 145.123H495.743H563.089H630.435H697.781L728.517 111.493L753.193 84.4503L773.465 62.2633H822.723H871.962H921.219H970.477H1019.72H1068.97H1118.23H1167.47L1185.97 84.4503L1208.5 111.493L1236.55 145.123H1303.89H1371.24H1438.59H1505.93L1579.4 188.157H1656.15L1765.89 245.146" stroke="#5FFF00" stroke-width="3.76385" stroke-linecap="round" stroke-linejoin="round"/>
<path d="M321.258 324.21L428.018 245.146L504.963 188.157L563.086 145.123L608.504 111.493L645 84.4504L674.965 62.2634H724.204L745.191 43.7324H790.402H835.594H880.805H925.997H971.208H1016.42H1061.61H1106.82H1152.01H1197.23H1242.44H1287.63L1315.22 62.2634H1364.48L1402.35 84.4504H1456.45L1508.49 111.493" stroke="#5FFF00" stroke-width="3.76385" stroke-linecap="round" stroke-linejoin="round"/>
<path d="M1918.12 324.209H1811.66H1705.2H1598.74H1492.28H1385.83H1279.39H1172.91L1141.55 245.145L1118.93 188.157L1101.85 145.123L1088.49 111.493L1077.78 84.4502L1068.97 62.2632L1061.61 43.7322L1055.38 28.0199L1050.02 14.5123L1045.37 2.79089H1009.12H972.847H936.576H900.325L894.734 14.5123L888.297 28.0199L880.806 43.7322L871.96 62.2632L861.381 84.4502L848.507 111.493L832.47 145.123L811.954 188.157L784.775 245.145L747.093 324.209H640.634H534.176H427.717H321.259H214.8H108.341H1.88281" stroke="#5FFF00" stroke-width="3.76385" stroke-linecap="round" stroke-linejoin="round"/>
<path d="M1172.91 324.209H1066.47H960.011H853.552H747.094" stroke="#5FFF00" stroke-width="3.76385" stroke-linecap="round" stroke-linejoin="round"/>
<path d="M427.719 324.209L517.2 245.145L581.722 188.157L630.434 145.122L668.512 111.493H728.517H788.503H848.509H908.514H968.5H1028.51H1088.49H1148.5H1208.5H1268.49L1303.89 145.122L1349.16 188.157L1409.13 245.145L1492.29 324.209" stroke="#5FFF00" stroke-width="3.76385" stroke-linecap="round" stroke-linejoin="round"/>
<path d="M274.732 188.157L361.032 145.122H428.378L488.515 111.493H548.521L590.908 84.45H645.003H699.099L724.207 62.263H773.465L790.405 43.7319L804.767 28.0196H846.533L855.925 14.5121H894.737H933.567H972.379H1011.21H1050.02H1088.85L1097.15 28.0196H1138.92L1152.02 43.7319L1167.47 62.263H1216.73L1240.07 84.45H1294.16H1348.26L1388.5 111.493H1448.51L1505.93 145.122H1573.28L1656.15 188.157" stroke="#5FFF00" stroke-width="3.76385" stroke-linecap="round" stroke-linejoin="round"/>
<path d="M534.178 324.209L606.399 245.145L658.461 188.157H735.199H811.956H888.695H965.433H1042.19H1118.93H1195.69H1272.42L1319.93 245.145L1385.83 324.209" stroke="#5FFF00" stroke-width="3.76385" stroke-linecap="round" stroke-linejoin="round"/>
<path d="M640.633 324.209L695.594 245.145H784.774H873.972H963.152H1052.35H1141.55H1230.73L1279.38 324.209" stroke="#5FFF00" stroke-width="3.76385" stroke-linecap="round" stroke-linejoin="round"/>
<path d="M361.031 145.123L428.509 111.493H488.514L536.812 84.4502H590.907L625.71 62.2632H674.967L699.982 43.7322H745.193L762.999 28.0199H804.766L817.094 14.5123L827.804 2.79089H864.056H900.326" stroke="#5FFF00" stroke-width="3.76385" stroke-linecap="round" stroke-linejoin="round"/>
<path d="M428.508 111.493L482.716 84.4502H536.811L576.451 62.2632H625.708L654.789 43.7322H699.981L721.212 28.0199H762.998L778.263 14.5123H817.093H855.923L864.054 2.79089" stroke="#5FFF00" stroke-width="3.76385" stroke-linecap="round" stroke-linejoin="round"/>
<path d="M853.553 324.209L873.975 245.145L888.694 188.157L899.818 145.123L908.514 111.493L915.478 84.4502L921.219 62.2632L926 43.7322L930.065 28.0199L933.566 14.5123L936.578 2.79089" stroke="#5FFF00" stroke-width="3.76385" stroke-linecap="round" stroke-linejoin="round"/>
<path d="M482.719 84.4502L527.196 62.2632H576.454L609.581 43.7322H654.792L679.449 28.0199H721.215L739.454 14.5123L755.284 2.79089H791.535H827.806" stroke="#5FFF00" stroke-width="3.76385" stroke-linecap="round" stroke-linejoin="round"/>
<path d="M527.193 62.2632L564.386 43.7322H609.578L637.68 28.0199H679.446L700.621 14.5123H739.452H778.263L791.533 2.79089" stroke="#5FFF00" stroke-width="3.76385" stroke-linecap="round" stroke-linejoin="round"/>
<path d="M1226.69 2.79089H1262.94H1299.21L1321.78 14.5123L1347.77 28.0199" stroke="#5FFF00" stroke-width="3.76385" stroke-linecap="round" stroke-linejoin="round"/>
<path d="M1045.37 2.79089H1081.64L1088.85 14.5123H1127.66L1138.92 28.0199H1180.68L1197.23 43.7322L1216.73 62.2632H1265.99L1294.16 84.4502L1328.5 111.493L1371.24 145.123L1425.92 188.157L1498.31 245.145L1598.74 324.209" stroke="#5FFF00" stroke-width="3.76385" stroke-linecap="round" stroke-linejoin="round"/>
<path d="M1154.16 2.79089H1190.41H1226.68L1244.13 14.5123L1264.23 28.0199H1306L1332.84 43.7322H1378.03L1413.74 62.2632" stroke="#5FFF00" stroke-width="3.76385" stroke-linecap="round" stroke-linejoin="round"/>
<path d="M1081.64 2.79089H1117.89H1154.16L1166.49 14.5123L1180.68 28.0199H1222.47L1242.44 43.7322L1265.99 62.2632H1315.22L1348.26 84.4502H1402.35L1448.5 111.493H1508.49L1573.28 145.123" stroke="#5FFF00" stroke-width="3.76385" stroke-linecap="round" stroke-linejoin="round"/>
<path d="M564.385 43.7322L595.912 28.0199H637.679L661.809 14.5123L682.758 2.79089H719.009H755.28" stroke="#5FFF00" stroke-width="3.76385" stroke-linecap="round" stroke-linejoin="round"/>
<path d="M595.912 28.0199L622.978 14.5123H661.809H700.62L719.01 2.79089" stroke="#5FFF00" stroke-width="3.76385" stroke-linecap="round" stroke-linejoin="round"/>
<path d="M622.98 14.5123L646.489 2.79089H682.76" stroke="#5FFF00" stroke-width="3.76385" stroke-linecap="round" stroke-linejoin="round"/>
<path d="M1262.94 2.79089L1282.94 14.5123H1321.77" stroke="#5FFF00" stroke-width="3.76385" stroke-linecap="round" stroke-linejoin="round"/>
<path d="M1190.41 2.79089L1205.3 14.5123H1244.13H1282.94L1306 28.0199H1347.77L1378.03 43.7322" stroke="#5FFF00" stroke-width="3.76385" stroke-linecap="round" stroke-linejoin="round"/>
<path d="M1117.89 2.79089L1127.66 14.5123H1166.49H1205.3L1222.47 28.0199H1264.23L1287.63 43.7322H1332.84L1364.48 62.2632H1413.74L1456.45 84.4502" stroke="#5FFF00" stroke-width="3.76385" stroke-linecap="round" stroke-linejoin="round"/>
<path d="M1009.12 2.79089L1011.21 14.5123L1013.62 28.0199L1016.42 43.7322L1019.72 62.2632L1023.69 84.4502L1028.51 111.493L1034.51 145.123L1042.19 188.157L1052.35 245.145L1066.47 324.209" stroke="#5FFF00" stroke-width="3.76385" stroke-linecap="round" stroke-linejoin="round"/>
<path d="M972.845 2.79089L972.374 14.5123L971.828 28.0199L971.207 43.7322L970.473 62.2632L969.588 84.4502L968.497 111.493L967.16 145.123L965.429 188.157L963.151 245.145L960.008 324.209" stroke="#5FFF00" stroke-width="3.76385" stroke-linecap="round" stroke-linejoin="round"/>
</svg>
