<svg width="121" height="16" viewBox="0 0 121 16" fill="none" xmlns="http://www.w3.org/2000/svg">
<g clip-path="url(#clip0_1629_4075)">
<mask id="path-1-inside-1_1629_4075" fill="white">
<path fill-rule="evenodd" clip-rule="evenodd" d="M3.76991 15.7877V6.45141L13.2389 15.3098C13.4286 15.5269 13.6626 15.7009 13.9252 15.82C14.1877 15.939 14.4728 16.0005 14.7611 16.0001C15.9381 16.0001 16.7257 15.0974 16.7257 13.6638V8.64042e-05H12.9558V9.36292L3.53982 0.681502C3.34115 0.464383 3.09902 0.291505 2.82915 0.174106C2.55929 0.0567064 2.26773 -0.00258478 1.97345 8.64042e-05C0.769911 8.64042e-05 0 0.885042 0 2.33637V15.7877H3.76991ZM24.1148 15.22C25.0832 15.6148 26.122 15.8082 27.1676 15.7883L31.0791 15.806C32.1266 15.8296 33.1678 15.6389 34.1389 15.2456C35.11 14.8523 35.9906 14.2647 36.7264 13.5189C37.4623 12.7731 38.038 11.8848 38.4182 10.9085C38.7984 9.93218 38.9752 8.88848 38.9375 7.84142C38.9375 3.3193 35.734 0.213103 31.0791 0.195404H27.1676C22.6455 0.195404 19.3269 3.23965 19.3269 7.82372C19.2906 8.86893 19.4677 9.91057 19.8473 10.8851C20.2269 11.8596 20.8011 12.7466 21.5348 13.4919C22.2685 14.2371 23.1463 14.8251 24.1148 15.22ZM32.5839 11.601C32.1031 11.7787 31.5907 11.8545 31.0791 11.8237H27.1676C26.6582 11.8522 26.1485 11.7744 25.6708 11.5954C25.193 11.4165 24.7577 11.1401 24.3924 10.784C24.0272 10.4279 23.7399 9.9997 23.5488 9.52666C23.3578 9.05362 23.2671 8.54604 23.2826 8.03611C23.2692 7.52268 23.3606 7.0119 23.5512 6.53497C23.7418 6.05804 24.0276 5.62497 24.3912 5.26221C24.7548 4.89945 25.1885 4.61461 25.6658 4.42511C26.1432 4.2356 26.6542 4.1454 27.1676 4.16001H31.0791C31.5958 4.13915 32.1112 4.22481 32.5933 4.41164C33.0754 4.59847 33.514 4.88249 33.8817 5.24604C34.2494 5.60958 34.5384 6.04488 34.7307 6.52486C34.9229 7.00485 35.0144 7.51926 34.9995 8.03611C35.0126 8.54847 34.9192 9.05798 34.7251 9.53233C34.531 10.0067 34.2404 10.4355 33.8718 10.7916C33.5032 11.1477 33.0646 11.4234 32.5839 11.601ZM41.6453 15.7863V11.8216H53.4949C54.3798 11.8216 54.9727 11.3969 54.9727 10.6181C54.9727 9.83935 54.4152 9.36147 53.4949 9.36147H46.5568C43.3621 9.36147 41.3887 7.51191 41.3887 4.82165C41.3887 2.13138 43.2294 0.211029 46.5922 0.211029H57.9285V4.15793H46.5922C46.4404 4.1443 46.2875 4.16525 46.1449 4.21919C46.0024 4.27313 45.8739 4.35867 45.7692 4.46938C45.6644 4.58009 45.5861 4.7131 45.5401 4.85841C45.4942 5.00372 45.4817 5.15756 45.5037 5.30837C45.4891 5.45614 45.507 5.60531 45.5561 5.74542C45.6053 5.88553 45.6845 6.01319 45.7882 6.11944C45.892 6.22569 46.0177 6.30796 46.1566 6.36047C46.2954 6.41298 46.4441 6.43447 46.5922 6.42342H53.4949C56.8931 6.42342 58.7161 7.85705 58.7161 11.034C58.7161 13.7686 57.0081 15.8305 53.4949 15.8305L41.6453 15.7863ZM65.3284 1.00894C64.7613 1.55201 64.349 2.23618 64.1337 2.99124L60.293 15.7877H64.6027L67.8505 3.95584H72.1691L73.3638 8.30982L74.408 12.0443L75.4611 15.7877H79.7266L75.9036 2.99124C75.6848 2.22519 75.2519 1.5375 74.6558 1.00894C73.9908 0.45329 73.1407 0.168877 72.2753 0.212477H67.6292C66.7872 0.163826 65.9601 0.450131 65.3284 1.00894ZM104.717 2.9912C104.927 2.23606 105.337 1.55139 105.902 1.0089C106.535 0.450935 107.361 0.164754 108.203 0.212436H112.858C113.724 0.168836 114.574 0.453249 115.239 1.0089C115.832 1.53796 116.262 2.22578 116.478 2.9912L120.354 15.7877H116.079L115.035 12.0443L113.991 8.30978L112.743 3.9558H108.425L105.141 15.7877H100.885L104.717 2.9912ZM85.84 15.7877V6.45142L95.2913 15.3098C95.481 15.5269 95.715 15.7009 95.9775 15.82C96.2401 15.939 96.5251 16.0005 96.8134 16.0001C97.9904 16.0001 98.778 15.0974 98.778 13.6638V9.15527e-05H95.017V9.36292L85.5922 0.681507C85.3986 0.469876 85.1636 0.300213 84.9018 0.183008C84.64 0.065803 84.3569 0.00354783 84.0701 9.15527e-05C82.8754 9.15527e-05 82.1055 0.885047 82.1055 2.33637V15.7877H85.84Z"/>
</mask>
<path d="M3.76991 6.45141L4.1115 6.08628L3.26991 5.29897V6.45141H3.76991ZM3.76991 15.7877V16.2877H4.26991V15.7877H3.76991ZM13.2389 15.3098L13.6155 14.9809L13.5989 14.9619L13.5805 14.9447L13.2389 15.3098ZM13.9252 15.82L13.7187 16.2753L13.9252 15.82ZM14.7611 16.0001V15.5001H14.7604L14.7611 16.0001ZM16.7257 8.64042e-05H17.2257V-0.499914H16.7257V8.64042e-05ZM12.9558 8.64042e-05V-0.499914H12.4558V8.64042e-05H12.9558ZM12.9558 9.36292L12.6168 9.73052L13.4558 10.504V9.36292H12.9558ZM3.53982 0.681502L3.17094 1.01903L3.18528 1.0347L3.2009 1.0491L3.53982 0.681502ZM2.82915 0.174106L3.02861 -0.284388L3.02861 -0.284388L2.82915 0.174106ZM1.97345 8.64042e-05V0.500107L1.97799 0.500066L1.97345 8.64042e-05ZM0 15.7877H-0.5V16.2877H0V15.7877ZM27.1676 15.7883L27.1699 15.2882L27.1581 15.2884L27.1676 15.7883ZM31.0791 15.806L31.0904 15.3061L31.0814 15.306L31.0791 15.806ZM34.1389 15.2456L34.3266 15.7091L34.1389 15.2456ZM38.4182 10.9085L38.8841 11.0899V11.0899L38.4182 10.9085ZM38.9375 7.84142H38.4375V7.85041L38.4378 7.85939L38.9375 7.84142ZM31.0791 0.195404L31.081 -0.304596H31.0791V0.195404ZM19.3269 7.82372L19.8266 7.84105L19.8269 7.83239V7.82372H19.3269ZM19.8473 10.8851L19.3814 11.0666V11.0666L19.8473 10.8851ZM31.0791 11.8237L31.1092 11.3246L31.0942 11.3237H31.0791V11.8237ZM32.5839 11.601L32.7572 12.07H32.7572L32.5839 11.601ZM27.1676 11.8237V11.3237H27.1537L27.1397 11.3245L27.1676 11.8237ZM25.6708 11.5954L25.8462 11.1272L25.6708 11.5954ZM23.5488 9.52666L24.0124 9.33942V9.33942L23.5488 9.52666ZM23.2826 8.03611L23.7824 8.05131L23.7828 8.03717L23.7825 8.02303L23.2826 8.03611ZM23.5512 6.53497L24.0155 6.72052L23.5512 6.53497ZM24.3912 5.26221L24.7443 5.61616L24.7443 5.61616L24.3912 5.26221ZM25.6658 4.42511L25.4814 3.96039L25.6658 4.42511ZM27.1676 4.16001L27.1534 4.6598L27.1605 4.66001H27.1676V4.16001ZM31.0791 4.16001V4.66001H31.0892L31.0993 4.6596L31.0791 4.16001ZM32.5933 4.41164L32.774 3.94542V3.94542L32.5933 4.41164ZM33.8817 5.24604L33.5301 5.60159V5.60159L33.8817 5.24604ZM34.7307 6.52486L34.2665 6.7108V6.71081L34.7307 6.52486ZM34.9995 8.03611L34.4997 8.02162L34.4993 8.0353L34.4996 8.04898L34.9995 8.03611ZM34.7251 9.53233L35.1879 9.7217L34.7251 9.53233ZM33.8718 10.7916L34.2192 11.1512L33.8718 10.7916ZM41.6453 11.8216V11.3216H41.1453V11.8216H41.6453ZM41.6453 15.7863H41.1453V16.2844L41.6434 16.2862L41.6453 15.7863ZM57.9285 0.211029H58.4285V-0.288971H57.9285V0.211029ZM57.9285 4.15793V4.65793H58.4285V4.15793H57.9285ZM46.5922 4.15793L46.5475 4.65593L46.5698 4.65793H46.5922V4.15793ZM45.7692 4.46938L46.1324 4.81302L46.1324 4.81301L45.7692 4.46938ZM45.5401 4.85841L46.0169 5.00924V5.00924L45.5401 4.85841ZM45.5037 5.30837L46.0013 5.3576L46.0073 5.29672L45.9985 5.23619L45.5037 5.30837ZM45.5561 5.74542L46.028 5.57992L46.028 5.5799L45.5561 5.74542ZM45.7882 6.11944L46.146 5.77018L46.146 5.77017L45.7882 6.11944ZM46.1566 6.36047L45.9797 6.82816L45.9797 6.82816L46.1566 6.36047ZM46.5922 6.42342V5.92342H46.5736L46.555 5.92481L46.5922 6.42342ZM53.4949 15.8305L53.493 16.3305H53.4949V15.8305ZM64.1337 2.99124L64.6126 3.13499L64.6145 3.12835L64.1337 2.99124ZM65.3284 1.00894L64.9971 0.634424L64.9897 0.640983L64.9825 0.647829L65.3284 1.00894ZM60.293 15.7877L59.8141 15.644L59.6209 16.2877H60.293V15.7877ZM64.6027 15.7877V16.2877H64.984L65.0849 15.9201L64.6027 15.7877ZM67.8505 3.95584V3.45584H67.4692L67.3683 3.82349L67.8505 3.95584ZM72.1691 3.95584L72.6513 3.82353L72.5504 3.45584H72.1691V3.95584ZM73.3638 8.30982L72.8816 8.44213L72.8822 8.44447L73.3638 8.30982ZM74.408 12.0443L73.9265 12.179L73.9267 12.1797L74.408 12.0443ZM75.4611 15.7877L74.9798 15.9231L75.0824 16.2877H75.4611V15.7877ZM79.7266 15.7877V16.2877H80.3978L80.2057 15.6446L79.7266 15.7877ZM75.9036 2.99124L75.4228 3.12857L75.4245 3.13437L75.9036 2.99124ZM74.6558 1.00894L74.9875 0.634825L74.982 0.629957L74.9764 0.625253L74.6558 1.00894ZM72.2753 0.212477V0.712477H72.2879L72.3004 0.711844L72.2753 0.212477ZM67.6292 0.212477L67.6004 0.711645L67.6148 0.712477H67.6292V0.212477ZM105.902 1.0089L105.572 0.634006L105.564 0.640832L105.556 0.647972L105.902 1.0089ZM104.717 2.9912L105.196 3.13465L105.198 3.12541L104.717 2.9912ZM108.203 0.212436L108.175 0.711636L108.189 0.712436H108.203V0.212436ZM112.858 0.212436V0.712436H112.871L112.883 0.711803L112.858 0.212436ZM115.239 1.0089L115.571 0.635632L115.565 0.630325L115.559 0.625211L115.239 1.0089ZM116.478 2.9912L115.996 3.1267L115.999 3.13615L116.478 2.9912ZM120.354 15.7877V16.2877H121.028L120.832 15.6427L120.354 15.7877ZM116.079 15.7877L115.598 15.922L115.7 16.2877H116.079V15.7877ZM115.035 12.0443L115.517 11.9099L115.517 11.9096L115.035 12.0443ZM113.991 8.30978L114.472 8.17513L114.472 8.17204L113.991 8.30978ZM112.743 3.9558L113.224 3.81805L113.12 3.4558H112.743V3.9558ZM108.425 3.9558V3.4558H108.044L107.943 3.82211L108.425 3.9558ZM105.141 15.7877V16.2877H105.522L105.623 15.9213L105.141 15.7877ZM100.885 15.7877L100.406 15.6442L100.213 16.2877H100.885V15.7877ZM85.84 6.45142L86.1819 6.08661L85.34 5.2975V6.45142H85.84ZM85.84 15.7877V16.2877H86.34V15.7877H85.84ZM95.2913 15.3098L95.6679 14.9809L95.6515 14.9621L95.6332 14.945L95.2913 15.3098ZM95.9775 15.82L96.1841 15.3646L96.184 15.3646L95.9775 15.82ZM96.8134 16.0001V15.5001H96.8128L96.8134 16.0001ZM98.778 9.15527e-05H99.278V-0.499908H98.778V9.15527e-05ZM95.017 9.15527e-05V-0.499908H94.517V9.15527e-05H95.017ZM95.017 9.36292L94.6782 9.73068L95.517 10.5033V9.36292H95.017ZM85.5922 0.681507L85.2233 1.01902L85.2377 1.03479L85.2534 1.04927L85.5922 0.681507ZM84.9018 0.183008L85.1061 -0.27335L84.9018 0.183008ZM84.0701 9.15527e-05L84.0761 -0.499908H84.0701V9.15527e-05ZM82.1055 15.7877H81.6055V16.2877H82.1055V15.7877ZM3.26991 6.45141V15.7877H4.26991V6.45141H3.26991ZM13.5805 14.9447L4.1115 6.08628L3.42833 6.81654L12.8974 15.675L13.5805 14.9447ZM14.1317 15.3646C13.9342 15.275 13.7582 15.1442 13.6155 14.9809L12.8624 15.6388C13.0991 15.9097 13.391 16.1268 13.7187 16.2753L14.1317 15.3646ZM14.7604 15.5001C14.5436 15.5004 14.3292 15.4542 14.1317 15.3646L13.7187 16.2753C14.0463 16.4239 14.402 16.5005 14.7617 16.5001L14.7604 15.5001ZM16.2257 13.6638C16.2257 14.2923 16.0534 14.752 15.8037 15.0458C15.5607 15.3318 15.2123 15.5001 14.7611 15.5001V16.5001C15.4868 16.5001 16.1207 16.217 16.5658 15.6933C17.0042 15.1774 17.2257 14.4689 17.2257 13.6638H16.2257ZM16.2257 8.64042e-05V13.6638H17.2257V8.64042e-05H16.2257ZM12.9558 0.500086H16.7257V-0.499914H12.9558V0.500086ZM13.4558 9.36292V8.64042e-05H12.4558V9.36292H13.4558ZM3.2009 1.0491L12.6168 9.73052L13.2947 8.99532L3.87875 0.313902L3.2009 1.0491ZM2.62969 0.632599C2.83522 0.722011 3.01964 0.853676 3.17094 1.01903L3.9087 0.34397C3.66267 0.0750905 3.36281 -0.139002 3.02861 -0.284388L2.62969 0.632599ZM1.97799 0.500066C2.20212 0.498031 2.42416 0.543188 2.62969 0.632599L3.02861 -0.284388C2.69441 -0.429775 2.33335 -0.503201 1.96891 -0.499893L1.97799 0.500066ZM0.5 2.33637C0.5 1.69498 0.669942 1.23716 0.916058 0.948169C1.15457 0.668107 1.50304 0.500086 1.97345 0.500086V-0.499914C1.24032 -0.499914 0.602065 -0.225456 0.154738 0.299792C-0.284986 0.816114 -0.5 1.52643 -0.5 2.33637H0.5ZM0.5 15.7877V2.33637H-0.5V15.7877H0.5ZM3.76991 15.2877H0V16.2877H3.76991V15.2877ZM27.1581 15.2884C26.1804 15.307 25.2091 15.1262 24.3035 14.757L23.926 15.683C24.9573 16.1034 26.0635 16.3094 27.1771 16.2882L27.1581 15.2884ZM31.0814 15.306L27.1699 15.2883L27.1653 16.2883L31.0768 16.306L31.0814 15.306ZM33.9512 14.7822C33.0433 15.1499 32.0697 15.3282 31.0904 15.3062L31.0679 16.3059C32.1834 16.331 33.2924 16.1279 34.3266 15.7091L33.9512 14.7822ZM36.3705 13.1678C35.6825 13.8651 34.8592 14.4145 33.9512 14.7822L34.3266 15.7091C35.3609 15.2902 36.2986 14.6644 37.0823 13.8701L36.3705 13.1678ZM37.9523 10.727C37.5968 11.6399 37.0585 12.4704 36.3705 13.1678L37.0823 13.8701C37.8661 13.0758 38.4792 12.1297 38.8841 11.0899L37.9523 10.727ZM38.4378 7.85939C38.473 8.83836 38.3078 9.81421 37.9523 10.727L38.8841 11.0899C39.2891 10.0502 39.4773 8.93859 39.4372 7.82346L38.4378 7.85939ZM31.0772 0.6954C33.2921 0.703822 35.127 1.44522 36.4054 2.68779C37.6825 3.92911 38.4375 5.70262 38.4375 7.84142H39.4375C39.4375 5.4581 38.5908 3.41745 37.1024 1.97072C35.6153 0.525239 33.5209 -0.295315 31.081 -0.304592L31.0772 0.6954ZM27.1676 0.695404H31.0791V-0.304596H27.1676V0.695404ZM19.8269 7.82372C19.8269 5.65761 20.6081 3.88457 21.897 2.65188C23.1883 1.41697 25.0198 0.695404 27.1676 0.695404V-0.304596C24.7933 -0.304596 22.7045 0.49596 21.2059 1.92919C19.7049 3.36465 18.8269 5.40577 18.8269 7.82372H19.8269ZM20.3132 10.7036C19.9583 9.79238 19.7927 8.81838 19.8266 7.84105L18.8272 7.80639C18.7886 8.91948 18.9772 10.0288 19.3814 11.0666L20.3132 10.7036ZM21.8911 13.1411C21.205 12.4442 20.6682 11.6148 20.3132 10.7036L19.3814 11.0666C19.7857 12.1044 20.3971 13.0489 21.1785 13.8426L21.8911 13.1411ZM24.3035 14.757C23.398 14.3878 22.5771 13.838 21.8911 13.1411L21.1785 13.8426C21.9598 14.6363 22.8947 15.2625 23.926 15.683L24.3035 14.757ZM31.049 12.3228C31.6298 12.3578 32.2115 12.2717 32.7572 12.07L32.4106 11.1321C31.9948 11.2857 31.5516 11.3513 31.1092 11.3246L31.049 12.3228ZM27.1676 12.3237H31.0791V11.3237H27.1676V12.3237ZM25.4954 12.0637C26.038 12.267 26.6169 12.3552 27.1955 12.3229L27.1397 11.3245C26.6995 11.3491 26.259 11.2819 25.8462 11.1272L25.4954 12.0637ZM24.0434 11.142C24.4583 11.5465 24.9527 11.8604 25.4954 12.0637L25.8462 11.1272C25.4333 10.9726 25.0572 10.7338 24.7415 10.426L24.0434 11.142ZM23.0852 9.7139C23.3022 10.2512 23.6285 10.7375 24.0434 11.142L24.7415 10.426C24.4258 10.1182 24.1775 9.74821 24.0124 9.33942L23.0852 9.7139ZM22.7829 8.02091C22.7653 8.60009 22.8682 9.17662 23.0852 9.7139L24.0124 9.33942C23.8473 8.93063 23.769 8.49198 23.7824 8.05131L22.7829 8.02091ZM23.0869 6.34942C22.8711 6.88946 22.7676 7.46783 22.7828 8.0492L23.7825 8.02303C23.7708 7.57753 23.8501 7.13434 24.0155 6.72052L23.0869 6.34942ZM24.038 4.90825C23.6263 5.31901 23.3027 5.80938 23.0869 6.34942L24.0155 6.72052C24.1808 6.30669 24.4288 5.93092 24.7443 5.61616L24.038 4.90825ZM25.4814 3.96039C24.9408 4.17497 24.4497 4.49749 24.038 4.90825L24.7443 5.61616C25.0598 5.3014 25.4361 5.05426 25.8503 4.88983L25.4814 3.96039ZM27.1818 3.66021C26.6005 3.64367 26.0219 3.7458 25.4814 3.96039L25.8503 4.88983C26.2645 4.7254 26.7079 4.64713 27.1534 4.6598L27.1818 3.66021ZM31.0791 3.66001H27.1676V4.66001H31.0791V3.66001ZM32.774 3.94542C32.2279 3.73381 31.6441 3.6368 31.0589 3.66041L31.0993 4.6596C31.5474 4.64151 31.9945 4.71581 32.4126 4.87786L32.774 3.94542ZM34.2332 4.89048C33.8168 4.47872 33.3201 4.15703 32.774 3.94542L32.4126 4.87786C32.8308 5.03991 33.2112 5.28626 33.5301 5.60159L34.2332 4.89048ZM35.1948 6.33892C34.977 5.79527 34.6497 5.30224 34.2332 4.89048L33.5301 5.60159C33.8491 5.91692 34.0997 6.29448 34.2665 6.7108L35.1948 6.33892ZM35.4992 8.0506C35.5162 7.4652 35.4126 6.88256 35.1948 6.33892L34.2665 6.71081C34.4333 7.12713 34.5127 7.57332 34.4997 8.02162L35.4992 8.0506ZM35.1879 9.7217C35.4082 9.18323 35.5143 8.60486 35.4993 8.02325L34.4996 8.04898C34.511 8.49209 34.4302 8.93273 34.2624 9.34295L35.1879 9.7217ZM34.2192 11.1512C34.6376 10.747 34.9675 10.2602 35.1879 9.7217L34.2624 9.34295C34.0945 9.75318 33.8432 10.1241 33.5244 10.432L34.2192 11.1512ZM32.7572 12.07C33.3029 11.8684 33.8008 11.5555 34.2192 11.1512L33.5244 10.432C33.2056 10.74 32.8263 10.9784 32.4106 11.1321L32.7572 12.07ZM41.1453 11.8216V15.7863H42.1453V11.8216H41.1453ZM53.4949 11.3216H41.6453V12.3216H53.4949V11.3216ZM54.4727 10.6181C54.4727 10.867 54.3851 11.0178 54.2566 11.1189C54.1125 11.2321 53.8647 11.3216 53.4949 11.3216V12.3216C54.01 12.3216 54.5011 12.1988 54.8747 11.905C55.2639 11.5989 55.4727 11.1479 55.4727 10.6181H54.4727ZM53.4949 9.86147C53.8733 9.86147 54.1154 9.95968 54.2546 10.0783C54.3841 10.1886 54.4727 10.3565 54.4727 10.6181H55.4727C55.4727 10.101 55.2826 9.64051 54.9032 9.31719C54.5336 9.0022 54.0368 8.86147 53.4949 8.86147V9.86147ZM46.5568 9.86147H53.4949V8.86147H46.5568V9.86147ZM40.8887 4.82165C40.8887 6.2957 41.4331 7.57097 42.4413 8.47304C43.4447 9.3707 44.8645 9.86147 46.5568 9.86147V8.86147C45.0544 8.86147 43.8902 8.42746 43.1081 7.72778C42.331 7.0325 41.8887 6.03786 41.8887 4.82165H40.8887ZM46.5922 -0.288971C44.8168 -0.288971 43.3835 0.219203 42.3894 1.14083C41.3922 2.06539 40.8887 3.35864 40.8887 4.82165H41.8887C41.8887 3.59439 42.3055 2.58233 43.0693 1.87415C43.8363 1.16303 45.0048 0.711029 46.5922 0.711029V-0.288971ZM57.9285 -0.288971H46.5922V0.711029H57.9285V-0.288971ZM58.4285 4.15793V0.211029H57.4285V4.15793H58.4285ZM46.5922 4.65793H57.9285V3.65793H46.5922V4.65793ZM46.3219 4.68683C46.3938 4.65962 46.4709 4.64905 46.5475 4.65593L46.6369 3.65993C46.4099 3.63955 46.1812 3.67087 45.968 3.75155L46.3219 4.68683ZM46.1324 4.81301C46.1852 4.75718 46.25 4.71403 46.3219 4.68683L45.968 3.75155C45.7548 3.83222 45.5626 3.96016 45.406 4.12574L46.1324 4.81301ZM46.0169 5.00924C46.04 4.93594 46.0795 4.86886 46.1324 4.81302L45.406 4.12573C45.2493 4.29132 45.1322 4.49025 45.0634 4.70757L46.0169 5.00924ZM45.9985 5.23619C45.9874 5.16012 45.9937 5.08253 46.0169 5.00924L45.0634 4.70757C44.9947 4.9249 44.976 5.15499 45.009 5.38056L45.9985 5.23619ZM46.028 5.5799C46.003 5.50863 45.9939 5.43275 46.0013 5.3576L45.0061 5.25915C44.9843 5.47952 45.011 5.70199 45.0843 5.91093L46.028 5.5799ZM46.146 5.77017C46.0933 5.71612 46.053 5.65118 46.028 5.57992L45.0843 5.91092C45.1576 6.11988 45.2758 6.31026 45.4305 6.46871L46.146 5.77017ZM46.3334 5.89279C46.2627 5.86607 46.1988 5.82422 46.146 5.77018L45.4304 6.4687C45.5851 6.62716 45.7726 6.74985 45.9797 6.82816L46.3334 5.89279ZM46.555 5.92481C46.4797 5.93043 46.404 5.9195 46.3334 5.89278L45.9797 6.82816C46.1869 6.90647 46.4086 6.93851 46.6294 6.92203L46.555 5.92481ZM53.4949 5.92342H46.5922V6.92342H53.4949V5.92342ZM59.2161 11.034C59.2161 9.34898 58.7293 8.03641 57.7054 7.1579C56.6966 6.29226 55.2521 5.92342 53.4949 5.92342V6.92342C55.1359 6.92342 56.302 7.27139 57.0542 7.91682C57.7914 8.54937 58.2161 9.54211 58.2161 11.034H59.2161ZM53.4949 16.3305C55.3499 16.3305 56.7937 15.7841 57.7747 14.8131C58.7548 13.843 59.2161 12.5053 59.2161 11.034H58.2161C58.2161 12.2973 57.8234 13.3579 57.0712 14.1023C56.32 14.8459 55.1531 15.3305 53.4949 15.3305V16.3305ZM41.6434 16.2862L53.493 16.3305L53.4967 15.3305L41.6472 15.2863L41.6434 16.2862ZM64.6145 3.12835C64.8055 2.45861 65.1712 1.85175 65.6742 1.37005L64.9825 0.647829C64.3514 1.25227 63.8925 2.01375 63.6528 2.85413L64.6145 3.12835ZM60.7719 15.9314L64.6126 3.13497L63.6548 2.8475L59.8141 15.644L60.7719 15.9314ZM64.6027 15.2877H60.293V16.2877H64.6027V15.2877ZM67.3683 3.82349L64.1205 15.6553L65.0849 15.9201L68.3326 4.08819L67.3683 3.82349ZM72.1691 3.45584H67.8505V4.45584H72.1691V3.45584ZM73.8459 8.17752L72.6513 3.82353L71.6869 4.08815L72.8816 8.44213L73.8459 8.17752ZM74.8895 11.9097L73.8453 8.17518L72.8822 8.44447L73.9265 12.179L74.8895 11.9097ZM75.9424 15.6523L74.8893 11.9089L73.9267 12.1797L74.9798 15.9231L75.9424 15.6523ZM79.7266 15.2877H75.4611V16.2877H79.7266V15.2877ZM75.4245 3.13437L79.2475 15.9308L80.2057 15.6446L76.3827 2.84811L75.4245 3.13437ZM74.3241 1.38305C74.849 1.84847 75.2301 2.45402 75.4228 3.12856L76.3844 2.85391C76.1394 1.99636 75.6548 1.22652 74.9875 0.634825L74.3241 1.38305ZM72.3004 0.711844C73.0402 0.674577 73.7668 0.917681 74.3352 1.39262L74.9764 0.625253C74.2148 -0.0111003 73.2413 -0.336822 72.2501 -0.286889L72.3004 0.711844ZM67.6292 0.712477H72.2753V-0.287523H67.6292V0.712477ZM65.6596 1.38345C66.1925 0.912103 66.8902 0.670608 67.6004 0.711645L67.6581 -0.28669C66.6843 -0.342956 65.7277 -0.0118418 64.9971 0.634424L65.6596 1.38345ZM105.556 0.647972C104.926 1.25252 104.469 2.01549 104.235 2.85699L105.198 3.12541C105.385 2.45663 105.747 1.85027 106.248 1.36982L105.556 0.647972ZM108.232 -0.286764C107.258 -0.341888 106.303 -0.0110414 105.572 0.634006L106.233 1.38379C106.767 0.912911 107.465 0.671396 108.175 0.711636L108.232 -0.286764ZM112.858 -0.287564H108.203V0.712436H112.858V-0.287564ZM115.559 0.625211C114.798 -0.0111415 113.824 -0.336863 112.833 -0.286931L112.883 0.711803C113.623 0.674536 114.35 0.917639 114.918 1.39258L115.559 0.625211ZM116.959 2.85572C116.718 1.99849 116.236 1.22816 115.571 0.635632L114.906 1.38216C115.428 1.84776 115.807 2.45307 115.996 3.12667L116.959 2.85572ZM120.832 15.6427L116.956 2.84625L115.999 3.13615L119.875 15.9326L120.832 15.6427ZM116.079 16.2877H120.354V15.2877H116.079V16.2877ZM114.554 12.1786L115.598 15.922L116.561 15.6533L115.517 11.9099L114.554 12.1786ZM113.509 8.44443L114.554 12.1789L115.517 11.9096L114.472 8.17513L113.509 8.44443ZM112.263 4.09355L113.51 8.44753L114.472 8.17204L113.224 3.81805L112.263 4.09355ZM108.425 4.4558H112.743V3.4558H108.425V4.4558ZM105.623 15.9213L108.906 4.08949L107.943 3.82211L104.66 15.654L105.623 15.9213ZM100.885 16.2877H105.141V15.2877H100.885V16.2877ZM104.238 2.84777L100.406 15.6442L101.364 15.9311L105.196 3.13463L104.238 2.84777ZM85.34 6.45142V15.7877H86.34V6.45142H85.34ZM95.6332 14.945L86.1819 6.08661L85.4981 6.81623L94.9494 15.6746L95.6332 14.945ZM96.184 15.3646C95.9865 15.275 95.8105 15.1442 95.6679 14.9809L94.9148 15.6388C95.1514 15.9097 95.4434 16.1268 95.771 16.2753L96.184 15.3646ZM96.8128 15.5001C96.5959 15.5004 96.3815 15.4542 96.1841 15.3646L95.771 16.2753C96.0987 16.4239 96.4543 16.5006 96.8141 16.5001L96.8128 15.5001ZM98.278 13.6638C98.278 14.2923 98.1057 14.752 97.8561 15.0458C97.613 15.3318 97.2647 15.5001 96.8134 15.5001V16.5001C97.5391 16.5001 98.1731 16.217 98.6181 15.6933C99.0565 15.1774 99.278 14.4689 99.278 13.6638H98.278ZM98.278 9.15527e-05V13.6638H99.278V9.15527e-05H98.278ZM95.017 0.500092H98.778V-0.499908H95.017V0.500092ZM95.517 9.36292V9.15527e-05H94.517V9.36292H95.517ZM85.2534 1.04927L94.6782 9.73068L95.3557 8.99516L85.9309 0.313748L85.2534 1.04927ZM84.6975 0.639366C84.8969 0.72863 85.0758 0.857845 85.2233 1.01902L85.9611 0.343995C85.7213 0.0819069 85.4303 -0.128204 85.1061 -0.27335L84.6975 0.639366ZM84.064 0.500055C84.2825 0.502688 84.4981 0.550101 84.6975 0.639366L85.1061 -0.27335C84.7818 -0.418495 84.4313 -0.495592 84.0761 -0.499872L84.064 0.500055ZM82.6055 2.33637C82.6055 1.695 82.7754 1.23679 83.0209 0.947566C83.2589 0.667296 83.6052 0.500092 84.0701 0.500092V-0.499908C83.3402 -0.499908 82.7043 -0.224635 82.2586 0.300405C81.8205 0.81649 81.6055 1.52642 81.6055 2.33637H82.6055ZM82.6055 15.7877V2.33637H81.6055V15.7877H82.6055ZM85.84 15.2877H82.1055V16.2877H85.84V15.2877Z" fill="white" mask="url(#path-1-inside-1_1629_4075)"/>
</g>
<defs>
<clipPath id="clip0_1629_4075">
<rect width="120.31" height="16" fill="white"/>
</clipPath>
</defs>
</svg>
