<svg width="360" height="360" viewBox="0 0 360 360" fill="none" xmlns="http://www.w3.org/2000/svg" style="">
<g clip-path="url(#clip0_1733_3981)">
<path d="M54.8218 273.68L43.6118 244.24L36.6917 212.51L34.3518 179.61L36.6719 146.7L43.5718 114.98L54.7617 85.53M3.28174 148.04L0.511719 179.61V179.84M206.792 357.29L209.032 356.87L213.692 355.6L228.862 351.6L233.502 350.4L237.802 349.59L240.282 348.75L251.592 343.58L263.372 338.19L266.572 336.73L268.502 335.85M294.062 41.04L291.772 39.45L268.432 23.3L264.992 22.15L258.852 21.04L256.982 20.14L240.802 12.33L233.422 8.75999L227.422 8.03L225.202 7.42L215.632 4.79999L204.252 1.67L203.632 1.50999M355.962 211.11L356.012 210.65L358.722 179.55V179.41L356.002 148.41V148.29V147.94L355.932 147.69L347.882 117.69L347.792 117.37L347.572 116.9L336.052 92.24L334.432 88.77L329.262 87.59L328.962 87.15L311.582 61.71L302.582 60.43L289.472 59.26L272.602 58.26L252.482 57.41L229.752 56.78L205.202 56.39L179.712 56.27L154.222 56.41L129.672 56.81L106.932 57.46M179.782 358.7V179.53V145.53V112.85V82.73V34.27V17.44V0.499985H178.652H174.302L168.992 0.62999L158.552 6.25L158.242 6.42L148.362 6.81L133.062 18.45L120.062 19.18L102.312 36.29L86.7117 58.29L73.8618 84.56L64.2817 114.24L58.3718 146.29L56.3718 179.56L58.3718 212.83L64.3018 244.88L73.9119 274.56L86.7717 300.84L102.392 322.84L120.132 340.04L120.552 340.3L139.372 351.82L148.232 352.34L158.112 352.72L168.712 352.95L179.662 353.03L190.662 352.95L201.252 352.71L211.632 341.26L226.222 340.72L240.222 323.72L257.042 322.89L272.652 300.89L285.512 274.61L295.092 244.92L301.012 212.92L303.012 179.64L301.012 146.37L295.072 114.37L285.462 84.7L272.582 58.43L256.962 36.43L240.142 35.6L221.222 34.98L200.822 34.6L179.682 34.47L158.532 34.61L138.132 35.01L119.202 35.64L102.382 36.48L88.2117 37.48L69.9019 59.48L56.7917 60.67L47.7917 61.96L30.4319 87.41L30.1318 87.85L17.0518 116.75L9.05176 147.75L6.35181 179.75L9.07178 211.75L17.1318 242.75L30.0618 271.53L40.0618 272.65L54.7917 273.65L69.8518 299.81L86.7217 300.81L106.862 301.65L129.592 302.27L154.152 302.65L179.642 302.78L205.122 302.63L229.672 302.24L252.402 301.6L272.532 300.74L289.392 299.74L304.392 273.56L319.112 272.56L329.112 271.44L342.192 242.53L350.192 211.53L352.902 179.53L350.172 147.53L342.172 116.53L329.072 87.64L319.072 86.51L304.352 85.51L285.302 84.59L262.472 83.83L236.612 83.27L208.612 82.92L179.532 82.81L150.462 82.94L122.462 83.31L96.5918 83.89L73.7517 84.66L54.6917 85.6M54.7517 273.75L73.8218 274.66L96.6619 275.41L122.532 275.96L150.532 276.3L179.612 276.41L208.692 276.28L236.692 275.92L262.562 275.35L285.392 274.59L304.392 273.66M355.872 148.5V148.27L350.262 147.55L339.102 147.1L322.502 146.68L300.862 146.3L274.792 146L245.152 145.78L213.012 145.64H179.582L146.152 145.7L114.012 145.85L84.3718 146.1L58.2917 146.42L36.6318 146.8L20.0217 147.24L8.8418 147.7L3.2417 148.18M347.642 117.5L342.212 116.61L331.472 115.77L315.582 114.98L294.922 114.29L270.082 113.72L241.892 113.3L211.332 113.04L179.572 112.96L147.802 113.06L117.252 113.34L89.0417 113.78L64.2017 114.37L43.5317 115.08L27.6318 115.87L16.8718 116.73L11.4219 117.61M11.4219 241.88L16.8818 242.74L27.6318 243.57L43.5317 244.34L64.2017 245.01L89.0518 245.57L117.252 245.98L147.812 246.23L179.582 246.31L211.342 246.21L241.892 245.94L270.092 245.5L294.922 244.93L315.582 244.24L331.472 243.46L342.212 242.62L347.652 241.76M195.412 358.28L196.512 357.86L210.632 352.46L211.092 352.29L219.942 351.76L238.772 340.22L239.192 339.97L250.192 339.09L271.082 321.82L282.172 320.66L302.502 298.59L311.502 297.32L328.862 271.86L329.162 271.43L334.332 270.26M334.272 88.8L333.812 88.16L321.212 70.23L316.212 63.08L315.432 62.31L304.212 51.17L294.062 41.04L289.862 39.71L282.142 38.44L281.602 38.04L258.852 21.04L250.142 20.04L239.142 19.16L238.722 18.9L219.882 7.39L211.032 6.87L210.572 6.68999L196.462 1.33L195.352 0.899979L190.352 0.699997M159.352 1.18999L155.512 1.52L143.512 4.81999L132.632 7.81999L131.722 8.06999L131.412 8.23999L109.582 19.79L109.012 20.09L100.302 21.09L77.5718 38.09L77.0217 38.49L69.2917 39.77L47.6719 61.84L42.8918 63.17M199.882 358.04L206.212 356.04L218.212 352.29L219.892 351.76L227.442 351.12L227.752 350.96L249.602 339.39L250.172 339.09L258.872 338.09L281.612 321.09L282.152 320.69L289.872 319.43L311.502 297.35L316.272 296.03M304.422 273.62L315.662 244.14L322.562 212.41L324.892 179.5L322.542 146.61L315.622 114.88L304.402 85.44L289.342 59.29L271.012 37.29L250.062 20.04L249.492 19.73L227.672 8.20999L227.332 8.03L219.782 7.39L218.082 6.86L206.082 3.14L199.722 1.14L195.262 0.86998M155.442 1.49001L152.362 1.87999L134.672 6.45L126.972 8.45L125.662 8.78999L118.302 12.35L101.062 20.7L100.282 21.08L94.1318 22.19L88.1318 26.44L70.0618 39.23L69.3018 39.77L65.1018 41.1M203.712 357.68L215.712 354.38L225.332 351.73L227.522 351.12L233.522 350.39L240.872 346.83L257.062 338.98L258.912 338.08L265.062 337.04L271.062 332.78L289.162 319.98L289.912 319.45L294.112 318.13M316.232 63.13L311.462 61.79L289.812 39.79L289.052 39.25L270.992 26.5L264.942 22.23L261.102 20.45L237.672 9.64999L235.502 9.11L232.172 8.26999L229.862 7.67999L213.602 3.67999L206.662 1.98L203.572 1.59999L199.742 1.25999M152.382 1.99998L150.142 2.43001L135.542 6.03999L126.892 8.23L123.552 9.07999L121.382 9.62L118.892 10.48L95.5217 21.37L94.1318 22.22L90.6819 23.38M90.7917 335.93L94.2417 337.08L95.6519 337.93L119.062 348.78L121.552 349.62L125.862 350.43L127.152 350.76L130.502 351.62L145.692 355.62L150.332 356.88L152.562 357.3M268.442 23.3L266.442 22.41L263.592 21.11L251.592 15.62L240.222 10.43L237.732 9.56999L233.432 8.75999L228.742 7.56L213.662 3.56L208.952 2.28999L206.722 1.86M358.722 179.66V179.52L355.992 148.43L355.942 147.95M190.442 358.48L200.912 352.84L201.212 352.68L211.092 352.29L226.182 340.69L239.182 339.97L256.942 322.84L271.102 321.84L289.412 299.79L302.522 298.61L318.962 272.91L319.182 272.57L331.542 243.38L339.162 212.04L341.722 179.56L339.142 147.04L331.512 115.68L319.122 86.5L318.902 86.15L302.452 60.47L282.102 38.47L271.062 37.26L256.902 36.26L239.062 19.14L226.062 18.42L210.962 6.84999L201.082 6.45999L200.782 6.29999L190.312 0.680008L185.002 0.559982H180.642H179.512H179.452M3.30176 211.21L8.90186 211.67L20.0818 212.1L36.6917 212.51L58.3518 212.86L84.4319 213.15L114.072 213.36L146.212 213.49H179.652L213.082 213.43L245.212 213.28L274.852 213.04L300.922 212.74L322.562 212.37L339.162 211.95L350.322 211.51L355.932 210.82V210.59M106.802 57.45L96.6619 83.82L89.0618 113.68L84.4119 146.04L82.8318 179.61L84.4319 213.19L89.1318 245.51L96.7317 275.38L106.892 301.75L119.192 323.75L138.122 324.36L158.522 324.73L179.672 324.86L200.822 324.72L221.212 324.33L240.132 323.7L252.432 301.7L262.592 275.32L270.172 245.44L274.852 213.04L276.432 179.47L274.832 145.89L270.122 113.58L262.522 83.72L252.352 57.36L240.032 35.36L226.032 18.36L211.442 17.82L201.062 6.45999L190.472 6.23L179.472 6.14999L168.522 6.23L157.922 6.48L147.562 17.91L138.062 34.82L129.582 56.82L122.582 83.26L117.342 113.26L114.062 145.75L112.972 179.56L114.082 213.36L117.342 245.88L122.612 275.88L129.612 302.32L138.112 324.32L147.732 341.24L163.412 341.56L179.662 341.67L195.902 341.55L211.582 341.22L221.202 324.29L229.692 302.29L236.692 275.84L241.942 245.84L245.182 213.32L246.272 179.51L245.162 145.71L241.902 113.2L236.632 83.2L229.632 56.77L221.122 34.77L211.492 17.86L195.802 17.54L179.562 17.43L163.322 17.55L147.642 17.89L133.042 18.43L119.102 35.43L106.812 57.43L86.6819 58.3L69.8018 59.3L54.8018 85.47L40.0618 86.59L30.0618 87.73L24.8718 88.91L23.2917 92.31L11.6819 117.04L11.4617 117.51L11.4019 117.75L3.35181 147.83L3.28174 148.08L3.20166 148.56L0.511719 179.42V179.65L3.25171 210.87V211.21L3.32178 211.45L11.3918 241.55L11.4517 241.78L11.6719 242.23L23.2917 267.04L24.8718 270.41L25.3118 271.04L37.9817 289.04L42.9817 296.11L43.7417 296.86L55.0618 308.04L65.2117 318.12L66.4019 318.95L74.3018 324.41L90.8418 335.86L92.7617 336.74L95.7017 337.86L98.0918 338.76L121.552 349.58L123.682 350.12L127.062 351.04L129.232 351.59L145.652 355.65L152.522 357.33L155.612 357.71L159.442 358.04L163.912 358.31L168.912 358.51L174.212 358.63L177.832 358.68H179.692H185.142L190.622 352.99L195.912 341.63L200.822 324.76L205.152 302.76L208.742 276.28L211.422 246.18L213.062 213.47L213.612 179.52L213.032 145.57L211.352 112.94L208.652 82.85L205.052 56.38L200.692 34.38L195.772 17.53L190.482 6.2L184.992 0.529984H179.572H179.442H174.032L168.572 6.2L163.292 17.54L158.402 34.39L154.072 56.39L150.502 82.86L147.822 112.95L146.172 145.59L145.622 179.53L146.192 213.53L147.872 246.17L150.562 276.27L154.162 302.75L158.502 324.75L163.402 341.62L168.692 352.97L174.152 358.66H179.592H181.452L185.082 358.61L190.382 358.48L195.382 358.28L199.852 358.01L203.682 357.68L206.762 357.29L213.662 355.6L230.062 351.54L232.252 350.98L235.652 350.12L237.782 349.58L261.262 338.74L265.062 337.04L268.502 335.89L291.862 319.7L294.122 318.13L304.302 308L315.552 296.81L316.322 296.05L321.322 288.93L333.952 270.93L334.392 270.29L336.002 266.85L347.522 242.15L347.742 241.69L347.822 241.38L355.822 211.38L355.892 211.14V210.82V210.68L358.602 179.68V179.61H352.972H145.642H112.962H82.8318H56.3318H34.3318H17.4817H6.16187H0.511719V179.73L3.23169 210.73L3.29175 210.95V211.18M65.1519 318.18L69.3618 319.5L70.1118 320.03L88.2417 332.84L94.2417 337.07L100.392 338.16L101.162 338.53L118.482 346.9L125.812 350.45L131.812 351.18L132.712 351.42L143.632 354.42L155.632 357.7M42.9517 296.1L47.7317 297.42L69.3718 319.48L77.1018 320.73L77.6418 321.13L100.392 338.13L109.102 339.13L109.662 339.43L131.532 351.04L131.822 351.2L139.372 351.83L140.022 352.03L153.112 356.04L159.432 358.04M24.8718 270.37L30.0518 271.53L30.3518 271.97L47.7317 297.42L56.7317 298.68L77.0718 320.68L88.1719 321.83L109.062 339.14L120.062 340.01L133.062 340.72L148.142 352.31L148.592 352.48L162.722 357.88L163.812 358.29M168.652 0.689987L163.652 0.889999L162.542 1.30998L148.442 6.68999L147.982 6.87L139.122 7.39999L120.312 18.92L119.892 19.18L108.892 20.06L88.0618 37.32L76.9617 38.49L56.6418 60.55L40.2117 86.24L39.9917 86.59L27.6318 115.77L20.0618 147.14L17.5017 179.62L20.0618 212.1L27.6917 243.47L40.0618 272.65L40.2817 272.99L56.7317 298.68L69.8518 299.84L88.1719 321.84L102.342 322.84L119.162 323.67L133.162 340.67L147.752 341.2L158.122 352.64L158.422 352.8L168.882 358.44M163.792 0.839981L159.322 1.11998L152.972 3.12L139.912 7.17L139.262 7.37999L131.712 8.01999L125.712 8.75999L121.402 9.56999L106.402 16.52L95.5818 21.32L92.6917 22.43L90.6917 23.33L74.1218 34.81L66.2817 40.24L65.0818 41.08L54.9019 51.2L43.6519 62.39L42.8818 63.15L37.8818 70.25L25.2517 88.25L24.7917 88.89" stroke="#10E80C" stroke-linecap="round" stroke-linejoin="round" class="zbeaEtrb_0"></path>
<path d="M37.2586 151.83C39.8543 151.83 41.9586 149.726 41.9586 147.13C41.9586 144.534 39.8543 142.43 37.2586 142.43C34.6629 142.43 32.5586 144.534 32.5586 147.13C32.5586 149.726 34.6629 151.83 37.2586 151.83Z" fill="#10E80C" class="zbeaEtrb_1"></path>
<g opacity="0.6">
<path d="M37.2598 154.55C41.3578 154.55 44.6798 151.228 44.6798 147.13C44.6798 143.032 41.3578 139.71 37.2598 139.71C33.1619 139.71 29.8398 143.032 29.8398 147.13C29.8398 151.228 33.1619 154.55 37.2598 154.55Z" stroke="#10E80C" stroke-miterlimit="10" class="zbeaEtrb_2"></path>
</g>
<g opacity="0.3">
<path d="M37.2605 158.41C43.4902 158.41 48.5405 153.36 48.5405 147.13C48.5405 140.9 43.4902 135.85 37.2605 135.85C31.0307 135.85 25.9805 140.9 25.9805 147.13C25.9805 153.36 31.0307 158.41 37.2605 158.41Z" stroke="#10E80C" stroke-miterlimit="10" class="zbeaEtrb_3"></path>
</g>
<path d="M147.439 120.36C151.288 120.36 154.409 117.239 154.409 113.39C154.409 109.541 151.288 106.42 147.439 106.42C143.589 106.42 140.469 109.541 140.469 113.39C140.469 117.239 143.589 120.36 147.439 120.36Z" fill="#10E80C" class="zbeaEtrb_4"></path>
<g opacity="0.6">
<path d="M147.441 124.39C153.517 124.39 158.441 119.465 158.441 113.39C158.441 107.315 153.517 102.39 147.441 102.39C141.366 102.39 136.441 107.315 136.441 113.39C136.441 119.465 141.366 124.39 147.441 124.39Z" stroke="#10E80C" stroke-miterlimit="10" class="zbeaEtrb_5"></path>
</g>
<g opacity="0.3">
<path d="M147.44 130.1C156.669 130.1 164.15 122.619 164.15 113.39C164.15 104.161 156.669 96.68 147.44 96.68C138.212 96.68 130.73 104.161 130.73 113.39C130.73 122.619 138.212 130.1 147.44 130.1Z" stroke="#10E80C" stroke-miterlimit="10" class="zbeaEtrb_6"></path>
</g>
<path d="M244.678 221.63C248.875 221.63 252.278 218.227 252.278 214.03C252.278 209.833 248.875 206.43 244.678 206.43C240.481 206.43 237.078 209.833 237.078 214.03C237.078 218.227 240.481 221.63 244.678 221.63Z" fill="#10E80C" class="zbeaEtrb_7"></path>
<g opacity="0.6">
<path d="M244.682 226.04C251.315 226.04 256.692 220.663 256.692 214.03C256.692 207.397 251.315 202.02 244.682 202.02C238.049 202.02 232.672 207.397 232.672 214.03C232.672 220.663 238.049 226.04 244.682 226.04Z" stroke="#10E80C" stroke-miterlimit="10" class="zbeaEtrb_8"></path>
</g>
<g opacity="0.3">
<path d="M244.681 232.27C254.755 232.27 262.921 224.104 262.921 214.03C262.921 203.956 254.755 195.79 244.681 195.79C234.608 195.79 226.441 203.956 226.441 214.03C226.441 224.104 234.608 232.27 244.681 232.27Z" stroke="#10E80C" stroke-miterlimit="10" class="zbeaEtrb_9"></path>
</g>
<path d="M324.352 184.15C326.522 184.15 328.282 182.39 328.282 180.22C328.282 178.05 326.522 176.29 324.352 176.29C322.181 176.29 320.422 178.05 320.422 180.22C320.422 182.39 322.181 184.15 324.352 184.15Z" fill="#10E80C" class="zbeaEtrb_10"></path>
<g opacity="0.6">
<path d="M324.351 186.43C327.78 186.43 330.561 183.65 330.561 180.22C330.561 176.79 327.78 174.01 324.351 174.01C320.921 174.01 318.141 176.79 318.141 180.22C318.141 183.65 320.921 186.43 324.351 186.43Z" stroke="#10E80C" stroke-miterlimit="10" class="zbeaEtrb_11"></path>
</g>
<g opacity="0.3">
<path d="M324.35 189.66C329.564 189.66 333.79 185.434 333.79 180.22C333.79 175.006 329.564 170.78 324.35 170.78C319.137 170.78 314.91 175.006 314.91 180.22C314.91 185.434 319.137 189.66 324.35 189.66Z" stroke="#10E80C" stroke-miterlimit="10" class="zbeaEtrb_12"></path>
</g>
<path d="M122.059 281.8C124.931 281.8 127.259 279.472 127.259 276.6C127.259 273.728 124.931 271.4 122.059 271.4C119.187 271.4 116.859 273.728 116.859 276.6C116.859 279.472 119.187 281.8 122.059 281.8Z" fill="#10E80C" class="zbeaEtrb_13"></path>
<g opacity="0.6">
<path d="M122.059 284.8C126.588 284.8 130.259 281.129 130.259 276.6C130.259 272.071 126.588 268.4 122.059 268.4C117.531 268.4 113.859 272.071 113.859 276.6C113.859 281.129 117.531 284.8 122.059 284.8Z" stroke="#10E80C" stroke-miterlimit="10" class="zbeaEtrb_14"></path>
</g>
<g opacity="0.3">
<path d="M122.06 289.07C128.947 289.07 134.53 283.487 134.53 276.6C134.53 269.713 128.947 264.13 122.06 264.13C115.173 264.13 109.59 269.713 109.59 276.6C109.59 283.487 115.173 289.07 122.06 289.07Z" stroke="#10E80C" stroke-miterlimit="10" class="zbeaEtrb_15"></path>
</g>
<path d="M285.458 89.9C288.291 89.9 290.588 87.6032 290.588 84.77C290.588 81.9368 288.291 79.64 285.458 79.64C282.625 79.64 280.328 81.9368 280.328 84.77C280.328 87.6032 282.625 89.9 285.458 89.9Z" fill="#10E80C" class="zbeaEtrb_16"></path>
<g opacity="0.6">
<path d="M285.459 92.87C289.933 92.87 293.559 89.2435 293.559 84.77C293.559 80.2965 289.933 76.67 285.459 76.67C280.986 76.67 277.359 80.2965 277.359 84.77C277.359 89.2435 280.986 92.87 285.459 92.87Z" stroke="#10E80C" stroke-miterlimit="10" class="zbeaEtrb_17"></path>
</g>
<g opacity="0.3">
<path d="M285.46 97.07C292.253 97.07 297.76 91.5631 297.76 84.77C297.76 77.9769 292.253 72.47 285.46 72.47C278.667 72.47 273.16 77.9769 273.16 84.77C273.16 91.5631 278.667 97.07 285.46 97.07Z" stroke="#10E80C" stroke-miterlimit="10" class="zbeaEtrb_18"></path>
</g>
</g>
<defs>
<clipPath id="clip0_1733_3981">
<path width="359.18" height="359.19" fill="white" d="M0 0 L359.18 0 L359.18 359.19 L0 359.19 Z" class="zbeaEtrb_19"></path>
</clipPath>
</defs>
<style data-made-with="vivus-instant">.zbeaEtrb_0{stroke-dasharray:11602 11604;stroke-dashoffset:11603;animation:zbeaEtrb_draw 2000ms linear 0ms forwards;}.zbeaEtrb_1{stroke-dasharray:30 32;stroke-dashoffset:31;animation:zbeaEtrb_draw 2000ms linear 52ms forwards;}.zbeaEtrb_2{stroke-dasharray:47 49;stroke-dashoffset:48;animation:zbeaEtrb_draw 2000ms linear 105ms forwards;}.zbeaEtrb_3{stroke-dasharray:71 73;stroke-dashoffset:72;animation:zbeaEtrb_draw 2000ms linear 157ms forwards;}.zbeaEtrb_4{stroke-dasharray:44 46;stroke-dashoffset:45;animation:zbeaEtrb_draw 2000ms linear 210ms forwards;}.zbeaEtrb_5{stroke-dasharray:70 72;stroke-dashoffset:71;animation:zbeaEtrb_draw 2000ms linear 263ms forwards;}.zbeaEtrb_6{stroke-dasharray:106 108;stroke-dashoffset:107;animation:zbeaEtrb_draw 2000ms linear 315ms forwards;}.zbeaEtrb_7{stroke-dasharray:48 50;stroke-dashoffset:49;animation:zbeaEtrb_draw 2000ms linear 368ms forwards;}.zbeaEtrb_8{stroke-dasharray:76 78;stroke-dashoffset:77;animation:zbeaEtrb_draw 2000ms linear 421ms forwards;}.zbeaEtrb_9{stroke-dasharray:115 117;stroke-dashoffset:116;animation:zbeaEtrb_draw 2000ms linear 473ms forwards;}.zbeaEtrb_10{stroke-dasharray:25 27;stroke-dashoffset:26;animation:zbeaEtrb_draw 2000ms linear 526ms forwards;}.zbeaEtrb_11{stroke-dasharray:40 42;stroke-dashoffset:41;animation:zbeaEtrb_draw 2000ms linear 578ms forwards;}.zbeaEtrb_12{stroke-dasharray:60 62;stroke-dashoffset:61;animation:zbeaEtrb_draw 2000ms linear 631ms forwards;}.zbeaEtrb_13{stroke-dasharray:33 35;stroke-dashoffset:34;animation:zbeaEtrb_draw 2000ms linear 684ms forwards;}.zbeaEtrb_14{stroke-dasharray:52 54;stroke-dashoffset:53;animation:zbeaEtrb_draw 2000ms linear 736ms forwards;}.zbeaEtrb_15{stroke-dasharray:79 81;stroke-dashoffset:80;animation:zbeaEtrb_draw 2000ms linear 789ms forwards;}.zbeaEtrb_16{stroke-dasharray:33 35;stroke-dashoffset:34;animation:zbeaEtrb_draw 2000ms linear 842ms forwards;}.zbeaEtrb_17{stroke-dasharray:51 53;stroke-dashoffset:52;animation:zbeaEtrb_draw 2000ms linear 894ms forwards;}.zbeaEtrb_18{stroke-dasharray:78 80;stroke-dashoffset:79;animation:zbeaEtrb_draw 2000ms linear 947ms forwards;}.zbeaEtrb_19{stroke-dasharray:1437 1439;stroke-dashoffset:1438;animation:zbeaEtrb_draw 2000ms linear 999ms forwards;}@keyframes zbeaEtrb_draw{100%{stroke-dashoffset:0;}}@keyframes zbeaEtrb_fade{0%{stroke-opacity:1;}94.44444444444444%{stroke-opacity:1;}100%{stroke-opacity:0;}}</style></svg>
