<svg width="1920" height="694" viewBox="0 0 1920 694" fill="none" xmlns="http://www.w3.org/2000/svg">
<g clip-path="url(#clip0_1816_3576)">
<path d="M655.094 519.456L529.857 452.012L395.158 413.895L260.177 400.965L127.699 398.262L-3.05078 397.945" stroke="#10E80C" stroke-width="1.17538" stroke-linecap="round" stroke-linejoin="round"/>
<path d="M2008.61 634.937L1868.27 634.702L1727.48 633.997L1586.04 632.986L1444.2 632.716L1303.39 635.643L1165.33 641.355L1030.09 646.303L895.859 647.925L760.713 645.187L623.299 639.733L483.616 635.267L342.7 633.351L201.665 633.257L61.1126 633.633L-78.6523 633.903" stroke="#10E80C" stroke-width="1.17538" stroke-linecap="round" stroke-linejoin="round"/>
<path d="M1991.27 572.395L1853.08 572.066L1714.23 571.29L1574.34 571.067L1433.51 575.534L1293.82 589.497L1163.55 609.008L1158.1 609.831L1121.76 613.428" stroke="#10E80C" stroke-width="1.17538" stroke-linecap="round" stroke-linejoin="round"/>
<path d="M1974.37 512.039L1838.34 511.781L1701.37 511.475L1562.95 514.59L1423.55 529.458L1286.44 563.31L1193.72 593.258L1192.06 593.799L1180.51 597.537" stroke="#10E80C" stroke-width="1.17538" stroke-linecap="round" stroke-linejoin="round"/>
<path d="M1958.17 453.94L1824.36 453.858L1689.37 454.939L1552.66 463.425L1416.25 491.564L1285.48 545.22" stroke="#10E80C" stroke-width="1.17538" stroke-linecap="round" stroke-linejoin="round"/>
<path d="M1281.55 383.064L1402.2 335.038L1530.73 304.784L1660.12 293.982L1788.15 291.643L1915.13 291.373" stroke="#10E80C" stroke-width="1.17538" stroke-linecap="round" stroke-linejoin="round"/>
<path d="M659.724 382.347L544.231 335.438L415.127 304.02L285.47 293.5L157.706 291.478L31.2812 291.255" stroke="#10E80C" stroke-width="1.17538" stroke-linecap="round" stroke-linejoin="round"/>
<path d="M47.7852 240.525L172.235 240.749L297.919 242.136L424.99 249.094L552.013 268.746L667.707 298.73" stroke="#10E80C" stroke-width="1.17538" stroke-linecap="round" stroke-linejoin="round"/>
<path d="M63.793 191.441L186.233 191.653L309.66 192.593L433.769 195.861L557.772 204.876L679.977 219.733L697.208 222.013" stroke="#10E80C" stroke-width="1.17538" stroke-linecap="round" stroke-linejoin="round"/>
<path d="M79.1895 143.791L199.502 143.968L320.496 144.508L441.69 145.707L562.414 148.211L682.079 152.548L746.338 155.345" stroke="#10E80C" stroke-width="1.17538" stroke-linecap="round" stroke-linejoin="round"/>
<path d="M93.8242 97.4694L211.997 97.5164L330.676 97.8455L449.261 98.1511L567.434 98.5742L685.054 99.2677L802.276 100.408L816.216 100.525" stroke="#10E80C" stroke-width="1.17538" stroke-linecap="round" stroke-linejoin="round"/>
<path d="M107.822 52.3934L224.056 52.3699L340.631 52.5227L457.064 52.6402L573.275 52.652L689.297 52.7225L805.166 52.8988L921.012 53.0163L1036.91 52.887L1152.9 52.5462L1269.06 52.2994L1385.47 52.1583L1502.13 52.0408L1619.08 51.8174L1736.18 51.5824L1853.06 51.5118" stroke="#10E80C" stroke-width="1.17538" stroke-linecap="round" stroke-linejoin="round"/>
<path d="M121.434 8.57497L236.28 8.64549L351.045 8.71602L465.633 8.73952L580.116 8.71602L694.492 8.68075L808.787 8.669H923.011L1037.26 8.57497L1151.65 8.43392L1266.21 8.30463L1380.95 8.22235L1495.86 8.10482L1610.98 7.94026L1726.32 7.7522L1841.75 7.58765" stroke="#10E80C" stroke-width="1.17538" stroke-linecap="round" stroke-linejoin="round"/>
<path d="M1206.89 581.681L1217.27 573.218L1221.09 570.092L1275.77 525.427L1288.04 515.401L1411.9 451.378L1544.33 413.93L1678.7 400.66L1811.45 398.156L1942.94 397.956" stroke="#10E80C" stroke-width="1.17538" stroke-linecap="round" stroke-linejoin="round"/>
<path d="M1193.28 154.581L1271.65 151.208L1391.75 147.271L1512.88 145.073L1634.45 143.956L1755.83 143.427L1876.58 143.262" stroke="#10E80C" stroke-width="1.17538" stroke-linecap="round" stroke-linejoin="round"/>
<path d="M728.145 424.779L741.156 351.059L767.978 278.22L806.942 210.906L855.544 153.371L910.658 109.188L968.746 80.9318L1036.33 103.241L1100.45 141.629L1157.07 193.839L1202.6 256.652L1234.19 326.117L1249.97 397.851" stroke="#10E80C" stroke-width="1.17538" stroke-linecap="round" stroke-linejoin="round"/>
<path d="M680.119 298.225L713.7 232.615L762.678 174.857L824.116 128.558L894.251 96.5996L968.747 80.9318L1011.8 113.937L1052.96 162.786L1089.58 224.67L1119.21 295.745L1139.92 371.475L1150.36 446.935L1149.93 517.282L1138.82 578.108L1124.94 609.796" stroke="#10E80C" stroke-width="1.17538" stroke-linecap="round" stroke-linejoin="round"/>
<path d="M-143.098 834.471L-120.942 765.194L-99.4674 698.373L-78.6513 633.903L-58.564 571.702L-39.3347 511.769L-20.9047 453.916L-3.05059 397.945L14.3333 343.712L31.2824 291.255L47.7848 240.525L63.7935 191.441L79.1911 143.791L93.8246 97.4693L107.823 52.3933L121.434 8.57495" stroke="#10E80C" stroke-width="1.17538" stroke-linecap="round" stroke-linejoin="round"/>
<path d="M3.55469 834.553L23.1719 765.205L42.3541 698.255L61.1133 633.633L79.2259 571.408L96.3161 511.616L112.313 454.069L127.699 398.262L142.826 344.042L157.706 291.478L172.234 240.749L186.233 191.653L199.503 143.968L211.997 97.5163L224.057 52.3698L236.281 8.64551" stroke="#10E80C" stroke-width="1.17538" stroke-linecap="round" stroke-linejoin="round"/>
<path d="M150.348 834.6L167.532 765.111L184.634 697.962L201.665 633.257L218.32 571.302L233.859 512.439L247.587 456.032L260.176 400.965L272.787 346.616L285.47 293.5L297.917 242.136L309.659 192.593L320.496 144.508L330.675 97.8455L340.631 52.5227L351.045 8.71606" stroke="#10E80C" stroke-width="1.17538" stroke-linecap="round" stroke-linejoin="round"/>
<path d="M297.26 834.6L312.046 764.947L327.138 697.703L342.7 633.351L358.544 573.312L373.307 518.398L385.461 466.634L395.158 413.895L404.796 359.263L415.127 304.02L424.989 249.094L433.769 195.861L441.691 145.707L449.261 98.151L457.065 52.6401L465.634 8.7395" stroke="#10E80C" stroke-width="1.17538" stroke-linecap="round" stroke-linejoin="round"/>
<path d="M444.172 834.576L456.478 764.853L469.466 697.797L483.618 635.267L498.651 580.905L512.709 536.746L523.369 497.982L529.857 452.012L535.887 396.922L544.232 335.438L552.013 268.746L557.773 204.876L562.416 148.211L567.434 98.5742L573.276 52.6519L580.117 8.71606" stroke="#10E80C" stroke-width="1.17538" stroke-linecap="round" stroke-linejoin="round"/>
<path d="M590.988 834.6L600.591 764.912L611.17 698.62L623.3 639.733L636.581 595.727L648.559 570.162L654.177 551.368L655.094 519.456" stroke="#10E80C" stroke-width="1.17538" stroke-linecap="round" stroke-linejoin="round"/>
<path d="M737.746 834.671L744.375 765.088L751.839 699.713L760.713 645.187L771.08 614.004L778.567 609.138" stroke="#10E80C" stroke-width="1.17538" stroke-linecap="round" stroke-linejoin="round"/>
<path d="M884.471 834.741L887.962 765.111L891.664 700.089L895.86 647.925L901.314 624.759" stroke="#10E80C" stroke-width="1.17538" stroke-linecap="round" stroke-linejoin="round"/>
<path d="M1173.17 134.988L1193.17 154.593L1198.28 159.494L1198.53 159.965L1221.43 182.508L1230.29 207.321L1238.45 221.837L1264.99 269.076L1258.18 298.202L1234.2 326.117L1194.06 351.082L1139.92 371.475L1074.98 385.909L1003.27 393.384L929.395 393.372L858.143 385.885L794.073 371.44L741.157 351.059L702.487 326.117L680.119 298.225" stroke="#10E80C" stroke-width="1.17538" stroke-linecap="round" stroke-linejoin="round"/>
<path d="M677.507 476.061L665.589 436.65L663.426 423.58" stroke="#10E80C" stroke-width="1.17538" stroke-linecap="round" stroke-linejoin="round"/>
<path d="M1255.55 501.343L1241.2 524.44L1227.55 546.384L1220.52 557.679L1208.42 572.701" stroke="#10E80C" stroke-width="1.17538" stroke-linecap="round" stroke-linejoin="round"/>
<path d="M1281.27 402.588L1281.32 404.421L1274.23 436.768L1261.69 480.139L1255.55 501.343L1231.87 530.599L1204.54 575.498" stroke="#10E80C" stroke-width="1.17538" stroke-linecap="round" stroke-linejoin="round"/>
<path d="M1249.97 397.851L1207.61 424.861L1150.35 446.935L1081.61 462.567L1005.65 470.654L927.396 470.642L851.924 462.509L784.105 446.852L728.145 424.779" stroke="#10E80C" stroke-width="1.17538" stroke-linecap="round" stroke-linejoin="round"/>
<path d="M1841.75 7.58765L1853.06 51.5118L1864.61 96.7406L1876.58 143.262L1889.01 191.159L1901.91 240.49L1915.13 291.373L1928.7 343.853L1942.94 397.956L1958.17 453.94L1974.37 512.039L1991.27 572.395L2008.61 634.937L2026.29 699.736L2044.37 766.851L2062.95 836.434" stroke="#10E80C" stroke-width="1.17538" stroke-linecap="round" stroke-linejoin="round"/>
<path d="M1726.32 7.75232L1736.18 51.5824L1745.86 96.8347L1755.83 143.427L1766.24 191.324L1777.06 240.69L1788.15 291.643L1799.53 344.147L1811.45 398.156L1824.36 453.858L1838.34 511.781L1853.08 572.066L1868.27 634.702L1883.68 699.525L1899.32 766.686L1915.27 836.281" stroke="#10E80C" stroke-width="1.17538" stroke-linecap="round" stroke-linejoin="round"/>
<path d="M1610.97 7.94031L1619.08 51.8174L1626.7 97.2108L1634.45 143.956L1642.6 192.217L1651.23 242.147L1660.12 293.982L1669.18 347.109L1678.7 400.66L1689.37 454.939L1701.37 511.475L1714.23 571.29L1727.48 633.997L1740.82 699.114L1754.18 766.404L1767.62 836.069" stroke="#10E80C" stroke-width="1.17538" stroke-linecap="round" stroke-linejoin="round"/>
<path d="M1495.86 8.10474L1502.13 52.0406L1507.66 97.5515L1512.88 145.072L1518.31 195.32L1524.23 248.882L1530.73 304.784L1537.4 361.084L1544.33 413.93L1552.66 463.425L1562.95 514.59L1574.34 571.067L1586.04 632.986L1597.63 698.314L1608.93 765.981L1619.94 835.799" stroke="#10E80C" stroke-width="1.17538" stroke-linecap="round" stroke-linejoin="round"/>
<path d="M1037.26 8.57495L1036.9 52.887L1036.74 64.6526" stroke="#10E80C" stroke-width="1.17538" stroke-linecap="round" stroke-linejoin="round"/>
<path d="M1380.95 8.22241L1385.47 52.1583L1389.02 97.9513L1391.75 147.27L1394.07 203.712L1397.34 267.771L1402.2 335.038L1407.9 398.838L1411.9 451.378L1416.25 491.564L1423.55 529.458L1433.52 575.534L1444.2 632.716L1454.44 697.409L1463.79 765.393L1472.37 835.482" stroke="#10E80C" stroke-width="1.17538" stroke-linecap="round" stroke-linejoin="round"/>
<path d="M1151.65 8.43396L1152.9 52.5461L1153.36 99.8084L1153.24 115.817" stroke="#10E80C" stroke-width="1.17538" stroke-linecap="round" stroke-linejoin="round"/>
<path d="M1266.21 8.30469L1269.06 52.2993L1270.95 98.586L1271.65 151.208L1271.61 217.535L1273.36 298.589L1273.66 302.856" stroke="#10E80C" stroke-width="1.17538" stroke-linecap="round" stroke-linejoin="round"/>
<path d="M815.921 617.083L797.632 577.955L785.361 517.152L784.104 446.852L794.071 371.44L814.711 295.768L844.706 224.716L882.06 162.832L924.315 113.96" stroke="#10E80C" stroke-width="1.17538" stroke-linecap="round" stroke-linejoin="round"/>
<path d="M677.967 261.929L679.977 219.733L682.081 152.548L685.054 99.2678L689.298 52.7226L694.493 8.68091" stroke="#10E80C" stroke-width="1.17538" stroke-linecap="round" stroke-linejoin="round"/>
<path d="M887.492 68.026L926.468 65.4754L942.771 62.2196L960.542 60.5388H978.784L996.462 62.1961L1022.13 61.726" stroke="#10E80C" stroke-width="1.17538" stroke-linecap="round" stroke-linejoin="round"/>
<path d="M953.088 58.5523L988.126 58.5288" stroke="#10E80C" stroke-width="1.17538" stroke-linecap="round" stroke-linejoin="round"/>
<path d="M1282.23 336.249L1275.2 367.69L1274.23 436.768L1249.1 467.422L1231.87 530.599L1192.24 556.751L1168.87 599.323" stroke="#10E80C" stroke-width="1.17538" stroke-linecap="round" stroke-linejoin="round"/>
<path d="M1261.69 480.139L1286.86 460.933L1407.9 398.838L1537.4 361.085L1669.18 347.109L1799.53 344.147L1928.7 343.853" stroke="#10E80C" stroke-width="1.17538" stroke-linecap="round" stroke-linejoin="round"/>
<path d="M869.931 622.173L860.857 593.117L852.876 533.067L851.924 462.509L858.142 385.885L871.177 308.181L890.171 234.46L913.843 169.497L940.618 117.322L968.745 80.9318L1043.01 82.4363" stroke="#10E80C" stroke-width="1.17538" stroke-linecap="round" stroke-linejoin="round"/>
<path d="M762.91 602.849L740.566 583.491L720.949 557.48L710.112 540.472L701.003 526.156L685.1 501.167" stroke="#10E80C" stroke-width="1.17538" stroke-linecap="round" stroke-linejoin="round"/>
<path d="M1124.79 100.114L1153.36 99.8084L1270.95 98.586L1389.01 97.9512L1507.66 97.5516L1626.7 97.2108L1745.86 96.8346L1864.61 96.7406" stroke="#10E80C" stroke-width="1.17538" stroke-linecap="round" stroke-linejoin="round"/>
<path d="M1243.6 221.179L1271.61 217.535L1394.07 203.712L1518.31 195.32L1642.6 192.217L1766.24 191.324L1889.01 191.159" stroke="#10E80C" stroke-width="1.17538" stroke-linecap="round" stroke-linejoin="round"/>
<path d="M1027.76 622.737L1030.09 646.303L1031.26 699.278L1031.5 764.947L1031.21 834.788" stroke="#10E80C" stroke-width="1.17538" stroke-linecap="round" stroke-linejoin="round"/>
<path d="M933.941 624.241L931.144 600.992L927.994 541.33L927.395 470.642L929.393 393.372L933.883 314.61L940.571 239.503L948.998 172.941L958.601 119.038L968.745 80.9317L1012.56 65.4283L1053.18 67.9554" stroke="#10E80C" stroke-width="1.17538" stroke-linecap="round" stroke-linejoin="round"/>
<path d="M1285.48 545.22L1286.44 563.31L1293.82 589.497L1303.39 635.643L1312.04 697.08L1319.14 764.912L1325.06 835.141" stroke="#10E80C" stroke-width="1.17538" stroke-linecap="round" stroke-linejoin="round"/>
<path d="M924.316 113.96L940.619 117.322L958.602 119.038H977.197L995.286 117.298L1011.8 113.937L1025.75 109.153L1036.33 103.241L1042.92 96.5409L1045.18 89.4768L1043.01 82.4363" stroke="#10E80C" stroke-width="1.17538" stroke-linecap="round" stroke-linejoin="round"/>
<path d="M920.695 61.5966L921.013 53.0163L923.011 8.66907" stroke="#10E80C" stroke-width="1.17538" stroke-linecap="round" stroke-linejoin="round"/>
<path d="M802.016 108.154L802.274 100.408L805.166 52.8988L808.786 8.66907" stroke="#10E80C" stroke-width="1.17538" stroke-linecap="round" stroke-linejoin="round"/>
<path d="M1154.94 605.788L1158.1 609.831L1165.33 641.355L1171.11 697.973L1175.12 764.771L1178.05 834.906" stroke="#10E80C" stroke-width="1.17538" stroke-linecap="round" stroke-linejoin="round"/>
<path d="M1272.62 298.789L1273.36 298.59L1397.34 267.771L1524.23 248.882L1651.23 242.148L1777.06 240.69L1901.91 240.49" stroke="#10E80C" stroke-width="1.17538" stroke-linecap="round" stroke-linejoin="round"/>
<path d="M1173.17 134.988L1169.59 132.978L1153.17 123.751L1119.89 105.027L1112.53 100.89L1087.2 94.1665L1047.08 83.5292L1043.01 82.4361L1036.54 75.8422L1026.19 70.0711L1012.56 65.4283L996.461 62.196L968.745 80.9316L924.316 113.96L910.658 109.188L900.444 103.287L894.249 96.5995L892.416 89.5355L895.013 82.4949L901.877 75.901L912.562 70.1181L968.745 80.9316L1036.54 75.8422L1041.24 76.759L1073.84 83.0708L1099.75 88.078L1112.53 100.89L1117.07 114.606L1113 128.464L1100.45 141.628L1080.05 153.312L1052.96 162.785L1020.76 169.473L985.388 172.929L948.999 172.941L913.843 169.497L882.06 162.832L855.544 153.371L835.868 141.711L824.114 128.558L820.87 114.724L826.23 100.995L839.758 88.1838L860.598 76.9941L880.803 74.3142L912.562 70.1181L926.466 65.4753L968.745 80.9316L1042.92 96.5407L1113 128.464L1174.63 174.751L1224 232.533L1258.18 298.201L1259.15 302.116L1275.2 367.69L1249.97 397.851L1249.1 467.422L1206.92 494.855L1149.93 517.281L1081.5 533.149L1005.9 541.365L927.995 541.33L852.876 533.067L785.362 517.152L729.66 494.714L689.027 467.281L687.335 397.78L702.485 326.117L733.692 256.71L779.097 193.921L835.868 141.711L900.444 103.287L968.745 80.9316L1026.19 70.0711L1058.47 74.1967L1079.56 76.9001L1099.75 88.078L1123.86 100.114L1125.81 100.631L1153.25 115.841L1154.68 116.616L1173.12 134.847L1180.02 154.746L1174.63 174.751L1157.07 193.839L1128.19 210.835L1089.57 224.669L1043.5 234.437L992.77 239.491L940.571 239.503L890.171 234.46L844.707 224.716L806.942 210.906L779.097 193.921L762.677 174.857L758.469 154.863L766.473 135.117L772.174 131.861L801.793 114.959L826.23 100.995L851.865 94.1077L890.876 83.6115L895.013 82.4949L968.745 80.9316L1025.75 109.153L1080.05 153.312L1128.19 210.835L1167.02 278.185L1194.05 351.082L1207.61 424.861L1206.92 494.855L1192.24 556.751L1138.82 578.108L1074.75 593.211L1004.02 601.028L931.145 600.992L860.857 593.117L797.633 577.955L745.398 556.575L729.66 494.714L728.144 424.779L687.335 397.78L663.815 367.643L679.283 301.728L680.118 298.225L674.958 269.134L678.637 262.435L700.616 222.471L708.879 207.427L757.552 155.827L758.469 154.863L820.87 114.724L892.416 89.5355L968.745 80.9316L978.783 60.5387L988.127 58.5288L1022.13 61.7259L1036.74 64.6526L1053.18 67.9554L1079.56 76.9001L1098.07 86.3972L1102.32 88.5716L1123.86 100.114L1153.25 115.841L1154.68 116.616L1173.12 134.847L1173.61 135.234L1193.17 154.593L1197.78 159.224L1198.4 159.729L1221.43 182.508L1231.91 200.797L1243.6 221.179L1243.68 221.331L1254.66 240.478L1264.99 269.075L1272.61 298.766L1273.66 302.856L1282.23 336.249L1281.55 383.064L1281.27 402.587L1281.32 404.421L1286.86 460.934L1288.04 515.401L1285.48 545.22L1202.61 586.523L1198.42 588.604L1180.51 597.537L1167.56 601.709L1154.94 605.788L1123.52 613.017L1121.76 613.428L1067.61 618.788L1027.76 622.737L1002.13 623.148L933.942 624.241L901.313 624.759L869.93 622.173L820.776 618.106L815.922 617.083L781.542 609.772L778.85 608.95L774.548 607.375L772.08 607.187L762.912 602.849L757.987 600.522L738.628 585.266L718.447 569.363L655.094 519.456L659.019 462.403L663.427 423.58L660.301 404.727L659.725 382.347L658.526 336.237L667.706 298.73L674.958 269.134L677.967 261.929L686.876 240.561L697.208 222.013L700.228 216.606L707.974 202.701L719.152 182.638L726.028 175.726L746.339 155.345L756.424 145.202L766.473 135.117L786.008 116.746L802.017 108.201L816.486 100.549L839.535 88.2308L840.111 87.8547L860.598 76.9941L887.491 68.0259L918.909 61.7729L942.769 62.2195L968.745 80.9316L1045.18 89.4767L1117.07 114.606L1153.07 137.562L1180.02 154.746L1216.81 193.216L1230.29 207.321L1224 232.533L1202.6 256.652L1167.02 278.185L1119.21 295.745L1061.99 308.169L998.87 314.598L933.883 314.61L871.176 308.18L814.711 295.768L767.978 278.22L733.692 256.71L713.698 232.615L708.879 207.427L719.152 182.638" stroke="#10E80C" stroke-width="1.17538" stroke-linecap="round" stroke-linejoin="round"/>
<path d="M757.988 600.522L756.389 599.758L748.42 595.985L744.177 593.975L654.178 551.368L523.369 497.982L385.461 466.634L247.589 456.032L112.314 454.069L-20.9043 453.917" stroke="#10E80C" stroke-width="1.17538" stroke-linecap="round" stroke-linejoin="round"/>
<path d="M776.005 608.362L774.548 607.375L740.567 583.491L707.21 530.41L689.027 467.281L665.589 436.65L663.815 367.643L658.525 336.237" stroke="#10E80C" stroke-width="1.17538" stroke-linecap="round" stroke-linejoin="round"/>
<path d="M820.776 618.106L816.227 617.742L776.3 614.439L771.081 614.004L636.582 595.727L498.65 580.905L358.544 573.312L218.321 571.302L79.2259 571.408L-58.5645 571.702" stroke="#10E80C" stroke-width="1.17538" stroke-linecap="round" stroke-linejoin="round"/>
<path d="M918.908 61.7729L920.695 61.5966L953.088 58.5524L960.54 60.5388L968.745 80.9317L977.196 119.038L985.388 172.929L992.769 239.491L998.87 314.598L1003.27 393.384L1005.65 470.654L1005.9 541.365L1004.02 601.028L1002.13 623.148" stroke="#10E80C" stroke-width="1.17538" stroke-linecap="round" stroke-linejoin="round"/>
<path d="M772.079 607.187L765.732 605.282L751.228 600.945L648.558 570.162L512.707 536.746L373.306 518.398L233.859 512.439L96.3152 511.616L-39.3359 511.769" stroke="#10E80C" stroke-width="1.17538" stroke-linecap="round" stroke-linejoin="round"/>
<path d="M781.541 609.772L778.849 608.95L776.005 608.362L774.159 606.716L745.398 556.575L707.21 530.41L685.101 501.167L677.508 476.061L659.019 462.403L535.885 396.922L404.795 359.263L272.787 346.616L142.825 344.042L14.332 343.712" stroke="#10E80C" stroke-width="1.17538" stroke-linecap="round" stroke-linejoin="round"/>
<path d="M786.008 116.746L802.017 108.201L815.78 100.76L816.215 100.525L839.535 88.2308L901.877 75.901L968.745 80.9317L995.285 117.298L1020.76 169.473L1043.5 234.437L1061.99 308.169L1074.98 385.909L1081.61 462.567L1081.5 533.149L1074.75 593.211L1067.99 617.377" stroke="#10E80C" stroke-width="1.17538" stroke-linecap="round" stroke-linejoin="round"/>
</g>
<rect width="1920" height="694" fill="url(#paint0_linear_1816_3576)"/>
<defs>
<linearGradient id="paint0_linear_1816_3576" x1="960" y1="0" x2="960" y2="694" gradientUnits="userSpaceOnUse">
<stop stop-color="#010C04" stop-opacity="0.8"/>
<stop offset="0.391272" stop-color="#010C04" stop-opacity="0.5"/>
<stop offset="0.701617" stop-color="#010C04" stop-opacity="0.5"/>
<stop offset="1" stop-color="#010C04"/>
</linearGradient>
<clipPath id="clip0_1816_3576">
<rect width="1920" height="687" fill="white" transform="translate(0 7)"/>
</clipPath>
</defs>
</svg>
