<svg width="917" height="420" viewBox="0 0 917 420" fill="none" xmlns="http://www.w3.org/2000/svg" style="">
<g clip-path="url(#clip0_1618_3278)">
<path d="M452.91 131.634L456.239 139.921L472.649 180.727L492.866 193.145L513.245 201.385L533.904 209.754L554.854 218.227L576.095 226.816L597.638 235.533L619.484 244.367L634.498 237.14L649.349 230.005L664.025 222.94L686.116 231.6L700.606 224.523L714.922 217.528L737.268 226.106L759.94 234.812L782.915 243.646L806.228 252.596" stroke="#5FFF00" stroke-width="1.16388" stroke-linecap="round" stroke-linejoin="round" class="aNwdjASm_0"></path>
<path d="M327.875 147.323L341.679 112.023L356.541 75.7915L371.707 60.3818" stroke="#5FFF00" stroke-width="1.16388" stroke-linecap="round" stroke-linejoin="round" class="aNwdjASm_1"></path>
<path d="M412.523 0.581909L416.597 8.01907L430.214 32.8445L443.971 42.8771L449.663 46.9391L461.616 55.4819L475.152 50.2677L492.994 56.6691L505.866 61.278" stroke="#5FFF00" stroke-width="1.16388" stroke-linecap="round" stroke-linejoin="round" class="aNwdjASm_2"></path>
<path d="M457.484 170.997L458.544 172.51L465.399 182.344L477.596 199.872" stroke="#5FFF00" stroke-width="1.16388" stroke-linecap="round" stroke-linejoin="round" class="aNwdjASm_3"></path>
<path d="M493.098 76.4434L511.72 105.587L514.699 106.692" stroke="#5FFF00" stroke-width="1.16388" stroke-linecap="round" stroke-linejoin="round" class="aNwdjASm_4"></path>
<path d="M387.827 352.677L367.029 325.326L344.95 298.08L323.15 274.139" stroke="#5FFF00" stroke-width="1.16388" stroke-linecap="round" stroke-linejoin="round" class="aNwdjASm_5"></path>
<path d="M367.492 170.682L382.867 141.644L398.125 105.948L413.57 95.4377L428.852 84.9047" stroke="#5FFF00" stroke-width="1.16388" stroke-linecap="round" stroke-linejoin="round" class="aNwdjASm_6"></path>
<path d="M405.645 58.1937L419.285 77.4908L424.418 84.765" stroke="#5FFF00" stroke-width="1.16388" stroke-linecap="round" stroke-linejoin="round" class="aNwdjASm_7"></path>
<path d="M536.277 101.618L541.375 108.24L550.442 120.007L555.563 126.676L560.602 128.701L575.337 134.614L595.239 148.092L615.526 155.727L636.08 163.466L656.901 171.311L678.014 179.26L691.934 172.766L705.714 166.341L727.234 170.613L748.696 182.205L762.267 175.675L775.698 169.216L788.966 162.826L810.812 170.659L823.917 164.258" stroke="#5FFF00" stroke-width="1.16388" stroke-linecap="round" stroke-linejoin="round" class="aNwdjASm_8"></path>
<path d="M664.643 293.332L672.278 300.28L687.78 314.374" stroke="#5FFF00" stroke-width="1.16388" stroke-linecap="round" stroke-linejoin="round" class="aNwdjASm_9"></path>
<path d="M493.076 119.181L497.964 125.256L512.536 143.413L532.252 159.195" stroke="#5FFF00" stroke-width="1.16388" stroke-linecap="round" stroke-linejoin="round" class="aNwdjASm_10"></path>
<path d="M488.326 95.7986L493.389 102.13L498.941 109.09L507.577 119.891" stroke="#5FFF00" stroke-width="1.16388" stroke-linecap="round" stroke-linejoin="round" class="aNwdjASm_11"></path>
<path d="M854.121 173.999L861.465 180.54L876.537 193.948" stroke="#5FFF00" stroke-width="1.16388" stroke-linecap="round" stroke-linejoin="round" class="aNwdjASm_12"></path>
<path d="M554.459 300.943L537.688 325.21" stroke="#5FFF00" stroke-width="1.16388" stroke-linecap="round" stroke-linejoin="round" class="aNwdjASm_13"></path>
<path d="M915.98 173.604L891.108 188.14L886.418 187.943" stroke="#5FFF00" stroke-width="1.16388" stroke-linecap="round" stroke-linejoin="round" class="aNwdjASm_14"></path>
<path d="M641.225 312.21L624.465 335.545L607.67 356.157L591.039 364.84L574.197 373.616L557.135 382.519L539.863 391.528L522.347 400.664L504.609 409.917L480.831 398.604L468.482 392.738L457.414 387.466L439.386 386.069L416.329 379.877L393.412 372.359L382.216 357.927L371.02 343.495" stroke="#5FFF00" stroke-width="1.16388" stroke-linecap="round" stroke-linejoin="round" class="aNwdjASm_15"></path>
<path d="M326.258 7.19287L330.809 12.4419L344.181 27.8982L360.72 50.1748" stroke="#5FFF00" stroke-width="1.16388" stroke-linecap="round" stroke-linejoin="round" class="aNwdjASm_16"></path>
<path d="M617.307 307.345L600.652 329.062L583.985 345.683L567.33 354.225L550.465 362.873L533.391 371.637L516.096 380.506L492.702 369.658L469.681 358.974L446.997 348.453L424.604 326.746L402.397 298.476L380.668 291.714L359.264 283.59L356.995 281.879L338.012 267.575" stroke="#5FFF00" stroke-width="1.16388" stroke-linecap="round" stroke-linejoin="round" class="aNwdjASm_17"></path>
<path d="M371.02 343.495L352.934 363.373" stroke="#5FFF00" stroke-width="1.16388" stroke-linecap="round" stroke-linejoin="round" class="aNwdjASm_18"></path>
<path d="M379.098 369.344L352.934 363.373" stroke="#5FFF00" stroke-width="1.16388" stroke-linecap="round" stroke-linejoin="round" class="aNwdjASm_19"></path>
<path d="M548.07 286.325L531.555 307.135" stroke="#5FFF00" stroke-width="1.16388" stroke-linecap="round" stroke-linejoin="round" class="aNwdjASm_20"></path>
<path d="M863.536 194.623L840.538 181.786L825.128 187.128L816.469 190.131L806.995 192.028L803.061 192.808L802.514 193.82L787.977 220.659L774.034 227.689L759.939 234.812L745.67 242.005L731.238 249.291L716.632 256.658L693.889 247.649L671.462 238.757L649.348 230.005L627.537 221.369L606.04 212.85L584.834 204.446L563.908 196.16L543.272 187.989L522.916 179.924L502.839 171.963L487.883 178.445L473.091 181.018L457.483 170.997L437.464 130.575L417.702 121.183L398.125 105.948L379.026 110.114L363.756 137.198L348.568 171.101L332.785 179.109L316.805 185.673L300.639 192.319L284.31 199.034L267.783 205.82L251.07 212.687L234.17 219.635L217.073 226.653L199.789 233.753L182.296 240.946L164.606 248.208L145.914 239.316L127.478 230.552L109.298 221.905L91.3745 213.385L73.6836 204.97L55.9927 193.11L38.744 184.346L19.6914 174.36" stroke="#5FFF00" stroke-width="1.16388" stroke-linecap="round" stroke-linejoin="round" class="aNwdjASm_21"></path>
<path d="M522.346 400.664L498.579 389.491L480.83 398.604L462.86 394.647L451.442 390.48L439.384 386.069L421.158 400.396" stroke="#5FFF00" stroke-width="1.16388" stroke-linecap="round" stroke-linejoin="round" class="aNwdjASm_22"></path>
<path d="M539.862 391.528L516.096 380.506L498.58 389.491L475.174 378.504L452.129 367.68L434.369 376.502L411.673 365.713L393.971 372.545L375.186 365.969" stroke="#5FFF00" stroke-width="1.16388" stroke-linecap="round" stroke-linejoin="round" class="aNwdjASm_23"></path>
<path d="M557.136 382.519L533.393 371.637L510.022 360.918L487.001 350.373L464.34 339.98L441.959 307.694" stroke="#5FFF00" stroke-width="1.16388" stroke-linecap="round" stroke-linejoin="round" class="aNwdjASm_24"></path>
<path d="M574.196 373.616L550.465 362.873L527.106 352.293L504.107 341.877L481.447 331.623L466.002 318.203L459.147 312.244L450.115 298.732L440.665 284.591L437.045 279.179" stroke="#5FFF00" stroke-width="1.16388" stroke-linecap="round" stroke-linejoin="round" class="aNwdjASm_25"></path>
<path d="M591.039 364.84L567.331 354.225L543.995 343.774L520.997 333.485L498.36 323.359L476.048 313.373L462.268 299.663L454.074 291.504" stroke="#5FFF00" stroke-width="1.16388" stroke-linecap="round" stroke-linejoin="round" class="aNwdjASm_26"></path>
<path d="M607.671 356.158L583.986 345.683L560.662 335.371L537.687 325.21L520.997 333.485L504.109 341.877L487 350.373L469.682 358.974L452.13 367.68L429.458 357.03L407.123 346.544L384.928 321.276L362.943 294.926L351.711 286.278L341.341 278.306L320.229 270.368" stroke="#5FFF00" stroke-width="1.16388" stroke-linecap="round" stroke-linejoin="round" class="aNwdjASm_27"></path>
<path d="M441.957 307.694L424.603 326.746L407.122 346.544L390.49 354.144" stroke="#5FFF00" stroke-width="1.16388" stroke-linecap="round" stroke-linejoin="round" class="aNwdjASm_28"></path>
<path d="M748.417 282.752L724.977 273.359L701.862 264.118L679.085 254.993L664.479 262.244" stroke="#5FFF00" stroke-width="1.16388" stroke-linecap="round" stroke-linejoin="round" class="aNwdjASm_29"></path>
<path d="M398.324 211.022L418.867 225.478L435.114 225.769L451.129 224.919L471.823 237.873L492.819 246.742L514.118 255.738L529.877 248.383L551.467 257.403L573.359 266.562L588.92 259.079L604.284 251.677L626.735 251.991L641.644 253.329L656.635 246.008L671.462 238.757L686.116 231.6L708.52 240.387L731.239 249.291L754.284 258.322L777.666 267.494" stroke="#5FFF00" stroke-width="1.16388" stroke-linecap="round" stroke-linejoin="round" class="aNwdjASm_30"></path>
<path d="M537.687 325.21L515.062 315.189L492.762 305.331L470.799 295.624L449.163 283.927L442.855 278.189L436.558 272.463L427.771 264.467L406.577 240.55L401.304 235.627L387.792 222.999L385.627 220.985" stroke="#5FFF00" stroke-width="1.16388" stroke-linecap="round" stroke-linejoin="round" class="aNwdjASm_31"></path>
<path d="M624.466 335.545L600.653 329.062L577.352 317.016L554.459 300.943" stroke="#5FFF00" stroke-width="1.16388" stroke-linecap="round" stroke-linejoin="round" class="aNwdjASm_32"></path>
<path d="M296.531 23.0912L314.397 39.7462L332.588 63.8152L343.691 67.0857" stroke="#5FFF00" stroke-width="1.16388" stroke-linecap="round" stroke-linejoin="round" class="aNwdjASm_33"></path>
<path d="M531.552 307.135L509.275 297.393L487.324 287.791L465.688 278.341L449.161 283.927L444.145 284.323" stroke="#5FFF00" stroke-width="1.16388" stroke-linecap="round" stroke-linejoin="round" class="aNwdjASm_34"></path>
<path d="M652.781 307.112L672.183 321.695" stroke="#5FFF00" stroke-width="1.16388" stroke-linecap="round" stroke-linejoin="round" class="aNwdjASm_35"></path>
<path d="M446.055 61.1151L447.335 62.1626L464.723 76.3619L475.827 93.1915" stroke="#5FFF00" stroke-width="1.16388" stroke-linecap="round" stroke-linejoin="round" class="aNwdjASm_36"></path>
<path d="M261.733 280.156L242.832 265.305L224.303 268.296" stroke="#5FFF00" stroke-width="1.16388" stroke-linecap="round" stroke-linejoin="round" class="aNwdjASm_37"></path>
<path d="M903.631 172.067L882.216 183.52L868.191 179.947L866.585 179.516L854.12 173.999L840.538 181.786L825.698 206.39L811.196 224.57L796.986 236.418L782.914 243.646L768.68 250.943L754.283 258.322L739.711 265.806L724.977 273.359L710.056 281.018L694.96 288.757L679.678 296.521L669.227 290.177L656.657 282.531L634.276 257.868L611.44 256.716L588.919 259.079L567.039 250.024L545.46 241.108L524.196 232.321L503.223 223.65L482.541 215.096L462.139 206.669L460.567 204.4L441.969 177.526L421.962 154.039L402.234 143.401L382.867 141.644L363.756 137.198L345.006 137.361L326.838 149.954L311.231 156.995L295.437 163.327L279.457 169.716L263.314 176.176L246.985 182.717L230.481 189.316L213.791 195.997L196.915 202.759L179.852 209.591L162.592 216.492L145.134 223.487L126.931 214.933L108.984 206.506L91.2814 198.196L73.8232 189.991L56.2487 177.014L38.8953 184.276L19.6914 174.36" stroke="#5FFF00" stroke-width="1.16388" stroke-linecap="round" stroke-linejoin="round" class="aNwdjASm_38"></path>
<path d="M307.74 287.407L326.723 301.909L344.949 298.08L362.943 294.926L380.669 291.714L398.069 280.645L419.786 282.123L441.958 307.694L459.149 312.244L476.048 313.373L492.761 305.331L509.277 297.393L525.583 289.549L541.726 280.273L564.212 278.178L580.122 271.905L595.916 262.489L618.588 269.46L641.342 284.474L656.658 282.531L671.928 275.827L686.931 271.439L710.057 281.018L733.532 290.515" stroke="#5FFF00" stroke-width="1.16388" stroke-linecap="round" stroke-linejoin="round" class="aNwdjASm_39"></path>
<path d="M516.014 55.4703L520.89 59.2529L530.795 66.9345L534.484 69.7976L547.869 73.4406L566.549 83.0542L579.91 77.5607" stroke="#5FFF00" stroke-width="1.16388" stroke-linecap="round" stroke-linejoin="round" class="aNwdjASm_40"></path>
<path d="M401.85 43.8082L420.693 57.2393L439.769 80.2841L458.996 96.9857L464.967 105.075L478.374 123.266L497.893 146.962L517.62 165.55L537.697 173.417L558.042 181.39L578.666 189.479L599.569 197.673L620.763 205.983L642.236 214.397L664.024 222.94L678.538 215.957L692.888 209.055L707.076 202.235L729.085 210.603L751.408 219.088L774.034 227.689L796.985 236.418L820.263 245.275" stroke="#5FFF00" stroke-width="1.16388" stroke-linecap="round" stroke-linejoin="round" class="aNwdjASm_41"></path>
<path d="M370.205 8.74072L387.896 23.4754L400.524 40.7007" stroke="#5FFF00" stroke-width="1.16388" stroke-linecap="round" stroke-linejoin="round" class="aNwdjASm_42"></path>
<path d="M629.843 306.658L609.859 296.171L593.798 302.538L577.352 317.016L560.662 335.371L543.996 343.774L527.108 352.293L510.022 360.918L492.704 369.658L475.176 378.504L457.415 387.466L445.078 381.6L434.37 376.502L416.33 379.877L398.046 385.708L386.256 375.513L379.098 369.344L375.187 365.969L352.934 363.373L330.238 323.487" stroke="#5FFF00" stroke-width="1.16388" stroke-linecap="round" stroke-linejoin="round" class="aNwdjASm_43"></path>
<path d="M261.732 280.156L281.53 269.367L296.276 268.122" stroke="#5FFF00" stroke-width="1.16388" stroke-linecap="round" stroke-linejoin="round" class="aNwdjASm_44"></path>
<path d="M186.219 291.12L207.401 283.485L242.143 285.08L279.934 284.893L297.299 269.833" stroke="#5FFF00" stroke-width="1.16388" stroke-linecap="round" stroke-linejoin="round" class="aNwdjASm_45"></path>
<path d="M384.475 6.72717L390.236 11.243L402.131 20.5773L402.957 21.5899L417.308 39.0363L419.088 41.1895" stroke="#5FFF00" stroke-width="1.16388" stroke-linecap="round" stroke-linejoin="round" class="aNwdjASm_46"></path>
<path d="M672.183 321.695L657.274 305.133L651.222 305.948L633.112 308.369L617.307 307.345L593.796 302.538L570.81 291.725L554.457 300.943L531.552 307.135L515.06 315.189L498.358 323.359L481.447 331.623L464.338 339.98L446.997 348.453L429.457 357.03L411.673 365.713L389.338 354.668L371.019 343.495L348.847 327.782L326.722 301.909L309.357 270.985L306.273 265.48L304.434 262.209" stroke="#5FFF00" stroke-width="1.16388" stroke-linecap="round" stroke-linejoin="round" class="aNwdjASm_47"></path>
<path d="M398.068 280.645L376.711 277.363L355.308 251.432L334.672 252.468L318.809 267.703" stroke="#5FFF00" stroke-width="1.16388" stroke-linecap="round" stroke-linejoin="round" class="aNwdjASm_48"></path>
<path d="M426.348 279.586L410.95 265.166L389.605 235.44L381.9 226.176L370.366 212.314L368.492 210.056" stroke="#5FFF00" stroke-width="1.16388" stroke-linecap="round" stroke-linejoin="round" class="aNwdjASm_49"></path>
<path d="M321.135 267.691L334.671 252.468L344.086 235.696L348.847 227.247L351.477 222.556" stroke="#5FFF00" stroke-width="1.16388" stroke-linecap="round" stroke-linejoin="round" class="aNwdjASm_50"></path>
<path d="M18.3086 182.018L35.918 191.469L55.1918 201.944L73.6858 204.97L91.2836 198.196L108.683 191.492L126.409 199.709L144.38 208.043L161.617 201.234L178.667 194.495L195.532 187.826L212.21 181.239L228.702 174.721L245.02 168.273L261.163 161.895L277.131 155.587L292.925 149.349L308.544 143.168L323.29 106.297L335.127 80.8312L338.141 74.3484L344.845 67.4349L353.26 58.7524L363.433 59.6486L366.435 59.9163L367.89 60.0443L371.708 60.3819L390.434 60.8358L409.627 84.2762L424.42 84.7651L426.282 84.8232L428.854 84.9047L432.927 89.4555L448.419 106.786L462.711 132.309L468.123 141.97L468.205 142.121L487.886 178.445L507.974 186.499L528.342 194.647L549.001 202.91L569.927 211.29L591.156 219.786L612.676 228.411L634.499 237.14L656.636 246.008L679.087 254.993L693.892 247.649L708.522 240.387L722.977 233.206L737.269 226.106L751.41 219.088L765.633 207.635L779.425 201.304L800.794 193.622L803.063 192.808L825.7 206.39L849.397 208.939" stroke="#5FFF00" stroke-width="1.16388" stroke-linecap="round" stroke-linejoin="round" class="aNwdjASm_51"></path>
<path d="M281.528 269.367L268.027 254.574" stroke="#5FFF00" stroke-width="1.16388" stroke-linecap="round" stroke-linejoin="round" class="aNwdjASm_52"></path>
<path d="M412.523 0.581909L426.42 14.7346L431.006 22.0903L443.995 42.784L457.53 43.9479L470.95 38.8385L488.571 45.1001L506.402 51.4433" stroke="#5FFF00" stroke-width="1.16388" stroke-linecap="round" stroke-linejoin="round" class="aNwdjASm_53"></path>
<path d="M166.736 281.611L184.881 273.953L196.252 279.423" stroke="#5FFF00" stroke-width="1.16388" stroke-linecap="round" stroke-linejoin="round" class="aNwdjASm_54"></path>
<path d="M357.04 216.69L339 208.892L319.692 200.547L300.639 192.319L281.854 184.195L263.313 176.176L245.017 168.273L226.966 160.475L209.158 152.77L191.572 145.17L174.219 137.675" stroke="#5FFF00" stroke-width="1.16388" stroke-linecap="round" stroke-linejoin="round" class="aNwdjASm_55"></path>
<path d="M147.531 272.242L165.664 264.689L184.88 273.953L202.815 266.388L208.786 269.228" stroke="#5FFF00" stroke-width="1.16388" stroke-linecap="round" stroke-linejoin="round" class="aNwdjASm_56"></path>
<path d="M128.607 263.013L146.706 255.564L164.606 248.208L183.577 257.228L202.816 266.388L220.542 258.904L230.051 263.362" stroke="#5FFF00" stroke-width="1.16388" stroke-linecap="round" stroke-linejoin="round" class="aNwdjASm_57"></path>
<path d="M355.865 15.8636L366.678 20.9847L373.475 24.2086L389.268 44.8674" stroke="#5FFF00" stroke-width="1.16388" stroke-linecap="round" stroke-linejoin="round" class="aNwdjASm_58"></path>
<path d="M91.5508 244.938L109.614 237.698L127.48 230.552L145.136 223.487L163.583 232.158L182.298 240.945L201.281 249.861L220.543 258.904L238.048 251.513L241.807 253.248" stroke="#5FFF00" stroke-width="1.16388" stroke-linecap="round" stroke-linejoin="round" class="aNwdjASm_59"></path>
<path d="M73.416 236.092L91.4561 228.958L109.298 221.904L126.931 214.933L144.377 208.043L162.592 216.492L181.063 225.07L199.79 233.753L218.784 242.575L238.046 251.513L249.429 246.707L255.365 244.204L262.627 247.533" stroke="#5FFF00" stroke-width="1.16388" stroke-linecap="round" stroke-linejoin="round" class="aNwdjASm_60"></path>
<path d="M504.609 409.917L486.662 417.133L468.459 418.448L444.588 400.885L421.159 400.396L398.045 385.708" stroke="#5FFF00" stroke-width="1.16388" stroke-linecap="round" stroke-linejoin="round" class="aNwdjASm_61"></path>
<path d="M462.861 394.647L444.588 400.885" stroke="#5FFF00" stroke-width="1.16388" stroke-linecap="round" stroke-linejoin="round" class="aNwdjASm_62"></path>
<path d="M390.189 59.183L401.851 43.8082L416.726 39.0945" stroke="#5FFF00" stroke-width="1.16388" stroke-linecap="round" stroke-linejoin="round" class="aNwdjASm_63"></path>
<path d="M664.642 293.332L648.86 304.156L642.062 305.971" stroke="#5FFF00" stroke-width="1.16388" stroke-linecap="round" stroke-linejoin="round" class="aNwdjASm_64"></path>
<path d="M108.102 162.535L125.385 170.368L142.203 163.967L158.847 157.635L175.304 151.374L191.575 145.17L207.683 139.036L225.281 146.555L241.226 140.41L259.056 147.952L277.131 155.587L295.439 163.327L313.979 171.159L332.788 179.109L351.84 187.163L371.102 191.166L390.632 193.808L406.356 175.117L421.964 154.039L437.467 130.575" stroke="#5FFF00" stroke-width="1.16388" stroke-linecap="round" stroke-linejoin="round" class="aNwdjASm_65"></path>
<path d="M367.493 170.682L348.569 171.101L329.784 164.758L311.232 156.995L292.924 149.348L274.849 141.795L257.007 134.334L241.224 140.41L223.627 132.973L206.25 125.629" stroke="#5FFF00" stroke-width="1.16388" stroke-linecap="round" stroke-linejoin="round" class="aNwdjASm_66"></path>
<path d="M190.316 131.623L207.681 139.037L223.627 132.973L239.397 126.967L255.005 121.031L270.251 109.428L285.335 96.2991L299.872 67.3419L314.397 39.7464L329.341 32.6235L344.181 27.8982L358.869 23.3823L373.475 24.2087L387.896 23.4754L402.13 20.5774L416.271 27.0835L426.862 38.0821L434.055 45.5309L440.189 48.4406L447.929 52.0951L454.935 58.0542L463.245 65.1189L463.268 65.1422" stroke="#5FFF00" stroke-width="1.16388" stroke-linecap="round" stroke-linejoin="round" class="aNwdjASm_67"></path>
<path d="M305.166 101.094L323.288 106.297L341.677 112.023L360.159 108.601L379.026 110.114L394.365 94.9955L409.624 84.2762" stroke="#5FFF00" stroke-width="1.16388" stroke-linecap="round" stroke-linejoin="round" class="aNwdjASm_68"></path>
<path d="M237.605 113.839L255.005 121.031L272.615 128.317L288.071 122.358L300.746 106.588L305.168 101.094" stroke="#5FFF00" stroke-width="1.16388" stroke-linecap="round" stroke-linejoin="round" class="aNwdjASm_69"></path>
<path d="M282.344 60.4866L299.872 67.3418L317.854 84.0434L325.931 82.542" stroke="#5FFF00" stroke-width="1.16388" stroke-linecap="round" stroke-linejoin="round" class="aNwdjASm_70"></path>
<path d="M406.704 203.574L390.631 193.809" stroke="#5FFF00" stroke-width="1.16388" stroke-linecap="round" stroke-linejoin="round" class="aNwdjASm_71"></path>
<path d="M54.9688 219.437L73.5558 220.333L91.3748 213.385L108.984 206.506L126.407 199.709L143.633 192.982L160.672 186.336L178.665 194.495L196.915 202.759L215.421 211.139L234.171 219.635L253.188 228.248L272.474 236.977L292.038 245.834L308.961 238.594L325.698 231.437L342.236 224.36L348.277 221.765H348.3" stroke="#5FFF00" stroke-width="1.16388" stroke-linecap="round" stroke-linejoin="round" class="aNwdjASm_72"></path>
<path d="M256.912 253.178L242.829 265.305L239.884 267.191L223.544 277.666L204.584 269.705" stroke="#5FFF00" stroke-width="1.16388" stroke-linecap="round" stroke-linejoin="round" class="aNwdjASm_73"></path>
<path d="M73.9512 175.373L91.1183 168.913L108.099 162.535L124.894 156.215L141.514 149.965L157.96 143.785L174.219 137.675L190.315 131.623L206.249 125.629L222.008 119.705L237.604 113.839L252.885 103.829L267.608 80.6682L282.343 60.4866L296.531 23.0913L311.242 6.11035L326.256 7.19276L344.727 16.3641L355.865 15.8636L370.204 8.74071L384.473 6.72721L398.614 7.23931L409.194 19.1341L416.27 27.0834L430.213 32.8446L430.725 33.4032L443.982 47.812L447.928 52.0951L461.615 55.4819L479.457 61.9531L492.993 56.6691L506.401 51.4433L514.548 54.3297L516.387 54.9815L524.441 57.8446L542.714 64.339L561.196 70.9149L579.911 77.5607L598.871 84.2878" stroke="#5FFF00" stroke-width="1.16388" stroke-linecap="round" stroke-linejoin="round" class="aNwdjASm_74"></path>
<path d="M530.797 66.9344L532.17 67.4582L537.024 69.3088L547.871 73.4405L561.197 70.9149" stroke="#5FFF00" stroke-width="1.16388" stroke-linecap="round" stroke-linejoin="round" class="aNwdjASm_75"></path>
<path d="M56.25 177.014L73.9525 175.373L91.2012 183.38L108.392 176.839L125.896 184.858L142.912 178.294L160.673 186.336L177.514 179.772L194.181 173.266L210.661 166.83L226.967 160.475L243.099 154.179L259.055 147.952L274.849 141.795L290.468 135.696L302.375 107.67L305.168 101.094L310.254 96.4969L320.357 87.3954L327.328 82.286L338.141 74.3484L356.541 75.7916L375.245 78.6431L394.367 94.9955L413.571 95.4378L433.124 107.868L443.914 120.834L452.91 131.634L468.122 141.97L483.113 144.553L486.791 149.663L502.841 171.963" stroke="#5FFF00" stroke-width="1.16388" stroke-linecap="round" stroke-linejoin="round" class="aNwdjASm_76"></path>
<path d="M326.258 7.19287L341.26 16.5155L358.87 23.3824L376.619 49.0924" stroke="#5FFF00" stroke-width="1.16388" stroke-linecap="round" stroke-linejoin="round" class="aNwdjASm_77"></path>
<path d="M409.265 280.226L393.948 271.846L372.44 235.161L351.479 222.556" stroke="#5FFF00" stroke-width="1.16388" stroke-linecap="round" stroke-linejoin="round" class="aNwdjASm_78"></path>
<path d="M703.212 306.332L687.779 314.374L672.183 321.695L642.598 311.604" stroke="#5FFF00" stroke-width="1.16388" stroke-linecap="round" stroke-linejoin="round" class="aNwdjASm_79"></path>
<path d="M324.708 149.162L308.542 143.168L290.467 135.696L272.613 128.317L257.006 134.335L239.396 126.967L222.008 119.705" stroke="#5FFF00" stroke-width="1.16388" stroke-linecap="round" stroke-linejoin="round" class="aNwdjASm_80"></path>
<path d="M718.459 298.371L703.212 306.332L679.678 296.52L664.641 293.331L641.34 284.474L625.709 289.991L609.857 296.171L586.883 286.313L564.21 278.178L548.067 286.325L525.581 289.549L503.642 280.063L482.017 270.717L460.707 261.499L447.916 246.323L439.652 236.523L420.844 226.525L418.866 225.478L402.432 228.667" stroke="#5FFF00" stroke-width="1.16388" stroke-linecap="round" stroke-linejoin="round" class="aNwdjASm_81"></path>
<path d="M299.546 105.785L285.335 96.2991L267.609 80.6682" stroke="#5FFF00" stroke-width="1.16388" stroke-linecap="round" stroke-linejoin="round" class="aNwdjASm_82"></path>
<path d="M428.854 84.9047L444.042 92.6677L453.807 106.401L463.514 120.054L478.376 123.266L493.076 119.181" stroke="#5FFF00" stroke-width="1.16388" stroke-linecap="round" stroke-linejoin="round" class="aNwdjASm_83"></path>
<path d="M472.01 100.431L488.327 95.7986L500.653 107.658L502.596 109.532L521.987 111.86L541.353 133.671L561.046 146.706L581.088 154.318L601.386 162.046L621.963 169.868L642.808 177.794L663.944 185.824L685.36 193.971L699.408 187.314L721.102 195.485L734.976 188.804L756.938 196.998L779.424 201.304L793.204 192.784L801.445 191.842L803.714 191.586L805.285 191.411" stroke="#5FFF00" stroke-width="1.16388" stroke-linecap="round" stroke-linejoin="round" class="aNwdjASm_84"></path>
<path d="M477.596 199.872L492.866 193.145L507.973 186.499L522.917 179.923L537.698 173.417L552.316 166.981L566.783 160.615L581.087 154.318L595.24 148.091L609.242 141.935L623.092 135.836L643.343 143.308L663.862 150.885L684.649 158.566L705.715 166.341L719.333 159.986L732.81 153.69L746.148 147.475L759.335 141.318" stroke="#5FFF00" stroke-width="1.16388" stroke-linecap="round" stroke-linejoin="round" class="aNwdjASm_85"></path>
<path d="M426.422 14.7347L440.086 24.069L457.532 43.948L475.153 50.2679L488.573 45.1002" stroke="#5FFF00" stroke-width="1.16388" stroke-linecap="round" stroke-linejoin="round" class="aNwdjASm_86"></path>
<path d="M283.611 119.123L270.25 109.427L252.885 103.829" stroke="#5FFF00" stroke-width="1.16388" stroke-linecap="round" stroke-linejoin="round" class="aNwdjASm_87"></path>
<path d="M507.576 119.891L521.985 111.86L534.275 103.05L536.277 101.618" stroke="#5FFF00" stroke-width="1.16388" stroke-linecap="round" stroke-linejoin="round" class="aNwdjASm_88"></path>
<path d="M550.43 120.007L565.77 125.733" stroke="#5FFF00" stroke-width="1.16388" stroke-linecap="round" stroke-linejoin="round" class="aNwdjASm_89"></path>
<path d="M385.312 220.775L397.033 211.988L398.325 211.022L407.321 203.946L414.526 198.266" stroke="#5FFF00" stroke-width="1.16388" stroke-linecap="round" stroke-linejoin="round" class="aNwdjASm_90"></path>
<path d="M367.889 60.0443L383.52 55.7263L392.912 49.6276L401.851 43.8082" stroke="#5FFF00" stroke-width="1.16388" stroke-linecap="round" stroke-linejoin="round" class="aNwdjASm_91"></path>
<path d="M502.84 171.963L517.621 165.55L532.251 159.195L552.316 166.981L572.649 174.872L593.261 182.868L614.141 190.969L635.312 199.186L656.774 207.519L671.148 200.71L685.359 193.971L707.077 202.235L721.101 195.484L743.087 203.76L756.937 196.997L770.624 190.305L784.172 183.683L805.11 191.341L809.451 190.934" stroke="#5FFF00" stroke-width="1.16388" stroke-linecap="round" stroke-linejoin="round" class="aNwdjASm_92"></path>
<path d="M505.051 72.9866L520.833 72.4396L534.485 69.7976L553.061 88.5942L572.032 95.4727L591.247 102.421L610.696 109.474L630.4 116.609L650.489 120.112L670.624 129.888L691.05 138.571L711.802 146.078L732.81 153.69L754.108 161.406L775.698 169.216L797.556 177.142L819.728 185.161L832.938 178.608L846.346 167.272" stroke="#5FFF00" stroke-width="1.16388" stroke-linecap="round" stroke-linejoin="round" class="aNwdjASm_93"></path>
<path d="M532.252 159.195L546.731 152.91L561.046 146.707L575.339 134.614L589.573 123.511L603.097 128.457L616.819 122.498L630.402 116.609L643.844 110.778L663.805 117.249L677.085 111.639" stroke="#5FFF00" stroke-width="1.16388" stroke-linecap="round" stroke-linejoin="round" class="aNwdjASm_94"></path>
<path d="M444.041 92.6677L458.997 96.9857L471.485 100.582L473.743 101.595L488.326 95.7985" stroke="#5FFF00" stroke-width="1.16388" stroke-linecap="round" stroke-linejoin="round" class="aNwdjASm_95"></path>
<path d="M437.465 130.575L452.909 131.634" stroke="#5FFF00" stroke-width="1.16388" stroke-linecap="round" stroke-linejoin="round" class="aNwdjASm_96"></path>
<path d="M398.615 7.23928L412.524 0.581909" stroke="#5FFF00" stroke-width="1.16388" stroke-linecap="round" stroke-linejoin="round" class="aNwdjASm_97"></path>
<path d="M697.508 112.884L684.158 120.519L670.622 129.888L657.04 136.953L643.341 143.308L629.503 149.488L615.524 155.727L601.383 162.046L587.091 168.424L572.647 174.872L558.041 181.39L543.271 187.989L528.339 194.647L513.243 201.385L497.973 208.206L482.54 215.096L466.921 222.067L451.127 224.919L430.643 204.539L417.724 199.523L414.523 198.266L406.702 203.573L397.042 210.114L394.528 211.814L374.754 210.44L365.536 206.506L355.166 202.072L335.857 193.82L316.804 185.673L298.008 177.642L279.455 169.716L261.159 161.895L243.096 154.179L225.277 146.555L209.157 152.77L192.863 159.055L176.394 165.398L159.739 171.811L142.91 178.294L125.382 170.368L108.389 176.839L91.1172 168.913" stroke="#5FFF00" stroke-width="1.16388" stroke-linecap="round" stroke-linejoin="round" class="aNwdjASm_98"></path>
<path d="M717.703 125.896L704.435 132.507L691.05 138.571L677.526 144.693L663.862 150.885L650.047 157.147L636.08 163.466L621.962 169.868L607.682 176.327L593.261 182.868L578.666 189.479L563.908 196.16L548.999 202.91L533.904 209.754L518.657 216.655L503.224 223.65L487.616 230.715L466.923 222.067L446.508 204.458L430.645 204.54" stroke="#5FFF00" stroke-width="1.16388" stroke-linecap="round" stroke-linejoin="round" class="aNwdjASm_99"></path>
<path d="M323.021 242.912L308.961 238.594L289.397 229.842L270.1 221.206L251.07 212.687L232.309 204.283L213.791 195.997L195.53 187.826L177.513 179.772L159.741 171.811L142.201 163.967L124.895 156.215" stroke="#5FFF00" stroke-width="1.16388" stroke-linecap="round" stroke-linejoin="round" class="aNwdjASm_100"></path>
<path d="M310.254 96.4968L317.854 84.0433L332.589 63.8152L347.382 51.0824L362.291 52.2812L376.886 49.4762L380.145 48.8478L389.269 44.8673L398.254 40.9334L400.524 40.7006L416.725 39.0945L419.6 42.2137L422.556 45.4027L428.015 51.3268L429.481 52.9097L435.58 59.5205L435.906 60.0326L437.442 62.3953L447.405 77.7119L454.586 88.7687L466.527 96.7645L471.486 100.582L473.743 101.595L493.075 119.181L507.577 119.891L526.967 143.482L546.73 152.91L566.784 160.615L587.093 168.424L607.682 176.327L628.55 184.346L649.71 192.47L671.148 200.71L692.89 209.055L714.922 217.528L729.086 210.603L743.087 203.76L765.632 207.635L787.978 220.659L811.197 224.57L834.172 237.454" stroke="#5FFF00" stroke-width="1.16388" stroke-linecap="round" stroke-linejoin="round" class="aNwdjASm_101"></path>
<path d="M738.373 133.869L725.151 139.944L711.802 146.078L698.301 152.281L684.648 158.566L670.856 164.898L656.901 171.311L642.807 177.794L628.55 184.346L614.141 190.969L599.569 197.673L584.834 204.446L569.925 211.29L554.853 218.227L539.606 225.233L524.196 232.321L508.601 239.491L492.818 246.742L476.862 254.074L460.707 261.499L444.366 268.913L427.769 264.467L410.951 265.166L393.947 271.846L376.71 277.363L359.264 283.59L341.34 278.306L323.149 274.139L317.818 270.741L313.582 268.04L312.918 267.621L304.434 262.209L300.616 259.707L285.334 249.698L283.507 249.488L264.257 247.184L262.627 247.533L260.986 247.882L243.819 251.537L241.805 253.248L230.05 263.362L224.301 268.296L209.124 269.391L204.585 269.705L196.251 279.423L186.219 291.12" stroke="#5FFF00" stroke-width="1.16388" stroke-linecap="round" stroke-linejoin="round" class="aNwdjASm_102"></path>
<path d="M426.279 84.8232L439.769 80.2841L454.585 88.7687" stroke="#5FFF00" stroke-width="1.16388" stroke-linecap="round" stroke-linejoin="round" class="aNwdjASm_103"></path>
<path d="M420.449 42.4L434.055 45.5308L437.453 49.1738" stroke="#5FFF00" stroke-width="1.16388" stroke-linecap="round" stroke-linejoin="round" class="aNwdjASm_104"></path>
<path d="M294.914 265.829L281.529 269.367" stroke="#5FFF00" stroke-width="1.16388" stroke-linecap="round" stroke-linejoin="round" class="aNwdjASm_105"></path>
<path d="M440.082 24.069L453.536 27.0019L470.948 38.8385" stroke="#5FFF00" stroke-width="1.16388" stroke-linecap="round" stroke-linejoin="round" class="aNwdjASm_106"></path>
<path d="M434.289 54.7255L446.056 61.1151L450.49 62.7446L458.544 65.7124L459.72 66.1547L460.371 66.3875L479.017 72.8586L479.517 73.6734L492.541 94.5998L495.369 99.1622" stroke="#5FFF00" stroke-width="1.16388" stroke-linecap="round" stroke-linejoin="round" class="aNwdjASm_107"></path>
<path d="M915.982 173.604L903.633 172.067L889.934 185.824L887.478 187.302L886.419 187.942L876.538 193.948L863.537 194.623L849.396 208.939L834.173 237.454L820.264 245.275L806.228 252.596L792.029 259.998L777.667 267.493L763.13 275.07L748.418 282.752L733.532 290.515L718.46 298.371L694.962 288.757L671.929 275.827L659.359 264.793L650.583 257.077L649.454 256.087L647.638 255.761L641.644 253.329L619.484 244.367L604.284 251.676L582.427 242.738L560.872 233.927L539.608 225.233L518.658 216.655L497.976 208.206L477.596 199.872L462.14 206.669L446.509 204.458L426.328 191.876L406.356 175.117L386.756 171.683L367.494 170.682L351.84 187.163L335.86 193.82L319.693 200.547L303.353 207.356L286.814 214.234L270.101 221.206L253.19 228.247L236.092 235.359L218.785 242.575L201.281 249.861L183.578 257.228L165.666 264.688L146.707 255.564L128.026 246.567L109.614 237.698L91.4574 228.957L73.557 220.333L55.1911 201.944L37.4769 189.968L19.6929 174.36L0.582031 167.528" stroke="#5FFF00" stroke-width="1.16388" stroke-linecap="round" stroke-linejoin="round" class="aNwdjASm_108"></path>
<path d="M300.615 259.707L311.882 254.819L324.533 243.378L331.411 237.174L336.009 233.822L346.46 226.211L351.477 222.556L358.565 217.354L368.492 210.056" stroke="#5FFF00" stroke-width="1.16388" stroke-linecap="round" stroke-linejoin="round" class="aNwdjASm_109"></path>
<path d="M468.68 66.1546L479.457 61.953L494.925 67.5512" stroke="#5FFF00" stroke-width="1.16388" stroke-linecap="round" stroke-linejoin="round" class="aNwdjASm_110"></path>
<path d="M417.727 199.523L426.328 191.877L441.97 177.526L457.485 170.997" stroke="#5FFF00" stroke-width="1.16388" stroke-linecap="round" stroke-linejoin="round" class="aNwdjASm_111"></path>
<path d="M335.208 233.648L325.699 231.437L306.122 222.777L286.814 214.235L267.784 205.82L249 197.51L230.482 189.316L212.209 181.239L194.181 173.266L176.397 165.398L158.846 157.635L141.516 149.965" stroke="#5FFF00" stroke-width="1.16388" stroke-linecap="round" stroke-linejoin="round" class="aNwdjASm_112"></path>
<path d="M574.629 124.907L583.37 121.171L597.103 115.293L610.697 109.474L624.152 103.713L637.478 98.0099" stroke="#5FFF00" stroke-width="1.16388" stroke-linecap="round" stroke-linejoin="round" class="aNwdjASm_113"></path>
<path d="M283.508 249.488L292.039 245.834L308.112 253.12" stroke="#5FFF00" stroke-width="1.16388" stroke-linecap="round" stroke-linejoin="round" class="aNwdjASm_114"></path>
<path d="M534.09 65.6659L542.714 64.3391" stroke="#5FFF00" stroke-width="1.16388" stroke-linecap="round" stroke-linejoin="round" class="aNwdjASm_115"></path>
<path d="M291.271 259.684L283.299 256.483L262.431 248.441L243.82 251.537" stroke="#5FFF00" stroke-width="1.16388" stroke-linecap="round" stroke-linejoin="round" class="aNwdjASm_116"></path>
<path d="M556.459 117.109L563.873 113.978L577.688 105.552L597.102 115.293L616.818 122.498L636.929 125.664L657.041 136.953L677.525 144.693L698.3 152.281L719.332 159.986L740.654 167.773L754.108 161.406L767.411 155.098L780.586 148.86" stroke="#5FFF00" stroke-width="1.16388" stroke-linecap="round" stroke-linejoin="round" class="aNwdjASm_117"></path>
<path d="M481.426 72.8586L488.456 69.8674L492.238 70.5774L502.643 72.5327L505.052 72.9866L507.066 73.3591L525.641 99.8605L532.683 102.468" stroke="#5FFF00" stroke-width="1.16388" stroke-linecap="round" stroke-linejoin="round" class="aNwdjASm_118"></path>
<path d="M290.526 258.45L283.299 256.483L264.258 247.184" stroke="#5FFF00" stroke-width="1.16388" stroke-linecap="round" stroke-linejoin="round" class="aNwdjASm_119"></path>
<path d="M388.932 216.725L394.53 211.814" stroke="#5FFF00" stroke-width="1.16388" stroke-linecap="round" stroke-linejoin="round" class="aNwdjASm_120"></path>
<path d="M431.367 52.13L437.955 49.3716" stroke="#5FFF00" stroke-width="1.16388" stroke-linecap="round" stroke-linejoin="round" class="aNwdjASm_121"></path>
<path d="M313.582 268.041L320.228 270.368L338.012 267.575L355.307 251.432L372.439 235.161L389.606 235.44L406.576 240.55L423.231 239.514L439.653 236.523L455.854 243.518L471.823 237.873L487.616 230.715L508.601 239.491L529.877 248.383L545.461 241.108L560.871 233.927L576.094 226.816L591.155 219.786L606.041 212.85L620.764 205.983L635.312 199.186L649.709 192.47L663.943 185.824L678.015 179.26L699.407 187.314L713.315 180.727L734.975 188.804L748.697 182.205L770.624 190.305L793.203 192.784" stroke="#5FFF00" stroke-width="1.16388" stroke-linecap="round" stroke-linejoin="round" class="aNwdjASm_122"></path>
<path d="M863.002 176.932L869.217 178.981L903.633 172.067" stroke="#5FFF00" stroke-width="1.16388" stroke-linecap="round" stroke-linejoin="round" class="aNwdjASm_123"></path>
<path d="M378.922 59.9164L383.519 55.7265L391.468 47.7423L398.254 40.9336" stroke="#5FFF00" stroke-width="1.16388" stroke-linecap="round" stroke-linejoin="round" class="aNwdjASm_124"></path>
<path d="M838.619 180.645L832.94 178.608L810.815 170.659L797.558 177.142L784.173 183.683L762.269 175.675L740.656 167.773L727.237 170.612L713.317 180.727L691.936 172.766L670.859 164.898L650.048 157.146L629.506 149.488L609.243 141.935L589.492 123.534L569.485 127.107L555.565 126.676L541.354 133.671L526.969 143.483L512.537 143.413L497.895 146.962L483.114 144.553L468.309 126.059L463.514 120.054L448.419 106.786L433.125 107.868L417.704 121.183L402.236 143.401L386.757 171.683L371.102 191.166L355.169 202.072L339.003 208.892L322.662 215.794L306.123 222.777L289.398 229.842L272.476 236.977L255.367 244.204L236.093 235.359L217.075 226.653L198.337 218.064L179.854 209.591L161.617 201.234L143.635 192.982L125.897 184.858L108.683 191.492L91.2021 183.38L73.8254 189.991L55.9949 193.11L37.4776 189.968L18.3086 182.018" stroke="#5FFF00" stroke-width="1.16388" stroke-linecap="round" stroke-linejoin="round" class="aNwdjASm_125"></path>
<path d="M450.803 62.8026L456.122 63.7919L459.148 65.7821" stroke="#5FFF00" stroke-width="1.16388" stroke-linecap="round" stroke-linejoin="round" class="aNwdjASm_126"></path>
<path d="M506.949 104.679L511.721 105.587L525.641 99.8604L539.421 94.204L553.062 88.5941L566.551 83.0541L585.511 89.8511L598.872 84.2878L618.053 91.1081L637.478 98.0099L657.252 102.037" stroke="#5FFF00" stroke-width="1.16388" stroke-linecap="round" stroke-linejoin="round" class="aNwdjASm_127"></path>
<path d="M493.098 70.2399L497.52 68.4941L507.111 61.732L516.014 55.4703" stroke="#5FFF00" stroke-width="1.16388" stroke-linecap="round" stroke-linejoin="round" class="aNwdjASm_128"></path>
<path d="M301.862 277.514L297.545 279.109L279.935 284.893L261.732 280.156L242.144 285.08L223.545 277.666L204.388 283.345L186.22 291.12L166.737 281.611L147.533 272.242L128.608 263.013L109.939 253.911" stroke="#5FFF00" stroke-width="1.16388" stroke-linecap="round" stroke-linejoin="round" class="aNwdjASm_129"></path>
<path d="M823.895 186.674L819.728 185.161L808.299 190.841" stroke="#5FFF00" stroke-width="1.16388" stroke-linecap="round" stroke-linejoin="round" class="aNwdjASm_130"></path>
<path d="M887.477 187.302L891.108 188.14" stroke="#5FFF00" stroke-width="1.16388" stroke-linecap="round" stroke-linejoin="round" class="aNwdjASm_131"></path>
<path d="M371.369 211.895L374.756 210.44L390.631 193.809" stroke="#5FFF00" stroke-width="1.16388" stroke-linecap="round" stroke-linejoin="round" class="aNwdjASm_132"></path>
<path d="M541.725 105.796L544.634 106.879L563.873 113.978L583.368 121.171L589.315 123.371L589.572 123.51L603.096 128.457L623.091 135.836L636.93 125.664L650.489 120.112L663.803 117.249L684.16 120.519L704.434 132.507L725.151 139.944L746.148 147.475L767.412 155.098L788.967 162.826L802.188 155.179" stroke="#5FFF00" stroke-width="1.16388" stroke-linecap="round" stroke-linejoin="round" class="aNwdjASm_133"></path>
<path d="M521.975 58.8338L524.442 57.8445" stroke="#5FFF00" stroke-width="1.16388" stroke-linecap="round" stroke-linejoin="round" class="aNwdjASm_134"></path>
<path d="M344.39 225.303L342.237 224.36L322.661 215.794L303.352 207.356L284.311 199.034L265.515 190.817L246.986 182.717L228.701 174.721L210.661 166.83L192.866 159.055L175.303 151.374L157.961 143.785" stroke="#5FFF00" stroke-width="1.16388" stroke-linecap="round" stroke-linejoin="round" class="aNwdjASm_135"></path>
<path d="M650.641 305.506L648.86 304.155L625.71 289.991L602.759 280.308L586.884 286.313L570.81 291.725L548.068 286.325" stroke="#5FFF00" stroke-width="1.16388" stroke-linecap="round" stroke-linejoin="round" class="aNwdjASm_136"></path>
<path d="M515.189 108.613L516.784 108.497L533.276 102.677L536.279 101.618" stroke="#5FFF00" stroke-width="1.16388" stroke-linecap="round" stroke-linejoin="round" class="aNwdjASm_137"></path>
<path d="M543.656 107.286L544.634 106.879L558.403 101.141L577.688 105.552L591.247 102.421L604.713 96.7413L618.051 91.1082" stroke="#5FFF00" stroke-width="1.16388" stroke-linecap="round" stroke-linejoin="round" class="aNwdjASm_138"></path>
<path d="M881.938 183.66L889.933 185.824" stroke="#5FFF00" stroke-width="1.16388" stroke-linecap="round" stroke-linejoin="round" class="aNwdjASm_139"></path>
<path d="M420.602 42.5397L437.454 49.1738L437.955 49.3716L438.42 49.7441L456.123 63.792" stroke="#5FFF00" stroke-width="1.16388" stroke-linecap="round" stroke-linejoin="round" class="aNwdjASm_140"></path>
<path d="M657.276 305.133L652.783 307.112L642.6 311.604L641.226 312.21L626.608 309.242L617.309 307.345" stroke="#5FFF00" stroke-width="1.16388" stroke-linecap="round" stroke-linejoin="round" class="aNwdjASm_141"></path>
<path d="M486.661 417.133L471.891 403.19L462.859 394.647" stroke="#5FFF00" stroke-width="1.16388" stroke-linecap="round" stroke-linejoin="round" class="aNwdjASm_142"></path>
<path d="M366.434 59.9162L377.77 50.7682L380.144 48.8478" stroke="#5FFF00" stroke-width="1.16388" stroke-linecap="round" stroke-linejoin="round" class="aNwdjASm_143"></path>
<path d="M318.424 264.13L327.921 244.425L331.413 237.174L335.265 233.66L344.402 225.303L348.277 221.776L348.301 221.765L357.041 216.69L368.494 210.056" stroke="#5FFF00" stroke-width="1.16388" stroke-linecap="round" stroke-linejoin="round" class="aNwdjASm_144"></path>
<path d="M363.43 59.6486L356.156 55.7613L347.38 51.0825L329.34 32.6234L311.242 6.11035" stroke="#5FFF00" stroke-width="1.16388" stroke-linecap="round" stroke-linejoin="round" class="aNwdjASm_145"></path>
<path d="M416.727 39.0945L419.683 41.9111L420.113 42.3301L420.148 42.3533L430.67 52.4209L431.519 53.2239L439.783 60.1606L444.147 63.8152L450.269 68.9595L462.863 90.4912" stroke="#5FFF00" stroke-width="1.16388" stroke-linecap="round" stroke-linejoin="round" class="aNwdjASm_146"></path>
<path d="M503.783 71.0779L510.231 62.8493L516.016 55.4703" stroke="#5FFF00" stroke-width="1.16388" stroke-linecap="round" stroke-linejoin="round" class="aNwdjASm_147"></path>
<path d="M388.443 222.265L397.452 212.012L398.325 211.022" stroke="#5FFF00" stroke-width="1.16388" stroke-linecap="round" stroke-linejoin="round" class="aNwdjASm_148"></path>
<path d="M647.638 255.762L639.631 254.318L631.728 252.898L626.735 251.991L611.441 256.716L595.915 262.489L573.359 266.562L557.67 271.707L541.725 280.273L519.775 272.417L498.161 263.187L476.863 254.074L455.855 243.518L446.276 235.312L435.114 225.768L416.364 200.734L414.525 198.266" stroke="#5FFF00" stroke-width="1.16388" stroke-linecap="round" stroke-linejoin="round" class="aNwdjASm_149"></path>
<path d="M863.002 176.932L856.042 172.894L846.952 167.633L846.347 167.272L823.919 164.258L802.189 155.18L780.588 148.86L759.336 141.318L738.374 133.869L717.704 125.896L697.511 112.884L677.085 111.639L657.252 102.037L643.844 110.778L624.151 103.713L604.715 96.7414L585.511 89.8513L572.033 95.4728L558.404 101.141L539.421 94.2042L520.834 72.4397L507.066 73.3592L493.099 76.4434L480.518 73.2428L479.016 72.8587L464.724 76.362L450.268 68.9597L435.58 59.5207L420.694 57.2395L405.646 58.1939L390.434 60.8359L375.245 78.6432L360.161 108.601L345.008 137.361L329.784 164.758L313.979 171.16L298.01 177.642L281.856 184.195L265.515 190.817L249 197.51L232.31 204.284L215.422 211.139L198.336 218.064L181.064 225.07L163.583 232.158L145.915 239.316L128.026 246.567L109.94 253.911L91.5505 244.938L73.4173 236.092L54.9699 219.437L35.9755 191.562L35.8474 191.376L18.3079 182.019L0.582031 167.528" stroke="#5FFF00" stroke-width="1.16388" stroke-linecap="round" stroke-linejoin="round" class="aNwdjASm_150"></path>
<path d="M285.336 249.698L290.527 258.45L291.272 259.684L294.915 265.829L296.276 268.122L297.301 269.833L301.863 277.515L307.741 287.407L317.936 303.76L330.238 323.488L348.849 327.782L367.028 325.326L384.929 321.276L402.398 298.476L419.787 282.123L427.643 280.785L437.047 279.179L444.147 284.323L454.075 291.504L470.799 295.624L487.326 287.792L503.644 280.063L519.775 272.417L535.709 264.863L557.671 271.707L580.122 271.905L602.76 280.308L618.588 269.46L634.277 257.868L649.454 256.088L664.119 262.431L686.931 271.439L701.864 264.118L716.633 256.658L739.713 265.806L763.13 275.07" stroke="#5FFF00" stroke-width="1.16388" stroke-linecap="round" stroke-linejoin="round" class="aNwdjASm_151"></path>
<path d="M368.492 210.056L371.367 211.895L372.612 212.687L385.31 220.776L385.624 220.985L388.441 222.265L402.431 228.667L423.229 239.514L444.365 268.913L465.687 278.341L482.017 270.717L498.16 263.187L514.116 255.738L535.706 264.863L551.465 257.403L567.038 250.024L582.424 242.738L597.636 235.534L612.673 228.411L627.536 221.369L642.236 214.398L656.772 207.519L678.537 215.957L700.604 224.523L722.974 233.206L745.669 242.005L768.679 250.943L792.026 259.998" stroke="#5FFF00" stroke-width="1.16388" stroke-linecap="round" stroke-linejoin="round" class="aNwdjASm_152"></path>
</g>
<defs>
<clipPath id="clip0_1618_3278">
<path width="916.563" height="419.03" fill="white" d="M0 0 L916.563 0 L916.563 419.03 L0 419.03 Z" class="aNwdjASm_153"></path>
</clipPath>
</defs>
<style data-made-with="vivus-instant">.aNwdjASm_0{stroke-dasharray:417 419;stroke-dashoffset:418;animation:aNwdjASm_draw 2000ms linear 0ms forwards;}.aNwdjASm_1{stroke-dasharray:99 101;stroke-dashoffset:100;animation:aNwdjASm_draw 2000ms linear 6ms forwards;}.aNwdjASm_2{stroke-dasharray:123 125;stroke-dashoffset:124;animation:aNwdjASm_draw 2000ms linear 13ms forwards;}.aNwdjASm_3{stroke-dasharray:36 38;stroke-dashoffset:37;animation:aNwdjASm_draw 2000ms linear 19ms forwards;}.aNwdjASm_4{stroke-dasharray:38 40;stroke-dashoffset:39;animation:aNwdjASm_draw 2000ms linear 26ms forwards;}.aNwdjASm_5{stroke-dasharray:102 104;stroke-dashoffset:103;animation:aNwdjASm_draw 2000ms linear 32ms forwards;}.aNwdjASm_6{stroke-dasharray:109 111;stroke-dashoffset:110;animation:aNwdjASm_draw 2000ms linear 39ms forwards;}.aNwdjASm_7{stroke-dasharray:33 35;stroke-dashoffset:34;animation:aNwdjASm_draw 2000ms linear 45ms forwards;}.aNwdjASm_8{stroke-dasharray:325 327;stroke-dashoffset:326;animation:aNwdjASm_draw 2000ms linear 52ms forwards;}.aNwdjASm_9{stroke-dasharray:32 34;stroke-dashoffset:33;animation:aNwdjASm_draw 2000ms linear 58ms forwards;}.aNwdjASm_10{stroke-dasharray:57 59;stroke-dashoffset:58;animation:aNwdjASm_draw 2000ms linear 65ms forwards;}.aNwdjASm_11{stroke-dasharray:31 33;stroke-dashoffset:32;animation:aNwdjASm_draw 2000ms linear 71ms forwards;}.aNwdjASm_12{stroke-dasharray:31 33;stroke-dashoffset:32;animation:aNwdjASm_draw 2000ms linear 78ms forwards;}.aNwdjASm_13{stroke-dasharray:30 32;stroke-dashoffset:31;animation:aNwdjASm_draw 2000ms linear 84ms forwards;}.aNwdjASm_14{stroke-dasharray:34 36;stroke-dashoffset:35;animation:aNwdjASm_draw 2000ms linear 91ms forwards;}.aNwdjASm_15{stroke-dasharray:327 329;stroke-dashoffset:328;animation:aNwdjASm_draw 2000ms linear 98ms forwards;}.aNwdjASm_16{stroke-dasharray:56 58;stroke-dashoffset:57;animation:aNwdjASm_draw 2000ms linear 104ms forwards;}.aNwdjASm_17{stroke-dasharray:343 345;stroke-dashoffset:344;animation:aNwdjASm_draw 2000ms linear 111ms forwards;}.aNwdjASm_18{stroke-dasharray:27 29;stroke-dashoffset:28;animation:aNwdjASm_draw 2000ms linear 117ms forwards;}.aNwdjASm_19{stroke-dasharray:27 29;stroke-dashoffset:28;animation:aNwdjASm_draw 2000ms linear 124ms forwards;}.aNwdjASm_20{stroke-dasharray:27 29;stroke-dashoffset:28;animation:aNwdjASm_draw 2000ms linear 130ms forwards;}.aNwdjASm_21{stroke-dasharray:999 1001;stroke-dashoffset:1000;animation:aNwdjASm_draw 2000ms linear 137ms forwards;}.aNwdjASm_22{stroke-dasharray:113 115;stroke-dashoffset:114;animation:aNwdjASm_draw 2000ms linear 143ms forwards;}.aNwdjASm_23{stroke-dasharray:182 184;stroke-dashoffset:183;animation:aNwdjASm_draw 2000ms linear 150ms forwards;}.aNwdjASm_24{stroke-dasharray:142 144;stroke-dashoffset:143;animation:aNwdjASm_draw 2000ms linear 156ms forwards;}.aNwdjASm_25{stroke-dasharray:172 174;stroke-dashoffset:173;animation:aNwdjASm_draw 2000ms linear 163ms forwards;}.aNwdjASm_26{stroke-dasharray:157 159;stroke-dashoffset:158;animation:aNwdjASm_draw 2000ms linear 169ms forwards;}.aNwdjASm_27{stroke-dasharray:340 342;stroke-dashoffset:341;animation:aNwdjASm_draw 2000ms linear 176ms forwards;}.aNwdjASm_28{stroke-dasharray:71 73;stroke-dashoffset:72;animation:aNwdjASm_draw 2000ms linear 183ms forwards;}.aNwdjASm_29{stroke-dasharray:91 93;stroke-dashoffset:92;animation:aNwdjASm_draw 2000ms linear 189ms forwards;}.aNwdjASm_30{stroke-dasharray:412 414;stroke-dashoffset:413;animation:aNwdjASm_draw 2000ms linear 196ms forwards;}.aNwdjASm_31{stroke-dasharray:188 190;stroke-dashoffset:189;animation:aNwdjASm_draw 2000ms linear 202ms forwards;}.aNwdjASm_32{stroke-dasharray:79 81;stroke-dashoffset:80;animation:aNwdjASm_draw 2000ms linear 209ms forwards;}.aNwdjASm_33{stroke-dasharray:67 69;stroke-dashoffset:68;animation:aNwdjASm_draw 2000ms linear 215ms forwards;}.aNwdjASm_34{stroke-dasharray:95 97;stroke-dashoffset:96;animation:aNwdjASm_draw 2000ms linear 222ms forwards;}.aNwdjASm_35{stroke-dasharray:25 27;stroke-dashoffset:26;animation:aNwdjASm_draw 2000ms linear 228ms forwards;}.aNwdjASm_36{stroke-dasharray:45 47;stroke-dashoffset:46;animation:aNwdjASm_draw 2000ms linear 235ms forwards;}.aNwdjASm_37{stroke-dasharray:43 45;stroke-dashoffset:44;animation:aNwdjASm_draw 2000ms linear 241ms forwards;}.aNwdjASm_38{stroke-dasharray:1021 1023;stroke-dashoffset:1022;animation:aNwdjASm_draw 2000ms linear 248ms forwards;}.aNwdjASm_39{stroke-dasharray:471 473;stroke-dashoffset:472;animation:aNwdjASm_draw 2000ms linear 254ms forwards;}.aNwdjASm_40{stroke-dasharray:73 75;stroke-dashoffset:74;animation:aNwdjASm_draw 2000ms linear 261ms forwards;}.aNwdjASm_41{stroke-dasharray:496 498;stroke-dashoffset:497;animation:aNwdjASm_draw 2000ms linear 267ms forwards;}.aNwdjASm_42{stroke-dasharray:45 47;stroke-dashoffset:46;animation:aNwdjASm_draw 2000ms linear 274ms forwards;}.aNwdjASm_43{stroke-dasharray:364 366;stroke-dashoffset:365;animation:aNwdjASm_draw 2000ms linear 281ms forwards;}.aNwdjASm_44{stroke-dasharray:38 40;stroke-dashoffset:39;animation:aNwdjASm_draw 2000ms linear 287ms forwards;}.aNwdjASm_45{stroke-dasharray:119 121;stroke-dashoffset:120;animation:aNwdjASm_draw 2000ms linear 294ms forwards;}.aNwdjASm_46{stroke-dasharray:50 52;stroke-dashoffset:51;animation:aNwdjASm_draw 2000ms linear 300ms forwards;}.aNwdjASm_47{stroke-dasharray:441 443;stroke-dashoffset:442;animation:aNwdjASm_draw 2000ms linear 307ms forwards;}.aNwdjASm_48{stroke-dasharray:98 100;stroke-dashoffset:99;animation:aNwdjASm_draw 2000ms linear 313ms forwards;}.aNwdjASm_49{stroke-dasharray:91 93;stroke-dashoffset:92;animation:aNwdjASm_draw 2000ms linear 320ms forwards;}.aNwdjASm_50{stroke-dasharray:55 57;stroke-dashoffset:56;animation:aNwdjASm_draw 2000ms linear 326ms forwards;}.aNwdjASm_51{stroke-dasharray:1005 1007;stroke-dashoffset:1006;animation:aNwdjASm_draw 2000ms linear 333ms forwards;}.aNwdjASm_52{stroke-dasharray:21 23;stroke-dashoffset:22;animation:aNwdjASm_draw 2000ms linear 339ms forwards;}.aNwdjASm_53{stroke-dasharray:119 121;stroke-dashoffset:120;animation:aNwdjASm_draw 2000ms linear 346ms forwards;}.aNwdjASm_54{stroke-dasharray:33 35;stroke-dashoffset:34;animation:aNwdjASm_draw 2000ms linear 352ms forwards;}.aNwdjASm_55{stroke-dasharray:200 202;stroke-dashoffset:201;animation:aNwdjASm_draw 2000ms linear 359ms forwards;}.aNwdjASm_56{stroke-dasharray:68 70;stroke-dashoffset:69;animation:aNwdjASm_draw 2000ms linear 366ms forwards;}.aNwdjASm_57{stroke-dasharray:111 113;stroke-dashoffset:112;animation:aNwdjASm_draw 2000ms linear 372ms forwards;}.aNwdjASm_58{stroke-dasharray:46 48;stroke-dashoffset:47;animation:aNwdjASm_draw 2000ms linear 379ms forwards;}.aNwdjASm_59{stroke-dasharray:165 167;stroke-dashoffset:166;animation:aNwdjASm_draw 2000ms linear 385ms forwards;}.aNwdjASm_60{stroke-dasharray:207 209;stroke-dashoffset:208;animation:aNwdjASm_draw 2000ms linear 392ms forwards;}.aNwdjASm_61{stroke-dasharray:119 121;stroke-dashoffset:120;animation:aNwdjASm_draw 2000ms linear 398ms forwards;}.aNwdjASm_62{stroke-dasharray:20 22;stroke-dashoffset:21;animation:aNwdjASm_draw 2000ms linear 405ms forwards;}.aNwdjASm_63{stroke-dasharray:35 37;stroke-dashoffset:36;animation:aNwdjASm_draw 2000ms linear 411ms forwards;}.aNwdjASm_64{stroke-dasharray:27 29;stroke-dashoffset:28;animation:aNwdjASm_draw 2000ms linear 418ms forwards;}.aNwdjASm_65{stroke-dasharray:382 384;stroke-dashoffset:383;animation:aNwdjASm_draw 2000ms linear 424ms forwards;}.aNwdjASm_66{stroke-dasharray:173 175;stroke-dashoffset:174;animation:aNwdjASm_draw 2000ms linear 431ms forwards;}.aNwdjASm_67{stroke-dasharray:341 343;stroke-dashoffset:342;animation:aNwdjASm_draw 2000ms linear 437ms forwards;}.aNwdjASm_68{stroke-dasharray:117 119;stroke-dashoffset:118;animation:aNwdjASm_draw 2000ms linear 444ms forwards;}.aNwdjASm_69{stroke-dasharray:82 84;stroke-dashoffset:83;animation:aNwdjASm_draw 2000ms linear 450ms forwards;}.aNwdjASm_70{stroke-dasharray:52 54;stroke-dashoffset:53;animation:aNwdjASm_draw 2000ms linear 457ms forwards;}.aNwdjASm_71{stroke-dasharray:19 21;stroke-dashoffset:20;animation:aNwdjASm_draw 2000ms linear 464ms forwards;}.aNwdjASm_72{stroke-dasharray:318 320;stroke-dashoffset:319;animation:aNwdjASm_draw 2000ms linear 470ms forwards;}.aNwdjASm_73{stroke-dasharray:63 65;stroke-dashoffset:64;animation:aNwdjASm_draw 2000ms linear 477ms forwards;}.aNwdjASm_74{stroke-dasharray:628 630;stroke-dashoffset:629;animation:aNwdjASm_draw 2000ms linear 483ms forwards;}.aNwdjASm_75{stroke-dasharray:32 34;stroke-dashoffset:33;animation:aNwdjASm_draw 2000ms linear 490ms forwards;}.aNwdjASm_76{stroke-dasharray:535 537;stroke-dashoffset:536;animation:aNwdjASm_draw 2000ms linear 496ms forwards;}.aNwdjASm_77{stroke-dasharray:68 70;stroke-dashoffset:69;animation:aNwdjASm_draw 2000ms linear 503ms forwards;}.aNwdjASm_78{stroke-dasharray:85 87;stroke-dashoffset:86;animation:aNwdjASm_draw 2000ms linear 509ms forwards;}.aNwdjASm_79{stroke-dasharray:66 68;stroke-dashoffset:67;animation:aNwdjASm_draw 2000ms linear 516ms forwards;}.aNwdjASm_80{stroke-dasharray:111 113;stroke-dashoffset:112;animation:aNwdjASm_draw 2000ms linear 522ms forwards;}.aNwdjASm_81{stroke-dasharray:351 353;stroke-dashoffset:352;animation:aNwdjASm_draw 2000ms linear 529ms forwards;}.aNwdjASm_82{stroke-dasharray:41 43;stroke-dashoffset:42;animation:aNwdjASm_draw 2000ms linear 535ms forwards;}.aNwdjASm_83{stroke-dasharray:82 84;stroke-dashoffset:83;animation:aNwdjASm_draw 2000ms linear 542ms forwards;}.aNwdjASm_84{stroke-dasharray:371 373;stroke-dashoffset:372;animation:aNwdjASm_draw 2000ms linear 549ms forwards;}.aNwdjASm_85{stroke-dasharray:307 309;stroke-dashoffset:308;animation:aNwdjASm_draw 2000ms linear 555ms forwards;}.aNwdjASm_86{stroke-dasharray:77 79;stroke-dashoffset:78;animation:aNwdjASm_draw 2000ms linear 562ms forwards;}.aNwdjASm_87{stroke-dasharray:35 37;stroke-dashoffset:36;animation:aNwdjASm_draw 2000ms linear 568ms forwards;}.aNwdjASm_88{stroke-dasharray:35 37;stroke-dashoffset:36;animation:aNwdjASm_draw 2000ms linear 575ms forwards;}.aNwdjASm_89{stroke-dasharray:17 19;stroke-dashoffset:18;animation:aNwdjASm_draw 2000ms linear 581ms forwards;}.aNwdjASm_90{stroke-dasharray:37 39;stroke-dashoffset:38;animation:aNwdjASm_draw 2000ms linear 588ms forwards;}.aNwdjASm_91{stroke-dasharray:39 41;stroke-dashoffset:40;animation:aNwdjASm_draw 2000ms linear 594ms forwards;}.aNwdjASm_92{stroke-dasharray:332 334;stroke-dashoffset:333;animation:aNwdjASm_draw 2000ms linear 601ms forwards;}.aNwdjASm_93{stroke-dasharray:373 375;stroke-dashoffset:374;animation:aNwdjASm_draw 2000ms linear 607ms forwards;}.aNwdjASm_94{stroke-dasharray:163 165;stroke-dashoffset:164;animation:aNwdjASm_draw 2000ms linear 614ms forwards;}.aNwdjASm_95{stroke-dasharray:47 49;stroke-dashoffset:48;animation:aNwdjASm_draw 2000ms linear 620ms forwards;}.aNwdjASm_96{stroke-dasharray:16 18;stroke-dashoffset:17;animation:aNwdjASm_draw 2000ms linear 627ms forwards;}.aNwdjASm_97{stroke-dasharray:16 18;stroke-dashoffset:17;animation:aNwdjASm_draw 2000ms linear 633ms forwards;}.aNwdjASm_98{stroke-dasharray:669 671;stroke-dashoffset:670;animation:aNwdjASm_draw 2000ms linear 640ms forwards;}.aNwdjASm_99{stroke-dasharray:319 321;stroke-dashoffset:320;animation:aNwdjASm_draw 2000ms linear 647ms forwards;}.aNwdjASm_100{stroke-dasharray:217 219;stroke-dashoffset:218;animation:aNwdjASm_draw 2000ms linear 653ms forwards;}.aNwdjASm_101{stroke-dasharray:620 622;stroke-dashoffset:621;animation:aNwdjASm_draw 2000ms linear 660ms forwards;}.aNwdjASm_102{stroke-dasharray:611 613;stroke-dashoffset:612;animation:aNwdjASm_draw 2000ms linear 666ms forwards;}.aNwdjASm_103{stroke-dasharray:32 34;stroke-dashoffset:33;animation:aNwdjASm_draw 2000ms linear 673ms forwards;}.aNwdjASm_104{stroke-dasharray:19 21;stroke-dashoffset:20;animation:aNwdjASm_draw 2000ms linear 679ms forwards;}.aNwdjASm_105{stroke-dasharray:14 16;stroke-dashoffset:15;animation:aNwdjASm_draw 2000ms linear 686ms forwards;}.aNwdjASm_106{stroke-dasharray:35 37;stroke-dashoffset:36;animation:aNwdjASm_draw 2000ms linear 692ms forwards;}.aNwdjASm_107{stroke-dasharray:80 82;stroke-dashoffset:81;animation:aNwdjASm_draw 2000ms linear 699ms forwards;}.aNwdjASm_108{stroke-dasharray:1052 1054;stroke-dashoffset:1053;animation:aNwdjASm_draw 2000ms linear 705ms forwards;}.aNwdjASm_109{stroke-dasharray:85 87;stroke-dashoffset:86;animation:aNwdjASm_draw 2000ms linear 712ms forwards;}.aNwdjASm_110{stroke-dasharray:29 31;stroke-dashoffset:30;animation:aNwdjASm_draw 2000ms linear 718ms forwards;}.aNwdjASm_111{stroke-dasharray:50 52;stroke-dashoffset:51;animation:aNwdjASm_draw 2000ms linear 725ms forwards;}.aNwdjASm_112{stroke-dasharray:212 214;stroke-dashoffset:213;animation:aNwdjASm_draw 2000ms linear 732ms forwards;}.aNwdjASm_113{stroke-dasharray:69 71;stroke-dashoffset:70;animation:aNwdjASm_draw 2000ms linear 738ms forwards;}.aNwdjASm_114{stroke-dasharray:27 29;stroke-dashoffset:28;animation:aNwdjASm_draw 2000ms linear 745ms forwards;}.aNwdjASm_115{stroke-dasharray:9 11;stroke-dashoffset:10;animation:aNwdjASm_draw 2000ms linear 751ms forwards;}.aNwdjASm_116{stroke-dasharray:50 52;stroke-dashoffset:51;animation:aNwdjASm_draw 2000ms linear 758ms forwards;}.aNwdjASm_117{stroke-dasharray:244 246;stroke-dashoffset:245;animation:aNwdjASm_draw 2000ms linear 764ms forwards;}.aNwdjASm_118{stroke-dasharray:67 69;stroke-dashoffset:68;animation:aNwdjASm_draw 2000ms linear 771ms forwards;}.aNwdjASm_119{stroke-dasharray:29 31;stroke-dashoffset:30;animation:aNwdjASm_draw 2000ms linear 777ms forwards;}.aNwdjASm_120{stroke-dasharray:8 10;stroke-dashoffset:9;animation:aNwdjASm_draw 2000ms linear 784ms forwards;}.aNwdjASm_121{stroke-dasharray:8 10;stroke-dashoffset:9;animation:aNwdjASm_draw 2000ms linear 790ms forwards;}.aNwdjASm_122{stroke-dasharray:525 527;stroke-dashoffset:526;animation:aNwdjASm_draw 2000ms linear 797ms forwards;}.aNwdjASm_123{stroke-dasharray:42 44;stroke-dashoffset:43;animation:aNwdjASm_draw 2000ms linear 803ms forwards;}.aNwdjASm_124{stroke-dasharray:28 30;stroke-dashoffset:29;animation:aNwdjASm_draw 2000ms linear 810ms forwards;}.aNwdjASm_125{stroke-dasharray:942 944;stroke-dashoffset:943;animation:aNwdjASm_draw 2000ms linear 816ms forwards;}.aNwdjASm_126{stroke-dasharray:10 12;stroke-dashoffset:11;animation:aNwdjASm_draw 2000ms linear 823ms forwards;}.aNwdjASm_127{stroke-dasharray:160 162;stroke-dashoffset:161;animation:aNwdjASm_draw 2000ms linear 830ms forwards;}.aNwdjASm_128{stroke-dasharray:28 30;stroke-dashoffset:29;animation:aNwdjASm_draw 2000ms linear 836ms forwards;}.aNwdjASm_129{stroke-dasharray:207 209;stroke-dashoffset:208;animation:aNwdjASm_draw 2000ms linear 843ms forwards;}.aNwdjASm_130{stroke-dasharray:18 20;stroke-dashoffset:19;animation:aNwdjASm_draw 2000ms linear 849ms forwards;}.aNwdjASm_131{stroke-dasharray:4 6;stroke-dashoffset:5;animation:aNwdjASm_draw 2000ms linear 856ms forwards;}.aNwdjASm_132{stroke-dasharray:27 29;stroke-dashoffset:28;animation:aNwdjASm_draw 2000ms linear 862ms forwards;}.aNwdjASm_133{stroke-dasharray:282 284;stroke-dashoffset:283;animation:aNwdjASm_draw 2000ms linear 869ms forwards;}.aNwdjASm_134{stroke-dasharray:3 5;stroke-dashoffset:4;animation:aNwdjASm_draw 2000ms linear 875ms forwards;}.aNwdjASm_135{stroke-dasharray:204 206;stroke-dashoffset:205;animation:aNwdjASm_draw 2000ms linear 882ms forwards;}.aNwdjASm_136{stroke-dasharray:112 114;stroke-dashoffset:113;animation:aNwdjASm_draw 2000ms linear 888ms forwards;}.aNwdjASm_137{stroke-dasharray:23 25;stroke-dashoffset:24;animation:aNwdjASm_draw 2000ms linear 895ms forwards;}.aNwdjASm_138{stroke-dasharray:79 81;stroke-dashoffset:80;animation:aNwdjASm_draw 2000ms linear 901ms forwards;}.aNwdjASm_139{stroke-dasharray:9 11;stroke-dashoffset:10;animation:aNwdjASm_draw 2000ms linear 908ms forwards;}.aNwdjASm_140{stroke-dasharray:42 44;stroke-dashoffset:43;animation:aNwdjASm_draw 2000ms linear 915ms forwards;}.aNwdjASm_141{stroke-dasharray:42 44;stroke-dashoffset:43;animation:aNwdjASm_draw 2000ms linear 921ms forwards;}.aNwdjASm_142{stroke-dasharray:33 35;stroke-dashoffset:34;animation:aNwdjASm_draw 2000ms linear 928ms forwards;}.aNwdjASm_143{stroke-dasharray:18 20;stroke-dashoffset:19;animation:aNwdjASm_draw 2000ms linear 934ms forwards;}.aNwdjASm_144{stroke-dasharray:77 79;stroke-dashoffset:78;animation:aNwdjASm_draw 2000ms linear 941ms forwards;}.aNwdjASm_145{stroke-dasharray:77 79;stroke-dashoffset:78;animation:aNwdjASm_draw 2000ms linear 947ms forwards;}.aNwdjASm_146{stroke-dasharray:70 72;stroke-dashoffset:71;animation:aNwdjASm_draw 2000ms linear 954ms forwards;}.aNwdjASm_147{stroke-dasharray:20 22;stroke-dashoffset:21;animation:aNwdjASm_draw 2000ms linear 960ms forwards;}.aNwdjASm_148{stroke-dasharray:15 17;stroke-dashoffset:16;animation:aNwdjASm_draw 2000ms linear 967ms forwards;}.aNwdjASm_149{stroke-dasharray:267 269;stroke-dashoffset:268;animation:aNwdjASm_draw 2000ms linear 973ms forwards;}.aNwdjASm_150{stroke-dasharray:1015 1017;stroke-dashoffset:1016;animation:aNwdjASm_draw 2000ms linear 980ms forwards;}.aNwdjASm_151{stroke-dasharray:570 572;stroke-dashoffset:571;animation:aNwdjASm_draw 2000ms linear 986ms forwards;}.aNwdjASm_152{stroke-dasharray:478 480;stroke-dashoffset:479;animation:aNwdjASm_draw 2000ms linear 993ms forwards;}.aNwdjASm_153{stroke-dasharray:2672 2674;stroke-dashoffset:2673;animation:aNwdjASm_draw 2000ms linear 1000ms forwards;}@keyframes aNwdjASm_draw{100%{stroke-dashoffset:0;}}@keyframes aNwdjASm_fade{0%{stroke-opacity:1;}94.44444444444444%{stroke-opacity:1;}100%{stroke-opacity:0;}}</style></svg>
