<svg xmlns="http://www.w3.org/2000/svg" xmlns:xlink="http://www.w3.org/1999/xlink" viewBox="0 0 672.96 689.28"><defs><style>.cls-1,.cls-5,.cls-6,.cls-8{fill:none;}.cls-2{opacity:0.6;}.cls-3{clip-path:url(#clip-path);}.cls-4{clip-path:url(#clip-path-2);}.cls-5,.cls-6,.cls-8{stroke-linecap:round;stroke-linejoin:round;}.cls-5,.cls-6{stroke-width:3px;stroke-dasharray: 0 10;}.cls-5{stroke:url(#linear-gradient);}.cls-6{stroke:url(#linear-gradient-2);}.cls-7{fill:#0b160b;}.cls-8{stroke:#00f100;}</style><clipPath id="clip-path" transform="translate(5.31 4.6)"><path class="cls-1" d="M662.52,445.92v0l-4.15-50.55L650.92,346l-9.38-46.83-8.49-44.29-4.32-43.61.63-45.25,3.81-47.74,5.74-50.54,6.36-52.82a.14.14,0,0,0,0-.09v-.1a.35.35,0,0,0,0-.08.36.36,0,0,0,0-.09l-.07-.06-.07-.07-.1,0a.24.24,0,0,0-.09,0h0L602.44,8.44h0L557,4.41h0l-47.8-1.74L461.1.47h-.05L411,3.69h-.15l-50.47,13L313.71,30.84,268.6,28.72l-48.33-10-48.56-4.27h-.08l-45.15,3.54h0l-.11,0L88.48,30.13,56.63,45.07,25.73,56.8l0,0-.09,0a.46.46,0,0,0-.07.07l-.05.07a.36.36,0,0,0,0,.09.32.32,0,0,0,0,.09v.14l6.1,46.31L28,141.41,14.46,174.57,1.92,212a.31.31,0,0,0,0,.13h0L0,256.08v0H0v.11l10.75,46.29v0h0l16.89,43.13,3.57,40.18-8.07,42.54-3.44,42.88v0h0l2.41,40.52.4,41.21-4.11,44.89L11.25,647s0,0,0,.07a.31.31,0,0,0,0,.1.24.24,0,0,0,0,.09.36.36,0,0,0,0,.09l.07.07.07.06a.25.25,0,0,0,.09,0l.07,0,35.8,8.33,38.34,8.18h0L129,667.8h.11l48-4.56h.11l48.58-10.87,44.08-2.6,42.92,15.3h0l.05,0,47.28,14.19.14,0h0l.13,0,44.16-12.81,41.35-10.6,43.3-1.43,45.91,2.78h0l46.54,2.63,47.45,2.77h.08a.45.45,0,0,0,.42-.35l0-.09,3.85-41.78,6.41-41,8.85-41.5,8.93-44.07L662.51,446A.43.43,0,0,0,662.52,445.92Zm-5.77,47.29-51.94-1.92L612,446.18l49.51.23Zm-8.88,44-52.27-3.63,9-41.31,52,1.93ZM639,578.71l-50.5-4.1,6.89-40,52.25,3.63Zm-6.43,41.06-48.13-3.44,3.92-40.73,50.46,4.1Zm-3.9,41.82-46.46-2.72,2.15-41.54,48.08,3.44ZM20.76,470.78l3.36-41.85,38.73.59-.28,40.86Zm7.73-125.73L12,302.83l40-.3,16.27,42.55ZM1.13,256.6l42.93-.2,7.7,45.13-40.14.3Zm14.15-81.33,49.93,5.33L50.9,213.83,3.08,211.7Zm13.57-33.22,43,2.51-6.33,35.07L15.65,174.3ZM632.23,117.7l-40.46-3.47L598,62.52l39.85,5.6Zm-3.83,47.77L586.48,164l5.17-48.81,40.48,3.46Zm-.66,45.3-44.12.06L586.4,165l42,1.44Zm4.4,44.67,8.31,43.34-47.22.19-7.41-43Zm17.68,90.16-47.19,0L593.42,300l47.22-.19ZM583.46,616.27l-46.34-2.68,2-41.55,48.21,3.48ZM403.83,616l-1.17-47.39,42.22-2.07-.22,42.7ZM65.39,511.91l39,1.13L98,560l-35.45-5.25Zm38.29-82,1.95,39.74-42.06.7.27-40.83ZM52.76,301.52l-7.69-45.11,44.61.35,3.48,44.38Zm20.11-157,35.14-4,3.88,43.17-45.37-4Zm509.75,66.27-42.76-.73,4.59-47.92L585.4,165ZM584.81,256l7.41,43-47.13.28-5.92-42.76Zm-23.3,139.19-6.92-48.66,47.2,0L609,395ZM538.25,571l-46.18-2.64L494,526.77l48.41,3.55Zm-267.53-9.69-.31-40.92,42.28,6.76L312.62,572ZM135,568.58l7.1-50.59,35.46,8.14-2.74,48.42Zm6.12-50.77-7.1,50.58L99,560.2l6.4-47.08Zm-34.53-48.16-2-39.72,41.48-.23.89,40.07ZM94.16,301.13l-3.47-44.35,47.13,1.71-2.65,42.2ZM218.33,110l.17,46.75L181.29,168l-6.54-53.9Zm241.18-8.33-.7,48.88L412,148.47l.18-48.58ZM497.4,208l6.16-51.25,39.9,5.32-4.6,48Zm40.77,48.5,5.91,42.76-46.94.39-3.34-43Zm-45.1,269.22-46-2.62,1.75-41.57,48.74,3.65ZM360,531l-.84-48.56,42-3.65-.36,42.5Zm-181.26-5.72,6.74-50.47,36.21,7.83-.7,45.79ZM148,469.83l-.9-40.14,41.78-.62-4.36,44.6ZM136.17,300.68l2.64-42.13L188.63,263l-10.08,37.34Zm15.93-77.4-1.83-41.63,30.21-12.36,10,52.92ZM456.38,202.9l3.39-51.28,42.8,5-6.16,51.28Zm36.42,53.71,3.34,43-46.41.52.67-44.69ZM447.92,480.46l-45.75-2.67,1.53-41.48L453,440.05Zm-258-51.36,37.78,2.44-6,50.1-36.17-7.82ZM179.59,300.36l10.06-37.28,42.13,1.44-6.66,36.68Zm86-95.49.15,46.59-33,11.91-9.4-53.29ZM402.8,435.25,358,433.44l.64-42.31L409,394.65Zm-88.92-.85.19-44.58,43.58,1.26L357,433.43Zm-81.07-170,33-11.92L273,304.73l-46.87-3.48ZM408,251l-5,49.42-41.29-3.11,1.08-49.55Zm-46.33,94.38V298.27L403,301.39l5.85,44Zm-4,44.73-43.61-1.26.41-42.52,46.15.05Zm-43.2-44.78L314,301.18l46.71-2.92,0,47.09Zm46.18-48L314,300.17l.09-43.56,47.71-8.82Zm-47.72,3L274,304.73l-7.18-52.36L313,256.65Zm-38.88,5.46L313,301.27l.54,44-39.83,0Zm39.42,40.58-.41,42.49L272,387.54l1.65-41.27Zm-41.56,42.24,41.14,1.25-.19,44.65-45,2.55ZM409,393.66l-50.34-3.53,2.95-43.78,47.24,0Zm.79-48.27-5.84-44,44.82-.24L457,345.43Zm38.91-45.21-44.77.24,5-49.36,40.42,4.36ZM408.07,250l-45.31-3.25-.2-47.45,47.76.43Zm-46.51-50.56.2,47.35L314,255.59l0-43.87ZM313,255.65l-46.29-4.29-.14-46.48,46.48,6.88Zm-40,50.08-.41,39.54-39.91,0-6.62-43Zm-.43,40.54L271,387.52,230.7,387l2.1-40.81Zm-42,41.77,40.28.48-4.08,48.42-38.07-6.28Zm-2,43.62,38.12,6.28,1.46,40.93-45.56,2.84Zm40.58,47.2L267.81,438l45.06-2.55-.11,44.83Zm44.6-43.46,43.14-1,1.08,47.05-44.33-1.18Zm45.22,46.05-1.08-47,44.7,1.81-1.54,41.55Zm94.09-42.39-49.38-3.75,6.15-40.6,51.45,1.47ZM410,393.71l-.15-47.32,47.26,0,4.32,48.75Zm48-48.28-8.2-44.26,46.46-.52,8.92,44.82Zm-8.53-91-40.41-4.35,2.25-50.3,44,4Zm5.91-51.63-44-4,.68-49.3,46.74,2.07Zm-45-4.07-47.8-.44L362,152.92l49-3.44ZM361,153.12l.52,45.27-47.46,12.3,0-44Zm-47.94,57.63-46.48-6.88.77-43.55,45.75,6.47Zm-47.48-6.89-42.37,5.23-3.7-51.44,46.85,2.56Zm-47.07-46.08,3.71,51.55L191.45,222l-10-53Zm-27,65.25,30.84-12.68,9.38,53.17-42-1.43Zm33.56,79.17,6.63,43-39.87,0L179.6,301.36Zm6.69,44L229.7,387l-40.41-.16L192,346.19ZM229.65,388l-1.87,42.52L190,428.1l-.69-40.23Zm-7,94.68,45.66-2.84,1.09,39.5-47.45,9Zm47.75,36.65-1.09-39.51,43.46,1.42-.07,44.85Zm43.37-38.06,44.35,1.17.84,48.61-45.26-4.83Zm88.39-2.51,45.68,2.67L446.08,523l-44.29-1.83Zm95.57,5.39-48.8-3.65,5.1-40.41,52.23,3.31Zm8.7-41.74-52.24-3.31,8.24-42.94,49.18.14Zm-44-47.24-4.32-48.77,47.22,0,6.23,48.86Zm43.75-49.72-8.93-44.84,47-.39,9.16,45.27Zm-13.4-89.87-42.34-1.12,5.82-50.6,40,5Zm50.75-94.54-39.9-5.32,4-51.71,42.1,5.45Zm-40.89-5.45-42.86-5,.7-48.92,46.2,2.25ZM411,148.48l-49,3.44-.45-44.43,49.65-7.55Zm-50.47-40.75.45,44.35-46.89,13.61.05-44Zm-47.44,58.05-45.73-6.47.71-42.55,45.07,5Zm-46.73-6.56-46.9-2.58L219.33,110l47.78,6.62Zm-92.63-44.91,6.55,54-30.19,12.35L140,127.93Zm-34.76,14,10.16,52.55-36.28,2.83L109,140.28ZM112.82,184.7l36.46-2.84,1.82,41.37-48.28-5.07ZM152,224.28l38.57-1.08L188.79,262l-49.74-4.46Zm26.59,77.07,12.27,43.84-39.82,0-14.68-43.48ZM191,346.19l-2.66,40.67-38.37-.58,1.22-40.12Zm-41.07,41.09,38.39.58.69,40.21-41.79.62ZM148,470.82l36.46,3.84-6.74,50.47L142.27,517Zm30.61,55.46L221,529.45l1.51,41.18-46.6,4Zm44.86,44.21-1.5-41.1,47.46-9,.31,40.88Zm90.24-43.23L359,532.09l.46,48.5-45.81-8.36Zm46.74,53.26L360,532l40.84-9.71.85,45.42Zm42.21-12.93-.84-45.38L446,524l-1.14,41.49Zm44.4-43.5L493,526.7l-1.92,41.58-45.17-2.74Zm95.5,5.24-48.47-3.56,4.49-40.52,51.68,3.95Zm7.9-41.12-51.71-3.95,8.53-40.77,51.84,1.79Zm8.78-43.93-51.81-1.79,5.19-46.16,48-.15ZM512.6,395.33l-6.23-48.85,47.21,0,6.93,48.66Zm41.82-49.81-9.16-45.27L592.4,300l9.21,45.59Zm-16.3-90-44.32.13L497.31,209l41.49,2.08ZM585.49,164l-40.93-2.81,6.25-51.55,39.85,5.49Zm5.28-49.86-39.86-5.5,4.45-51.91L597,62.38Zm-40.85-5.63L507.76,103,509,53.57l45.33,3ZM506.77,103l-46.24-2.25.7-49.32,46.82,2.13Zm-47.24-2.29L412.22,98.9l-.29-47.2,48.3-.34Zm-48.6-48.84.29,47.12-49.66,7.55-.33-44Zm-50.7,10.89.33,44-46.38,14,.05-44Zm-47.05,58.08-45.06-5,.51-42.43,44.6,3.48Zm-46.06-5.17L219.33,109l.57-44.72,47.73,8.91ZM218.33,109l-43.66,4.07-2.28-49.9,46.51,1ZM171.4,63.26l2.28,50-33.9,13.65-8.21-54.76ZM130.61,72.5l8.22,54.81-30,12L98.63,86.9ZM66.25,180.71l45.54,3.95-10,33.4L52,213.91Zm36.27,38.42,48.4,5.09L138,257.49l-47.19-1.7Zm32.76,82.55L150,345.16l-39.79,0-15.76-43Zm14.86,44.48-1.22,40.1-38-.43-.57-39.71Zm-39.31,40.67,38,.43-2.7,41.44-41.43.23Zm-4.19,83.82,40.34.12-5.69,46.05-35.84-4.7Zm-44.2,85.1L97.85,561l-7.29,50.58-34.91-8.16Zm36.39,5.44,35.11,8.19-4.12,49.7-38.28-7.29Zm36.1,8.38,39.9,6,.24,44.38-44.26-.74Zm41.14,50.28-.24-44.27,46.67-4L224.09,611Zm49-9-1.6-39.38,46.23-9.21-.07,42.27Zm45.63-48.55L312.62,573l-.07,44.89-41.9-13.31Zm42.9,10.92,45.82,8.36.21,47.92-46.1-11.31Zm47,56.24-.21-47.93,41.23-12.78,1.16,47.42Zm85.23-63L491,569.28l-1.34,41.53-44-1.64ZM492,569.34,538.18,572l-2.06,41.56-45.43-2.67Zm95.49,5.19L539.25,571l4.14-40.64,51,4.11Zm7.08-41-51.06-4.11,7.71-40.14,52.37,3Zm9.21-42.28-52.37-3,8.66-43,50.85.86Zm-43.59-46.93,1.34-48.13,47.52-.15L611,445.17ZM610,395l-7.19-48.47,47.2,0,7.3,48.3ZM539.11,255.49l.69-44.4,42.81.73,2.1,43.17Zm58-194.11-41.71-5.67,2.05-50.26,44.38,3.94Zm-42.7-5.77-45.37-3,.62-48.87,46.79,1.7Zm-46.36-3.1-46.82-2.13.33-48.89,47.1,2.16Zm-47.82-2.15-48.33.34-.49-46.05L460.58,1.5Zm-49.33.44-49.7,10.62L361,17.56,410.43,4.82Zm-50.7,10.87-46,14,0-44L360,17.85Zm-47,14.13-44.59-3.48L269,29.73l44.27,2.09Zm-45.59-3.63-47.72-8.9.8-43.48L268,29.61Zm-48.72-9-46.55-1-.2-46.71,47.55,4.19Zm-47.55-.93-39.92,8.92L127.06,18.9l44.11-3.47Zm-40.89,9.22-32,14.42L89.26,30.93l36.81-11.82Zm-33,14.83L67.55,97.92,57.37,45.83,88.31,31.31Zm.19,1,10.18,52.23-35,4L67.72,98.93Zm-46,127.59L101.5,219,89.78,255.76l-44.71-.35Zm1.41,87.64,40.3-.38,15.75,43-39.77,0Zm56.28,43.6.58,39.7-38.23-.28-2.17-39.45Zm-37.7,40.42,38.2.28-6.09,42.1L64,428.54Zm34,84.12L104.46,512,65.4,510.91l-1.81-39.55Zm-44.09,84-38-2-.39-40.29,41.25-.42Zm-38.07-1,38,2-6.77,47.58-35.22-5.64Zm32,50.81,34.92,8.16L85.38,663,48.1,655Zm35.91,8.36,38.34,7.3-1.19,46.68-42.2-3.66Zm39.34,7.4,44.33.74,1.48,41.37-47,4.48Zm45.33.67,48-8.8,1.11,39.42-47.67,10.66Zm49-9,44.53-6.32-.22,43.22-43.19,2.55Zm45.53-6.22L312.55,619l-.07,44.91-42.05-15Zm42.9,13.58,46.11,11.31.09,47.55-46.27-13.88Zm47.11,11.29,42.2-13.3,1.06,48.36-43.17,12.52ZM403.85,617l40.82-6.75.65,44.74-40.41,10.35Zm41.82-6.82,44,1.64-.93,41.63-42.42,1.41Zm45,1.69,45.41,2.67-1.42,41.65-44.92-2.72Zm46.41,2.73,46.31,2.68-2.16,41.54-45.57-2.57ZM612,445.18,610.08,396l47.34-.13,4.06,49.51Zm20-190.74-46.29.54-2.1-43.15,44.16-.06Zm6-187.31-39.85-5.61,4.71-52,41.38,5.8ZM26.46,57.59l30-11.37,10.16,52-34.14,4.88Zm6,46.48,34.26-4.9,5.14,44.4-42.81-2.51ZM2.87,212.69l47.77,2.13L44.05,255.4l-43,.2ZM28.7,346.05l39.81,0,2.17,39.46-38.49-.17Zm3.45,40.32,38.46.17-7.66,42-38.69-.59ZM20.74,471.78l41.85-.4L64.4,510.9l-41.3.42Zm-1.41,126.8,35.2,5.64-7.41,50.55-34.82-8.1Z"/></clipPath><clipPath id="clip-path-2" transform="translate(5.31 4.6)"><rect class="cls-1" x="-5" y="-4.53" width="672.52" height="688.82"/></clipPath><linearGradient id="linear-gradient" x1="19.46" y1="379.54" x2="664.23" y2="379.54" gradientUnits="userSpaceOnUse"><stop offset="0" stop-color="#010c04" stop-opacity="0"/><stop offset="0.02" stop-color="#013503" stop-opacity="0.18"/><stop offset="0.04" stop-color="#015c03" stop-opacity="0.35"/><stop offset="0.07" stop-color="#008002" stop-opacity="0.51"/><stop offset="0.09" stop-color="#009f01" stop-opacity="0.64"/><stop offset="0.12" stop-color="#00b901" stop-opacity="0.75"/><stop offset="0.16" stop-color="#00cd01" stop-opacity="0.84"/><stop offset="0.2" stop-color="#00de00" stop-opacity="0.91"/><stop offset="0.24" stop-color="#00e900" stop-opacity="0.96"/><stop offset="0.31" stop-color="#00ef00" stop-opacity="0.99"/><stop offset="0.5" stop-color="#00f100"/><stop offset="0.69" stop-color="#00ef00" stop-opacity="0.99"/><stop offset="0.76" stop-color="#00e900" stop-opacity="0.96"/><stop offset="0.8" stop-color="#00de00" stop-opacity="0.91"/><stop offset="0.84" stop-color="#00cd01" stop-opacity="0.84"/><stop offset="0.88" stop-color="#00b901" stop-opacity="0.75"/><stop offset="0.91" stop-color="#009f01" stop-opacity="0.64"/><stop offset="0.93" stop-color="#008002" stop-opacity="0.51"/><stop offset="0.96" stop-color="#015c03" stop-opacity="0.35"/><stop offset="0.98" stop-color="#013503" stop-opacity="0.18"/><stop offset="1" stop-color="#010c04" stop-opacity="0"/></linearGradient><linearGradient id="linear-gradient-2" x1="373.23" y1="311.82" x2="373.23" y2="4.6" gradientUnits="userSpaceOnUse"><stop offset="0.41" stop-color="#00f100"/><stop offset="0.63" stop-color="#00ef00" stop-opacity="0.99"/><stop offset="0.71" stop-color="#00e900" stop-opacity="0.96"/><stop offset="0.77" stop-color="#00de00" stop-opacity="0.91"/><stop offset="0.82" stop-color="#00cd01" stop-opacity="0.84"/><stop offset="0.86" stop-color="#00b901" stop-opacity="0.75"/><stop offset="0.89" stop-color="#009f01" stop-opacity="0.64"/><stop offset="0.92" stop-color="#008002" stop-opacity="0.51"/><stop offset="0.95" stop-color="#015c03" stop-opacity="0.35"/><stop offset="0.98" stop-color="#013503" stop-opacity="0.18"/><stop offset="1" stop-color="#010c04" stop-opacity="0"/></linearGradient><radialGradient xmlns="http://www.w3.org/2000/svg" id="g166" gradientUnits="userSpaceOnUse" cx="50%" cy="50%" r="100%">
<stop stop-color="#00F100" offset="0"/><stop stop-color="#010C04" stop-opacity="0" offset="0.7"/>
</radialGradient></defs><g id="Layer_2" data-name="Layer 2"><g id="pod_IMG" data-name="pod IMG"><g class="cls-2"><g class="cls-3">
<rect xmlns="http://www.w3.org/2000/svg" width="100%" height="100%" style="fill: url(#g166);"/>
</g></g></g><g id="IMG"><polyline class="cls-5" points="20.96 178.9 70.83 184.23 118.2 188.29 106.81 223.64 130.4 225.6 169.07 227.42 196.86 227.63 228.55 213.69 237.09 269.12 230.42 306.8 238.11 350.83 234.96 392.63 276.24 393.12 363.88 395.73 362.32 439.03 318.18 440.04 272.12 442.54 233.01 436.14 194.23 433.67 152.48 433.29 152.29 475.37 142.03 552.58 139.84 567.79 154.88 574.17 168.67 577.42 181.14 580.18 227.77 575.23 275.03 565.87 274.72 524.99 318 531.73 365.26 535.61 406.11 526.92 498.38 530.3 527.29 532.78 547.71 534.92 550.53 519.35 556.75 492.88 565.53 448.91 617.33 449.78 615.39 400.62 662.73 400.5"/><polyline class="cls-6" points="465.89 6.1 465.56 54.95 513.38 57.11 512.08 107.55 509.92 135.51 504.46 192.87 501.62 213.49 499.11 260.21 455.78 259.08 414.38 254.66 409.27 305.02 365.98 301.86 318.26 305.86 278.38 310.32 233.09 307.12"/><polygon class="cls-7" points="132.71 203.85 154.34 197.66 181.96 213.75 173.33 248.1 150.55 249.8 122.78 236.88 132.71 203.85"/><path id="Cube_4" data-name="Cube 4" class="cls-8" d="M149,193.06,144,210.7,138.72,229m-11.26,1.64,5.23-17.51,5-16.87m16.12,40.21,4.81-17.91,4.62-17.24m13.38,7.8-13.38-7.8L149,193.06l-11.31,3.24-10.32,2.95-5,16.16-5.17,16.76m59.41-23L172.42,226,168,243.5m0,0-14.18-7L138.72,229l-11.26,1.64-10.22,1.49m10.22-1.49,14.77,7.07,13.89,6.64,11.9-.89m-50.78-11.33,14.41,6.71,10.58-1.13,11.61-1.24m-22.19,2.37,13.59,6.32,10.88-.81M172.42,226l-13.77-7.41L144,210.7l-11.29,2.47-10.28,2.24" transform="translate(5.31 4.6)"/><polygon class="cls-7" points="130.33 548.49 106.81 557.17 111.74 601.65 151.95 604.98 171.92 591.55 168.76 548.6 130.33 548.49"/><path id="Cube_5" data-name="Cube 5" class="cls-8" d="M146.64,600.38l-2-23.23-2.07-23.91m14.56,40.1-1.77-22.17-1.81-22.78M126,598.67l-2.24-22.57-2.3-23.2m-15,44.15L104,575.11l-2.5-22.53M163.45,544l1.6,21.76L166.61,587m-45.2-34.05,21.15.34,11-4.85m-52,4.19,19.91.32,11.7-4.7,20.43.19,9.91-4.39m-49.63,4,19.29.17,10.6-4.25m19.74,0-19.74,0L125,543.89,113.82,548l-12.32,4.55m4.93,44.47L126,598.67l20.69,1.71,10.48-7,9.49-6.39M104,575.11l19.71,1,20.92,1,10.72-6,9.7-5.41" transform="translate(5.31 4.6)"/><polygon class="cls-7" points="531.51 521.02 546.63 516.7 565.94 527.95 559.91 551.96 543.98 553.15 524.56 544.12 531.51 521.02"/><path id="Cube_4-2" data-name="Cube 4" class="cls-8" d="M541.32,512.1l-3.53,12.33-3.68,12.83m-7.87,1.14,3.65-12.25,3.52-11.79m11.27,28.11L548,530l3.23-12.05m9.36,5.45-9.36-5.45-9.95-5.8-7.91,2.26-7.21,2.07-3.49,11.3-3.62,11.71m41.54-16.09-3,11.78-3.07,12.23m0,0-9.92-4.89-10.57-5.21-7.87,1.14-7.15,1m7.15-1,10.32,4.94,9.71,4.64,8.33-.62m-35.51-7.92,10.08,4.69,7.39-.79,8.12-.87m-15.51,1.66,9.5,4.42,7.6-.57m11.4-12.85L548,530l-10.25-5.52-7.9,1.72-7.18,1.58" transform="translate(5.31 4.6)"/><polygon class="cls-7" points="516.81 131.28 543.07 151.8 534.52 183.94 503.8 196.34 480.05 172.96 484.86 140.04 516.81 131.28"/><path id="Cube_1" data-name="Cube 1" class="cls-8" d="M501.83,175.54l3.58-17.41m-6.92,33.62,15.88-6.41,3.76-15.87,4-17m0,0-13.5-11.15L492,146.38m0,0-3,17.22-2.8,16.07,12.27,12.08m3.34-16.21,16.3-6.07,15.21-5.67,4.42-16.6m0,0L524.2,136.6l-12.7-9.92-15.44,4.24-16.51,4.52m0,0L492,146.38l13.39,11.75,16.76-5.66,15.59-5.27m-39.27,44.55,3.34-16.21L489,163.6l-12-11.15,2.49-17m16.51-4.52,12.61,10.4,15.53-4.72m-47.14,15.85-2.32,15.91,11.48,11.31m28.15,5.67,14.84-6,4.13-15.54" transform="translate(5.31 4.6)"/><polygon class="cls-7" points="368.73 362.31 389.17 378.28 382.51 403.3 358.6 412.96 340.11 394.76 343.85 369.13 368.73 362.31"/><path id="Cube_1-2" data-name="Cube 1" class="cls-8" d="M355.89,395.74l2.79-13.55m-5.39,26.17,12.36-5L368.58,391l3.14-13.23m0,0-10.51-8.68-13,3.94m0,0-2.33,13.4L343.74,399l9.55,9.4m2.6-12.62L368.58,391l11.84-4.41,3.44-12.93m0,0-10.56-8.25-9.88-7.72-12,3.3-12.86,3.52m0,0,9.71,8.52,10.43,9.14,13-4.4,12.14-4.11m-30.57,34.68,2.6-12.62-10-9.29-9.31-8.68,1.93-13.24M351.4,361l9.81,8.1,12.09-3.68m-36.69,12.34-1.81,12.39,8.94,8.8m21.91,4.41,11.55-4.67,3.22-12.09" transform="translate(5.31 4.6)"/></g></g></svg>