<svg width="1920" height="341" viewBox="0 0 1920 341" fill="none" xmlns="http://www.w3.org/2000/svg">
<g clip-path="url(#clip0_644_409)">
<path d="M877.469 225.982L953.835 224.47L1028.14 225.475" stroke="#00FF00" stroke-width="0.939319" stroke-linecap="round" stroke-linejoin="round"/>
<path d="M487.04 331.58L561.847 330.575L636.627 326.733L710.654 324.329L783.132 327.588L790.957 334.192L804.032 340.269L821.87 345.679L843.906 350.338L869.549 354.124L894.77 355.89L898.978 356.181L903.449 356.491L905.882 356.66" stroke="#00FF00" stroke-width="0.939319" stroke-linecap="round" stroke-linejoin="round"/>
<path d="M502.341 349.596L575.936 345.67L649.044 338.898L720.967 333.656L790.956 334.192L825.673 339.602L858.239 344.665" stroke="#00FF00" stroke-width="0.939319" stroke-linecap="round" stroke-linejoin="round"/>
<path d="M487.538 313.649L561.012 315.443L634.927 314.466L708.56 314.879L781.103 320.844L818.667 329.185L851.693 336.512L853.243 340.645L858.24 344.665L866.337 348.347L867.709 348.751L873.504 350.498L874.321 350.742L874.866 350.902L877.214 351.607L879.45 352.076L886.072 353.466L890.515 354.406L894.188 354.941L903.337 356.294L905.882 356.66L913.237 357.383L920.16 358.06L922.067 358.247" stroke="#00FF00" stroke-width="0.939319" stroke-linecap="round" stroke-linejoin="round"/>
<path d="M1132.49 313.17L1064.19 331.787L1042.63 345.811L1037.98 352.217" stroke="#00FF00" stroke-width="0.939319" stroke-linecap="round" stroke-linejoin="round"/>
<path d="M532.943 366.551L602.669 359.788L671.53 350.207L738.87 342.27L804.031 340.269L837.114 344.552L862.128 347.802L866.336 348.347" stroke="#00FF00" stroke-width="0.939319" stroke-linecap="round" stroke-linejoin="round"/>
<path d="M529.947 281.392L594.732 288.005L660.663 292.016L727.11 297.417L793.332 308.276L858.512 328.753L879.158 343.359L885.31 340.541L893.52 337.986L903.589 335.77" stroke="#00FF00" stroke-width="0.939319" stroke-linecap="round" stroke-linejoin="round"/>
<path d="M671.38 244.797L734.051 236.352L802.95 230.021L877.466 225.982L889.114 240.119L954.594 238.804L1018.34 239.677L1028.14 225.475L1099.68 228.838L1167.59 234.436" stroke="#00FF00" stroke-width="0.939319" stroke-linecap="round" stroke-linejoin="round"/>
<path d="M568.188 267.462L626.388 276.057L685.903 282.153L746.188 289.677L806.587 302.668L866.327 325.259L876.707 322.112L889.397 319.378L904.172 317.124L920.789 315.415" stroke="#00FF00" stroke-width="0.939319" stroke-linecap="round" stroke-linejoin="round"/>
<path d="M615.754 255.214L666.233 265.499L713.227 256.482L766.496 249.155L825.316 243.641L889.114 240.119L901.213 252.208L913.659 265.95L956.219 265.067L997.653 265.649L1037.4 267.613L1074.82 270.872L1109.28 275.353L1140.06 280.989L1190.58 271.126L1240.17 262.766L1288.38 252.048" stroke="#00FF00" stroke-width="0.939319" stroke-linecap="round" stroke-linejoin="round"/>
<path d="M734.052 236.352L766.496 249.155L800.058 259.779L848.508 255.167L901.213 252.208L955.393 251.099L1008.14 251.832L1058.78 254.293L1079.61 242.608L1099.68 228.838" stroke="#00FF00" stroke-width="0.939319" stroke-linecap="round" stroke-linejoin="round"/>
<path d="M994.958 358.37L997.193 358.229L998.903 358.116L1002.36 357.9L1012.18 357.271L1027.02 356.331L1056.2 365.292L1097.18 360.765L1140.47 374.723L1185.3 390.682L1231.27 404.002L1299.12 391.95L1353.79 377.813L1394.53 362.155L1420.86 345.482L1432.53 328.255L1429.45 310.906L1411.59 293.773L1342.48 298.573L1272.45 300.695L1202.19 304.19L1187.41 295.463L1122.41 306.867L1058.37 327.87L1049.7 324.357L1038.55 321.285L1025.3 318.693L1010.28 316.607L993.821 315.086L976.265 314.165L957.902 313.893L939.04 314.306L920.789 315.415L896.517 287.01L872.32 268.308L834.447 271.98L800.059 259.779L756.38 265.903L713.228 256.482L671.381 244.797L615.755 255.214L568.188 267.462L529.948 281.392L502.492 296.844L487.538 313.649L487.04 331.58L502.342 349.596L532.945 366.551L577.966 382.031L636.204 395.595L706.155 406.801L785.959 415.198L873.401 420.365L888.11 404.058L902.369 385.234L916.064 368.627L929.083 358.633L934.654 358.717L946.404 358.905L958.4 359.093L961.593 359.149L970.075 358.952L981.347 358.689L992.102 358.435H992.356L994.958 358.37ZM994.958 358.37L1010.38 368.251L1026.6 384.727L1086.82 380.772L1140.47 374.723L1186.62 366.899L1242.27 380.782L1299.12 391.95" stroke="#00FF00" stroke-width="0.939319" stroke-linecap="round" stroke-linejoin="round"/>
<path d="M802.952 230.021L825.317 243.641L848.509 255.167L872.321 268.308L913.66 265.95" stroke="#00FF00" stroke-width="0.939319" stroke-linecap="round" stroke-linejoin="round"/>
<path d="M1058.37 327.87L1038.07 342.655L1030.65 353.758L1030.58 353.851" stroke="#00FF00" stroke-width="0.939319" stroke-linecap="round" stroke-linejoin="round"/>
<path d="M1011.88 335.215L1002.46 357.656" stroke="#00FF00" stroke-width="0.939319" stroke-linecap="round" stroke-linejoin="round"/>
<path d="M903.336 356.294L893.52 337.986L876.706 322.112L823.945 297.643L806.586 302.668L793.332 308.276L784.672 314.372L714.317 305.852L643.323 302.837L572.48 301.193L502.491 296.844" stroke="#00FF00" stroke-width="0.939319" stroke-linecap="round" stroke-linejoin="round"/>
<path d="M1031.23 339.809L1022.04 355.232" stroke="#00FF00" stroke-width="0.939319" stroke-linecap="round" stroke-linejoin="round"/>
<path d="M999.522 357.975L1002.46 357.656L1012.55 356.557L1016.72 356.106L1021.75 355.73L1023.33 355.608L1029.73 355.129L1055.82 353.185L1080.88 349.099L1132.65 354.885L1162.01 347.906L1184.76 340.043L1253.47 347.286L1273.08 336.127L1282.97 324.47L1282.84 312.578L1272.45 300.695L1252.54 289.527L1224.84 279.655L1190.58 271.126L1150.85 264.024L1106.62 258.389L1058.78 254.293L1037.4 267.613L1015.65 286.502L986.982 285.046L957.056 284.614L926.321 285.272L896.517 287.01L869.295 289.724L834.437 271.98L800.453 276.846L770.845 282.783L718.084 273.408L685.903 282.153L660.663 292.016L643.323 302.837L634.926 314.466L636.626 326.733L649.044 338.898L671.531 350.207L703.289 360.417L743.398 369.275L790.787 376.527L844.234 381.928L902.369 385.234L963.687 386.23L1026.6 384.727L1043.48 403.41L1060.9 419.576L1151.36 413.395L1231.27 404.002" stroke="#00FF00" stroke-width="0.939319" stroke-linecap="round" stroke-linejoin="round"/>
<path d="M1016.72 356.106L1022.04 355.242L1030.59 353.851L1031.76 353.654L1037.07 353.166L1037.3 353.147L1041.77 352.724L1043.69 352.546L1046.4 352.302L1080.88 349.098L1101.79 344.223L1118.19 338.7L1184.76 340.043L1200.48 331.533L1208.82 322.591L1282.97 324.47L1357.79 327.776L1432.53 328.255" stroke="#00FF00" stroke-width="0.939319" stroke-linecap="round" stroke-linejoin="round"/>
<path d="M1031.76 353.654L1037.98 352.217L1043.07 351.043L1044.13 350.799L1044.41 350.724L1045.31 350.432L1049.71 348.967L1054.44 347.398L1058.3 346.872L1085.2 343.209L1118.19 338.7L1129.74 332.698L1200.48 331.533L1273.08 336.136L1346.79 342.232L1420.86 345.482" stroke="#00FF00" stroke-width="0.939319" stroke-linecap="round" stroke-linejoin="round"/>
<path d="M1011.88 335.215L1022.41 337.319L1031.24 339.809L1049.7 324.357L1107.76 301.231L1166.39 287.714L1224.84 279.655L1282.48 273.032L1338.76 263.94L1380.43 277.861L1411.59 293.773" stroke="#00FF00" stroke-width="0.939319" stroke-linecap="round" stroke-linejoin="round"/>
<path d="M1209.49 313.414L1208.82 322.591" stroke="#00FF00" stroke-width="0.939319" stroke-linecap="round" stroke-linejoin="round"/>
<path d="M1054.44 347.398L1061.64 343.763L1065.78 339.893L1068.81 339.311L1100.68 333.177L1136.15 326.358L1208.82 322.591" stroke="#00FF00" stroke-width="0.939319" stroke-linecap="round" stroke-linejoin="round"/>
<path d="M1031.24 339.809L1038.07 342.655L1042.63 345.811L1044.54 349.108L1044.14 350.761L1044.13 350.799" stroke="#00FF00" stroke-width="0.939319" stroke-linecap="round" stroke-linejoin="round"/>
<path d="M992.356 358.435L994.808 358.276L998.396 358.05L999.523 357.975L1002.4 357.806L1012.21 357.214L1027.03 356.331L1029.08 356.106L1055.82 353.185L1097.18 360.765L1132.65 354.885L1186.62 366.899L1224.48 357.646L1253.47 347.286L1323.62 356.134L1346.79 342.232L1357.79 327.776L1356.4 313.123L1342.48 298.573L1317.09 284.981L1282.47 273.033L1240.17 262.766L1191.5 254.237L1150.85 264.024L1109.28 275.353L1067.26 292.204L1025.3 318.693L1011.88 335.215L999.937 333.525L986.824 332.285L972.818 331.543L958.174 331.317L943.136 331.655L928.577 332.557L915.342 333.947L903.591 335.77L889.398 319.378L844.977 293.294L800.453 276.846L756.381 265.903L718.085 273.408L666.225 265.499L626.388 276.057L594.733 288.005L572.481 301.193L561.012 315.443L561.848 330.566L575.937 345.67L602.671 359.788L641.183 372.61L690.403 383.788L749.035 392.983L815.52 399.841L844.235 381.928L871.86 366.157L916.065 368.627L962.617 369.369L1010.38 368.251L1056.2 365.292L1086.82 380.772L1118.63 398.375L1185.29 390.682L1242.27 380.782L1288.61 369.125L1323.62 356.134L1394.53 362.155" stroke="#00FF00" stroke-width="0.939319" stroke-linecap="round" stroke-linejoin="round"/>
<path d="M783.132 327.588L781.104 320.844L784.673 314.372" stroke="#00FF00" stroke-width="0.939319" stroke-linecap="round" stroke-linejoin="round"/>
<path d="M1058.37 327.87L1064.19 331.787L1066.7 335.873L1065.78 339.893L1057.84 344.374L1051.87 347.755L1049.71 348.967" stroke="#00FF00" stroke-width="0.939319" stroke-linecap="round" stroke-linejoin="round"/>
<path d="M851.692 336.512L853.543 332.529L858.512 328.753L866.327 325.259" stroke="#00FF00" stroke-width="0.939319" stroke-linecap="round" stroke-linejoin="round"/>
<path d="M958.399 359.093L958.38 355.326L958.174 331.317L957.901 313.893L957.056 284.614L956.22 265.067L955.393 251.099L954.595 238.804L953.834 224.47" stroke="#00FF00" stroke-width="0.939319" stroke-linecap="round" stroke-linejoin="round"/>
<path d="M970.076 358.952L970.302 355.514L972.819 331.543L976.266 314.165L986.984 285.046L997.655 265.649L1008.14 251.832L1018.34 239.677L1079.61 242.608L1137.63 247.492L1191.5 254.237L1230.88 242.195" stroke="#00FF00" stroke-width="0.939319" stroke-linecap="round" stroke-linejoin="round"/>
<path d="M946.404 358.905L946.131 355.608L943.135 331.655L939.04 314.306L926.321 285.272L913.659 265.95" stroke="#00FF00" stroke-width="0.939319" stroke-linecap="round" stroke-linejoin="round"/>
<path d="M981.347 358.689L981.704 356.134L986.823 332.285L993.821 315.086L1015.65 286.502L1042.57 288.907L1067.26 292.204L1089.18 296.328L1107.76 301.231L1122.41 306.867L1132.49 313.17L1202.19 304.19L1209.49 313.414L1282.84 312.578L1356.4 313.123L1429.45 310.906" stroke="#00FF00" stroke-width="0.939319" stroke-linecap="round" stroke-linejoin="round"/>
<path d="M934.652 358.717L934.286 356.359L928.575 332.557L920.788 315.415" stroke="#00FF00" stroke-width="0.939319" stroke-linecap="round" stroke-linejoin="round"/>
<path d="M874.865 350.902L873.879 349.625L873.222 349.239L861.189 342.129L851.692 336.512" stroke="#00FF00" stroke-width="0.939319" stroke-linecap="round" stroke-linejoin="round"/>
<path d="M992.104 358.435L992.366 357.167L999.937 333.525L1010.28 316.607L1042.57 288.907L1074.82 270.872L1106.63 258.389L1137.63 247.492L1167.6 234.436L1230.88 242.195L1288.38 252.048L1338.76 263.94" stroke="#00FF00" stroke-width="0.939319" stroke-linecap="round" stroke-linejoin="round"/>
<path d="M1061.64 343.763L1065.03 343.209L1070.64 342.298L1095.58 338.249L1129.74 332.698L1136.15 326.358L1137.15 319.801L1132.49 313.17" stroke="#00FF00" stroke-width="0.939319" stroke-linecap="round" stroke-linejoin="round"/>
<path d="M1012.55 356.557L1012.63 356.406L1022.41 337.319L1038.55 321.285L1089.18 296.328L1140.06 280.989L1166.39 287.714L1187.41 295.463L1252.54 289.527L1317.09 284.981L1380.43 277.861" stroke="#00FF00" stroke-width="0.939319" stroke-linecap="round" stroke-linejoin="round"/>
<path d="M913.238 357.383L913.144 357.167L903.591 335.77" stroke="#00FF00" stroke-width="0.939319" stroke-linecap="round" stroke-linejoin="round"/>
<path d="M894.186 354.941L894.045 354.706L885.31 340.541L866.326 325.259" stroke="#00FF00" stroke-width="0.939319" stroke-linecap="round" stroke-linejoin="round"/>
<path d="M879.451 352.076L879.263 351.832L875.281 346.412L853.545 332.529L784.674 314.372" stroke="#00FF00" stroke-width="0.939319" stroke-linecap="round" stroke-linejoin="round"/>
<path d="M1043.07 351.043L1043.2 350.864L1044.55 349.108L1045.32 348.648L1057.22 341.537L1066.7 335.873L1100.3 328.208L1137.15 319.801L1209.48 313.414" stroke="#00FF00" stroke-width="0.939319" stroke-linecap="round" stroke-linejoin="round"/>
<path d="M929.082 358.633L923.71 358.332L922.066 358.247L919.783 358.116L913.415 357.768L898.169 356.923L871.859 366.157L831.074 362.117L794.713 356.669L763.706 349.991L738.87 342.27L720.967 333.656L710.653 324.329L708.559 314.879L714.317 305.852L727.11 297.417L746.197 289.677L770.845 282.783L823.945 297.643L844.976 293.294L869.295 289.724L904.172 317.124L915.34 333.947L923.522 357.524L923.71 358.332" stroke="#00FF00" stroke-width="0.939319" stroke-linecap="round" stroke-linejoin="round"/>
<path d="M867.709 348.751L867.164 348.45L861.256 345.135L853.244 340.645L844.517 339.02L819.813 334.417L783.133 327.588" stroke="#00FF00" stroke-width="0.939319" stroke-linecap="round" stroke-linejoin="round"/>
</g>
<rect y="-3" width="1920" height="344" fill="url(#paint0_linear_644_409)"/>
<defs>
<linearGradient id="paint0_linear_644_409" x1="960" y1="-3" x2="960" y2="341" gradientUnits="userSpaceOnUse">
<stop offset="0.50226" stop-color="#010C04" stop-opacity="0"/>
<stop offset="0.783515" stop-color="#010C04" stop-opacity="0.5"/>
<stop offset="1" stop-color="#010C04"/>
</linearGradient>
<clipPath id="clip0_644_409">
<rect width="946.429" height="343.396" fill="white" transform="translate(486.57 224)"/>
</clipPath>
</defs>
</svg>
