<svg width="73" height="105" viewBox="0 0 73 105" fill="none" xmlns="http://www.w3.org/2000/svg">
<mask id="path-1-inside-1_843_1925" fill="white">
<path d="M69.4161 47.5826C70.5921 43.5453 71.1886 39.3614 71.1875 35.1563C71.1875 16.0296 55.6267 0.46875 36.5 0.46875C17.3733 0.46875 1.8125 16.0296 1.8125 35.1563C1.81142 39.3614 2.40786 43.5453 3.58395 47.5826C2.56134 47.9368 1.67437 48.6005 1.04613 49.4817C0.417899 50.3629 0.0795759 51.4178 0.078125 52.5V61.1719C0.0834521 63.4733 0.84923 65.7084 2.25633 67.5295C3.66343 69.3507 5.63296 70.6557 7.85853 71.2417L8.28735 78.1033C8.45366 80.6933 9.14461 83.2225 10.3182 85.5373C11.4919 87.8522 13.1237 89.9043 15.1147 91.5692L26.1894 100.798C29.0838 103.21 32.7323 104.531 36.5 104.531C40.2677 104.531 43.9162 103.21 46.8106 100.798L57.8853 91.5694C59.8762 89.9045 61.508 87.8524 62.6816 85.5376C63.8553 83.2228 64.5463 80.6937 64.7126 78.1037L65.1415 71.2421C67.3671 70.6561 69.3367 69.351 70.7438 67.5298C72.1509 65.7086 72.9166 63.4734 72.9219 61.1719V52.5C72.9204 51.4178 72.5821 50.3629 71.9539 49.4817C71.3256 48.6005 70.4387 47.9368 69.4161 47.5826ZM36.5 3.9375C53.7137 3.9375 67.7188 17.9426 67.7188 35.1563C67.72 39.5649 67.0093 43.9447 65.6141 48.1268L65.169 49.462L63.7566 35.3375C63.382 31.4815 61.5825 27.9039 58.71 25.3044C55.8376 22.7048 52.0987 21.2703 48.2246 21.2813H24.7754C20.9013 21.2703 17.1624 22.7048 14.29 25.3044C11.4175 27.9039 9.618 31.4815 9.24343 35.3375L7.831 49.462L7.38591 48.1268C5.99074 43.9447 5.28004 39.5649 5.28125 35.1563C5.28125 17.9426 19.2863 3.9375 36.5 3.9375ZM30.9305 87.78L31.9906 88.575C32.2908 88.8002 32.656 88.9219 33.0312 88.9219H39.9688C40.344 88.9219 40.7092 88.8002 41.0094 88.575L42.0695 87.78L36.5 98.9186L30.9305 87.78ZM44.8625 52.2398C46.067 51.3031 47.7602 50.7656 49.5078 50.7656C51.2554 50.7656 52.9486 51.3031 54.1531 52.2398L54.4874 52.5L54.1531 52.7602C52.9486 53.6969 51.2554 54.2344 49.5078 54.2344C47.7602 54.2344 46.067 53.6969 44.8625 52.7602L44.5282 52.5L44.8625 52.2398ZM28.4727 52.5L28.1384 52.7602C26.9338 53.6969 25.2407 54.2344 23.4931 54.2344C21.7455 54.2344 20.0523 53.6969 18.8477 52.7602L18.5134 52.5L18.8477 52.2398C20.0523 51.3031 21.7455 50.7656 23.4931 50.7656C25.2407 50.7656 26.9338 51.3031 28.1384 52.2398L28.4727 52.5ZM32.8817 54.2344H40.1201L41.5392 69.8438H31.4616L32.8817 54.2344ZM40.9857 50.7656H32.0151L26.812 45.5625H46.188L40.9857 50.7656ZM21.7166 45.3724L23.6439 47.2997C23.5932 47.2997 23.5429 47.2969 23.4922 47.2969C20.9515 47.2969 18.5455 48.0799 16.7173 49.5017L16.3964 49.7515L13.5154 43.0292L21.7166 45.3724ZM16.5569 55.3741L16.7164 55.4983C18.5455 56.9201 20.9515 57.7031 23.4922 57.7031C25.4996 57.7196 27.4755 57.2034 29.2184 56.2072L28.007 69.5329L12.762 66.7611L16.5569 55.3741ZM33.0312 80.4547L35.7243 81.8012C35.9651 81.9216 36.2307 81.9843 36.5 81.9843C36.7693 81.9843 37.0349 81.9216 37.2757 81.8012L39.9688 80.4547L43.6207 82.2807L39.3906 85.4531H33.6094L29.3793 82.2807L33.0312 80.4547ZM38.676 77.2229L36.5 78.311L34.324 77.2229L32.3687 73.3125H40.6313L38.676 77.2229ZM44.993 69.5324L43.7816 56.2072C45.5245 57.2034 47.5004 57.7196 49.5078 57.7031C52.0485 57.7031 54.4545 56.9201 56.2827 55.4983L56.4423 55.3741L60.238 66.7607L44.993 69.5324ZM56.6036 49.7515L56.2827 49.5017C54.4545 48.0799 52.0485 47.2969 49.5078 47.2969C49.4571 47.2969 49.4068 47.2993 49.3561 47.2997L51.2834 45.3724L59.4846 43.0292L56.6036 49.7515ZM50.132 42.0938H22.868L12.3545 39.0898L12.6951 35.6826C12.9863 32.6835 14.3859 29.901 16.6201 27.8791C18.8542 25.8572 21.7622 24.7414 24.7754 24.75H48.2246C51.2377 24.7416 54.1455 25.8575 56.3795 27.8793C58.6135 29.9012 60.013 32.6837 60.3043 35.6826L60.6449 39.0898L50.132 42.0938ZM10.4898 57.7354L11.5406 47.2269L13.8337 52.5772L10.7463 61.8392L10.4898 57.7354ZM28.3992 73.1295L30.7044 77.7399L26.3684 79.9079L16.2594 70.9223L28.3992 73.1295ZM46.6318 79.9079L42.2958 77.7399L44.601 73.1295L56.7417 70.9223L46.6318 79.9079ZM59.1665 52.5772L61.4596 47.2269L62.5104 57.7354L62.254 61.8392L59.1665 52.5772ZM3.54688 61.1719V52.5C3.54744 52.1514 3.65291 51.8111 3.84957 51.5233C4.04623 51.2355 4.32497 51.0136 4.6495 50.8864L7.03427 58.037L7.62526 67.4937C6.41152 66.941 5.38198 66.0515 4.65901 64.9309C3.93603 63.8102 3.55003 62.5055 3.54688 61.1719V61.1719ZM17.3352 88.9045C15.7062 87.5423 14.3711 85.8632 13.4108 83.9693C12.4505 82.0754 11.8851 80.006 11.7489 77.8869L11.3299 71.1818L24.6917 83.0588L33.5123 100.7C31.6381 100.245 29.8928 99.3668 28.4098 98.1336L17.3352 88.9045ZM55.6648 88.9045L44.5902 98.1336C43.1072 99.3668 41.3619 100.245 39.4877 100.7L48.3083 83.0588L61.6701 71.1818L61.2508 77.8869C61.1147 80.006 60.5493 82.0753 59.5891 83.9693C58.6288 85.8632 57.2938 87.5423 55.6648 88.9045V88.9045ZM69.4531 61.1719C69.4501 62.5054 69.0642 63.81 68.3414 64.9306C67.6187 66.0513 66.5894 66.9409 65.3758 67.4937L65.9668 58.037L68.3516 50.8864C68.6759 51.0137 68.9544 51.2358 69.1509 51.5235C69.3473 51.8113 69.4527 52.1516 69.4531 52.5V61.1719Z"/>
</mask>
<path d="M69.4161 47.5826C70.5921 43.5453 71.1886 39.3614 71.1875 35.1563C71.1875 16.0296 55.6267 0.46875 36.5 0.46875C17.3733 0.46875 1.8125 16.0296 1.8125 35.1563C1.81142 39.3614 2.40786 43.5453 3.58395 47.5826C2.56134 47.9368 1.67437 48.6005 1.04613 49.4817C0.417899 50.3629 0.0795759 51.4178 0.078125 52.5V61.1719C0.0834521 63.4733 0.84923 65.7084 2.25633 67.5295C3.66343 69.3507 5.63296 70.6557 7.85853 71.2417L8.28735 78.1033C8.45366 80.6933 9.14461 83.2225 10.3182 85.5373C11.4919 87.8522 13.1237 89.9043 15.1147 91.5692L26.1894 100.798C29.0838 103.21 32.7323 104.531 36.5 104.531C40.2677 104.531 43.9162 103.21 46.8106 100.798L57.8853 91.5694C59.8762 89.9045 61.508 87.8524 62.6816 85.5376C63.8553 83.2228 64.5463 80.6937 64.7126 78.1037L65.1415 71.2421C67.3671 70.6561 69.3367 69.351 70.7438 67.5298C72.1509 65.7086 72.9166 63.4734 72.9219 61.1719V52.5C72.9204 51.4178 72.5821 50.3629 71.9539 49.4817C71.3256 48.6005 70.4387 47.9368 69.4161 47.5826ZM36.5 3.9375C53.7137 3.9375 67.7188 17.9426 67.7188 35.1563C67.72 39.5649 67.0093 43.9447 65.6141 48.1268L65.169 49.462L63.7566 35.3375C63.382 31.4815 61.5825 27.9039 58.71 25.3044C55.8376 22.7048 52.0987 21.2703 48.2246 21.2813H24.7754C20.9013 21.2703 17.1624 22.7048 14.29 25.3044C11.4175 27.9039 9.618 31.4815 9.24343 35.3375L7.831 49.462L7.38591 48.1268C5.99074 43.9447 5.28004 39.5649 5.28125 35.1563C5.28125 17.9426 19.2863 3.9375 36.5 3.9375ZM30.9305 87.78L31.9906 88.575C32.2908 88.8002 32.656 88.9219 33.0312 88.9219H39.9688C40.344 88.9219 40.7092 88.8002 41.0094 88.575L42.0695 87.78L36.5 98.9186L30.9305 87.78ZM44.8625 52.2398C46.067 51.3031 47.7602 50.7656 49.5078 50.7656C51.2554 50.7656 52.9486 51.3031 54.1531 52.2398L54.4874 52.5L54.1531 52.7602C52.9486 53.6969 51.2554 54.2344 49.5078 54.2344C47.7602 54.2344 46.067 53.6969 44.8625 52.7602L44.5282 52.5L44.8625 52.2398ZM28.4727 52.5L28.1384 52.7602C26.9338 53.6969 25.2407 54.2344 23.4931 54.2344C21.7455 54.2344 20.0523 53.6969 18.8477 52.7602L18.5134 52.5L18.8477 52.2398C20.0523 51.3031 21.7455 50.7656 23.4931 50.7656C25.2407 50.7656 26.9338 51.3031 28.1384 52.2398L28.4727 52.5ZM32.8817 54.2344H40.1201L41.5392 69.8438H31.4616L32.8817 54.2344ZM40.9857 50.7656H32.0151L26.812 45.5625H46.188L40.9857 50.7656ZM21.7166 45.3724L23.6439 47.2997C23.5932 47.2997 23.5429 47.2969 23.4922 47.2969C20.9515 47.2969 18.5455 48.0799 16.7173 49.5017L16.3964 49.7515L13.5154 43.0292L21.7166 45.3724ZM16.5569 55.3741L16.7164 55.4983C18.5455 56.9201 20.9515 57.7031 23.4922 57.7031C25.4996 57.7196 27.4755 57.2034 29.2184 56.2072L28.007 69.5329L12.762 66.7611L16.5569 55.3741ZM33.0312 80.4547L35.7243 81.8012C35.9651 81.9216 36.2307 81.9843 36.5 81.9843C36.7693 81.9843 37.0349 81.9216 37.2757 81.8012L39.9688 80.4547L43.6207 82.2807L39.3906 85.4531H33.6094L29.3793 82.2807L33.0312 80.4547ZM38.676 77.2229L36.5 78.311L34.324 77.2229L32.3687 73.3125H40.6313L38.676 77.2229ZM44.993 69.5324L43.7816 56.2072C45.5245 57.2034 47.5004 57.7196 49.5078 57.7031C52.0485 57.7031 54.4545 56.9201 56.2827 55.4983L56.4423 55.3741L60.238 66.7607L44.993 69.5324ZM56.6036 49.7515L56.2827 49.5017C54.4545 48.0799 52.0485 47.2969 49.5078 47.2969C49.4571 47.2969 49.4068 47.2993 49.3561 47.2997L51.2834 45.3724L59.4846 43.0292L56.6036 49.7515ZM50.132 42.0938H22.868L12.3545 39.0898L12.6951 35.6826C12.9863 32.6835 14.3859 29.901 16.6201 27.8791C18.8542 25.8572 21.7622 24.7414 24.7754 24.75H48.2246C51.2377 24.7416 54.1455 25.8575 56.3795 27.8793C58.6135 29.9012 60.013 32.6837 60.3043 35.6826L60.6449 39.0898L50.132 42.0938ZM10.4898 57.7354L11.5406 47.2269L13.8337 52.5772L10.7463 61.8392L10.4898 57.7354ZM28.3992 73.1295L30.7044 77.7399L26.3684 79.9079L16.2594 70.9223L28.3992 73.1295ZM46.6318 79.9079L42.2958 77.7399L44.601 73.1295L56.7417 70.9223L46.6318 79.9079ZM59.1665 52.5772L61.4596 47.2269L62.5104 57.7354L62.254 61.8392L59.1665 52.5772ZM3.54688 61.1719V52.5C3.54744 52.1514 3.65291 51.8111 3.84957 51.5233C4.04623 51.2355 4.32497 51.0136 4.6495 50.8864L7.03427 58.037L7.62526 67.4937C6.41152 66.941 5.38198 66.0515 4.65901 64.9309C3.93603 63.8102 3.55003 62.5055 3.54688 61.1719V61.1719ZM17.3352 88.9045C15.7062 87.5423 14.3711 85.8632 13.4108 83.9693C12.4505 82.0754 11.8851 80.006 11.7489 77.8869L11.3299 71.1818L24.6917 83.0588L33.5123 100.7C31.6381 100.245 29.8928 99.3668 28.4098 98.1336L17.3352 88.9045ZM55.6648 88.9045L44.5902 98.1336C43.1072 99.3668 41.3619 100.245 39.4877 100.7L48.3083 83.0588L61.6701 71.1818L61.2508 77.8869C61.1147 80.006 60.5493 82.0753 59.5891 83.9693C58.6288 85.8632 57.2938 87.5423 55.6648 88.9045V88.9045ZM69.4531 61.1719C69.4501 62.5054 69.0642 63.81 68.3414 64.9306C67.6187 66.0513 66.5894 66.9409 65.3758 67.4937L65.9668 58.037L68.3516 50.8864C68.6759 51.0137 68.9544 51.2358 69.1509 51.5235C69.3473 51.8113 69.4527 52.1516 69.4531 52.5V61.1719Z" stroke="#5FFF00" stroke-width="0.433594" mask="url(#path-1-inside-1_843_1925)"/>
</svg>
