<svg width="42" height="43" viewBox="0 0 42 43" fill="none" xmlns="http://www.w3.org/2000/svg">
<g clip-path="url(#clip0_503_493)">
<path d="M5.49134 16.6735C5.60262 16.7875 5.74872 16.8448 5.89481 16.8448C6.04091 16.8448 6.18701 16.7878 6.29859 16.6735C6.52145 16.4454 6.52145 16.0753 6.29859 15.8471L4.91261 14.4281L6.29859 13.0094C6.52145 12.781 6.52145 12.4111 6.29859 12.183C6.07572 11.9548 5.7142 11.9548 5.49134 12.183L3.70189 14.015C3.59477 14.1247 3.53467 14.2734 3.53467 14.4281C3.53467 14.5832 3.59477 14.7318 3.70189 14.8415L5.49134 16.6735Z" fill="#5FFF00"/>
<path d="M11.1551 14.428L9.76916 15.847C9.5463 16.0752 9.5463 16.4453 9.76946 16.6735C9.88074 16.7874 10.0268 16.8447 10.1729 16.8447C10.319 16.8447 10.4651 16.7874 10.5764 16.6735L12.3662 14.8411C12.589 14.613 12.589 14.2428 12.3662 14.015L10.5764 12.1826C10.3535 11.9544 9.99232 11.9544 9.76946 12.1826C9.5463 12.4111 9.5463 12.7809 9.76946 13.0091L11.1551 14.428Z" fill="#5FFF00"/>
<path d="M7.18297 16.8042C7.25141 16.8316 7.32222 16.8447 7.39155 16.8447C7.61947 16.8447 7.8346 16.704 7.92297 16.474L9.32888 12.8095C9.44433 12.5092 9.29973 12.1701 9.00634 12.0519C8.71326 11.934 8.38179 12.0818 8.26664 12.3821L6.86043 16.0466C6.74528 16.3469 6.88959 16.6863 7.18297 16.8042Z" fill="#5FFF00"/>
<path d="M4.42812 20.2731H8.27332C8.58843 20.2731 8.84402 20.0114 8.84402 19.6885C8.84402 19.3659 8.58843 19.1042 8.27332 19.1042H4.42812C4.11272 19.1042 3.85742 19.3659 3.85742 19.6885C3.85742 20.0114 4.11272 20.2731 4.42812 20.2731Z" fill="#5FFF00"/>
<path d="M17.1298 19.1042H10.3695C10.0544 19.1042 9.79883 19.3659 9.79883 19.6885C9.79883 20.0114 10.0544 20.2731 10.3695 20.2731H17.1298C17.4452 20.2731 17.7008 20.0114 17.7008 19.6885C17.7008 19.3659 17.4452 19.1042 17.1298 19.1042Z" fill="#5FFF00"/>
<path d="M4.42812 22.7378H6.06612C6.38122 22.7378 6.63681 22.4762 6.63681 22.1533C6.63681 21.8306 6.38122 21.569 6.06612 21.569H4.42812C4.11272 21.569 3.85742 21.8306 3.85742 22.1533C3.85742 22.4762 4.11272 22.7378 4.42812 22.7378Z" fill="#5FFF00"/>
<path d="M15.0414 21.569C14.726 21.569 14.4707 21.8306 14.4707 22.1533C14.4707 22.4762 14.726 22.7378 15.0414 22.7378H16.0388C16.3542 22.7378 16.6098 22.4762 16.6098 22.1533C16.6098 21.8306 16.3542 21.569 16.0388 21.569H15.0414Z" fill="#5FFF00"/>
<path d="M13.5393 22.1533C13.5393 21.8306 13.2838 21.569 12.9686 21.569H8.06923C7.75383 21.569 7.49854 21.8306 7.49854 22.1533C7.49854 22.4762 7.75383 22.7378 8.06923 22.7378H12.9686C13.2838 22.7378 13.5393 22.4762 13.5393 22.1533Z" fill="#5FFF00"/>
<path d="M17.2783 22.1533C17.2783 22.4762 17.5339 22.7378 17.849 22.7378H19.7173C20.0327 22.7378 20.2883 22.4762 20.2883 22.1533C20.2883 21.8306 20.0327 21.569 19.7173 21.569H17.849C17.5339 21.569 17.2783 21.8306 17.2783 22.1533Z" fill="#5FFF00"/>
<path d="M14.1696 14.8969H16.1403C16.4557 14.8969 16.7113 14.6352 16.7113 14.3123C16.7113 13.9897 16.4557 13.728 16.1403 13.728H14.1696C13.8542 13.728 13.5986 13.9897 13.5986 14.3123C13.5986 14.6352 13.8542 14.8969 14.1696 14.8969Z" fill="#5FFF00"/>
<path d="M18.3478 14.8969H30.372C30.6874 14.8969 30.9427 14.6352 30.9427 14.3123C30.9427 13.9897 30.6874 13.728 30.372 13.728H18.3478C18.0324 13.728 17.7769 13.9897 17.7769 14.3123C17.7769 14.6352 18.0324 14.8969 18.3478 14.8969Z" fill="#5FFF00"/>
<path d="M28.5456 16.2991H23.6747C23.3596 16.2991 23.104 16.5608 23.104 16.8837C23.104 17.2063 23.3596 17.4679 23.6747 17.4679H28.5456C28.8607 17.4679 29.1162 17.2063 29.1162 16.8837C29.1162 16.5608 28.8607 16.2991 28.5456 16.2991Z" fill="#5FFF00"/>
<path d="M21.848 16.2991H20.1737C19.8583 16.2991 19.603 16.5608 19.603 16.8837C19.603 17.2063 19.8583 17.4679 20.1737 17.4679H21.848C22.1634 17.4679 22.4187 17.2063 22.4187 16.8837C22.4187 16.5608 22.1634 16.2991 21.848 16.2991Z" fill="#5FFF00"/>
<path d="M14.1696 17.4679H18.2713C18.5864 17.4679 18.842 17.2063 18.842 16.8837C18.842 16.5608 18.5864 16.2991 18.2713 16.2991H14.1696C13.8542 16.2991 13.5986 16.5608 13.5986 16.8837C13.5986 17.2063 13.8542 17.4679 14.1696 17.4679Z" fill="#5FFF00"/>
<path d="M12.9755 24.0131H9.13056C8.81516 24.0131 8.55957 24.2747 8.55957 24.5973C8.55957 24.92 8.81516 25.1816 9.13056 25.1816H12.9755C13.2906 25.1816 13.5462 24.92 13.5462 24.5973C13.5462 24.2747 13.2906 24.0131 12.9755 24.0131Z" fill="#5FFF00"/>
<path d="M7.38217 24.0131H4.42812C4.11272 24.0131 3.85742 24.2747 3.85742 24.5973C3.85742 24.92 4.11272 25.1816 4.42812 25.1816H7.38217C7.69757 25.1816 7.95287 24.92 7.95287 24.5973C7.95287 24.2747 7.69757 24.0131 7.38217 24.0131Z" fill="#5FFF00"/>
<path d="M19.9456 24.0131H14.9227C14.6073 24.0131 14.3521 24.2747 14.3521 24.5973C14.3521 24.92 14.6073 25.1816 14.9227 25.1816H19.9456C20.2608 25.1816 20.5163 24.92 20.5163 24.5973C20.5163 24.2747 20.2608 24.0131 19.9456 24.0131Z" fill="#5FFF00"/>
<path d="M26.7383 21.0112H23.9916C23.6765 21.0112 23.4209 21.2729 23.4209 21.5955C23.4209 21.9184 23.6765 22.1801 23.9916 22.1801H26.7383C27.0537 22.1801 27.309 21.9184 27.309 21.5955C27.309 21.2729 27.0537 21.0112 26.7383 21.0112Z" fill="#5FFF00"/>
<path d="M31.5048 22.1801H35.3821C35.6975 22.1801 35.9531 21.9184 35.9531 21.5955C35.9531 21.2729 35.6975 21.0112 35.3821 21.0112H31.5048C31.1894 21.0112 30.9341 21.2729 30.9341 21.5955C30.9341 21.9184 31.1897 22.1801 31.5048 22.1801Z" fill="#5FFF00"/>
<path d="M29.5659 21.0112H28.6774C28.362 21.0112 28.1064 21.2729 28.1064 21.5955C28.1064 21.9184 28.362 22.1801 28.6774 22.1801H29.5659C29.8813 22.1801 30.1366 21.9184 30.1366 21.5955C30.1366 21.2729 29.8813 21.0112 29.5659 21.0112Z" fill="#5FFF00"/>
<path d="M23.9916 28.5481H26.7383C27.0537 28.5481 27.309 28.2867 27.309 27.9638C27.309 27.6412 27.0537 27.3795 26.7383 27.3795H23.9916C23.6765 27.3795 23.4209 27.6412 23.4209 27.9638C23.4209 28.2867 23.6765 28.5481 23.9916 28.5481Z" fill="#5FFF00"/>
<path d="M31.5048 28.5481H35.3821C35.6975 28.5481 35.9531 28.2867 35.9531 27.9638C35.9531 27.6412 35.6975 27.3795 35.3821 27.3795H31.5048C31.1894 27.3795 30.9341 27.6412 30.9341 27.9638C30.9341 28.2867 31.1897 28.5481 31.5048 28.5481Z" fill="#5FFF00"/>
<path d="M28.6771 28.5481H29.5656C29.881 28.5481 30.1366 28.2867 30.1366 27.9638C30.1366 27.6412 29.881 27.3795 29.5656 27.3795H28.6771C28.3617 27.3795 28.1064 27.6412 28.1064 27.9638C28.1064 28.2867 28.3617 28.5481 28.6771 28.5481Z" fill="#5FFF00"/>
<path d="M26.7383 33.7478H23.9916C23.6765 33.7478 23.4209 34.0095 23.4209 34.3321C23.4209 34.6547 23.6765 34.9164 23.9916 34.9164H26.7383C27.0537 34.9164 27.309 34.6547 27.309 34.3321C27.309 34.0095 27.0537 33.7478 26.7383 33.7478Z" fill="#5FFF00"/>
<path d="M35.3821 33.7478H31.5048C31.1894 33.7478 30.9341 34.0095 30.9341 34.3321C30.9341 34.6547 31.1894 34.9164 31.5048 34.9164H35.3821C35.6975 34.9164 35.9531 34.6547 35.9531 34.3321C35.9531 34.0095 35.6975 33.7478 35.3821 33.7478Z" fill="#5FFF00"/>
<path d="M29.5659 33.7478H28.6774C28.362 33.7478 28.1064 34.0095 28.1064 34.3321C28.1064 34.6547 28.362 34.9164 28.6774 34.9164H29.5659C29.8813 34.9164 30.1366 34.6547 30.1366 34.3321C30.1366 34.0095 29.8813 33.7478 29.5659 33.7478Z" fill="#5FFF00"/>
<path d="M37.4883 2.12549H3.51219C2.12711 2.12549 1 3.27913 1 4.6975V32.9725C1 34.3906 2.12711 35.5442 3.51219 35.5442H5.66019C5.97529 35.5442 6.23089 35.2829 6.23089 34.9599C6.23089 34.6373 5.97529 34.3757 5.66019 34.3757H3.51219C2.75642 34.3757 2.14169 33.7463 2.14169 32.9725V30.7557H22.9364V31.7628H22.4838C21.8646 31.7628 21.3612 32.2783 21.3612 32.9122V34.3757H9.13049C8.81538 34.3757 8.55979 34.6373 8.55979 34.9599C8.55979 35.2829 8.81538 35.5442 9.13049 35.5442H14.6185V37.6401H12.8951C11.7453 37.6401 10.8101 38.5979 10.8101 39.7747V41.037C10.8101 41.5741 11.2368 42.011 11.7614 42.011H29.1953C29.7199 42.011 30.1466 41.5741 30.1466 41.037V39.7747C30.1466 38.5979 29.2114 37.6401 28.0617 37.6401H26.3383V36.9014H36.8902C37.5091 36.9014 38.0125 36.3859 38.0125 35.752V35.4769C39.1251 35.2125 39.9567 34.1904 39.9567 32.9725L39.9999 4.69719C40.0002 3.27913 38.8733 2.12549 37.4883 2.12549ZM22.5029 29.3645V26.5634H36.8711V29.3645H22.5029ZM24.0778 25.3945V24.165H35.2959V25.3945H24.0778ZM35.2959 30.533V31.7628H24.0778V30.533H35.2959ZM15.7598 35.5442H21.3612V35.7523C21.3612 36.3859 21.8646 36.9014 22.4838 36.9014H25.1969V37.6401H15.7598V35.5442ZM28.062 38.809C28.5821 38.809 29.0052 39.2422 29.0052 39.7747V40.8424H11.9515V39.7747C11.9515 39.2422 12.3749 38.809 12.8951 38.809H28.062ZM36.8711 35.7325H22.5029V32.9317H36.8711V35.7325ZM38.8153 32.9725C38.8153 33.5385 38.4856 34.0262 38.0128 34.2477V32.9119C38.0128 32.2783 37.5091 31.7628 36.8902 31.7628H36.4376V30.7557H38.8153V32.9725ZM38.8153 29.5871H37.9941C38.0057 29.521 38.0128 26.5439 38.0128 26.5439C38.0128 25.9099 37.5091 25.3945 36.8902 25.3945H36.4376V24.165H36.8902C37.5091 24.165 38.0128 23.6493 38.0128 23.0156V20.1755C38.0128 19.5419 37.5091 19.0262 36.8902 19.0262H33.6663C33.3509 19.0262 33.0956 19.2878 33.0956 19.6108C33.0956 19.9334 33.3509 20.195 33.6663 20.195H36.8711V22.9961H22.5029V20.195H30.1147C30.4301 20.195 30.6854 19.9334 30.6854 19.6108C30.6854 19.2878 30.4301 19.0262 30.1147 19.0262H22.4838C21.8646 19.0262 21.3612 19.5419 21.3612 20.1755V23.0156C21.3612 23.6493 21.8646 24.165 22.4838 24.165H22.9364V25.3945H22.4838C21.8646 25.3945 21.3612 25.9102 21.3612 26.5439C21.3612 26.5439 21.3683 29.521 21.3799 29.5871H2.14169V10.0746H38.8153V29.5871ZM38.8153 8.90568H2.18364V4.69719C2.18364 3.92373 2.79838 3.29436 3.55415 3.29436H37.4448C38.2006 3.29436 38.8153 3.92373 38.8153 4.6975V8.90568Z" fill="#5FFF00"/>
<path d="M5.20956 4.36853C4.28598 4.36853 3.53467 5.13773 3.53467 6.0833C3.53467 7.02888 4.28598 7.79838 5.20956 7.79838C6.13315 7.79838 6.88476 7.02888 6.88476 6.0833C6.88476 5.13773 6.13315 4.36853 5.20956 4.36853ZM5.20956 6.62951C4.91559 6.62951 4.67606 6.38459 4.67606 6.0833C4.67606 5.78233 4.91559 5.5371 5.20956 5.5371C5.50384 5.5371 5.74307 5.78233 5.74307 6.0833C5.74307 6.38459 5.50384 6.62951 5.20956 6.62951Z" fill="#5FFF00"/>
<path d="M9.47402 4.36853C8.55043 4.36853 7.79883 5.13773 7.79883 6.0833C7.79883 7.02888 8.55043 7.79838 9.47402 7.79838C10.3976 7.79838 11.1489 7.02888 11.1489 6.0833C11.1489 5.13773 10.3973 4.36853 9.47402 4.36853ZM9.47402 6.62951C9.17975 6.62951 8.94052 6.38459 8.94052 6.0833C8.94052 5.78233 9.17975 5.5371 9.47402 5.5371C9.768 5.5371 10.0075 5.78233 10.0075 6.0833C10.0075 6.38459 9.768 6.62951 9.47402 6.62951Z" fill="#5FFF00"/>
<path d="M13.7389 4.36853C12.8153 4.36853 12.064 5.13773 12.064 6.0833C12.064 7.02888 12.8153 7.79838 13.7389 7.79838C14.6624 7.79838 15.4141 7.02888 15.4141 6.0833C15.4141 5.13773 14.6624 4.36853 13.7389 4.36853ZM13.7389 6.62951C13.4449 6.62951 13.2054 6.38459 13.2054 6.0833C13.2054 5.78233 13.4449 5.5371 13.7389 5.5371C14.0331 5.5371 14.2724 5.78233 14.2724 6.0833C14.2724 6.38459 14.0331 6.62951 13.7389 6.62951Z" fill="#5FFF00"/>
</g>
<defs>
<clipPath id="clip0_503_493">
<rect width="39" height="39.9286" fill="white" transform="translate(1 2.04761)"/>
</clipPath>
</defs>
</svg>
