<svg width="43" height="43" viewBox="0 0 43 43" fill="none" xmlns="http://www.w3.org/2000/svg">
<path d="M17.0096 13.9867C16.7454 13.4559 16.338 13.0095 15.8335 12.6979C15.329 12.3864 14.7474 12.2221 14.1544 12.2236C13.3072 12.2246 12.495 12.5616 11.896 13.1607C11.2971 13.7598 10.9602 14.5721 10.9595 15.4193V31.2163H13.0695V15.42C13.0696 15.1323 13.184 14.8565 13.3874 14.653C13.5908 14.4496 13.8667 14.3352 14.1544 14.3351C14.3558 14.3344 14.5533 14.3901 14.7247 14.4958C14.8961 14.6015 15.0346 14.753 15.1245 14.9332L22.2324 29.1063H19.8733L16.1666 21.7207H13.8061L18.5706 31.2141H25.6515L17.0096 13.9867Z" fill="#5FFF00"/>
<path d="M30.3727 12.2238V28.0214C30.3724 28.309 30.2579 28.5847 30.0545 28.788C29.8511 28.9912 29.5754 29.1055 29.2878 29.1057C29.0864 29.1063 28.8889 29.0507 28.7175 28.945C28.546 28.8393 28.4076 28.6878 28.3177 28.5075L21.2119 14.3344H23.5674L27.2735 21.7201H29.6347L24.8694 12.2266H17.7886L26.4298 29.4562C26.6938 29.9872 27.1011 30.4337 27.6056 30.7453C28.1102 31.0569 28.6919 31.221 29.2849 31.2192C30.132 31.2183 30.9441 30.8814 31.543 30.2824C32.142 29.6835 32.4789 28.8714 32.4799 28.0243V12.2266L30.3727 12.2238Z" fill="#5FFF00"/>
<path d="M21.7198 42.2973C33.0843 42.2973 42.2971 33.0846 42.2971 21.7201C42.2971 10.3556 33.0843 1.14282 21.7198 1.14282C10.3553 1.14282 1.14258 10.3556 1.14258 21.7201C1.14258 33.0846 10.3553 42.2973 21.7198 42.2973Z" stroke="#5FFF00" stroke-miterlimit="10"/>
<path d="M34.2202 34.2197C41.1236 27.3162 41.1236 16.1235 34.2202 9.22002C27.3167 2.31656 16.124 2.31656 9.22053 9.22002C2.31707 16.1235 2.31707 27.3162 9.22053 34.2197C16.124 41.1231 27.3167 41.1231 34.2202 34.2197Z" stroke="#5FFF00" stroke-miterlimit="10" stroke-linecap="round" stroke-dasharray="16.44 2.07"/>
</svg>
