<svg width="42" height="42" viewBox="0 0 42 42" fill="none" xmlns="http://www.w3.org/2000/svg">
<path d="M39.2383 33.358H38.4703V14.03C38.4703 12.0356 36.8478 10.4132 34.8535 10.4132H34.6462V6.35635C34.6462 3.95427 32.6919 2 30.2898 2H10.7102C8.30808 2 6.35382 3.95427 6.35382 6.35635V10.4131H6.14648C4.15214 10.4131 2.52961 12.0356 2.52961 14.0299V33.3579H1.76172C1.34102 33.3579 1 33.699 1 34.1196C1 37.9134 4.08656 41 7.88038 41H33.1197C36.9134 41 40 37.9134 40 34.1197C40 33.699 39.659 33.358 39.2383 33.358ZM34.6462 11.9365H34.8535C36.0078 11.9365 36.9469 12.8756 36.9469 14.0299V14.2372H34.6462V11.9365ZM7.87725 6.35635C7.87725 4.79429 9.14811 3.52344 10.7102 3.52344H30.2898C31.8519 3.52344 33.1227 4.79429 33.1227 6.35635V26.7008C33.1227 28.2629 31.8519 29.5337 30.2898 29.5337H10.7102C9.14803 29.5337 7.87718 28.2628 7.87718 26.7008V6.35635H7.87725ZM4.05312 14.03C4.05312 12.8757 4.99224 11.9366 6.14655 11.9366H6.35389V14.2372H4.05312V14.03ZM4.05312 15.7606H6.35382V26.7008C6.35382 29.1029 8.30808 31.0571 10.7102 31.0571H30.2898C32.692 31.0571 34.6463 29.1029 34.6463 26.7008V15.7606H36.947V33.3579H25.4714C25.0507 33.3579 24.7096 33.699 24.7096 34.1196V35.6524H16.2904V34.1196C16.2904 33.699 15.9493 33.3579 15.5286 33.3579H4.05312V15.7606ZM33.1196 39.4766H7.88038C5.18511 39.4766 2.94832 37.4758 2.57744 34.8814H14.7669V36.4141C14.7669 36.8348 15.1079 37.1759 15.5286 37.1759H25.4714C25.8921 37.1759 26.2331 36.8348 26.2331 36.4141V34.8814H38.4226C38.0517 37.4758 35.815 39.4766 33.1196 39.4766Z" fill="#5FFF00"/>
<path d="M12.4692 23.4089H28.5306C28.9513 23.4089 29.2923 23.0679 29.2923 22.6472C29.2923 22.2265 28.9513 21.8854 28.5306 21.8854H12.4692C12.0485 21.8854 11.7075 22.2265 11.7075 22.6472C11.7075 23.0679 12.0485 23.4089 12.4692 23.4089Z" fill="#5FFF00"/>
<path d="M23.9415 25.7097H17.0581C16.6374 25.7097 16.2964 26.0508 16.2964 26.4714C16.2964 26.8921 16.6374 27.2332 17.0581 27.2332H23.9415C24.3622 27.2332 24.7032 26.8921 24.7032 26.4714C24.7032 26.0507 24.3621 25.7097 23.9415 25.7097Z" fill="#5FFF00"/>
<path d="M20.5001 19.5848C24.5045 19.5848 27.7628 16.3259 27.7628 12.322C27.7628 8.3173 24.5048 5.0592 20.5001 5.0592C16.4953 5.0592 13.2373 8.31723 13.2373 12.322C13.2373 16.3271 16.4967 19.5848 20.5001 19.5848ZM23.1801 17.395C21.5378 18.2663 19.5282 18.3011 17.8201 17.395V16.9109C17.8201 15.4332 19.0223 14.2309 20.5001 14.2309C21.9813 14.2309 23.1802 15.4295 23.1802 16.9109V17.395H23.1801ZM18.9673 11.1748C18.9673 10.3296 19.6549 9.64201 20.5001 9.64201C21.3453 9.64201 22.0329 10.3296 22.0329 11.1748C22.0329 12.02 21.3453 12.7075 20.5001 12.7075C19.6549 12.7075 18.9673 12.02 18.9673 11.1748ZM20.5001 6.58272C23.6647 6.58272 26.2394 9.1574 26.2394 12.322C26.2394 13.8529 25.6358 15.2444 24.6556 16.2745C24.4642 15.0066 23.7105 13.9427 22.679 13.3151C23.2211 12.7633 23.5563 12.0076 23.5563 11.1748C23.5563 9.48959 22.1853 8.11857 20.5001 8.11857C18.8148 8.11857 17.4438 9.48959 17.4438 11.1748C17.4438 12.0084 17.7797 12.7647 18.3226 13.3166C17.2814 13.9498 16.5357 15.0223 16.3447 16.2747C15.3644 15.2447 14.7607 13.8529 14.7607 12.322C14.7607 9.1574 17.3354 6.58272 20.5001 6.58272Z" fill="#5FFF00"/>
</svg>
