<svg width="136" height="19" viewBox="0 0 136 19" fill="none" xmlns="http://www.w3.org/2000/svg">
<g clip-path="url(#clip0)">
<path d="M4.26 7.28998V17.84H0V2.63998C0 0.999976 0.87 -2.44335e-05 2.23 -2.44335e-05C2.56254 -0.00304287 2.89199 0.0639562 3.19694 0.196617C3.50189 0.329278 3.7755 0.524631 4 0.769976L14.64 10.58V-2.44335e-05H18.9V15.44C18.9 17.06 18.01 18.08 16.68 18.08C16.3542 18.0804 16.0321 18.011 15.7354 17.8764C15.4387 17.7419 15.1743 17.5453 14.96 17.3L4.26 7.28998Z" fill="white"/>
<path d="M30.7002 17.84C29.5186 17.8624 28.3448 17.6439 27.2505 17.1977C26.1562 16.7516 25.1642 16.0871 24.3351 15.245C23.506 14.4028 22.8572 13.4005 22.4283 12.2993C21.9993 11.1981 21.7992 10.0211 21.8402 8.83997C21.8402 3.65997 25.5902 0.219971 30.7002 0.219971H35.1202C40.3802 0.239971 44.0002 3.74997 44.0002 8.85997C44.0427 10.0431 43.843 11.2225 43.4134 12.3258C42.9837 13.429 42.3332 14.4328 41.5017 15.2756C40.6701 16.1183 39.6751 16.7823 38.5778 17.2267C37.4804 17.6711 36.3038 17.8866 35.1202 17.86L30.7002 17.84ZM35.1202 13.36C35.6983 13.3948 36.2773 13.3091 36.8206 13.1083C37.3638 12.9076 37.8594 12.5961 38.2759 12.1937C38.6925 11.7913 39.0208 11.3067 39.2402 10.7707C39.4595 10.2347 39.5651 9.65894 39.5502 9.07997C39.5671 8.49592 39.4637 7.91464 39.2464 7.37226C39.0291 6.82987 38.7026 6.33799 38.2871 5.92718C37.8716 5.51638 37.3761 5.19544 36.8312 4.98432C36.2864 4.7732 35.704 4.67641 35.1202 4.69997H30.7002C30.1201 4.68346 29.5426 4.78539 29.0032 4.99953C28.4638 5.21368 27.9737 5.53554 27.5628 5.94546C27.152 6.35537 26.829 6.84475 26.6136 7.38368C26.3982 7.92261 26.295 8.49979 26.3102 9.07997C26.2927 9.65619 26.3951 10.2298 26.611 10.7643C26.8269 11.2988 27.1515 11.7827 27.5643 12.1851C27.977 12.5875 28.4689 12.8998 29.0088 13.102C29.5486 13.3043 30.1246 13.3921 30.7002 13.36H35.1202Z" fill="white"/>
<path d="M47.0595 17.84V13.36H60.4495C61.4495 13.36 62.1195 12.88 62.1195 12C62.1195 11.12 61.4895 10.58 60.4495 10.58H52.6095C48.9995 10.58 46.7695 8.48999 46.7695 5.44999C46.7695 2.40999 48.8495 0.23999 52.6495 0.23999H65.4595V4.69999H52.6495C52.478 4.68459 52.3052 4.70825 52.1441 4.76921C51.983 4.83016 51.8379 4.92682 51.7195 5.05192C51.6011 5.17703 51.5127 5.32732 51.4607 5.49153C51.4087 5.65573 51.3947 5.82957 51.4195 5.99999C51.403 6.16696 51.4232 6.33552 51.4788 6.49385C51.5343 6.65218 51.6238 6.79643 51.741 6.9165C51.8582 7.03656 52.0003 7.12952 52.1572 7.18886C52.3142 7.2482 52.4822 7.27248 52.6495 7.25999H60.4495C64.2895 7.25999 66.3495 8.87999 66.3495 12.47C66.3495 15.56 64.4195 17.89 60.4495 17.89L47.0595 17.84Z" fill="white"/>
<path d="M72.4699 3.38003C72.7132 2.52681 73.1791 1.75369 73.8199 1.14002C74.5338 0.508573 75.4684 0.185049 76.4199 0.240025H81.6699C82.6479 0.190757 83.6085 0.512143 84.3599 1.14002C85.0335 1.7373 85.5226 2.51439 85.7699 3.38003L90.0899 17.84H85.2699L84.0799 13.61L82.8999 9.39003L81.5499 4.47002H76.6699L72.9999 17.84H68.1299L72.4699 3.38003Z" fill="white"/>
<path d="M118.33 3.38005C118.568 2.52675 119.031 1.75307 119.67 1.14005C120.384 0.509553 121.319 0.186169 122.27 0.24005H127.53C128.508 0.190782 129.469 0.512169 130.22 1.14005C130.891 1.73789 131.377 2.51513 131.62 3.38005L136 17.84H131.17L129.99 13.6101L128.81 9.39005L127.4 4.47005H122.52L118.81 17.84H114L118.33 3.38005Z" fill="white"/>
<path d="M97.0003 7.29V17.84H92.7803V2.64C92.7803 1 93.6503 0 95.0003 0C95.3244 0.00390559 95.6443 0.0742539 95.9401 0.206695C96.2359 0.339137 96.5015 0.530856 96.7203 0.77L107.37 10.58V0H111.62V15.44C111.62 17.06 110.73 18.08 109.4 18.08C109.074 18.0804 108.752 18.011 108.456 17.8765C108.159 17.7419 107.895 17.5453 107.68 17.3L97.0003 7.29Z" fill="white"/>
</g>
<defs>
<clipPath id="clip0">
<rect width="135.95" height="18.08" fill="white"/>
</clipPath>
</defs>
</svg>
