<svg width="100" height="88" viewBox="0 0 100 88" fill="none" xmlns="http://www.w3.org/2000/svg">
<path d="M28.1063 8.08477C26.61 5.13598 24.1479 2.77203 21.119 1.37608C18.0901 -0.0198731 14.672 -0.365996 11.4187 0.393814C8.16542 1.15362 5.26763 2.97483 3.19508 5.56223C1.12252 8.14963 -0.00333482 11.3516 7.41998e-06 14.649V87.0306H9.80179V14.649C9.81926 13.5385 10.2117 12.4654 10.9171 11.5996C11.6225 10.7338 12.6005 10.1248 13.6964 9.8689C14.7922 9.61302 15.9432 9.72491 16.9673 10.1868C17.9914 10.6488 18.83 11.4344 19.3505 12.4193L52.3746 77.363H41.4087L24.1924 43.5184H13.2265L35.3691 87.0306H68.2666L28.1063 8.08477Z" fill="#10E80C"/>
<path d="M90.1882 0.00628567V72.3878C90.1673 73.4955 89.7734 74.5649 89.0685 75.4275C88.3637 76.2901 87.3879 76.8969 86.2949 77.1523C85.2019 77.4078 84.0538 77.2974 83.0314 76.8384C82.0091 76.3795 81.1705 75.5982 80.6479 74.6175L47.6238 9.6738H58.5897L75.8061 43.5184H86.7719L64.6378 0.00628567H31.7402L71.8837 78.9521C73.3828 81.8982 75.846 84.2592 78.8746 85.653C81.9032 87.0469 85.32 87.3921 88.5723 86.6328C91.8245 85.8735 94.7218 84.054 96.7954 81.4689C98.869 78.8837 99.9975 75.6841 99.9984 72.3878V0.00628567H90.1882Z" fill="#10E80C"/>
</svg>
