<svg width="121" height="16" viewBox="0 0 121 16" fill="none" xmlns="http://www.w3.org/2000/svg">
<g clip-path="url(#clip0)">
<mask id="path-1-inside-1" fill="white">
<path fill-rule="evenodd" clip-rule="evenodd" d="M3.76991 15.7877V6.45141L13.2389 15.3098C13.4286 15.5269 13.6626 15.7009 13.9252 15.82C14.1877 15.939 14.4728 16.0005 14.7611 16.0001C15.9381 16.0001 16.7257 15.0974 16.7257 13.6638V8.64042e-05H12.9558V9.36292L3.53982 0.681502C3.34115 0.464383 3.09902 0.291505 2.82915 0.174106C2.55929 0.0567064 2.26773 -0.00258478 1.97345 8.64042e-05C0.769911 8.64042e-05 0 0.885042 0 2.33637V15.7877H3.76991ZM24.1153 15.2193C25.0837 15.6142 26.1224 15.8075 27.1681 15.7877L31.0796 15.8054C32.1271 15.829 33.1683 15.6383 34.1394 15.245C35.1105 14.8517 35.991 14.2641 36.7269 13.5183C37.4628 12.7725 38.0385 11.8842 38.4187 10.9078C38.7989 9.93154 38.9756 8.88783 38.938 7.84078C38.938 3.31865 35.7345 0.212457 31.0796 0.194758H27.1681C22.646 0.194758 19.3274 3.23901 19.3274 7.82308C19.2911 8.86829 19.4682 9.90992 19.8478 10.8844C20.2274 11.859 20.8016 12.7459 21.5353 13.4912C22.269 14.2365 23.1468 14.8245 24.1153 15.2193ZM32.5844 11.6004C32.1036 11.7781 31.5912 11.8539 31.0796 11.8231H27.1681C26.6587 11.8515 26.149 11.7738 25.6713 11.5948C25.1935 11.4158 24.7582 11.1395 24.3929 10.7834C24.0276 10.4272 23.7404 9.99905 23.5493 9.52602C23.3583 9.05298 23.2676 8.54539 23.2831 8.03547C23.2697 7.52204 23.3611 7.01126 23.5517 6.53432C23.7423 6.05739 24.0281 5.62432 24.3917 5.26156C24.7553 4.8988 25.189 4.61397 25.6663 4.42446C26.1437 4.23495 26.6547 4.14475 27.1681 4.15936H31.0796C31.5962 4.13851 32.1117 4.22416 32.5938 4.411C33.0759 4.59783 33.5145 4.88185 33.8822 5.24539C34.2499 5.60893 34.5389 6.04423 34.7311 6.52422C34.9234 7.0042 35.0149 7.51861 35 8.03547C35.0131 8.54783 34.9197 9.05733 34.7256 9.53168C34.5315 10.006 34.2409 10.4349 33.8723 10.791C33.5037 11.1471 33.0651 11.4227 32.5844 11.6004ZM41.646 15.7877V11.8231H53.4956C54.3806 11.8231 54.9735 11.3983 54.9735 10.6195C54.9735 9.84076 54.4159 9.36289 53.4956 9.36289H46.5575C43.3629 9.36289 41.3894 7.51333 41.3894 4.82306C41.3894 2.1328 43.2301 0.212444 46.5929 0.212444H57.9292V4.15935H46.5929C46.4411 4.14572 46.2882 4.16666 46.1457 4.2206C46.0031 4.27454 45.8747 4.36008 45.7699 4.47079C45.6652 4.5815 45.5869 4.71451 45.5409 4.85982C45.4949 5.00513 45.4824 5.15897 45.5044 5.30979C45.4898 5.45755 45.5077 5.60672 45.5569 5.74683C45.606 5.88695 45.6852 6.01461 45.789 6.12086C45.8927 6.22711 46.0184 6.30938 46.1573 6.36189C46.2962 6.4144 46.4449 6.43588 46.5929 6.42483H53.4956C56.8938 6.42483 58.7168 7.85846 58.7168 11.0355C58.7168 13.77 57.0089 15.8319 53.4956 15.8319L41.646 15.7877ZM65.3275 1.00895C64.7604 1.55201 64.3481 2.23619 64.1328 2.99125L60.2921 15.7877H64.6018L67.8496 3.95585H72.1682L73.3629 8.30983L74.4071 12.0443L75.4602 15.7877H79.7257L75.9027 2.99125C75.6839 2.2252 75.251 1.5375 74.6549 1.00895C73.9899 0.453299 73.1398 0.168886 72.2744 0.212487H67.6283C66.7863 0.163835 65.9592 0.45014 65.3275 1.00895ZM104.717 2.99121C104.927 2.23608 105.337 1.55141 105.903 1.00891C106.535 0.450949 107.362 0.164768 108.204 0.21245H112.858C113.724 0.16885 114.574 0.453263 115.239 1.00891C115.833 1.53797 116.262 2.22579 116.478 2.99121L120.354 15.7877H116.08L115.035 12.0443L113.991 8.3098L112.743 3.95581H108.425L105.142 15.7877H100.885L104.717 2.99121ZM85.8407 15.7877V6.45142L95.2921 15.3098C95.4817 15.5269 95.7157 15.7009 95.9783 15.82C96.2409 15.939 96.5259 16.0005 96.8142 16.0001C97.9912 16.0001 98.7788 15.0974 98.7788 13.6638V9.15527e-05H95.0177V9.36292L85.5929 0.681507C85.3993 0.469876 85.1643 0.300213 84.9025 0.183008C84.6407 0.065803 84.3577 0.00354783 84.0708 9.15527e-05C82.8761 9.15527e-05 82.1062 0.885047 82.1062 2.33637V15.7877H85.8407Z"/>
</mask>
<path d="M3.76991 6.45141L4.1115 6.08628L3.26991 5.29897V6.45141H3.76991ZM3.76991 15.7877V16.2877H4.26991V15.7877H3.76991ZM13.2389 15.3098L13.6155 14.9809L13.5989 14.9619L13.5805 14.9447L13.2389 15.3098ZM13.9252 15.82L13.7187 16.2753L13.9252 15.82ZM14.7611 16.0001V15.5001H14.7604L14.7611 16.0001ZM16.7257 8.64042e-05H17.2257V-0.499914H16.7257V8.64042e-05ZM12.9558 8.64042e-05V-0.499914H12.4558V8.64042e-05H12.9558ZM12.9558 9.36292L12.6168 9.73052L13.4558 10.504V9.36292H12.9558ZM3.53982 0.681502L3.17094 1.01903L3.18528 1.0347L3.2009 1.0491L3.53982 0.681502ZM2.82915 0.174106L3.02861 -0.284388L3.02861 -0.284388L2.82915 0.174106ZM1.97345 8.64042e-05V0.500107L1.97799 0.500066L1.97345 8.64042e-05ZM0 15.7877H-0.5V16.2877H0V15.7877ZM27.1681 15.7877L27.1704 15.2875L27.1586 15.2878L27.1681 15.7877ZM31.0796 15.8054L31.0909 15.3054L31.0819 15.3054L31.0796 15.8054ZM34.1394 15.245L34.3271 15.7084L34.1394 15.245ZM36.7269 13.5183L37.0828 13.8695L36.7269 13.5183ZM38.4187 10.9078L38.8846 11.0893V11.0893L38.4187 10.9078ZM38.938 7.84078H38.438V7.84976L38.4383 7.85874L38.938 7.84078ZM31.0796 0.194758L31.0815 -0.305242H31.0796V0.194758ZM19.3274 7.82308L19.8271 7.84041L19.8274 7.83175V7.82308H19.3274ZM19.8478 10.8844L19.3819 11.0659V11.0659L19.8478 10.8844ZM31.0796 11.8231L31.1097 11.324L31.0946 11.3231H31.0796V11.8231ZM32.5844 11.6004L32.7577 12.0694L32.7577 12.0694L32.5844 11.6004ZM27.1681 11.8231V11.3231H27.1541L27.1402 11.3239L27.1681 11.8231ZM25.6713 11.5948L25.8467 11.1266L25.6713 11.5948ZM23.5493 9.52602L24.0129 9.33877V9.33877L23.5493 9.52602ZM23.2831 8.03547L23.7829 8.05067L23.7833 8.03653L23.783 8.02238L23.2831 8.03547ZM23.5517 6.53432L24.016 6.71987L23.5517 6.53432ZM24.3917 5.26156L24.7448 5.61552L24.7448 5.61552L24.3917 5.26156ZM27.1681 4.15936L27.1539 4.65916L27.161 4.65936H27.1681V4.15936ZM31.0796 4.15936V4.65936H31.0897L31.0998 4.65895L31.0796 4.15936ZM32.5938 4.411L32.7745 3.94478V3.94478L32.5938 4.411ZM33.8822 5.24539L33.5306 5.60094V5.60094L33.8822 5.24539ZM34.7311 6.52422L34.267 6.71016V6.71016L34.7311 6.52422ZM35 8.03547L34.5002 8.02098L34.4998 8.03465L34.5001 8.04833L35 8.03547ZM34.7256 9.53168L34.2628 9.34231L34.7256 9.53168ZM33.8723 10.791L34.2197 11.1506L33.8723 10.791ZM41.646 11.8231V11.3231H41.146V11.8231H41.646ZM41.646 15.7877H41.146V16.2858L41.6442 16.2877L41.646 15.7877ZM57.9292 0.212444H58.4292V-0.287556H57.9292V0.212444ZM57.9292 4.15935V4.65935H58.4292V4.15935H57.9292ZM46.5929 4.15935L46.5482 4.65734L46.5705 4.65935H46.5929V4.15935ZM46.1457 4.2206L46.3226 4.68824V4.68824L46.1457 4.2206ZM45.7699 4.47079L46.1331 4.81444L46.1331 4.81443L45.7699 4.47079ZM45.5409 4.85982L45.0642 4.70899V4.70899L45.5409 4.85982ZM45.5044 5.30979L46.002 5.35901L46.008 5.29814L45.9992 5.23761L45.5044 5.30979ZM45.5569 5.74683L46.0287 5.58133L46.0287 5.58132L45.5569 5.74683ZM45.789 6.12086L46.1468 5.77159L46.1467 5.77159L45.789 6.12086ZM46.1573 6.36189L45.9805 6.82957L45.9805 6.82958L46.1573 6.36189ZM46.5929 6.42483V5.92483H46.5743L46.5557 5.92622L46.5929 6.42483ZM53.4956 15.8319L53.4937 16.3319H53.4956V15.8319ZM64.1328 2.99125L64.6117 3.135L64.6136 3.12836L64.1328 2.99125ZM65.3275 1.00895L64.9962 0.634434L64.9888 0.640992L64.9816 0.647838L65.3275 1.00895ZM60.2921 15.7877L59.8132 15.644L59.6199 16.2877H60.2921V15.7877ZM64.6018 15.7877V16.2877H64.983L65.084 15.9201L64.6018 15.7877ZM67.8496 3.95585V3.45585H67.4683L67.3674 3.8235L67.8496 3.95585ZM72.1682 3.95585L72.6503 3.82354L72.5494 3.45585H72.1682V3.95585ZM73.3629 8.30983L72.8807 8.44214L72.8813 8.44448L73.3629 8.30983ZM74.4071 12.0443L73.9256 12.179L73.9258 12.1798L74.4071 12.0443ZM75.4602 15.7877L74.9789 15.9231L75.0814 16.2877H75.4602V15.7877ZM79.7257 15.7877V16.2877H80.3969L80.2048 15.6446L79.7257 15.7877ZM75.9027 2.99125L75.4219 3.12858L75.4236 3.13437L75.9027 2.99125ZM74.6549 1.00895L74.9866 0.634835L74.9811 0.629967L74.9755 0.625262L74.6549 1.00895ZM72.2744 0.212487V0.712487H72.2869L72.2995 0.711853L72.2744 0.212487ZM67.6283 0.212487L67.5995 0.711654L67.6139 0.712487H67.6283V0.212487ZM105.903 1.00891L105.572 0.63402L105.564 0.640846L105.557 0.647986L105.903 1.00891ZM104.717 2.99121L105.196 3.13467L105.198 3.12542L104.717 2.99121ZM108.204 0.21245L108.175 0.71165L108.189 0.71245H108.204V0.21245ZM112.858 0.21245V0.71245H112.871L112.884 0.711817L112.858 0.21245ZM115.239 1.00891L115.572 0.635646L115.566 0.630339L115.56 0.625225L115.239 1.00891ZM116.478 2.99121L115.996 3.12671L115.999 3.13616L116.478 2.99121ZM120.354 15.7877V16.2877H121.028L120.833 15.6427L120.354 15.7877ZM116.08 15.7877L115.598 15.922L115.7 16.2877H116.08V15.7877ZM115.035 12.0443L115.517 11.91L115.517 11.9097L115.035 12.0443ZM113.991 8.3098L114.473 8.17515L114.472 8.17205L113.991 8.3098ZM112.743 3.95581L113.224 3.81807L113.12 3.45581H112.743V3.95581ZM108.425 3.95581V3.45581H108.045L107.943 3.82212L108.425 3.95581ZM105.142 15.7877V16.2877H105.522L105.623 15.9214L105.142 15.7877ZM100.885 15.7877L100.406 15.6442L100.213 16.2877H100.885V15.7877ZM85.8407 6.45142L86.1827 6.08661L85.3407 5.2975V6.45142H85.8407ZM85.8407 15.7877V16.2877H86.3407V15.7877H85.8407ZM95.2921 15.3098L95.6686 14.9809L95.6522 14.9621L95.634 14.945L95.2921 15.3098ZM95.9783 15.82L96.1848 15.3646L96.1848 15.3646L95.9783 15.82ZM96.8142 16.0001V15.5001H96.8136L96.8142 16.0001ZM98.7788 9.15527e-05H99.2788V-0.499908H98.7788V9.15527e-05ZM95.0177 9.15527e-05V-0.499908H94.5177V9.15527e-05H95.0177ZM95.0177 9.36292L94.679 9.73068L95.5177 10.5033V9.36292H95.0177ZM85.5929 0.681507L85.2241 1.01902L85.2385 1.03479L85.2542 1.04927L85.5929 0.681507ZM84.9025 0.183008L85.1068 -0.27335L84.9025 0.183008ZM84.0708 9.15527e-05L84.0769 -0.499908H84.0708V9.15527e-05ZM82.1062 15.7877H81.6062V16.2877H82.1062V15.7877ZM3.26991 6.45141V15.7877H4.26991V6.45141H3.26991ZM13.5805 14.9447L4.1115 6.08628L3.42833 6.81654L12.8974 15.675L13.5805 14.9447ZM14.1317 15.3646C13.9342 15.275 13.7582 15.1442 13.6155 14.9809L12.8624 15.6388C13.0991 15.9097 13.391 16.1268 13.7187 16.2753L14.1317 15.3646ZM14.7604 15.5001C14.5436 15.5004 14.3292 15.4542 14.1317 15.3646L13.7187 16.2753C14.0463 16.4239 14.402 16.5005 14.7617 16.5001L14.7604 15.5001ZM16.2257 13.6638C16.2257 14.2923 16.0534 14.752 15.8037 15.0458C15.5607 15.3318 15.2123 15.5001 14.7611 15.5001V16.5001C15.4868 16.5001 16.1207 16.217 16.5658 15.6933C17.0042 15.1774 17.2257 14.4689 17.2257 13.6638H16.2257ZM16.2257 8.64042e-05V13.6638H17.2257V8.64042e-05H16.2257ZM12.9558 0.500086H16.7257V-0.499914H12.9558V0.500086ZM13.4558 9.36292V8.64042e-05H12.4558V9.36292H13.4558ZM3.2009 1.0491L12.6168 9.73052L13.2947 8.99532L3.87875 0.313902L3.2009 1.0491ZM2.62969 0.632599C2.83522 0.722011 3.01964 0.853676 3.17094 1.01903L3.9087 0.34397C3.66267 0.0750905 3.36281 -0.139002 3.02861 -0.284388L2.62969 0.632599ZM1.97799 0.500066C2.20212 0.498031 2.42416 0.543188 2.62969 0.632599L3.02861 -0.284388C2.69441 -0.429775 2.33335 -0.503201 1.96891 -0.499893L1.97799 0.500066ZM0.5 2.33637C0.5 1.69498 0.669942 1.23716 0.916058 0.948169C1.15457 0.668107 1.50304 0.500086 1.97345 0.500086V-0.499914C1.24032 -0.499914 0.602065 -0.225456 0.154738 0.299792C-0.284986 0.816114 -0.5 1.52643 -0.5 2.33637H0.5ZM0.5 15.7877V2.33637H-0.5V15.7877H0.5ZM3.76991 15.2877H0V16.2877H3.76991V15.2877ZM27.1586 15.2878C26.1809 15.3063 25.2096 15.1255 24.304 14.7563L23.9265 15.6823C24.9578 16.1028 26.064 16.3087 27.1776 16.2876L27.1586 15.2878ZM31.0819 15.3054L27.1704 15.2877L27.1658 16.2877L31.0773 16.3054L31.0819 15.3054ZM33.9517 14.7815C33.0438 15.1493 32.0702 15.3276 31.0909 15.3055L31.0683 16.3053C32.1839 16.3304 33.2928 16.1273 34.3271 15.7084L33.9517 14.7815ZM36.371 13.1671C35.683 13.8644 34.8597 14.4138 33.9517 14.7815L34.3271 15.7084C35.3614 15.2895 36.2991 14.6638 37.0828 13.8695L36.371 13.1671ZM37.9528 10.7264C37.5973 11.6392 37.059 12.4698 36.371 13.1671L37.0828 13.8695C37.8665 13.0751 38.4797 12.1291 38.8846 11.0893L37.9528 10.7264ZM38.4383 7.85874C38.4735 8.83772 38.3083 9.81356 37.9528 10.7264L38.8846 11.0893C39.2896 10.0495 39.4778 8.93795 39.4377 7.82281L38.4383 7.85874ZM31.0777 0.694755C33.2926 0.703177 35.1275 1.44457 36.4059 2.68714C37.683 3.92846 38.438 5.70198 38.438 7.84078H39.438C39.438 5.45745 38.5913 3.41681 37.1029 1.97007C35.6158 0.524593 33.5214 -0.295961 31.0815 -0.305238L31.0777 0.694755ZM27.1681 0.694758H31.0796V-0.305242H27.1681V0.694758ZM19.8274 7.82308C19.8274 5.65696 20.6086 3.88392 21.8975 2.65124C23.1888 1.41633 25.0203 0.694758 27.1681 0.694758V-0.305242C24.7938 -0.305242 22.705 0.495315 21.2064 1.92855C19.7054 3.364 18.8274 5.40512 18.8274 7.82308H19.8274ZM20.3137 10.703C19.9588 9.79173 19.7932 8.81774 19.8271 7.84041L18.8277 7.80574C18.7891 8.91883 18.9777 10.0281 19.3819 11.0659L20.3137 10.703ZM21.8916 13.1404C21.2055 12.4435 20.6687 11.6142 20.3137 10.703L19.3819 11.0659C19.7862 12.1037 20.3976 13.0483 21.179 13.842L21.8916 13.1404ZM24.304 14.7563C23.3985 14.3871 22.5776 13.8373 21.8916 13.1404L21.179 13.842C21.9603 14.6357 22.8952 15.2619 23.9265 15.6823L24.304 14.7563ZM31.0495 12.3222C31.6303 12.3572 32.212 12.2711 32.7577 12.0694L32.411 11.1314C31.9953 11.2851 31.5521 11.3506 31.1097 11.324L31.0495 12.3222ZM27.1681 12.3231H31.0796V11.3231H27.1681V12.3231ZM25.4959 12.063C26.0385 12.2663 26.6174 12.3546 27.196 12.3223L27.1402 11.3239C26.7 11.3484 26.2595 11.2813 25.8467 11.1266L25.4959 12.063ZM24.0439 11.1414C24.4588 11.5459 24.9532 11.8597 25.4959 12.063L25.8467 11.1266C25.4338 10.9719 25.0576 10.7331 24.742 10.4253L24.0439 11.1414ZM23.0857 9.71326C23.3027 10.2505 23.629 10.7369 24.0439 11.1414L24.742 10.4253C24.4263 10.1176 24.178 9.74757 24.0129 9.33877L23.0857 9.71326ZM22.7834 8.02026C22.7658 8.59945 22.8687 9.17597 23.0857 9.71326L24.0129 9.33877C23.8478 8.92998 23.7695 8.49134 23.7829 8.05067L22.7834 8.02026ZM23.0874 6.34878C22.8715 6.88882 22.7681 7.46718 22.7833 8.04855L23.783 8.02238C23.7713 7.57689 23.8506 7.1337 24.016 6.71987L23.0874 6.34878ZM24.0385 4.9076C23.6268 5.31836 23.3032 5.80874 23.0874 6.34878L24.016 6.71987C24.1813 6.30605 24.4293 5.93028 24.7448 5.61552L24.0385 4.9076ZM25.4819 3.95974C24.9413 4.17432 24.4502 4.49684 24.0385 4.9076L24.7448 5.61552C25.0603 5.30076 25.4366 5.05361 25.8508 4.88918L25.4819 3.95974ZM27.1823 3.65956C26.601 3.64302 26.0224 3.74516 25.4819 3.95974L25.8508 4.88918C26.265 4.72475 26.7084 4.64648 27.1539 4.65916L27.1823 3.65956ZM31.0796 3.65936H27.1681V4.65936H31.0796V3.65936ZM32.7745 3.94478C32.2284 3.73316 31.6446 3.63615 31.0594 3.65977L31.0998 4.65895C31.5479 4.64087 31.9949 4.71516 32.4131 4.87721L32.7745 3.94478ZM34.2337 4.88983C33.8173 4.47808 33.3205 4.15639 32.7745 3.94478L32.4131 4.87721C32.8313 5.03927 33.2117 5.28562 33.5306 5.60094L34.2337 4.88983ZM35.1953 6.33827C34.9775 5.79462 34.6502 5.30159 34.2337 4.88983L33.5306 5.60094C33.8496 5.91627 34.1002 6.29384 34.267 6.71016L35.1953 6.33827ZM35.4997 8.04996C35.5167 7.46455 35.4131 6.88192 35.1953 6.33827L34.267 6.71016C34.4338 7.12648 34.5132 7.57267 34.5002 8.02098L35.4997 8.04996ZM35.1883 9.72105C35.4087 9.18259 35.5148 8.60421 35.4998 8.0226L34.5001 8.04833C34.5115 8.49144 34.4307 8.93208 34.2628 9.34231L35.1883 9.72105ZM34.2197 11.1506C34.6381 10.7463 34.968 10.2595 35.1883 9.72105L34.2628 9.34231C34.095 9.75254 33.8437 10.1234 33.5249 10.4314L34.2197 11.1506ZM32.7577 12.0694C33.3034 11.8677 33.8013 11.5548 34.2197 11.1506L33.5249 10.4314C33.2061 10.7394 32.8268 10.9777 32.411 11.1314L32.7577 12.0694ZM41.146 11.8231V15.7877H42.146V11.8231H41.146ZM53.4956 11.3231H41.646V12.3231H53.4956V11.3231ZM54.4735 10.6195C54.4735 10.8685 54.3858 11.0192 54.2573 11.1203C54.1133 11.2336 53.8654 11.3231 53.4956 11.3231V12.3231C54.0107 12.3231 54.5018 12.2002 54.8755 11.9064C55.2647 11.6003 55.4735 11.1494 55.4735 10.6195H54.4735ZM53.4956 9.86289C53.8741 9.86289 54.1161 9.9611 54.2554 10.0797C54.3848 10.19 54.4735 10.3579 54.4735 10.6195H55.4735C55.4735 10.1024 55.2834 9.64192 54.904 9.31861C54.5343 9.00362 54.0375 8.86289 53.4956 8.86289V9.86289ZM46.5575 9.86289H53.4956V8.86289H46.5575V9.86289ZM40.8894 4.82306C40.8894 6.29712 41.4338 7.57239 42.4421 8.47446C43.4454 9.37212 44.8653 9.86289 46.5575 9.86289V8.86289C45.0551 8.86289 43.8909 8.42888 43.1088 7.72919C42.3317 7.03392 41.8894 6.03928 41.8894 4.82306H40.8894ZM46.5929 -0.287556C44.8175 -0.287556 43.3842 0.220618 42.3902 1.14225C41.3929 2.0668 40.8894 3.36006 40.8894 4.82306H41.8894C41.8894 3.5958 42.3062 2.58375 43.0701 1.87556C43.8371 1.16445 45.0056 0.712444 46.5929 0.712444V-0.287556ZM57.9292 -0.287556H46.5929V0.712444H57.9292V-0.287556ZM58.4292 4.15935V0.212444H57.4292V4.15935H58.4292ZM46.5929 4.65935H57.9292V3.65935H46.5929V4.65935ZM46.3226 4.68824C46.3945 4.66103 46.4717 4.65047 46.5482 4.65734L46.6377 3.66135C46.4106 3.64097 46.1819 3.67229 45.9687 3.75296L46.3226 4.68824ZM46.1331 4.81443C46.1859 4.75859 46.2507 4.71545 46.3226 4.68824L45.9687 3.75296C45.7555 3.83364 45.5634 3.96157 45.4067 4.12716L46.1331 4.81443ZM46.0176 5.01066C46.0408 4.93736 46.0803 4.87027 46.1331 4.81444L45.4067 4.12715C45.25 4.29274 45.1329 4.49166 45.0642 4.70899L46.0176 5.01066ZM45.9992 5.23761C45.9881 5.16154 45.9944 5.08395 46.0176 5.01066L45.0642 4.70899C44.9954 4.92632 44.9768 5.15641 45.0097 5.38197L45.9992 5.23761ZM46.0287 5.58132C46.0037 5.51004 45.9946 5.43417 46.002 5.35901L45.0069 5.26057C44.9851 5.48094 45.0118 5.7034 45.0851 5.91235L46.0287 5.58132ZM46.1467 5.77159C46.094 5.71754 46.0537 5.6526 46.0287 5.58133L45.0851 5.91234C45.1584 6.12129 45.2765 6.31168 45.4312 6.47013L46.1467 5.77159ZM46.3341 5.8942C46.2635 5.86749 46.1995 5.82564 46.1468 5.77159L45.4312 6.47012C45.5859 6.62858 45.7733 6.75126 45.9805 6.82957L46.3341 5.8942ZM46.5557 5.92622C46.4804 5.93184 46.4048 5.92091 46.3341 5.8942L45.9805 6.82958C46.1876 6.90789 46.4093 6.93993 46.6301 6.92345L46.5557 5.92622ZM53.4956 5.92483H46.5929V6.92483H53.4956V5.92483ZM59.2168 11.0355C59.2168 9.35039 58.73 8.03782 57.7061 7.15931C56.6973 6.29367 55.2528 5.92483 53.4956 5.92483V6.92483C55.1366 6.92483 56.3027 7.27281 57.055 7.91823C57.7922 8.55078 58.2168 9.54352 58.2168 11.0355H59.2168ZM53.4956 16.3319C55.3507 16.3319 56.7944 15.7855 57.7754 14.8145C58.7556 13.8444 59.2168 12.5067 59.2168 11.0355H58.2168C58.2168 12.2987 57.8241 13.3593 57.072 14.1038C56.3207 14.8474 55.1538 15.3319 53.4956 15.3319V16.3319ZM41.6442 16.2877L53.4937 16.3319L53.4975 15.3319L41.6479 15.2877L41.6442 16.2877ZM64.6136 3.12836C64.8046 2.45862 65.1703 1.85175 65.6733 1.37006L64.9816 0.647838C64.3505 1.25227 63.8916 2.01376 63.6519 2.85414L64.6136 3.12836ZM60.7709 15.9314L64.6117 3.13498L63.6539 2.84751L59.8132 15.644L60.7709 15.9314ZM64.6018 15.2877H60.2921V16.2877H64.6018V15.2877ZM67.3674 3.8235L64.1196 15.6554L65.084 15.9201L68.3317 4.0882L67.3674 3.8235ZM72.1682 3.45585H67.8496V4.45585H72.1682V3.45585ZM73.845 8.17753L72.6503 3.82354L71.686 4.08815L72.8807 8.44214L73.845 8.17753ZM74.8886 11.9097L73.8444 8.17519L72.8813 8.44448L73.9256 12.179L74.8886 11.9097ZM75.9415 15.6523L74.8884 11.9089L73.9258 12.1798L74.9789 15.9231L75.9415 15.6523ZM79.7257 15.2877H75.4602V16.2877H79.7257V15.2877ZM75.4236 3.13437L79.2466 15.9308L80.2048 15.6446L76.3818 2.84812L75.4236 3.13437ZM74.3232 1.38306C74.8481 1.84848 75.2292 2.45403 75.4219 3.12857L76.3834 2.85392C76.1385 1.99637 75.6539 1.22653 74.9866 0.634835L74.3232 1.38306ZM72.2995 0.711853C73.0393 0.674586 73.7659 0.91769 74.3343 1.39263L74.9755 0.625262C74.2139 -0.0110912 73.2404 -0.336813 72.2492 -0.28688L72.2995 0.711853ZM67.6283 0.712487H72.2744V-0.287513H67.6283V0.712487ZM65.6587 1.38346C66.1916 0.912112 66.8893 0.670617 67.5995 0.711654L67.6572 -0.286681C66.6834 -0.342947 65.7268 -0.0118326 64.9962 0.634434L65.6587 1.38346ZM105.557 0.647986C104.926 1.25253 104.47 2.01551 104.235 2.857L105.198 3.12542C105.385 2.45664 105.748 1.85028 106.249 1.36983L105.557 0.647986ZM108.232 -0.28675C107.259 -0.341874 106.303 -0.0110274 105.572 0.63402L106.233 1.3838C106.767 0.912925 107.465 0.67141 108.175 0.71165L108.232 -0.28675ZM112.858 -0.28755H108.204V0.71245H112.858V-0.28755ZM115.56 0.625225C114.798 -0.0111275 113.824 -0.336849 112.833 -0.286916L112.884 0.711817C113.623 0.67455 114.35 0.917654 114.918 1.3926L115.56 0.625225ZM116.959 2.85574C116.718 1.99851 116.236 1.22818 115.572 0.635646L114.906 1.38218C115.429 1.84777 115.807 2.45308 115.997 3.12668L116.959 2.85574ZM120.833 15.6427L116.956 2.84626L115.999 3.13616L119.875 15.9326L120.833 15.6427ZM116.08 16.2877H120.354V15.2877H116.08V16.2877ZM114.554 12.1787L115.598 15.922L116.561 15.6533L115.517 11.91L114.554 12.1787ZM113.51 8.44444L114.554 12.179L115.517 11.9097L114.473 8.17515L113.51 8.44444ZM112.263 4.09356L113.51 8.44754L114.472 8.17205L113.224 3.81807L112.263 4.09356ZM108.425 4.45581H112.743V3.45581H108.425V4.45581ZM105.623 15.9214L108.907 4.0895L107.943 3.82212L104.66 15.654L105.623 15.9214ZM100.885 16.2877H105.142V15.2877H100.885V16.2877ZM104.238 2.84778L100.406 15.6442L101.364 15.9311L105.196 3.13464L104.238 2.84778ZM85.3407 6.45142V15.7877H86.3407V6.45142H85.3407ZM95.634 14.945L86.1827 6.08661L85.4988 6.81623L94.9501 15.6746L95.634 14.945ZM96.1848 15.3646C95.9873 15.275 95.8113 15.1442 95.6686 14.9809L94.9155 15.6388C95.1522 15.9097 95.4442 16.1268 95.7718 16.2753L96.1848 15.3646ZM96.8136 15.5001C96.5967 15.5004 96.3823 15.4542 96.1848 15.3646L95.7718 16.2753C96.0994 16.4239 96.4551 16.5006 96.8148 16.5001L96.8136 15.5001ZM98.2788 13.6638C98.2788 14.2923 98.1065 14.752 97.8568 15.0458C97.6138 15.3318 97.2655 15.5001 96.8142 15.5001V16.5001C97.5399 16.5001 98.1739 16.217 98.6189 15.6933C99.0573 15.1774 99.2788 14.4689 99.2788 13.6638H98.2788ZM98.2788 9.15527e-05V13.6638H99.2788V9.15527e-05H98.2788ZM95.0177 0.500092H98.7788V-0.499908H95.0177V0.500092ZM95.5177 9.36292V9.15527e-05H94.5177V9.36292H95.5177ZM85.2542 1.04927L94.679 9.73068L95.3565 8.99516L85.9317 0.313748L85.2542 1.04927ZM84.6982 0.639366C84.8976 0.72863 85.0766 0.857845 85.2241 1.01902L85.9618 0.343995C85.7221 0.0819069 85.431 -0.128204 85.1068 -0.27335L84.6982 0.639366ZM84.0648 0.500055C84.2832 0.502688 84.4988 0.550101 84.6982 0.639366L85.1068 -0.27335C84.7826 -0.418495 84.4321 -0.495592 84.0769 -0.499872L84.0648 0.500055ZM82.6062 2.33637C82.6062 1.695 82.7762 1.23679 83.0217 0.947566C83.2596 0.667296 83.606 0.500092 84.0708 0.500092V-0.499908C83.341 -0.499908 82.705 -0.224635 82.2593 0.300405C81.8212 0.81649 81.6062 1.52642 81.6062 2.33637H82.6062ZM82.6062 15.7877V2.33637H81.6062V15.7877H82.6062ZM85.8407 15.2877H82.1062V16.2877H85.8407V15.2877Z" fill="white" mask="url(#path-1-inside-1)"/>
</g>
<defs>
<clipPath id="clip0">
<rect width="120.31" height="16" fill="white"/>
</clipPath>
</defs>
</svg>
