<svg width="1404" height="320" viewBox="0 0 1404 320" fill="none" xmlns="http://www.w3.org/2000/svg" style="">
<g clip-path="url(#clip0_1629_3583)">
<path d="M0.761719 108.223V318.74" stroke="#10E80C" stroke-width="1.52504" stroke-linecap="round" stroke-linejoin="round" class="NfFOcsZP_0"></path>
<path d="M1.84766 261.184L122.662 244.729L247.837 227.664L349.451 189.568L434.792 69.334" stroke="#10E80C" stroke-width="1.52504" stroke-linecap="round" stroke-linejoin="round" class="NfFOcsZP_1"></path>
<path d="M87.4902 156.914L88.5425 156.243L100.819 148.374L141.004 122.585L150.292 116.622L184.651 94.5703" stroke="#10E80C" stroke-width="1.52504" stroke-linecap="round" stroke-linejoin="round" class="NfFOcsZP_2"></path>
<path d="M635.183 101.189L574.608 172.882L501.574 220.173L412.466 235.378L300.634 254.456L156.06 279.116L1.84766 305.423" stroke="#10E80C" stroke-width="1.52504" stroke-linecap="round" stroke-linejoin="round" class="NfFOcsZP_3"></path>
<path d="M533.219 8.05632L473.955 7.24805L401.653 58.8403L314.024 172.227L209.299 225.863L81.3329 242.455L1.84766 252.765" stroke="#10E80C" stroke-width="1.52504" stroke-linecap="round" stroke-linejoin="round" class="NfFOcsZP_4"></path>
<path d="M382.849 15.1016L376.032 18.6092L373.15 20.1037L360.873 26.4174L351.891 31.0383L323.266 45.7702L312.682 51.2146L305.713 54.8137L261.974 97.9572L211.968 147.277L99.9079 209.118L1.84766 217.094" stroke="#10E80C" stroke-width="1.52504" stroke-linecap="round" stroke-linejoin="round" class="NfFOcsZP_5"></path>
<path d="M814.068 -30.4375L793.678 39.135L792.901 41.819L770.193 110.522L769.354 113.1L754.744 135.411" stroke="#10E80C" stroke-width="1.52504" stroke-linecap="round" stroke-linejoin="round" class="NfFOcsZP_6"></path>
<path d="M869.792 -92.3203L852.148 -35.2379L832.81 40.7397L811.2 115.696L786.784 154.249L785.076 154.218" stroke="#10E80C" stroke-width="1.52504" stroke-linecap="round" stroke-linejoin="round" class="NfFOcsZP_7"></path>
<path d="M592.512 22.1934L536.101 26.3262L468.587 85.3606L385.686 212.381L287.381 229.523L165.195 247.046L9.04586 269.449L1.84766 270.486" stroke="#10E80C" stroke-width="1.52504" stroke-linecap="round" stroke-linejoin="round" class="NfFOcsZP_8"></path>
<path d="M872.873 317.868L925.304 288.618L994.877 292.431L1067.12 296.38L1142.18 300.483L1162.68 270.485L1178.16 247.854L1237.31 250.263L1298.25 252.764L1361.09 255.341L1414.32 257.507" stroke="#10E80C" stroke-width="1.52504" stroke-linecap="round" stroke-linejoin="round" class="NfFOcsZP_9"></path>
<path d="M699.052 84.125L695.91 82.2034L695.895 81.9594L694.431 81.3189L684.793 75.4017L675.322 67.8223L669.664 63.9334L666.34 62.0729L663.793 60.6393L660.361 58.7178L658.745 57.818L652.248 54.1731L647.597 51.5653L647.246 51.3671L645.507 50.391L644.531 49.8573L622.967 37.7637L568.416 44.4281L503.114 107.58L423.339 216.971L327.978 231.414L208.994 249.44L56.3832 272.559L1.84766 280.825" stroke="#10E80C" stroke-width="1.52504" stroke-linecap="round" stroke-linejoin="round" class="NfFOcsZP_10"></path>
<path d="M54.6142 158.639L4.08947 161.613L1.84766 161.75" stroke="#10E80C" stroke-width="1.52504" stroke-linecap="round" stroke-linejoin="round" class="NfFOcsZP_11"></path>
<path d="M1414.32 177.045L1394.68 176.618L1360.52 175.871L1326.92 175.139L1293.85 174.422L1261.3 173.721L1229.29 173.019L1197.77 172.333L1166.73 171.662L1136.19 171.006L1106.11 170.35L1076.5 169.694L1047.32 169.069L1018.58 168.444L990.271 167.819L962.393 167.224L934.912 166.629L911.853 171.89L883.213 171.219L855.182 177.106L823.004 183.893L785.656 191.746L741.811 200.973L705.347 178.021L669.798 137.836L635.18 101.189" stroke="#10E80C" stroke-width="1.52504" stroke-linecap="round" stroke-linejoin="round" class="NfFOcsZP_12"></path>
<path d="M491.399 7.82922L473.647 7.46321L442.658 6.04492" stroke="#10E80C" stroke-width="1.52504" stroke-linecap="round" stroke-linejoin="round" class="NfFOcsZP_13"></path>
<path d="M729.065 110.614L716.971 104.484L703.642 97.7278L685.769 88.6843L680.995 84.3379L663.35 68.325L654.017 59.8457L601.418 69.2857L538.419 136.647L461.984 218.557L369.658 233.365L254.12 251.91L105.368 275.777L1.84766 292.4" stroke="#10E80C" stroke-width="1.52504" stroke-linecap="round" stroke-linejoin="round" class="NfFOcsZP_14"></path>
<path d="M1.84766 157.083L19.0654 156.138L65.7317 153.545" stroke="#10E80C" stroke-width="1.52504" stroke-linecap="round" stroke-linejoin="round" class="NfFOcsZP_15"></path>
<path d="M1044.49 317.867L1067.12 296.379L1097.61 267.449L1162.68 270.484L1229.98 273.641L1299.61 276.905L1371.72 280.275L1414.33 282.273" stroke="#10E80C" stroke-width="1.52504" stroke-linecap="round" stroke-linejoin="round" class="NfFOcsZP_16"></path>
<path d="M996.873 -78.5664L985.207 -41.0961L972.93 26.2346L959.556 112.293L943.558 153.271L924.998 156.9L901.223 156.443L877.752 155.985L854.572 155.543L831.696 155.101L806.396 158.944L799.045 160.042" stroke="#10E80C" stroke-width="1.52504" stroke-linecap="round" stroke-linejoin="round" class="NfFOcsZP_17"></path>
<path d="M701.246 317.869L707.499 315.398L745.03 317.869" stroke="#10E80C" stroke-width="1.52504" stroke-linecap="round" stroke-linejoin="round" class="NfFOcsZP_18"></path>
<path d="M898.48 152.447L916.018 78.8485L931.467 -5.47111L945.589 -70.3922L958.903 -104.889" stroke="#10E80C" stroke-width="1.52504" stroke-linecap="round" stroke-linejoin="round" class="NfFOcsZP_19"></path>
<path d="M529.631 317.868L567.787 306.201L670.865 274.709L748.154 251.086L808.256 232.709L856.341 218.023L895.672 206.006L936.268 207.333L977.765 208.69L1020.19 210.078L1043.28 199.402L1062.72 190.405L1099.6 191.411L1137.18 192.433L1175.5 193.47L1214.57 194.537L1254.44 195.62L1295.1 196.733L1336.59 197.862L1378.93 199.006L1414.32 199.967" stroke="#10E80C" stroke-width="1.52504" stroke-linecap="round" stroke-linejoin="round" class="NfFOcsZP_20"></path>
<path d="M940.34 -113.795L926.218 -81.342L911.181 -18.6475L894.726 63.5219L876.227 143.983L854.571 155.543L830.384 159.417L806.395 158.944L795.217 158.7" stroke="#10E80C" stroke-width="1.52504" stroke-linecap="round" stroke-linejoin="round" class="NfFOcsZP_21"></path>
<path d="M922.058 -119.164L907.159 -88.4954L891.222 -27.875L873.775 52.1135L854.224 130.73L831.699 155.1L809.098 154.673L791.072 157.25" stroke="#10E80C" stroke-width="1.52504" stroke-linecap="round" stroke-linejoin="round" class="NfFOcsZP_22"></path>
<path d="M675.32 67.8224L686.56 42.9184L704.311 29.4828L704.967 28.1407L728.102 -18.0376L730.313 -20.5997L749.91 -43.1855" stroke="#10E80C" stroke-width="1.52504" stroke-linecap="round" stroke-linejoin="round" class="NfFOcsZP_23"></path>
<path d="M904.014 -121.238L888.352 -92.0337L871.561 -33.2738L853.138 44.6712L832.55 121.442L809.095 154.673L786.784 154.246L785.457 154.429" stroke="#10E80C" stroke-width="1.52504" stroke-linecap="round" stroke-linejoin="round" class="NfFOcsZP_24"></path>
<path d="M685.141 74.5648L704.31 29.4845L722.199 16.5674L722.977 14.9356L745.273 -31.9747L747.576 -34.7045L766.456 -57.1074" stroke="#10E80C" stroke-width="1.52504" stroke-linecap="round" stroke-linejoin="round" class="NfFOcsZP_25"></path>
<path d="M706.598 90.7911L715.672 69.5473L716.312 67.8545L740.24 4.44317L741.094 2.53686L762.582 -45.136L764.87 -47.9421L783.109 -70.3145" stroke="#10E80C" stroke-width="1.52504" stroke-linecap="round" stroke-linejoin="round" class="NfFOcsZP_26"></path>
<path d="M718.311 101.113L734.689 60.2574L758.434 -6.63097L759.349 -8.76604L780.044 -57.2624L782.271 -60.099L799.916 -82.5781" stroke="#10E80C" stroke-width="1.52504" stroke-linecap="round" stroke-linejoin="round" class="NfFOcsZP_27"></path>
<path d="M868.588 -116.861L851.477 -89.7461L832.994 -34.1735L812.726 39.9131L790.14 113.039L769.766 145.766" stroke="#10E80C" stroke-width="1.52504" stroke-linecap="round" stroke-linejoin="round" class="NfFOcsZP_28"></path>
<path d="M731.199 112.658L753.892 52.3275L754.624 50.1162L776.798 -16.33L777.744 -18.6785L797.645 -68.0899L799.78 -70.9265L816.846 -93.6191" stroke="#10E80C" stroke-width="1.52504" stroke-linecap="round" stroke-linejoin="round" class="NfFOcsZP_29"></path>
<path d="M647.596 51.5649L660.65 40.4169L677.334 25.868L694.125 11.1208L711.053 -3.59586L728.103 -18.038L745.275 -31.9769L762.584 -45.138L780.046 -57.2621L797.645 -68.0899L815.411 -77.3012L833.346 -84.6367L851.174 -111.035" stroke="#10E80C" stroke-width="1.52504" stroke-linecap="round" stroke-linejoin="round" class="NfFOcsZP_30"></path>
<path d="M695.893 81.9602L696.838 79.8861L697.402 78.4678L722.2 16.5663L740.241 4.44224L758.435 -6.62957L776.796 -16.3289L795.341 -24.3658L796.301 -26.9279L815.41 -77.3001L817.439 -80.1367L833.94 -103.195" stroke="#10E80C" stroke-width="1.52504" stroke-linecap="round" stroke-linejoin="round" class="NfFOcsZP_31"></path>
<path d="M412.527 8.66602L382.849 15.1017L370.786 19.1278L369.139 19.6768L353.584 24.862L353.279 24.9992L348.185 27.2715L335.558 33.0972L321.649 39.0906L318.431 39.9904L281.937 54.6766L281.495 54.8443L258.726 64.0098L244.284 69.8202L242.499 71.2538L205.853 100.794L163.014 135.336L147.047 148.192L138.187 151.197L134.404 152.478L129.189 154.231L123.699 156.092L116.348 158.578L99.6487 164.22L32.0893 187.05L1.84766 182.948" stroke="#10E80C" stroke-width="1.52504" stroke-linecap="round" stroke-linejoin="round" class="NfFOcsZP_32"></path>
<path d="M562.606 12.4959L533.219 8.05798L491.402 7.82922L473.65 7.46321L442.661 6.04492L402.187 32.0317L369.124 53.2755L279.329 159.754L171.722 224.111L41.1633 240.261L1.84766 245.126" stroke="#10E80C" stroke-width="1.52504" stroke-linecap="round" stroke-linejoin="round" class="NfFOcsZP_33"></path>
<path d="M1130.3 317.868L1142.18 300.482L1220.22 304.753L1301.43 309.206L1386 313.827L1414.32 315.382" stroke="#10E80C" stroke-width="1.52504" stroke-linecap="round" stroke-linejoin="round" class="NfFOcsZP_34"></path>
<path d="M50.527 160.5L23.3965 162.147L4.08947 161.613L1.84766 161.552" stroke="#10E80C" stroke-width="1.52504" stroke-linecap="round" stroke-linejoin="round" class="NfFOcsZP_35"></path>
<path d="M615.447 317.869L636.218 310.717L731.137 278.005L801.96 253.604L856.816 234.709L900.569 219.626L945.878 221.273L992.316 222.966L1039.93 224.689L1088.74 226.474L1108.01 212.947L1123.87 201.783L1165.45 203.018L1207.93 204.284L1251.33 205.565L1295.68 206.892L1341.02 208.234L1387.38 209.607L1414.33 210.415" stroke="#10E80C" stroke-width="1.52504" stroke-linecap="round" stroke-linejoin="round" class="NfFOcsZP_36"></path>
<path d="M358.004 317.869L438.831 297.724L556.305 268.443L645.261 246.269L714.94 228.898L771.016 214.929L817.103 203.43L855.656 193.822L888.383 185.663L916.52 178.648L940.952 172.563L962.394 167.226L981.335 162.498L1007.72 163.032L1034.48 163.581L1061.63 164.145L1089.17 164.694L1117.09 165.274L1145.44 165.838L1174.19 166.433L1203.37 167.027L1232.98 167.622L1263.03 168.232L1293.54 168.857L1324.52 169.483L1355.95 170.138L1387.9 170.779L1414.33 171.328" stroke="#10E80C" stroke-width="1.52504" stroke-linecap="round" stroke-linejoin="round" class="NfFOcsZP_37"></path>
<path d="M72.3199 150.541L48.88 151.776L32.0283 151.395L16.4881 130.944L1.84766 109.502" stroke="#10E80C" stroke-width="1.52504" stroke-linecap="round" stroke-linejoin="round" class="NfFOcsZP_38"></path>
<path d="M96.6129 139.315L92.0683 135.518L76.9856 113.389L62.0859 92.4354" stroke="#10E80C" stroke-width="1.52504" stroke-linecap="round" stroke-linejoin="round" class="NfFOcsZP_39"></path>
<path d="M996.877 -78.5664L1016.29 -61.8672L1036.01 -43.2159L1056.03 -22.9328L1076.36 -1.27721L1097 21.4612L1117.95 45.0231L1139.21 69.1493L1146.03 76.8813L1160.77 93.5957L1170.09 104.042L1182.64 118.118L1178.77 147.247L1173.4 150.251L1167.48 153.545L1160.94 157.205L1153.62 161.277L1145.45 165.837L1136.19 171.007L1125.67 176.863L1113.6 183.604L1099.6 191.412L1083.16 200.578L1063.6 211.497L1039.93 224.688L1010.69 241.006L973.681 261.64L925.307 288.618L858.236 284.958L793.559 281.42L731.139 278.004L670.869 274.71L612.612 271.523L556.308 268.442L501.833 265.468L449.112 262.571L398.054 259.78L348.581 257.08L300.634 254.457L254.12 251.91L208.994 249.44L165.195 247.046L122.662 244.728L81.3329 242.455L41.1633 240.259L2.10691 238.124L1.84766 238.109" stroke="#10E80C" stroke-width="1.52504" stroke-linecap="round" stroke-linejoin="round" class="NfFOcsZP_40"></path>
<path d="M62.2089 155.162L37.0609 156.58L19.0654 156.138L1.84766 155.696" stroke="#10E80C" stroke-width="1.52504" stroke-linecap="round" stroke-linejoin="round" class="NfFOcsZP_41"></path>
<path d="M117.627 71.207L132.222 90.9716L146.999 111.941L147.945 113.344" stroke="#10E80C" stroke-width="1.52504" stroke-linecap="round" stroke-linejoin="round" class="NfFOcsZP_42"></path>
<path d="M1163.74 78.5875L1164.09 72.3653L1166.29 48.1934" stroke="#10E80C" stroke-width="1.52504" stroke-linecap="round" stroke-linejoin="round" class="NfFOcsZP_43"></path>
<path d="M168.365 49.8418L182.655 68.6608L197.097 88.6694L197.25 88.8829" stroke="#10E80C" stroke-width="1.52504" stroke-linecap="round" stroke-linejoin="round" class="NfFOcsZP_44"></path>
<path d="M1174.97 91.3853L1176.07 69.1197L1177.97 45.6035" stroke="#10E80C" stroke-width="1.52504" stroke-linecap="round" stroke-linejoin="round" class="NfFOcsZP_45"></path>
<path d="M214.664 33.9355L228.633 52.2056L241.81 70.2926" stroke="#10E80C" stroke-width="1.52504" stroke-linecap="round" stroke-linejoin="round" class="NfFOcsZP_46"></path>
<path d="M1186.32 104.302L1186.77 98.7353L1188.13 65.7029L1189.73 42.9492" stroke="#10E80C" stroke-width="1.52504" stroke-linecap="round" stroke-linejoin="round" class="NfFOcsZP_47"></path>
<path d="M257.107 22.5762L270.772 39.9007L281.737 54.4191" stroke="#10E80C" stroke-width="1.52504" stroke-linecap="round" stroke-linejoin="round" class="NfFOcsZP_48"></path>
<path d="M1198.09 116.714L1199.2 94.6768L1200.22 62.2238L1201.53 40.3242" stroke="#10E80C" stroke-width="1.52504" stroke-linecap="round" stroke-linejoin="round" class="NfFOcsZP_49"></path>
<path d="M898.479 152.447L877.754 155.985L854.695 159.92L828.907 164.327L810.072 163.916" stroke="#10E80C" stroke-width="1.52504" stroke-linecap="round" stroke-linejoin="round" class="NfFOcsZP_50"></path>
<path d="M1210.87 121.914L1211.69 90.6205L1212.39 58.7776L1213.42 37.793" stroke="#10E80C" stroke-width="1.52504" stroke-linecap="round" stroke-linejoin="round" class="NfFOcsZP_51"></path>
<path d="M296.209 14.0801L309.614 29.4373L318.017 39.4873" stroke="#10E80C" stroke-width="1.52504" stroke-linecap="round" stroke-linejoin="round" class="NfFOcsZP_52"></path>
<path d="M1224 122.022L1224.29 86.6258L1224.64 55.4386L1225.39 35.4453" stroke="#10E80C" stroke-width="1.52504" stroke-linecap="round" stroke-linejoin="round" class="NfFOcsZP_53"></path>
<path d="M920.881 152.859L901.223 156.443L879.339 160.424L854.832 164.892L828.906 164.328L817.041 166.341" stroke="#10E80C" stroke-width="1.52504" stroke-linecap="round" stroke-linejoin="round" class="NfFOcsZP_54"></path>
<path d="M814.069 -30.4363L832.995 -34.1727L852.149 -35.2402L871.563 -33.2729L891.221 -27.8743L911.184 -18.6478L931.467 -5.47139L952.055 9.68753L972.933 26.2343L994.146 43.9095L1015.65 62.4388L1004.36 146.606L989.769 154.109L966.527 153.682L943.56 153.27L920.883 152.859L898.48 152.447L876.23 143.983L854.223 130.73L832.552 121.443L811.202 115.693L790.141 113.04L769.355 113.101L748.797 115.48L736.795 118.072" stroke="#10E80C" stroke-width="1.52504" stroke-linecap="round" stroke-linejoin="round" class="NfFOcsZP_55"></path>
<path d="M1237.43 33.3105L1236.98 52.3126L1236.95 82.8287L1237.2 122.144L1235.76 123.166L1222.17 123.044L1208.69 122.922L1203.94 122.876" stroke="#10E80C" stroke-width="1.52504" stroke-linecap="round" stroke-linejoin="round" class="NfFOcsZP_56"></path>
<path d="M1272.95 136.586L1254.35 136.357L1235.91 136.128L1227.46 136.021" stroke="#10E80C" stroke-width="1.52504" stroke-linecap="round" stroke-linejoin="round" class="NfFOcsZP_57"></path>
<path d="M869.795 -92.3203L888.355 -92.0306L907.159 -88.4925L926.222 -81.34L945.59 -70.3902L965.248 -56.8021L985.211 -41.0941L1005.46 -23.5561L1026.04 -4.49307L1046.91 15.8358L1068.11 37.1559L1089.63 59.208L1111.45 81.7481L1133.61 104.548L1156.09 127.362L1150.4 149.872L1143.34 153.135L1135.53 156.75L1126.84 160.761L1117.1 165.275L1106.12 170.353L1093.63 176.118L1079.31 182.737L1062.73 190.407L1026.54 189.431L991.036 188.455L956.189 187.51L921.982 186.58L888.386 185.665L855.399 184.765L823.007 183.896L792.979 172.61L791.103 171.909L781.648 162.362L767.999 148.591L759.733 140.249L754.746 135.414L745.062 126.066L742.729 123.824L736.796 118.075L731.2 112.661L729.064 110.617L718.313 101.116L706.601 90.7916L699.052 84.1272L695.91 82.2056L694.431 81.3211L684.792 75.4039L674.056 70.6458L660.407 63.2951L654.017 59.8485L650.372 57.2559L642.686 51.7963L622.967 37.7659L592.512 22.1952L562.606 12.4959L504.395 14.3107L473.955 7.24976L442.661 6.04498L412.527 8.66805L391.161 20.9904L360.279 38.7877L337.159 52.1165L305.712 54.8159L274.769 60.8703L244.284 69.8223L242.072 70.6611L214.256 81.1991L211.236 83.3799L199.432 91.9049L155.313 123.763L115.448 152.556L83.8797 159.556L69.8646 163.414L55.4834 166.83L1.84766 179.61" stroke="#10E80C" stroke-width="1.52504" stroke-linecap="round" stroke-linejoin="round" class="NfFOcsZP_58"></path>
<path d="M332.244 11.7441L345.421 24.4478L348.059 27.1318" stroke="#10E80C" stroke-width="1.52504" stroke-linecap="round" stroke-linejoin="round" class="NfFOcsZP_59"></path>
<path d="M1249.56 31.4668L1249.39 49.4471L1249.7 79.2922L1250.51 122.268L1249.42 123.305L1236.48 122.664L1224 122.024L1210.87 121.917L1202.97 121.841" stroke="#10E80C" stroke-width="1.52504" stroke-linecap="round" stroke-linejoin="round" class="NfFOcsZP_60"></path>
<path d="M644.531 49.8581L653.087 42.8734L665.76 32.2744L668.947 29.2853L681.864 18.0915L684.914 15.1177L698.701 2.85631L700.988 0.583989L715.919 -12.8364L717.184 -14.1174L733.457 -28.7578L733.487 -28.7731L749.912 -43.1847L766.458 -57.1084L783.112 -70.3153L799.918 -82.5766L816.846 -93.6179L833.942 -103.195L851.175 -111.034L868.591 -116.86L886.205 -120.367" stroke="#10E80C" stroke-width="1.52504" stroke-linecap="round" stroke-linejoin="round" class="NfFOcsZP_61"></path>
<path d="M1413.35 132.911L1395.49 132.698L1377.77 132.499L1360.22 132.301L1342.82 132.118L1325.54 131.92" stroke="#10E80C" stroke-width="1.52504" stroke-linecap="round" stroke-linejoin="round" class="NfFOcsZP_62"></path>
<path d="M1414.32 142.747L1396.85 142.503L1375.44 142.213L1354.25 141.939L1333.28 141.649L1312.53 141.375L1291.97 141.085L1271.64 140.81L1251.5 140.536L1231.55 140.261L1226.8 138.02" stroke="#10E80C" stroke-width="1.52504" stroke-linecap="round" stroke-linejoin="round" class="NfFOcsZP_63"></path>
<path d="M1216.18 132.301L1222.66 132.377L1239.65 132.575L1256.8 132.774" stroke="#10E80C" stroke-width="1.52504" stroke-linecap="round" stroke-linejoin="round" class="NfFOcsZP_64"></path>
<path d="M1261.76 29.957L1261.9 46.9308L1262.52 76.0896L1263.74 119.126L1263.18 123.427" stroke="#10E80C" stroke-width="1.52504" stroke-linecap="round" stroke-linejoin="round" class="NfFOcsZP_65"></path>
<path d="M787.059 317.868L858.232 284.958L914.628 258.88L957.97 238.84L992.314 222.965L1020.19 210.078L1063.59 211.496L1108 212.945L1153.45 214.425L1199.95 215.95L1247.58 217.505L1296.36 219.091L1346.34 220.723L1397.55 222.4L1414.32 222.949" stroke="#10E80C" stroke-width="1.52504" stroke-linecap="round" stroke-linejoin="round" class="NfFOcsZP_66"></path>
<path d="M1274.07 28.8125L1274.48 44.8102L1275.47 73.3133L1277.06 115.74L1277.04 123.548L1276.69 124.661L1276.32 125.836L1275.94 127.086L1275.52 128.413L1275.07 129.831L1274.6 131.356L1274.08 132.973L1273.55 134.711L1272.95 136.587L1272.31 138.616L1271.64 140.812L1270.88 143.206L1270.07 145.799L1269.17 148.65L1268.2 151.792L1267.11 155.254L1265.89 159.097L1264.55 163.398L1263.03 168.232L1261.3 173.722L1259.35 179.975L1257.09 187.203L1254.44 195.622L1251.33 205.565L1247.58 217.506L1243.02 232.07L1237.31 250.264L1229.98 273.643L1220.22 304.754L1216.1 317.869" stroke="#10E80C" stroke-width="1.52504" stroke-linecap="round" stroke-linejoin="round" class="NfFOcsZP_67"></path>
<path d="M1209.89 129.129L1211.23 129.144L1227 129.312L1242.91 129.479" stroke="#10E80C" stroke-width="1.52504" stroke-linecap="round" stroke-linejoin="round" class="NfFOcsZP_68"></path>
<path d="M1154.65 50.666L1153.08 66.374" stroke="#10E80C" stroke-width="1.52504" stroke-linecap="round" stroke-linejoin="round" class="NfFOcsZP_69"></path>
<path d="M100.576 317.87L262.993 286.149L398.051 259.781L501.678 239.543L583.71 223.53L650.263 210.537L689.594 211.971L729.824 213.435L771.016 214.929L813.168 216.454L856.342 218.025L900.568 219.626L936.269 207.334L965.962 197.101L991.034 188.454L1012.51 181.058L1031.08 174.668L1047.32 169.071L1061.63 164.145L1074.35 159.753L1085.71 155.849L1095.93 152.326L1119.5 152.723L1143.34 153.134L1167.48 153.546L1191.93 153.958L1216.66 154.385L1241.74 154.812L1267.11 155.254L1292.79 155.697L1318.83 156.139L1345.18 156.596L1371.88 157.054L1398.92 157.511L1414.32 157.771" stroke="#10E80C" stroke-width="1.52504" stroke-linecap="round" stroke-linejoin="round" class="NfFOcsZP_70"></path>
<path d="M1291.21 127.239L1276.12 126.461L1262.03 125.103L1248.26 124.387" stroke="#10E80C" stroke-width="1.52504" stroke-linecap="round" stroke-linejoin="round" class="NfFOcsZP_71"></path>
<path d="M1301.92 317.868L1301.43 309.206L1299.61 276.906L1298.25 252.764L1297.2 234.037L1296.36 219.091L1295.68 206.891L1295.1 196.734L1294.63 188.148L1294.21 180.798L1293.85 174.423L1293.54 168.856L1293.25 163.946L1293.02 159.599L1292.8 155.695L1292.61 152.188L1292.41 149.016L1292.26 146.133L1292.11 143.495L1291.97 141.085L1291.85 138.874L1291.73 136.831L1291.64 134.924L1291.53 133.17L1291.44 131.539L1291.36 130.014L1291.27 128.58L1291.21 127.238L1291.13 125.987L1291.06 124.798L1291 123.685L1290.48 112.811L1288.49 71.0249L1287.17 43.1319L1286.45 28.0645" stroke="#10E80C" stroke-width="1.52504" stroke-linecap="round" stroke-linejoin="round" class="NfFOcsZP_72"></path>
<path d="M1414.32 134.604L1399.41 134.421L1381.03 134.207L1362.82 134.009L1344.77 133.796L1326.86 133.582L1309.51 134.268L1291.68 135.885L1273.24 135.656L1255.63 134.497L1237.85 134.284L1221.59 134.085" stroke="#10E80C" stroke-width="1.52504" stroke-linecap="round" stroke-linejoin="round" class="NfFOcsZP_73"></path>
<path d="M1387.73 317.869L1386.01 313.828L1371.72 280.277L1361.09 255.342L1352.87 236.066L1346.34 220.724L1341.02 208.234L1336.59 197.863L1332.86 189.11L1329.69 181.622L1326.93 175.14L1324.52 169.482L1322.4 164.511L1320.51 160.088L1318.83 156.138L1317.32 152.585L1315.95 149.382L1314.7 146.469L1313.57 143.801L1312.53 141.376L1311.57 139.134L1310.7 137.06L1309.88 135.154L1309.13 133.385L1308.43 131.722L1307.77 130.182L1307.15 128.749L1306.58 127.391L1306.03 126.125L1305.53 124.936L1305.06 123.823L1304 110.402L1301.64 69.2718L1299.96 41.9735L1298.94 27.7754" stroke="#10E80C" stroke-width="1.52504" stroke-linecap="round" stroke-linejoin="round" class="NfFOcsZP_74"></path>
<path d="M1305.06 123.821L1291 123.684L1277.04 123.547" stroke="#10E80C" stroke-width="1.52504" stroke-linecap="round" stroke-linejoin="round" class="NfFOcsZP_75"></path>
<path d="M831.363 175.169L855.001 170.564L881.141 165.455L904.321 160.926L925.001 156.899L949.081 157.357L973.482 157.83L989.77 154.109L1013.3 154.52L1026.92 151.135" stroke="#10E80C" stroke-width="1.52504" stroke-linecap="round" stroke-linejoin="round" class="NfFOcsZP_76"></path>
<path d="M1414.33 151.685L1412.8 150.876L1388.16 150.495L1383.52 147.475L1360.32 147.14L1337.39 146.804L1314.69 146.469L1292.26 146.133L1270.07 145.798L1248.11 145.478L1226.39 145.157L1204.81 142.504L1186.82 122.724L1182.64 118.118L1186.68 104.729" stroke="#10E80C" stroke-width="1.52504" stroke-linecap="round" stroke-linejoin="round" class="NfFOcsZP_77"></path>
<path d="M1414.33 154.17L1393.26 153.819L1388.16 150.494L1363.8 150.113L1339.74 149.747L1315.94 149.381L1292.41 149.015L1269.17 148.649L1246.19 148.298L1223.47 147.948L1200.99 147.597L1178.77 147.246L1156.09 127.359L1160.77 93.595L1165.71 80.8456" stroke="#10E80C" stroke-width="1.52504" stroke-linecap="round" stroke-linejoin="round" class="NfFOcsZP_78"></path>
<path d="M1311.54 27.9434L1312.86 41.3485L1314.89 68.113L1317.64 108.572L1319.19 123.945" stroke="#10E80C" stroke-width="1.52504" stroke-linecap="round" stroke-linejoin="round" class="NfFOcsZP_79"></path>
<path d="M1127.66 149.505L1133.61 104.547L1139.21 69.1503L1145.02 57.133" stroke="#10E80C" stroke-width="1.52504" stroke-linecap="round" stroke-linejoin="round" class="NfFOcsZP_80"></path>
<path d="M1124.61 33.8145L1117.95 45.0235L1111.45 81.7466L1104.89 140.339L1095.93 152.326L1072.65 151.914L1049.66 151.533L1026.92 151.136L1004.36 146.607L981.808 129.465L959.557 112.293L937.642 95.35L916.017 78.849L894.728 63.5223L873.774 52.115L853.14 44.6728L832.811 40.7382L812.726 39.9146L792.9 41.8209L773.288 46.0758L749.62 113.147L748.796 115.481L742.727 123.823" stroke="#10E80C" stroke-width="1.52504" stroke-linecap="round" stroke-linejoin="round" class="NfFOcsZP_81"></path>
<path d="M1337.68 127.711L1353.42 127.879L1369.26 128.031L1385.24 128.199L1401.33 128.367L1414.33 128.489" stroke="#10E80C" stroke-width="1.52504" stroke-linecap="round" stroke-linejoin="round" class="NfFOcsZP_82"></path>
<path d="M1049.66 151.531L1037.14 154.963L1013.3 154.52L998.202 158.287L973.481 157.83L955.303 161.963L929.636 161.444L907.828 166.034L883.214 171.22L855.001 170.564L827.214 169.908L816.859 171.723" stroke="#10E80C" stroke-width="1.52504" stroke-linecap="round" stroke-linejoin="round" class="NfFOcsZP_83"></path>
<path d="M1324.23 28.5977L1325.87 41.3013L1328.27 67.5778L1331.41 107.366L1333.45 124.081" stroke="#10E80C" stroke-width="1.52504" stroke-linecap="round" stroke-linejoin="round" class="NfFOcsZP_84"></path>
<path d="M1104.5 11.1523L1096.99 21.4616L1089.63 59.2065L1082.11 120.757L1072.66 151.914L1061.28 155.391L1037.14 154.964L1023.24 158.777L998.202 158.288L981.335 162.498L955.303 161.964L934.913 166.63L907.828 166.036L881.14 165.456L854.833 164.892L827.215 169.909L812.971 169.574" stroke="#10E80C" stroke-width="1.52504" stroke-linecap="round" stroke-linejoin="round" class="NfFOcsZP_85"></path>
<path d="M1414.33 145.233L1401.68 145.05L1379.3 144.73L1357.15 144.425L1335.25 144.104L1313.57 143.799L1292.11 143.494L1270.88 143.204L1249.88 142.899L1229.08 142.61L1222.11 137.958L1218.36 134.741L1214.12 132.27L1211.1 130.638L1209.94 129.876L1208.83 129.113L1207.94 128.549" stroke="#10E80C" stroke-width="1.52504" stroke-linecap="round" stroke-linejoin="round" class="NfFOcsZP_86"></path>
<path d="M1049.66 151.532L1059.63 101.099L1068.11 37.1542L1076.36 -1.27693L1084.67 -10.5645" stroke="#10E80C" stroke-width="1.52504" stroke-linecap="round" stroke-linejoin="round" class="NfFOcsZP_87"></path>
<path d="M1237.21 122.145L1250.51 122.267L1263.74 119.126L1277.06 115.74L1290.48 112.812L1304 110.403L1317.64 108.573L1331.41 107.368L1345.29 106.834L1359.3 107.002L1373.45 107.917L1387.74 109.564L1402.17 111.989L1414.33 114.642" stroke="#10E80C" stroke-width="1.52504" stroke-linecap="round" stroke-linejoin="round" class="NfFOcsZP_88"></path>
<path d="M920.883 152.858L937.643 95.3486L952.055 9.68696L965.246 -56.8049L977.752 -93.0094L989.891 -95.541" stroke="#10E80C" stroke-width="1.52504" stroke-linecap="round" stroke-linejoin="round" class="NfFOcsZP_89"></path>
<path d="M1337.02 29.7422L1338.99 41.8663L1341.75 67.7158L1345.29 106.833L1347.79 124.219" stroke="#10E80C" stroke-width="1.52504" stroke-linecap="round" stroke-linejoin="round" class="NfFOcsZP_90"></path>
<path d="M1026.92 151.135L1037.49 81.5933L1046.91 15.8334L1056.03 -22.9332L1065.15 -31.1074" stroke="#10E80C" stroke-width="1.52504" stroke-linecap="round" stroke-linejoin="round" class="NfFOcsZP_91"></path>
<path d="M1389.3 39.2129L1402.66 42.7357L1414.32 46.1671" stroke="#10E80C" stroke-width="1.52504" stroke-linecap="round" stroke-linejoin="round" class="NfFOcsZP_92"></path>
<path d="M1016.47 57.1912L1026.03 -4.49682L1036.01 -43.2177L1045.9 -50.1719" stroke="#10E80C" stroke-width="1.52504" stroke-linecap="round" stroke-linejoin="round" class="NfFOcsZP_93"></path>
<path d="M1127.66 149.504L1104.89 140.339L1082.11 120.757L1059.63 101.099L1037.49 81.594L1015.65 62.4395L1016.47 57.1934" stroke="#10E80C" stroke-width="1.52504" stroke-linecap="round" stroke-linejoin="round" class="NfFOcsZP_94"></path>
<path d="M1026.95 -67.4648L1016.29 -61.8679L1005.46 -23.5588L994.145 43.9091L981.807 129.464L966.526 153.682L949.08 157.357L929.635 161.444L904.32 160.926L879.339 160.422L854.695 159.919L830.386 159.416L807.678 163.076" stroke="#10E80C" stroke-width="1.52504" stroke-linecap="round" stroke-linejoin="round" class="NfFOcsZP_95"></path>
<path d="M1402.66 42.7344L1406.44 54.035L1411.17 79.0762L1414.32 99.4813" stroke="#10E80C" stroke-width="1.52504" stroke-linecap="round" stroke-linejoin="round" class="NfFOcsZP_96"></path>
<path d="M1414.32 129.878L1405.07 129.771L1401.33 128.368L1397.82 127.041L1382.25 126.888L1379.43 125.653L1364.44 125.501L1362.24 124.342L1359.3 107.002L1355.37 68.5403L1352.22 43.0416L1349.92 31.375" stroke="#10E80C" stroke-width="1.52504" stroke-linecap="round" stroke-linejoin="round" class="NfFOcsZP_97"></path>
<path d="M443.816 317.868L502.043 301.885L612.608 271.522L695.937 248.646L760.98 230.788L813.167 216.453L855.959 204.71L891.691 194.888L921.978 186.577L947.965 179.44L970.521 173.248L1000.56 173.95L1031.08 174.666L1062.1 175.383L1093.62 176.115L1125.66 176.862L1158.25 177.625L1191.39 178.387L1225.08 179.18L1259.35 179.973L1294.21 180.797L1329.68 181.621L1365.77 182.459L1402.49 183.313L1414.32 183.588" stroke="#10E80C" stroke-width="1.52504" stroke-linecap="round" stroke-linejoin="round" class="NfFOcsZP_98"></path>
<path d="M1414.32 127.193H1413.52L1397.82 127.041L1394.53 125.79L1379.43 125.653L1376.78 124.479L1373.45 107.917L1369.12 70.0802L1365.6 44.8408L1362.93 33.5097" stroke="#10E80C" stroke-width="1.52504" stroke-linecap="round" stroke-linejoin="round" class="NfFOcsZP_99"></path>
<path d="M1413.52 127.191L1409.75 125.925L1394.53 125.788L1391.43 124.613L1387.74 109.561L1383 72.3503L1379.08 47.2785L1376.06 36.1152" stroke="#10E80C" stroke-width="1.52504" stroke-linecap="round" stroke-linejoin="round" class="NfFOcsZP_100"></path>
<path d="M1207.3 126.383L1216.02 126.474L1230.83 126.627L1245.06 127.435L1259.41 128.96L1274.83 130.592L1291.39 130.775L1307.47 129.463L1322.61 128.228L1336.93 127.069L1351.42 126.581L1366.77 126.734L1382.25 126.886L1385.24 128.198L1388.43 129.601L1391.83 131.095L1395.49 132.696L1399.41 134.42L1403.63 136.28L1414.33 136.402" stroke="#10E80C" stroke-width="1.52504" stroke-linecap="round" stroke-linejoin="round" class="NfFOcsZP_101"></path>
<path d="M653.083 42.8711L645.504 50.3896" stroke="#10E80C" stroke-width="1.52504" stroke-linecap="round" stroke-linejoin="round" class="NfFOcsZP_102"></path>
<path d="M14.7773 317.867L19.5812 316.998L30.1803 317.867" stroke="#10E80C" stroke-width="1.52504" stroke-linecap="round" stroke-linejoin="round" class="NfFOcsZP_103"></path>
<path d="M186.393 317.869L319.437 289.869L449.112 262.571L548.179 241.723L626.352 225.283L689.596 211.97L741.813 200.974L779.055 202.194L817.105 203.429L855.963 204.711L895.675 206.007L928.463 195.987L956.189 187.508L979.964 180.249L1000.57 173.95L1018.58 168.445L1034.48 163.58L1048.62 159.264L1061.28 155.391L1085.71 155.848L1110.46 156.29L1135.53 156.748L1160.94 157.205L1186.65 157.663L1212.73 158.136L1239.13 158.608L1265.89 159.096L1293.02 159.6L1320.51 160.088L1348.37 160.591L1376.61 161.11L1405.24 161.628L1414.33 161.781" stroke="#10E80C" stroke-width="1.52504" stroke-linecap="round" stroke-linejoin="round" class="NfFOcsZP_104"></path>
<path d="M1159.36 73.5554L1164.1 72.3659L1176.07 69.1176L1188.13 65.7015L1200.23 62.2244L1212.4 58.7778L1224.64 55.4379L1236.98 52.3116L1249.39 49.4445L1261.9 46.9282L1274.48 44.8084L1287.17 43.1308L1299.96 41.9718L1312.87 41.3465L1325.87 41.3008L1338.99 41.865L1352.23 43.0393L1365.6 44.8389L1379.08 47.2789L1392.7 50.3443L1406.44 54.0349L1414.33 56.475" stroke="#10E80C" stroke-width="1.52504" stroke-linecap="round" stroke-linejoin="round" class="NfFOcsZP_105"></path>
<path d="M1414.32 124.827L1406.18 124.751L1391.43 124.614L1376.78 124.476L1362.24 124.339L1347.79 124.217" stroke="#10E80C" stroke-width="1.52504" stroke-linecap="round" stroke-linejoin="round" class="NfFOcsZP_106"></path>
<path d="M1.84766 132.88L16.4881 130.943L76.9865 113.39L132.224 90.9716L182.657 68.6602L228.637 52.205L270.774 39.8979L309.617 29.4361L345.425 24.4492L353.263 24.9982" stroke="#10E80C" stroke-width="1.52504" stroke-linecap="round" stroke-linejoin="round" class="NfFOcsZP_107"></path>
<path d="M1205 123.973L1206.37 123.988L1220.23 124.125L1233.39 124.827L1246.4 126.153L1260.34 127.587L1275.3 129.127L1291.32 129.295L1306.87 128.075L1321.56 126.916L1335.48 125.818L1349.54 125.36L1351.42 126.58L1353.42 127.877L1355.53 129.249L1357.79 130.729L1360.22 132.299L1362.82 134.007L1365.62 135.822L1384.54 136.051L1388.31 138.034L1392.41 140.184L1396.85 142.502L1401.68 145.049L1406.97 147.824L1414.33 147.931" stroke="#10E80C" stroke-width="1.52504" stroke-linecap="round" stroke-linejoin="round" class="NfFOcsZP_108"></path>
<path d="M1.84766 180.766L29.2832 186.47L32.0893 187.049L65.6402 196.55L99.9079 209.117L135.091 222.385L245.321 151.607L279.329 159.751L314.024 172.226L349.451 189.566L385.686 212.38L423.339 216.971L461.984 218.557L501.574 220.173L542.14 221.836L611.819 209.132L669.801 137.836L718.252 121.625L737.91 130.44L753.435 137.409L759.733 140.246L768.121 148.405L781.953 161.871L792.4 172.043L825.279 176.359L855.186 177.106L885.595 177.869L916.523 178.646L947.969 179.439L979.965 180.248L1012.51 181.056L1045.62 181.895L1079.31 182.733L1113.6 183.603L1148.51 184.472L1184.05 185.372L1220.24 186.272L1225.08 179.18L1229.29 173.019L1232.98 167.62L1236.25 162.862L1239.13 158.607L1241.74 154.81L1244.07 151.394L1246.19 148.298L1248.11 145.477L1249.88 142.899L1251.5 140.536L1252.98 138.37L1254.35 136.357L1255.63 134.496L1256.81 132.773L1257.9 131.157L1258.93 129.662L1259.89 128.244L1260.79 126.932L1261.64 125.697L1262.43 124.523L1263.18 123.425L1276.88 124.111L1291.06 124.797L1305.29 124.37L1319.2 123.943L1320.09 125.072L1321.06 126.276L1322.08 127.557L1323.16 128.915L1324.3 130.363L1325.54 131.919L1326.87 133.581L1328.28 135.366L1329.82 137.302L1331.49 139.392L1333.29 141.649L1335.25 144.104L1337.39 146.803L1339.74 149.747L1342.31 152.995L1345.18 156.594L1348.37 160.59L1351.94 165.073L1355.95 170.137L1360.52 175.871L1365.77 182.459L1371.84 190.084L1378.93 199.006L1387.38 209.605L1397.55 222.4L1410.09 238.138L1414.33 243.476" stroke="#10E80C" stroke-width="1.52504" stroke-linecap="round" stroke-linejoin="round" class="NfFOcsZP_109"></path>
<path d="M1414.32 138.355L1408.19 138.279L1388.31 138.035L1368.63 137.791L1349.14 137.547L1329.82 137.303L1310.7 137.059" stroke="#10E80C" stroke-width="1.52504" stroke-linecap="round" stroke-linejoin="round" class="NfFOcsZP_110"></path>
<path d="M7.59707 169.42L1.84766 169.725" stroke="#10E80C" stroke-width="1.52504" stroke-linecap="round" stroke-linejoin="round" class="NfFOcsZP_111"></path>
<path d="M1.84766 108.554L62.0869 92.4342L117.629 71.2056L168.367 49.8397L214.667 33.9335L257.109 22.572L296.211 14.0775L332.248 11.7441L365.54 16.9598L370.786 19.1254" stroke="#10E80C" stroke-width="1.52504" stroke-linecap="round" stroke-linejoin="round" class="NfFOcsZP_112"></path>
<path d="M365.537 16.9609L369.136 19.6755" stroke="#10E80C" stroke-width="1.52504" stroke-linecap="round" stroke-linejoin="round" class="NfFOcsZP_113"></path>
<path d="M958.672 317.868L994.876 292.431L1034.63 264.492L1064.91 243.218L1088.74 226.473L1138.84 228.287L1190.25 230.148L1243.02 232.07L1297.2 234.037L1352.86 236.065L1410.08 238.139L1414.32 238.292" stroke="#10E80C" stroke-width="1.52504" stroke-linecap="round" stroke-linejoin="round" class="NfFOcsZP_114"></path>
<path d="M200.729 87.3125L197.099 88.6698L185.371 94.1142L174.574 99.1316L170.746 100.916L147.001 111.942L92.0692 135.519L32.0283 151.395L1.84766 152.966" stroke="#10E80C" stroke-width="1.52504" stroke-linecap="round" stroke-linejoin="round" class="NfFOcsZP_115"></path>
<path d="M1414.32 193.47L1411.55 191.076L1402.49 183.313L1394.68 176.618L1387.9 170.777L1381.9 165.653L1376.61 161.109L1371.88 157.052L1367.64 153.407L1363.8 150.113L1360.32 147.139L1357.15 144.425L1354.25 141.939L1351.58 139.651L1349.14 137.547L1346.87 135.595L1344.77 133.795L1342.82 132.117L1340.99 130.547L1339.28 129.083L1337.68 127.71L1336.18 126.429L1334.78 125.224L1333.45 124.08L1319.65 124.508L1305.79 125.529L1291.13 125.987L1276.52 125.255L1262.81 123.974L1249.42 123.303L1248.26 124.386L1247.06 125.545L1245.76 126.78L1244.37 128.091L1242.91 129.479L1241.32 130.974L1239.65 132.575L1237.85 134.283L1235.91 136.128L1233.81 138.111L1231.55 140.261L1229.08 142.61L1226.39 145.157L1223.47 147.947L1220.23 151.013L1216.66 154.383L1212.73 158.135L1208.32 162.329L1203.37 167.026L1197.77 172.333L1191.39 178.387L1184.04 185.372L1175.5 193.47L1165.45 203.017L1153.45 214.424L1138.84 228.287L1120.71 245.504L1097.6 267.45L1034.63 264.491L973.679 261.639L914.629 258.879L857.425 256.195L801.959 253.602L748.155 251.086L695.938 248.646L645.261 246.267L596.017 243.964L548.176 241.722L501.678 239.542L456.46 237.437L412.463 235.378L369.655 233.365L327.975 231.413L287.379 229.522L247.834 227.661L209.297 225.862L171.719 224.108L135.088 222.385L8.57031 237.361" stroke="#10E80C" stroke-width="1.52504" stroke-linecap="round" stroke-linejoin="round" class="NfFOcsZP_116"></path>
<path d="M1182.59 100.062L1186.77 98.7348L1199.2 94.6782L1211.69 90.6215L1224.29 86.6259L1236.95 82.8286L1249.7 79.2905L1262.52 76.0879L1275.47 73.3123L1288.49 71.0247L1301.64 69.2709L1314.89 68.1119L1328.27 67.5781L1341.75 67.7154L1355.37 68.5389L1369.12 70.0792L1383 72.3515L1397.01 75.3559L1411.17 79.077L1414.32 80.053" stroke="#10E80C" stroke-width="1.52504" stroke-linecap="round" stroke-linejoin="round" class="NfFOcsZP_117"></path>
<path d="M1.84766 163.443L23.3965 162.146L42.9781 162.665L46.2264 162.467" stroke="#10E80C" stroke-width="1.52504" stroke-linecap="round" stroke-linejoin="round" class="NfFOcsZP_118"></path>
<path d="M1.84766 158.578L37.0609 156.58L55.3004 157.038L58.503 156.855" stroke="#10E80C" stroke-width="1.52504" stroke-linecap="round" stroke-linejoin="round" class="NfFOcsZP_119"></path>
<path d="M1.84766 154.276L48.88 151.775L65.9452 152.172L69.1021 152.004" stroke="#10E80C" stroke-width="1.52504" stroke-linecap="round" stroke-linejoin="round" class="NfFOcsZP_120"></path>
<path d="M1414.33 191.154L1411.55 191.077L1371.84 190.086L1332.86 189.11L1294.63 188.149L1257.1 187.204L1220.24 186.273L1214.58 194.539L1207.93 204.284L1199.95 215.951L1190.25 230.149L1178.16 247.855L1120.71 245.506L1064.91 243.219L1010.69 241.007L957.973 238.842L906.701 236.752L857.427 256.197L793.558 281.421L707.5 315.399L636.22 310.717L567.791 306.203L502.047 301.887L438.834 297.724L378 293.728L319.438 289.87L262.996 286.149L208.567 282.58L156.06 279.118L105.368 275.778L56.3832 272.56L9.04586 269.449L1.84766 268.977" stroke="#10E80C" stroke-width="1.52504" stroke-linecap="round" stroke-linejoin="round" class="NfFOcsZP_121"></path>
<path d="M1.84766 160.135L55.3004 157.039L57.954 157.115" stroke="#10E80C" stroke-width="1.52504" stroke-linecap="round" stroke-linejoin="round" class="NfFOcsZP_122"></path>
<path d="M1.84766 155.649L65.9452 152.172L68.5988 152.233" stroke="#10E80C" stroke-width="1.52504" stroke-linecap="round" stroke-linejoin="round" class="NfFOcsZP_123"></path>
<path d="M1205.42 124.43L1206.37 123.988L1208.69 122.921L1210.87 121.914" stroke="#10E80C" stroke-width="1.52504" stroke-linecap="round" stroke-linejoin="round" class="NfFOcsZP_124"></path>
<path d="M1.84766 315.533L19.5839 316.997L208.567 282.577L348.581 257.079L456.463 237.436L542.14 221.835L583.713 223.528L626.353 225.281L670.076 227.066L714.943 228.896L760.984 230.787L808.26 232.708L856.817 234.706L906.701 236.75L945.88 221.27L977.768 208.689L1004.23 198.227L1026.54 189.428L1045.62 181.894L1062.1 175.382L1076.5 169.694L1089.17 164.691L1100.41 160.254L1110.46 156.288L1119.51 152.72L1127.66 149.502L1150.4 149.868L1173.4 150.249L1196.69 150.615L1220.24 151.012L1244.07 151.393L1268.2 151.79L1292.61 152.186L1317.32 152.583L1342.31 152.994L1367.65 153.406L1393.27 153.818L1398.92 157.508L1405.24 161.626L1412.33 166.232L1414.33 167.543" stroke="#10E80C" stroke-width="1.52504" stroke-linecap="round" stroke-linejoin="round" class="NfFOcsZP_125"></path>
<path d="M1220.66 133.781L1222.66 132.378L1224.92 130.792L1227 129.312L1228.99 127.925L1230.83 126.628L1232.57 125.408" stroke="#10E80C" stroke-width="1.52504" stroke-linecap="round" stroke-linejoin="round" class="NfFOcsZP_126"></path>
<path d="M1224 122.021L1222.17 123.043L1220.23 124.126L1218.19 125.27L1216.02 126.475L1213.71 127.771L1211.24 129.143" stroke="#10E80C" stroke-width="1.52504" stroke-linecap="round" stroke-linejoin="round" class="NfFOcsZP_127"></path>
<path d="M272.205 317.868L377.997 293.726L501.831 265.467L596.017 243.964L670.074 227.067L729.825 213.433L779.053 202.193L820.321 192.769L855.397 184.762L885.593 177.869L911.854 171.891L940.952 172.562L970.522 173.248L990.272 167.819L1007.72 163.03L1023.24 158.775L1048.62 159.263L1074.35 159.751L1100.41 160.255L1126.84 160.758L1153.62 161.276L1180.78 161.795L1208.32 162.329L1236.25 162.862L1264.55 163.396L1293.25 163.945L1322.4 164.51L1351.94 165.074L1381.9 165.653L1412.33 166.233L1414.33 166.279" stroke="#10E80C" stroke-width="1.52504" stroke-linecap="round" stroke-linejoin="round" class="NfFOcsZP_128"></path>
<path d="M1.84766 165.211L42.9781 162.664L44.9911 162.725" stroke="#10E80C" stroke-width="1.52504" stroke-linecap="round" stroke-linejoin="round" class="NfFOcsZP_129"></path>
<path d="M1234.2 124.249L1235.76 123.166" stroke="#10E80C" stroke-width="1.52504" stroke-linecap="round" stroke-linejoin="round" class="NfFOcsZP_130"></path>
<path d="M1143.08 52.9064L1142.88 54.6907" stroke="#10E80C" stroke-width="1.52504" stroke-linecap="round" stroke-linejoin="round" class="NfFOcsZP_131"></path>
<path d="M1141.55 53.1674L1143.08 52.9081L1154.65 50.6663L1166.29 48.1957L1177.97 45.6031L1189.73 42.9496L1201.53 40.3265L1213.41 37.7949L1225.39 35.4464L1237.43 33.3113L1249.56 31.466L1261.76 29.9562L1274.07 28.8124L1286.45 28.0652L1298.94 27.7754L1311.54 27.9431L1324.22 28.5989L1337.02 29.7427L1349.92 31.3745L1362.93 33.5096L1376.06 36.1174L1389.3 39.2132L1392.7 50.346L1397.01 75.3567L1402.17 111.988L1406.18 124.753L1409.75 125.927L1413.93 126.583L1414.32 127.452" stroke="#10E80C" stroke-width="1.52504" stroke-linecap="round" stroke-linejoin="round" class="NfFOcsZP_132"></path>
<path d="M1414.32 150.908L1412.8 150.878L1406.97 147.828L1383.52 147.477L1379.29 144.732L1375.44 142.215L1371.9 139.913L1368.63 137.793L1365.61 135.826L1346.87 135.597L1328.28 135.368L1310.29 136.115L1291.8 137.854L1272.31 138.616L1252.97 138.372L1233.8 138.113L1226.91 138.022L1218.36 134.743L1214.12 132.272L1211.42 130.732L1210.18 129.741L1209.86 129.131L1208.49 127.712L1208.2 127.423L1206.61 126.386L1205.12 124.8L1204.36 123.976L1201.95 121.826L1198.06 117.235L1192.77 111.547" stroke="#10E80C" stroke-width="1.52504" stroke-linecap="round" stroke-linejoin="round" class="NfFOcsZP_133"></path>
<path d="M1206.11 125.147L1218.19 125.269L1232.57 125.407L1234.2 124.248L1247.65 124.964L1261.21 126.306L1275.73 127.755L1291.24 127.908L1306.3 126.764L1320.58 125.681L1334.11 124.644L1347.79 124.217L1349.54 125.361L1364.44 125.498L1366.77 126.733L1369.26 128.03L1371.91 129.433L1374.75 130.912L1377.77 132.498L1381.03 134.206L1384.54 136.051L1403.63 136.28L1408.19 138.278L1413.12 140.443L1414.32 140.977" stroke="#10E80C" stroke-width="1.52504" stroke-linecap="round" stroke-linejoin="round" class="NfFOcsZP_134"></path>
<path d="M1414.32 140.461L1413.12 140.446L1392.41 140.187L1371.9 139.912L1351.58 139.653L1331.48 139.394L1311.57 139.134L1291.85 138.875" stroke="#10E80C" stroke-width="1.52504" stroke-linecap="round" stroke-linejoin="round" class="NfFOcsZP_135"></path>
<path d="M1208.55 127.711L1213.71 127.772L1228.99 127.924L1243.64 128.778L1258.42 130.41L1274.36 132.164L1291.5 132.347L1308.09 130.959L1323.72 129.632L1339.28 129.083L1355.54 129.251L1371.92 129.434L1388.43 129.602L1405.07 129.77L1409.08 131.28L1413.84 132.118L1414.33 133.277" stroke="#10E80C" stroke-width="1.52504" stroke-linecap="round" stroke-linejoin="round" class="NfFOcsZP_136"></path>
<path d="M1414.32 132.912H1413.35L1409.08 131.28L1391.83 131.097L1374.75 130.914L1357.79 130.731L1340.99 130.548L1324.91 131.143L1308.78 132.546L1291.57 134.055L1273.82 133.842L1257.35 131.966L1241.32 130.975L1224.91 130.792L1211.71 129.892L1210.38 129.633" stroke="#10E80C" stroke-width="1.52504" stroke-linecap="round" stroke-linejoin="round" class="NfFOcsZP_137"></path>
<path d="M65.4258 160.376L78.7852 152.827L81.4235 151.332L96.8874 142.609L124.735 126.886L128.334 124.857L148.19 113.648" stroke="#10E80C" stroke-width="1.52504" stroke-linecap="round" stroke-linejoin="round" class="NfFOcsZP_138"></path>
<path d="M353.294 25L348.185 27.2723L324.715 37.4596L321.649 39.0914L283.95 56.6752L274.769 60.869L250.643 82.4331L215.018 114.291L179.225 146.302L113.145 175.537L65.6402 196.552L1.84766 194.661" stroke="#10E80C" stroke-width="1.52504" stroke-linecap="round" stroke-linejoin="round" class="NfFOcsZP_139"></path>
<path d="M733.453 -28.7422L713.033 -5.82079L711.05 -3.59423L687.092 41.9131L686.558 42.9196L668.944 56.5992L666.336 62.0741" stroke="#10E80C" stroke-width="1.52504" stroke-linecap="round" stroke-linejoin="round" class="NfFOcsZP_140"></path>
<path d="M663.789 60.6404L668.944 56.5991L669.294 55.9738L694.031 11.3053L694.122 11.1223L695.647 9.45998L715.915 -12.8361L717.181 -14.1172" stroke="#10E80C" stroke-width="1.52504" stroke-linecap="round" stroke-linejoin="round" class="NfFOcsZP_141"></path>
<path d="M658.742 57.8189L676.966 26.4945L677.332 25.8692L678.034 25.1219L698.698 2.85631L700.986 0.583984" stroke="#10E80C" stroke-width="1.52504" stroke-linecap="round" stroke-linejoin="round" class="NfFOcsZP_142"></path>
<path d="M792.442 172.076L792.183 172.046L791.1 171.908L751.556 157.527L705.347 178.024L650.262 210.538L611.816 209.135L574.605 172.884L538.416 136.649L503.111 107.582L468.584 85.3622L434.789 69.334" stroke="#10E80C" stroke-width="1.52504" stroke-linecap="round" stroke-linejoin="round" class="NfFOcsZP_143"></path>
<path d="M652.244 54.1735L660.647 40.4176L681.86 18.091L684.911 15.1172" stroke="#10E80C" stroke-width="1.52504" stroke-linecap="round" stroke-linejoin="round" class="NfFOcsZP_144"></path>
<path d="M647.244 51.3658L665.041 33.2483L665.758 32.2723L668.946 29.2832" stroke="#10E80C" stroke-width="1.52504" stroke-linecap="round" stroke-linejoin="round" class="NfFOcsZP_145"></path>
<path d="M694.721 81.1502L696.84 79.8844L715.675 69.5446L734.692 60.2571L753.892 52.3269L773.291 46.0742L774.053 43.6189L795.343 -24.3675L814.07 -30.4372L815.046 -33.167L833.347 -84.6372L851.48 -89.7461L869.795 -92.3235L886.205 -120.369L904.017 -121.238L922.059 -119.164L936.287 -116.785L940.756 -114.742L958.904 -104.89L977.753 -93.0097L996.877 -78.5676L1008.28 -82.7004L1026.95 -67.4653L1045.91 -50.1713L1065.15 -31.1082L1084.67 -10.5659L1104.5 11.1507L1124.61 33.8129L1141.56 53.1657L1142.88 54.6907L1145.02 57.1308L1153.09 66.3725L1159.36 73.5555L1159.42 73.6317L1163.75 78.5881L1165.71 80.8452L1174.97 91.3832L1182.6 100.061L1186.32 104.3L1186.68 104.727L1192.77 111.544L1198.06 117.233L1202.77 121.838L1203.78 122.875L1204.36 123.973L1205.12 124.797L1205.99 125.148L1206.62 126.383L1207.94 128.549L1204.82 142.503L1200.99 147.596L1196.69 150.616L1191.93 153.956L1186.65 157.662L1180.78 161.794L1174.19 166.431L1166.74 171.661L1158.26 177.624L1148.51 184.472L1137.18 192.433L1123.87 201.781L1083.16 200.576L1043.28 199.402L1004.23 198.228L965.965 197.099L928.464 195.986L891.695 194.888L855.658 193.82L820.323 192.768L785.659 191.746L751.559 157.524L732.862 137.363L718.252 121.625L700.943 104.056L685.769 88.6839L635.183 101.189L601.418 69.2854L568.416 44.4271L536.101 26.3249L504.395 14.3075L434.792 69.3311L401.653 58.8388L369.124 53.2724L337.159 52.1134L245.321 151.607L211.968 147.276L179.225 146.3L147.047 148.191L115.448 152.553L95.226 157.357L83.8797 159.553L62.4071 162.069L48.392 164.082L13.438 169.099L1.84766 170.762" stroke="#10E80C" stroke-width="1.52504" stroke-linecap="round" stroke-linejoin="round" class="NfFOcsZP_146"></path>
<path d="M52.6582 161.979L60.1614 158.303L63.73 156.55L70.3792 153.286L73.475 151.776L95.6949 140.872L97.4487 140.003L126.73 125.637L148.172 113.62L155.477 109.533L184.651 94.5719L197.248 88.8835L200.725 87.3127L214.252 81.1973" stroke="#10E80C" stroke-width="1.52504" stroke-linecap="round" stroke-linejoin="round" class="NfFOcsZP_147"></path>
<path d="M1210.56 129.845L1210.18 129.738L1208.83 129.113L1207.94 128.549" stroke="#10E80C" stroke-width="1.52504" stroke-linecap="round" stroke-linejoin="round" class="NfFOcsZP_148"></path>
<path d="M1415.19 318.738H0.761719" stroke="#10E80C" stroke-width="1.52504" stroke-linecap="round" stroke-linejoin="round" class="NfFOcsZP_149"></path>
</g>
<defs>
<clipPath id="clip0_1629_3583">
<path width="1415.96" height="441.5" fill="white" transform="translate(0 -122)" d="M0 0 L1415.96 0 L1415.96 441.5 L0 441.5 Z" class="NfFOcsZP_150"></path>
</clipPath>
</defs>
<style data-made-with="vivus-instant">.NfFOcsZP_0{stroke-dasharray:211 213;stroke-dashoffset:212;animation:NfFOcsZP_draw 2000ms linear 0ms forwards;}.NfFOcsZP_1{stroke-dasharray:505 507;stroke-dashoffset:506;animation:NfFOcsZP_draw 2000ms linear 6ms forwards;}.NfFOcsZP_2{stroke-dasharray:116 118;stroke-dashoffset:117;animation:NfFOcsZP_draw 2000ms linear 13ms forwards;}.NfFOcsZP_3{stroke-dasharray:688 690;stroke-dashoffset:689;animation:NfFOcsZP_draw 2000ms linear 20ms forwards;}.NfFOcsZP_4{stroke-dasharray:619 621;stroke-dashoffset:620;animation:NfFOcsZP_draw 2000ms linear 26ms forwards;}.NfFOcsZP_5{stroke-dasharray:445 447;stroke-dashoffset:446;animation:NfFOcsZP_draw 2000ms linear 33ms forwards;}.NfFOcsZP_6{stroke-dasharray:178 180;stroke-dashoffset:179;animation:NfFOcsZP_draw 2000ms linear 40ms forwards;}.NfFOcsZP_7{stroke-dasharray:264 266;stroke-dashoffset:265;animation:NfFOcsZP_draw 2000ms linear 46ms forwards;}.NfFOcsZP_8{stroke-dasharray:687 689;stroke-dashoffset:688;animation:NfFOcsZP_draw 2000ms linear 53ms forwards;}.NfFOcsZP_9{stroke-dasharray:578 580;stroke-dashoffset:579;animation:NfFOcsZP_draw 2000ms linear 60ms forwards;}.NfFOcsZP_10{stroke-dasharray:797 799;stroke-dashoffset:798;animation:NfFOcsZP_draw 2000ms linear 66ms forwards;}.NfFOcsZP_11{stroke-dasharray:53 55;stroke-dashoffset:54;animation:NfFOcsZP_draw 2000ms linear 73ms forwards;}.NfFOcsZP_12{stroke-dasharray:824 826;stroke-dashoffset:825;animation:NfFOcsZP_draw 2000ms linear 80ms forwards;}.NfFOcsZP_13{stroke-dasharray:49 51;stroke-dashoffset:50;animation:NfFOcsZP_draw 2000ms linear 86ms forwards;}.NfFOcsZP_14{stroke-dasharray:816 818;stroke-dashoffset:817;animation:NfFOcsZP_draw 2000ms linear 93ms forwards;}.NfFOcsZP_15{stroke-dasharray:64 66;stroke-dashoffset:65;animation:NfFOcsZP_draw 2000ms linear 100ms forwards;}.NfFOcsZP_16{stroke-dasharray:391 393;stroke-dashoffset:392;animation:NfFOcsZP_draw 2000ms linear 106ms forwards;}.NfFOcsZP_17{stroke-dasharray:385 387;stroke-dashoffset:386;animation:NfFOcsZP_draw 2000ms linear 113ms forwards;}.NfFOcsZP_18{stroke-dasharray:45 47;stroke-dashoffset:46;animation:NfFOcsZP_draw 2000ms linear 120ms forwards;}.NfFOcsZP_19{stroke-dasharray:265 267;stroke-dashoffset:266;animation:NfFOcsZP_draw 2000ms linear 126ms forwards;}.NfFOcsZP_20{stroke-dasharray:906 908;stroke-dashoffset:907;animation:NfFOcsZP_draw 2000ms linear 133ms forwards;}.NfFOcsZP_21{stroke-dasharray:351 353;stroke-dashoffset:352;animation:NfFOcsZP_draw 2000ms linear 140ms forwards;}.NfFOcsZP_22{stroke-dasharray:334 336;stroke-dashoffset:335;animation:NfFOcsZP_draw 2000ms linear 146ms forwards;}.NfFOcsZP_23{stroke-dasharray:137 139;stroke-dashoffset:138;animation:NfFOcsZP_draw 2000ms linear 153ms forwards;}.NfFOcsZP_24{stroke-dasharray:319 321;stroke-dashoffset:320;animation:NfFOcsZP_draw 2000ms linear 160ms forwards;}.NfFOcsZP_25{stroke-dasharray:158 160;stroke-dashoffset:159;animation:NfFOcsZP_draw 2000ms linear 166ms forwards;}.NfFOcsZP_26{stroke-dasharray:180 182;stroke-dashoffset:181;animation:NfFOcsZP_draw 2000ms linear 173ms forwards;}.NfFOcsZP_27{stroke-dasharray:203 205;stroke-dashoffset:204;animation:NfFOcsZP_draw 2000ms linear 180ms forwards;}.NfFOcsZP_28{stroke-dasharray:283 285;stroke-dashoffset:284;animation:NfFOcsZP_draw 2000ms linear 186ms forwards;}.NfFOcsZP_29{stroke-dasharray:225 227;stroke-dashoffset:226;animation:NfFOcsZP_draw 2000ms linear 193ms forwards;}.NfFOcsZP_30{stroke-dasharray:264 266;stroke-dashoffset:265;animation:NfFOcsZP_draw 2000ms linear 200ms forwards;}.NfFOcsZP_31{stroke-dasharray:243 245;stroke-dashoffset:244;animation:NfFOcsZP_draw 2000ms linear 206ms forwards;}.NfFOcsZP_32{stroke-dasharray:457 459;stroke-dashoffset:458;animation:NfFOcsZP_draw 2000ms linear 213ms forwards;}.NfFOcsZP_33{stroke-dasharray:644 646;stroke-dashoffset:645;animation:NfFOcsZP_draw 2000ms linear 220ms forwards;}.NfFOcsZP_34{stroke-dasharray:294 296;stroke-dashoffset:295;animation:NfFOcsZP_draw 2000ms linear 226ms forwards;}.NfFOcsZP_35{stroke-dasharray:49 51;stroke-dashoffset:50;animation:NfFOcsZP_draw 2000ms linear 233ms forwards;}.NfFOcsZP_36{stroke-dasharray:824 826;stroke-dashoffset:825;animation:NfFOcsZP_draw 2000ms linear 240ms forwards;}.NfFOcsZP_37{stroke-dasharray:1076 1078;stroke-dashoffset:1077;animation:NfFOcsZP_draw 2000ms linear 246ms forwards;}.NfFOcsZP_38{stroke-dasharray:92 94;stroke-dashoffset:93;animation:NfFOcsZP_draw 2000ms linear 253ms forwards;}.NfFOcsZP_39{stroke-dasharray:59 61;stroke-dashoffset:60;animation:NfFOcsZP_draw 2000ms linear 260ms forwards;}.NfFOcsZP_40{stroke-dasharray:1516 1518;stroke-dashoffset:1517;animation:NfFOcsZP_draw 2000ms linear 266ms forwards;}.NfFOcsZP_41{stroke-dasharray:61 63;stroke-dashoffset:62;animation:NfFOcsZP_draw 2000ms linear 273ms forwards;}.NfFOcsZP_42{stroke-dasharray:52 54;stroke-dashoffset:53;animation:NfFOcsZP_draw 2000ms linear 280ms forwards;}.NfFOcsZP_43{stroke-dasharray:31 33;stroke-dashoffset:32;animation:NfFOcsZP_draw 2000ms linear 286ms forwards;}.NfFOcsZP_44{stroke-dasharray:49 51;stroke-dashoffset:50;animation:NfFOcsZP_draw 2000ms linear 293ms forwards;}.NfFOcsZP_45{stroke-dasharray:46 48;stroke-dashoffset:47;animation:NfFOcsZP_draw 2000ms linear 300ms forwards;}.NfFOcsZP_46{stroke-dasharray:46 48;stroke-dashoffset:47;animation:NfFOcsZP_draw 2000ms linear 306ms forwards;}.NfFOcsZP_47{stroke-dasharray:62 64;stroke-dashoffset:63;animation:NfFOcsZP_draw 2000ms linear 313ms forwards;}.NfFOcsZP_48{stroke-dasharray:41 43;stroke-dashoffset:42;animation:NfFOcsZP_draw 2000ms linear 320ms forwards;}.NfFOcsZP_49{stroke-dasharray:77 79;stroke-dashoffset:78;animation:NfFOcsZP_draw 2000ms linear 326ms forwards;}.NfFOcsZP_50{stroke-dasharray:90 92;stroke-dashoffset:91;animation:NfFOcsZP_draw 2000ms linear 333ms forwards;}.NfFOcsZP_51{stroke-dasharray:85 87;stroke-dashoffset:86;animation:NfFOcsZP_draw 2000ms linear 340ms forwards;}.NfFOcsZP_52{stroke-dasharray:34 36;stroke-dashoffset:35;animation:NfFOcsZP_draw 2000ms linear 346ms forwards;}.NfFOcsZP_53{stroke-dasharray:87 89;stroke-dashoffset:88;animation:NfFOcsZP_draw 2000ms linear 353ms forwards;}.NfFOcsZP_54{stroke-dasharray:106 108;stroke-dashoffset:107;animation:NfFOcsZP_draw 2000ms linear 360ms forwards;}.NfFOcsZP_55{stroke-dasharray:596 598;stroke-dashoffset:597;animation:NfFOcsZP_draw 2000ms linear 366ms forwards;}.NfFOcsZP_56{stroke-dasharray:123 125;stroke-dashoffset:124;animation:NfFOcsZP_draw 2000ms linear 373ms forwards;}.NfFOcsZP_57{stroke-dasharray:46 48;stroke-dashoffset:47;animation:NfFOcsZP_draw 2000ms linear 380ms forwards;}.NfFOcsZP_58{stroke-dasharray:1650 1652;stroke-dashoffset:1651;animation:NfFOcsZP_draw 2000ms linear 386ms forwards;}.NfFOcsZP_59{stroke-dasharray:23 25;stroke-dashoffset:24;animation:NfFOcsZP_draw 2000ms linear 393ms forwards;}.NfFOcsZP_60{stroke-dasharray:139 141;stroke-dashoffset:140;animation:NfFOcsZP_draw 2000ms linear 400ms forwards;}.NfFOcsZP_61{stroke-dasharray:300 302;stroke-dashoffset:301;animation:NfFOcsZP_draw 2000ms linear 406ms forwards;}.NfFOcsZP_62{stroke-dasharray:88 90;stroke-dashoffset:89;animation:NfFOcsZP_draw 2000ms linear 413ms forwards;}.NfFOcsZP_63{stroke-dasharray:189 191;stroke-dashoffset:190;animation:NfFOcsZP_draw 2000ms linear 420ms forwards;}.NfFOcsZP_64{stroke-dasharray:41 43;stroke-dashoffset:42;animation:NfFOcsZP_draw 2000ms linear 426ms forwards;}.NfFOcsZP_65{stroke-dasharray:94 96;stroke-dashoffset:95;animation:NfFOcsZP_draw 2000ms linear 433ms forwards;}.NfFOcsZP_66{stroke-dasharray:652 654;stroke-dashoffset:653;animation:NfFOcsZP_draw 2000ms linear 440ms forwards;}.NfFOcsZP_67{stroke-dasharray:299 301;stroke-dashoffset:300;animation:NfFOcsZP_draw 2000ms linear 446ms forwards;}.NfFOcsZP_68{stroke-dasharray:34 36;stroke-dashoffset:35;animation:NfFOcsZP_draw 2000ms linear 453ms forwards;}.NfFOcsZP_69{stroke-dasharray:16 18;stroke-dashoffset:17;animation:NfFOcsZP_draw 2000ms linear 460ms forwards;}.NfFOcsZP_70{stroke-dasharray:1336 1338;stroke-dashoffset:1337;animation:NfFOcsZP_draw 2000ms linear 466ms forwards;}.NfFOcsZP_71{stroke-dasharray:44 46;stroke-dashoffset:45;animation:NfFOcsZP_draw 2000ms linear 473ms forwards;}.NfFOcsZP_72{stroke-dasharray:291 293;stroke-dashoffset:292;animation:NfFOcsZP_draw 2000ms linear 480ms forwards;}.NfFOcsZP_73{stroke-dasharray:193 195;stroke-dashoffset:194;animation:NfFOcsZP_draw 2000ms linear 486ms forwards;}.NfFOcsZP_74{stroke-dasharray:308 310;stroke-dashoffset:309;animation:NfFOcsZP_draw 2000ms linear 493ms forwards;}.NfFOcsZP_75{stroke-dasharray:29 31;stroke-dashoffset:30;animation:NfFOcsZP_draw 2000ms linear 500ms forwards;}.NfFOcsZP_76{stroke-dasharray:199 201;stroke-dashoffset:200;animation:NfFOcsZP_draw 2000ms linear 506ms forwards;}.NfFOcsZP_77{stroke-dasharray:258 260;stroke-dashoffset:259;animation:NfFOcsZP_draw 2000ms linear 513ms forwards;}.NfFOcsZP_78{stroke-dasharray:315 317;stroke-dashoffset:316;animation:NfFOcsZP_draw 2000ms linear 520ms forwards;}.NfFOcsZP_79{stroke-dasharray:97 99;stroke-dashoffset:98;animation:NfFOcsZP_draw 2000ms linear 526ms forwards;}.NfFOcsZP_80{stroke-dasharray:95 97;stroke-dashoffset:96;animation:NfFOcsZP_draw 2000ms linear 533ms forwards;}.NfFOcsZP_81{stroke-dasharray:565 567;stroke-dashoffset:566;animation:NfFOcsZP_draw 2000ms linear 540ms forwards;}.NfFOcsZP_82{stroke-dasharray:77 79;stroke-dashoffset:78;animation:NfFOcsZP_draw 2000ms linear 546ms forwards;}.NfFOcsZP_83{stroke-dasharray:236 238;stroke-dashoffset:237;animation:NfFOcsZP_draw 2000ms linear 553ms forwards;}.NfFOcsZP_84{stroke-dasharray:96 98;stroke-dashoffset:97;animation:NfFOcsZP_draw 2000ms linear 560ms forwards;}.NfFOcsZP_85{stroke-dasharray:409 411;stroke-dashoffset:410;animation:NfFOcsZP_draw 2000ms linear 566ms forwards;}.NfFOcsZP_86{stroke-dasharray:211 213;stroke-dashoffset:212;animation:NfFOcsZP_draw 2000ms linear 573ms forwards;}.NfFOcsZP_87{stroke-dasharray:168 170;stroke-dashoffset:169;animation:NfFOcsZP_draw 2000ms linear 580ms forwards;}.NfFOcsZP_88{stroke-dasharray:180 182;stroke-dashoffset:181;animation:NfFOcsZP_draw 2000ms linear 586ms forwards;}.NfFOcsZP_89{stroke-dasharray:266 268;stroke-dashoffset:267;animation:NfFOcsZP_draw 2000ms linear 593ms forwards;}.NfFOcsZP_90{stroke-dasharray:96 98;stroke-dashoffset:97;animation:NfFOcsZP_draw 2000ms linear 600ms forwards;}.NfFOcsZP_91{stroke-dasharray:189 191;stroke-dashoffset:190;animation:NfFOcsZP_draw 2000ms linear 606ms forwards;}.NfFOcsZP_92{stroke-dasharray:26 28;stroke-dashoffset:27;animation:NfFOcsZP_draw 2000ms linear 613ms forwards;}.NfFOcsZP_93{stroke-dasharray:115 117;stroke-dashoffset:116;animation:NfFOcsZP_draw 2000ms linear 620ms forwards;}.NfFOcsZP_94{stroke-dasharray:149 151;stroke-dashoffset:150;animation:NfFOcsZP_draw 2000ms linear 626ms forwards;}.NfFOcsZP_95{stroke-dasharray:396 398;stroke-dashoffset:397;animation:NfFOcsZP_draw 2000ms linear 633ms forwards;}.NfFOcsZP_96{stroke-dasharray:59 61;stroke-dashoffset:60;animation:NfFOcsZP_draw 2000ms linear 640ms forwards;}.NfFOcsZP_97{stroke-dasharray:147 149;stroke-dashoffset:148;animation:NfFOcsZP_draw 2000ms linear 646ms forwards;}.NfFOcsZP_98{stroke-dasharray:991 993;stroke-dashoffset:992;animation:NfFOcsZP_draw 2000ms linear 653ms forwards;}.NfFOcsZP_99{stroke-dasharray:131 133;stroke-dashoffset:132;animation:NfFOcsZP_draw 2000ms linear 660ms forwards;}.NfFOcsZP_100{stroke-dasharray:113 115;stroke-dashoffset:114;animation:NfFOcsZP_draw 2000ms linear 666ms forwards;}.NfFOcsZP_101{stroke-dasharray:210 212;stroke-dashoffset:211;animation:NfFOcsZP_draw 2000ms linear 673ms forwards;}.NfFOcsZP_102{stroke-dasharray:11 13;stroke-dashoffset:12;animation:NfFOcsZP_draw 2000ms linear 680ms forwards;}.NfFOcsZP_103{stroke-dasharray:16 18;stroke-dashoffset:17;animation:NfFOcsZP_draw 2000ms linear 686ms forwards;}.NfFOcsZP_104{stroke-dasharray:1248 1250;stroke-dashoffset:1249;animation:NfFOcsZP_draw 2000ms linear 693ms forwards;}.NfFOcsZP_105{stroke-dasharray:261 263;stroke-dashoffset:262;animation:NfFOcsZP_draw 2000ms linear 700ms forwards;}.NfFOcsZP_106{stroke-dasharray:67 69;stroke-dashoffset:68;animation:NfFOcsZP_draw 2000ms linear 706ms forwards;}.NfFOcsZP_107{stroke-dasharray:370 372;stroke-dashoffset:371;animation:NfFOcsZP_draw 2000ms linear 713ms forwards;}.NfFOcsZP_108{stroke-dasharray:216 218;stroke-dashoffset:217;animation:NfFOcsZP_draw 2000ms linear 720ms forwards;}.NfFOcsZP_109{stroke-dasharray:1600 1602;stroke-dashoffset:1601;animation:NfFOcsZP_draw 2000ms linear 726ms forwards;}.NfFOcsZP_110{stroke-dasharray:104 106;stroke-dashoffset:105;animation:NfFOcsZP_draw 2000ms linear 733ms forwards;}.NfFOcsZP_111{stroke-dasharray:6 8;stroke-dashoffset:7;animation:NfFOcsZP_draw 2000ms linear 740ms forwards;}.NfFOcsZP_112{stroke-dasharray:386 388;stroke-dashoffset:387;animation:NfFOcsZP_draw 2000ms linear 746ms forwards;}.NfFOcsZP_113{stroke-dasharray:5 7;stroke-dashoffset:6;animation:NfFOcsZP_draw 2000ms linear 753ms forwards;}.NfFOcsZP_114{stroke-dasharray:485 487;stroke-dashoffset:486;animation:NfFOcsZP_draw 2000ms linear 760ms forwards;}.NfFOcsZP_115{stroke-dasharray:212 214;stroke-dashoffset:213;animation:NfFOcsZP_draw 2000ms linear 766ms forwards;}.NfFOcsZP_116{stroke-dasharray:1492 1494;stroke-dashoffset:1493;animation:NfFOcsZP_draw 2000ms linear 773ms forwards;}.NfFOcsZP_117{stroke-dasharray:238 240;stroke-dashoffset:239;animation:NfFOcsZP_draw 2000ms linear 780ms forwards;}.NfFOcsZP_118{stroke-dasharray:45 47;stroke-dashoffset:46;animation:NfFOcsZP_draw 2000ms linear 786ms forwards;}.NfFOcsZP_119{stroke-dasharray:57 59;stroke-dashoffset:58;animation:NfFOcsZP_draw 2000ms linear 793ms forwards;}.NfFOcsZP_120{stroke-dasharray:68 70;stroke-dashoffset:69;animation:NfFOcsZP_draw 2000ms linear 800ms forwards;}.NfFOcsZP_121{stroke-dasharray:1462 1464;stroke-dashoffset:1463;animation:NfFOcsZP_draw 2000ms linear 806ms forwards;}.NfFOcsZP_122{stroke-dasharray:57 59;stroke-dashoffset:58;animation:NfFOcsZP_draw 2000ms linear 813ms forwards;}.NfFOcsZP_123{stroke-dasharray:67 69;stroke-dashoffset:68;animation:NfFOcsZP_draw 2000ms linear 820ms forwards;}.NfFOcsZP_124{stroke-dasharray:7 9;stroke-dashoffset:8;animation:NfFOcsZP_draw 2000ms linear 826ms forwards;}.NfFOcsZP_125{stroke-dasharray:1443 1445;stroke-dashoffset:1444;animation:NfFOcsZP_draw 2000ms linear 833ms forwards;}.NfFOcsZP_126{stroke-dasharray:15 17;stroke-dashoffset:16;animation:NfFOcsZP_draw 2000ms linear 840ms forwards;}.NfFOcsZP_127{stroke-dasharray:15 17;stroke-dashoffset:16;animation:NfFOcsZP_draw 2000ms linear 846ms forwards;}.NfFOcsZP_128{stroke-dasharray:1161 1163;stroke-dashoffset:1162;animation:NfFOcsZP_draw 2000ms linear 853ms forwards;}.NfFOcsZP_129{stroke-dasharray:44 46;stroke-dashoffset:45;animation:NfFOcsZP_draw 2000ms linear 860ms forwards;}.NfFOcsZP_130{stroke-dasharray:2 4;stroke-dashoffset:3;animation:NfFOcsZP_draw 2000ms linear 866ms forwards;}.NfFOcsZP_131{stroke-dasharray:2 4;stroke-dashoffset:3;animation:NfFOcsZP_draw 2000ms linear 873ms forwards;}.NfFOcsZP_132{stroke-dasharray:348 350;stroke-dashoffset:349;animation:NfFOcsZP_draw 2000ms linear 880ms forwards;}.NfFOcsZP_133{stroke-dasharray:236 238;stroke-dashoffset:237;animation:NfFOcsZP_draw 2000ms linear 886ms forwards;}.NfFOcsZP_134{stroke-dasharray:213 215;stroke-dashoffset:214;animation:NfFOcsZP_draw 2000ms linear 893ms forwards;}.NfFOcsZP_135{stroke-dasharray:123 125;stroke-dashoffset:124;animation:NfFOcsZP_draw 2000ms linear 900ms forwards;}.NfFOcsZP_136{stroke-dasharray:208 210;stroke-dashoffset:209;animation:NfFOcsZP_draw 2000ms linear 906ms forwards;}.NfFOcsZP_137{stroke-dasharray:205 207;stroke-dashoffset:206;animation:NfFOcsZP_draw 2000ms linear 913ms forwards;}.NfFOcsZP_138{stroke-dasharray:96 98;stroke-dashoffset:97;animation:NfFOcsZP_draw 2000ms linear 920ms forwards;}.NfFOcsZP_139{stroke-dasharray:403 405;stroke-dashoffset:404;animation:NfFOcsZP_draw 2000ms linear 926ms forwards;}.NfFOcsZP_140{stroke-dasharray:115 117;stroke-dashoffset:116;animation:NfFOcsZP_draw 2000ms linear 933ms forwards;}.NfFOcsZP_141{stroke-dasharray:93 95;stroke-dashoffset:94;animation:NfFOcsZP_draw 2000ms linear 940ms forwards;}.NfFOcsZP_142{stroke-dasharray:72 74;stroke-dashoffset:73;animation:NfFOcsZP_draw 2000ms linear 946ms forwards;}.NfFOcsZP_143{stroke-dasharray:424 426;stroke-dashoffset:425;animation:NfFOcsZP_draw 2000ms linear 953ms forwards;}.NfFOcsZP_144{stroke-dasharray:52 54;stroke-dashoffset:53;animation:NfFOcsZP_draw 2000ms linear 960ms forwards;}.NfFOcsZP_145{stroke-dasharray:31 33;stroke-dashoffset:32;animation:NfFOcsZP_draw 2000ms linear 966ms forwards;}.NfFOcsZP_146{stroke-dasharray:2110 2112;stroke-dashoffset:2111;animation:NfFOcsZP_draw 2000ms linear 973ms forwards;}.NfFOcsZP_147{stroke-dasharray:181 183;stroke-dashoffset:182;animation:NfFOcsZP_draw 2000ms linear 980ms forwards;}.NfFOcsZP_148{stroke-dasharray:3 5;stroke-dashoffset:4;animation:NfFOcsZP_draw 2000ms linear 986ms forwards;}.NfFOcsZP_149{stroke-dasharray:1415 1417;stroke-dashoffset:1416;animation:NfFOcsZP_draw 2000ms linear 993ms forwards;}.NfFOcsZP_150{stroke-dasharray:3715 3717;stroke-dashoffset:3716;animation:NfFOcsZP_draw 2000ms linear 1000ms forwards;}@keyframes NfFOcsZP_draw{100%{stroke-dashoffset:0;}}@keyframes NfFOcsZP_fade{0%{stroke-opacity:1;}94.44444444444444%{stroke-opacity:1;}100%{stroke-opacity:0;}}</style></svg>
