<svg width="42" height="42" viewBox="0 0 42 42" fill="none" xmlns="http://www.w3.org/2000/svg">
<path d="M29.8768 21.5938H32.3355C32.4844 22.4745 32.9587 23.2672 33.6645 23.8148C34.3703 24.3623 35.256 24.6247 36.1461 24.55C37.0362 24.4753 37.8658 24.069 38.4705 23.4114C39.0751 22.7539 39.4107 21.8933 39.4107 21C39.4107 20.1067 39.0751 19.2461 38.4705 18.5886C37.8658 17.9311 37.0362 17.5247 36.1461 17.45C35.256 17.3753 34.3703 17.6377 33.6645 18.1853C32.9587 18.7328 32.4844 19.5255 32.3355 20.4063H29.8768C29.749 18.4601 28.9821 16.6107 27.6954 15.145L29.7141 13.1263C30.8953 14.0921 32.4026 14.567 33.9241 14.4526C35.4456 14.3383 36.8649 13.6436 37.8886 12.5121C38.9122 11.3806 39.4618 9.89902 39.4236 8.3737C39.3855 6.84839 38.7626 5.39608 37.6837 4.31719C36.6048 3.23829 35.1525 2.61535 33.6271 2.57721C32.1018 2.53907 30.6202 3.08866 29.4887 4.11229C28.3573 5.13592 27.6625 6.55528 27.5482 8.07678C27.4339 9.59828 27.9087 11.1055 28.8746 12.2867L26.8558 14.3055C25.3902 13.0187 23.5407 12.2519 21.5946 12.124V9.66532C22.4754 9.51644 23.2681 9.04212 23.8156 8.33635C24.3631 7.63058 24.6256 6.74486 24.5509 5.85473C24.4762 4.9646 24.0698 4.13501 23.4123 3.53037C22.7548 2.92572 21.8941 2.59015 21.0008 2.59015C20.1076 2.59015 19.2469 2.92572 18.5894 3.53037C17.9319 4.13501 17.5255 4.9646 17.4508 5.85473C17.3761 6.74486 17.6385 7.63058 18.1861 8.33635C18.7336 9.04212 19.5263 9.51644 20.4071 9.66532V12.124C18.4609 12.2519 16.6115 13.0187 15.1459 14.3055L13.1271 12.2867C14.0929 11.1055 14.5678 9.59828 14.4535 8.07678C14.3391 6.55528 13.6444 5.13592 12.5129 4.11229C11.3815 3.08866 9.89984 2.53907 8.37453 2.57721C6.84921 2.61535 5.39691 3.23829 4.31801 4.31719C3.23911 5.39608 2.61617 6.84839 2.57803 8.3737C2.53989 9.89902 3.08948 11.3806 4.11311 12.5121C5.13674 13.6436 6.5561 14.3383 8.0776 14.4526C9.59911 14.567 11.1063 14.0921 12.2876 13.1263L14.3063 15.145C13.0195 16.6107 12.2527 18.4601 12.1249 20.4063H9.66615C9.51727 19.5255 9.04295 18.7328 8.33717 18.1853C7.6314 17.6377 6.74569 17.3753 5.85555 17.45C4.96542 17.5247 4.13583 17.9311 3.53119 18.5886C2.92655 19.2461 2.59097 20.1067 2.59097 21C2.59097 21.8933 2.92655 22.7539 3.53119 23.4114C4.13583 24.069 4.96542 24.4753 5.85555 24.55C6.74569 24.6247 7.6314 24.3623 8.33717 23.8148C9.04295 23.2672 9.51727 22.4745 9.66615 21.5938H12.1249C12.2527 23.5399 13.0195 25.3894 14.3063 26.855L12.2876 28.8737C11.1063 27.9079 9.59911 27.4331 8.0776 27.5474C6.5561 27.6617 5.13674 28.3564 4.11311 29.4879C3.08948 30.6194 2.53989 32.101 2.57803 33.6263C2.61617 35.1516 3.23911 36.6039 4.31801 37.6828C5.39691 38.7617 6.84921 39.3847 8.37453 39.4228C9.89984 39.4609 11.3815 38.9114 12.5129 37.8877C13.6444 36.8641 14.3391 35.4447 14.4535 33.9232C14.5678 32.4017 14.0929 30.8945 13.1271 29.7133L15.1459 27.6945C16.6115 28.9813 18.4609 29.7481 20.4071 29.876V32.3347C19.5263 32.4836 18.7336 32.9579 18.1861 33.6637C17.6385 34.3694 17.3761 35.2552 17.4508 36.1453C17.5255 37.0354 17.9319 37.865 18.5894 38.4697C19.2469 39.0743 20.1076 39.4099 21.0008 39.4099C21.8941 39.4099 22.7548 39.0743 23.4123 38.4697C24.0698 37.865 24.4762 37.0354 24.5509 36.1453C24.6256 35.2552 24.3631 34.3694 23.8156 33.6637C23.2681 32.9579 22.4754 32.4836 21.5946 32.3347V29.876C23.5407 29.7481 25.3902 28.9813 26.8558 27.6945L28.8746 29.7133C27.9087 30.8945 27.4339 32.4017 27.5482 33.9232C27.6625 35.4447 28.3573 36.8641 29.4887 37.8877C30.6202 38.9114 32.1018 39.4609 33.6271 39.4228C35.1525 39.3847 36.6048 38.7617 37.6837 37.6828C38.7626 36.6039 39.3855 35.1516 39.4236 33.6263C39.4618 32.101 38.9122 30.6194 37.8886 29.4879C36.8649 28.3564 35.4456 27.6617 33.9241 27.5474C32.4026 27.4331 30.8953 27.9079 29.7141 28.8737L27.6954 26.855C28.9821 25.3894 29.749 23.5399 29.8768 21.5938ZM35.8446 18.625C36.3143 18.625 36.7735 18.7643 37.1641 19.0253C37.5546 19.2862 37.859 19.6572 38.0388 20.0911C38.2186 20.5251 38.2656 21.0026 38.174 21.4633C38.0823 21.9241 37.8561 22.3472 37.524 22.6794C37.1918 23.0115 36.7686 23.2377 36.3079 23.3294C35.8472 23.421 35.3697 23.374 34.9357 23.1942C34.5017 23.0145 34.1308 22.7101 33.8698 22.3195C33.6089 21.9289 33.4696 21.4697 33.4696 21C33.4696 20.3701 33.7198 19.766 34.1652 19.3206C34.6106 18.8752 35.2147 18.625 35.8446 18.625ZM6.15708 23.375C5.68735 23.375 5.22817 23.2357 4.8376 22.9748C4.44704 22.7138 4.14263 22.3429 3.96287 21.9089C3.78311 21.4749 3.73608 20.9974 3.82772 20.5367C3.91936 20.076 4.14555 19.6528 4.4777 19.3206C4.80985 18.9885 5.23304 18.7623 5.69374 18.6706C6.15445 18.579 6.63198 18.626 7.06596 18.8058C7.49993 18.9856 7.87086 19.29 8.13182 19.6805C8.39279 20.0711 8.53208 20.5303 8.53208 21C8.53208 21.6299 8.28186 22.234 7.83646 22.6794C7.39106 23.1248 6.78697 23.375 6.15708 23.375ZM16.2508 21C16.2503 20.2026 16.3282 19.4071 16.4836 18.625C17.0354 18.4661 17.5966 18.342 18.1639 18.2533C18.0772 19.1517 18.0321 20.0827 18.0321 21C18.0321 21.9174 18.0772 22.8484 18.1639 23.7473C17.5966 23.6584 17.0354 23.5341 16.4836 23.375C16.3282 22.5929 16.2503 21.7974 16.2508 21ZM15.2035 22.9054C13.9892 22.3538 13.2821 21.6603 13.2821 21C13.2821 20.3398 13.9892 19.6469 15.2035 19.0947C15.0166 20.358 15.0166 21.642 15.2035 22.9054ZM22.7821 21C22.7842 21.9685 22.7335 22.9364 22.6301 23.8993C22.1106 23.9444 21.5667 23.9688 21.0008 23.9688C20.435 23.9688 19.8911 23.9444 19.3716 23.8993C19.1689 21.9717 19.1689 20.0283 19.3716 18.1007C19.8911 18.0556 20.435 18.0313 21.0008 18.0313C21.5667 18.0313 22.1106 18.0556 22.6301 18.1007C22.7335 19.0637 22.7842 20.0315 22.7821 21ZM21.0008 28.7188C20.6375 28.7188 19.941 27.4944 19.5355 25.0999C20.0105 25.1337 20.4979 25.1563 21.0008 25.1563C21.5037 25.1563 21.9906 25.1337 22.4662 25.0999C22.0607 27.4944 21.3642 28.7188 21.0008 28.7188ZM21.0008 16.8438C20.4979 16.8438 20.0111 16.8663 19.5355 16.9002C19.941 14.5056 20.6375 13.2813 21.0008 13.2813C21.3642 13.2813 22.0607 14.5056 22.4662 16.9002C21.9906 16.8663 21.5037 16.8438 21.0008 16.8438ZM22.8937 13.9249C23.9816 14.7876 24.7758 15.9659 25.1672 17.298C24.6987 17.1875 24.2071 17.0937 23.6899 17.0219C23.55 15.9613 23.2826 14.9215 22.8937 13.9249ZM19.108 13.9249C18.719 14.9215 18.4517 15.9613 18.3117 17.0219C17.7946 17.0937 17.3024 17.1875 16.8345 17.298C17.2259 15.9659 18.0201 14.7876 19.108 13.9249ZM18.3117 24.9781C18.4516 26.0389 18.719 27.079 19.108 28.0757C18.0201 27.213 17.2259 26.0347 16.8345 24.7026C17.303 24.8125 17.7946 24.9063 18.3117 24.9781ZM22.8937 28.0757C23.2827 27.079 23.55 26.0389 23.6899 24.9781C24.2071 24.9069 24.6993 24.8131 25.1672 24.7026C24.7757 26.0345 23.9815 27.2126 22.8937 28.0751V28.0757ZM23.8378 23.7479C23.9245 22.8484 23.9696 21.9179 23.9696 21C23.9696 20.0821 23.9245 19.1517 23.8378 18.2527C24.4051 18.3414 24.9663 18.4655 25.5181 18.6244C25.8283 20.1926 25.8283 21.8063 25.5181 23.3744C24.9663 23.5337 24.4051 23.6582 23.8378 23.7473V23.7479ZM26.7982 19.0953C28.0124 19.6469 28.7196 20.3404 28.7196 21C28.7196 21.6597 28.0124 22.3538 26.7982 22.9054C26.985 21.642 26.985 20.358 26.7982 19.0947V19.0953ZM33.4696 3.78126C34.409 3.78126 35.3274 4.05984 36.1085 4.58178C36.8897 5.10372 37.4985 5.84556 37.858 6.71351C38.2175 7.58146 38.3116 8.53653 38.1283 9.45794C37.945 10.3793 37.4926 11.2257 36.8283 11.89C36.164 12.5543 35.3177 13.0067 34.3963 13.19C33.4749 13.3733 32.5198 13.2792 31.6518 12.9197C30.7839 12.5602 30.042 11.9514 29.5201 11.1702C28.9982 10.3891 28.7196 9.47072 28.7196 8.53126C28.721 7.27191 29.2219 6.06456 30.1124 5.17406C31.0029 4.28357 32.2102 3.78267 33.4696 3.78126ZM28.3247 18.5787C27.7584 18.2094 27.1485 17.9117 26.5091 17.6922C26.2046 16.5049 25.6811 15.3849 24.9653 14.3898C26.5486 15.341 27.74 16.8266 28.3247 18.5787ZM18.6258 6.15626C18.6258 5.68653 18.7651 5.22735 19.0261 4.83678C19.2871 4.44621 19.658 4.1418 20.092 3.96205C20.5259 3.78229 21.0035 3.73525 21.4642 3.82689C21.9249 3.91853 22.3481 4.14473 22.6802 4.47688C23.0124 4.80903 23.2386 5.23221 23.3302 5.69292C23.4218 6.15362 23.3748 6.63116 23.195 7.06513C23.0153 7.49911 22.7109 7.87003 22.3203 8.131C21.9297 8.39197 21.4706 8.53126 21.0008 8.53126C20.3709 8.53126 19.7669 8.28104 19.3215 7.83564C18.8761 7.39024 18.6258 6.78615 18.6258 6.15626ZM17.0358 14.3898C16.32 15.3849 15.7964 16.5049 15.492 17.6922C14.8525 17.9117 14.2427 18.2094 13.6763 18.5787C14.2611 16.8266 15.4525 15.341 17.0358 14.3898ZM3.78208 8.53126C3.78208 7.5918 4.06067 6.67343 4.5826 5.8923C5.10454 5.11117 5.84639 4.50235 6.71434 4.14283C7.58229 3.78332 8.53735 3.68925 9.45876 3.87253C10.3802 4.05581 11.2265 4.5082 11.8908 5.1725C12.5551 5.8368 13.0075 6.68317 13.1908 7.60458C13.3741 8.52599 13.28 9.48106 12.9205 10.349C12.561 11.217 11.9522 11.9588 11.171 12.4807C10.3899 13.0027 9.47154 13.2813 8.53208 13.2813C7.27274 13.2798 6.06538 12.7789 5.17489 11.8885C4.2844 10.998 3.7835 9.7906 3.78208 8.53126ZM8.53208 38.2188C7.59262 38.2188 6.67426 37.9402 5.89312 37.4182C5.11199 36.8963 4.50317 36.1545 4.14366 35.2865C3.78414 34.4186 3.69007 33.4635 3.87335 32.5421C4.05663 31.6207 4.50903 30.7743 5.17333 30.11C5.83763 29.4457 6.68399 28.9933 7.6054 28.81C8.52681 28.6267 9.48188 28.7208 10.3498 29.0803C11.2178 29.4398 11.9596 30.0487 12.4816 30.8298C13.0035 31.6109 13.2821 32.5293 13.2821 33.4688C13.2807 34.7281 12.7798 35.9355 11.8893 36.826C10.9988 37.7164 9.79143 38.2173 8.53208 38.2188ZM13.6769 23.4213C14.2433 23.7906 14.8531 24.0883 15.4926 24.3078C15.797 25.495 16.3206 26.6148 17.0364 27.6096C15.453 26.6587 14.2616 25.1733 13.6769 23.4213ZM23.3758 35.8438C23.3758 36.3135 23.2365 36.7727 22.9756 37.1632C22.7146 37.5538 22.3437 37.8582 21.9097 38.038C21.4757 38.2177 20.9982 38.2648 20.5375 38.1731C20.0768 38.0815 19.6536 37.8553 19.3215 37.5231C18.9893 37.191 18.7631 36.7678 18.6715 36.3071C18.5798 35.8464 18.6269 35.3689 18.8066 34.9349C18.9864 34.5009 19.2908 34.13 19.6814 33.869C20.0719 33.6081 20.5311 33.4688 21.0008 33.4688C21.6307 33.4688 22.2348 33.719 22.6802 34.1644C23.1256 34.6098 23.3758 35.2139 23.3758 35.8438ZM24.9665 27.6096C25.6823 26.6148 26.2058 25.495 26.5102 24.3078C27.1497 24.0883 27.7596 23.7906 28.3259 23.4213C27.7413 25.1733 26.5498 26.6587 24.9665 27.6096ZM38.2196 33.4688C38.2196 34.4082 37.941 35.3266 37.4191 36.1077C36.8971 36.8889 36.1553 37.4977 35.2873 37.8572C34.4194 38.2167 33.4643 38.3108 32.5429 38.1275C31.6215 37.9442 30.7751 37.4918 30.1108 36.8275C29.4465 36.1632 28.9941 35.3168 28.8109 34.3954C28.6276 33.474 28.7216 32.519 29.0812 31.651C29.4407 30.7831 30.0495 30.0412 30.8306 29.5193C31.6118 28.9973 32.5301 28.7188 33.4696 28.7188C34.7289 28.7202 35.9363 29.2211 36.8268 30.1116C37.7173 31.0021 38.2182 32.2094 38.2196 33.4688Z" fill="#5FFF00"/>
<path d="M9.94497 7.82172C10.182 7.51459 10.3111 7.13793 10.3125 6.75C10.3125 6.27758 10.1248 5.82452 9.79078 5.49047C9.45673 5.15642 9.00367 4.96875 8.53125 4.96875C8.05883 4.96875 7.60576 5.15642 7.27172 5.49047C6.93767 5.82452 6.75 6.27758 6.75 6.75C6.75203 7.13691 6.88117 7.51243 7.11753 7.81875C6.81987 8.0382 6.57784 8.32442 6.41089 8.65441C6.24394 8.98439 6.15672 9.34894 6.15625 9.71875V11.5C6.15625 11.6575 6.21881 11.8085 6.33016 11.9198C6.44151 12.0312 6.59253 12.0938 6.75 12.0938H10.3125C10.47 12.0938 10.621 12.0312 10.7323 11.9198C10.8437 11.8085 10.9062 11.6575 10.9062 11.5V9.71875C10.9053 9.34944 10.8179 8.98548 10.6509 8.65605C10.484 8.32662 10.2422 8.04088 9.94497 7.82172ZM7.9375 6.75C7.9375 6.63257 7.97232 6.51777 8.03756 6.42013C8.10281 6.32249 8.19554 6.24639 8.30403 6.20145C8.41253 6.15651 8.53191 6.14475 8.64708 6.16766C8.76226 6.19057 8.86806 6.24712 8.95109 6.33016C9.03413 6.41319 9.09068 6.51899 9.11359 6.63417C9.1365 6.74934 9.12474 6.86872 9.0798 6.97722C9.03486 7.08571 8.95876 7.17844 8.86112 7.24369C8.76348 7.30893 8.64868 7.34375 8.53125 7.34375C8.37378 7.34375 8.22276 7.28119 8.11141 7.16984C8.00006 7.05849 7.9375 6.90747 7.9375 6.75ZM9.71875 10.9062H7.34375V9.71875C7.34375 9.40381 7.46886 9.10176 7.69156 8.87906C7.91426 8.65636 8.21631 8.53125 8.53125 8.53125C8.84619 8.53125 9.14824 8.65636 9.37094 8.87906C9.59364 9.10176 9.71875 9.40381 9.71875 9.71875V10.9062Z" fill="#5FFF00"/>
<path d="M31.6875 12.0938H35.25C35.4075 12.0938 35.5585 12.0312 35.6698 11.9198C35.7812 11.8085 35.8438 11.6575 35.8438 11.5V9.71875C35.8428 9.34944 35.7554 8.98548 35.5884 8.65605C35.4215 8.32662 35.1797 8.04088 34.8825 7.82172C35.1195 7.51459 35.2486 7.13793 35.25 6.75C35.25 6.27758 35.0623 5.82452 34.7283 5.49047C34.3942 5.15642 33.9412 4.96875 33.4688 4.96875C32.9963 4.96875 32.5433 5.15642 32.2092 5.49047C31.8752 5.82452 31.6875 6.27758 31.6875 6.75C31.6895 7.13691 31.8187 7.51243 32.055 7.81875C31.7574 8.0382 31.5153 8.32442 31.3484 8.65441C31.1814 8.98439 31.0942 9.34894 31.0938 9.71875V11.5C31.0938 11.6575 31.1563 11.8085 31.2677 11.9198C31.379 12.0312 31.53 12.0938 31.6875 12.0938ZM34.6562 10.9062H32.2812V9.71875C32.2812 9.40381 32.4064 9.10176 32.6291 8.87906C32.8518 8.65636 33.1538 8.53125 33.4688 8.53125C33.7837 8.53125 34.0857 8.65636 34.3084 8.87906C34.5311 9.10176 34.6562 9.40381 34.6562 9.71875V10.9062ZM32.875 6.75C32.875 6.63257 32.9098 6.51777 32.9751 6.42013C33.0403 6.32249 33.133 6.24639 33.2415 6.20145C33.35 6.15651 33.4694 6.14475 33.5846 6.16766C33.6998 6.19057 33.8056 6.24712 33.8886 6.33016C33.9716 6.41319 34.0282 6.51899 34.0511 6.63417C34.074 6.74934 34.0622 6.86872 34.0173 6.97722C33.9724 7.08571 33.8963 7.17844 33.7986 7.24369C33.701 7.30893 33.5862 7.34375 33.4688 7.34375C33.3113 7.34375 33.1603 7.28119 33.0489 7.16984C32.9376 7.05849 32.875 6.90747 32.875 6.75Z" fill="#5FFF00"/>
<path d="M9.94497 32.7592C10.182 32.4521 10.3111 32.0754 10.3125 31.6875C10.3125 31.2151 10.1248 30.762 9.79078 30.428C9.45673 30.0939 9.00367 29.9062 8.53125 29.9062C8.05883 29.9062 7.60576 30.0939 7.27172 30.428C6.93767 30.762 6.75 31.2151 6.75 31.6875C6.75203 32.0744 6.88117 32.4499 7.11753 32.7562C6.81984 32.9757 6.57778 33.2619 6.41083 33.5919C6.24387 33.9219 6.15668 34.2864 6.15625 34.6562V36.4375C6.15625 36.595 6.21881 36.746 6.33016 36.8573C6.44151 36.9687 6.59253 37.0312 6.75 37.0312H10.3125C10.47 37.0312 10.621 36.9687 10.7323 36.8573C10.8437 36.746 10.9062 36.595 10.9062 36.4375V34.6562C10.9054 34.2869 10.8179 33.923 10.651 33.5935C10.4841 33.2641 10.2423 32.9783 9.94497 32.7592ZM7.9375 31.6875C7.9375 31.5701 7.97232 31.4553 8.03756 31.3576C8.10281 31.26 8.19554 31.1839 8.30403 31.1389C8.41253 31.094 8.53191 31.0822 8.64708 31.1052C8.76226 31.1281 8.86806 31.1846 8.95109 31.2677C9.03413 31.3507 9.09068 31.4565 9.11359 31.5717C9.1365 31.6868 9.12474 31.8062 9.0798 31.9147C9.03486 32.0232 8.95876 32.1159 8.86112 32.1812C8.76348 32.2464 8.64868 32.2812 8.53125 32.2812C8.37378 32.2812 8.22276 32.2187 8.11141 32.1073C8.00006 31.996 7.9375 31.845 7.9375 31.6875ZM9.71875 35.8438H7.34375V34.6562C7.34375 34.3413 7.46886 34.0393 7.69156 33.8166C7.91426 33.5939 8.21631 33.4688 8.53125 33.4688C8.84619 33.4688 9.14824 33.5939 9.37094 33.8166C9.59364 34.0393 9.71875 34.3413 9.71875 34.6562V35.8438Z" fill="#5FFF00"/>
<path d="M31.6875 37.0312H35.25C35.4075 37.0312 35.5585 36.9687 35.6698 36.8573C35.7812 36.746 35.8438 36.595 35.8438 36.4375V34.6562C35.8429 34.2869 35.7554 33.923 35.5885 33.5935C35.4216 33.2641 35.1798 32.9783 34.8825 32.7592C35.1195 32.4521 35.2486 32.0754 35.25 31.6875C35.25 31.2151 35.0623 30.762 34.7283 30.428C34.3942 30.0939 33.9412 29.9062 33.4688 29.9062C32.9963 29.9062 32.5433 30.0939 32.2092 30.428C31.8752 30.762 31.6875 31.2151 31.6875 31.6875C31.6895 32.0744 31.8187 32.4499 32.055 32.7562C31.7573 32.9757 31.5153 33.2619 31.3483 33.5919C31.1814 33.9219 31.0942 34.2864 31.0938 34.6562V36.4375C31.0938 36.595 31.1563 36.746 31.2677 36.8573C31.379 36.9687 31.53 37.0312 31.6875 37.0312ZM34.6562 35.8438H32.2812V34.6562C32.2812 34.3413 32.4064 34.0393 32.6291 33.8166C32.8518 33.5939 33.1538 33.4688 33.4688 33.4688C33.7837 33.4688 34.0857 33.5939 34.3084 33.8166C34.5311 34.0393 34.6562 34.3413 34.6562 34.6562V35.8438ZM32.875 31.6875C32.875 31.5701 32.9098 31.4553 32.9751 31.3576C33.0403 31.26 33.133 31.1839 33.2415 31.1389C33.35 31.094 33.4694 31.0822 33.5846 31.1052C33.6998 31.1281 33.8056 31.1846 33.8886 31.2677C33.9716 31.3507 34.0282 31.4565 34.0511 31.5717C34.074 31.6868 34.0622 31.8062 34.0173 31.9147C33.9724 32.0232 33.8963 32.1159 33.7986 32.1812C33.701 32.2464 33.5862 32.2812 33.4688 32.2812C33.3113 32.2812 33.1603 32.2187 33.0489 32.1073C32.9376 31.996 32.875 31.845 32.875 31.6875Z" fill="#5FFF00"/>
<path d="M21 7.34375C21.6558 7.34375 22.1875 6.81209 22.1875 6.15625C22.1875 5.50041 21.6558 4.96875 21 4.96875C20.3442 4.96875 19.8125 5.50041 19.8125 6.15625C19.8125 6.81209 20.3442 7.34375 21 7.34375Z" fill="#5FFF00"/>
<path d="M21 37.0312C21.6558 37.0312 22.1875 36.4996 22.1875 35.8438C22.1875 35.1879 21.6558 34.6562 21 34.6562C20.3442 34.6562 19.8125 35.1879 19.8125 35.8438C19.8125 36.4996 20.3442 37.0312 21 37.0312Z" fill="#5FFF00"/>
<path d="M35.8438 22.1875C36.4996 22.1875 37.0312 21.6558 37.0312 21C37.0312 20.3442 36.4996 19.8125 35.8438 19.8125C35.1879 19.8125 34.6562 20.3442 34.6562 21C34.6562 21.6558 35.1879 22.1875 35.8438 22.1875Z" fill="#5FFF00"/>
<path d="M6.15625 22.1875C6.81209 22.1875 7.34375 21.6558 7.34375 21C7.34375 20.3442 6.81209 19.8125 6.15625 19.8125C5.50041 19.8125 4.96875 20.3442 4.96875 21C4.96875 21.6558 5.50041 22.1875 6.15625 22.1875Z" fill="#5FFF00"/>
</svg>
