<svg width="50" height="50" viewBox="0 0 50 50" fill="none" xmlns="http://www.w3.org/2000/svg">
<g clip-path="url(#clip0_1608_642)" filter="url(#filter0_d_1608_642)">
<path d="M26.5762 3.32649L23.6247 6.27793L22.7358 5.38899L21.7637 6.36112L23.1387 7.73612C23.2727 7.87018 23.4487 7.93755 23.6247 7.93755C23.8007 7.93755 23.9767 7.87018 24.1108 7.73612L27.5483 4.29862L26.5762 3.32649Z" fill="#5FFF00"/>
<path d="M38.7497 15.5C38.9257 15.5 39.1017 15.4326 39.2358 15.2985L42.6733 11.861L41.7012 10.8889L38.7497 13.8404L37.8608 12.9514L36.8887 13.9235L38.2637 15.2985C38.3977 15.4326 38.5737 15.5 38.7497 15.5Z" fill="#5FFF00"/>
<path d="M40.125 30.625C38.5561 30.625 37.1419 31.2891 36.1389 32.3465L25.4146 24.487C26.0209 23.4633 26.375 22.2733 26.375 21C26.375 20.4094 26.2925 19.8395 26.1516 19.2922L35.2431 15.9606C36.1595 17.7261 38.002 18.9375 40.125 18.9375C43.1576 18.9375 45.625 16.4701 45.625 13.4375C45.625 10.4049 43.1576 7.9375 40.125 7.9375C37.0924 7.9375 34.625 10.4049 34.625 13.4375C34.625 13.8617 34.6779 14.2728 34.7694 14.6695L25.6772 18.0018C25 16.6117 23.8704 15.4862 22.4783 14.8132L23.7838 11.2347C24.1757 11.3241 24.5813 11.375 25 11.375C28.0326 11.375 30.5 8.90756 30.5 5.875C30.5 2.84244 28.0326 0.375 25 0.375C21.9674 0.375 19.5 2.84244 19.5 5.875C19.5 8.00419 20.7183 9.85013 22.492 10.7638L21.1857 14.3429C20.6454 14.2054 20.0823 14.125 19.5 14.125C18.389 14.125 17.3419 14.3959 16.4117 14.8661L13.3847 10.1052C14.5995 9.09525 15.375 7.5745 15.375 5.875C15.375 2.84244 12.9076 0.375 9.875 0.375C6.84244 0.375 4.375 2.84244 4.375 5.875C4.375 8.90756 6.84244 11.375 9.875 11.375C10.7158 11.375 11.5099 11.1797 12.2235 10.8408L15.2519 15.6052C13.6556 16.8654 12.625 18.8124 12.625 21C12.625 23.0783 13.5559 24.9408 15.0182 26.2023L12.438 29.888C11.6721 29.4824 10.8004 29.25 9.875 29.25C6.84244 29.25 4.375 31.7174 4.375 34.75C4.375 37.7826 6.84244 40.25 9.875 40.25C12.9076 40.25 15.375 37.7826 15.375 34.75C15.375 33.1364 14.6724 31.6879 13.5621 30.6807L16.1429 26.9936C17.1371 27.5526 18.2811 27.875 19.5 27.875C21.524 27.875 23.3404 26.9909 24.5999 25.5939L35.3221 33.452C34.8794 34.2447 34.625 35.1549 34.625 36.125C34.625 39.1576 37.0924 41.625 40.125 41.625C43.1576 41.625 45.625 39.1576 45.625 36.125C45.625 33.0924 43.1576 30.625 40.125 30.625ZM40.125 9.3125C42.3999 9.3125 44.25 11.1626 44.25 13.4375C44.25 15.7124 42.3999 17.5625 40.125 17.5625C37.8501 17.5625 36 15.7124 36 13.4375C36 11.1626 37.8501 9.3125 40.125 9.3125ZM20.875 5.875C20.875 3.60006 22.7251 1.75 25 1.75C27.2749 1.75 29.125 3.60006 29.125 5.875C29.125 8.14994 27.2749 10 25 10C22.7251 10 20.875 8.14994 20.875 5.875ZM5.75 5.875C5.75 3.60006 7.60006 1.75 9.875 1.75C12.1499 1.75 14 3.60006 14 5.875C14 8.14994 12.1499 10 9.875 10C7.60006 10 5.75 8.14994 5.75 5.875ZM14 34.75C14 37.0249 12.1499 38.875 9.875 38.875C7.60006 38.875 5.75 37.0249 5.75 34.75C5.75 32.4751 7.60006 30.625 9.875 30.625C12.1499 30.625 14 32.4751 14 34.75ZM19.5 26.5C16.4674 26.5 14 24.0326 14 21C14 17.9674 16.4674 15.5 19.5 15.5C22.5326 15.5 25 17.9674 25 21C25 24.0326 22.5326 26.5 19.5 26.5ZM40.125 40.25C37.8501 40.25 36 38.3999 36 36.125C36 33.8501 37.8501 32 40.125 32C42.3999 32 44.25 33.8501 44.25 36.125C44.25 38.3999 42.3999 40.25 40.125 40.25Z" fill="#5FFF00"/>
<path d="M8.49973 35.1529L7.6108 34.2639L6.63867 35.236L8.01367 36.611C8.14773 36.7451 8.32373 36.8125 8.49973 36.8125C8.67573 36.8125 8.85173 36.7451 8.9858 36.611L12.4233 33.1735L11.4512 32.2014L8.49973 35.1529Z" fill="#5FFF00"/>
</g>
<defs>
<filter id="filter0_d_1608_642" x="0" y="0" width="50" height="50" filterUnits="userSpaceOnUse" color-interpolation-filters="sRGB">
<feFlood flood-opacity="0" result="BackgroundImageFix"/>
<feColorMatrix in="SourceAlpha" type="matrix" values="0 0 0 0 0 0 0 0 0 0 0 0 0 0 0 0 0 0 127 0" result="hardAlpha"/>
<feOffset dy="4"/>
<feGaussianBlur stdDeviation="2"/>
<feComposite in2="hardAlpha" operator="out"/>
<feColorMatrix type="matrix" values="0 0 0 0 0 0 0 0 0 0 0 0 0 0 0 0 0 0 0.25 0"/>
<feBlend mode="normal" in2="BackgroundImageFix" result="effect1_dropShadow_1608_642"/>
<feBlend mode="normal" in="SourceGraphic" in2="effect1_dropShadow_1608_642" result="shape"/>
</filter>
<clipPath id="clip0_1608_642">
<rect width="42" height="42" fill="white" transform="translate(4)"/>
</clipPath>
</defs>
</svg>
