<svg width="361" height="337" viewBox="0 0 361 337" fill="none" xmlns="http://www.w3.org/2000/svg">
<path d="M200.5 115C180.001 145 208 172 226.5 177C264.9 161.4 264 130 253.5 115L226.5 103L200.5 115Z" fill="url(#paint0_linear_1629_4113)"/>
<circle cx="119" cy="44" r="36" fill="url(#paint1_radial_1629_4113)"/>
<circle cx="256" cy="291" r="46" fill="url(#paint2_radial_1629_4113)"/>
<circle cx="46" cy="168" r="46" fill="url(#paint3_radial_1629_4113)"/>
<circle cx="119" cy="291" r="33" fill="url(#paint4_radial_1629_4113)"/>
<circle cx="256" cy="44" r="33" fill="url(#paint5_radial_1629_4113)"/>
<circle cx="328" cy="168" r="33" fill="url(#paint6_radial_1629_4113)"/>
<mask id="path-8-inside-1_1629_4113" fill="white">
<path d="M328.659 142.438C326.913 142.438 325.208 142.613 323.556 142.939L276.351 61.1772C280.174 56.6044 282.48 50.7211 282.48 44.3089C282.48 41.6918 282.097 39.1062 281.341 36.6236C280.548 34.0235 277.799 32.5588 275.198 33.3495C272.598 34.1423 271.132 36.892 271.925 39.492C272.398 41.0441 272.637 42.665 272.637 44.3089C272.637 53.4052 265.237 60.8057 256.141 60.8057C247.044 60.8057 239.644 53.4059 239.644 44.3089C239.644 35.212 247.044 27.8114 256.141 27.8114C257.134 27.8114 258.128 27.9 259.097 28.0746C261.771 28.555 264.333 26.7805 264.815 24.1049C265.297 21.4301 263.52 18.8694 260.845 18.387C259.301 18.1081 257.719 17.967 256.141 17.967C243.298 17.967 232.581 27.207 230.268 39.3864H145.264C142.951 27.207 132.233 17.967 119.391 17.967C104.867 17.967 93.0506 29.7835 93.0506 44.3083C93.0506 51.5697 96.0044 58.1538 100.773 62.9235L54.0142 143.911C51.296 142.96 48.379 142.437 45.3406 142.437C30.8164 142.438 19 154.254 19 168.779C19 183.303 30.8164 195.12 45.3406 195.12C48.379 195.12 51.296 194.597 54.0136 193.646L100.212 273.664C95.7767 278.38 93.0499 284.722 93.0499 291.692C93.0499 306.216 104.866 318.033 119.39 318.033C131.679 318.033 142.028 309.573 144.923 298.171H230.607C233.501 309.573 243.85 318.033 256.139 318.033C270.663 318.033 282.479 306.216 282.479 291.692C282.479 285.579 280.38 279.95 276.873 275.476L323.554 194.62C325.206 194.945 326.912 195.12 328.657 195.12C343.182 195.12 354.999 183.304 354.999 168.779C355 154.254 343.184 142.438 328.659 142.438ZM268.631 67.4929L314.35 146.681C308.432 150.526 304.148 156.679 302.786 163.857H274.569C271.008 161.56 266.971 159.947 262.637 159.189C266.928 151.727 269.152 143.439 269.152 134.653C269.152 125.356 266.207 116.523 260.637 109.108C259.537 107.645 258.057 106.471 256.356 105.716L235.965 96.654L250.879 70.1199C252.58 70.4657 254.338 70.6488 256.14 70.6488C260.657 70.6488 264.911 69.505 268.631 67.4929ZM200.405 115.02C200.5 114.894 200.641 114.787 200.812 114.71L226.145 103.454C226.424 103.33 226.746 103.329 227.027 103.454L252.359 114.711C252.531 114.787 252.672 114.894 252.767 115.021C257.046 120.718 259.309 127.506 259.309 134.653C259.309 141.473 256.948 164.665 226.569 176.766C226.496 176.795 226.416 176.797 226.345 176.773C218.725 174.148 193.862 163.353 193.862 134.653C193.862 127.506 196.124 120.717 200.405 115.02ZM241.716 66.3327L226.431 93.5264C224.969 93.5467 223.509 93.8532 222.147 94.4582L196.814 105.715C196.814 105.715 196.813 105.715 196.812 105.716C195.112 106.471 193.632 107.644 192.534 109.108C191.632 110.309 190.806 111.55 190.043 112.821C183.301 109.049 175.734 107.126 167.909 107.273C165.213 107.319 162.549 107.617 159.943 108.148L135.688 64.9775C140.571 61.1194 144.058 55.5754 145.263 49.2295H230.267C231.621 56.3623 235.857 62.4824 241.716 66.3327ZM119.391 27.8114C128.487 27.8114 135.888 35.212 135.888 44.3089C135.888 53.4059 128.487 60.8057 119.391 60.8057C110.295 60.8057 102.894 53.4059 102.894 44.3089C102.894 35.212 110.295 27.8114 119.391 27.8114ZM108.932 68.4779C112.141 69.8718 115.676 70.6488 119.391 70.6488C122.021 70.6488 124.56 70.2564 126.958 69.5358L150.408 111.273C146.009 113.3 141.922 116.061 138.326 119.494C136.36 121.372 136.288 124.487 138.165 126.453C139.132 127.466 140.428 127.976 141.725 127.976C142.947 127.976 144.171 127.524 145.123 126.614C151.387 120.633 159.538 117.26 168.076 117.115C174.43 117.016 180.569 118.634 185.982 121.834C184.689 125.935 184.018 130.24 184.018 134.652C184.018 149.621 189.779 162.811 200.68 172.796C209.438 180.819 219.303 184.758 223.138 186.079C224.21 186.447 225.327 186.631 226.445 186.631C227.724 186.631 229.002 186.39 230.209 185.909C234.008 184.395 243.785 179.998 252.482 171.869C253.638 170.789 254.723 169.672 255.763 168.534C255.937 168.547 256.114 168.552 256.292 168.546C256.832 168.53 257.383 168.532 257.933 168.555C270.017 169.04 279.62 179.017 279.796 191.27C279.886 197.558 277.521 203.471 273.137 207.918C268.83 212.288 263.099 214.694 257.002 214.694H137.525C131.289 214.694 125.42 212.247 121 207.8C116.638 203.414 114.255 197.617 114.29 191.48C114.345 181.919 120.334 173.271 129.193 169.96C133.554 168.331 136.013 163.815 135.04 159.223C134.57 157.001 134.314 154.715 134.28 152.427C134.26 151.073 134.32 149.706 134.455 148.366C134.73 145.661 132.76 143.246 130.056 142.972C127.355 142.692 124.936 144.667 124.662 147.371C124.488 149.089 124.413 150.839 124.438 152.571C124.479 155.37 124.78 158.169 125.335 160.898C123.293 161.693 121.363 162.691 119.558 163.856H71.2132C70.0832 157.904 66.9456 152.658 62.5317 148.846L108.932 68.4779ZM230.021 288.326H145.51C144.648 281.6 141.245 275.661 136.291 271.506L162.679 224.539H215.83L241.104 270.081C235.148 274.239 230.987 280.788 230.021 288.326ZM28.8438 168.779C28.8438 159.682 36.2443 152.282 45.3406 152.282C54.4368 152.282 61.8374 159.682 61.8374 168.779C61.8374 177.875 54.4375 185.275 45.3406 185.275C36.2436 185.275 28.8438 177.875 28.8438 168.779ZM71.2132 173.7H109.746C106.405 178.884 104.483 185.01 104.447 191.426C104.397 200.204 107.797 208.485 114.02 214.743C120.302 221.061 128.65 224.54 137.526 224.54H151.388L127.7 266.701C125.086 265.829 122.294 265.35 119.391 265.35C115.399 265.35 111.613 266.247 108.219 267.844L62.5317 188.711C66.9456 184.899 70.0832 179.653 71.2132 173.7ZM119.391 308.188C110.295 308.188 102.894 300.787 102.894 291.69C102.894 282.593 110.295 275.193 119.391 275.193C128.487 275.193 135.888 282.593 135.888 291.69C135.888 300.787 128.487 308.188 119.391 308.188ZM256.139 308.188C247.043 308.188 239.642 300.787 239.642 291.69C239.642 282.593 247.043 275.193 256.139 275.193C265.236 275.193 272.636 282.593 272.636 291.69C272.636 300.787 265.236 308.188 256.139 308.188ZM269.308 268.893C265.43 266.644 260.934 265.35 256.139 265.35C254.069 265.35 252.058 265.598 250.125 266.051L227.088 224.539H257.002C265.756 224.539 273.977 221.091 280.149 214.83C286.397 208.491 289.767 200.074 289.639 191.13C289.547 184.712 287.629 178.734 284.387 173.7H302.786C304.149 180.878 308.431 187.03 314.35 190.876L269.308 268.893ZM328.659 185.275C319.562 185.275 312.162 177.875 312.162 168.778C312.162 159.681 319.562 152.281 328.659 152.281C337.755 152.281 345.156 159.682 345.156 168.779C345.156 177.875 337.756 185.275 328.659 185.275Z"/>
</mask>
<path d="M328.659 142.438C326.913 142.438 325.208 142.613 323.556 142.939L276.351 61.1772C280.174 56.6044 282.48 50.7211 282.48 44.3089C282.48 41.6918 282.097 39.1062 281.341 36.6236C280.548 34.0235 277.799 32.5588 275.198 33.3495C272.598 34.1423 271.132 36.892 271.925 39.492C272.398 41.0441 272.637 42.665 272.637 44.3089C272.637 53.4052 265.237 60.8057 256.141 60.8057C247.044 60.8057 239.644 53.4059 239.644 44.3089C239.644 35.212 247.044 27.8114 256.141 27.8114C257.134 27.8114 258.128 27.9 259.097 28.0746C261.771 28.555 264.333 26.7805 264.815 24.1049C265.297 21.4301 263.52 18.8694 260.845 18.387C259.301 18.1081 257.719 17.967 256.141 17.967C243.298 17.967 232.581 27.207 230.268 39.3864H145.264C142.951 27.207 132.233 17.967 119.391 17.967C104.867 17.967 93.0506 29.7835 93.0506 44.3083C93.0506 51.5697 96.0044 58.1538 100.773 62.9235L54.0142 143.911C51.296 142.96 48.379 142.437 45.3406 142.437C30.8164 142.438 19 154.254 19 168.779C19 183.303 30.8164 195.12 45.3406 195.12C48.379 195.12 51.296 194.597 54.0136 193.646L100.212 273.664C95.7767 278.38 93.0499 284.722 93.0499 291.692C93.0499 306.216 104.866 318.033 119.39 318.033C131.679 318.033 142.028 309.573 144.923 298.171H230.607C233.501 309.573 243.85 318.033 256.139 318.033C270.663 318.033 282.479 306.216 282.479 291.692C282.479 285.579 280.38 279.95 276.873 275.476L323.554 194.62C325.206 194.945 326.912 195.12 328.657 195.12C343.182 195.12 354.999 183.304 354.999 168.779C355 154.254 343.184 142.438 328.659 142.438ZM268.631 67.4929L314.35 146.681C308.432 150.526 304.148 156.679 302.786 163.857H274.569C271.008 161.56 266.971 159.947 262.637 159.189C266.928 151.727 269.152 143.439 269.152 134.653C269.152 125.356 266.207 116.523 260.637 109.108C259.537 107.645 258.057 106.471 256.356 105.716L235.965 96.654L250.879 70.1199C252.58 70.4657 254.338 70.6488 256.14 70.6488C260.657 70.6488 264.911 69.505 268.631 67.4929ZM200.405 115.02C200.5 114.894 200.641 114.787 200.812 114.71L226.145 103.454C226.424 103.33 226.746 103.329 227.027 103.454L252.359 114.711C252.531 114.787 252.672 114.894 252.767 115.021C257.046 120.718 259.309 127.506 259.309 134.653C259.309 141.473 256.948 164.665 226.569 176.766C226.496 176.795 226.416 176.797 226.345 176.773C218.725 174.148 193.862 163.353 193.862 134.653C193.862 127.506 196.124 120.717 200.405 115.02ZM241.716 66.3327L226.431 93.5264C224.969 93.5467 223.509 93.8532 222.147 94.4582L196.814 105.715C196.814 105.715 196.813 105.715 196.812 105.716C195.112 106.471 193.632 107.644 192.534 109.108C191.632 110.309 190.806 111.55 190.043 112.821C183.301 109.049 175.734 107.126 167.909 107.273C165.213 107.319 162.549 107.617 159.943 108.148L135.688 64.9775C140.571 61.1194 144.058 55.5754 145.263 49.2295H230.267C231.621 56.3623 235.857 62.4824 241.716 66.3327ZM119.391 27.8114C128.487 27.8114 135.888 35.212 135.888 44.3089C135.888 53.4059 128.487 60.8057 119.391 60.8057C110.295 60.8057 102.894 53.4059 102.894 44.3089C102.894 35.212 110.295 27.8114 119.391 27.8114ZM108.932 68.4779C112.141 69.8718 115.676 70.6488 119.391 70.6488C122.021 70.6488 124.56 70.2564 126.958 69.5358L150.408 111.273C146.009 113.3 141.922 116.061 138.326 119.494C136.36 121.372 136.288 124.487 138.165 126.453C139.132 127.466 140.428 127.976 141.725 127.976C142.947 127.976 144.171 127.524 145.123 126.614C151.387 120.633 159.538 117.26 168.076 117.115C174.43 117.016 180.569 118.634 185.982 121.834C184.689 125.935 184.018 130.24 184.018 134.652C184.018 149.621 189.779 162.811 200.68 172.796C209.438 180.819 219.303 184.758 223.138 186.079C224.21 186.447 225.327 186.631 226.445 186.631C227.724 186.631 229.002 186.39 230.209 185.909C234.008 184.395 243.785 179.998 252.482 171.869C253.638 170.789 254.723 169.672 255.763 168.534C255.937 168.547 256.114 168.552 256.292 168.546C256.832 168.53 257.383 168.532 257.933 168.555C270.017 169.04 279.62 179.017 279.796 191.27C279.886 197.558 277.521 203.471 273.137 207.918C268.83 212.288 263.099 214.694 257.002 214.694H137.525C131.289 214.694 125.42 212.247 121 207.8C116.638 203.414 114.255 197.617 114.29 191.48C114.345 181.919 120.334 173.271 129.193 169.96C133.554 168.331 136.013 163.815 135.04 159.223C134.57 157.001 134.314 154.715 134.28 152.427C134.26 151.073 134.32 149.706 134.455 148.366C134.73 145.661 132.76 143.246 130.056 142.972C127.355 142.692 124.936 144.667 124.662 147.371C124.488 149.089 124.413 150.839 124.438 152.571C124.479 155.37 124.78 158.169 125.335 160.898C123.293 161.693 121.363 162.691 119.558 163.856H71.2132C70.0832 157.904 66.9456 152.658 62.5317 148.846L108.932 68.4779ZM230.021 288.326H145.51C144.648 281.6 141.245 275.661 136.291 271.506L162.679 224.539H215.83L241.104 270.081C235.148 274.239 230.987 280.788 230.021 288.326ZM28.8438 168.779C28.8438 159.682 36.2443 152.282 45.3406 152.282C54.4368 152.282 61.8374 159.682 61.8374 168.779C61.8374 177.875 54.4375 185.275 45.3406 185.275C36.2436 185.275 28.8438 177.875 28.8438 168.779ZM71.2132 173.7H109.746C106.405 178.884 104.483 185.01 104.447 191.426C104.397 200.204 107.797 208.485 114.02 214.743C120.302 221.061 128.65 224.54 137.526 224.54H151.388L127.7 266.701C125.086 265.829 122.294 265.35 119.391 265.35C115.399 265.35 111.613 266.247 108.219 267.844L62.5317 188.711C66.9456 184.899 70.0832 179.653 71.2132 173.7ZM119.391 308.188C110.295 308.188 102.894 300.787 102.894 291.69C102.894 282.593 110.295 275.193 119.391 275.193C128.487 275.193 135.888 282.593 135.888 291.69C135.888 300.787 128.487 308.188 119.391 308.188ZM256.139 308.188C247.043 308.188 239.642 300.787 239.642 291.69C239.642 282.593 247.043 275.193 256.139 275.193C265.236 275.193 272.636 282.593 272.636 291.69C272.636 300.787 265.236 308.188 256.139 308.188ZM269.308 268.893C265.43 266.644 260.934 265.35 256.139 265.35C254.069 265.35 252.058 265.598 250.125 266.051L227.088 224.539H257.002C265.756 224.539 273.977 221.091 280.149 214.83C286.397 208.491 289.767 200.074 289.639 191.13C289.547 184.712 287.629 178.734 284.387 173.7H302.786C304.149 180.878 308.431 187.03 314.35 190.876L269.308 268.893ZM328.659 185.275C319.562 185.275 312.162 177.875 312.162 168.778C312.162 159.681 319.562 152.281 328.659 152.281C337.755 152.281 345.156 159.682 345.156 168.779C345.156 177.875 337.756 185.275 328.659 185.275Z" stroke="white" stroke-width="2" mask="url(#path-8-inside-1_1629_4113)"/>
<path d="M246.799 122.316L222.007 155.148L207.111 139.322C206.889 139.086 206.582 138.948 206.258 138.938C205.934 138.928 205.619 139.048 205.383 139.27C205.147 139.492 205.008 139.799 204.999 140.123C204.989 140.447 205.108 140.762 205.33 140.998L221.22 157.879C221.334 158 221.472 158.097 221.626 158.163C221.779 158.229 221.944 158.263 222.111 158.263H222.177C222.355 158.252 222.529 158.203 222.686 158.119C222.843 158.035 222.979 157.917 223.086 157.774L248.755 123.782C248.95 123.523 249.033 123.197 248.987 122.876C248.941 122.555 248.77 122.266 248.511 122.071C248.251 121.877 247.925 121.793 247.604 121.839C247.284 121.885 246.994 122.056 246.799 122.316Z" fill="white" stroke="white" stroke-width="1.91317"/>
<defs>
<linearGradient id="paint0_linear_1629_4113" x1="226.518" y1="103" x2="226.518" y2="177" gradientUnits="userSpaceOnUse">
<stop stop-color="#5FFF00"/>
<stop offset="0.0001" stop-color="#5FFF00" stop-opacity="0.9"/>
<stop offset="1" stop-color="#5FFF00" stop-opacity="0"/>
</linearGradient>
<radialGradient id="paint1_radial_1629_4113" cx="0" cy="0" r="1" gradientUnits="userSpaceOnUse" gradientTransform="translate(119 44) rotate(90) scale(36)">
<stop stop-color="#5FFF00"/>
<stop offset="0.0001" stop-color="#5FFF00" stop-opacity="0.9"/>
<stop offset="1" stop-color="#5FFF00" stop-opacity="0"/>
</radialGradient>
<radialGradient id="paint2_radial_1629_4113" cx="0" cy="0" r="1" gradientUnits="userSpaceOnUse" gradientTransform="translate(256 291) rotate(90) scale(46)">
<stop stop-color="#5FFF00"/>
<stop offset="0.0001" stop-color="#5FFF00" stop-opacity="0.9"/>
<stop offset="1" stop-color="#5FFF00" stop-opacity="0"/>
</radialGradient>
<radialGradient id="paint3_radial_1629_4113" cx="0" cy="0" r="1" gradientUnits="userSpaceOnUse" gradientTransform="translate(46 168) rotate(90) scale(46)">
<stop stop-color="#5FFF00"/>
<stop offset="0.0001" stop-color="#5FFF00" stop-opacity="0.9"/>
<stop offset="1" stop-color="#5FFF00" stop-opacity="0"/>
</radialGradient>
<radialGradient id="paint4_radial_1629_4113" cx="0" cy="0" r="1" gradientUnits="userSpaceOnUse" gradientTransform="translate(119 291) rotate(90) scale(33)">
<stop stop-color="#5FFF00"/>
<stop offset="0.0001" stop-color="#5FFF00" stop-opacity="0.9"/>
<stop offset="1" stop-color="#5FFF00" stop-opacity="0"/>
</radialGradient>
<radialGradient id="paint5_radial_1629_4113" cx="0" cy="0" r="1" gradientUnits="userSpaceOnUse" gradientTransform="translate(256 44) rotate(90) scale(33)">
<stop stop-color="#5FFF00"/>
<stop offset="0.0001" stop-color="#5FFF00" stop-opacity="0.9"/>
<stop offset="1" stop-color="#5FFF00" stop-opacity="0"/>
</radialGradient>
<radialGradient id="paint6_radial_1629_4113" cx="0" cy="0" r="1" gradientUnits="userSpaceOnUse" gradientTransform="translate(328 168) rotate(90) scale(33)">
<stop stop-color="#5FFF00"/>
<stop offset="0.0001" stop-color="#5FFF00" stop-opacity="0.9"/>
<stop offset="1" stop-color="#5FFF00" stop-opacity="0"/>
</radialGradient>
</defs>
</svg>
