<svg width="452" height="468" viewBox="0 0 452 468" fill="none" xmlns="http://www.w3.org/2000/svg">
<g clip-path="url(#clip0_1819_3578)">
<path d="M137.25 41.55V201.99" stroke="url(#paint0_linear_1819_3578)" stroke-width="3" stroke-linecap="round" stroke-linejoin="round"/>
<path d="M136.868 43.64C139.978 43.64 142.498 41.1194 142.498 38.01C142.498 34.9006 139.978 32.38 136.868 32.38C133.759 32.38 131.238 34.9006 131.238 38.01C131.238 41.1194 133.759 43.64 136.868 43.64Z" fill="#10E80C"/>
<g opacity="0.6">
<path d="M136.87 46.9001C141.78 46.9001 145.76 42.9199 145.76 38.0101C145.76 33.1003 141.78 29.1201 136.87 29.1201C131.961 29.1201 127.98 33.1003 127.98 38.0101C127.98 42.9199 131.961 46.9001 136.87 46.9001Z" stroke="#10E80C" stroke-miterlimit="10"/>
</g>
<g opacity="0.3">
<path d="M136.869 51.52C144.331 51.52 150.379 45.4714 150.379 38.01C150.379 30.5486 144.331 24.5 136.869 24.5C129.408 24.5 123.359 30.5486 123.359 38.01C123.359 45.4714 129.408 51.52 136.869 51.52Z" stroke="#10E80C" stroke-miterlimit="10"/>
</g>
<path d="M140.848 110.83L172.158 106.59L174.068 107.54L178.438 109.76L185.168 113.21L212.968 112.39L219.128 115.5L226.548 119.27L246.248 120.42L252.008 122.5L257.268 124.32L263.458 126.63L266.598 128.63L269.128 130.63L274.208 134.84L274.378 134.97L278.598 137.19L282.298 139.19L285.438 140.78L287.718 142.13L292.718 146.87L301.018 154.76L308.628 161.98L308.948 162.28L311.948 163.92L313.268 164.72L320.698 174.39L328.698 184.77L332.408 189.61L332.508 189.74L342.618 209.18L347.088 217.76M100.088 448.11L104.958 450.46L113.868 451.14L123.238 455.33L138.988 452.86L151.808 458.12L173.038 451.92L187.678 457.33L212.378 446.89L226.838 451.53L252.648 436.6L276.448 416.76L297.388 392.6L314.658 364.93L327.658 334.76L336.008 303.03L339.378 270.92L337.678 239.53M7.9978 233.89L9.35767 237.66L15.7078 243.95L27.0278 252.66L43.1477 263.59L63.6577 276.37L87.8877 290.68L115.038 305.96L144.108 321.64L173.978 337.11L203.508 351.76L231.568 365.08L257.108 376.55L279.258 385.81L297.308 392.57L310.768 396.71L319.388 398.16L323.068 397.01L330.978 384.72L339.208 371.94L340.068 370.59M104.878 450.43L109.578 452.53L113.958 454.31L117.898 455.72L121.088 456.63L129.668 458.93L136.898 460.93L139.348 461.67L141.348 462.3L146.218 463.64L172.678 465.15L199.808 461.15L226.738 451.57L237.828 454.14L245.268 454.64L248.958 453.11L271.368 441.69L273.278 440.52L297.918 421.52L301.728 420.1L313.498 407.41L321.618 398.64L323.048 397.11M109.558 452.63L123.138 455.4L131.848 458.94L151.708 458.19L163.088 462.32L187.578 457.4L199.808 461.18L209.298 463.25L237.828 454.17L264.828 439.77L272.938 440.52L276.758 438.96L293.488 426.32L299.558 421.73L301.718 420.1M113.958 454.33L119.878 455.83L129.698 458.68L137.938 461.33L139.348 461.65L163.108 462.24L172.698 465.13L180.208 466.71L209.318 463.17L215.798 463.5L245.288 454.59L273.288 440.47L276.778 438.88M117.898 455.76L120.898 456.59L121.228 456.76L129.668 458.7L131.838 458.88L139.608 461.68L146.208 463.68L151.428 464.76L167.878 465.91L177.198 466.56L180.198 466.77L185.438 467L215.788 463.56M15.6577 359.91L17.1978 362.73L18.5178 365.14L30.3376 386.68L33.6377 390.86L35.4878 393.13L37.3677 395.43L41.5977 400.62L51.8076 413.14L55.8076 416.81L61.2778 421.09L68.0876 425.85L69.4678 427.03M356.518 247.89L354.038 247.07L347.748 244.25L339.598 214.37L339.538 214.13L326.438 186.51L314.118 169.42L308.978 162.29L304.408 159.82L298.408 156.61L298.298 156.49L287.378 144.64L282.378 139.2L281.378 138.26L277.378 135.5L273.228 132.87L269.178 130.29L266.758 128.73L263.628 126.65L260.178 127.5L254.118 133.39L245.538 144.34L234.638 160.17L221.728 180.5L207.208 204.71L191.618 231.99L175.518 261.32L159.518 291.61L144.268 321.61L130.338 350.27L118.228 376.48L108.358 399.32L101.018 418.05L96.3777 432.17L94.4878 441.36M19.9778 204.66L21.5376 208.05L28.1677 214.05L39.8577 222.51L56.4077 233.27L77.4077 246.01L102.188 260.33L129.728 275.76L159.358 291.64L189.768 307.39L219.768 322.39L248.238 336.11L274.088 348.02L296.458 357.76L314.618 364.98L328.078 369.56L336.588 371.43M94.3276 441.43L104.078 446.48L113.788 451.17L125.068 446.68L138.418 436.96L153.418 422.14L169.668 402.59L186.658 378.84L203.558 351.78L219.828 322.36L234.828 291.69L247.988 260.96L258.828 231.34L266.958 203.91L272.168 179.65L274.338 159.33L273.508 143.51L269.818 132.51L264.978 129.99L260.048 127.43L255.188 124.92L244.278 128.31L231.048 136.83L215.838 150.4L199.108 168.76L181.498 191.28L163.608 217.28L146.128 245.76L129.728 275.76L115.038 306.01L102.658 335.35L92.8877 362.76L86.1677 387.26L82.5977 408.02L82.1978 424.45L84.8777 436.16L94.3276 441.38L95.1377 445.57L100.008 448.09L104.078 446.43L110.678 439.67L119.678 427.82L130.898 411.1L143.998 389.93L158.528 364.98L173.968 337.1L189.758 307.33L205.268 276.81L219.918 246.76L233.128 218.25L244.438 192.38L253.438 170.03L259.938 151.92L263.768 138.51L264.908 130.07L263.428 126.66L257.328 124.32L253.148 122.45L248.438 120.58L243.878 118.74L240.338 117.16L237.338 115.89L235.428 115.11L235.208 115.01L221.858 112.16L212.338 110.16L205.218 108.63H205.078L173.998 107.63L142.938 112.18L112.938 122.18L84.8777 137.33L59.7378 157.15L38.3276 181.03L21.3276 208.18L9.32764 237.71L2.66772 268.66L1.5376 300.02L5.91772 330.8L6.66772 333.04L12.4978 350.58L15.6377 360.01L19.7678 365.18L20.7078 366.93L31.0278 386.15L33.6177 390.96L39.3176 396.23L47.3176 402.43L57.3176 409.37L69.0576 416.83L82.1577 424.56L96.1577 432.3L110.618 439.78L125.008 446.78L138.848 452.99L156.328 445.18L174.988 432.09L194.198 414.01L213.278 391.48L231.508 365.24L248.188 336.24L262.668 305.53L274.408 274.3L282.988 243.72L288.128 214.92L289.728 188.92L287.818 166.55L274.238 159.49L259.908 152.05L245.308 144.48L230.948 137.04L217.318 129.98L198.078 141.39L177.858 157.75L157.388 178.61L137.388 203.3L118.748 230.76L102.018 260.31L87.8877 290.67L76.8877 320.67L69.3977 349.21L65.5977 375.28L65.5376 398L82.5876 408L100.848 418.05L119.678 427.8L138.408 436.89L156.408 445.01L172.978 451.88L194.898 440.27L216.758 423.49L237.758 402.01L257.128 376.54L274.128 347.96L288.128 317.32L298.508 285.76L305.038 254.43L307.488 224.49L305.838 196.98L289.838 188.74L272.178 179.63L253.518 169.98L234.518 160.13L215.848 150.43L198.188 141.21L182.128 132.81L168.208 125.49L142.268 138.49L117.268 156.41L93.9478 178.76L73.3877 204.68L56.2478 233.3L43.1677 263.58L34.5776 294.43L30.7378 324.73L31.7378 353.43L47.2778 363.92L65.6577 375.3L86.2178 387.3L108.218 399.38L130.928 411.14L153.488 422.14L175.068 431.99L194.898 440.34L212.318 446.92L236.398 431.2L258.998 410.63L279.278 385.87L296.458 357.76L309.958 327.28L319.248 295.54L324.018 263.7L324.168 232.89L319.738 204.17L305.838 197.05L300.248 172.88L287.878 166.44L282.658 148.31L273.478 143.51L263.808 138.51L253.958 133.4L244.248 128.4L235.018 123.65L217.388 129.86L204.938 123.43L194.078 117.76L168.158 125.47L156.818 119.47L128.818 131.15L102.228 147.9L77.9478 169.2L56.8376 194.34L39.6577 222.5L27.0078 252.61L19.3076 283.61L16.7678 314.49L30.6978 324.65L48.4177 336.35L69.3677 349.19L92.8877 362.76L118.068 376.5L144.008 389.93L169.718 402.54L194.258 413.86L216.738 423.51L236.378 431.15L252.568 436.58L264.858 439.68L289.448 420.36L310.768 396.76L328.078 369.54L340.768 339.65L348.408 308.09L350.738 275.95L347.738 244.28L337.738 239.51L331.118 209.91L319.778 204.15L311.038 178.47L300.288 172.86L291.028 152.76L282.648 148.35L274.378 135.02L269.778 132.6L265.238 128.12L263.498 126.7L257.118 124.44L252.868 122.51L247.648 120.57L242.648 118.64H242.518L219.168 115.64L194.168 117.94L185.258 113.35L156.908 119.65L148.458 115.14L143.098 112.23L140.938 110.97L110.818 120.6L82.8176 135.34L57.8176 154.72L36.6277 178.13L19.8777 204.83L8.07764 233.98L1.57764 264.68L2.77783 268.68L8.77783 275.09L19.4578 283.77L34.6877 294.51L54.0676 306.99L77.0078 320.81L102.658 335.35L130.218 350.3L158.578 364.99L186.658 378.84L213.388 391.34L237.788 402.04L259.028 410.59L276.418 416.75L289.498 420.37L297.988 421.44L319.438 398.18L336.638 371.38L340.118 370.61L345.248 358.35L352.248 341.56L359.158 310.78L360.598 279.23L358.598 264.08L356.488 247.89L352.658 235.64L347.028 217.76L344.858 216.76L339.518 214.13L331.078 209.88L319.808 183.04L304.968 160.68L304.388 159.81L304.248 159.67L294.508 149.95L285.768 141.23L285.378 140.84L284.188 139.92L281.248 138.04L277.538 135.89L273.428 133.44L269.198 130.83L265.198 128.11L263.458 126.64L257.458 124.27L252.838 122.45L248.478 120.56L243.918 118.72L239.848 117.07L237.158 115.87L236.908 115.77L230.388 114.47L219.108 112.22L208.278 110.06L178.448 109.77L148.378 115.01L119.048 125.69L91.4478 141.5L66.5278 161.97L45.1377 186.43L28.0178 214.05L15.7378 243.91L8.65771 274.97L7.02783 306.2L16.7976 314.53L19.4478 344.2L31.6978 353.39L37.3376 379.54L50.2876 388.42L65.5376 398.02L69.0876 416.73L76.0178 430.93L84.8677 436.17L90.3977 442.96L95.1277 445.58M336.578 371.38L348.958 341.89L356.118 310.66L357.818 278.71L354.008 247.07L344.858 216.76L334.858 197L330.658 188.76L330.608 188.7L322.108 177.43L311.918 163.92L311.378 163.42L306.568 158.98L291.858 145.4L289.258 143L289.008 142.83L287.538 141.96L285.438 140.78L281.258 138.25L277.938 136.52L273.418 133.44L269.068 130.44L265.218 127.91L263.458 126.62L255.148 124.96L250.508 122.59L235.008 123.59L226.548 119.25L204.928 123.37L182.078 132.81L158.748 147.37L135.748 166.68L113.968 190.12L94.2178 216.88L77.2178 245.98L63.6577 276.37L53.9578 306.87L48.4578 336.39L47.2478 363.88L50.2478 388.42L57.3076 409.27L68.0178 425.85L76.0178 430.93L76.8977 431.76L85.7778 440.16L85.9578 440.33L90.3977 442.96M1.50781 264.54L0.507812 295.82L1.59766 299.92L7.04761 306.2L10.8276 336.56L19.4678 344.2L27.0977 371.68L37.3577 379.54L47.3577 402.33L48.1777 403.43L61.2778 421.09L63.4177 422.87L69.4177 427.38L77.5476 433.94L82.0078 437.77L86.0078 440.33M0.537598 295.82L1.5376 302.7L5.00781 326.7L6.00781 330.7L10.8577 336.56L11.3276 338.07L19.8577 365.07L27.1277 371.67L27.7678 372.95L39.4077 396.12L40.5977 397.62L51.1477 410.91L55.8276 416.8L59.6377 419.93L61.6377 421.6L62.3477 422.19L69.3477 427.89L77.9177 434.89L78.4678 435.34L81.9077 437.75M69.4478 428.05L75.6777 433.16L78.4678 435.34M36.4678 177.97L38.2578 180.91L45.0278 186.4L56.7778 194.4L73.2876 204.66L94.1277 216.92L118.748 230.76L146.128 245.76L175.348 261.31L205.278 276.83L234.788 291.7L262.728 305.38L288.078 317.38L309.958 327.26L327.658 334.76L340.748 339.67L348.948 341.94L352.208 341.61M57.7378 154.61L59.7378 157.08L66.4878 161.99L77.9578 169.27L93.9578 178.75L113.958 190.17L137.448 203.17L163.658 217.25L191.498 231.97L219.918 246.76L247.918 260.99L274.438 274.17L298.438 285.81L319.178 295.52L335.958 303.01L348.338 308.09L356.058 310.69L359.058 310.81M82.6577 135.23L84.8276 137.23L91.3577 141.49L102.188 147.94L117.098 156.42L135.678 166.7L157.368 178.45L181.418 191.27L206.958 204.69L233.048 218.22L258.708 231.34L282.968 243.56L304.968 254.45L323.968 263.65L339.348 270.87L350.688 275.87L357.778 278.66L360.528 279.18M110.728 120.46L112.968 122.08L119.038 125.68L128.858 131.19L142.218 138.5L158.748 147.39L177.918 157.59L199.108 168.76L221.558 180.49L244.438 192.36L266.918 203.92L288.188 214.76L307.488 224.51L324.168 232.84L337.698 239.48M257.658 124.21L263.508 126.63M256.698 124.51L250.558 122.6L246.298 120.42L242.528 118.52L239.388 116.95L226.818 114.76L212.968 112.36L208.268 110.02L205.148 108.5L203.678 107.85L178.678 106.85L172.118 106.58M313.238 164.76L312.428 164.01L310.918 162.63L305.798 157.95L291.578 144.95L289.998 143.51L289.358 143.1H289.278L287.538 142.1L284.178 140.1L281.238 138.22L277.048 135.46L272.968 132.89L268.968 130.33L266.618 128.83L265.248 127.95L263.468 126.82L257.598 124.4L253.278 122.61L248.818 120.76L244.488 118.97L240.578 117.36M278.148 137.07L278.608 137.39L279.908 139.02L291.008 152.87L298.328 156.74L310.978 178.57L319.788 183.17L326.398 186.64L330.658 188.76L332.448 189.76M276.998 135.24L272.918 132.66L268.918 130.14L265.208 127.79M239.478 117.05L239.308 116.98L236.868 115.79L235.228 115.01L235.078 114.94L234.398 114.66L213.768 110.13L206.878 108.62L203.878 107.96H203.658" stroke="#00F100" stroke-linecap="round" stroke-linejoin="round"/>
</g>
<path d="M169.44 20V7.4H172.374L176.766 19.046H177V7.4H178.494V20H175.56L171.186 8.336H170.934V20H169.44ZM185.515 20.252C184.627 20.252 183.841 20.066 183.157 19.694C182.485 19.322 181.957 18.8 181.573 18.128C181.201 17.444 181.015 16.64 181.015 15.716V15.482C181.015 14.57 181.201 13.772 181.573 13.088C181.957 12.404 182.485 11.876 183.157 11.504C183.841 11.132 184.627 10.946 185.515 10.946C186.403 10.946 187.183 11.132 187.855 11.504C188.539 11.876 189.067 12.404 189.439 13.088C189.823 13.772 190.015 14.57 190.015 15.482V15.716C190.015 16.64 189.823 17.444 189.439 18.128C189.067 18.8 188.539 19.322 187.855 19.694C187.183 20.066 186.403 20.252 185.515 20.252ZM185.515 18.974C186.451 18.974 187.195 18.68 187.747 18.092C188.311 17.492 188.593 16.688 188.593 15.68V15.518C188.593 14.51 188.311 13.712 187.747 13.124C187.195 12.524 186.451 12.224 185.515 12.224C184.591 12.224 183.847 12.524 183.283 13.124C182.719 13.712 182.437 14.51 182.437 15.518V15.68C182.437 16.688 182.719 17.492 183.283 18.092C183.847 18.68 184.591 18.974 185.515 18.974ZM196.12 20.252C195.028 20.252 194.104 20 193.348 19.496C192.604 18.992 192.154 18.194 191.998 17.102L193.348 16.796C193.444 17.372 193.624 17.828 193.888 18.164C194.152 18.488 194.476 18.722 194.86 18.866C195.256 18.998 195.676 19.064 196.12 19.064C196.78 19.064 197.302 18.932 197.686 18.668C198.07 18.404 198.262 18.05 198.262 17.606C198.262 17.15 198.076 16.832 197.704 16.652C197.344 16.46 196.846 16.304 196.21 16.184L195.472 16.058C194.908 15.962 194.392 15.812 193.924 15.608C193.456 15.404 193.084 15.128 192.808 14.78C192.532 14.432 192.394 13.994 192.394 13.466C192.394 12.674 192.7 12.056 193.312 11.612C193.924 11.168 194.734 10.946 195.742 10.946C196.738 10.946 197.542 11.174 198.154 11.63C198.778 12.074 199.18 12.704 199.36 13.52L198.028 13.862C197.92 13.226 197.662 12.782 197.254 12.53C196.846 12.266 196.342 12.134 195.742 12.134C195.142 12.134 194.668 12.248 194.32 12.476C193.972 12.692 193.798 13.016 193.798 13.448C193.798 13.868 193.96 14.18 194.284 14.384C194.62 14.576 195.064 14.72 195.616 14.816L196.354 14.942C196.978 15.05 197.536 15.2 198.028 15.392C198.532 15.572 198.928 15.836 199.216 16.184C199.516 16.532 199.666 16.988 199.666 17.552C199.666 18.416 199.342 19.082 198.694 19.55C198.058 20.018 197.2 20.252 196.12 20.252ZM204.696 20.252C204.084 20.252 203.526 20.144 203.022 19.928C202.518 19.712 202.122 19.4 201.834 18.992C201.546 18.584 201.402 18.086 201.402 17.498C201.402 16.898 201.546 16.406 201.834 16.022C202.122 15.626 202.518 15.332 203.022 15.14C203.526 14.936 204.09 14.834 204.714 14.834H207.684V14.186C207.684 13.562 207.498 13.07 207.126 12.71C206.766 12.35 206.226 12.17 205.506 12.17C204.798 12.17 204.246 12.344 203.85 12.692C203.454 13.028 203.184 13.484 203.04 14.06L201.708 13.628C201.852 13.136 202.08 12.692 202.392 12.296C202.704 11.888 203.118 11.564 203.634 11.324C204.162 11.072 204.792 10.946 205.524 10.946C206.652 10.946 207.528 11.24 208.152 11.828C208.776 12.404 209.088 13.22 209.088 14.276V18.254C209.088 18.614 209.256 18.794 209.592 18.794H210.402V20H209.16C208.764 20 208.446 19.892 208.206 19.676C207.966 19.448 207.846 19.148 207.846 18.776V18.686H207.63C207.498 18.914 207.318 19.154 207.09 19.406C206.874 19.646 206.574 19.844 206.19 20C205.806 20.168 205.308 20.252 204.696 20.252ZM204.858 19.028C205.698 19.028 206.376 18.782 206.892 18.29C207.42 17.786 207.684 17.084 207.684 16.184V15.986H204.768C204.204 15.986 203.736 16.112 203.364 16.364C203.004 16.604 202.824 16.97 202.824 17.462C202.824 17.954 203.01 18.338 203.382 18.614C203.766 18.89 204.258 19.028 204.858 19.028ZM212.349 20V11.198H213.735V12.692H213.987C214.179 12.272 214.503 11.894 214.959 11.558C215.427 11.21 216.111 11.036 217.011 11.036C217.671 11.036 218.259 11.174 218.775 11.45C219.303 11.726 219.723 12.134 220.035 12.674C220.347 13.214 220.503 13.88 220.503 14.672V20H219.081V14.78C219.081 13.904 218.859 13.268 218.415 12.872C217.983 12.476 217.395 12.278 216.651 12.278C215.799 12.278 215.103 12.554 214.563 13.106C214.035 13.658 213.771 14.48 213.771 15.572V20H212.349ZM226.089 20.252C225.477 20.252 224.919 20.144 224.415 19.928C223.911 19.712 223.515 19.4 223.227 18.992C222.939 18.584 222.795 18.086 222.795 17.498C222.795 16.898 222.939 16.406 223.227 16.022C223.515 15.626 223.911 15.332 224.415 15.14C224.919 14.936 225.483 14.834 226.107 14.834H229.077V14.186C229.077 13.562 228.891 13.07 228.519 12.71C228.159 12.35 227.619 12.17 226.899 12.17C226.191 12.17 225.639 12.344 225.243 12.692C224.847 13.028 224.577 13.484 224.433 14.06L223.101 13.628C223.245 13.136 223.473 12.692 223.785 12.296C224.097 11.888 224.511 11.564 225.027 11.324C225.555 11.072 226.185 10.946 226.917 10.946C228.045 10.946 228.921 11.24 229.545 11.828C230.169 12.404 230.481 13.22 230.481 14.276V18.254C230.481 18.614 230.649 18.794 230.985 18.794H231.795V20H230.553C230.157 20 229.839 19.892 229.599 19.676C229.359 19.448 229.239 19.148 229.239 18.776V18.686H229.023C228.891 18.914 228.711 19.154 228.483 19.406C228.267 19.646 227.967 19.844 227.583 20C227.199 20.168 226.701 20.252 226.089 20.252ZM226.251 19.028C227.091 19.028 227.769 18.782 228.285 18.29C228.813 17.786 229.077 17.084 229.077 16.184V15.986H226.161C225.597 15.986 225.129 16.112 224.757 16.364C224.397 16.604 224.217 16.97 224.217 17.462C224.217 17.954 224.403 18.338 224.775 18.614C225.159 18.89 225.651 19.028 226.251 19.028Z" fill="#5FFF00"/>
<path d="M169.44 47V34.4H170.952V39.998H176.856V34.4H178.368V47H176.856V41.366H170.952V47H169.44ZM185.339 47.252C184.451 47.252 183.671 47.066 182.999 46.694C182.327 46.31 181.805 45.776 181.433 45.092C181.061 44.408 180.875 43.616 180.875 42.716V42.5C180.875 41.588 181.061 40.79 181.433 40.106C181.805 39.422 182.321 38.894 182.981 38.522C183.641 38.138 184.397 37.946 185.249 37.946C186.077 37.946 186.809 38.126 187.445 38.486C188.081 38.834 188.579 39.338 188.939 39.998C189.299 40.658 189.479 41.432 189.479 42.32V42.968H182.297C182.333 43.916 182.639 44.66 183.215 45.2C183.791 45.728 184.511 45.992 185.375 45.992C186.131 45.992 186.713 45.818 187.121 45.47C187.529 45.122 187.841 44.708 188.057 44.228L189.281 44.822C189.101 45.194 188.849 45.566 188.525 45.938C188.213 46.31 187.799 46.622 187.283 46.874C186.779 47.126 186.131 47.252 185.339 47.252ZM182.315 41.798H188.039C187.991 40.982 187.709 40.346 187.193 39.89C186.689 39.434 186.041 39.206 185.249 39.206C184.445 39.206 183.785 39.434 183.269 39.89C182.753 40.346 182.435 40.982 182.315 41.798ZM191.959 47V38.198H193.345V39.278H193.597C193.753 38.894 193.993 38.612 194.317 38.432C194.641 38.252 195.067 38.162 195.595 38.162H196.639V39.458H195.505C194.869 39.458 194.353 39.638 193.957 39.998C193.573 40.346 193.381 40.892 193.381 41.636V47H191.959ZM202.46 47.252C201.572 47.252 200.792 47.066 200.12 46.694C199.448 46.31 198.926 45.776 198.554 45.092C198.182 44.408 197.996 43.616 197.996 42.716V42.5C197.996 41.588 198.182 40.79 198.554 40.106C198.926 39.422 199.442 38.894 200.102 38.522C200.762 38.138 201.518 37.946 202.37 37.946C203.198 37.946 203.93 38.126 204.566 38.486C205.202 38.834 205.7 39.338 206.06 39.998C206.42 40.658 206.6 41.432 206.6 42.32V42.968H199.418C199.454 43.916 199.76 44.66 200.336 45.2C200.912 45.728 201.632 45.992 202.496 45.992C203.252 45.992 203.834 45.818 204.242 45.47C204.65 45.122 204.962 44.708 205.178 44.228L206.402 44.822C206.222 45.194 205.97 45.566 205.646 45.938C205.334 46.31 204.92 46.622 204.404 46.874C203.9 47.126 203.252 47.252 202.46 47.252ZM199.436 41.798H205.16C205.112 40.982 204.83 40.346 204.314 39.89C203.81 39.434 203.162 39.206 202.37 39.206C201.566 39.206 200.906 39.434 200.39 39.89C199.874 40.346 199.556 40.982 199.436 41.798ZM209.08 47V38.198H210.466V39.692H210.718C210.91 39.272 211.234 38.894 211.69 38.558C212.158 38.21 212.842 38.036 213.742 38.036C214.402 38.036 214.99 38.174 215.506 38.45C216.034 38.726 216.454 39.134 216.766 39.674C217.078 40.214 217.234 40.88 217.234 41.672V47H215.812V41.78C215.812 40.904 215.59 40.268 215.146 39.872C214.714 39.476 214.126 39.278 213.382 39.278C212.53 39.278 211.834 39.554 211.294 40.106C210.766 40.658 210.502 41.48 210.502 42.572V47H209.08ZM219.687 42.644V42.392C219.687 41.468 219.873 40.676 220.245 40.016C220.617 39.356 221.121 38.846 221.757 38.486C222.393 38.126 223.089 37.946 223.845 37.946C224.769 37.946 225.477 38.126 225.969 38.486C226.473 38.834 226.845 39.224 227.085 39.656H227.337V38.198H228.687V49.052C228.687 49.532 228.555 49.91 228.291 50.186C228.027 50.462 227.643 50.6 227.139 50.6H221.163V49.34H226.761C227.121 49.34 227.301 49.16 227.301 48.8V45.452H227.049C226.905 45.716 226.701 45.974 226.437 46.226C226.173 46.478 225.831 46.688 225.411 46.856C224.991 47.012 224.469 47.09 223.845 47.09C223.089 47.09 222.393 46.91 221.757 46.55C221.121 46.19 220.617 45.68 220.245 45.02C219.873 44.348 219.687 43.556 219.687 42.644ZM224.223 45.83C225.135 45.83 225.873 45.542 226.437 44.966C227.013 44.39 227.301 43.598 227.301 42.59V42.446C227.301 41.426 227.013 40.634 226.437 40.07C225.873 39.494 225.135 39.206 224.223 39.206C223.323 39.206 222.579 39.494 221.991 40.07C221.415 40.634 221.127 41.426 221.127 42.446V42.59C221.127 43.598 221.415 44.39 221.991 44.966C222.579 45.542 223.323 45.83 224.223 45.83ZM231.668 47V38.198H233.054V39.278H233.306C233.462 38.894 233.702 38.612 234.026 38.432C234.35 38.252 234.776 38.162 235.304 38.162H236.348V39.458H235.214C234.578 39.458 234.062 39.638 233.666 39.998C233.282 40.346 233.09 40.892 233.09 41.636V47H231.668ZM240.854 47.252C240.242 47.252 239.684 47.144 239.18 46.928C238.676 46.712 238.28 46.4 237.992 45.992C237.704 45.584 237.56 45.086 237.56 44.498C237.56 43.898 237.704 43.406 237.992 43.022C238.28 42.626 238.676 42.332 239.18 42.14C239.684 41.936 240.248 41.834 240.872 41.834H243.842V41.186C243.842 40.562 243.656 40.07 243.284 39.71C242.924 39.35 242.384 39.17 241.664 39.17C240.956 39.17 240.404 39.344 240.008 39.692C239.612 40.028 239.342 40.484 239.198 41.06L237.866 40.628C238.01 40.136 238.238 39.692 238.55 39.296C238.862 38.888 239.276 38.564 239.792 38.324C240.32 38.072 240.95 37.946 241.682 37.946C242.81 37.946 243.686 38.24 244.31 38.828C244.934 39.404 245.246 40.22 245.246 41.276V45.254C245.246 45.614 245.414 45.794 245.75 45.794H246.56V47H245.318C244.922 47 244.604 46.892 244.364 46.676C244.124 46.448 244.004 46.148 244.004 45.776V45.686H243.788C243.656 45.914 243.476 46.154 243.248 46.406C243.032 46.646 242.732 46.844 242.348 47C241.964 47.168 241.466 47.252 240.854 47.252ZM241.016 46.028C241.856 46.028 242.534 45.782 243.05 45.29C243.578 44.786 243.842 44.084 243.842 43.184V42.986H240.926C240.362 42.986 239.894 43.112 239.522 43.364C239.162 43.604 238.982 43.97 238.982 44.462C238.982 44.954 239.168 45.338 239.54 45.614C239.924 45.89 240.416 46.028 241.016 46.028ZM252.312 47.252C251.46 47.252 250.692 47.072 250.008 46.712C249.336 46.34 248.802 45.812 248.406 45.128C248.022 44.444 247.83 43.634 247.83 42.698V42.5C247.83 41.552 248.022 40.742 248.406 40.07C248.802 39.386 249.336 38.864 250.008 38.504C250.692 38.132 251.46 37.946 252.312 37.946C253.152 37.946 253.866 38.102 254.454 38.414C255.054 38.726 255.522 39.14 255.858 39.656C256.206 40.172 256.428 40.724 256.524 41.312L255.138 41.6C255.078 41.168 254.934 40.772 254.706 40.412C254.49 40.052 254.184 39.764 253.788 39.548C253.392 39.332 252.906 39.224 252.33 39.224C251.742 39.224 251.214 39.356 250.746 39.62C250.29 39.884 249.924 40.262 249.648 40.754C249.384 41.246 249.252 41.834 249.252 42.518V42.68C249.252 43.364 249.384 43.952 249.648 44.444C249.924 44.936 250.29 45.314 250.746 45.578C251.214 45.842 251.742 45.974 252.33 45.974C253.206 45.974 253.872 45.746 254.328 45.29C254.796 44.834 255.084 44.27 255.192 43.598L256.596 43.904C256.464 44.48 256.224 45.026 255.876 45.542C255.528 46.058 255.054 46.472 254.454 46.784C253.866 47.096 253.152 47.252 252.312 47.252ZM259.019 47V34.4H260.441V39.602H260.693C260.813 39.338 260.993 39.092 261.233 38.864C261.485 38.624 261.803 38.426 262.187 38.27C262.583 38.114 263.081 38.036 263.681 38.036C264.341 38.036 264.929 38.18 265.445 38.468C265.973 38.744 266.393 39.152 266.705 39.692C267.017 40.22 267.173 40.88 267.173 41.672V47H265.751V41.78C265.751 40.904 265.529 40.268 265.085 39.872C264.653 39.476 264.065 39.278 263.321 39.278C262.469 39.278 261.773 39.554 261.233 40.106C260.705 40.658 260.441 41.48 260.441 42.572V47H259.019ZM273.052 47C272.548 47 272.158 46.862 271.882 46.586C271.618 46.31 271.486 45.932 271.486 45.452V39.44H268.84V38.198H271.486V35.066H272.908V38.198H275.788V39.44H272.908V45.236C272.908 45.596 273.082 45.776 273.43 45.776H275.392V47H273.052ZM286.657 47.252C285.733 47.252 284.935 47.078 284.263 46.73C283.591 46.37 283.069 45.878 282.697 45.254C282.325 44.618 282.139 43.886 282.139 43.058V42.842H283.597V43.004C283.597 43.952 283.873 44.678 284.425 45.182C284.977 45.686 285.709 45.938 286.621 45.938C287.581 45.938 288.331 45.668 288.871 45.128C289.411 44.588 289.681 43.85 289.681 42.914V42.752C289.681 41.852 289.417 41.138 288.889 40.61C288.373 40.07 287.701 39.8 286.873 39.8C286.393 39.8 285.997 39.878 285.685 40.034C285.373 40.178 285.127 40.364 284.947 40.592C284.767 40.808 284.617 41.018 284.497 41.222H282.517V34.4H290.797V35.714H283.975V40.07H284.227C284.359 39.83 284.539 39.596 284.767 39.368C285.007 39.14 285.325 38.948 285.721 38.792C286.117 38.636 286.609 38.558 287.197 38.558C287.929 38.558 288.589 38.726 289.177 39.062C289.777 39.398 290.251 39.878 290.599 40.502C290.959 41.126 291.139 41.87 291.139 42.734V42.932C291.139 43.784 290.959 44.534 290.599 45.182C290.239 45.83 289.723 46.34 289.051 46.712C288.379 47.072 287.581 47.252 286.657 47.252ZM297.432 47.252C296.508 47.252 295.71 47.078 295.038 46.73C294.366 46.37 293.844 45.878 293.472 45.254C293.1 44.618 292.914 43.886 292.914 43.058V42.842H294.372V43.004C294.372 43.952 294.648 44.678 295.2 45.182C295.752 45.686 296.484 45.938 297.396 45.938C298.356 45.938 299.106 45.668 299.646 45.128C300.186 44.588 300.456 43.85 300.456 42.914V42.752C300.456 41.852 300.192 41.138 299.664 40.61C299.148 40.07 298.476 39.8 297.648 39.8C297.168 39.8 296.772 39.878 296.46 40.034C296.148 40.178 295.902 40.364 295.722 40.592C295.542 40.808 295.392 41.018 295.272 41.222H293.292V34.4H301.572V35.714H294.75V40.07H295.002C295.134 39.83 295.314 39.596 295.542 39.368C295.782 39.14 296.1 38.948 296.496 38.792C296.892 38.636 297.384 38.558 297.972 38.558C298.704 38.558 299.364 38.726 299.952 39.062C300.552 39.398 301.026 39.878 301.374 40.502C301.734 41.126 301.914 41.87 301.914 42.734V42.932C301.914 43.784 301.734 44.534 301.374 45.182C301.014 45.83 300.498 46.34 299.826 46.712C299.154 47.072 298.356 47.252 297.432 47.252ZM307.151 47V35.372H306.881L304.433 39.854H302.849L305.855 34.4H308.609V47H307.151ZM311.399 49.25V48.35H311.921C312.353 48.35 312.569 48.134 312.569 47.702V47.126H312.317C311.969 47.126 311.675 47.018 311.435 46.802C311.207 46.586 311.093 46.316 311.093 45.992C311.093 45.644 311.207 45.362 311.435 45.146C311.675 44.93 311.969 44.822 312.317 44.822C312.665 44.822 312.953 44.936 313.181 45.164C313.409 45.392 313.523 45.68 313.523 46.028V47.702C313.523 48.734 313.007 49.25 311.975 49.25H311.399ZM172.626 74V62.372H172.356L169.908 66.854H168.324L171.33 61.4H174.084V74H172.626ZM181.283 74.252C179.855 74.252 178.715 73.832 177.863 72.992C177.023 72.14 176.603 70.868 176.603 69.176V66.224C176.603 64.544 177.023 63.278 177.863 62.426C178.715 61.574 179.855 61.148 181.283 61.148C182.723 61.148 183.863 61.574 184.703 62.426C185.555 63.278 185.981 64.544 185.981 66.224V69.176C185.981 70.868 185.555 72.14 184.703 72.992C183.863 73.832 182.723 74.252 181.283 74.252ZM181.283 72.938C182.363 72.938 183.173 72.614 183.713 71.966C184.253 71.318 184.523 70.412 184.523 69.248V66.134C184.523 64.97 184.247 64.07 183.695 63.434C183.143 62.786 182.339 62.462 181.283 62.462C180.227 62.462 179.423 62.786 178.871 63.434C178.331 64.082 178.061 64.982 178.061 66.134V69.248C178.061 70.424 178.331 71.336 178.871 71.984C179.411 72.62 180.215 72.938 181.283 72.938ZM191.681 74V62.372H191.411L188.963 66.854H187.379L190.385 61.4H193.139V74H191.681ZM197.314 74V73.55C197.314 73.13 197.35 72.776 197.422 72.488C197.494 72.2 197.632 71.858 197.836 71.462L202.642 62.912V62.714H195.154V61.4H204.172V63.128L199.15 72.128C199.006 72.38 198.904 72.608 198.844 72.812C198.796 73.016 198.772 73.274 198.772 73.586V74H197.314ZM210.207 74V72.65H211.971V62.75H210.207V61.4H216.525C217.257 61.4 217.905 61.532 218.469 61.796C219.045 62.06 219.489 62.432 219.801 62.912C220.125 63.38 220.287 63.932 220.287 64.568V64.712C220.287 65.3 220.173 65.786 219.945 66.17C219.717 66.542 219.447 66.836 219.135 67.052C218.823 67.256 218.517 67.406 218.217 67.502V67.754C218.517 67.826 218.829 67.97 219.153 68.186C219.477 68.39 219.747 68.684 219.963 69.068C220.191 69.452 220.305 69.938 220.305 70.526V70.706C220.305 71.39 220.137 71.984 219.801 72.488C219.477 72.98 219.027 73.358 218.451 73.622C217.887 73.874 217.239 74 216.507 74H210.207ZM213.483 72.632H216.345C217.137 72.632 217.743 72.446 218.163 72.074C218.583 71.702 218.793 71.198 218.793 70.562V70.4C218.793 69.764 218.583 69.26 218.163 68.888C217.743 68.516 217.137 68.33 216.345 68.33H213.483V72.632ZM213.483 66.962H216.399C217.119 66.962 217.695 66.782 218.127 66.422C218.559 66.05 218.775 65.564 218.775 64.964V64.784C218.775 64.172 218.559 63.686 218.127 63.326C217.707 62.954 217.131 62.768 216.399 62.768H213.483V66.962ZM223.98 74L221.928 61.4H223.44L225.222 73.028H225.474L227.796 61.4H230.496L232.8 73.028H233.052L234.834 61.4H236.346L234.294 74H231.594L229.272 62.3H229.02L226.698 74H223.98ZM241.733 74L245.621 61.4H248.285L252.173 74H250.607L249.635 70.814H244.271L243.299 74H241.733ZM244.649 69.446H249.239L247.079 62.318H246.827L244.649 69.446ZM254.115 74V65.198H255.501V66.296H255.753C255.921 65.984 256.197 65.696 256.581 65.432C256.965 65.168 257.505 65.036 258.201 65.036C258.885 65.036 259.437 65.186 259.857 65.486C260.289 65.786 260.601 66.152 260.793 66.584H261.045C261.249 66.152 261.555 65.786 261.963 65.486C262.383 65.186 262.965 65.036 263.709 65.036C264.297 65.036 264.813 65.156 265.257 65.396C265.701 65.636 266.049 65.984 266.301 66.44C266.565 66.884 266.697 67.418 266.697 68.042V74H265.275V68.168C265.275 67.58 265.101 67.118 264.753 66.782C264.417 66.434 263.943 66.26 263.331 66.26C262.683 66.26 262.149 66.47 261.729 66.89C261.321 67.31 261.117 67.916 261.117 68.708V74H259.695V68.168C259.695 67.58 259.521 67.118 259.173 66.782C258.837 66.434 258.363 66.26 257.751 66.26C257.103 66.26 256.569 66.47 256.149 66.89C255.741 67.31 255.537 67.916 255.537 68.708V74H254.115ZM273.147 74.252C272.055 74.252 271.131 74 270.375 73.496C269.631 72.992 269.181 72.194 269.025 71.102L270.375 70.796C270.471 71.372 270.651 71.828 270.915 72.164C271.179 72.488 271.503 72.722 271.887 72.866C272.283 72.998 272.703 73.064 273.147 73.064C273.807 73.064 274.329 72.932 274.713 72.668C275.097 72.404 275.289 72.05 275.289 71.606C275.289 71.15 275.103 70.832 274.731 70.652C274.371 70.46 273.873 70.304 273.237 70.184L272.499 70.058C271.935 69.962 271.419 69.812 270.951 69.608C270.483 69.404 270.111 69.128 269.835 68.78C269.559 68.432 269.421 67.994 269.421 67.466C269.421 66.674 269.727 66.056 270.339 65.612C270.951 65.168 271.761 64.946 272.769 64.946C273.765 64.946 274.569 65.174 275.181 65.63C275.805 66.074 276.207 66.704 276.387 67.52L275.055 67.862C274.947 67.226 274.689 66.782 274.281 66.53C273.873 66.266 273.369 66.134 272.769 66.134C272.169 66.134 271.695 66.248 271.347 66.476C270.999 66.692 270.825 67.016 270.825 67.448C270.825 67.868 270.987 68.18 271.311 68.384C271.647 68.576 272.091 68.72 272.643 68.816L273.381 68.942C274.005 69.05 274.563 69.2 275.055 69.392C275.559 69.572 275.955 69.836 276.243 70.184C276.543 70.532 276.693 70.988 276.693 71.552C276.693 72.416 276.369 73.082 275.721 73.55C275.085 74.018 274.227 74.252 273.147 74.252ZM282.14 74C281.636 74 281.246 73.862 280.97 73.586C280.706 73.31 280.574 72.932 280.574 72.452V66.44H277.928V65.198H280.574V62.066H281.996V65.198H284.876V66.44H281.996V72.236C281.996 72.596 282.17 72.776 282.518 72.776H284.48V74H282.14ZM290.895 74.252C290.007 74.252 289.227 74.066 288.555 73.694C287.883 73.31 287.361 72.776 286.989 72.092C286.617 71.408 286.431 70.616 286.431 69.716V69.5C286.431 68.588 286.617 67.79 286.989 67.106C287.361 66.422 287.877 65.894 288.537 65.522C289.197 65.138 289.953 64.946 290.805 64.946C291.633 64.946 292.365 65.126 293.001 65.486C293.637 65.834 294.135 66.338 294.495 66.998C294.855 67.658 295.035 68.432 295.035 69.32V69.968H287.853C287.889 70.916 288.195 71.66 288.771 72.2C289.347 72.728 290.067 72.992 290.931 72.992C291.687 72.992 292.269 72.818 292.677 72.47C293.085 72.122 293.397 71.708 293.613 71.228L294.837 71.822C294.657 72.194 294.405 72.566 294.081 72.938C293.769 73.31 293.355 73.622 292.839 73.874C292.335 74.126 291.687 74.252 290.895 74.252ZM287.871 68.798H293.595C293.547 67.982 293.265 67.346 292.749 66.89C292.245 66.434 291.597 66.206 290.805 66.206C290.001 66.206 289.341 66.434 288.825 66.89C288.309 67.346 287.991 67.982 287.871 68.798ZM297.515 74V65.198H298.901V66.278H299.153C299.309 65.894 299.549 65.612 299.873 65.432C300.197 65.252 300.623 65.162 301.151 65.162H302.195V66.458H301.061C300.425 66.458 299.909 66.638 299.513 66.998C299.129 67.346 298.937 67.892 298.937 68.636V74H297.515ZM307.71 74.252C306.954 74.252 306.258 74.072 305.622 73.712C304.986 73.352 304.482 72.83 304.11 72.146C303.738 71.462 303.552 70.652 303.552 69.716V69.482C303.552 68.546 303.738 67.742 304.11 67.07C304.482 66.386 304.98 65.864 305.604 65.504C306.24 65.132 306.942 64.946 307.71 64.946C308.322 64.946 308.838 65.03 309.258 65.198C309.69 65.354 310.038 65.558 310.302 65.81C310.566 66.05 310.77 66.308 310.914 66.584H311.166V61.4H312.588V74H311.202V72.542H310.95C310.71 72.986 310.338 73.382 309.834 73.73C309.33 74.078 308.622 74.252 307.71 74.252ZM308.088 72.992C309 72.992 309.738 72.704 310.302 72.128C310.878 71.54 311.166 70.724 311.166 69.68V69.518C311.166 68.474 310.878 67.664 310.302 67.088C309.738 66.5 309 66.206 308.088 66.206C307.188 66.206 306.444 66.5 305.856 67.088C305.28 67.664 304.992 68.474 304.992 69.518V69.68C304.992 70.724 305.28 71.54 305.856 72.128C306.444 72.704 307.188 72.992 308.088 72.992ZM318.268 74.252C317.656 74.252 317.098 74.144 316.594 73.928C316.09 73.712 315.694 73.4 315.406 72.992C315.118 72.584 314.974 72.086 314.974 71.498C314.974 70.898 315.118 70.406 315.406 70.022C315.694 69.626 316.09 69.332 316.594 69.14C317.098 68.936 317.662 68.834 318.286 68.834H321.256V68.186C321.256 67.562 321.07 67.07 320.698 66.71C320.338 66.35 319.798 66.17 319.078 66.17C318.37 66.17 317.818 66.344 317.422 66.692C317.026 67.028 316.756 67.484 316.612 68.06L315.28 67.628C315.424 67.136 315.652 66.692 315.964 66.296C316.276 65.888 316.69 65.564 317.206 65.324C317.734 65.072 318.364 64.946 319.096 64.946C320.224 64.946 321.1 65.24 321.724 65.828C322.348 66.404 322.66 67.22 322.66 68.276V72.254C322.66 72.614 322.828 72.794 323.164 72.794H323.974V74H322.732C322.336 74 322.018 73.892 321.778 73.676C321.538 73.448 321.418 73.148 321.418 72.776V72.686H321.202C321.07 72.914 320.89 73.154 320.662 73.406C320.446 73.646 320.146 73.844 319.762 74C319.378 74.168 318.88 74.252 318.268 74.252ZM318.43 73.028C319.27 73.028 319.948 72.782 320.464 72.29C320.992 71.786 321.256 71.084 321.256 70.184V69.986H318.34C317.776 69.986 317.308 70.112 316.936 70.364C316.576 70.604 316.396 70.97 316.396 71.462C316.396 71.954 316.582 72.338 316.954 72.614C317.338 72.89 317.83 73.028 318.43 73.028ZM325.922 74V65.198H327.308V66.296H327.56C327.728 65.984 328.004 65.696 328.388 65.432C328.772 65.168 329.312 65.036 330.008 65.036C330.692 65.036 331.244 65.186 331.664 65.486C332.096 65.786 332.408 66.152 332.6 66.584H332.852C333.056 66.152 333.362 65.786 333.77 65.486C334.19 65.186 334.772 65.036 335.516 65.036C336.104 65.036 336.62 65.156 337.064 65.396C337.508 65.636 337.856 65.984 338.108 66.44C338.372 66.884 338.504 67.418 338.504 68.042V74H337.082V68.168C337.082 67.58 336.908 67.118 336.56 66.782C336.224 66.434 335.75 66.26 335.138 66.26C334.49 66.26 333.956 66.47 333.536 66.89C333.128 67.31 332.924 67.916 332.924 68.708V74H331.502V68.168C331.502 67.58 331.328 67.118 330.98 66.782C330.644 66.434 330.17 66.26 329.558 66.26C328.91 66.26 328.376 66.47 327.956 66.89C327.548 67.31 327.344 67.916 327.344 68.708V74H325.922Z" fill="white"/>
<defs>
<linearGradient id="paint0_linear_1819_3578" x1="137.75" y1="41.55" x2="137.75" y2="236" gradientUnits="userSpaceOnUse">
<stop stop-color="#5FFF00"/>
<stop offset="0.0001" stop-color="#5FFF00" stop-opacity="0.9"/>
<stop offset="1" stop-color="#5FFF00" stop-opacity="0"/>
</linearGradient>
<clipPath id="clip0_1819_3578">
<rect width="361.08" height="443.44" fill="white" transform="translate(0 24)"/>
</clipPath>
</defs>
</svg>
