<svg width="452" height="468" viewBox="0 0 452 468" fill="none" xmlns="http://www.w3.org/2000/svg">
<g clip-path="url(#clip0_1819_3578)">
<path d="M137.25 41.55V201.99" stroke="url(#paint0_linear_1819_3578)" stroke-width="3" stroke-linecap="round" stroke-linejoin="round"/>
<path d="M136.868 43.64C139.978 43.64 142.498 41.1194 142.498 38.01C142.498 34.9006 139.978 32.38 136.868 32.38C133.759 32.38 131.238 34.9006 131.238 38.01C131.238 41.1194 133.759 43.64 136.868 43.64Z" fill="#10E80C"/>
<g opacity="0.6">
<path d="M136.87 46.9001C141.78 46.9001 145.76 42.9199 145.76 38.0101C145.76 33.1003 141.78 29.1201 136.87 29.1201C131.961 29.1201 127.98 33.1003 127.98 38.0101C127.98 42.9199 131.961 46.9001 136.87 46.9001Z" stroke="#10E80C" stroke-miterlimit="10"/>
</g>
<g opacity="0.3">
<path d="M136.869 51.52C144.331 51.52 150.379 45.4714 150.379 38.01C150.379 30.5486 144.331 24.5 136.869 24.5C129.408 24.5 123.359 30.5486 123.359 38.01C123.359 45.4714 129.408 51.52 136.869 51.52Z" stroke="#10E80C" stroke-miterlimit="10"/>
</g>
<path d="M140.848 110.83L172.158 106.59L174.068 107.54L178.438 109.76L185.168 113.21L212.968 112.39L219.128 115.5L226.548 119.27L246.248 120.42L252.008 122.5L257.268 124.32L263.458 126.63L266.598 128.63L269.128 130.63L274.208 134.84L274.378 134.97L278.598 137.19L282.298 139.19L285.438 140.78L287.718 142.13L292.718 146.87L301.018 154.76L308.628 161.98L308.948 162.28L311.948 163.92L313.268 164.72L320.698 174.39L328.698 184.77L332.408 189.61L332.508 189.74L342.618 209.18L347.088 217.76M100.088 448.11L104.958 450.46L113.868 451.14L123.238 455.33L138.988 452.86L151.808 458.12L173.038 451.92L187.678 457.33L212.378 446.89L226.838 451.53L252.648 436.6L276.448 416.76L297.388 392.6L314.658 364.93L327.658 334.76L336.008 303.03L339.378 270.92L337.678 239.53M7.9978 233.89L9.35767 237.66L15.7078 243.95L27.0278 252.66L43.1477 263.59L63.6577 276.37L87.8877 290.68L115.038 305.96L144.108 321.64L173.978 337.11L203.508 351.76L231.568 365.08L257.108 376.55L279.258 385.81L297.308 392.57L310.768 396.71L319.388 398.16L323.068 397.01L330.978 384.72L339.208 371.94L340.068 370.59M104.878 450.43L109.578 452.53L113.958 454.31L117.898 455.72L121.088 456.63L129.668 458.93L136.898 460.93L139.348 461.67L141.348 462.3L146.218 463.64L172.678 465.15L199.808 461.15L226.738 451.57L237.828 454.14L245.268 454.64L248.958 453.11L271.368 441.69L273.278 440.52L297.918 421.52L301.728 420.1L313.498 407.41L321.618 398.64L323.048 397.11M109.558 452.63L123.138 455.4L131.848 458.94L151.708 458.19L163.088 462.32L187.578 457.4L199.808 461.18L209.298 463.25L237.828 454.17L264.828 439.77L272.938 440.52L276.758 438.96L293.488 426.32L299.558 421.73L301.718 420.1M113.958 454.33L119.878 455.83L129.698 458.68L137.938 461.33L139.348 461.65L163.108 462.24L172.698 465.13L180.208 466.71L209.318 463.17L215.798 463.5L245.288 454.59L273.288 440.47L276.778 438.88M117.898 455.76L120.898 456.59L121.228 456.76L129.668 458.7L131.838 458.88L139.608 461.68L146.208 463.68L151.428 464.76L167.878 465.91L177.198 466.56L180.198 466.77L185.438 467L215.788 463.56M15.6577 359.91L17.1978 362.73L18.5178 365.14L30.3376 386.68L33.6377 390.86L35.4878 393.13L37.3677 395.43L41.5977 400.62L51.8076 413.14L55.8076 416.81L61.2778 421.09L68.0876 425.85L69.4678 427.03M356.518 247.89L354.038 247.07L347.748 244.25L339.598 214.37L339.538 214.13L326.438 186.51L314.118 169.42L308.978 162.29L304.408 159.82L298.408 156.61L298.298 156.49L287.378 144.64L282.378 139.2L281.378 138.26L277.378 135.5L273.228 132.87L269.178 130.29L266.758 128.73L263.628 126.65L260.178 127.5L254.118 133.39L245.538 144.34L234.638 160.17L221.728 180.5L207.208 204.71L191.618 231.99L175.518 261.32L159.518 291.61L144.268 321.61L130.338 350.27L118.228 376.48L108.358 399.32L101.018 418.05L96.3777 432.17L94.4878 441.36M19.9778 204.66L21.5376 208.05L28.1677 214.05L39.8577 222.51L56.4077 233.27L77.4077 246.01L102.188 260.33L129.728 275.76L159.358 291.64L189.768 307.39L219.768 322.39L248.238 336.11L274.088 348.02L296.458 357.76L314.618 364.98L328.078 369.56L336.588 371.43M94.3276 441.43L104.078 446.48L113.788 451.17L125.068 446.68L138.418 436.96L153.418 422.14L169.668 402.59L186.658 378.84L203.558 351.78L219.828 322.36L234.828 291.69L247.988 260.96L258.828 231.34L266.958 203.91L272.168 179.65L274.338 159.33L273.508 143.51L269.818 132.51L264.978 129.99L260.048 127.43L255.188 124.92L244.278 128.31L231.048 136.83L215.838 150.4L199.108 168.76L181.498 191.28L163.608 217.28L146.128 245.76L129.728 275.76L115.038 306.01L102.658 335.35L92.8877 362.76L86.1677 387.26L82.5977 408.02L82.1978 424.45L84.8777 436.16L94.3276 441.38L95.1377 445.57L100.008 448.09L104.078 446.43L110.678 439.67L119.678 427.82L130.898 411.1L143.998 389.93L158.528 364.98L173.968 337.1L189.758 307.33L205.268 276.81L219.918 246.76L233.128 218.25L244.438 192.38L253.438 170.03L259.938 151.92L263.768 138.51L264.908 130.07L263.428 126.66L257.328 124.32L253.148 122.45L248.438 120.58L243.878 118.74L240.338 117.16L237.338 115.89L235.428 115.11L235.208 115.01L221.858 112.16L212.338 110.16L205.218 108.63H205.078L173.998 107.63L142.938 112.18L112.938 122.18L84.8777 137.33L59.7378 157.15L38.3276 181.03L21.3276 208.18L9.32764 237.71L2.66772 268.66L1.5376 300.02L5.91772 330.8L6.66772 333.04L12.4978 350.58L15.6377 360.01L19.7678 365.18L20.7078 366.93L31.0278 386.15L33.6177 390.96L39.3176 396.23L47.3176 402.43L57.3176 409.37L69.0576 416.83L82.1577 424.56L96.1577 432.3L110.618 439.78L125.008 446.78L138.848 452.99L156.328 445.18L174.988 432.09L194.198 414.01L213.278 391.48L231.508 365.24L248.188 336.24L262.668 305.53L274.408 274.3L282.988 243.72L288.128 214.92L289.728 188.92L287.818 166.55L274.238 159.49L259.908 152.05L245.308 144.48L230.948 137.04L217.318 129.98L198.078 141.39L177.858 157.75L157.388 178.61L137.388 203.3L118.748 230.76L102.018 260.31L87.8877 290.67L76.8877 320.67L69.3977 349.21L65.5977 375.28L65.5376 398L82.5876 408L100.848 418.05L119.678 427.8L138.408 436.89L156.408 445.01L172.978 451.88L194.898 440.27L216.758 423.49L237.758 402.01L257.128 376.54L274.128 347.96L288.128 317.32L298.508 285.76L305.038 254.43L307.488 224.49L305.838 196.98L289.838 188.74L272.178 179.63L253.518 169.98L234.518 160.13L215.848 150.43L198.188 141.21L182.128 132.81L168.208 125.49L142.268 138.49L117.268 156.41L93.9478 178.76L73.3877 204.68L56.2478 233.3L43.1677 263.58L34.5776 294.43L30.7378 324.73L31.7378 353.43L47.2778 363.92L65.6577 375.3L86.2178 387.3L108.218 399.38L130.928 411.14L153.488 422.14L175.068 431.99L194.898 440.34L212.318 446.92L236.398 431.2L258.998 410.63L279.278 385.87L296.458 357.76L309.958 327.28L319.248 295.54L324.018 263.7L324.168 232.89L319.738 204.17L305.838 197.05L300.248 172.88L287.878 166.44L282.658 148.31L273.478 143.51L263.808 138.51L253.958 133.4L244.248 128.4L235.018 123.65L217.388 129.86L204.938 123.43L194.078 117.76L168.158 125.47L156.818 119.47L128.818 131.15L102.228 147.9L77.9478 169.2L56.8376 194.34L39.6577 222.5L27.0078 252.61L19.3076 283.61L16.7678 314.49L30.6978 324.65L48.4177 336.35L69.3677 349.19L92.8877 362.76L118.068 376.5L144.008 389.93L169.718 402.54L194.258 413.86L216.738 423.51L236.378 431.15L252.568 436.58L264.858 439.68L289.448 420.36L310.768 396.76L328.078 369.54L340.768 339.65L348.408 308.09L350.738 275.95L347.738 244.28L337.738 239.51L331.118 209.91L319.778 204.15L311.038 178.47L300.288 172.86L291.028 152.76L282.648 148.35L274.378 135.02L269.778 132.6L265.238 128.12L263.498 126.7L257.118 124.44L252.868 122.51L247.648 120.57L242.648 118.64H242.518L219.168 115.64L194.168 117.94L185.258 113.35L156.908 119.65L148.458 115.14L143.098 112.23L140.938 110.97L110.818 120.6L82.8176 135.34L57.8176 154.72L36.6277 178.13L19.8777 204.83L8.07764 233.98L1.57764 264.68L2.77783 268.68L8.77783 275.09L19.4578 283.77L34.6877 294.51L54.0676 306.99L77.0078 320.81L102.658 335.35L130.218 350.3L158.578 364.99L186.658 378.84L213.388 391.34L237.788 402.04L259.028 410.59L276.418 416.75L289.498 420.37L297.988 421.44L319.438 398.18L336.638 371.38L340.118 370.61L345.248 358.35L352.248 341.56L359.158 310.78L360.598 279.23L358.598 264.08L356.488 247.89L352.658 235.64L347.028 217.76L344.858 216.76L339.518 214.13L331.078 209.88L319.808 183.04L304.968 160.68L304.388 159.81L304.248 159.67L294.508 149.95L285.768 141.23L285.378 140.84L284.188 139.92L281.248 138.04L277.538 135.89L273.428 133.44L269.198 130.83L265.198 128.11L263.458 126.64L257.458 124.27L252.838 122.45L248.478 120.56L243.918 118.72L239.848 117.07L237.158 115.87L236.908 115.77L230.388 114.47L219.108 112.22L208.278 110.06L178.448 109.77L148.378 115.01L119.048 125.69L91.4478 141.5L66.5278 161.97L45.1377 186.43L28.0178 214.05L15.7378 243.91L8.65771 274.97L7.02783 306.2L16.7976 314.53L19.4478 344.2L31.6978 353.39L37.3376 379.54L50.2876 388.42L65.5376 398.02L69.0876 416.73L76.0178 430.93L84.8677 436.17L90.3977 442.96L95.1277 445.58M336.578 371.38L348.958 341.89L356.118 310.66L357.818 278.71L354.008 247.07L344.858 216.76L334.858 197L330.658 188.76L330.608 188.7L322.108 177.43L311.918 163.92L311.378 163.42L306.568 158.98L291.858 145.4L289.258 143L289.008 142.83L287.538 141.96L285.438 140.78L281.258 138.25L277.938 136.52L273.418 133.44L269.068 130.44L265.218 127.91L263.458 126.62L255.148 124.96L250.508 122.59L235.008 123.59L226.548 119.25L204.928 123.37L182.078 132.81L158.748 147.37L135.748 166.68L113.968 190.12L94.2178 216.88L77.2178 245.98L63.6577 276.37L53.9578 306.87L48.4578 336.39L47.2478 363.88L50.2478 388.42L57.3076 409.27L68.0178 425.85L76.0178 430.93L76.8977 431.76L85.7778 440.16L85.9578 440.33L90.3977 442.96M1.50781 264.54L0.507812 295.82L1.59766 299.92L7.04761 306.2L10.8276 336.56L19.4678 344.2L27.0977 371.68L37.3577 379.54L47.3577 402.33L48.1777 403.43L61.2778 421.09L63.4177 422.87L69.4177 427.38L77.5476 433.94L82.0078 437.77L86.0078 440.33M0.537598 295.82L1.5376 302.7L5.00781 326.7L6.00781 330.7L10.8577 336.56L11.3276 338.07L19.8577 365.07L27.1277 371.67L27.7678 372.95L39.4077 396.12L40.5977 397.62L51.1477 410.91L55.8276 416.8L59.6377 419.93L61.6377 421.6L62.3477 422.19L69.3477 427.89L77.9177 434.89L78.4678 435.34L81.9077 437.75M69.4478 428.05L75.6777 433.16L78.4678 435.34M36.4678 177.97L38.2578 180.91L45.0278 186.4L56.7778 194.4L73.2876 204.66L94.1277 216.92L118.748 230.76L146.128 245.76L175.348 261.31L205.278 276.83L234.788 291.7L262.728 305.38L288.078 317.38L309.958 327.26L327.658 334.76L340.748 339.67L348.948 341.94L352.208 341.61M57.7378 154.61L59.7378 157.08L66.4878 161.99L77.9578 169.27L93.9578 178.75L113.958 190.17L137.448 203.17L163.658 217.25L191.498 231.97L219.918 246.76L247.918 260.99L274.438 274.17L298.438 285.81L319.178 295.52L335.958 303.01L348.338 308.09L356.058 310.69L359.058 310.81M82.6577 135.23L84.8276 137.23L91.3577 141.49L102.188 147.94L117.098 156.42L135.678 166.7L157.368 178.45L181.418 191.27L206.958 204.69L233.048 218.22L258.708 231.34L282.968 243.56L304.968 254.45L323.968 263.65L339.348 270.87L350.688 275.87L357.778 278.66L360.528 279.18M110.728 120.46L112.968 122.08L119.038 125.68L128.858 131.19L142.218 138.5L158.748 147.39L177.918 157.59L199.108 168.76L221.558 180.49L244.438 192.36L266.918 203.92L288.188 214.76L307.488 224.51L324.168 232.84L337.698 239.48M257.658 124.21L263.508 126.63M256.698 124.51L250.558 122.6L246.298 120.42L242.528 118.52L239.388 116.95L226.818 114.76L212.968 112.36L208.268 110.02L205.148 108.5L203.678 107.85L178.678 106.85L172.118 106.58M313.238 164.76L312.428 164.01L310.918 162.63L305.798 157.95L291.578 144.95L289.998 143.51L289.358 143.1H289.278L287.538 142.1L284.178 140.1L281.238 138.22L277.048 135.46L272.968 132.89L268.968 130.33L266.618 128.83L265.248 127.95L263.468 126.82L257.598 124.4L253.278 122.61L248.818 120.76L244.488 118.97L240.578 117.36M278.148 137.07L278.608 137.39L279.908 139.02L291.008 152.87L298.328 156.74L310.978 178.57L319.788 183.17L326.398 186.64L330.658 188.76L332.448 189.76M276.998 135.24L272.918 132.66L268.918 130.14L265.208 127.79M239.478 117.05L239.308 116.98L236.868 115.79L235.228 115.01L235.078 114.94L234.398 114.66L213.768 110.13L206.878 108.62L203.878 107.96H203.658" stroke="#00F100" stroke-linecap="round" stroke-linejoin="round"/>
</g>
<path d="M169.44 18V5.4H172.374L176.766 17.046H177V5.4H178.494V18H175.56L171.186 6.336H170.934V18H169.44ZM185.515 18.252C184.627 18.252 183.841 18.066 183.157 17.694C182.485 17.322 181.957 16.8 181.573 16.128C181.201 15.444 181.015 14.64 181.015 13.716V13.482C181.015 12.57 181.201 11.772 181.573 11.088C181.957 10.404 182.485 9.876 183.157 9.504C183.841 9.132 184.627 8.946 185.515 8.946C186.403 8.946 187.183 9.132 187.855 9.504C188.539 9.876 189.067 10.404 189.439 11.088C189.823 11.772 190.015 12.57 190.015 13.482V13.716C190.015 14.64 189.823 15.444 189.439 16.128C189.067 16.8 188.539 17.322 187.855 17.694C187.183 18.066 186.403 18.252 185.515 18.252ZM185.515 16.974C186.439 16.974 187.183 16.68 187.747 16.092C188.311 15.492 188.593 14.688 188.593 13.68V13.518C188.593 12.51 188.311 11.712 187.747 11.124C187.195 10.524 186.451 10.224 185.515 10.224C184.579 10.224 183.829 10.524 183.265 11.124C182.713 11.712 182.437 12.51 182.437 13.518V13.68C182.437 14.688 182.713 15.492 183.265 16.092C183.829 16.68 184.579 16.974 185.515 16.974ZM196.12 18.252C195.016 18.252 194.092 18 193.348 17.496C192.604 16.992 192.154 16.194 191.998 15.102L193.348 14.796C193.432 15.372 193.606 15.828 193.87 16.164C194.146 16.488 194.476 16.722 194.86 16.866C195.256 16.998 195.676 17.064 196.12 17.064C196.78 17.064 197.302 16.938 197.686 16.686C198.07 16.422 198.262 16.062 198.262 15.606C198.262 15.15 198.076 14.832 197.704 14.652C197.344 14.46 196.846 14.304 196.21 14.184L195.472 14.058C194.896 13.962 194.374 13.812 193.906 13.608C193.45 13.404 193.084 13.128 192.808 12.78C192.532 12.432 192.394 11.994 192.394 11.466C192.394 10.674 192.7 10.056 193.312 9.612C193.924 9.168 194.734 8.946 195.742 8.946C196.738 8.946 197.542 9.174 198.154 9.63C198.778 10.074 199.18 10.704 199.36 11.52L198.028 11.862C197.92 11.226 197.662 10.782 197.254 10.53C196.846 10.266 196.342 10.134 195.742 10.134C195.142 10.134 194.668 10.248 194.32 10.476C193.972 10.704 193.798 11.028 193.798 11.448C193.798 11.868 193.96 12.18 194.284 12.384C194.62 12.576 195.064 12.72 195.616 12.816L196.354 12.942C196.978 13.05 197.536 13.2 198.028 13.392C198.532 13.572 198.928 13.836 199.216 14.184C199.516 14.532 199.666 14.988 199.666 15.552C199.666 16.416 199.342 17.082 198.694 17.55C198.058 18.018 197.2 18.252 196.12 18.252ZM204.696 18.252C204.072 18.252 203.508 18.144 203.004 17.928C202.512 17.712 202.122 17.4 201.834 16.992C201.546 16.584 201.402 16.086 201.402 15.498C201.402 14.898 201.546 14.406 201.834 14.022C202.122 13.626 202.512 13.332 203.004 13.14C203.508 12.936 204.078 12.834 204.714 12.834H207.684V12.186C207.684 11.562 207.504 11.07 207.144 10.71C206.784 10.35 206.238 10.17 205.506 10.17C204.798 10.17 204.24 10.344 203.832 10.692C203.436 11.04 203.172 11.496 203.04 12.06L201.708 11.628C201.84 11.136 202.062 10.692 202.374 10.296C202.698 9.888 203.118 9.564 203.634 9.324C204.15 9.072 204.78 8.946 205.524 8.946C206.64 8.946 207.51 9.24 208.134 9.828C208.77 10.404 209.088 11.22 209.088 12.276V16.254C209.088 16.614 209.256 16.794 209.592 16.794H210.402V18H209.16C208.764 18 208.446 17.892 208.206 17.676C207.966 17.448 207.846 17.148 207.846 16.776V16.686H207.63C207.498 16.914 207.318 17.154 207.09 17.406C206.874 17.646 206.574 17.844 206.19 18C205.806 18.168 205.308 18.252 204.696 18.252ZM204.858 17.028C205.71 17.028 206.394 16.782 206.91 16.29C207.426 15.786 207.684 15.084 207.684 14.184V13.986H204.768C204.204 13.986 203.736 14.112 203.364 14.364C203.004 14.604 202.824 14.97 202.824 15.462C202.824 15.954 203.01 16.338 203.382 16.614C203.754 16.89 204.246 17.028 204.858 17.028ZM212.349 18V9.198H213.735V10.692H213.987C214.179 10.272 214.503 9.894 214.959 9.558C215.427 9.21 216.111 9.036 217.011 9.036C217.659 9.036 218.247 9.174 218.775 9.45C219.303 9.726 219.723 10.14 220.035 10.692C220.347 11.232 220.503 11.892 220.503 12.672V18H219.081V12.78C219.081 11.904 218.859 11.268 218.415 10.872C217.983 10.476 217.395 10.278 216.651 10.278C215.811 10.278 215.121 10.56 214.581 11.124C214.041 11.676 213.771 12.492 213.771 13.572V18H212.349ZM226.089 18.252C225.465 18.252 224.901 18.144 224.397 17.928C223.905 17.712 223.515 17.4 223.227 16.992C222.939 16.584 222.795 16.086 222.795 15.498C222.795 14.898 222.939 14.406 223.227 14.022C223.515 13.626 223.905 13.332 224.397 13.14C224.901 12.936 225.471 12.834 226.107 12.834H229.077V12.186C229.077 11.562 228.897 11.07 228.537 10.71C228.177 10.35 227.631 10.17 226.899 10.17C226.191 10.17 225.633 10.344 225.225 10.692C224.829 11.04 224.565 11.496 224.433 12.06L223.101 11.628C223.233 11.136 223.455 10.692 223.767 10.296C224.091 9.888 224.511 9.564 225.027 9.324C225.543 9.072 226.173 8.946 226.917 8.946C228.033 8.946 228.903 9.24 229.527 9.828C230.163 10.404 230.481 11.22 230.481 12.276V16.254C230.481 16.614 230.649 16.794 230.985 16.794H231.795V18H230.553C230.157 18 229.839 17.892 229.599 17.676C229.359 17.448 229.239 17.148 229.239 16.776V16.686H229.023C228.891 16.914 228.711 17.154 228.483 17.406C228.267 17.646 227.967 17.844 227.583 18C227.199 18.168 226.701 18.252 226.089 18.252ZM226.251 17.028C227.103 17.028 227.787 16.782 228.303 16.29C228.819 15.786 229.077 15.084 229.077 14.184V13.986H226.161C225.597 13.986 225.129 14.112 224.757 14.364C224.397 14.604 224.217 14.97 224.217 15.462C224.217 15.954 224.403 16.338 224.775 16.614C225.147 16.89 225.639 17.028 226.251 17.028Z" fill="#5FFF00"/>
<path d="M168.45 41L172.338 28.4H175.002L178.89 41H177.324L176.352 37.814H170.988L170.016 41H168.45ZM171.384 36.446H175.956L173.796 29.318H173.544L171.384 36.446ZM180.832 41V32.198H182.218V33.278H182.47C182.758 32.534 183.424 32.162 184.468 32.162H185.512V33.458H184.378C183.73 33.458 183.214 33.638 182.83 33.998C182.446 34.346 182.254 34.892 182.254 35.636V41H180.832ZM187.617 41V28.4H189.039V41H187.617ZM194.729 41.252C194.105 41.252 193.541 41.144 193.037 40.928C192.545 40.712 192.155 40.4 191.867 39.992C191.579 39.584 191.435 39.086 191.435 38.498C191.435 37.898 191.579 37.406 191.867 37.022C192.155 36.626 192.545 36.332 193.037 36.14C193.541 35.936 194.111 35.834 194.747 35.834H197.717V35.186C197.717 34.562 197.537 34.07 197.177 33.71C196.817 33.35 196.271 33.17 195.539 33.17C194.831 33.17 194.273 33.344 193.865 33.692C193.469 34.04 193.205 34.496 193.073 35.06L191.741 34.628C191.873 34.136 192.095 33.692 192.407 33.296C192.731 32.888 193.151 32.564 193.667 32.324C194.183 32.072 194.813 31.946 195.557 31.946C196.673 31.946 197.543 32.24 198.167 32.828C198.803 33.404 199.121 34.22 199.121 35.276V39.254C199.121 39.614 199.289 39.794 199.625 39.794H200.435V41H199.193C198.797 41 198.479 40.892 198.239 40.676C197.999 40.448 197.879 40.148 197.879 39.776V39.686H197.663C197.531 39.914 197.351 40.154 197.123 40.406C196.907 40.646 196.607 40.844 196.223 41C195.839 41.168 195.341 41.252 194.729 41.252ZM194.891 40.028C195.743 40.028 196.427 39.782 196.943 39.29C197.459 38.786 197.717 38.084 197.717 37.184V36.986H194.801C194.237 36.986 193.769 37.112 193.397 37.364C193.037 37.604 192.857 37.97 192.857 38.462C192.857 38.954 193.043 39.338 193.415 39.614C193.787 39.89 194.279 40.028 194.891 40.028ZM202.383 41V32.198H203.769V33.692H204.021C204.213 33.272 204.537 32.894 204.993 32.558C205.461 32.21 206.145 32.036 207.045 32.036C207.693 32.036 208.281 32.174 208.809 32.45C209.337 32.726 209.757 33.14 210.069 33.692C210.381 34.232 210.537 34.892 210.537 35.672V41H209.115V35.78C209.115 34.904 208.893 34.268 208.449 33.872C208.017 33.476 207.429 33.278 206.685 33.278C205.845 33.278 205.155 33.56 204.615 34.124C204.075 34.676 203.805 35.492 203.805 36.572V41H202.383ZM217.148 41.252C216.38 41.252 215.678 41.072 215.042 40.712C214.418 40.34 213.92 39.818 213.548 39.146C213.176 38.474 212.99 37.664 212.99 36.716V36.482C212.99 35.546 213.176 34.742 213.548 34.07C213.92 33.386 214.418 32.864 215.042 32.504C215.678 32.132 216.38 31.946 217.148 31.946C218.06 31.946 218.768 32.12 219.272 32.468C219.776 32.804 220.136 33.176 220.352 33.584H220.604V28.4H222.026V41H220.64V39.542H220.388C220.148 39.986 219.776 40.382 219.272 40.73C218.768 41.078 218.06 41.252 217.148 41.252ZM217.526 39.992C218.426 39.992 219.164 39.704 219.74 39.128C220.316 38.54 220.604 37.724 220.604 36.68V36.518C220.604 35.474 220.316 34.664 219.74 34.088C219.164 33.5 218.426 33.206 217.526 33.206C216.614 33.206 215.87 33.5 215.294 34.088C214.718 34.664 214.43 35.474 214.43 36.518V36.68C214.43 37.724 214.718 38.54 215.294 39.128C215.882 39.704 216.626 39.992 217.526 39.992ZM227.706 41.252C227.082 41.252 226.518 41.144 226.014 40.928C225.522 40.712 225.132 40.4 224.844 39.992C224.556 39.584 224.412 39.086 224.412 38.498C224.412 37.898 224.556 37.406 224.844 37.022C225.132 36.626 225.522 36.332 226.014 36.14C226.518 35.936 227.088 35.834 227.724 35.834H230.694V35.186C230.694 34.562 230.514 34.07 230.154 33.71C229.794 33.35 229.248 33.17 228.516 33.17C227.808 33.17 227.25 33.344 226.842 33.692C226.446 34.04 226.182 34.496 226.05 35.06L224.718 34.628C224.85 34.136 225.072 33.692 225.384 33.296C225.708 32.888 226.128 32.564 226.644 32.324C227.16 32.072 227.79 31.946 228.534 31.946C229.65 31.946 230.52 32.24 231.144 32.828C231.78 33.404 232.098 34.22 232.098 35.276V39.254C232.098 39.614 232.266 39.794 232.602 39.794H233.412V41H232.17C231.774 41 231.456 40.892 231.216 40.676C230.976 40.448 230.856 40.148 230.856 39.776V39.686H230.64C230.508 39.914 230.328 40.154 230.1 40.406C229.884 40.646 229.584 40.844 229.2 41C228.816 41.168 228.318 41.252 227.706 41.252ZM227.868 40.028C228.72 40.028 229.404 39.782 229.92 39.29C230.436 38.786 230.694 38.084 230.694 37.184V36.986H227.778C227.214 36.986 226.746 37.112 226.374 37.364C226.014 37.604 225.834 37.97 225.834 38.462C225.834 38.954 226.02 39.338 226.392 39.614C226.764 39.89 227.256 40.028 227.868 40.028ZM236.407 41L234.643 32.198H236.083L237.541 40.046H237.793L239.719 32.198H242.077L244.003 40.046H244.255L245.713 32.198H247.153L245.389 41H242.959L241.015 33.152H240.781L238.837 41H236.407ZM253.454 41.252C252.566 41.252 251.786 41.066 251.114 40.694C250.442 40.31 249.92 39.776 249.548 39.092C249.176 38.408 248.99 37.616 248.99 36.716V36.5C248.99 35.588 249.176 34.79 249.548 34.106C249.92 33.422 250.436 32.894 251.096 32.522C251.756 32.138 252.512 31.946 253.364 31.946C254.192 31.946 254.924 32.126 255.56 32.486C256.196 32.846 256.694 33.356 257.054 34.016C257.414 34.664 257.594 35.432 257.594 36.32V36.968H250.43C250.454 37.916 250.748 38.66 251.312 39.2C251.888 39.728 252.614 39.992 253.49 39.992C254.246 39.992 254.828 39.824 255.236 39.488C255.644 39.14 255.956 38.72 256.172 38.228L257.396 38.822C257.216 39.194 256.97 39.566 256.658 39.938C256.346 40.31 255.932 40.622 255.416 40.874C254.9 41.126 254.246 41.252 253.454 41.252ZM250.448 35.798H256.154C256.106 34.982 255.824 34.346 255.308 33.89C254.804 33.434 254.156 33.206 253.364 33.206C252.56 33.206 251.9 33.434 251.384 33.89C250.868 34.346 250.556 34.982 250.448 35.798ZM259.642 36.644V36.392C259.642 35.468 259.828 34.676 260.2 34.016C260.572 33.356 261.07 32.846 261.694 32.486C262.33 32.126 263.032 31.946 263.8 31.946C264.724 31.946 265.432 32.126 265.924 32.486C266.428 32.834 266.8 33.224 267.04 33.656H267.292V32.198H268.642V43.052C268.642 43.532 268.51 43.91 268.246 44.186C267.982 44.462 267.598 44.6 267.094 44.6H261.118V43.34H266.716C267.076 43.34 267.256 43.16 267.256 42.8V39.452H267.004C266.86 39.716 266.656 39.974 266.392 40.226C266.128 40.478 265.786 40.688 265.366 40.856C264.946 41.012 264.424 41.09 263.8 41.09C263.032 41.09 262.33 40.91 261.694 40.55C261.07 40.19 260.572 39.68 260.2 39.02C259.828 38.348 259.642 37.556 259.642 36.644ZM264.178 39.83C265.078 39.83 265.816 39.548 266.392 38.984C266.968 38.408 267.256 37.61 267.256 36.59V36.446C267.256 35.426 266.968 34.634 266.392 34.07C265.816 33.494 265.078 33.206 264.178 33.206C263.266 33.206 262.522 33.494 261.946 34.07C261.37 34.634 261.082 35.426 261.082 36.446V36.59C261.082 37.61 261.37 38.408 261.946 38.984C262.534 39.548 263.278 39.83 264.178 39.83ZM280.134 41.252C279.21 41.252 278.424 41.09 277.776 40.766C277.128 40.43 276.63 39.98 276.282 39.416C275.946 38.84 275.778 38.18 275.778 37.436H277.254C277.254 38.18 277.494 38.786 277.974 39.254C278.454 39.71 279.174 39.938 280.134 39.938C281.13 39.938 281.892 39.674 282.42 39.146C282.96 38.606 283.23 37.868 283.23 36.932V35.186H282.996C282.768 35.546 282.402 35.882 281.898 36.194C281.406 36.494 280.71 36.644 279.81 36.644C279.042 36.644 278.346 36.476 277.722 36.14C277.098 35.804 276.6 35.33 276.228 34.718C275.856 34.106 275.67 33.38 275.67 32.54V32.324C275.67 31.472 275.868 30.734 276.264 30.11C276.66 29.486 277.194 29.006 277.866 28.67C278.55 28.322 279.324 28.148 280.188 28.148C281.064 28.148 281.838 28.322 282.51 28.67C283.194 29.006 283.728 29.492 284.112 30.128C284.496 30.764 284.688 31.52 284.688 32.396V36.788C284.688 38.204 284.28 39.302 283.464 40.082C282.648 40.862 281.538 41.252 280.134 41.252ZM280.188 35.42C281.088 35.42 281.82 35.156 282.384 34.628C282.948 34.088 283.23 33.374 283.23 32.486V32.342C283.23 31.454 282.948 30.752 282.384 30.236C281.832 29.72 281.1 29.462 280.188 29.462C279.276 29.462 278.538 29.72 277.974 30.236C277.422 30.752 277.146 31.454 277.146 32.342V32.486C277.146 33.374 277.428 34.088 277.992 34.628C278.556 35.156 279.288 35.42 280.188 35.42ZM291.155 41.252C290.231 41.252 289.445 41.09 288.797 40.766C288.149 40.43 287.651 39.98 287.303 39.416C286.967 38.84 286.799 38.18 286.799 37.436H288.275C288.275 38.18 288.515 38.786 288.995 39.254C289.475 39.71 290.195 39.938 291.155 39.938C292.151 39.938 292.913 39.674 293.441 39.146C293.981 38.606 294.251 37.868 294.251 36.932V35.186H294.017C293.789 35.546 293.423 35.882 292.919 36.194C292.427 36.494 291.731 36.644 290.831 36.644C290.063 36.644 289.367 36.476 288.743 36.14C288.119 35.804 287.621 35.33 287.249 34.718C286.877 34.106 286.691 33.38 286.691 32.54V32.324C286.691 31.472 286.889 30.734 287.285 30.11C287.681 29.486 288.215 29.006 288.887 28.67C289.571 28.322 290.345 28.148 291.209 28.148C292.085 28.148 292.859 28.322 293.531 28.67C294.215 29.006 294.749 29.492 295.133 30.128C295.517 30.764 295.709 31.52 295.709 32.396V36.788C295.709 38.204 295.301 39.302 294.485 40.082C293.669 40.862 292.559 41.252 291.155 41.252ZM291.209 35.42C292.109 35.42 292.841 35.156 293.405 34.628C293.969 34.088 294.251 33.374 294.251 32.486V32.342C294.251 31.454 293.969 30.752 293.405 30.236C292.853 29.72 292.121 29.462 291.209 29.462C290.297 29.462 289.559 29.72 288.995 30.236C288.443 30.752 288.167 31.454 288.167 32.342V32.486C288.167 33.374 288.449 34.088 289.013 34.628C289.577 35.156 290.309 35.42 291.209 35.42ZM172.626 64V52.372H172.356L169.908 56.854H168.324L171.33 51.4H174.084V64H172.626ZM181.283 64.252C179.855 64.252 178.715 63.832 177.863 62.992C177.023 62.14 176.603 60.868 176.603 59.176V56.224C176.603 54.544 177.023 53.278 177.863 52.426C178.715 51.574 179.855 51.148 181.283 51.148C182.723 51.148 183.863 51.574 184.703 52.426C185.555 53.278 185.981 54.544 185.981 56.224V59.176C185.981 60.868 185.555 62.14 184.703 62.992C183.863 63.832 182.723 64.252 181.283 64.252ZM181.283 62.938C182.363 62.938 183.173 62.614 183.713 61.966C184.253 61.318 184.523 60.412 184.523 59.248V56.134C184.523 54.97 184.247 54.07 183.695 53.434C183.143 52.786 182.339 52.462 181.283 52.462C180.227 52.462 179.423 52.786 178.871 53.434C178.331 54.082 178.061 54.982 178.061 56.134V59.248C178.061 60.424 178.331 61.336 178.871 61.984C179.411 62.62 180.215 62.938 181.283 62.938ZM194.201 64V61.426H187.631V59.698L192.923 51.4H195.659V60.112H197.819V61.426H195.659V64H194.201ZM189.089 60.112H194.201V52.282H193.949L189.089 59.896V60.112ZM203.759 64.252C202.859 64.252 202.061 64.084 201.365 63.748C200.669 63.412 200.117 62.926 199.709 62.29C199.313 61.654 199.115 60.886 199.115 59.986V59.644H200.591V59.968C200.591 60.892 200.879 61.618 201.455 62.146C202.043 62.674 202.811 62.938 203.759 62.938C204.719 62.938 205.463 62.692 205.991 62.2C206.531 61.696 206.801 61.066 206.801 60.31V60.166C206.801 59.626 206.669 59.182 206.405 58.834C206.141 58.486 205.781 58.234 205.325 58.078C204.881 57.91 204.389 57.826 203.849 57.826H201.797V56.008L206.603 52.93V52.714H199.421V51.4H208.151V53.434L203.453 56.458V56.674H204.353C205.061 56.674 205.709 56.806 206.297 57.07C206.897 57.322 207.371 57.706 207.719 58.222C208.079 58.726 208.259 59.362 208.259 60.13V60.328C208.259 61.12 208.073 61.81 207.701 62.398C207.329 62.986 206.807 63.442 206.135 63.766C205.463 64.09 204.671 64.252 203.759 64.252ZM215.231 64V51.4H222.989V52.768H216.743V56.98H222.485V58.348H216.743V62.632H223.079V64H215.231ZM224.51 64L228.578 57.646L224.564 51.4H226.346L229.55 56.584H229.784L233.006 51.4H234.77L230.774 57.646L234.842 64H233.078L229.784 58.69H229.55L226.274 64H224.51ZM240.257 64L244.145 51.4H246.809L250.697 64H249.131L248.159 60.814H242.795L241.823 64H240.257ZM243.191 59.446H247.763L245.603 52.318H245.351L243.191 59.446ZM252.639 64V55.198H254.025V56.296H254.277C254.445 55.984 254.721 55.696 255.105 55.432C255.489 55.168 256.029 55.036 256.725 55.036C257.409 55.036 257.961 55.186 258.381 55.486C258.801 55.786 259.113 56.152 259.317 56.584H259.569C259.761 56.152 260.061 55.786 260.469 55.486C260.889 55.186 261.477 55.036 262.233 55.036C263.109 55.036 263.823 55.306 264.375 55.846C264.939 56.374 265.221 57.106 265.221 58.042V64H263.799V58.168C263.799 57.58 263.625 57.118 263.277 56.782C262.941 56.434 262.467 56.26 261.855 56.26C261.207 56.26 260.673 56.47 260.253 56.89C259.845 57.31 259.641 57.916 259.641 58.708V64H258.219V58.168C258.219 57.58 258.045 57.118 257.697 56.782C257.361 56.434 256.887 56.26 256.275 56.26C255.627 56.26 255.093 56.47 254.673 56.89C254.265 57.31 254.061 57.916 254.061 58.708V64H252.639ZM271.671 64.252C270.567 64.252 269.643 64 268.899 63.496C268.155 62.992 267.705 62.194 267.549 61.102L268.899 60.796C268.983 61.372 269.157 61.828 269.421 62.164C269.697 62.488 270.027 62.722 270.411 62.866C270.807 62.998 271.227 63.064 271.671 63.064C272.331 63.064 272.853 62.938 273.237 62.686C273.621 62.422 273.813 62.062 273.813 61.606C273.813 61.15 273.627 60.832 273.255 60.652C272.895 60.46 272.397 60.304 271.761 60.184L271.023 60.058C270.447 59.962 269.925 59.812 269.457 59.608C269.001 59.404 268.635 59.128 268.359 58.78C268.083 58.432 267.945 57.994 267.945 57.466C267.945 56.674 268.251 56.056 268.863 55.612C269.475 55.168 270.285 54.946 271.293 54.946C272.289 54.946 273.093 55.174 273.705 55.63C274.329 56.074 274.731 56.704 274.911 57.52L273.579 57.862C273.471 57.226 273.213 56.782 272.805 56.53C272.397 56.266 271.893 56.134 271.293 56.134C270.693 56.134 270.219 56.248 269.871 56.476C269.523 56.704 269.349 57.028 269.349 57.448C269.349 57.868 269.511 58.18 269.835 58.384C270.171 58.576 270.615 58.72 271.167 58.816L271.905 58.942C272.529 59.05 273.087 59.2 273.579 59.392C274.083 59.572 274.479 59.836 274.767 60.184C275.067 60.532 275.217 60.988 275.217 61.552C275.217 62.416 274.893 63.082 274.245 63.55C273.609 64.018 272.751 64.252 271.671 64.252ZM280.664 64C280.16 64 279.77 63.862 279.494 63.586C279.23 63.31 279.098 62.932 279.098 62.452V56.44H276.452V55.198H279.098V52.066H280.52V55.198H283.4V56.44H280.52V62.218C280.52 62.578 280.694 62.758 281.042 62.758H283.004V64H280.664ZM289.419 64.252C288.531 64.252 287.751 64.066 287.079 63.694C286.407 63.31 285.885 62.776 285.513 62.092C285.141 61.408 284.955 60.616 284.955 59.716V59.5C284.955 58.588 285.141 57.79 285.513 57.106C285.885 56.422 286.401 55.894 287.061 55.522C287.721 55.138 288.477 54.946 289.329 54.946C290.157 54.946 290.889 55.126 291.525 55.486C292.161 55.846 292.659 56.356 293.019 57.016C293.379 57.664 293.559 58.432 293.559 59.32V59.968H286.395C286.419 60.916 286.713 61.66 287.277 62.2C287.853 62.728 288.579 62.992 289.455 62.992C290.211 62.992 290.793 62.824 291.201 62.488C291.609 62.14 291.921 61.72 292.137 61.228L293.361 61.822C293.181 62.194 292.935 62.566 292.623 62.938C292.311 63.31 291.897 63.622 291.381 63.874C290.865 64.126 290.211 64.252 289.419 64.252ZM286.413 58.798H292.119C292.071 57.982 291.789 57.346 291.273 56.89C290.769 56.434 290.121 56.206 289.329 56.206C288.525 56.206 287.865 56.434 287.349 56.89C286.833 57.346 286.521 57.982 286.413 58.798ZM296.039 64V55.198H297.425V56.278H297.677C297.965 55.534 298.631 55.162 299.675 55.162H300.719V56.458H299.585C298.937 56.458 298.421 56.638 298.037 56.998C297.653 57.346 297.461 57.892 297.461 58.636V64H296.039ZM306.234 64.252C305.466 64.252 304.764 64.072 304.128 63.712C303.504 63.34 303.006 62.818 302.634 62.146C302.262 61.474 302.076 60.664 302.076 59.716V59.482C302.076 58.546 302.262 57.742 302.634 57.07C303.006 56.386 303.504 55.864 304.128 55.504C304.764 55.132 305.466 54.946 306.234 54.946C307.146 54.946 307.854 55.12 308.358 55.468C308.862 55.804 309.222 56.176 309.438 56.584H309.69V51.4H311.112V64H309.726V62.542H309.474C309.234 62.986 308.862 63.382 308.358 63.73C307.854 64.078 307.146 64.252 306.234 64.252ZM306.612 62.992C307.512 62.992 308.25 62.704 308.826 62.128C309.402 61.54 309.69 60.724 309.69 59.68V59.518C309.69 58.474 309.402 57.664 308.826 57.088C308.25 56.5 307.512 56.206 306.612 56.206C305.7 56.206 304.956 56.5 304.38 57.088C303.804 57.664 303.516 58.474 303.516 59.518V59.68C303.516 60.724 303.804 61.54 304.38 62.128C304.968 62.704 305.712 62.992 306.612 62.992ZM316.792 64.252C316.168 64.252 315.604 64.144 315.1 63.928C314.608 63.712 314.218 63.4 313.93 62.992C313.642 62.584 313.498 62.086 313.498 61.498C313.498 60.898 313.642 60.406 313.93 60.022C314.218 59.626 314.608 59.332 315.1 59.14C315.604 58.936 316.174 58.834 316.81 58.834H319.78V58.186C319.78 57.562 319.6 57.07 319.24 56.71C318.88 56.35 318.334 56.17 317.602 56.17C316.894 56.17 316.336 56.344 315.928 56.692C315.532 57.04 315.268 57.496 315.136 58.06L313.804 57.628C313.936 57.136 314.158 56.692 314.47 56.296C314.794 55.888 315.214 55.564 315.73 55.324C316.246 55.072 316.876 54.946 317.62 54.946C318.736 54.946 319.606 55.24 320.23 55.828C320.866 56.404 321.184 57.22 321.184 58.276V62.254C321.184 62.614 321.352 62.794 321.688 62.794H322.498V64H321.256C320.86 64 320.542 63.892 320.302 63.676C320.062 63.448 319.942 63.148 319.942 62.776V62.686H319.726C319.594 62.914 319.414 63.154 319.186 63.406C318.97 63.646 318.67 63.844 318.286 64C317.902 64.168 317.404 64.252 316.792 64.252ZM316.954 63.028C317.806 63.028 318.49 62.782 319.006 62.29C319.522 61.786 319.78 61.084 319.78 60.184V59.986H316.864C316.3 59.986 315.832 60.112 315.46 60.364C315.1 60.604 314.92 60.97 314.92 61.462C314.92 61.954 315.106 62.338 315.478 62.614C315.85 62.89 316.342 63.028 316.954 63.028ZM324.445 64V55.198H325.831V56.296H326.083C326.251 55.984 326.527 55.696 326.911 55.432C327.295 55.168 327.835 55.036 328.531 55.036C329.215 55.036 329.767 55.186 330.187 55.486C330.607 55.786 330.919 56.152 331.123 56.584H331.375C331.567 56.152 331.867 55.786 332.275 55.486C332.695 55.186 333.283 55.036 334.039 55.036C334.915 55.036 335.629 55.306 336.181 55.846C336.745 56.374 337.027 57.106 337.027 58.042V64H335.605V58.168C335.605 57.58 335.431 57.118 335.083 56.782C334.747 56.434 334.273 56.26 333.661 56.26C333.013 56.26 332.479 56.47 332.059 56.89C331.651 57.31 331.447 57.916 331.447 58.708V64H330.025V58.168C330.025 57.58 329.851 57.118 329.503 56.782C329.167 56.434 328.693 56.26 328.081 56.26C327.433 56.26 326.899 56.47 326.479 56.89C326.071 57.31 325.867 57.916 325.867 58.708V64H324.445Z" fill="white"/>
<defs>
<linearGradient id="paint0_linear_1819_3578" x1="137.75" y1="41.55" x2="137.75" y2="236" gradientUnits="userSpaceOnUse">
<stop stop-color="#5FFF00"/>
<stop offset="0.0001" stop-color="#5FFF00" stop-opacity="0.9"/>
<stop offset="1" stop-color="#5FFF00" stop-opacity="0"/>
</linearGradient>
<clipPath id="clip0_1819_3578">
<rect width="361.08" height="443.44" fill="white" transform="translate(0 24)"/>
</clipPath>
</defs>
</svg>
