<svg width="1059" height="615" viewBox="0 0 1059 615" fill="none" xmlns="http://www.w3.org/2000/svg">
<g clip-path="url(#clip0)">
<path d="M495.223 334.843L644.712 265.866L798.703 199.166L949.416 143.713L1089.22 106.829L1211.43 92.0992L1310.68 97.5868L1383.37 115.986L1427.68 137.274L1443.33 152.768" stroke="#5FFF00" stroke-linecap="round" stroke-linejoin="round"/>
<path d="M382.668 563.536L511.464 527.4L650.998 481.597L794.54 432.701L935.008 388.665L1065.45 357.082L1179.71 342.913L1272.81 346.515L1341.34 363.385L1383.48 385.862L1398.82 405.926" stroke="#5FFF00" stroke-linecap="round" stroke-linejoin="round"/>
<path d="M569.363 0.849487L678.52 3.41488L789.103 10.9921L897.801 19.9285" stroke="#5FFF00" stroke-linecap="round" stroke-linejoin="round"/>
<path d="M878.621 28.1514L970.228 33.6389L1054.15 38.7187L1115.3 42.7112" stroke="#5FFF00" stroke-linecap="round" stroke-linejoin="round"/>
<path d="M458.203 603.206L369.519 614.046L296.889 614.131L233.893 611.531L179.578 590.566L142.66 556.095L129.222 513.146L141.488 464.862L177.42 413.707L268.432 390.058L380.783 343.745L509.902 282.821L517.819 270.861L531.954 249.488L536.32 247.552" stroke="#5FFF00" stroke-linecap="round" stroke-linejoin="round"/>
<path d="M56.5918 323.307L119.299 287.562L193.492 267.14L267.803 269.281L330.919 297.059L340.806 317.327" stroke="#5FFF00" stroke-linecap="round" stroke-linejoin="round"/>
<path d="M294.018 329.865L231.123 365.288L177.42 413.707L110.856 409.715L70.4381 377.911L56.5918 323.307" stroke="#5FFF00" stroke-linecap="round" stroke-linejoin="round"/>
<path d="M631.613 203.362L622.167 135.983L606.078 68.2802L587.509 21.2197" stroke="#5FFF00" stroke-linecap="round" stroke-linejoin="round"/>
<path d="M335.234 316.97L323.274 312.927L279.594 298.163L206.251 304.993" stroke="#5FFF00" stroke-linecap="round" stroke-linejoin="round"/>
<path d="M1221.38 35.1849L1274.88 51.1549L1310.68 97.5868L1322.86 169.588L1309.45 257.473L1272.81 346.515L1219.05 420.061L1134.63 419.45L1082.54 466.816L1055.97 473.085L1031.47 478.861" stroke="#5FFF00" stroke-linecap="round" stroke-linejoin="round"/>
<path d="M368.686 312.995L335.557 269.111L273.834 232.584L201.409 219.146L129.34 227.895L68.6371 254.942L28.5083 296.277L15.0017 347.823L12.7761 358.475L9.73503 373.035L0.849609 415.576" stroke="#5FFF00" stroke-linecap="round" stroke-linejoin="round"/>
<path d="M382.669 563.536L358.629 514.692L349.743 456.181L357.575 396.735L380.783 343.745L415.441 303.294L427.554 297.245L455.876 281.496" stroke="#5FFF00" stroke-linecap="round" stroke-linejoin="round"/>
<path d="M369.518 614.046L316.427 609.917L270.505 585.453L239.176 545.392L227.691 495.936L238.038 442.606L268.432 390.058L313.827 344.187L358.475 318.482L366.868 313.657" stroke="#5FFF00" stroke-linecap="round" stroke-linejoin="round"/>
<path d="M30.2246 513.027L72.4261 545.001L142.66 556.095L239.176 545.392L358.628 514.692L496.106 467.971L645.29 411.312L798.907 352.665L949.195 301.204L1088.63 265.594L1210.49 251.119L1309.45 257.473L1381.93 278.438L1426.07 304.33L1441.61 325.821" stroke="#5FFF00" stroke-linecap="round" stroke-linejoin="round"/>
<path d="M57.6621 504.498L71.2026 458.899L110.856 409.715L170.216 362.247L239.958 326.994L309.325 315.288" stroke="#5FFF00" stroke-linecap="round" stroke-linejoin="round"/>
<path d="M1136.38 39.1604L1181.29 50.0506L1211.42 92.0992L1221.72 162.231L1210.49 251.119L1179.71 342.913L1134.63 419.45L1031.54 432.565L992.432 478.59L954.138 489.633" stroke="#5FFF00" stroke-linecap="round" stroke-linejoin="round"/>
<path d="M878.62 28.1514L859.117 67.6516L847.156 113.863" stroke="#5FFF00" stroke-linecap="round" stroke-linejoin="round"/>
<path d="M697.226 174.311L695.289 131.481L690.124 64.4576L684.229 19.7587L678.521 3.41492" stroke="#5FFF00" stroke-linecap="round" stroke-linejoin="round"/>
<path d="M206.25 304.993L193.491 267.14L201.408 219.146L228.948 167.838L274.462 119.554L335.76 79.0854" stroke="#5FFF00" stroke-linecap="round" stroke-linejoin="round"/>
<path d="M1032.59 56.6255L1066.44 66.0376L1089.22 106.829L1097.05 176.587L1088.63 265.594L1065.45 357.082L1031.54 432.566L914.213 458.78L890.207 499.622L866.711 506.792" stroke="#5FFF00" stroke-linecap="round" stroke-linejoin="round"/>
<path d="M938.627 71.4572L972.249 73.326" stroke="#5FFF00" stroke-linecap="round" stroke-linejoin="round"/>
<path d="M559.357 583.057L533.754 567.75L511.464 527.4L496.106 467.971L490.347 399.81L495.223 334.843" stroke="#5FFF00" stroke-linecap="round" stroke-linejoin="round"/>
<path d="M1033.44 56.4896L1054.15 38.7187L1096.34 34.7942" stroke="#5FFF00" stroke-linecap="round" stroke-linejoin="round"/>
<path d="M348.605 317.718L330.919 297.059L335.557 269.111L354.976 238.564L388.088 208.68L433.331 182.16L488.852 160.821L552.562 145.463L622.167 135.983L695.289 131.48L769.499 130.733L799.009 131.412" stroke="#5FFF00" stroke-linecap="round" stroke-linejoin="round"/>
<path d="M668.463 556.333L659.152 532.48L650.997 481.597L645.289 411.312L643.063 334.554L644.711 265.866L649.961 216.359L657.878 191.181" stroke="#5FFF00" stroke-linecap="round" stroke-linejoin="round"/>
<path d="M1457.29 236.543L1441.66 216.886L1396.78 191.351L1322.86 169.588L1221.72 162.231L1097.05 176.587L954.308 213.896L800.385 269.4L643.064 334.554L490.347 399.81L349.743 456.181L227.691 495.936L129.221 513.146L57.6621 504.498" stroke="#5FFF00" stroke-linecap="round" stroke-linejoin="round"/>
<path d="M914.468 89.296L935.314 101.222L949.415 143.713L954.308 213.896L949.194 301.204L935.008 388.665L914.213 458.78L788.051 494.067L659.152 532.48L533.754 567.75L417.768 594.729L316.427 609.917L233.892 611.531L173.138 599.35L113.098 578.181L72.8334 549.452L66.5644 544.084L30.2242 513.027L14.7639 470.435L28.916 424.716L70.4379 377.911L132.772 334.911L206.251 304.993L239.958 326.994L294.018 329.865L348.197 317.82L348.604 317.718L366.868 313.657L368.686 312.995L384.911 307.133L390.177 305.23L394.968 303.498L396.344 303.005L426.602 292.064L455.875 281.496L467.428 276.62L516.017 256.114L531.953 249.488L536.319 247.552L571.419 231.276L572.541 230.749L597.294 219.264L631.613 203.362L657.878 191.181L697.226 174.311L768.853 143.611L787.524 135.609L799.009 131.413L847.156 113.863L914.468 89.296ZM914.468 89.296L933.258 84.1142L972.249 73.326L1032.59 56.6255L1033.44 56.4896L1115.3 42.7112L1136.38 39.1604L1148.56 38.5998L1221.38 35.1849L1284.44 40.0779L1323.81 47.9609L1338.91 53.8222L1358.4 64.5255L1362.19 66.3434L1386.23 77.8452L1401.74 88.3616L1425.58 125.262L1435.85 141.198L1443.33 152.768L1457.29 236.543L1441.61 325.822L1398.82 405.926L1335.58 464.013L1327 474.223L1265.86 494.916L1255.07 498.569L1183.22 490.295L1169.04 481.631L1166.93 480.356L1143.81 476.636L1141.56 476.568L1110.9 475.481L1095.51 474.92L1073.08 476.313H1072.91L1031.47 478.861L954.138 489.633L888.508 502.511L866.711 506.792L800.198 522.065L780.507 526.975L668.463 556.333L559.357 583.057L458.203 603.206L417.768 594.729L382.668 563.536L270.504 585.453L179.577 590.566L113.098 578.181L72.4257 545.001L57.6619 504.498L14.7639 470.435L0.849609 415.576L14.9677 367.479L56.5916 323.307L68.6371 254.942L105.028 183.383L163.421 118.144L188.31 101.426L240.943 66.0885L284.062 59.6156L368.788 26.3165L426.636 14.9167L464.998 7.33941L569.364 0.849487L587.508 21.2197L684.229 19.7586L782.291 22.9526L878.621 28.1513L897.802 19.9285L1001.28 28.0324L1096.34 34.7942L1148.56 38.5998" stroke="#5FFF00" stroke-linecap="round" stroke-linejoin="round"/>
<path d="M467.428 276.62L463.877 253.617L433.33 182.16L388.224 121.508L335.761 79.0854" stroke="#5FFF00" stroke-linecap="round" stroke-linejoin="round"/>
<path d="M516.018 256.114L513.571 235.829L488.852 160.821L452.478 95.8029L410.259 49.1162L368.788 26.3165L334.283 30.7677L317.327 37.1897L240.943 66.0886" stroke="#5FFF00" stroke-linecap="round" stroke-linejoin="round"/>
<path d="M787.523 135.609L794.166 153.227L798.702 199.166L800.384 269.4L798.906 352.665L794.54 432.701L788.05 494.067L780.507 526.975" stroke="#5FFF00" stroke-linecap="round" stroke-linejoin="round"/>
<path d="M426.602 292.064L423.51 275.346L388.087 208.68L335.641 154.603L274.462 119.554L214.014 106.829L161.585 164.916L129.34 227.895L119.299 287.562L132.771 334.911L170.216 362.247L231.123 365.288L313.827 344.187L375.022 319.569L382.226 316.664L396.548 310.905L415.44 303.294L427.553 297.245L467.818 279.152L473.645 276.45L516.119 256.879L531.868 249.624" stroke="#5FFF00" stroke-linecap="round" stroke-linejoin="round"/>
<path d="M938.627 71.4572L933.259 84.1142" stroke="#5FFF00" stroke-linecap="round" stroke-linejoin="round"/>
<path d="M768.853 143.611L769.498 130.733L775.376 64.8654L782.291 22.9527L789.104 10.9922" stroke="#5FFF00" stroke-linecap="round" stroke-linejoin="round"/>
<path d="M571.419 231.276L570.672 222.781L552.561 145.463L525.956 78.236L495.171 30.2071L464.998 7.33948" stroke="#5FFF00" stroke-linecap="round" stroke-linejoin="round"/>
<path d="M390.177 305.23L394.135 299.539L423.51 275.346L463.877 253.617L513.57 235.829L570.671 222.781L597.294 219.264" stroke="#5FFF00" stroke-linecap="round" stroke-linejoin="round"/>
<path d="M394.968 303.498L394.136 299.539L354.975 238.564L296.906 192.829L228.948 167.838L161.586 164.916L105.028 183.383L67.7705 221.796" stroke="#5FFF00" stroke-linecap="round" stroke-linejoin="round"/>
<path d="M800.198 522.065L842.077 511.617L890.207 499.622L906.398 496.293L992.432 478.59L1047.29 471.437L1082.54 466.816L1156.75 464.896L1212.27 470.978L1247.41 481.359L1320.67 448.145L1383.48 385.862L1426.07 304.33L1441.66 216.886L1427.68 137.274L1386.23 77.8452L1376.49 74.4813L1343.81 63.1494L1274.88 51.1549L1181.29 50.0506L1066.44 66.0376L935.314 101.223L794.167 153.227L698.177 195.241L649.961 216.359L573.305 252.733L518.753 278.625L509.901 282.822L495.222 334.843L357.575 396.735L238.038 442.606L141.487 464.862L71.2025 458.899L28.916 424.716L14.9678 367.479L28.5083 296.277L67.7706 221.796L102.259 184.283L107.424 178.66L130.206 153.872L163.421 118.144L214.015 106.829L284.062 59.6156L335.76 79.0854L410.259 49.1162L495.171 30.2071L587.508 21.2197" stroke="#5FFF00" stroke-linecap="round" stroke-linejoin="round"/>
<path d="M334.282 30.7677L366.749 25.1952L375.447 23.7001L426.636 14.9166" stroke="#5FFF00" stroke-linecap="round" stroke-linejoin="round"/>
<path d="M348.196 317.82L340.806 317.327L335.233 316.97L309.325 315.288L279.593 298.163L267.803 269.281L273.834 232.584L296.905 192.829L335.641 154.603L388.223 121.508L452.477 95.8029L525.956 78.236L606.077 68.2802L690.124 64.4576L775.376 64.8654L859.117 67.6516L938.627 71.4572L970.227 33.639L1001.28 28.0325" stroke="#5FFF00" stroke-linecap="round" stroke-linejoin="round"/>
</g>
<defs>
<clipPath id="clip0">
<rect width="1458.14" height="614.98" fill="white"/>
</clipPath>
</defs>
</svg>
