<svg width="311" height="118" viewBox="0 0 311 118" fill="none" xmlns="http://www.w3.org/2000/svg">
<path d="M110.803 56.6046V68.7907H105.814V51.2378C105.814 49.3613 106.834 48.1903 108.421 48.1903C109.182 48.1903 109.726 48.4418 110.434 49.0873L122.903 60.4064V48.2203H127.888V66.0247C127.888 67.9013 126.842 69.0722 125.282 69.0722C124.901 69.0729 124.525 68.9932 124.179 68.8384C123.832 68.6837 123.523 68.4576 123.273 68.1752L110.803 56.6046Z" fill="black"/>
<path d="M141.76 68.7907C135.778 68.7907 131.387 64.3209 131.387 58.4211C131.387 52.4387 135.778 48.4718 141.76 48.4718H146.942C153.095 48.4718 157.346 52.5251 157.346 58.4211C157.346 64.3171 152.981 68.7907 146.942 68.7907H141.76ZM146.942 63.6228C150.005 63.6228 152.132 61.5511 152.132 58.6725C152.132 55.7939 149.975 53.6134 146.942 53.6134H141.76C141.081 53.5943 140.405 53.712 139.774 53.9595C139.143 54.2069 138.57 54.5789 138.089 55.0525C137.609 55.5262 137.232 56.0916 136.981 56.714C136.73 57.3365 136.611 58.0029 136.63 58.6725C136.63 61.5811 138.754 63.6228 141.76 63.6228H146.942Z" fill="black"/>
<path d="M160.927 68.7907V63.6228H176.596C177.814 63.6228 178.552 63.0598 178.552 62.054C178.552 61.0482 177.814 60.4064 176.596 60.4064H167.414C163.194 60.4064 160.588 58.0007 160.588 54.4804C160.588 51.0426 163.023 48.4755 167.471 48.4755H182.464V53.6172H167.471C167.276 53.6012 167.079 53.6279 166.896 53.6956C166.712 53.7632 166.545 53.87 166.408 54.0084C166.271 54.1468 166.167 54.3134 166.103 54.4962C166.039 54.679 166.016 54.8735 166.037 55.0659C166.017 55.2589 166.041 55.4539 166.106 55.6369C166.171 55.82 166.276 55.9868 166.414 56.1256C166.551 56.2644 166.718 56.3718 166.902 56.4403C167.086 56.5088 167.283 56.5367 167.479 56.522H176.611C181.117 56.522 183.529 58.3986 183.529 62.5269C183.529 66.1035 181.246 68.787 176.611 68.787L160.927 68.7907Z" fill="black"/>
<path d="M190.685 52.101C190.963 51.1119 191.506 50.2148 192.256 49.5039C192.995 48.8171 194.007 48.4718 195.301 48.4718H201.45C202.594 48.4137 203.719 48.7821 204.6 49.5039C205.389 50.1974 205.96 51.0984 206.248 52.101L211.32 68.7907H205.662L204.281 63.9118L202.896 59.0328L201.309 53.347H195.601L191.248 68.787H185.59L190.685 52.101Z" fill="black"/>
<path d="M244.38 52.101C244.657 51.1123 245.199 50.2152 245.948 49.5039C246.686 48.8171 247.698 48.4718 248.992 48.4718H255.141C256.286 48.4137 257.41 48.7821 258.292 49.5039C259.08 50.1974 259.652 51.0984 259.94 52.101L265 68.7907H259.357L257.976 63.9118L256.591 59.0328L255.004 53.3507H249.297L244.943 68.7907H239.285L244.38 52.101Z" fill="black"/>
<path d="M219.453 56.6046V68.7907H214.465V51.2378C214.465 49.3613 215.488 48.1903 217.075 48.1903C217.836 48.1903 218.377 48.4418 219.084 49.0873L231.554 60.4064V48.2203H236.542V66.0247C236.542 67.9013 235.492 69.0722 233.936 69.0722C233.555 69.072 233.179 68.9918 232.832 68.8372C232.485 68.6826 232.175 68.4569 231.923 68.1752L219.453 56.6046Z" fill="black"/>
<path d="M57.6788 42.6471C57.0038 41.3169 55.8932 40.2505 54.5268 39.6208C53.1605 38.991 51.6186 38.8349 50.151 39.1777C48.6834 39.5204 47.3762 40.342 46.4413 41.5091C45.5064 42.6763 44.9985 44.1207 45 45.6082V78.2596H49.4216V45.6082C49.4295 45.1072 49.6065 44.6232 49.9247 44.2326C50.2429 43.842 50.6841 43.5673 51.1784 43.4519C51.6728 43.3364 52.192 43.3869 52.654 43.5953C53.116 43.8037 53.4943 44.1581 53.729 44.6024L68.6263 73.8986H63.6795L55.9132 58.6312H50.9665L60.9551 78.2596H75.7952L57.6788 42.6471Z" fill="#10E80C"/>
<path d="M85.6843 39.0028V71.6543C85.6749 72.1539 85.4972 72.6363 85.1792 73.0255C84.8613 73.4146 84.4211 73.6883 83.928 73.8035C83.435 73.9188 82.9171 73.869 82.4559 73.6619C81.9947 73.4549 81.6164 73.1025 81.3807 72.6601L66.4835 43.3639H71.4302L79.1965 58.6312H84.1432L74.1585 39.0028H59.3184L77.4271 74.6154C78.1034 75.9444 79.2145 77.0094 80.5807 77.6382C81.9469 78.267 83.4883 78.4227 84.9554 78.0802C86.4225 77.7377 87.7294 76.9169 88.6648 75.7507C89.6002 74.5846 90.1093 73.1412 90.1097 71.6543V39.0028H85.6843Z" fill="#10E80C"/>
<g opacity="0.05">
<path d="M57.6788 3.64705C57.0038 2.31685 55.8932 1.25047 54.5268 0.620751C53.1605 -0.00896481 51.6186 -0.165101 50.151 0.17765C48.6834 0.520402 47.3762 1.34195 46.4413 2.50913C45.5064 3.67631 44.9985 5.12071 45 6.6082V39.2596H49.4216V6.6082C49.4295 6.10723 49.6065 5.62316 49.9247 5.2326C50.2429 4.84204 50.6841 4.56731 51.1784 4.45188C51.6728 4.33645 52.192 4.38692 52.654 4.5953C53.116 4.80368 53.4943 5.15807 53.729 5.60238L68.6263 34.8986H63.6795L55.9132 19.6312H50.9665L60.9551 39.2596H75.7952L57.6788 3.64705Z" fill="black"/>
<path d="M85.6843 0.00283813V32.6543C85.6749 33.1539 85.4972 33.6363 85.1792 34.0255C84.8613 34.4146 84.4211 34.6883 83.928 34.8035C83.435 34.9188 82.9171 34.869 82.4559 34.6619C81.9947 34.4549 81.6164 34.1025 81.3807 33.6601L66.4835 4.36387H71.4302L79.1965 19.6312H84.1432L74.1585 0.00283813H59.3184L77.4271 35.6154C78.1034 36.9444 79.2145 38.0094 80.5807 38.6382C81.9469 39.267 83.4883 39.4227 84.9554 39.0802C86.4225 38.7377 87.7294 37.9169 88.6648 36.7507C89.6002 35.5846 90.1093 34.1412 90.1097 32.6543V0.00283813H85.6843Z" fill="black"/>
</g>
<g opacity="0.05">
<path d="M57.6788 81.6471C57.0038 80.3169 55.8932 79.2505 54.5268 78.6208C53.1605 77.991 51.6186 77.8349 50.151 78.1777C48.6834 78.5204 47.3762 79.342 46.4413 80.5091C45.5064 81.6763 44.9985 83.1207 45 84.6082V117.26H49.4216V84.6082C49.4295 84.1072 49.6065 83.6232 49.9247 83.2326C50.2429 82.842 50.6841 82.5673 51.1784 82.4519C51.6728 82.3364 52.192 82.3869 52.654 82.5953C53.116 82.8037 53.4943 83.1581 53.729 83.6024L68.6263 112.899H63.6795L55.9132 97.6312H50.9665L60.9551 117.26H75.7952L57.6788 81.6471Z" fill="black"/>
<path d="M85.6843 78.0028V110.654C85.6749 111.154 85.4972 111.636 85.1792 112.025C84.8613 112.415 84.4211 112.688 83.928 112.804C83.435 112.919 82.9171 112.869 82.4559 112.662C81.9947 112.455 81.6164 112.102 81.3807 111.66L66.4835 82.3639H71.4302L79.1965 97.6312H84.1432L74.1585 78.0028H59.3184L77.4271 113.615C78.1034 114.944 79.2145 116.009 80.5807 116.638C81.9469 117.267 83.4883 117.423 84.9554 117.08C86.4225 116.738 87.7294 115.917 88.6648 114.751C89.6002 113.585 90.1093 112.141 90.1097 110.654V78.0028H85.6843Z" fill="black"/>
</g>
<g opacity="0.05">
<path d="M12.6788 42.6471C12.0038 41.3169 10.8932 40.2505 9.52682 39.6208C8.16048 38.991 6.61857 38.8349 5.151 39.1777C3.68343 39.5204 2.37624 40.342 1.4413 41.5091C0.50637 42.6763 -0.00150434 44.1207 3.34716e-06 45.6082V78.2596H4.4216V45.6082C4.42948 45.1072 4.60653 44.6232 4.92474 44.2326C5.24294 43.842 5.68412 43.5673 6.17845 43.4519C6.67277 43.3364 7.19201 43.3869 7.65398 43.5953C8.11595 43.8037 8.49426 44.1581 8.72905 44.6024L23.6263 73.8986H18.6795L10.9132 58.6312H5.9665L15.9551 78.2596H30.7952L12.6788 42.6471Z" fill="black"/>
<path d="M40.6843 39.0028V71.6543C40.6749 72.1539 40.4972 72.6363 40.1792 73.0255C39.8613 73.4146 39.4211 73.6883 38.928 73.8035C38.435 73.9188 37.9171 73.869 37.4559 73.6619C36.9947 73.4549 36.6164 73.1025 36.3807 72.6601L21.4835 43.3639H26.4302L34.1965 58.6312H39.1432L29.1585 39.0028H14.3184L32.4271 74.6154C33.1034 75.9444 34.2145 77.0094 35.5807 77.6382C36.9469 78.267 38.4883 78.4227 39.9554 78.0802C41.4225 77.7377 42.7294 76.9169 43.6648 75.7507C44.6002 74.5846 45.1093 73.1412 45.1097 71.6543V39.0028H40.6843Z" fill="black"/>
</g>
<g opacity="0.05">
<path d="M277.679 42.6471C277.004 41.3169 275.893 40.2505 274.527 39.6208C273.16 38.991 271.619 38.8349 270.151 39.1777C268.683 39.5204 267.376 40.342 266.441 41.5091C265.506 42.6763 264.998 44.1207 265 45.6082V78.2596H269.422V45.6082C269.429 45.1072 269.607 44.6232 269.925 44.2326C270.243 43.842 270.684 43.5673 271.178 43.4519C271.673 43.3364 272.192 43.3869 272.654 43.5953C273.116 43.8037 273.494 44.1581 273.729 44.6024L288.626 73.8986H283.68L275.913 58.6312H270.966L280.955 78.2596H295.795L277.679 42.6471Z" fill="black"/>
<path d="M305.684 39.0028V71.6543C305.675 72.1539 305.497 72.6363 305.179 73.0255C304.861 73.4146 304.421 73.6883 303.928 73.8035C303.435 73.9188 302.917 73.869 302.456 73.6619C301.995 73.4549 301.616 73.1025 301.381 72.6601L286.483 43.3639H291.43L299.197 58.6312H304.143L294.158 39.0028H279.318L297.427 74.6154C298.103 75.9444 299.215 77.0094 300.581 77.6382C301.947 78.267 303.488 78.4227 304.955 78.0802C306.422 77.7377 307.729 76.9169 308.665 75.7507C309.6 74.5846 310.109 73.1412 310.11 71.6543V39.0028H305.684Z" fill="black"/>
</g>
</svg>
