<svg width="344" height="344" viewBox="0 0 344 344" fill="none" xmlns="http://www.w3.org/2000/svg" style="">
<path d="M220 172H330.667V205.333H220V172Z" fill="url(#paint0_linear_1629_3742)" class="xKsCInar_0"></path>
<path d="M220 233.333H330.667V266.667H220V233.333Z" fill="url(#paint1_linear_1629_3742)" class="xKsCInar_1"></path>
<path d="M220 296H330.667V329.333H220V296Z" fill="url(#paint2_linear_1629_3742)" class="xKsCInar_2"></path>
<g clip-path="url(#clip0_1629_3742)">
<path d="M9.33398 210V104.667L38.0007 76H110.667" stroke="url(#paint3_linear_1629_3742)" stroke-width="6.66667" class="xKsCInar_3"></path>
<path fill="url(#paint4_linear_1629_3742)" d="M118.6663,249.333A34.6667,34.6667 0,1,1 187.9997,249.333A34.6667,34.6667 0,1,1 118.6663,249.333" class="xKsCInar_4"></path>
<path d="M270.071 82.1612L270.071 82.1607C268.557 80.362 268.788 77.6778 270.586 76.1647C272.384 74.6518 275.068 74.8835 276.582 76.6812C278.715 79.216 279.89 82.439 279.89 85.7556V86.7459C279.89 89.096 277.985 91.0011 275.635 91.0011C273.284 91.0011 271.38 89.096 271.38 86.7459V85.7556C271.38 84.0712 270.665 82.8682 270.071 82.1612Z" stroke="white" stroke-width="1.33333" class="xKsCInar_5"></path>
<path d="M271.38 127.433C271.38 125.083 273.284 123.178 275.635 123.178C277.985 123.178 279.89 125.083 279.89 127.433V135.308C279.89 137.658 277.985 139.564 275.635 139.564C273.284 139.564 271.38 137.658 271.38 135.308V127.433Z" stroke="white" stroke-width="1.33333" class="xKsCInar_6"></path>
<path d="M275.635 98.897C277.985 98.897 279.89 100.802 279.89 103.152V111.027C279.89 113.377 277.985 115.282 275.635 115.282C273.284 115.282 271.38 113.377 271.38 111.027V103.152C271.38 100.802 273.284 98.897 275.635 98.897Z" stroke="white" stroke-width="1.33333" class="xKsCInar_7"></path>
<path d="M187.75 308.77H195.625C197.976 308.77 199.88 310.675 199.88 313.025C199.88 315.375 197.976 317.28 195.625 317.28H187.75C185.399 317.28 183.495 315.375 183.495 313.025C183.495 310.675 185.399 308.77 187.75 308.77Z" stroke="white" stroke-width="1.33333" class="xKsCInar_8"></path>
<path d="M163.469 308.77H171.344C173.694 308.77 175.599 310.675 175.599 313.025C175.599 315.375 173.694 317.28 171.344 317.28H163.469C161.119 317.28 159.214 315.375 159.214 313.025C159.214 310.675 161.119 308.77 163.469 308.77Z" stroke="white" stroke-width="1.33333" class="xKsCInar_9"></path>
<path d="M139.188 308.77H147.062C149.412 308.77 151.318 310.675 151.318 313.025C151.318 315.375 149.412 317.28 147.062 317.28H139.188C136.838 317.28 134.932 315.375 134.932 313.025C134.932 310.675 136.838 308.77 139.188 308.77Z" stroke="white" stroke-width="1.33333" class="xKsCInar_10"></path>
<path d="M114.906 308.77H122.781C125.131 308.77 127.036 310.675 127.036 313.025C127.036 315.375 125.131 317.28 122.781 317.28H114.906C112.556 317.28 110.651 315.375 110.651 313.025C110.651 310.675 112.556 308.77 114.906 308.77Z" stroke="white" stroke-width="1.33333" class="xKsCInar_11"></path>
<path d="M89.3117 308.264L89.3118 308.264C90.6762 311.793 93.4579 314.671 96.9399 316.155L96.94 316.155C97.4852 316.387 98.051 316.497 98.6065 316.497C100.262 316.497 101.834 315.526 102.523 313.909C103.445 311.747 102.439 309.248 100.277 308.326L100.539 307.713L100.277 308.326C98.894 307.737 97.7913 306.597 97.2498 305.195L89.3117 308.264ZM89.3117 308.264C88.4642 306.071 89.5544 303.608 91.7462 302.76L89.3117 308.264ZM91.7464 302.76C93.9375 301.914 96.4014 303.002 97.2497 305.195L91.7464 302.76Z" stroke="white" stroke-width="1.33333" class="xKsCInar_12"></path>
<path d="M96.8743 290.405C96.8743 292.755 94.9691 294.66 92.6191 294.66C90.2691 294.66 88.3639 292.756 88.3639 290.405V282.53C88.3639 280.18 90.2691 278.275 92.6191 278.275C94.9691 278.275 96.8743 280.18 96.8743 282.53V290.405Z" stroke="white" stroke-width="1.33333" class="xKsCInar_13"></path>
<path d="M46.7871 117.702H115.049C117.399 117.702 119.304 119.607 119.304 121.957C119.304 124.307 117.399 126.212 115.049 126.212H46.7871C44.4371 126.212 42.5319 124.307 42.5319 121.957C42.5319 119.607 44.4371 117.702 46.7871 117.702Z" stroke="white" stroke-width="1.33333" class="xKsCInar_14"></path>
<path d="M46.7871 141.549H115.049C117.399 141.549 119.304 143.454 119.304 145.804C119.304 148.154 117.399 150.059 115.049 150.059H46.7871C44.4371 150.059 42.5319 148.154 42.5319 145.804C42.5319 143.454 44.4371 141.549 46.7871 141.549Z" stroke="white" stroke-width="1.33333" class="xKsCInar_15"></path>
<path d="M46.7871 165.288H115.049C117.399 165.288 119.304 167.193 119.304 169.543C119.304 171.893 117.399 173.798 115.049 173.798H46.7871C44.4371 173.798 42.5319 171.893 42.5319 169.543C42.5319 167.193 44.4371 165.288 46.7871 165.288Z" stroke="white" stroke-width="1.33333" class="xKsCInar_16"></path>
<path d="M115.049 189.241C117.399 189.241 119.304 191.146 119.304 193.496C119.304 195.846 117.399 197.751 115.049 197.751H46.7871C44.4371 197.751 42.5319 195.846 42.5319 193.496C42.5319 191.146 44.4371 189.241 46.7871 189.241H115.049Z" stroke="white" stroke-width="1.33333" class="xKsCInar_17"></path>
<path d="M42.5319 217.342C42.5319 214.992 44.4371 213.087 46.7871 213.087H77.3874C79.7374 213.087 81.6426 214.992 81.6426 217.342C81.6426 219.692 79.7374 221.597 77.3874 221.597H46.7871C44.4371 221.597 42.5319 219.692 42.5319 217.342Z" stroke="white" stroke-width="1.33333" class="xKsCInar_18"></path>
<path d="M153.347 263.236L153.347 263.236C152.516 264.067 151.428 264.482 150.338 264.482C149.248 264.482 148.16 264.066 147.329 263.236L132.358 248.265L132.358 248.264C130.697 246.603 130.696 243.909 132.358 242.247L132.358 242.247C134.02 240.585 136.714 240.585 138.376 242.247L149.867 253.738L150.338 254.209L150.809 253.738L167.197 237.35L167.197 237.35C168.858 235.689 171.552 235.688 173.215 237.35C174.876 239.011 174.877 241.706 173.215 243.368L153.347 263.236Z" stroke="white" stroke-width="1.33333" class="xKsCInar_19"></path>
<mask id="path-21-inside-1_1629_3742" fill="white">
<path d="M225.16 132.588C229.734 129.008 233.869 124.873 237.451 120.297C240.148 116.851 239.839 111.909 236.732 108.802L227.76 99.8315C228.936 97.5031 229.941 95.0763 230.755 92.5957H243.449C247.843 92.5957 251.556 89.321 252.084 84.9779C252.251 83.6057 252.376 82.221 252.463 80.8344H257.969C260.688 80.8344 262.891 78.6307 262.891 75.9125C262.891 73.1943 260.688 70.9906 257.969 70.9906H252.408C252.324 69.8534 252.222 68.7187 252.085 67.5926C251.557 63.2495 247.844 59.9748 243.45 59.9748H230.757C229.943 57.4955 228.938 55.0687 227.762 52.739L236.733 43.7674C239.84 40.6601 240.149 35.7185 237.452 32.2732C233.871 27.6985 229.736 23.5634 225.161 19.9823C221.716 17.2844 216.774 17.5922 213.667 20.7009L204.695 29.6718C202.368 28.4958 199.941 27.4911 197.46 26.6767V13.9835C197.46 9.58926 194.185 5.8762 189.843 5.34791C184.103 4.64835 178.198 4.64835 172.457 5.34791C168.114 5.87685 164.839 9.5886 164.839 13.9835V26.676C162.358 27.4904 159.931 28.4952 157.603 29.6718L148.632 20.7009C145.525 17.5929 140.583 17.2838 137.138 19.981C132.563 23.5621 128.428 27.6972 124.847 32.2719C122.149 35.7179 122.458 40.6594 125.566 43.7668L134.537 52.7377C133.361 55.0654 132.355 57.4935 131.541 59.9735H118.848C114.454 59.9735 110.742 63.2482 110.213 67.5906C110.076 68.7167 109.973 69.8514 109.889 70.9893H40.8662C37.7988 70.9893 34.9146 72.1837 32.7451 74.3533L7.36328 99.7364C5.19437 101.905 4 104.789 4 107.857V249.697C4 256.029 9.15222 261.181 15.4844 261.181H87.6981V266.125C87.6981 268.843 89.9018 271.047 92.62 271.047C95.3382 271.047 97.5419 268.843 97.5419 266.125V261.181H110.98C116.154 279.403 132.931 292.793 152.788 292.793C176.754 292.793 196.251 273.295 196.251 249.329C196.251 227.072 179.431 208.679 157.836 206.168V183.813C157.836 181.094 155.632 178.891 152.914 178.891C150.195 178.891 147.992 181.094 147.992 183.813V206.136C126.274 208.531 109.324 226.985 109.324 249.329C109.324 250.003 109.344 250.671 109.375 251.338H15.4844C14.5801 251.338 13.8438 250.602 13.8438 249.697V107.857C13.8438 107.425 14.019 107.002 14.3241 106.697L39.7059 81.3148C40.0163 81.005 40.4278 80.8344 40.8662 80.8344H109.831C109.919 82.2217 110.044 83.6064 110.211 84.9779C110.74 89.321 114.451 92.5957 118.846 92.5957H131.539C132.353 95.0763 133.358 97.5038 134.535 99.8315L125.564 108.802C122.456 111.909 122.147 116.851 124.844 120.297C128.426 124.873 132.561 129.008 137.135 132.588C140.354 135.107 144.877 135.002 147.991 132.445V160.843C147.991 163.561 150.195 165.765 152.913 165.765C155.631 165.765 157.835 163.561 157.835 160.843V123.011C160.092 124.138 162.439 125.106 164.836 125.893V138.586C164.836 142.98 168.111 146.693 172.454 147.222C175.325 147.571 178.251 147.748 181.147 147.748C184.043 147.748 186.968 147.571 189.839 147.221C194.183 146.693 197.457 142.98 197.457 138.586V125.893C199.938 125.079 202.365 124.074 204.693 122.898L213.664 131.869C216.773 134.976 221.714 135.285 225.16 132.588V132.588ZM152.788 215.708C171.326 215.708 186.407 230.79 186.407 249.328C186.407 267.866 171.325 282.948 152.788 282.948C134.25 282.948 119.168 267.866 119.168 249.328C119.168 230.79 134.249 215.708 152.788 215.708V215.708ZM200.834 113.813C198.578 114.997 196.199 115.982 193.763 116.74C190.085 117.884 187.615 121.223 187.615 125.051V137.567C183.329 138.015 178.969 138.015 174.681 137.567V125.051C174.681 121.223 172.211 117.884 168.532 116.739C166.096 115.982 163.717 114.997 161.461 113.812C158.051 112.021 153.942 112.636 151.236 115.341L142.389 124.188C139.033 121.468 135.964 118.399 133.244 115.042L142.089 106.196C144.796 103.489 145.41 99.3807 143.619 95.9708C142.435 93.7153 141.45 91.3364 140.692 88.899C139.548 85.2214 136.207 82.7506 132.381 82.7506H119.865C119.641 80.608 119.528 78.4371 119.528 76.284C119.528 74.1308 119.641 71.9606 119.865 69.8173H132.381C136.208 69.8173 139.548 67.3465 140.692 63.6689C141.45 61.2322 142.435 58.8526 143.618 56.5978C145.41 53.1872 144.795 49.0784 142.089 46.3721L133.244 37.5258C135.963 34.1698 139.033 31.0998 142.389 28.3803L151.236 37.2259C153.941 39.9316 158.05 40.5465 161.461 38.7556C163.717 37.5711 166.096 36.5861 168.532 35.8281C172.21 34.6849 174.681 31.3446 174.681 27.5174V15.002C178.966 14.5538 183.329 14.5538 187.615 15.002V27.518C187.615 31.3459 190.086 34.6856 193.763 35.8288C196.2 36.5867 198.579 37.5718 200.834 38.7563C204.245 40.5472 208.355 39.9323 211.059 37.2266L219.906 28.3816C223.262 31.1011 226.332 34.1704 229.052 37.5271L220.206 46.3734C220.206 46.3734 220.205 46.3734 220.205 46.3734C217.499 49.0798 216.885 53.1892 218.676 56.5984C219.862 58.8559 220.847 61.2355 221.604 63.6695C222.747 67.3478 226.087 69.8192 229.915 69.8192H242.431C242.655 71.9639 242.769 74.1347 242.769 76.2859C242.769 78.4371 242.655 80.608 242.431 82.7526H229.914C226.085 82.7526 222.746 85.224 221.604 88.901C220.846 91.337 219.861 93.7166 218.677 95.9721C216.885 99.382 217.499 103.491 220.205 106.198L229.051 115.045C226.331 118.401 223.262 121.471 219.906 124.19L211.06 115.344C208.354 112.636 204.245 112.022 200.834 113.813V113.813Z" class="xKsCInar_20"></path>
</mask>
<path d="M225.16 132.588C229.734 129.008 233.869 124.873 237.451 120.297C240.148 116.851 239.839 111.909 236.732 108.802L227.76 99.8315C228.936 97.5031 229.941 95.0763 230.755 92.5957H243.449C247.843 92.5957 251.556 89.321 252.084 84.9779C252.251 83.6057 252.376 82.221 252.463 80.8344H257.969C260.688 80.8344 262.891 78.6307 262.891 75.9125C262.891 73.1943 260.688 70.9906 257.969 70.9906H252.408C252.324 69.8534 252.222 68.7187 252.085 67.5926C251.557 63.2495 247.844 59.9748 243.45 59.9748H230.757C229.943 57.4955 228.938 55.0687 227.762 52.739L236.733 43.7674C239.84 40.6601 240.149 35.7185 237.452 32.2732C233.871 27.6985 229.736 23.5634 225.161 19.9823C221.716 17.2844 216.774 17.5922 213.667 20.7009L204.695 29.6718C202.368 28.4958 199.941 27.4911 197.46 26.6767V13.9835C197.46 9.58926 194.185 5.8762 189.843 5.34791C184.103 4.64835 178.198 4.64835 172.457 5.34791C168.114 5.87685 164.839 9.5886 164.839 13.9835V26.676C162.358 27.4904 159.931 28.4952 157.603 29.6718L148.632 20.7009C145.525 17.5929 140.583 17.2838 137.138 19.981C132.563 23.5621 128.428 27.6972 124.847 32.2719C122.149 35.7179 122.458 40.6594 125.566 43.7668L134.537 52.7377C133.361 55.0654 132.355 57.4935 131.541 59.9735H118.848C114.454 59.9735 110.742 63.2482 110.213 67.5906C110.076 68.7167 109.973 69.8514 109.889 70.9893H40.8662C37.7988 70.9893 34.9146 72.1837 32.7451 74.3533L7.36328 99.7364C5.19437 101.905 4 104.789 4 107.857V249.697C4 256.029 9.15222 261.181 15.4844 261.181H87.6981V266.125C87.6981 268.843 89.9018 271.047 92.62 271.047C95.3382 271.047 97.5419 268.843 97.5419 266.125V261.181H110.98C116.154 279.403 132.931 292.793 152.788 292.793C176.754 292.793 196.251 273.295 196.251 249.329C196.251 227.072 179.431 208.679 157.836 206.168V183.813C157.836 181.094 155.632 178.891 152.914 178.891C150.195 178.891 147.992 181.094 147.992 183.813V206.136C126.274 208.531 109.324 226.985 109.324 249.329C109.324 250.003 109.344 250.671 109.375 251.338H15.4844C14.5801 251.338 13.8438 250.602 13.8438 249.697V107.857C13.8438 107.425 14.019 107.002 14.3241 106.697L39.7059 81.3148C40.0163 81.005 40.4278 80.8344 40.8662 80.8344H109.831C109.919 82.2217 110.044 83.6064 110.211 84.9779C110.74 89.321 114.451 92.5957 118.846 92.5957H131.539C132.353 95.0763 133.358 97.5038 134.535 99.8315L125.564 108.802C122.456 111.909 122.147 116.851 124.844 120.297C128.426 124.873 132.561 129.008 137.135 132.588C140.354 135.107 144.877 135.002 147.991 132.445V160.843C147.991 163.561 150.195 165.765 152.913 165.765C155.631 165.765 157.835 163.561 157.835 160.843V123.011C160.092 124.138 162.439 125.106 164.836 125.893V138.586C164.836 142.98 168.111 146.693 172.454 147.222C175.325 147.571 178.251 147.748 181.147 147.748C184.043 147.748 186.968 147.571 189.839 147.221C194.183 146.693 197.457 142.98 197.457 138.586V125.893C199.938 125.079 202.365 124.074 204.693 122.898L213.664 131.869C216.773 134.976 221.714 135.285 225.16 132.588V132.588ZM152.788 215.708C171.326 215.708 186.407 230.79 186.407 249.328C186.407 267.866 171.325 282.948 152.788 282.948C134.25 282.948 119.168 267.866 119.168 249.328C119.168 230.79 134.249 215.708 152.788 215.708V215.708ZM200.834 113.813C198.578 114.997 196.199 115.982 193.763 116.74C190.085 117.884 187.615 121.223 187.615 125.051V137.567C183.329 138.015 178.969 138.015 174.681 137.567V125.051C174.681 121.223 172.211 117.884 168.532 116.739C166.096 115.982 163.717 114.997 161.461 113.812C158.051 112.021 153.942 112.636 151.236 115.341L142.389 124.188C139.033 121.468 135.964 118.399 133.244 115.042L142.089 106.196C144.796 103.489 145.41 99.3807 143.619 95.9708C142.435 93.7153 141.45 91.3364 140.692 88.899C139.548 85.2214 136.207 82.7506 132.381 82.7506H119.865C119.641 80.608 119.528 78.4371 119.528 76.284C119.528 74.1308 119.641 71.9606 119.865 69.8173H132.381C136.208 69.8173 139.548 67.3465 140.692 63.6689C141.45 61.2322 142.435 58.8526 143.618 56.5978C145.41 53.1872 144.795 49.0784 142.089 46.3721L133.244 37.5258C135.963 34.1698 139.033 31.0998 142.389 28.3803L151.236 37.2259C153.941 39.9316 158.05 40.5465 161.461 38.7556C163.717 37.5711 166.096 36.5861 168.532 35.8281C172.21 34.6849 174.681 31.3446 174.681 27.5174V15.002C178.966 14.5538 183.329 14.5538 187.615 15.002V27.518C187.615 31.3459 190.086 34.6856 193.763 35.8288C196.2 36.5867 198.579 37.5718 200.834 38.7563C204.245 40.5472 208.355 39.9323 211.059 37.2266L219.906 28.3816C223.262 31.1011 226.332 34.1704 229.052 37.5271L220.206 46.3734C220.206 46.3734 220.205 46.3734 220.205 46.3734C217.499 49.0798 216.885 53.1892 218.676 56.5984C219.862 58.8559 220.847 61.2355 221.604 63.6695C222.747 67.3478 226.087 69.8192 229.915 69.8192H242.431C242.655 71.9639 242.769 74.1347 242.769 76.2859C242.769 78.4371 242.655 80.608 242.431 82.7526H229.914C226.085 82.7526 222.746 85.224 221.604 88.901C220.846 91.337 219.861 93.7166 218.677 95.9721C216.885 99.382 217.499 103.491 220.205 106.198L229.051 115.045C226.331 118.401 223.262 121.471 219.906 124.19L211.06 115.344C208.354 112.636 204.245 112.022 200.834 113.813V113.813Z" stroke="white" stroke-width="2.66667" mask="url(#path-21-inside-1_1629_3742)" class="xKsCInar_21"></path>
<path d="M206.7 60.3132C208.848 59.3605 211.363 60.3287 212.316 62.4765C214.255 66.8478 215.239 71.4925 215.239 76.2846C215.239 95.0815 199.945 110.375 181.148 110.375C162.351 110.375 147.057 95.0816 147.057 76.2846C147.057 57.4877 162.351 42.1943 181.148 42.1943C185.307 42.1943 189.382 42.9428 193.263 44.4188L193.263 44.4188C195.46 45.2539 196.564 47.7117 195.728 49.9085C194.892 52.1048 192.434 53.2065 190.238 52.3732C187.327 51.2661 184.268 50.7047 181.148 50.7047C167.042 50.7047 155.568 62.1791 155.568 76.2846C155.568 90.3901 167.042 101.864 181.148 101.864C195.254 101.864 206.728 90.3901 206.728 76.2846C206.728 72.6907 205.991 69.205 204.537 65.9283C203.584 63.7803 204.552 61.2664 206.7 60.3132Z" stroke="white" stroke-width="1.33333" class="xKsCInar_22"></path>
<path d="M166.534 76.2846C166.534 68.2272 173.09 61.6711 181.147 61.6711C189.205 61.6711 195.761 68.2272 195.761 76.2846C195.761 84.342 189.205 90.898 181.147 90.898C173.09 90.898 166.534 84.342 166.534 76.2846ZM175.044 76.2846C175.044 79.6505 177.781 82.3876 181.147 82.3876C184.514 82.3876 187.25 79.6505 187.25 76.2846C187.25 72.9186 184.513 70.1815 181.147 70.1815C177.781 70.1815 175.044 72.9186 175.044 76.2846Z" stroke="white" stroke-width="1.33333" class="xKsCInar_23"></path>
<path d="M279.043 162.129L278.247 163.194H279.577H331.797C335.952 163.194 339.333 166.576 339.333 170.731V206.628C339.333 210.783 335.952 214.164 331.797 214.164H280.557H279.89V214.831V224.7V225.367H280.557H331.797C335.952 225.367 339.333 228.748 339.333 232.903V268.8C339.333 272.956 335.952 276.337 331.797 276.337H316.375C314.024 276.337 312.12 274.432 312.12 272.081C312.12 269.731 314.024 267.826 316.375 267.826H330.156H330.823V267.16V234.544V233.877H330.156H221.114H220.447V234.544V267.16V267.826H221.114H293.406C295.757 267.826 297.661 269.731 297.661 272.081C297.661 274.432 295.757 276.337 293.406 276.337H280.557H279.89V277.003V286.873V287.54H280.557H331.797C335.952 287.54 339.333 290.921 339.333 295.076V330.973C339.333 335.129 335.952 338.51 331.797 338.51H219.473C215.318 338.51 211.937 335.129 211.937 330.973V317.882V317.311L211.373 317.223C209.335 316.906 207.776 315.148 207.776 313.025C207.776 310.902 209.335 309.144 211.373 308.827L211.937 308.739V308.168V295.076C211.937 290.921 215.318 287.54 219.473 287.54H270.713H271.38V286.873V277.003V276.337H270.713H219.473C215.318 276.337 211.937 272.956 211.937 268.8V232.903C211.937 228.748 215.318 225.367 219.473 225.367H270.713H271.38V224.7V214.831V214.164H270.713H219.473C215.318 214.164 211.937 210.783 211.937 206.628V170.731C211.937 166.576 215.318 163.194 219.473 163.194H271.693H273.023L272.227 162.129C271.696 161.418 271.38 160.541 271.38 159.59V151.715C271.38 149.365 273.284 147.46 275.635 147.46C277.986 147.46 279.89 149.365 279.89 151.715V159.59C279.89 160.541 279.574 161.418 279.043 162.129ZM330.823 296.717V296.05H330.156H221.114H220.447V296.717V329.333V329.999H221.114H330.156H330.823V329.333V296.717ZM220.447 204.987V205.654H221.114H330.156H330.823V204.987V172.372V171.705H330.156H221.114H220.447V172.372V204.987Z" stroke="white" stroke-width="1.33333" class="xKsCInar_24"></path>
<path d="M239.545 184.424H311.726C314.076 184.424 315.981 186.329 315.981 188.679C315.981 191.029 314.076 192.935 311.726 192.935H239.545C237.194 192.935 235.29 191.029 235.29 188.679C235.29 186.329 237.194 184.424 239.545 184.424Z" stroke="white" stroke-width="1.33333" class="xKsCInar_25"></path>
<path d="M311.726 246.597C314.076 246.597 315.981 248.502 315.981 250.852C315.981 253.202 314.076 255.108 311.726 255.108H239.545C237.194 255.108 235.29 253.202 235.29 250.852C235.29 248.502 237.194 246.597 239.545 246.597H311.726Z" stroke="white" stroke-width="1.33333" class="xKsCInar_26"></path>
<path d="M311.726 317.28H239.545C237.194 317.28 235.29 315.375 235.29 313.025C235.29 310.675 237.194 308.77 239.545 308.77H311.726C314.076 308.77 315.981 310.675 315.981 313.025C315.981 315.375 314.076 317.28 311.726 317.28Z" stroke="white" stroke-width="1.33333" class="xKsCInar_27"></path>
</g>
<defs>
<linearGradient id="paint0_linear_1629_3742" x1="275.333" y1="172" x2="275.333" y2="205.333" gradientUnits="userSpaceOnUse">
<stop stop-color="#5FFF00"></stop>
<stop offset="0.0001" stop-color="#5FFF00" stop-opacity="0.9"></stop>
<stop offset="1" stop-color="#5FFF00" stop-opacity="0"></stop>
</linearGradient>
<linearGradient id="paint1_linear_1629_3742" x1="275.333" y1="233.333" x2="275.333" y2="266.667" gradientUnits="userSpaceOnUse">
<stop stop-color="#5FFF00"></stop>
<stop offset="0.0001" stop-color="#5FFF00" stop-opacity="0.9"></stop>
<stop offset="1" stop-color="#5FFF00" stop-opacity="0"></stop>
</linearGradient>
<linearGradient id="paint2_linear_1629_3742" x1="275.333" y1="296" x2="275.333" y2="329.333" gradientUnits="userSpaceOnUse">
<stop stop-color="#5FFF00"></stop>
<stop offset="0.0001" stop-color="#5FFF00" stop-opacity="0.9"></stop>
<stop offset="1" stop-color="#5FFF00" stop-opacity="0"></stop>
</linearGradient>
<linearGradient id="paint3_linear_1629_3742" x1="60.0007" y1="76" x2="60.0007" y2="210" gradientUnits="userSpaceOnUse">
<stop stop-color="#5FFF00"></stop>
<stop offset="0.0001" stop-color="#5FFF00" stop-opacity="0.9"></stop>
<stop offset="1" stop-color="#5FFF00" stop-opacity="0"></stop>
</linearGradient>
<linearGradient id="paint4_linear_1629_3742" x1="153.333" y1="214.667" x2="153.333" y2="284" gradientUnits="userSpaceOnUse">
<stop stop-color="#5FFF00"></stop>
<stop offset="0.0001" stop-color="#5FFF00" stop-opacity="0.9"></stop>
<stop offset="1" stop-color="#5FFF00" stop-opacity="0"></stop>
</linearGradient>
<clipPath id="clip0_1629_3742">
<path width="336" height="336" fill="white" transform="translate(4 4)" d="M0 0 L336 0 L336 336 L0 336 Z" class="xKsCInar_28"></path>
</clipPath>
</defs>
<style data-made-with="vivus-instant">.xKsCInar_0{stroke-dasharray:288 290;stroke-dashoffset:289;animation:xKsCInar_draw 2000ms linear 0ms forwards;}.xKsCInar_1{stroke-dasharray:289 291;stroke-dashoffset:290;animation:xKsCInar_draw 2000ms linear 35ms forwards;}.xKsCInar_2{stroke-dasharray:288 290;stroke-dashoffset:289;animation:xKsCInar_draw 2000ms linear 71ms forwards;}.xKsCInar_3{stroke-dasharray:219 221;stroke-dashoffset:220;animation:xKsCInar_draw 2000ms linear 107ms forwards;}.xKsCInar_4{stroke-dasharray:218 220;stroke-dashoffset:219;animation:xKsCInar_draw 2000ms linear 142ms forwards;}.xKsCInar_5{stroke-dasharray:43 45;stroke-dashoffset:44;animation:xKsCInar_draw 2000ms linear 178ms forwards;}.xKsCInar_6{stroke-dasharray:43 45;stroke-dashoffset:44;animation:xKsCInar_draw 2000ms linear 214ms forwards;}.xKsCInar_7{stroke-dasharray:43 45;stroke-dashoffset:44;animation:xKsCInar_draw 2000ms linear 250ms forwards;}.xKsCInar_8{stroke-dasharray:43 45;stroke-dashoffset:44;animation:xKsCInar_draw 2000ms linear 285ms forwards;}.xKsCInar_9{stroke-dasharray:43 45;stroke-dashoffset:44;animation:xKsCInar_draw 2000ms linear 321ms forwards;}.xKsCInar_10{stroke-dasharray:43 45;stroke-dashoffset:44;animation:xKsCInar_draw 2000ms linear 357ms forwards;}.xKsCInar_11{stroke-dasharray:43 45;stroke-dashoffset:44;animation:xKsCInar_draw 2000ms linear 392ms forwards;}.xKsCInar_12{stroke-dasharray:65 67;stroke-dashoffset:66;animation:xKsCInar_draw 2000ms linear 428ms forwards;}.xKsCInar_13{stroke-dasharray:43 45;stroke-dashoffset:44;animation:xKsCInar_draw 2000ms linear 464ms forwards;}.xKsCInar_14{stroke-dasharray:164 166;stroke-dashoffset:165;animation:xKsCInar_draw 2000ms linear 500ms forwards;}.xKsCInar_15{stroke-dasharray:164 166;stroke-dashoffset:165;animation:xKsCInar_draw 2000ms linear 535ms forwards;}.xKsCInar_16{stroke-dasharray:164 166;stroke-dashoffset:165;animation:xKsCInar_draw 2000ms linear 571ms forwards;}.xKsCInar_17{stroke-dasharray:164 166;stroke-dashoffset:165;animation:xKsCInar_draw 2000ms linear 607ms forwards;}.xKsCInar_18{stroke-dasharray:88 90;stroke-dashoffset:89;animation:xKsCInar_draw 2000ms linear 642ms forwards;}.xKsCInar_19{stroke-dasharray:124 126;stroke-dashoffset:125;animation:xKsCInar_draw 2000ms linear 678ms forwards;}.xKsCInar_20{stroke-dasharray:2488 2490;stroke-dashoffset:2489;animation:xKsCInar_draw 2000ms linear 714ms forwards;}.xKsCInar_21{stroke-dasharray:2488 2490;stroke-dashoffset:2489;animation:xKsCInar_draw 2000ms linear 750ms forwards;}.xKsCInar_22{stroke-dasharray:355 357;stroke-dashoffset:356;animation:xKsCInar_draw 2000ms linear 785ms forwards;}.xKsCInar_23{stroke-dasharray:131 133;stroke-dashoffset:132;animation:xKsCInar_draw 2000ms linear 821ms forwards;}.xKsCInar_24{stroke-dasharray:1926 1928;stroke-dashoffset:1927;animation:xKsCInar_draw 2000ms linear 857ms forwards;}.xKsCInar_25{stroke-dasharray:172 174;stroke-dashoffset:173;animation:xKsCInar_draw 2000ms linear 892ms forwards;}.xKsCInar_26{stroke-dasharray:172 174;stroke-dashoffset:173;animation:xKsCInar_draw 2000ms linear 928ms forwards;}.xKsCInar_27{stroke-dasharray:172 174;stroke-dashoffset:173;animation:xKsCInar_draw 2000ms linear 964ms forwards;}.xKsCInar_28{stroke-dasharray:1344 1346;stroke-dashoffset:1345;animation:xKsCInar_draw 2000ms linear 1000ms forwards;}@keyframes xKsCInar_draw{100%{stroke-dashoffset:0;}}@keyframes xKsCInar_fade{0%{stroke-opacity:1;}94.44444444444444%{stroke-opacity:1;}100%{stroke-opacity:0;}}</style></svg>
