<svg width="42" height="42" viewBox="0 0 42 42" fill="none" xmlns="http://www.w3.org/2000/svg">
<g clip-path="url(#clip0_274_119)">
<path d="M37.8984 33.1408C36.8625 33.1408 35.9158 33.5275 35.1931 34.1633L29.2257 29.6417C28.8644 29.368 28.3501 29.439 28.0764 29.8001C27.8029 30.1612 27.8737 30.6757 28.2349 30.9493L34.2003 35.4693C34.0563 35.7686 33.9475 36.088 33.8794 36.4219H14.2849C13.9414 34.4549 12.3866 32.9001 10.4197 32.5567V25.0498C12.7893 24.8016 14.9005 23.6722 16.4188 21.9961L22.3509 26.491C22.4991 26.6033 22.6731 26.6575 22.8456 26.6575C23.0936 26.6575 23.3388 26.5455 23.5001 26.3326C23.7737 25.9715 23.7028 25.457 23.3416 25.1834L17.4106 20.6894C18.3282 19.2353 18.86 17.5145 18.86 15.6717C18.86 14.7453 18.7251 13.85 18.475 13.0036L33.1804 7.23312C33.8807 8.37811 35.0516 9.20433 36.4218 9.44361V20.9118C34.9041 21.2814 33.7737 22.6515 33.7737 24.2814C33.7737 26.1939 35.3296 27.7498 37.2421 27.7498C39.1546 27.7498 40.7105 26.1939 40.7105 24.2814C40.7105 22.6515 39.5802 21.2814 38.0624 20.9118V9.44361C40.2961 9.05364 41.9999 7.10171 41.9999 4.75808C41.9999 2.13464 39.8655 0.000276312 37.2421 0.000276312C34.6187 0.000276312 32.4843 2.13464 32.4843 4.75808C32.4843 5.08276 32.5172 5.39989 32.5795 5.70652L17.8741 11.4771C16.3276 8.37672 13.1237 6.24178 9.43012 6.24178C8.00032 6.24178 6.64418 6.56219 5.42881 7.13411L1.53012 0.409119C1.30297 0.0171747 0.801188 -0.11629 0.408997 0.110854C0.0170527 0.33808 -0.116412 0.840029 0.110732 1.23197L4.01057 7.95901C1.58672 9.66731 7.22104e-05 12.4875 7.22104e-05 15.6717C7.22104e-05 20.6526 3.88187 24.7432 8.77904 25.0789V32.5568C6.81202 32.9002 5.2572 34.4551 4.91382 36.422H0.820465C0.367407 36.422 0.000154241 36.7893 0.000154241 37.2423C0.000154241 37.6954 0.367407 38.0626 0.820465 38.0626H4.91382C5.30387 40.2963 7.25572 42.0001 9.59935 42.0001C11.943 42.0001 13.8949 40.2963 14.2849 38.0626H33.8794C34.2605 39.9325 35.9176 41.3439 37.8984 41.3439C40.16 41.3439 42 39.5039 42 37.2423C42 34.9807 40.1601 33.1408 37.8984 33.1408ZM39.0701 24.2814C39.0701 25.2893 38.2501 26.1092 37.2423 26.1092C36.2344 26.1092 35.4145 25.2892 35.4145 24.2814C35.4145 23.2735 36.2344 22.4536 37.2423 22.4536C38.2501 22.4536 39.0701 23.2736 39.0701 24.2814ZM37.2422 1.64082C38.961 1.64082 40.3594 3.0392 40.3594 4.758C40.3594 6.4768 38.961 7.87518 37.2422 7.87518C35.5234 7.87518 34.125 6.4768 34.125 4.758C34.125 3.0392 35.5234 1.64082 37.2422 1.64082ZM1.64069 15.6717C1.64069 11.3767 5.13497 7.88232 9.43004 7.88232C13.7251 7.88232 17.2195 11.3766 17.2195 15.6717C17.2195 19.9668 13.7251 23.4612 9.43004 23.4612C5.13497 23.4611 1.64069 19.9668 1.64069 15.6717ZM9.59935 40.3595C7.88055 40.3595 6.48217 38.9611 6.48217 37.2423C6.48217 35.5235 7.88055 34.1251 9.59935 34.1251C11.3181 34.1251 12.7165 35.5235 12.7165 37.2423C12.7165 38.9612 11.3181 40.3595 9.59935 40.3595ZM37.8984 39.7032C36.5415 39.7032 35.4375 38.5993 35.4375 37.2423C35.4375 35.8854 36.5415 34.7814 37.8984 34.7814C39.2554 34.7814 40.3594 35.8854 40.3594 37.2423C40.3594 38.5993 39.2554 39.7032 37.8984 39.7032Z" fill="#5FFF00"/>
<path d="M14.2698 16.9805V14.8196C14.2698 13.9131 13.5345 13.1754 12.6292 13.1705V12.722C12.6292 10.958 11.194 9.52283 9.42993 9.52283C7.66585 9.52283 6.23071 10.958 6.23071 12.722V13.1705C5.32525 13.1754 4.59009 13.9131 4.59009 14.8196V16.9805C4.59009 19.6493 6.76129 21.8204 9.42993 21.8204C12.0986 21.8204 14.2698 19.6493 14.2698 16.9805ZM9.42993 11.1635C10.2894 11.1635 10.9885 11.8626 10.9885 12.722V13.1701H7.87134V12.722C7.87134 11.8627 8.57049 11.1635 9.42993 11.1635ZM6.23071 16.9805V14.8196C6.23071 14.8147 6.23473 14.8107 6.23957 14.8107H12.6203C12.6252 14.8107 12.6291 14.8147 12.6291 14.8196V16.9805C12.6291 18.7446 11.1939 20.1798 9.42985 20.1798C7.66585 20.1798 6.23071 18.7446 6.23071 16.9805Z" fill="#5FFF00"/>
<path d="M10.2502 17.7099V16.9481C10.2502 16.4951 9.88291 16.1278 9.42993 16.1278C8.97696 16.1278 8.60962 16.4951 8.60962 16.9481V17.7099C8.60962 18.1629 8.97696 18.5302 9.42993 18.5302C9.88291 18.5302 10.2502 18.1629 10.2502 17.7099Z" fill="#5FFF00"/>
<path d="M25.2081 27.4863C25.0555 27.6388 24.9678 27.8505 24.9678 28.0662C24.9678 28.282 25.0555 28.4936 25.2081 28.6462C25.3607 28.7988 25.5723 28.8865 25.7881 28.8865C26.0038 28.8865 26.2155 28.7988 26.368 28.6462C26.5205 28.4936 26.6084 28.282 26.6084 28.0662C26.6084 27.8505 26.5206 27.6388 26.368 27.4863C26.2155 27.3337 26.0038 27.2459 25.7881 27.2459C25.5723 27.2459 25.3608 27.3337 25.2081 27.4863Z" fill="#5FFF00"/>
</g>
<defs>
<clipPath id="clip0_274_119">
<rect width="42" height="42" fill="white"/>
</clipPath>
</defs>
</svg>
