<svg width="200" height="77" viewBox="0 0 200 77" fill="none" xmlns="http://www.w3.org/2000/svg">
<path d="M8.91338 55.4304C11.6668 56.6142 14.7561 57.2061 18.1849 57.2061C21.6137 57.2061 24.9589 56.5177 27.6029 55.141C30.3081 53.716 32.3361 51.8569 33.7128 49.5395C35.1377 47.2332 35.8372 44.7711 35.8372 42.1865C35.8372 39.6019 35.0765 36.3679 33.5439 34.4587C32.0707 32.4901 30.2599 31.054 28.0983 30.1245C25.985 29.1949 23.2446 28.2653 19.8529 27.3358C17.2924 26.6474 15.2886 26.0073 13.8154 25.4154C12.3422 24.8365 11.1102 24.0387 10.1324 23.0609C9.20282 22.0349 8.73155 20.7305 8.73155 19.1608C8.73155 16.8546 9.49226 15.0919 11.0007 13.8599C12.5221 12.6409 14.4907 12.0249 16.8916 12.0249C19.2925 12.0249 21.6841 12.6892 23.2909 14.0046C24.9088 15.3331 25.7902 16.9139 25.9349 18.7972H35.2064C34.8557 14.4741 33.0931 11.0935 29.9055 8.63138C26.7661 6.13214 22.7213 4.87602 17.76 4.87602C12.7986 4.87602 11.2159 5.45491 8.54787 6.65165C5.90391 7.8354 3.83884 9.52569 2.36565 11.7355C0.892451 13.9453 0.155848 16.528 0.155848 19.4633C0.155848 22.3985 0.892451 25.2095 2.36565 27.1187C3.83884 29.039 5.61261 30.4622 7.66655 31.3936C9.77986 32.2749 12.4962 33.1692 15.8396 34.0375C18.4836 34.7259 20.5486 35.366 22.0218 35.9579C23.5433 36.5368 24.7864 37.3828 25.7772 38.4571C26.8032 39.5314 27.3227 40.9322 27.3227 42.6466C27.3227 44.361 26.5138 46.6673 24.8847 48.0923C23.2668 49.469 21.0088 50.1573 18.1106 50.1573C15.2125 50.1573 13.1363 49.4579 11.5666 48.0329C10.0452 46.6079 9.18798 44.7971 8.98203 42.5873H0C0 45.5337 0.784838 48.1053 2.35451 50.3151C3.92419 52.5248 6.08574 54.2393 8.83731 55.4583H8.88555L8.90966 55.4341L8.91338 55.4304ZM52.9682 54.7662C56.0593 56.4806 59.5122 57.3508 63.3511 57.3508C67.1899 57.3508 70.7634 56.4806 73.951 54.7662C77.198 52.9906 79.7343 50.5154 81.6175 47.3297C83.4767 44.1421 84.4062 40.4721 84.4062 36.3679C84.4062 32.2638 83.5008 28.5808 81.6769 25.4062C79.8531 22.2315 77.3779 19.7676 74.2404 18.0532C71.1011 16.3388 67.5888 15.4686 63.7129 15.4686C59.8369 15.4686 56.3246 16.3388 53.1853 18.0532C50.0459 19.7676 47.5708 22.2297 45.7488 25.4062C43.9249 28.5937 43.0195 32.2638 43.0195 36.3679C43.0195 40.4721 43.9008 44.2163 45.6634 47.415C47.4391 50.5544 49.853 53.0165 52.9552 54.768H52.9682V54.7662ZM69.3885 48.5116C67.5294 49.5376 65.5126 50.0572 63.3511 50.0572C59.9705 50.0572 57.1336 48.8734 54.8867 46.5189C52.6769 44.1161 51.5785 40.7356 51.5785 36.3531C51.5785 31.9706 52.1221 30.9204 53.1964 28.9166C54.2707 26.8515 55.7198 25.306 57.5306 24.2688C59.3898 23.2427 61.4066 22.7232 63.5681 22.7232C65.7297 22.7232 67.7447 23.2427 69.6056 24.2688C71.4647 25.2948 72.9732 26.8534 74.0976 28.9166C75.2331 30.9204 75.7878 33.4085 75.7878 36.3531C75.7878 39.2976 75.209 41.7987 74.0122 43.8619C72.8285 45.927 71.2829 47.4726 69.3644 48.5097H69.3885V48.5116ZM117.368 17.3629C114.965 16.0827 112.187 15.4426 109.05 15.4426C105.912 15.4426 102.276 16.3239 99.3423 18.0866C96.4441 19.801 94.1378 22.239 92.4234 25.3783C90.7573 28.5177 89.9242 32.1264 89.9242 36.1954C89.9242 40.2643 90.7573 43.9232 92.4234 47.1571C94.1378 50.3447 96.4441 52.8551 99.3423 54.666C102.276 56.4416 105.524 57.31 109.05 57.31C112.575 57.31 114.892 56.6698 117.295 55.3896C119.746 54.0611 121.691 52.4432 123.114 50.5358V57.31C123.114 61.2342 122.064 64.2288 119.95 66.292C117.885 68.3571 115.158 69.3831 111.777 69.3831C108.397 69.3831 106.369 68.7189 104.268 67.4034C102.203 66.1232 100.864 64.4329 100.224 62.3196H91.9058C92.4012 66.7392 94.4663 70.2273 98.088 72.7748C101.723 75.3835 106.285 76.6749 111.779 76.6749C117.273 76.6749 119.434 75.8418 122.379 74.1757C125.374 72.5095 127.667 70.2032 129.237 67.2568C130.806 64.3587 131.591 61.0393 131.591 57.3211V16.0901H123.127V21.9811C121.75 20.1219 119.843 18.5764 117.381 17.3333L117.356 17.3574H117.369L117.368 17.3629ZM121.353 29.0743C122.537 31.1394 123.129 33.5663 123.129 36.3661C123.129 39.1659 122.537 41.6187 121.353 43.7191C120.217 45.7841 118.733 47.3538 116.861 48.4281C115.002 49.5024 112.985 50.046 110.824 50.046C108.662 50.046 106.695 49.5024 104.786 48.4281C102.927 47.2926 101.392 45.6747 100.222 43.5743C99.0862 41.461 98.5314 39.01 98.5314 36.2213C98.5314 33.4327 99.0862 31.0169 100.222 29.0131C101.405 26.948 102.927 25.4024 104.786 24.3653C106.645 23.291 108.662 22.7473 110.824 22.7473C112.985 22.7473 115 23.291 116.861 24.3653C118.72 25.4396 120.229 27.0092 121.353 29.0743ZM171.614 17.4464C169.115 16.118 166.265 15.4667 163.077 15.4667C159.89 15.4667 158.392 15.938 156.22 16.8675C154.106 17.7971 152.357 19.1015 150.991 20.7676V16.1198H142.601V56.6865H150.991V34.0134C150.991 30.3787 151.897 27.6141 153.721 25.6956C155.58 23.727 158.079 22.7492 161.229 22.7492C164.38 22.7492 166.844 23.74 168.666 25.6956C170.477 27.6159 171.395 30.3805 171.395 34.0134V56.6865H179.713V32.7684C179.713 29.0854 179.013 25.9461 177.589 23.3504C176.164 20.7416 174.184 18.786 171.623 17.4594L171.61 17.4464H171.614ZM190.871 9.20099C191.897 10.227 193.178 10.7465 194.699 10.7465C196.221 10.7465 197.428 10.227 198.454 9.20099C199.48 8.17494 200 6.89471 200 5.37327C200 3.85183 199.48 2.58459 198.454 1.54556C197.428 0.519516 196.161 0 194.699 0C193.237 0 191.91 0.519516 190.871 1.54556C189.845 2.5716 189.326 3.85183 189.326 5.37327C189.326 6.89471 189.845 8.16196 190.871 9.20099ZM198.803 56.6847V16.118H190.413V56.6847H198.803Z" fill="black"/>
</svg>
