<svg width="634" height="585" viewBox="0 0 634 585" fill="none" xmlns="http://www.w3.org/2000/svg">
<g clip-path="url(#clip0)">
<path d="M107.202 356.992L100.805 330.908L92.2559 304.691L81.7396 278.792L69.2265 253.574L64.989 246.46L54.9164 229.539L48.9779 221.108L39.105 207.086L21.8367 186.512" stroke="#5FFF00" stroke-width="0.739542" stroke-linecap="round" stroke-linejoin="round"/>
<path d="M150.569 141.511L168.37 159.534L185.031 179.731L200.207 201.769L213.666 225.242L225.373 249.817L235.054 275.065L242.597 300.513L248.063 325.805L251.294 350.491L252.322 374.119L251.294 396.387L248.188 416.909L243.167 435.354L236.43 451.513L228.08 465.12L218.348 476.014L207.491 484.112L195.673 489.274L191.628 490.405L176.808 494.546L157.276 488.135L142.855 472.316L136.658 450.47L140.925 429.045L148.431 425.466L155.28 419.964L161.351 412.65L163.592 408.715" stroke="#5FFF00" stroke-width="0.739542" stroke-linecap="round" stroke-linejoin="round"/>
<path d="M271.454 100.422L290.061 115.768L307.581 133.458L323.733 153.144L338.442 174.569L351.384 197.384L362.381 221.145L371.418 245.52L378.296 270.073L382.948 294.36L385.47 318.032L385.773 340.67L383.946 361.895L380.16 381.419L374.465 398.916L357.101 404.869L335.395 402.192L315.856 391.343L304.186 375.872L302.796 359.144L305.547 350.114L305.606 349.907L306.339 347.511L308.505 335.426L308.646 334.635L308.816 332.409L309.703 320.754L309.496 310.186L309.415 306.192L308.897 301.452L308.003 293.28L307.751 291.039L305.976 281.543L305.732 280.545L305.074 278.201L301.103 264.179L300.777 263.306L295.164 248.197L294.706 246.962L292.006 241.098L288.101 232.63L287.007 230.264L278.694 215.495L278.081 214.415L274.982 209.852L267.971 199.513L267.609 199.07L256.915 185.847L248.536 177.238L245.053 173.674L243.056 171.988L239.876 169.606L239.329 169.436L238.375 168.667L234.507 165.635L232.466 163.069L228.945 161.501L227.54 161.353L215.449 154.956L212.55 153.285L206.057 147.206L192.501 142.147L178.982 139.041L165.685 137.924L157.373 120.752L155.546 98.4698L161.055 77.7478L171.942 64.6579L191.88 66.0113L212.003 70.3154L232.214 77.526L252.138 87.6281L271.454 100.422ZM271.454 100.422L284.278 97.3309L295.312 106.442L295.704 106.767L302.5 112.381L306.25 116.174L307.537 117.476L307.899 117.846L314.192 124.206L319.643 129.723L328.562 140.498L333.08 146.045L335.38 148.958L340.72 156.354L343.508 160.451L347.967 167.366L348.862 168.297L349.838 169.725L351.214 171.374L362.44 191.926L372.912 214.948L374.391 218.557L380.263 234.664L381.432 238.576L387.984 262.286L392.377 285.663L394.699 308.374L394.891 330.087L394.499 334.406L394.344 336.136L394.204 337.638L393.775 342.393L393.405 346.431V346.468L393.042 350.387L391.06 360.334L390.913 361.089L390.905 361.111L389.33 369.009L387.17 375.524L385.189 381.515L383.798 385.701L381.202 390.123L374.465 398.916L369.629 408.841L369.333 410.253L367.048 414.143L349.838 420.082L341.06 432.898L330.936 443.074L319.872 450.588L307.514 455.225L294.691 457.044L276.742 452.245L263.061 437.387L257.536 417.175L260.095 403.065L261.374 395.958L271.469 383.097L273.747 380.198L281.756 378.697L289.307 375.428L290.978 374.245L291.104 374.156L296.318 370.459L298.048 369.068L298.84 367.796L302.796 359.144" stroke="#5FFF00" stroke-width="0.739542" stroke-linecap="round" stroke-linejoin="round"/>
<path d="M237.073 241.793L245.77 264.186L246.317 267.81L250.784 280.856L252.537 286.698L253.476 292.459L255.709 301.149L257.433 308.966L258.49 317.019L258.594 317.603L260.361 330.745L261.604 340.84L262.351 357.761L262.424 359.439L262.609 363.588L262.247 364.372L262.484 366.428L262.343 369.423L262.032 376.168L261.892 379.163L261.655 384.428L261.626 384.991L259.984 395.921L258.653 404.736L256.405 413.012L255.295 417.079L253.831 422.471L250.311 430.946L249.091 433.889L248.255 435.901L247.39 437.986L245.459 440.722L243.122 444.021L239.395 451.083L233.627 458.242L228.08 465.12L208.845 470.659L187.198 465.578L169.627 451.749L159.939 432.173L165.744 422.13L170.374 410.224L173.746 396.734L175.706 381.944L176.194 365.91L175.469 353.116L175.188 348.953L175.092 347.999" stroke="#5FFF00" stroke-width="0.739542" stroke-linecap="round" stroke-linejoin="round"/>
<path d="M335.506 148.907L338.109 152.109" stroke="#5FFF00" stroke-width="0.739542" stroke-linecap="round" stroke-linejoin="round"/>
<path d="M434.605 88.5675L430.33 84.9586L429.346 84.1303L417.528 74.1613L417.181 73.8654L406.679 66.7806L399.247 61.7591L398.744 61.4264L387.88 61.5373L373.962 71.5063L361.227 88.0647L352.471 107.611L350.526 124.206L354.564 131.276L355.629 133.14L359.718 135.972L361.279 137.052L367.439 141.312L374.864 147.709L378.74 151.044L383.362 155.858L384.175 156.702L386.601 159.231L389.359 162.115L392.894 166.567L393.456 167.277L399.092 174.377L405.962 184.826L407.877 187.74L410.207 192.007L414.6 200.076L414.681 200.216L415.598 201.895L421.197 214.608L422.084 216.619L422.72 218.483L426.159 228.467L427.305 231.802L428.178 235.174L429.931 242.03L431.232 247.096L432.667 255.674L433.754 262.219L434.323 269.674L434.886 277.084L434.849 279.525L434.76 285.153L434.671 291.35L433.096 304.736L432.578 306.947L432.201 308.567L432.179 308.677L430.189 317.19L427.498 324.592L427.409 324.836L426.972 326.042L426.684 326.833L426.041 328.098L425.22 328.786L422.964 331.803L416.449 337.941L414.526 339.139L410.776 341.484L409.386 342.223L401.436 345.322L399.898 347.637L392.236 359.196L390.994 361.074L390.631 365.105L390.402 367.56L389.182 381.027L396.422 400.891L410.873 414.58L427.971 418.344L440.854 414.092L452.893 407.147L463.868 397.496L473.571 385.338L481.78 370.806L496.837 364.779L497.784 363.899L498.656 362.235L504.683 350.743L504.876 350.38L508.677 339.62L511.036 334.502L514.076 320.303L515.533 316.768L516.021 313.144L516.405 310.304L516.472 309.809L516.79 307.42L516.871 306.843L518.143 297.392L518.742 276.722L517.344 255.053L513.824 232.682L508.174 210.067L500.512 187.518L490.802 165.362L479.192 144.092L467.063 125.774L465.887 123.992L462.996 120.39L462.093 119.266L451.888 106.531L451.562 106.124L451.34 105.851L450.926 105.34L450.475 104.874L439.167 93.2562L438.347 92.4058L434.605 88.5675ZM434.605 88.5675L424.872 89.5881L406.864 74.3683L395.83 66.9138L387.88 61.5373L368.238 51.3612L365.598 50.3702L348.3 43.914L343.471 42.8047L328.17 39.2771L316.049 49.7416L307.758 67.7346L305.125 89.381L309.186 108.136L317.431 117.491L317.905 118.364L318.422 118.615L330.921 121.714L338.471 124.665L343.382 126.587L353.898 132.215" stroke="#5FFF00" stroke-width="0.739542" stroke-linecap="round" stroke-linejoin="round"/>
<path d="M284.278 97.3309L275.189 91.2963L271.765 89.0259L271.292 88.7079L265.279 84.7217L257.573 80.8096L245.607 74.7305L232.214 77.526L218.644 90.15L207.846 109.948L203.298 131.069L206.057 147.206L213.829 151.273L219.405 154.194L228.945 161.501L232.355 164.651L234.507 165.635L238.5 168.408L239.876 169.606L244.942 174.192" stroke="#5FFF00" stroke-width="0.739542" stroke-linecap="round" stroke-linejoin="round"/>
<path d="M24.8245 533.639L6.92017 519.661L-2.75305 498.2L-1.6733 475.88L5.67772 471.828L12.023 461.252L16.549 453.716" stroke="#5FFF00" stroke-width="0.739542" stroke-linecap="round" stroke-linejoin="round"/>
<path d="M9.87852 457.48L5.69271 464.151L-1.67312 475.88L-9.57883 477.847L-17.9135 477.685L-26.6179 475.459L-31.7947 472.937" stroke="#5FFF00" stroke-width="0.739542" stroke-linecap="round" stroke-linejoin="round"/>
<path d="M349.838 420.082L328.651 416.65L309.851 404.477L298.899 387.535L304.187 375.872L308.128 362.738L306.339 347.51" stroke="#5FFF00" stroke-width="0.739542" stroke-linecap="round" stroke-linejoin="round"/>
<path d="M245.607 74.731L244.838 74.4499L240.423 72.8747L226.505 67.8902L226.327 67.831L225.632 67.587L223.177 67.0545L205.672 63.2976L191.88 66.0118L180.047 79.0721L172.755 99.7349L172.474 121.936L178.982 139.042L183.36 142.14L190.807 147.413L191.229 147.517L203.143 150.312L212.55 153.285L215.449 154.957" stroke="#5FFF00" stroke-width="0.739542" stroke-linecap="round" stroke-linejoin="round"/>
<path d="M154.082 312.368L149.8 291.661L146.967 270.325L146.257 257.509" stroke="#5FFF00" stroke-width="0.739542" stroke-linecap="round" stroke-linejoin="round"/>
<path d="M107.202 356.992L88.3438 365.704L65.1222 371.22L42.6549 372.322L27.9233 368.521L24.8394 361.2" stroke="#5FFF00" stroke-width="0.739542" stroke-linecap="round" stroke-linejoin="round"/>
<path d="M85.2079 513.072L66.5789 522.124L45.0064 520.016L25.1276 507.141L13.1396 486.988L12.2225 465.815L17.9022 457.821" stroke="#5FFF00" stroke-width="0.739542" stroke-linecap="round" stroke-linejoin="round"/>
<path d="M33.4179 538.941L13.4429 536.108L1.50667 535.606L-10.8067 532.248L-23.2458 526.066L-23.4825 525.844L-33.1778 516.385L-36.8608 512.798L-37.7556 508.635" stroke="#5FFF00" stroke-width="0.739542" stroke-linecap="round" stroke-linejoin="round"/>
<path d="M164.361 496.735L145.584 490.227L132.317 474.283L127.443 452.289L132.805 430.746L142.73 419.941L146.383 415.97L153.919 414.313" stroke="#5FFF00" stroke-width="0.739542" stroke-linecap="round" stroke-linejoin="round"/>
<path d="M218.348 476.014L199.253 481.449L178.265 475.755L161.655 460.994L153.017 440.36L155.28 419.964" stroke="#5FFF00" stroke-width="0.739542" stroke-linecap="round" stroke-linejoin="round"/>
<path d="M281.756 378.697L278.828 382.595L270.02 394.338L267.298 415.438L274.072 435.568L288.885 450.411L307.514 455.225L319.665 450.536L336.534 444.465L347.886 437.054L358.143 426.93L367.047 414.143L369.333 410.253L370.205 409.551L374.554 403.22L375.789 401.423L376.639 400.188L381.202 390.123L383.798 385.701" stroke="#5FFF00" stroke-width="0.739542" stroke-linecap="round" stroke-linejoin="round"/>
<path d="M295.312 106.442L289.366 87.8573L289.95 66.1L296.725 48.033L308.195 37.5611L328.48 39.018L340.513 39.7649" stroke="#5FFF00" stroke-width="0.739542" stroke-linecap="round" stroke-linejoin="round"/>
<path d="M384.671 223.712L388.361 242.829L393.442 261.192L399.913 278.652L407.626 294.892L416.383 309.765L426.144 323.113L427.498 324.592" stroke="#5FFF00" stroke-width="0.739542" stroke-linecap="round" stroke-linejoin="round"/>
<path d="M157.38 410.949L156.3 410.852L152.654 409.839L149.704 408.959L141.147 405.439L133.138 400.181L125.35 393.303L121.645 394.176" stroke="#5FFF00" stroke-width="0.739542" stroke-linecap="round" stroke-linejoin="round"/>
<path d="M149.319 409.055L130.52 413.87L121.638 422.485L121.017 423.084" stroke="#5FFF00" stroke-width="0.739542" stroke-linecap="round" stroke-linejoin="round"/>
<path d="M271.454 100.423L256.323 112.218L242.176 130.189L233.442 149.01L232.466 163.069L235.446 165.584L238.463 168.49L239.329 169.437" stroke="#5FFF00" stroke-width="0.739542" stroke-linecap="round" stroke-linejoin="round"/>
<path d="M160.893 410.904L160.826 410.986L155.598 417.102L148.432 425.466L145.207 446.513L152.677 467.908L168.229 483.328L188.507 489.466L207.491 484.111" stroke="#5FFF00" stroke-width="0.739542" stroke-linecap="round" stroke-linejoin="round"/>
<path d="M289.307 375.428L285.875 380.161L278.169 390.789L276.498 411.496L284.463 431.264L300.378 445.833L319.872 450.588L324.346 449.087L336.534 444.465" stroke="#5FFF00" stroke-width="0.739542" stroke-linecap="round" stroke-linejoin="round"/>
<path d="M159.65 306.096L164.879 323.978L159.806 332.246" stroke="#5FFF00" stroke-width="0.739542" stroke-linecap="round" stroke-linejoin="round"/>
<path d="M17.3255 448.362L-1.0595 445.396L-20.6204 453.657L-30.8039 465.704L-31.5212 466.547" stroke="#5FFF00" stroke-width="0.739542" stroke-linecap="round" stroke-linejoin="round"/>
<path d="M296.318 370.458L292.324 376.064L285.683 385.397L284.958 405.461L294.032 424.578L310.99 438.622L330.936 443.074L347.886 437.054" stroke="#5FFF00" stroke-width="0.739542" stroke-linecap="round" stroke-linejoin="round"/>
<path d="M409.253 342.437L407.271 345.632L399.565 358.005L398.937 377.64L407.545 397.134L423.142 410.512L440.854 414.092L456.887 407.192L468.897 400.225L479.835 390.589L489.545 378.438L489.834 377.935L489.871 377.876L490.943 375.976L491.061 375.768L491.498 374.992L496.837 364.779L497.784 363.899L498.427 362.25L504.321 347.148L508.677 339.62L511.036 334.502" stroke="#5FFF00" stroke-width="0.739542" stroke-linecap="round" stroke-linejoin="round"/>
<path d="M9.17587 442.867L-8.73584 440.109L-16.3087 433.172L-23.5119 424.719L-30.2935 414.831L-32.4973 410.911L-35.7291 405.173" stroke="#5FFF00" stroke-width="0.739542" stroke-linecap="round" stroke-linejoin="round"/>
<path d="M226.505 67.8899L242.309 59.2668L259.703 52.8402L277.91 49.0907L296.724 48.0332L316.049 49.7415L335.506 54.2675L354.852 61.5446L373.962 71.5063L392.429 84.0489L410.007 98.9655L426.581 116.078L441.763 135.099L455.364 155.725L467.307 177.66L477.298 200.497L485.241 223.859L491.128 247.421L494.818 270.709L496.312 293.354L495.706 315.06L492.991 335.382L488.288 354.041L481.78 370.806" stroke="#5FFF00" stroke-width="0.739542" stroke-linecap="round" stroke-linejoin="round"/>
<path d="M282.318 373.964L265.36 379.962L261.892 379.163" stroke="#5FFF00" stroke-width="0.739542" stroke-linecap="round" stroke-linejoin="round"/>
<path d="M-0.105567 294.279L-0.512329 292.881L10.5364 285.352L29.4317 274.244L50.5531 262.811L69.2265 253.574L79.6171 249.448" stroke="#5FFF00" stroke-width="0.739542" stroke-linecap="round" stroke-linejoin="round"/>
<path d="M164.879 323.979L171.276 340.781L166.846 350.95" stroke="#5FFF00" stroke-width="0.739542" stroke-linecap="round" stroke-linejoin="round"/>
<path d="M290.653 374.238L290.01 374.46L283.102 376.9L273.747 380.198L265.361 379.962L261.656 384.429" stroke="#5FFF00" stroke-width="0.739542" stroke-linecap="round" stroke-linejoin="round"/>
<path d="M115.892 454.951L107.291 470.467L88.6544 479.341L65.8026 479.134L43.6977 469.853L29.1878 454.005L26.1853 436.589" stroke="#5FFF00" stroke-width="0.739542" stroke-linecap="round" stroke-linejoin="round"/>
<path d="M416.449 337.941L415.857 338.939L414.215 341.727L407.456 353.161L407.929 372.226L417.847 391.062L434.568 403.878L452.894 407.147L468.897 400.225" stroke="#5FFF00" stroke-width="0.739542" stroke-linecap="round" stroke-linejoin="round"/>
<path d="M531.041 309.306L529.673 326.841L537.867 345.092L552.895 358.656L571.479 364.602L588.104 360.823" stroke="#5FFF00" stroke-width="0.739542" stroke-linecap="round" stroke-linejoin="round"/>
<path d="M409.601 339.886L403.366 342.408L393.405 346.431" stroke="#5FFF00" stroke-width="0.739542" stroke-linecap="round" stroke-linejoin="round"/>
<path d="M420.886 338.2L423.268 355.402L435.448 372.078L454.143 383.068L473.571 385.338L489.545 378.438" stroke="#5FFF00" stroke-width="0.739542" stroke-linecap="round" stroke-linejoin="round"/>
<path d="M393.457 167.277L392.503 184.538L392.946 202.272L394.854 219.814L398.145 236.845L402.657 253.152L408.41 268.653L415.266 283.059L423.016 296.194L431.662 307.982L429.413 314.165L426.145 323.113L426.973 326.042" stroke="#5FFF00" stroke-width="0.739542" stroke-linecap="round" stroke-linejoin="round"/>
<path d="M422.964 331.803L420.583 335.988L414.6 346.512L416.101 364.757L427.217 382.646L444.973 394.664L463.868 397.496L479.835 390.589" stroke="#5FFF00" stroke-width="0.739542" stroke-linecap="round" stroke-linejoin="round"/>
<path d="M148.979 406.112L144.763 404.537L133.138 400.181L121.69 402.977" stroke="#5FFF00" stroke-width="0.739542" stroke-linecap="round" stroke-linejoin="round"/>
<path d="M119.648 436.81L111.292 451.246L92.6182 460.032L69.4853 460.72L46.9219 453.132L31.924 439.303L28.5369 423.609" stroke="#5FFF00" stroke-width="0.739542" stroke-linecap="round" stroke-linejoin="round"/>
<path d="M281.579 372.699L276.114 371.213L265.494 368.329L262.343 369.423" stroke="#5FFF00" stroke-width="0.739542" stroke-linecap="round" stroke-linejoin="round"/>
<path d="M537.453 301.755L536.957 318.38L546.283 335.478L562.339 347.999L581.67 353.22L598.465 349.256L607.939 337.704L616.473 324.26" stroke="#5FFF00" stroke-width="0.739542" stroke-linecap="round" stroke-linejoin="round"/>
<path d="M-51.6959 127.039L-39.2568 116.101L-22.9647 105.525L-5.57809 97.664L12.8809 92.6278L32.1164 90.6162L46.8777 89.3294L66.3794 90.2538" stroke="#5FFF00" stroke-width="0.739542" stroke-linecap="round" stroke-linejoin="round"/>
<path d="M526.877 307.465L526.596 307.775H526.293L524.57 308.204L518.957 310.016L516.021 313.144" stroke="#5FFF00" stroke-width="0.739542" stroke-linecap="round" stroke-linejoin="round"/>
<path d="M267.609 199.07L266.98 215.333L267.875 236.306L270.33 256.969L274.361 277.158L279.863 296.497L286.667 314.816L294.742 331.936L303.913 347.555L305.547 350.114" stroke="#5FFF00" stroke-width="0.739542" stroke-linecap="round" stroke-linejoin="round"/>
<path d="M426.108 328.416L429.236 344.368L442.341 359.55L461.857 369.253L481.78 370.806" stroke="#5FFF00" stroke-width="0.739542" stroke-linecap="round" stroke-linejoin="round"/>
<path d="M140.57 398.761L125.35 393.303L121.172 388.644" stroke="#5FFF00" stroke-width="0.739542" stroke-linecap="round" stroke-linejoin="round"/>
<path d="M434.76 285.153L432.904 286.905L423.016 296.194L416.383 309.765L418.631 319.785" stroke="#5FFF00" stroke-width="0.739542" stroke-linecap="round" stroke-linejoin="round"/>
<path d="M258.653 404.737L248.189 416.909L228.561 423.018L205.391 420.866L185.705 411.407L173.746 396.735L173.399 381.175" stroke="#5FFF00" stroke-width="0.739542" stroke-linecap="round" stroke-linejoin="round"/>
<path d="M-41.9785 239.478L-43.82 237.933L-48.1685 234.301L-54.1366 229.31L-58.8549 226.152L-60.9478 224.747L-61.0217 224.695L-66.6349 220.938L-79.3993 214.415L-80.4717 213.653L-82.1356 213.424L-92.1934 209.8L-96.823 208.839L-102.443 207.67L-104.433 207.256L-104.78 207.582L-112.242 208.75L-123.409 211.893L-133.97 216.878L-140.7 221.47L-141.24 221.833L-143.85 223.615L-161.792 223.297L-180.347 212.892L-195.478 194.588L-202.341 173.711L-199.279 156.561L-183.911 145.571L-171.103 135.365L-153.834 126.713L-135.501 121.048L-116.406 118.452L-96.5863 118.977L-76.3524 122.719L-60.6667 124.006L-51.6961 127.038L-49.6549 127.733L-49.5144 127.778L-48.9228 127.977L-40.9358 130.677L-35.0712 133.546L-32.0465 135.025L-21.2935 140.283L-17.1595 142.968L-7.13126 149.469L-2.00624 152.796L5.18209 158.654L14.8479 166.53L16.5267 167.905" stroke="#5FFF00" stroke-width="0.739542" stroke-linecap="round" stroke-linejoin="round"/>
<path d="M71.6744 236.136L87.2344 237.474L99.9176 235.64L102.328 231.018" stroke="#5FFF00" stroke-width="0.739542" stroke-linecap="round" stroke-linejoin="round"/>
<path d="M-34.2576 244.064L-28.5039 229.613L-14.3121 211.938L3.80667 196.43L21.8367 186.512" stroke="#5FFF00" stroke-width="0.739542" stroke-linecap="round" stroke-linejoin="round"/>
<path d="M542.903 292.703L543.192 308.204L536.957 318.38L529.673 326.841L521.397 333.6L512.36 338.503L509.099 339.487" stroke="#5FFF00" stroke-width="0.739542" stroke-linecap="round" stroke-linejoin="round"/>
<path d="M374.554 403.22L384.782 414.787L397.998 416.014L414.497 419.867" stroke="#5FFF00" stroke-width="0.739542" stroke-linecap="round" stroke-linejoin="round"/>
<path d="M399.247 61.7588L399.232 61.6775L399.203 61.4187L397.539 46.6574L401.525 27.666L410.784 15.7889L422.343 14.1323L441.667 13.4667" stroke="#5FFF00" stroke-width="0.739542" stroke-linecap="round" stroke-linejoin="round"/>
<path d="M497.081 365.141L505.49 377.765L520.828 384.894L534.524 383.748L550.691 380.28L563.995 376.434" stroke="#5FFF00" stroke-width="0.739542" stroke-linecap="round" stroke-linejoin="round"/>
<path d="M430.19 317.19L433.932 331.67L429.236 344.368L423.268 355.402L416.101 364.757L407.93 372.226L398.937 377.64L389.182 381.027L385.189 381.515" stroke="#5FFF00" stroke-width="0.739542" stroke-linecap="round" stroke-linejoin="round"/>
<path d="M483.999 21.5281L496.571 13.652L511.902 6.30831" stroke="#5FFF00" stroke-width="0.739542" stroke-linecap="round" stroke-linejoin="round"/>
<path d="M509.639 133.539L512.427 136.497" stroke="#5FFF00" stroke-width="0.739542" stroke-linecap="round" stroke-linejoin="round"/>
<path d="M353.381 42.7234L366.271 36.3929L383.48 30.7798L401.525 27.6663L420.087 27.2152L438.938 29.3969L457.974 34.2261L476.788 41.7102L495.158 51.7089L512.952 64.148L529.769 78.8279L545.403 95.5341L559.75 114.037L572.455 134.02L583.371 155.156L592.453 177.165L599.478 199.595L604.374 222.114L607.206 244.411L607.865 266.021L606.4 286.639L602.969 305.986L597.577 323.668L590.419 339.48L581.67 353.22L571.479 364.602L560.075 373.558L542.252 367.079L528.356 352.725L521.397 333.6L523.749 315.363L531.041 309.306L537.46 301.179L538.806 299.492" stroke="#5FFF00" stroke-width="0.739542" stroke-linecap="round" stroke-linejoin="round"/>
<path d="M391.896 19.1613L383.48 30.7795L381.084 49.3716L381.764 52.6403" stroke="#5FFF00" stroke-width="0.739542" stroke-linecap="round" stroke-linejoin="round"/>
<path d="M86.2286 94.166L71.985 95.6969L57.7414 108.484L47.9277 129.161L45.2949 151.266L50.3904 169.991L61.8828 179.502" stroke="#5FFF00" stroke-width="0.739542" stroke-linecap="round" stroke-linejoin="round"/>
<path d="M104.333 202.361L106.832 188.265L117.282 170.597L133.463 153.203L150.569 141.511" stroke="#5FFF00" stroke-width="0.739542" stroke-linecap="round" stroke-linejoin="round"/>
<path d="M223.177 67.054L234.677 58.5493L251.649 49.2976L269.739 42.6047L288.686 38.6778L308.195 37.5611L320.996 38.0787L328.48 39.018L340.55 39.7723L346.045 41.0369L350.563 42.0797L351.34 42.2571L353.381 42.7231L360.236 44.3057" stroke="#5FFF00" stroke-width="0.739542" stroke-linecap="round" stroke-linejoin="round"/>
<path d="M502.354 125.803L498.62 121.691L503.449 109.252L514.542 94.0843L529.769 78.8276L544.589 68.2299L554.61 65.2052" stroke="#5FFF00" stroke-width="0.739542" stroke-linecap="round" stroke-linejoin="round"/>
<path d="M547.341 282.32L548.235 296.556L559.343 310.622L577.055 320.377L597.578 323.668L614.691 319.238L623.513 308.744" stroke="#5FFF00" stroke-width="0.739542" stroke-linecap="round" stroke-linejoin="round"/>
<path d="M309.496 310.186L299.313 320.059L294.743 331.936" stroke="#5FFF00" stroke-width="0.739542" stroke-linecap="round" stroke-linejoin="round"/>
<path d="M84.6163 189.404L86.9015 190.587" stroke="#5FFF00" stroke-width="0.739542" stroke-linecap="round" stroke-linejoin="round"/>
<path d="M95.9093 97.5382L107.956 90.3646L124.803 83.5165L142.523 79.2789L161.056 77.748L180.047 79.0718L199.275 83.2059L218.644 90.1502L237.739 99.8751L256.323 112.218L274.279 127.046L291.193 144.144L306.864 163.239L321.181 184.079L333.805 206.273L344.58 229.473L353.492 253.338L360.303 277.402L364.962 301.282L367.543 324.644L367.957 346.993L366.264 368.026L362.633 387.453L357.101 404.87L349.838 420.082" stroke="#5FFF00" stroke-width="0.739542" stroke-linecap="round" stroke-linejoin="round"/>
<path d="M3.95443 437.942L1.83195 435.76L-16.309 433.172L-31.9355 439.11" stroke="#5FFF00" stroke-width="0.739542" stroke-linecap="round" stroke-linejoin="round"/>
<path d="M353.898 132.215L355.629 133.14" stroke="#5FFF00" stroke-width="0.739542" stroke-linecap="round" stroke-linejoin="round"/>
<path d="M240.423 72.8744L242.309 59.2669L251.649 49.2978" stroke="#5FFF00" stroke-width="0.739542" stroke-linecap="round" stroke-linejoin="round"/>
<path d="M308.646 334.635L310.68 348.176L323.252 359.965L343.782 367.419L366.264 368.026L383.946 361.895L391.83 351.926L393.043 350.388" stroke="#5FFF00" stroke-width="0.739542" stroke-linecap="round" stroke-linejoin="round"/>
<path d="M486.365 4.17805L485.153 6.57417" stroke="#5FFF00" stroke-width="0.739542" stroke-linecap="round" stroke-linejoin="round"/>
<path d="M74.4477 184.131L67.2372 177.231L64.205 175.146L61.0398 157.138L65.6767 135.699L77.1618 115.502L92.1893 102.848L106.159 101.11" stroke="#5FFF00" stroke-width="0.739542" stroke-linecap="round" stroke-linejoin="round"/>
<path d="M373.866 25.1517L366.271 36.3928L365.79 46.3766" stroke="#5FFF00" stroke-width="0.739542" stroke-linecap="round" stroke-linejoin="round"/>
<path d="M427.971 418.344L414.497 419.868L400.667 418.61L400.445 418.559L392.466 416.636L384.782 414.787L371.389 411L370.205 409.551" stroke="#5FFF00" stroke-width="0.739542" stroke-linecap="round" stroke-linejoin="round"/>
<path d="M295.704 106.768L309.186 108.136L323.03 111.538L336.874 116.921L350.526 124.206L356.598 128.399L363.712 133.317L376.336 144.174L383.894 152.057L388.25 156.598L393.671 163.431L396.932 167.55L399.173 170.368L408.706 184.885L409.031 185.381L410.089 187.318L416.9 199.839L417.728 201.355L423.408 214.29L425.02 217.965L428.452 227.964L430.9 235.093L435.315 252.398L438.14 269.504L439.382 286.306L439.094 302.458L437.26 317.604L433.932 331.67L447.776 345.115L467.965 353.323L488.288 354.041L504.321 347.148L506.03 340.418L509.077 328.46L511.835 308.063L512.478 286.291L511.014 263.513L507.316 240.033L501.393 216.286L493.384 192.68L483.252 169.54L471.138 147.317L457.301 126.38L441.793 107.004L426.943 91.7252L424.872 89.588" stroke="#5FFF00" stroke-width="0.739542" stroke-linecap="round" stroke-linejoin="round"/>
<path d="M-10.585 275.191L-1.35547 265.281L16.1421 251.821L36.3907 238.961L54.9163 229.539L65.9651 226.566" stroke="#5FFF00" stroke-width="0.739542" stroke-linecap="round" stroke-linejoin="round"/>
<path d="M119.73 371.775L111.388 382.439L92.5666 391.121L69.1823 395.285L46.3822 394.006L31.2364 387.49L27.7975 377.928" stroke="#5FFF00" stroke-width="0.739542" stroke-linecap="round" stroke-linejoin="round"/>
<path d="M433.096 304.736L437.26 317.604L451.651 329.111L472.359 335.619L492.992 335.382L509.077 328.46L514.076 320.303L515.533 316.768" stroke="#5FFF00" stroke-width="0.739542" stroke-linecap="round" stroke-linejoin="round"/>
<path d="M203.143 150.312L192.501 142.147L187.834 125.382L190.23 103.558L199.275 83.2057L212.003 70.3154L225.632 67.5865" stroke="#5FFF00" stroke-width="0.739542" stroke-linecap="round" stroke-linejoin="round"/>
<path d="M484.361 8.12744L496.571 13.6518L508.7 27.0079L511.976 34.0484" stroke="#5FFF00" stroke-width="0.739542" stroke-linecap="round" stroke-linejoin="round"/>
<path d="M294.691 457.044L281.423 456.068L279.87 455.646L270.641 453.169L264.103 451.409L251.243 447.903L245.607 440.9" stroke="#5FFF00" stroke-width="0.739542" stroke-linecap="round" stroke-linejoin="round"/>
<path d="M108.252 207.664L95.3027 210.178L76.1116 206.821L56.5951 198.782L41.0277 187.829L34.3348 177.224L34.6824 176.448" stroke="#5FFF00" stroke-width="0.739542" stroke-linecap="round" stroke-linejoin="round"/>
<path d="M477.143 107.071L470.48 118.305L467.063 125.774" stroke="#5FFF00" stroke-width="0.739542" stroke-linecap="round" stroke-linejoin="round"/>
<path d="M346.045 41.0369L356.761 33.671L373.866 25.1515L391.896 19.1612L410.784 15.7889L430.234 15.1899L441.667 13.4667L461.206 15.5301L463.839 16.1735L469.356 17.512L474.902 18.858L480.338 20.1818L480.841 20.3075L483.999 21.5278L500.283 27.8213L504.122 29.8624L511.976 34.0482L519.171 37.8864L524.333 41.4288L531.832 46.576L537.379 50.3847L554.61 65.2051L570.555 82.0001L585.109 100.555L597.999 120.626L609.033 141.77L618.181 163.697L625.236 186.091L630.154 208.469L632.972 230.53L624.6 238.339L625.244 260.452L623.735 281.499L620.2 301.215L614.691 319.238L607.376 335.308L598.465 349.256L588.104 360.822L576.523 369.911L563.995 376.434L547.681 379.984L530.664 373.136L517.981 358.241L512.36 338.503L515.799 319.763L523.749 315.363L530.146 308.034L531.137 306.91L531.241 306.784L534.288 303.293L537.46 301.178L538.806 299.492L542.903 292.703L547.341 282.32L550.572 270.864L552.569 258.366L553.301 245.054L552.68 231.247L551.94 223.023L550.698 217.018L548.561 206.975L547.57 203.366L543.628 191.031L537.076 175.36L529.237 160.288L521.264 147.79L520.125 146.192L512.427 136.497L509.816 133.25L502.354 125.803L498.619 121.691L491.564 116.418L486.476 112.861L480.138 108.431L477.594 106.346L472.062 104.009L468.261 101.931L458.27 97.9077L456.118 97.0424L443.812 93.8328L437.578 88.2566L434.486 85.4907L430.034 68.6144L431.624 48.4545L438.938 29.3965L449.935 17.3493L461.206 15.5301" stroke="#5FFF00" stroke-width="0.739542" stroke-linecap="round" stroke-linejoin="round"/>
<path d="M-32.0464 135.025L-20.1546 129.849L-3.97338 125.685L12.8586 124.184L30.1935 125.323L47.9277 129.161L65.6767 135.698L83.2852 144.854L100.627 156.546L117.282 170.597L133.108 186.83L147.98 205.045L161.514 224.872L173.598 246.068L184.166 268.321L192.915 291.15L199.807 314.283L204.844 337.349L207.876 359.839L208.926 381.5L208.105 402L205.391 420.866L200.895 437.935L194.793 452.955L187.198 465.579L178.265 475.755L168.229 483.328L157.276 488.135L145.584 490.228L133.411 489.555L120.98 486.116L110.338 471.036" stroke="#5FFF00" stroke-width="0.739542" stroke-linecap="round" stroke-linejoin="round"/>
<path d="M116.646 214.97L120.898 202.723L133.108 186.83L150.687 170.775L168.369 159.534L180.897 156.228" stroke="#5FFF00" stroke-width="0.739542" stroke-linecap="round" stroke-linejoin="round"/>
<path d="M302.5 112.381L290.061 115.768L274.279 127.046L258.586 143.811L247.87 161.057L245.001 173.933L248.536 177.239" stroke="#5FFF00" stroke-width="0.739542" stroke-linecap="round" stroke-linejoin="round"/>
<path d="M550.572 270.865L551.948 283.674L563.677 295.891L581.995 303.922L602.969 305.986L620.2 301.215L628.808 291.32" stroke="#5FFF00" stroke-width="0.739542" stroke-linecap="round" stroke-linejoin="round"/>
<path d="M330.921 121.714L323.03 111.538L320.974 93.2118L325.678 71.9796L335.506 54.2675L348.3 43.9139L360.236 44.3059L365.79 46.3766L377.165 50.6216L379.664 51.5534" stroke="#5FFF00" stroke-width="0.739542" stroke-linecap="round" stroke-linejoin="round"/>
<path d="M319.643 129.723L307.581 133.458L291.193 144.144L274.058 159.497L261.456 174.924L256.915 185.847" stroke="#5FFF00" stroke-width="0.739542" stroke-linecap="round" stroke-linejoin="round"/>
<path d="M273.91 371.99L262.032 376.168" stroke="#5FFF00" stroke-width="0.739542" stroke-linecap="round" stroke-linejoin="round"/>
<path d="M226.327 67.8307L234.677 58.5494" stroke="#5FFF00" stroke-width="0.739542" stroke-linecap="round" stroke-linejoin="round"/>
<path d="M59.361 217.211L71.2528 220.953L90.7027 223.46L104.177 221.138L106.292 215.214" stroke="#5FFF00" stroke-width="0.739542" stroke-linecap="round" stroke-linejoin="round"/>
<path d="M335.38 148.958L323.732 153.144L306.863 163.239L288.434 177.068L274.124 190.476L267.971 199.513" stroke="#5FFF00" stroke-width="0.739542" stroke-linecap="round" stroke-linejoin="round"/>
<path d="M184.684 160.355L190.119 149.269L191.229 147.516" stroke="#5FFF00" stroke-width="0.739542" stroke-linecap="round" stroke-linejoin="round"/>
<path d="M152.654 409.839L149.704 408.959L141.147 405.439L122.333 410.165L121.667 410.771" stroke="#5FFF00" stroke-width="0.739542" stroke-linecap="round" stroke-linejoin="round"/>
<path d="M5.18215 158.654L-0.815552 147.901L-3.97339 125.685L1.01112 105.141L12.8808 92.6276" stroke="#5FFF00" stroke-width="0.739542" stroke-linecap="round" stroke-linejoin="round"/>
<path d="M108.474 206.598L104.273 202.701L103.807 201.917L100.428 199.062L98.1426 197.132L91.4054 191.452L85.3263 188.198L77.9383 182.341L67.2371 177.231L64.205 175.146L50.3904 169.991L36.5535 166.907L29.55 147.775L30.1935 125.323L38.3728 104.445L51.8399 91.6365L66.3793 90.2535L86.2286 94.1657L90.0076 95.4821L93.942 96.8576L95.9092 97.538L106.159 101.11L107.668 101.872L114.797 105.436L116.261 106.168L124.507 110.295L125.779 110.931L142.471 121.854L142.641 121.965L142.722 122.017L144.985 123.496L162.764 138.124L163.474 138.708" stroke="#5FFF00" stroke-width="0.739542" stroke-linecap="round" stroke-linejoin="round"/>
<path d="M132.517 389.849L120.943 385.974" stroke="#5FFF00" stroke-width="0.739542" stroke-linecap="round" stroke-linejoin="round"/>
<path d="M306.021 281.551L317.861 284.125L337.887 282.66L360.303 277.402L378.296 270.073L387.984 262.286" stroke="#5FFF00" stroke-width="0.739542" stroke-linecap="round" stroke-linejoin="round"/>
<path d="M90.0076 95.4823L99.3776 87.9316L116.047 77.9995L133.833 70.7594L152.491 66.2852L166.432 63.5119L185.815 61.9219L205.672 63.2974" stroke="#5FFF00" stroke-width="0.739542" stroke-linecap="round" stroke-linejoin="round"/>
<path d="M434.671 291.35L439.094 302.458L453.818 311.806L474.85 316.413L495.705 315.06L511.835 308.064L512.604 306.769L518.143 297.392" stroke="#5FFF00" stroke-width="0.739542" stroke-linecap="round" stroke-linejoin="round"/>
<path d="M309.703 320.754L311.804 332.52L324.531 342.186L345.261 347.651L367.957 346.993L385.773 340.67L392.355 333.038L394.891 330.087" stroke="#5FFF00" stroke-width="0.739542" stroke-linecap="round" stroke-linejoin="round"/>
<path d="M109.687 322.943L100.805 330.908L81.9394 339.716L59.0358 346.697L37.1379 350.299L22.4285 349.263L20.5278 344.264" stroke="#5FFF00" stroke-width="0.739542" stroke-linecap="round" stroke-linejoin="round"/>
<path d="M24.8245 533.638L35.4369 528.247L45.0066 520.016L53.3856 508.938L60.3965 495.241L65.8025 479.134L69.4854 460.72L71.3639 440.419L71.2826 418.529L69.1823 395.285L65.1222 371.22L59.0357 346.697L50.9451 322.018L41.0723 297.747L29.4319 274.244L16.1423 251.821L1.52893 230.951L-14.3121 211.938L-31.1958 195.01L-48.7377 180.492L-66.8122 168.556L-85.212 159.349L-103.553 152.967L-121.701 149.454L-139.494 148.855L-156.57 151.066L-172.848 156.006L-188.201 163.638L-202.341 173.711L-215.26 186.039L-226.856 200.541L-236.944 216.848L-245.574 234.745L-252.681 254.099L-258.169 274.496L-262.147 295.691L-264.573 317.559" stroke="#5FFF00" stroke-width="0.739542" stroke-linecap="round" stroke-linejoin="round"/>
<path d="M244.838 74.4496L255.924 70.3895L272.638 67.0024L289.95 66.1002L307.758 67.7346L325.678 71.9796L343.552 78.7759L361.227 88.0646L378.311 99.742L394.618 113.645L410.015 129.619L424.133 147.354L436.823 166.634L447.99 187.171L457.353 208.543L464.822 230.471L470.391 252.635L473.904 274.525L475.361 295.891L474.851 316.413L472.358 335.619L467.965 353.324L461.857 369.253L454.143 383.068L444.973 394.664L434.568 403.879L423.142 410.512L410.873 414.58L397.997 416.015L384.737 402.244L381.358 390.648" stroke="#5FFF00" stroke-width="0.739542" stroke-linecap="round" stroke-linejoin="round"/>
<path d="M509.994 132.962L516.147 122.904L528.859 109.452L545.403 95.5339L560.815 85.4392L570.555 82.0003" stroke="#5FFF00" stroke-width="0.739542" stroke-linecap="round" stroke-linejoin="round"/>
<path d="M128.198 229.066L134.107 218.912L147.981 205.045L166.846 190.476L185.032 179.731L197.16 175.804" stroke="#5FFF00" stroke-width="0.739542" stroke-linecap="round" stroke-linejoin="round"/>
<path d="M548.723 206.99L560.342 207.952L578.571 205.311L599.478 199.595L616.687 192.458L625.236 186.091" stroke="#5FFF00" stroke-width="0.739542" stroke-linecap="round" stroke-linejoin="round"/>
<path d="M343.382 126.587L340.328 122.047L336.874 116.921L336.808 99.3056L343.552 78.7759L354.852 61.5446L368.238 51.3611L379.671 51.5534L381.764 52.6405L398.744 61.4263" stroke="#5FFF00" stroke-width="0.739542" stroke-linecap="round" stroke-linejoin="round"/>
<path d="M1.18878 435.671L-6.39153 426.937L-23.5119 424.719L-32.9485 428.047" stroke="#5FFF00" stroke-width="0.739542" stroke-linecap="round" stroke-linejoin="round"/>
<path d="M107.668 101.872L107.956 90.3645L116.047 77.9994" stroke="#5FFF00" stroke-width="0.739542" stroke-linecap="round" stroke-linejoin="round"/>
<path d="M429.931 242.03L418.978 245.262L402.656 253.153L392.88 261.687L393.656 267.019" stroke="#5FFF00" stroke-width="0.739542" stroke-linecap="round" stroke-linejoin="round"/>
<path d="M101.574 298.095L92.2559 304.691L73.405 313.581L50.9451 322.019L29.8386 328.15L16.6599 329.991" stroke="#5FFF00" stroke-width="0.739542" stroke-linecap="round" stroke-linejoin="round"/>
<path d="M357.626 143.7L355.91 147.235L354.549 149.898L350.955 159.674L348.943 168.039" stroke="#5FFF00" stroke-width="0.739542" stroke-linecap="round" stroke-linejoin="round"/>
<path d="M552.569 258.366L554.255 269.607L566.413 279.783L585.139 285.914L606.4 286.639L623.735 281.499L632.188 272.299" stroke="#5FFF00" stroke-width="0.739542" stroke-linecap="round" stroke-linejoin="round"/>
<path d="M191.488 168.386L201.627 173.378L220.027 178.111L234.034 177.305L239.247 171.063" stroke="#5FFF00" stroke-width="0.739542" stroke-linecap="round" stroke-linejoin="round"/>
<path d="M480.841 20.3079L469.792 22.275L457.974 34.226L448.989 52.9734L445.409 72.6822L447.99 89.0705L461.31 94.4913L474.363 101.709L478.23 105.244L486.972 110.606L498.864 121.048L507.435 130.226L509.994 132.962L514.172 138.354L520.125 146.193L521.264 147.79" stroke="#5FFF00" stroke-width="0.739542" stroke-linecap="round" stroke-linejoin="round"/>
<path d="M333.191 146.067L344.011 148.678L355.666 147.265L357.626 143.7L361.279 137.052" stroke="#5FFF00" stroke-width="0.739542" stroke-linecap="round" stroke-linejoin="round"/>
<path d="M520.192 146.119L527.817 138.013L542.016 126.491L559.75 114.037L575.658 104.497L585.109 100.556" stroke="#5FFF00" stroke-width="0.739542" stroke-linecap="round" stroke-linejoin="round"/>
<path d="M301.103 264.179L312.196 264.283L331.527 260.334L353.492 253.338L371.418 245.521L381.432 238.576" stroke="#5FFF00" stroke-width="0.739542" stroke-linecap="round" stroke-linejoin="round"/>
<path d="M543.628 191.031L554.551 189.604L572.085 184.634L592.453 177.165L609.447 169.414L618.181 163.697" stroke="#5FFF00" stroke-width="0.739542" stroke-linecap="round" stroke-linejoin="round"/>
<path d="M630.155 208.47L621.709 215.54L604.374 222.114L583.134 226.13L564.446 226.485L551.941 223.024L550.698 217.019" stroke="#5FFF00" stroke-width="0.739542" stroke-linecap="round" stroke-linejoin="round"/>
<path d="M504.684 350.742L506.94 361.488L518.358 376.678L534.524 383.748L547.681 379.984L560.076 373.557L576.523 369.911" stroke="#5FFF00" stroke-width="0.739542" stroke-linecap="round" stroke-linejoin="round"/>
<path d="M384.671 223.711L394.854 219.814L412.093 215.924L421.197 214.608" stroke="#5FFF00" stroke-width="0.739542" stroke-linecap="round" stroke-linejoin="round"/>
<path d="M223.347 214.46L225.322 203.803L229.116 190.203L234.033 177.305L238.33 168.749" stroke="#5FFF00" stroke-width="0.739542" stroke-linecap="round" stroke-linejoin="round"/>
<path d="M227.54 161.353L219.405 154.194L218.533 138.967L225.211 118.859L237.739 99.8751L252.138 87.6283L265.279 84.7219" stroke="#5FFF00" stroke-width="0.739542" stroke-linecap="round" stroke-linejoin="round"/>
<path d="M138.714 244.374L146.131 236.513L161.514 224.872L181.556 211.967L200.207 201.769L211.98 197.199L213.282 197.864L214.458 199.129L217.416 204.232L222.674 213.291L223.347 214.46L224.101 216.989L225.092 219.932L236.452 243.679L245.866 268.106L253.188 292.674L258.468 317.034L261.604 340.84L251.294 350.491L231.482 357.605L207.876 359.839L187.672 356.725L175.573 349.189L175.232 348.982" stroke="#5FFF00" stroke-width="0.739542" stroke-linecap="round" stroke-linejoin="round"/>
<path d="M17.2812 450.677L14.7519 450.514L14.0642 450.824L-4.81634 459.329L-12.6851 457.421L-20.6204 453.657L-28.5261 448.088L-31.6765 445.137" stroke="#5FFF00" stroke-width="0.739542" stroke-linecap="round" stroke-linejoin="round"/>
<path d="M99.0669 198.737L97.1515 196.918L91.4053 191.453L92.0635 175.767L100.627 156.546L115.278 137.984L131.718 125.877L144.985 123.496" stroke="#5FFF00" stroke-width="0.739542" stroke-linecap="round" stroke-linejoin="round"/>
<path d="M382.526 204.025L392.946 202.272L410.414 200.497L414.681 200.216" stroke="#5FFF00" stroke-width="0.739542" stroke-linecap="round" stroke-linejoin="round"/>
<path d="M68.7386 231.21L71.2531 220.953L76.1119 206.82L82.1539 193.612L84.6166 189.404" stroke="#5FFF00" stroke-width="0.739542" stroke-linecap="round" stroke-linejoin="round"/>
<path d="M257.573 80.8097L255.924 70.3896L259.703 52.8402L269.738 42.605" stroke="#5FFF00" stroke-width="0.739542" stroke-linecap="round" stroke-linejoin="round"/>
<path d="M298.07 369.482L292.339 378.298L292.45 397.474L302.53 415.644L320.464 428.882L341.06 432.898L358.143 426.93" stroke="#5FFF00" stroke-width="0.739542" stroke-linecap="round" stroke-linejoin="round"/>
<path d="M272.749 367.064L262.573 364.454" stroke="#5FFF00" stroke-width="0.739542" stroke-linecap="round" stroke-linejoin="round"/>
<path d="M93.942 96.8501L99.3777 87.9312" stroke="#5FFF00" stroke-width="0.739542" stroke-linecap="round" stroke-linejoin="round"/>
<path d="M294.705 246.963L304.844 244.626L323.237 238.199L344.58 229.472L362.381 221.145L372.771 215.029" stroke="#5FFF00" stroke-width="0.739542" stroke-linecap="round" stroke-linejoin="round"/>
<path d="M458.27 97.9079L452.058 106.243L451.888 106.531" stroke="#5FFF00" stroke-width="0.739542" stroke-linecap="round" stroke-linejoin="round"/>
<path d="M53.2596 208.566L56.595 198.781L63.3174 183.961L65.2032 180.729" stroke="#5FFF00" stroke-width="0.739542" stroke-linecap="round" stroke-linejoin="round"/>
<path d="M278.081 214.415L285.742 207.478L301.613 196.274L321.181 184.079L338.442 174.569L349.639 169.806" stroke="#5FFF00" stroke-width="0.739542" stroke-linecap="round" stroke-linejoin="round"/>
<path d="M417.181 73.8654L406.865 74.3683L392.429 84.0489L378.311 99.742L367.595 118.016L363.712 133.317L367.44 141.312" stroke="#5FFF00" stroke-width="0.739542" stroke-linecap="round" stroke-linejoin="round"/>
<path d="M148.143 260.8L156.907 255.371L173.598 246.068L194.653 234.886L213.667 225.242L225.092 219.933L226.579 220.029" stroke="#5FFF00" stroke-width="0.739542" stroke-linecap="round" stroke-linejoin="round"/>
<path d="M609.033 141.77L600.099 146.821L583.371 155.156L563.706 164.333L547.089 171.581L537.076 175.36" stroke="#5FFF00" stroke-width="0.739542" stroke-linecap="round" stroke-linejoin="round"/>
<path d="M434.886 277.084L439.382 286.306L454.21 293.339L475.361 295.891L496.312 293.354L512.478 286.292L518.742 276.722" stroke="#5FFF00" stroke-width="0.739542" stroke-linecap="round" stroke-linejoin="round"/>
<path d="M597.999 120.626L588.814 125.086L572.455 134.02L553.656 144.861L538.141 154.29L529.237 160.288" stroke="#5FFF00" stroke-width="0.739542" stroke-linecap="round" stroke-linejoin="round"/>
<path d="M468.261 101.931L461.31 94.4915L460.585 78.8576L466.139 59.8957L476.788 41.7104L489.449 29.959L500.283 27.8218" stroke="#5FFF00" stroke-width="0.739542" stroke-linecap="round" stroke-linejoin="round"/>
<path d="M356.761 33.6712L351.34 42.2573" stroke="#5FFF00" stroke-width="0.739542" stroke-linecap="round" stroke-linejoin="round"/>
<path d="M287.007 230.264L296 225.582L313.246 216.738L333.805 206.273L351.384 197.384L362.174 192L362.706 191.852" stroke="#5FFF00" stroke-width="0.739542" stroke-linecap="round" stroke-linejoin="round"/>
<path d="M410.777 341.483L409.386 342.223L401.436 345.322L393.405 346.468" stroke="#5FFF00" stroke-width="0.739542" stroke-linecap="round" stroke-linejoin="round"/>
<path d="M309.415 306.193L310.103 309.602L311.404 316.073L324.058 323.483L344.787 326.737L367.543 324.644L385.47 318.033L394.699 308.374" stroke="#5FFF00" stroke-width="0.739542" stroke-linecap="round" stroke-linejoin="round"/>
<path d="M98.8451 291.379L98.1721 281.462L98.2387 264.312L99.6216 247.473L101.611 235.404L102.336 231.011L104.177 221.13L106.292 215.214L108.622 207.589L108.659 206.791" stroke="#5FFF00" stroke-width="0.739542" stroke-linecap="round" stroke-linejoin="round"/>
<path d="M463.839 16.1737L472.263 10.9377L481.152 6.67797L486.366 4.17831L498.05 0.369673L511.902 6.3082L523.846 19.827L531.441 38.1011L531.833 46.5763" stroke="#5FFF00" stroke-width="0.739542" stroke-linecap="round" stroke-linejoin="round"/>
<path d="M553.301 245.054L555.143 254.661L567.508 262.67L586.433 266.767L607.865 266.02L625.244 260.452L633.63 251.947" stroke="#5FFF00" stroke-width="0.739542" stroke-linecap="round" stroke-linejoin="round"/>
<path d="M292.339 378.298L285.683 385.398L278.169 390.789L270.02 394.339L261.374 395.958L259.984 395.921" stroke="#5FFF00" stroke-width="0.739542" stroke-linecap="round" stroke-linejoin="round"/>
<path d="M155.309 413.633L154.096 414.106L149.341 419.498L140.925 429.045L132.805 430.746L124.33 430.502L120.373 429.496" stroke="#5FFF00" stroke-width="0.739542" stroke-linecap="round" stroke-linejoin="round"/>
<path d="M432.667 255.674L424.059 258.877L408.41 268.653L399.913 278.652L400.682 285.944" stroke="#5FFF00" stroke-width="0.739542" stroke-linecap="round" stroke-linejoin="round"/>
<path d="M338.472 124.665L333.184 132.134L328.599 140.424" stroke="#5FFF00" stroke-width="0.739542" stroke-linecap="round" stroke-linejoin="round"/>
<path d="M175.151 348.938L171.276 340.781" stroke="#5FFF00" stroke-width="0.739542" stroke-linecap="round" stroke-linejoin="round"/>
<path d="M490.803 165.362L483.252 169.54L467.307 177.66L447.99 187.171L429.561 195.986L417.728 201.355L415.599 201.895" stroke="#5FFF00" stroke-width="0.739542" stroke-linecap="round" stroke-linejoin="round"/>
<path d="M433.754 262.219L438.14 269.504L452.842 274.133L473.904 274.525L494.818 270.709L511.014 263.514L517.345 255.053" stroke="#5FFF00" stroke-width="0.739542" stroke-linecap="round" stroke-linejoin="round"/>
<path d="M251.243 447.903L243.574 444.235" stroke="#5FFF00" stroke-width="0.739542" stroke-linecap="round" stroke-linejoin="round"/>
<path d="M410.207 192.007L410.414 200.497L412.093 215.924L414.999 230.922L418.978 245.261L424.059 258.876L430.116 271.552L434.849 279.524" stroke="#5FFF00" stroke-width="0.739542" stroke-linecap="round" stroke-linejoin="round"/>
<path d="M270.33 256.968L277.637 252.908L292.857 248.612L295.164 248.197" stroke="#5FFF00" stroke-width="0.739542" stroke-linecap="round" stroke-linejoin="round"/>
<path d="M57.1276 178.459L63.3175 183.961L82.1537 193.612L95.9535 196.651" stroke="#5FFF00" stroke-width="0.739542" stroke-linecap="round" stroke-linejoin="round"/>
<path d="M524.57 308.204L516.472 309.809" stroke="#5FFF00" stroke-width="0.739542" stroke-linecap="round" stroke-linejoin="round"/>
<path d="M88.0701 266.442L96.2124 265.872L98.2388 264.312" stroke="#5FFF00" stroke-width="0.739542" stroke-linecap="round" stroke-linejoin="round"/>
<path d="M14.848 166.53L22.9756 165.894L36.5536 166.907L47.0847 175.027L49.3107 176.75" stroke="#5FFF00" stroke-width="0.739542" stroke-linecap="round" stroke-linejoin="round"/>
<path d="M552.68 231.247L554.521 239.145L566.857 244.862L585.782 246.77L607.206 244.411L624.6 238.339" stroke="#5FFF00" stroke-width="0.739542" stroke-linecap="round" stroke-linejoin="round"/>
<path d="M406.68 66.7804L414.785 66.6768L430.034 68.6144L445.41 72.6819L460.585 78.8571L475.457 87.0956L489.856 97.2791L503.449 109.252L516.147 122.904L527.817 138.013L538.141 154.29L547.089 171.581L554.551 189.604L560.342 207.952L564.446 226.484L566.857 244.862L567.508 262.67L566.413 279.783L563.677 295.891L559.343 310.622L553.486 323.897L546.283 335.478L537.867 345.092L528.357 352.724L517.981 358.241L506.939 361.488L498.657 362.235" stroke="#5FFF00" stroke-width="0.739542" stroke-linecap="round" stroke-linejoin="round"/>
<path d="M307.751 291.04L308.209 293.184L309.452 298.96L321.802 303.974L342.295 304.913L364.962 301.282L382.948 294.36L392.377 285.663" stroke="#5FFF00" stroke-width="0.739542" stroke-linecap="round" stroke-linejoin="round"/>
<path d="M417.529 74.1611L417.499 74.0797L417.418 73.8505L414.785 66.6769L414.43 46.3543L420.087 27.2149L430.234 15.19L449.935 17.3494L469.792 22.2748L489.449 29.9586L508.588 40.2678L515.947 45.3559L527.092 53.0693L544.589 68.2299L560.815 85.4391L575.658 104.497L588.814 125.086L600.099 146.821L609.447 169.414L616.687 192.458L621.709 215.539L624.6 238.339" stroke="#5FFF00" stroke-width="0.739542" stroke-linecap="round" stroke-linejoin="round"/>
<path d="M217.416 204.232L225.322 203.803L229.707 199.78" stroke="#5FFF00" stroke-width="0.739542" stroke-linecap="round" stroke-linejoin="round"/>
<path d="M14.3377 450.699L6.65389 448.931L-1.05953 445.396L-8.73598 440.109L-28.5261 448.088L-31.4177 451.194" stroke="#5FFF00" stroke-width="0.739542" stroke-linecap="round" stroke-linejoin="round"/>
<path d="M267.875 236.306L275.492 234.353L288.101 232.63" stroke="#5FFF00" stroke-width="0.739542" stroke-linecap="round" stroke-linejoin="round"/>
<path d="M524.333 41.429L531.44 38.1011" stroke="#5FFF00" stroke-width="0.739542" stroke-linecap="round" stroke-linejoin="round"/>
<path d="M266.98 215.333L274.753 215.48L278.694 215.495" stroke="#5FFF00" stroke-width="0.739542" stroke-linecap="round" stroke-linejoin="round"/>
<path d="M462.996 120.39L470.48 118.304" stroke="#5FFF00" stroke-width="0.739542" stroke-linecap="round" stroke-linejoin="round"/>
<path d="M292.006 241.098L292.857 248.612L295.97 264.608L300.274 279.939L305.584 294.382L308.897 301.452" stroke="#5FFF00" stroke-width="0.739542" stroke-linecap="round" stroke-linejoin="round"/>
<path d="M384.175 156.701L383.11 164.185L382.016 184.131L382.526 204.024L381.824 205.252L384.138 226.477" stroke="#5FFF00" stroke-width="0.739542" stroke-linecap="round" stroke-linejoin="round"/>
<path d="M207.787 189.567L215.168 191.024L229.116 190.203L233.886 185.004" stroke="#5FFF00" stroke-width="0.739542" stroke-linecap="round" stroke-linejoin="round"/>
<path d="M472.063 104.009L467.566 110.014L462.094 119.266" stroke="#5FFF00" stroke-width="0.739542" stroke-linecap="round" stroke-linejoin="round"/>
<path d="M491.564 116.419L486.972 110.606L489.856 97.2792L499.181 80.5878L512.952 64.1478L527.092 53.0694L537.379 50.3849" stroke="#5FFF00" stroke-width="0.739542" stroke-linecap="round" stroke-linejoin="round"/>
<path d="M394.204 337.638L401.296 339.413" stroke="#5FFF00" stroke-width="0.739542" stroke-linecap="round" stroke-linejoin="round"/>
<path d="M378.74 151.044L376.336 144.174L382.068 130.418L394.618 113.645L410.008 98.9654L424.872 89.588" stroke="#5FFF00" stroke-width="0.739542" stroke-linecap="round" stroke-linejoin="round"/>
<path d="M149.8 291.661L155.738 287.46L159.591 286.225" stroke="#5FFF00" stroke-width="0.739542" stroke-linecap="round" stroke-linejoin="round"/>
<path d="M472.262 10.938L469.356 17.5125" stroke="#5FFF00" stroke-width="0.739542" stroke-linecap="round" stroke-linejoin="round"/>
<path d="M171.505 146.784L172.541 146.718L178.627 146.333" stroke="#5FFF00" stroke-width="0.739542" stroke-linecap="round" stroke-linejoin="round"/>
<path d="M84.3058 258.884L84.8752 251.947L87.227 237.474L90.7028 223.46L95.3028 210.178L100.154 199.647" stroke="#5FFF00" stroke-width="0.739542" stroke-linecap="round" stroke-linejoin="round"/>
<path d="M124.507 110.295L122.695 103.58L124.803 83.5166L133.833 70.7595" stroke="#5FFF00" stroke-width="0.739542" stroke-linecap="round" stroke-linejoin="round"/>
<path d="M116.261 106.169L122.695 103.58L138.743 99.7937L155.546 98.4699L172.755 99.7345L190.23 103.558L207.846 109.948L225.211 118.859L242.176 130.189L258.586 143.811L274.057 159.497L288.434 177.068L301.613 196.274L313.246 216.737L323.237 238.199L331.527 260.333L337.887 282.66L342.295 304.913L344.787 326.737L345.26 347.651L343.781 367.419L340.476 385.738L335.395 402.192L328.65 416.65L320.464 428.882L310.99 438.622L300.378 445.833L288.885 450.411L276.742 452.245L264.103 451.409L253.439 438.97L251.546 436.766L250.311 430.946" stroke="#5FFF00" stroke-width="0.739542" stroke-linecap="round" stroke-linejoin="round"/>
<path d="M213.363 197.569L215.168 191.024L220.027 178.111L226.009 166.072L228.583 162.071" stroke="#5FFF00" stroke-width="0.739542" stroke-linecap="round" stroke-linejoin="round"/>
<path d="M431.232 247.096L435.315 252.398L449.654 254.521L470.391 252.635L491.128 247.421L507.317 240.033L513.824 232.682" stroke="#5FFF00" stroke-width="0.739542" stroke-linecap="round" stroke-linejoin="round"/>
<path d="M343.767 160.422L350.364 159.734L353.211 154.224" stroke="#5FFF00" stroke-width="0.739542" stroke-linecap="round" stroke-linejoin="round"/>
<path d="M383.362 155.858L382.43 162.381L381.261 183.813L382.171 204.639L384.671 223.711L384.138 226.477L388.132 247.118L392.88 261.687L393.656 267.019L398.567 280.242L400.682 285.944L406.081 297.289L409.068 303.582L414.718 313.159L418.631 319.785L425.22 328.786" stroke="#5FFF00" stroke-width="0.739542" stroke-linecap="round" stroke-linejoin="round"/>
<path d="M165.567 303.242L159.65 306.104" stroke="#5FFF00" stroke-width="0.739542" stroke-linecap="round" stroke-linejoin="round"/>
<path d="M32.2347 183.428L34.335 177.224" stroke="#5FFF00" stroke-width="0.739542" stroke-linecap="round" stroke-linejoin="round"/>
<path d="M-7.13123 149.469L-0.815553 147.901L14.138 146.666L29.55 147.775L45.2949 151.266L61.0398 157.138L76.6737 165.339L92.0636 175.767L106.832 188.265L120.898 202.723L134.107 218.912L146.131 236.513L156.907 255.371L166.328 275.169L174.153 295.469L180.343 316.088L184.898 336.662L187.672 356.725L188.692 376.109L188.041 394.487L185.704 411.407L181.755 426.782L176.364 440.338L169.627 451.749L161.654 460.994L152.676 467.908L142.855 472.316L132.317 474.283L121.32 473.728L110.456 470.763" stroke="#5FFF00" stroke-width="0.739542" stroke-linecap="round" stroke-linejoin="round"/>
<path d="M170.255 320.458L164.879 323.979" stroke="#5FFF00" stroke-width="0.739542" stroke-linecap="round" stroke-linejoin="round"/>
<path d="M353.898 132.215L350.356 137.207L344.011 148.678L340.823 156.103" stroke="#5FFF00" stroke-width="0.739542" stroke-linecap="round" stroke-linejoin="round"/>
<path d="M-19.4075 264.371L-21.9738 258.884L-14.4009 246.6L1.52889 230.952L20.7792 216.738L39.105 207.086L50.812 205.105" stroke="#5FFF00" stroke-width="0.739542" stroke-linecap="round" stroke-linejoin="round"/>
<path d="M319.65 129.738L323.592 134.264L328.562 140.498L333.08 146.045L335.447 148.936L338.109 152.109L340.72 156.354L343.508 160.451L348.13 166.841L348.862 168.298L349.639 169.806L362.44 191.926L372.394 213.062L372.772 215.029L381.432 238.576" stroke="#5FFF00" stroke-width="0.739542" stroke-linecap="round" stroke-linejoin="round"/>
<path d="M474.902 18.8582L480.19 16.3512L484.361 8.12747L485.153 6.57443L498.05 0.369673" stroke="#5FFF00" stroke-width="0.739542" stroke-linecap="round" stroke-linejoin="round"/>
<path d="M274.982 209.852L274.753 215.48L275.492 234.354L277.637 252.909L281.209 271.027L286.097 288.377L292.132 304.758L299.313 320.059L307.477 333.999L305.592 341.18L303.913 347.555L305.606 349.907" stroke="#5FFF00" stroke-width="0.739542" stroke-linecap="round" stroke-linejoin="round"/>
<path d="M389.36 162.115L388.25 156.598L395.749 144.662L410.015 129.62L426.581 116.079L441.793 107.004L450.927 105.34" stroke="#5FFF00" stroke-width="0.739542" stroke-linecap="round" stroke-linejoin="round"/>
<path d="M394.499 334.406L399.218 337.394L401.961 339.146L404.224 339.583L409.601 339.886L414.526 339.139" stroke="#5FFF00" stroke-width="0.739542" stroke-linecap="round" stroke-linejoin="round"/>
<path d="M311.693 117.913L315.568 121.699L333.184 132.134L350.356 137.207L359.719 135.972" stroke="#5FFF00" stroke-width="0.739542" stroke-linecap="round" stroke-linejoin="round"/>
<path d="M504.121 29.8627L508.699 27.0081L523.845 19.8271" stroke="#5FFF00" stroke-width="0.739542" stroke-linecap="round" stroke-linejoin="round"/>
<path d="M199.785 178.318L201.627 173.378L208.076 160.31L212.247 153.751" stroke="#5FFF00" stroke-width="0.739542" stroke-linecap="round" stroke-linejoin="round"/>
<path d="M146.967 270.325L151.892 268.609" stroke="#5FFF00" stroke-width="0.739542" stroke-linecap="round" stroke-linejoin="round"/>
<path d="M305.074 278.201L300.274 279.939L286.097 288.377L279.863 296.497" stroke="#5FFF00" stroke-width="0.739542" stroke-linecap="round" stroke-linejoin="round"/>
<path d="M394.344 336.136L399.21 337.394" stroke="#5FFF00" stroke-width="0.739542" stroke-linecap="round" stroke-linejoin="round"/>
<path d="M125.062 379.577L120.27 378.113" stroke="#5FFF00" stroke-width="0.739542" stroke-linecap="round" stroke-linejoin="round"/>
<path d="M300.777 263.307L295.97 264.608L281.209 271.028L274.361 277.158" stroke="#5FFF00" stroke-width="0.739542" stroke-linecap="round" stroke-linejoin="round"/>
<path d="M427.306 231.802L430.9 235.093L444.626 234.679L464.822 230.471L485.241 223.859L501.393 216.286L508.174 210.067" stroke="#5FFF00" stroke-width="0.739542" stroke-linecap="round" stroke-linejoin="round"/>
<path d="M439.168 93.2561L443.812 93.8329" stroke="#5FFF00" stroke-width="0.739542" stroke-linecap="round" stroke-linejoin="round"/>
<path d="M434.324 269.674L430.116 271.552L415.266 283.059L407.626 294.892L409.068 303.582" stroke="#5FFF00" stroke-width="0.739542" stroke-linecap="round" stroke-linejoin="round"/>
<path d="M388.132 247.118L388.361 242.829L398.145 236.846L414.999 230.922L426.159 228.467" stroke="#5FFF00" stroke-width="0.739542" stroke-linecap="round" stroke-linejoin="round"/>
<path d="M39.6597 191.852L41.0278 187.829L46.1307 176.521" stroke="#5FFF00" stroke-width="0.739542" stroke-linecap="round" stroke-linejoin="round"/>
<path d="M430.33 84.9585L434.486 85.491L442.843 87.7022L447.99 89.0704L456.118 97.0427" stroke="#5FFF00" stroke-width="0.739542" stroke-linecap="round" stroke-linejoin="round"/>
<path d="M377.164 50.6215L381.084 49.3716L397.539 46.6575L414.43 46.3543L431.624 48.4546L448.989 52.9732L466.139 59.8953L482.919 69.1322L499.181 80.5877L514.542 94.0844L528.859 109.452L542.016 126.491L553.656 144.861L563.706 164.333L572.085 184.634L578.571 205.311L583.134 226.13L585.782 246.77L586.433 266.767L585.138 285.914L581.995 303.922L577.055 320.377L570.451 335.138L562.338 347.999L552.894 358.656L542.252 367.079L530.664 373.136L518.358 376.678L505.49 377.765L492.318 376.375L491.497 374.992" stroke="#5FFF00" stroke-width="0.739542" stroke-linecap="round" stroke-linejoin="round"/>
<path d="M80.7633 251.755L84.8752 251.947L97.4622 250.586L99.6216 247.473" stroke="#5FFF00" stroke-width="0.739542" stroke-linecap="round" stroke-linejoin="round"/>
<path d="M96.4269 285.434L96.1533 281.433L96.2199 265.873L97.4697 250.586L99.9176 235.648L103.512 221.249L108.001 208.388L108.622 207.589L109.088 207.227" stroke="#5FFF00" stroke-width="0.739542" stroke-linecap="round" stroke-linejoin="round"/>
<path d="M399.092 174.376L399.173 170.368L408.284 160.451L424.133 147.354L441.764 135.099L457.301 126.38L465.887 123.991" stroke="#5FFF00" stroke-width="0.739542" stroke-linecap="round" stroke-linejoin="round"/>
<path d="M317.779 118.548L315.568 121.699L314.192 124.206" stroke="#5FFF00" stroke-width="0.739542" stroke-linecap="round" stroke-linejoin="round"/>
<path d="M480.19 16.3513L480.338 20.1821" stroke="#5FFF00" stroke-width="0.739542" stroke-linecap="round" stroke-linejoin="round"/>
<path d="M-34.5237 495.745L-31.2105 497.394L-21.3081 500.026L-11.7975 500.322L-2.75296 498.2L5.64085 493.718L13.1398 486.988L19.6626 477.981L25.076 466.91L22.6207 448" stroke="#5FFF00" stroke-width="0.739542" stroke-linecap="round" stroke-linejoin="round"/>
<path d="M20.6682 449.856L17.3254 448.362L9.17569 442.867L4.87895 438.992L4.38345 438.548L1.83204 435.76L-4.06951 426.568L-11.4723 413.788L-18.0321 399.833L-23.7339 384.739L-28.4892 368.809L-32.1573 352.295L-38.5987 349.278L-40.8321 333.755L-42.0524 317.973L-42.1263 302.221L-41.0614 286.587L-35.1821 283.688L-32.8747 266.997L-29.5615 252.132" stroke="#5FFF00" stroke-width="0.739542" stroke-linecap="round" stroke-linejoin="round"/>
<path d="M160.737 410.985L157.38 410.948L155.864 410.594L152.321 408.286L148.979 406.112L146.634 404.063L140.57 398.761L132.516 389.849L125.062 379.577L120.159 371.228L119.597 370.274L119.434 369.993" stroke="#5FFF00" stroke-width="0.739542" stroke-linecap="round" stroke-linejoin="round"/>
<path d="M489.834 377.935L492.792 379.333L506.836 383.423" stroke="#5FFF00" stroke-width="0.739542" stroke-linecap="round" stroke-linejoin="round"/>
<path d="M489.863 377.876L492.792 379.333" stroke="#5FFF00" stroke-width="0.739542" stroke-linecap="round" stroke-linejoin="round"/>
<path d="M173.768 338.688L171.276 340.781" stroke="#5FFF00" stroke-width="0.739542" stroke-linecap="round" stroke-linejoin="round"/>
<path d="M422.084 216.619L425.02 217.965L437.918 215.051L457.353 208.543L477.299 200.497L493.384 192.68L500.513 187.518" stroke="#5FFF00" stroke-width="0.739542" stroke-linecap="round" stroke-linejoin="round"/>
<path d="M275.189 91.2964L274.035 88.5823L272.638 67.0025L277.911 49.0907L288.686 38.678" stroke="#5FFF00" stroke-width="0.739542" stroke-linecap="round" stroke-linejoin="round"/>
<path d="M162.764 138.124L165.685 137.925L178.627 146.333L188.13 147.176L190.807 147.413" stroke="#5FFF00" stroke-width="0.739542" stroke-linecap="round" stroke-linejoin="round"/>
<path d="M262.351 357.761L264.31 359.883L272.749 367.064L278.14 370.503L281.579 372.699L283.494 373.55L284.603 374.038L290.653 374.238L291.104 374.156" stroke="#5FFF00" stroke-width="0.739542" stroke-linecap="round" stroke-linejoin="round"/>
<path d="M188.13 147.176L190.119 149.269L208.076 160.311L226.009 166.072L233.834 165.665" stroke="#5FFF00" stroke-width="0.739542" stroke-linecap="round" stroke-linejoin="round"/>
<path d="M224.612 216.641L226.816 215.14" stroke="#5FFF00" stroke-width="0.739542" stroke-linecap="round" stroke-linejoin="round"/>
<path d="M308.003 293.28L305.584 294.382L292.132 304.758L286.667 314.816" stroke="#5FFF00" stroke-width="0.739542" stroke-linecap="round" stroke-linejoin="round"/>
<path d="M407.878 187.74L409.031 185.381L419.592 177.653L436.823 166.634L455.364 155.725L471.138 147.317L479.192 144.092" stroke="#5FFF00" stroke-width="0.739542" stroke-linecap="round" stroke-linejoin="round"/>
<path d="M518.957 310.016L516.406 310.304" stroke="#5FFF00" stroke-width="0.739542" stroke-linecap="round" stroke-linejoin="round"/>
<path d="M108.445 480.051L106.396 478.631" stroke="#5FFF00" stroke-width="0.739542" stroke-linecap="round" stroke-linejoin="round"/>
<path d="M307.899 117.846L310.214 117.757" stroke="#5FFF00" stroke-width="0.739542" stroke-linecap="round" stroke-linejoin="round"/>
<path d="M271.765 89.0262L274.035 88.5825L289.366 87.8578L305.126 89.3812L320.974 93.212L336.808 99.3059L352.471 107.611L367.595 118.016L382.068 130.418L395.749 144.662L408.284 160.451L419.592 177.653L429.561 195.986L437.918 215.052L444.625 234.679L449.654 254.521L452.842 274.134L454.21 293.34L453.818 311.806L451.651 329.111L447.776 345.115L442.34 359.551L435.448 372.079L427.217 382.647L417.847 391.063L407.545 397.134L396.422 400.891L384.737 402.245L375.789 401.424" stroke="#5FFF00" stroke-width="0.739542" stroke-linecap="round" stroke-linejoin="round"/>
<path d="M308.816 332.402L307.477 333.999" stroke="#5FFF00" stroke-width="0.739542" stroke-linecap="round" stroke-linejoin="round"/>
<path d="M264.31 359.883L262.424 359.44" stroke="#5FFF00" stroke-width="0.739542" stroke-linecap="round" stroke-linejoin="round"/>
<path d="M382.43 162.381L383.11 164.186L392.895 166.567" stroke="#5FFF00" stroke-width="0.739542" stroke-linecap="round" stroke-linejoin="round"/>
<path d="M371.389 410.993L369.747 410.216" stroke="#5FFF00" stroke-width="0.739542" stroke-linecap="round" stroke-linejoin="round"/>
<path d="M307.477 333.999L308.505 335.426" stroke="#5FFF00" stroke-width="0.739542" stroke-linecap="round" stroke-linejoin="round"/>
<path d="M490.943 375.976L492.319 376.375L496.719 378.512L506.836 383.423L520.828 384.894" stroke="#5FFF00" stroke-width="0.739542" stroke-linecap="round" stroke-linejoin="round"/>
<path d="M4.87906 438.992L3.95463 437.942L1.92089 435.775L-6.39156 426.938L-13.5355 416.695L-20.1396 405.136L-25.9968 392.497L-31.0775 378.816L-35.3372 364.321L-38.5986 349.278" stroke="#5FFF00" stroke-width="0.739542" stroke-linecap="round" stroke-linejoin="round"/>
<path d="M516.79 307.42L518.114 307.161L526.027 307.738L526.877 307.464L534.288 303.293" stroke="#5FFF00" stroke-width="0.739542" stroke-linecap="round" stroke-linejoin="round"/>
<path d="M94.8147 281.469L96.1533 281.432L98.1722 281.462" stroke="#5FFF00" stroke-width="0.739542" stroke-linecap="round" stroke-linejoin="round"/>
<path d="M239.846 169.873L239.247 171.063L236.91 177.142L233.886 185.004L229.707 199.78L226.816 215.148L226.357 219.644" stroke="#5FFF00" stroke-width="0.739542" stroke-linecap="round" stroke-linejoin="round"/>
<path d="M26.9541 178.207L28.2483 178.067L33.9576 176.632L34.6823 176.447L36.9379 175.878" stroke="#5FFF00" stroke-width="0.739542" stroke-linecap="round" stroke-linejoin="round"/>
<path d="M116.587 451.579L117.807 451.897L127.443 452.289L136.658 450.47L145.207 446.513L153.017 440.36L159.939 432.174L161.351 412.65" stroke="#5FFF00" stroke-width="0.739542" stroke-linecap="round" stroke-linejoin="round"/>
<path d="M451.341 105.851L452.058 106.242L467.566 110.014L477.143 107.071L477.291 106.878" stroke="#5FFF00" stroke-width="0.739542" stroke-linecap="round" stroke-linejoin="round"/>
<path d="M-49.5144 127.778L-48.8932 127.238L-33.3258 117.254L-16.6787 109.844L1.0111 105.141L19.4331 103.336L38.3728 104.445L57.7414 108.483L77.1618 115.502L96.3751 125.36L115.278 137.984L133.463 153.203L150.687 170.775L166.846 190.476L181.556 211.967L194.653 234.886L206.064 258.936L215.515 283.614L222.911 308.552L228.287 333.385L231.482 357.605L232.54 380.849L231.571 402.806L228.561 423.018L223.658 441.233L217.046 457.222L208.845 470.659L199.253 481.449L188.507 489.466L176.808 494.546L164.361 496.736L151.449 496.033L138.485 491.936L133.411 489.555L121.32 473.728L117.807 451.897L118.302 450.27L124.33 430.502L138.551 415.822L146.383 415.97L154.096 414.106L155.309 413.633L160.737 410.986L160.893 410.904L163.592 408.715L166.432 403.709L170.47 393.155L173.398 381.175L175.033 368.388L175.07 368.063L175.447 353.863L175.188 348.953L175.092 347.999L173.768 338.688L172.748 331.514L170.255 320.458L168.717 313.61L165.567 303.242L163.259 295.647L159.591 286.225L156.396 278.009L153.69 272.358L151.892 268.609L148.143 260.799L146.257 257.508L138.714 244.374L128.198 229.066L116.646 214.97L109.088 207.227L108.659 206.791L108.474 206.598L104.273 202.701L100.154 199.647L99.067 198.737L95.9535 196.652L91.3166 193.545L86.8941 190.587L84.7938 189.108L74.4476 184.131L65.2034 180.729L61.8828 179.502L57.1276 178.459L49.3106 176.75L46.1306 176.521L37.0046 175.863L36.9085 175.856L22.9755 165.894L14.138 146.666L12.8586 124.184L19.4331 103.336L32.1162 90.616L51.8398 91.6365L71.985 95.6966L92.1893 102.848L112.135 112.943L131.718 125.877L150.569 141.511L163.474 138.708L170.329 145.601L171.505 146.784L172.178 147.457L180.897 156.228L184.684 160.355L185.675 161.435L191.073 168.187L197.16 175.804L199.475 179.147L206.522 189.315L211.98 197.199L212.986 198.944L216.077 204.298L223.007 216.316L224.101 216.989L226.357 219.644L226.579 220.028L237.073 241.793L236.452 243.679L225.373 249.817L206.064 258.936L184.166 268.321L166.328 275.169L156.396 278.009" stroke="#5FFF00" stroke-width="0.739542" stroke-linecap="round" stroke-linejoin="round"/>
<path d="M381.261 183.813L382.016 184.131L392.503 184.538L405.962 184.826" stroke="#5FFF00" stroke-width="0.739542" stroke-linecap="round" stroke-linejoin="round"/>
<path d="M142.722 122.017L142.619 121.84L138.743 99.7939L142.522 79.2789L152.484 66.2852L171.941 64.6582L185.815 61.9219" stroke="#5FFF00" stroke-width="0.739542" stroke-linecap="round" stroke-linejoin="round"/>
<path d="M142.493 121.869L142.619 121.84L157.373 120.753L172.474 121.936L187.834 125.382L203.298 131.069L218.533 138.967L233.442 149.01L247.87 161.058L261.456 174.924L274.124 190.477L285.742 207.479L296 225.583L304.845 244.626L312.196 264.283L317.861 284.125L321.802 303.974L324.058 323.483L324.531 342.186L323.252 359.965L320.353 376.479L315.856 391.344L309.851 404.478L302.53 415.645L294.033 424.579L284.463 431.264L274.072 435.568L263.061 437.387L251.546 436.766L248.255 435.901" stroke="#5FFF00" stroke-width="0.739542" stroke-linecap="round" stroke-linejoin="round"/>
<path d="M175.033 368.373L174.989 368.307L166.846 350.95L159.806 332.247L154.082 312.368L159.65 306.096L155.738 287.46L153.69 272.358" stroke="#5FFF00" stroke-width="0.739542" stroke-linecap="round" stroke-linejoin="round"/>
<path d="M115.758 347.681L119.434 369.993L119.73 371.775L120.27 378.113L120.943 385.974L121.172 388.644L121.645 394.176L121.704 394.893L121.689 402.976L121.667 409.721V410.771L121.653 416.709L121.016 423.084L120.373 429.496L119.648 436.81L117.245 448.406L116.587 451.579L115.891 454.951L110.456 470.763L110.419 470.881L110.337 471.036L106.839 477.611L106.255 478.528L106.056 478.898L101.707 487.203L100.894 489L94.0306 501.557L85.2079 513.072L75.1427 521.658L72.9241 522.738L56.4767 530.717L45.3318 536.345L24.8243 533.638L13.4427 536.108L-3.40407 521.968L-11.7979 500.322L-9.57923 477.847L-1.15585 465.194L2.72674 459.366L11.1131 455.521L17.1182 452.762L17.9909 452.363" stroke="#5FFF00" stroke-width="0.739542" stroke-linecap="round" stroke-linejoin="round"/>
<path d="M350.031 169.643L351.214 171.374" stroke="#5FFF00" stroke-width="0.739542" stroke-linecap="round" stroke-linejoin="round"/>
<path d="M477.291 106.879L480.138 108.432" stroke="#5FFF00" stroke-width="0.739542" stroke-linecap="round" stroke-linejoin="round"/>
<path d="M284.604 374.038L282.318 373.964L273.91 371.989L265.494 368.329L262.484 366.428" stroke="#5FFF00" stroke-width="0.739542" stroke-linecap="round" stroke-linejoin="round"/>
<path d="M197.574 175.671L199.763 178.378L200.732 179.443" stroke="#5FFF00" stroke-width="0.739542" stroke-linecap="round" stroke-linejoin="round"/>
<path d="M75.1429 521.658L73.013 522.745L64.072 527.301L56.6839 530.747L35.4369 528.247L16.5194 514.684L5.64075 493.718L5.67772 471.828L12.2227 465.815L17.7692 456.282L20.2023 451.047L21.001 450.004L22.4875 448.155" stroke="#5FFF00" stroke-width="0.739542" stroke-linecap="round" stroke-linejoin="round"/>
<path d="M262.609 363.588L262.247 364.372L252.322 374.119L232.54 380.849L208.926 381.5L188.692 376.109L176.194 365.91L175.447 353.863" stroke="#5FFF00" stroke-width="0.739542" stroke-linecap="round" stroke-linejoin="round"/>
<path d="M389.33 369.009L386.298 373.114L380.16 381.419L362.632 387.453L340.476 385.738L320.353 376.479L308.128 362.738L310.68 348.176L311.804 332.52L311.404 316.088L310.606 309.106L309.452 298.975L308.298 293.14L307.581 289.494L305.976 281.544L305.732 280.545" stroke="#5FFF00" stroke-width="0.739542" stroke-linecap="round" stroke-linejoin="round"/>
<path d="M151.449 496.033L149.977 495.5L138.485 491.936L134.565 491.063L129.884 489.362L120.98 486.115L108.444 480.051L106.891 477.685" stroke="#5FFF00" stroke-width="0.739542" stroke-linecap="round" stroke-linejoin="round"/>
<path d="M156.744 411.111L138.551 415.822L130.52 413.87L122.333 410.165L121.667 409.721" stroke="#5FFF00" stroke-width="0.739542" stroke-linecap="round" stroke-linejoin="round"/>
<path d="M7.95544 310.46L8.57666 311.11L20.9566 306.37L41.0721 297.747L62.9404 287.822L81.7395 278.792L91.5607 273.475" stroke="#5FFF00" stroke-width="0.739542" stroke-linecap="round" stroke-linejoin="round"/>
<path d="M298.84 367.796L298.048 369.068L298.899 387.535L292.45 397.474L284.958 405.461L276.498 411.496L267.298 415.438L257.536 417.176L255.295 417.079" stroke="#5FFF00" stroke-width="0.739542" stroke-linecap="round" stroke-linejoin="round"/>
<path d="M15.8094 330.116L14.848 327.247" stroke="#5FFF00" stroke-width="0.739542" stroke-linecap="round" stroke-linejoin="round"/>
<path d="M253.831 422.471L249.601 427.581L243.167 435.354L223.658 441.233L200.895 437.935L181.755 426.782L170.374 410.224L170.47 393.155" stroke="#5FFF00" stroke-width="0.739542" stroke-linecap="round" stroke-linejoin="round"/>
<path d="M85.6887 187.585L77.9383 182.341L76.6737 165.339L83.2852 144.854L96.3751 125.36L112.135 112.943L125.779 110.931" stroke="#5FFF00" stroke-width="0.739542" stroke-linecap="round" stroke-linejoin="round"/>
<path d="M426.684 326.833L426.041 328.098L425.619 329.325L420.886 338.2L414.6 346.512L407.456 353.161L399.565 358.005L390.994 361.074L390.912 361.089" stroke="#5FFF00" stroke-width="0.739542" stroke-linecap="round" stroke-linejoin="round"/>
<path d="M121.653 416.71L114.627 428.032L113.422 429.977L94.6964 438.696L71.3639 440.419L48.5194 434.732L33.2478 423.136L29.6537 409.336" stroke="#5FFF00" stroke-width="0.739542" stroke-linecap="round" stroke-linejoin="round"/>
<path d="M478.563 104.675L474.363 101.709L475.457 87.0958L482.919 69.1323L495.158 51.7087L508.589 40.2679L519.171 37.8866" stroke="#5FFF00" stroke-width="0.739542" stroke-linecap="round" stroke-linejoin="round"/>
<path d="M261.626 384.991L251.938 395.677L251.294 396.387L231.571 402.806L208.105 402L188.041 394.486L175.706 381.944L175.07 368.062" stroke="#5FFF00" stroke-width="0.739542" stroke-linecap="round" stroke-linejoin="round"/>
<path d="M121.704 394.893L115.071 404.588L113.481 406.911L94.7038 415.622L71.2825 418.529L48.3567 414.972L33.0334 405.831L29.417 394.079" stroke="#5FFF00" stroke-width="0.739542" stroke-linecap="round" stroke-linejoin="round"/>
<path d="M547.57 203.367L548.561 206.976L550.225 213.676L552.362 223.142L554.521 239.146L555.143 254.661L554.255 269.607L551.948 283.673L548.235 296.556L543.192 308.204L553.486 323.897L570.451 335.138L590.419 339.479L607.376 335.308L616.473 324.26L623.513 308.744L628.808 291.32L632.188 272.299L633.63 251.947L632.972 230.53" stroke="#5FFF00" stroke-width="0.739542" stroke-linecap="round" stroke-linejoin="round"/>
<path d="M257.433 308.966L258.49 317.019L248.063 325.805L228.287 333.385L204.844 337.349L184.898 336.662L172.748 331.514" stroke="#5FFF00" stroke-width="0.739542" stroke-linecap="round" stroke-linejoin="round"/>
<path d="M252.537 286.698L253.476 292.459L242.598 300.513L222.911 308.552L199.808 314.283L180.343 316.088L168.717 313.61" stroke="#5FFF00" stroke-width="0.739542" stroke-linecap="round" stroke-linejoin="round"/>
<path d="M245.77 264.186L246.317 267.81L235.054 275.065L215.515 283.614L192.915 291.15L174.153 295.469L163.259 295.647" stroke="#5FFF00" stroke-width="0.739542" stroke-linecap="round" stroke-linejoin="round"/>
<path d="M180.897 156.228L184.551 160.621L191.073 168.187L194.608 172.121L197.367 175.737L199.763 178.377L200.732 179.442L206.589 187.851L207.787 189.567L212.868 196.851L213.282 197.864L214.458 199.129" stroke="#5FFF00" stroke-width="0.739542" stroke-linecap="round" stroke-linejoin="round"/>
<path d="M372.394 213.062L373.045 214.874" stroke="#5FFF00" stroke-width="0.739542" stroke-linecap="round" stroke-linejoin="round"/>
<path d="M356.154 147.206L353.211 154.224L350.955 159.674L348.13 166.841" stroke="#5FFF00" stroke-width="0.739542" stroke-linecap="round" stroke-linejoin="round"/>
<path d="M25.5049 176.78L34.8749 176.018L36.9234 175.87L37.0048 175.863" stroke="#5FFF00" stroke-width="0.739542" stroke-linecap="round" stroke-linejoin="round"/>
<path d="M19.8104 450.662L17.2812 450.677L14.752 450.514L6.65397 448.931L-12.6851 457.421L-26.618 475.459L-31.2106 497.394L-25.4791 518.478L-14.2455 521.54L-3.40381 521.969L6.92022 519.661L16.5195 514.684L25.1277 507.141L32.6489 496.994L38.9054 484.496L43.6976 469.853L46.922 453.132L48.5195 434.732L48.3568 414.972L46.3822 394.006L42.6549 372.322L37.1379 350.299L29.8386 328.149L20.9567 306.37L10.5366 285.352L-1.35526 265.281L-14.4008 246.6L-28.5039 229.613L-43.5462 214.474L-59.1505 201.473L-75.1985 190.794L-91.5498 182.511L-107.842 176.75L-123.934 173.541L-139.724 172.905L-154.884 174.768L-169.313 179.058L-182.928 185.736L-195.478 194.588L-206.918 205.43L-217.198 218.209L-226.147 232.608L-233.779 248.39L-240.057 265.481L-244.909 283.511L-248.399 302.214L-250.522 321.516L-251.254 341.04L-250.744 360.512L-248.969 379.858L-245.988 398.716L-241.98 416.843L-236.951 434.141L-230.998 450.322L-224.349 465.164L-217.013 478.58L-209.122 490.353L-200.928 500.322L-192.468 508.405L-183.882 514.484L-175.429 518.478L-167.168 520.319L-159.233 520.009L-151.882 517.568L-145.159 512.976L-139.191 506.335L-134.192 497.8L-133.534 496.077L-133.164 495.101L-132.461 493.267L-132.395 493.104L-132.328 492.912L-132.276 492.779L-131.47 490.686L-130.901 489.185L-130.213 487.38L-127.314 475.296L-125.65 461.814L-125.266 446.994L-125.34 443.673L-125.591 441.114L-127.366 425.044L-128.557 413.226L-116.643 401.845L-108.36 398.606L-102.968 396.498L-96.172 393.835L-90.6328 393.155L-88.0222 392.83L-87.9187 392.815L-71.3529 390.774L-65.0446 391.632L-50.9416 393.547L-49.2924 393.769L-37.9478 400.669L-36.1433 401.771L-35.9141 403.686L-35.7366 405.165L-34.7678 413.189L-34.398 416.155L-33.6363 422.374V422.522L-32.9559 428.054L-32.1128 434.932L-31.9353 439.11L-31.6765 445.137L-31.4176 451.194L-31.1366 457.784L-31.5212 466.547L-31.7948 472.937L-32.0537 478.898L-34.5237 495.744L-34.8491 497.963L-37.7555 508.635L-38.4581 511.23L-38.5468 511.563L-39.1089 513.619L-39.1533 513.774L-39.3899 514.662L-45.4246 528.802L-45.5651 529.024L-53.1306 540.346L-56.8061 546.011L-57.2942 546.906L-64.7118 558.125L-73.7712 567.192L-83.829 573.174L-90.5367 576.103L-103.508 581.753L-126.013 578.27L-136.329 581.139L-147.348 581.028L-158.782 577.915L-170.415 571.843L-172.537 570.024L-182.114 562.998L-184.392 560.824L-190.153 555.315L-195.855 549.864L-206.467 539.296L-216.71 526.369L-226.509 511.267L-231.079 502.652L-235.613 494.117L-243.836 475.222L-251.143 454.781L-257.303 432.965L-262.177 410.157L-265.756 386.573L-262.961 383.682L-264.913 361.739L-265.446 339.657L-264.573 317.559L-267.376 313.847L-264.677 289.878L-260.276 266.649L-254.242 244.344L-246.454 223.201L-237.01 203.64L-230.717 193.479L-225.999 185.854L-213.367 170.035L-199.279 156.553L-187.076 146.769L-183.763 144.935L-167.257 137.222L-149.582 131.779L-131.093 129.301L-111.858 129.856L-92.2154 133.554L-72.44 140.335L-52.6129 150.142L-33.1482 162.899L-14.3047 178.385L3.80673 196.43L20.7792 216.737L36.391 238.961L50.5532 262.811L62.9405 287.822L73.405 313.58L81.9394 339.716L88.3438 365.703L92.5666 391.121L94.7039 415.622L94.6965 438.696L92.6184 460.032L88.6544 479.341L82.8712 496.24L75.4314 510.55L66.5791 522.124L56.684 530.747L45.332 536.345L33.418 538.941L20.9345 538.46L15.2474 537.625L10.0115 536.856L1.50676 535.606L-11.6867 523.817L-14.2455 521.54L-21.3081 500.026L-17.9136 477.685L-4.81631 459.329L2.727 459.366L9.87838 457.48L16.549 453.716L17.9912 452.363L20.2024 451.046L21.2821 450.514L22.5911 448.066L22.6207 448L22.6355 447.948L26.1853 436.588L28.537 423.609L29.6537 409.336L29.4171 394.08L27.7975 377.928L24.8393 361.199L22.4284 349.263L20.5278 344.264L16.2384 330.057L14.8481 327.247L8.57678 311.11L7.95557 310.459L-0.105434 294.278L-0.512196 292.881L-9.29056 278.829L-10.9397 275.575L-19.4075 264.371L-22.8242 260.259L-29.5614 252.132L-30.0051 251.599L-30.3231 251.215L-32.7488 247.879L-35.1597 246.349L-38.288 243.198L-41.9783 239.478L-47.3548 230.848L-50.3056 228.385L-59.1431 221.493L-60.9845 219.459L-74.9693 210.096L-89.2351 202.819L-103.486 197.709L-107.842 176.75L-103.553 152.967L-92.2154 133.554L-76.3522 122.719L-56.0444 129.604L-35.744 139.566L-15.8059 152.53L3.41477 168.246L21.8368 186.512L34.2315 185.403L39.6597 191.852L50.812 205.104L53.2599 208.565L59.3612 217.211L65.9653 226.566L68.7385 231.21L71.6745 236.136L79.6172 249.447L80.7635 251.755L83.8843 258.019L84.3059 258.884L88.0702 266.442L91.5608 273.475L94.7852 281.41L94.8148 281.469L96.146 284.738L96.427 285.433L98.1353 289.634L98.8453 291.379L101.574 298.094L109.687 322.943L115.759 347.681L107.202 356.991L111.388 382.439L113.481 406.911L113.422 429.977L111.292 451.246L107.291 470.467L104.843 477.544L101.478 487.306L82.8712 496.24L60.3965 495.241L38.9054 484.496L25.076 466.91L29.1878 454.005L31.9241 439.303L33.2479 423.136L33.0334 405.831L31.2364 387.49L27.9232 368.521L23.0644 349.308L17.6362 332.919L16.66 329.991L11.8234 318.173L8.8874 310.992L4.76815 302.702L4.08776 301.334L-0.208981 292.674L-3.58129 287.001L-10.5848 275.191L-11.3983 274.015L-21.9737 258.884L-29.1399 250.231L-32.4087 246.822L-34.2575 244.063L-35.3816 242.925L-47.3548 230.848L-43.5462 214.474L-31.1958 195.01L-14.3047 178.385L3.41477 168.246L16.5269 167.905L25.5049 176.78L26.9544 178.207L27.2428 178.496L32.2347 183.428L34.2315 185.403" stroke="#5FFF00" stroke-width="0.739542" stroke-linecap="round" stroke-linejoin="round"/>
<path d="M247.39 437.986L245.459 440.723L243.123 444.021L236.43 451.512L217.046 457.222L194.793 452.955L176.364 440.338L165.744 422.13L166.432 403.708" stroke="#5FFF00" stroke-width="0.739542" stroke-linecap="round" stroke-linejoin="round"/>
<path d="M526.56 307.812L524.415 310.194L515.799 319.763L514.683 320.118" stroke="#5FFF00" stroke-width="0.739542" stroke-linecap="round" stroke-linejoin="round"/>
<path d="M404.224 339.583L401.961 339.146L393.774 342.393" stroke="#5FFF00" stroke-width="0.739542" stroke-linecap="round" stroke-linejoin="round"/>
<path d="M110.338 471.029L106.84 477.611L106.396 478.631L103.423 484.363L101.707 487.203L94.0308 501.557L75.4313 510.55L53.3856 508.938L32.6488 496.994L19.6625 477.98L17.9023 457.821L20.9567 450.366L22.4875 448.155L22.6132 447.977L22.6354 447.948" stroke="#5FFF00" stroke-width="0.739542" stroke-linecap="round" stroke-linejoin="round"/>
<path d="M307.536 117.476L310.214 117.757L311.693 117.913L317.905 118.364L318.422 118.615" stroke="#5FFF00" stroke-width="0.739542" stroke-linecap="round" stroke-linejoin="round"/>
</g>
<defs>
<clipPath id="clip0">
<rect width="902.752" height="585" fill="white" transform="translate(-268.752)"/>
</clipPath>
</defs>
</svg>
