<svg width="536" height="195" viewBox="0 0 536 195" fill="none" xmlns="http://www.w3.org/2000/svg" style="">
<g clip-path="url(#clip0)">
<path d="M221.378 1.12558L264.627 0.270508L306.712 0.838755" stroke="#5FFF00" stroke-width="0.8" stroke-linecap="round" stroke-linejoin="round" class="jeWJzOyL_0"></path>
<path d="M0.270508 60.9052L42.6316 60.3315L84.9873 58.1614L126.91 56.803L167.955 58.643L172.384 62.3826L179.791 65.8192L189.894 68.8877L202.368 71.5233L216.895 73.6664L231.177 74.6622L233.565 74.8299L236.094 75.0085L237.469 75.1005" stroke="#5FFF00" stroke-width="0.8" stroke-linecap="round" stroke-linejoin="round" class="jeWJzOyL_1"></path>
<path d="M8.93848 71.1012L50.612 68.8824L92.0202 65.0453L132.752 62.0742L172.384 62.3827L192.048 65.4404L210.489 68.3141" stroke="#5FFF00" stroke-width="0.8" stroke-linecap="round" stroke-linejoin="round" class="jeWJzOyL_2"></path>
<path d="M0.551758 50.7524L42.1603 51.7699L84.0233 51.2179L125.718 51.4506L166.802 54.8276L188.08 59.5467L206.781 63.6976L207.658 66.0356L210.489 68.314L215.081 70.3921L215.849 70.6248L219.136 71.6098L219.596 71.7505L219.905 71.8425L221.237 72.243L222.498 72.5082L226.25 73.2929L228.768 73.8233L230.847 74.1263L236.034 74.8894L237.469 75.1005L241.638 75.5118L245.557 75.8906L246.64 75.9988" stroke="#5FFF00" stroke-width="0.8" stroke-linecap="round" stroke-linejoin="round" class="jeWJzOyL_3"></path>
<path d="M365.803 50.4819L327.129 61.0189L314.914 68.9635L312.277 72.584" stroke="#5FFF00" stroke-width="0.8" stroke-linecap="round" stroke-linejoin="round" class="jeWJzOyL_4"></path>
<path d="M26.2695 80.7018L65.7557 76.8701L104.749 71.4474L142.887 66.9502L179.791 65.8191L198.524 68.249L212.693 70.0836L215.081 70.3921" stroke="#5FFF00" stroke-width="0.8" stroke-linecap="round" stroke-linejoin="round" class="jeWJzOyL_5"></path>
<path d="M24.5693 32.4929L61.2563 36.2379L98.5984 38.5055L136.227 41.5632L173.732 47.7111L210.646 59.3034L222.336 67.5727L225.817 65.9762L230.468 64.5312L236.175 63.2757" stroke="#5FFF00" stroke-width="0.8" stroke-linecap="round" stroke-linejoin="round" class="jeWJzOyL_6"></path>
<path d="M51.7598 89.4636L87.5642 84.1275L122.735 77.2274L156.953 71.3285L189.894 68.8877L207.896 70.8143L218.968 71.9995L221.237 72.2431" stroke="#5FFF00" stroke-width="0.8" stroke-linecap="round" stroke-linejoin="round" class="jeWJzOyL_7"></path>
<path d="M104.668 11.7763L140.164 6.99758L179.179 3.41492L221.378 1.1257L227.978 9.12986L265.06 8.38302L301.157 8.88092L306.712 0.838867L347.226 2.74385L385.684 5.91521" stroke="#5FFF00" stroke-width="0.8" stroke-linecap="round" stroke-linejoin="round" class="jeWJzOyL_8"></path>
<path d="M46.2266 24.6077L79.1831 29.4729L112.892 32.9257L147.035 37.1849L181.236 44.5396L215.07 57.3225L220.944 55.542L228.135 53.9942L236.505 52.7224L245.915 51.7482" stroke="#5FFF00" stroke-width="0.8" stroke-linecap="round" stroke-linejoin="round" class="jeWJzOyL_9"></path>
<path d="M84.749 97.143L115.442 90.4539L145.454 82.2387L174.517 75.1059L202.368 71.5232L220.122 73.071L225.579 73.5418L228.768 73.8232" stroke="#5FFF00" stroke-width="0.8" stroke-linecap="round" stroke-linejoin="round" class="jeWJzOyL_10"></path>
<path d="M73.1621 17.675L101.749 23.4982L128.366 18.3948L158.534 14.2439L191.842 11.1266L227.977 9.12964L234.826 15.9702L241.876 23.7525L265.974 23.2492L289.445 23.5793L311.947 24.6942L333.144 26.5396L352.662 29.0778L370.096 32.2654L398.699 26.6858L426.783 21.9504L454.087 15.8782" stroke="#5FFF00" stroke-width="0.8" stroke-linecap="round" stroke-linejoin="round" class="jeWJzOyL_11"></path>
<path d="M124.365 103.486L148.643 95.6601L172.292 86.3463L195.108 78.1906L216.895 73.6663L231.443 75.0896L233.1 75.2519" stroke="#5FFF00" stroke-width="0.8" stroke-linecap="round" stroke-linejoin="round" class="jeWJzOyL_12"></path>
<path d="M376.496 107.214L357.957 98.7124L315.401 101.564L270.842 102.652L227.403 101.932L186.298 99.5458L169.558 108.237" stroke="#5FFF00" stroke-width="0.8" stroke-linecap="round" stroke-linejoin="round" class="jeWJzOyL_13"></path>
<path d="M140.164 6.99739L158.535 14.2439L177.539 20.2565L204.978 17.648L234.827 15.9757L265.515 15.3425L295.38 15.7592L324.065 17.1555L335.857 10.5422L347.227 2.74365" stroke="#5FFF00" stroke-width="0.8" stroke-linecap="round" stroke-linejoin="round" class="jeWJzOyL_14"></path>
<path d="M287.913 76.0692L289.186 75.988L290.149 75.9285L292.109 75.804L297.675 75.4468L306.073 74.9111L322.603 79.9874L345.813 77.4222L370.324 85.3235L395.711 94.3614L421.748 101.895L460.168 95.0757L491.132 87.077L514.207 78.2123L529.118 68.774L535.729 59.0218L533.98 49.1992L523.866 39.5012L484.727 42.2233L445.067 43.4194L405.278 45.4001L396.902 40.4591L360.096 46.9154L323.832 58.8053L318.915 56.8192L312.608 55.0765L305.098 53.6045L296.592 52.4301L287.275 51.5642L277.329 51.0447L266.928 50.8877L256.251 51.1259L245.915 51.7482L232.168 35.675L218.465 25.0839L197.014 27.1675L177.538 20.2565L152.806 23.7255L128.366 18.3948L104.668 11.7761L73.1626 17.6751L46.2267 24.6077L24.5697 32.4928L9.01994 41.2384L0.552049 50.7525L0.270508 60.9051L8.93872 71.1011L26.2697 80.7018L51.76 89.4636L84.7491 97.1431L124.365 103.486L169.558 108.237L219.077 111.16L227.404 101.933L235.482 91.2766L243.235 81.8707L250.609 76.2153L253.766 76.2694L260.42 76.3723L267.215 76.4805L269.023 76.5076L273.826 76.3939L280.209 76.2478L286.3 76.1071L286.446 76.1017L287.913 76.0692ZM287.913 76.0692L296.652 81.6597L305.84 90.9898L339.944 88.7492L370.324 85.3235L396.458 80.8966L427.975 88.7546L460.168 95.0757" stroke="#5FFF00" stroke-width="0.8" stroke-linecap="round" stroke-linejoin="round" class="jeWJzOyL_15"></path>
<path d="M294.34 113.952L294.134 114.532L293.934 115.1L289.115 128.548L288.817 129.474L285.298 140.4L285.19 140.79L285.06 141.542L282.732 152.837L282.602 153.443L282.531 153.935L281.519 160.765L280.717 166.367L280.171 166.929L280.149 167.113L278.6 179.766L277.799 180.237L276.711 180.665L275.357 181.038L273.76 181.347L271.946 181.579L269.943 181.736L267.869 181.79L265.845 181.752L263.917 181.628L262.12 181.417L260.49 181.13L259.071 180.778L257.891 180.356L257.003 179.885L256.429 179.366L256.223 178.825L254.74 166.697L254.794 166.475L253.164 155.067L252.888 153.714L252.693 152.94L250.392 141.483L250.36 140.963L249.937 139.659L246.711 129.636L246.418 128.716L246.039 127.78L241.562 115.278L241.35 114.694L241.139 114.104L240.755 113.032" stroke="#5FFF00" stroke-width="0.8" stroke-linecap="round" stroke-linejoin="round" class="jeWJzOyL_16"></path>
<path d="M179.179 3.41479L191.843 11.1267L204.978 17.648L218.465 25.0839L241.876 23.7526" stroke="#5FFF00" stroke-width="0.8" stroke-linecap="round" stroke-linejoin="round" class="jeWJzOyL_17"></path>
<path d="M323.831 58.8054L312.337 67.1722L308.13 73.4608L308.098 73.5095" stroke="#5FFF00" stroke-width="0.8" stroke-linecap="round" stroke-linejoin="round" class="jeWJzOyL_18"></path>
<path d="M297.507 62.9617L292.169 75.6633" stroke="#5FFF00" stroke-width="0.8" stroke-linecap="round" stroke-linejoin="round" class="jeWJzOyL_19"></path>
<path d="M282.732 152.837L282.602 153.443L281.93 154.119L280.891 154.709L280.869 154.872L279.261 167.454L279.245 167.6L277.799 180.237L277.783 180.367L276.013 192.825" stroke="#5FFF00" stroke-width="0.8" stroke-linecap="round" stroke-linejoin="round" class="jeWJzOyL_20"></path>
<path d="M280.875 165.777L280.81 166.269L280.734 166.891L279.218 178.743L279.11 179.231L278.828 179.755L278.574 179.934L278.541 180.161L276.668 192.43" stroke="#5FFF00" stroke-width="0.8" stroke-linecap="round" stroke-linejoin="round" class="jeWJzOyL_21"></path>
<path d="M279.218 178.743L279.11 179.23L279.04 179.506L279.002 179.772L277.231 190.958L277.063 192.008" stroke="#5FFF00" stroke-width="0.8" stroke-linecap="round" stroke-linejoin="round" class="jeWJzOyL_22"></path>
<path d="M285.298 140.4L285.19 140.79L285.087 141.185L285.006 141.564L282.829 152.155L282.553 153.491L282.531 153.935L280.875 165.776L280.718 166.366L280.685 166.632L280.409 166.924L279.261 167.454L278.016 167.93L276.462 168.352L274.632 168.699L272.558 168.964L270.263 169.137L267.886 169.202L265.568 169.159L263.359 169.013L261.302 168.78L259.434 168.455L257.81 168.06L256.467 167.589L255.444 167.059L254.724 166.561L254.556 165.874L252.888 153.713L252.693 152.939" stroke="#5FFF00" stroke-width="0.8" stroke-linecap="round" stroke-linejoin="round" class="jeWJzOyL_23"></path>
<path d="M261.784 193.572L260.49 181.13L259.434 168.455L258.254 155.829L256.581 143.517L254.036 131.784L250.669 117.887L249.18 111.668" stroke="#5FFF00" stroke-width="0.8" stroke-linecap="round" stroke-linejoin="round" class="jeWJzOyL_24"></path>
<path d="M263.121 193.815L262.12 181.417L261.302 168.78L260.387 156.187L259.082 143.929L257.112 132.282L254.496 118.493L253.229 111.733" stroke="#5FFF00" stroke-width="0.8" stroke-linecap="round" stroke-linejoin="round" class="jeWJzOyL_25"></path>
<path d="M264.6 193.989L263.918 181.628L263.36 169.013L262.737 156.452L261.849 144.232L260.507 132.65L258.731 118.942L257.821 111.815" stroke="#5FFF00" stroke-width="0.8" stroke-linecap="round" stroke-linejoin="round" class="jeWJzOyL_26"></path>
<path d="M266.186 194.097L265.844 181.752L265.568 169.159L265.26 156.614L264.821 144.421L264.155 132.872L263.278 119.213L262.812 111.896" stroke="#5FFF00" stroke-width="0.8" stroke-linecap="round" stroke-linejoin="round" class="jeWJzOyL_27"></path>
<path d="M236.034 74.8896L230.468 64.5312L220.944 55.5421L191.068 41.6931L181.236 44.5398L173.732 47.7111L168.827 51.1639L128.983 46.3419L88.7769 44.6318L48.6573 43.7009L9.01953 41.2385" stroke="#5FFF00" stroke-width="0.8" stroke-linecap="round" stroke-linejoin="round" class="jeWJzOyL_28"></path>
<path d="M308.466 65.5647L303.258 74.2941" stroke="#5FFF00" stroke-width="0.8" stroke-linecap="round" stroke-linejoin="round" class="jeWJzOyL_29"></path>
<path d="M290.507 75.8473L292.169 75.6633L297.881 75.0409L300.242 74.7866L303.089 74.5701L303.988 74.5052L307.61 74.2346L322.38 73.1306L336.571 70.8197L365.895 74.0939L382.522 70.1432L395.408 65.6946L434.315 69.7968L445.425 63.4812L451.023 56.8787L450.947 50.1463L445.067 43.4194L433.789 37.0983L418.104 31.5078L398.7 26.6858L376.198 22.6594L351.152 19.4718L324.064 17.1555L311.947 24.6943L299.635 35.3881L283.398 34.5655L266.451 34.3166L249.044 34.69L232.168 35.675L216.748 37.2065L197.013 27.1675L177.766 29.9167L160.998 33.2829L131.117 27.9739L112.892 32.9257L98.5986 38.5054L88.7771 44.6316L84.0234 51.2179L84.9872 58.1613L92.0203 65.0452L104.749 71.4475L122.735 77.2273L145.454 82.2387L172.292 86.3464L202.558 89.4041L235.482 91.2766L270.209 91.8394L305.84 90.9897L315.401 101.565L325.261 110.711L376.496 107.215L421.748 101.895" stroke="#5FFF00" stroke-width="0.8" stroke-linecap="round" stroke-linejoin="round" class="jeWJzOyL_30"></path>
<path d="M300.241 74.7867L303.257 74.2943L308.097 73.5095L308.758 73.4013L311.768 73.1199L311.898 73.1091L314.432 72.8764L315.515 72.7735L317.047 72.6328L336.571 70.8198L348.417 68.0598L357.703 64.9371L395.408 65.6948L404.309 60.8782L409.035 55.8181L451.023 56.8788L493.395 58.7514L535.729 59.0219" stroke="#5FFF00" stroke-width="0.8" stroke-linecap="round" stroke-linejoin="round" class="jeWJzOyL_31"></path>
<path d="M308.759 73.4013L312.278 72.5841L315.164 71.9184L315.765 71.7777L315.927 71.7398L316.436 71.572L318.927 70.7494L321.607 69.8565L323.789 69.5588L339.019 67.4861L357.704 64.9371L364.249 61.5384L404.309 60.8782L445.425 63.4813L487.169 66.9287L529.119 68.7741" stroke="#5FFF00" stroke-width="0.8" stroke-linecap="round" stroke-linejoin="round" class="jeWJzOyL_32"></path>
<path d="M268.081 111.988L268.049 119.294L267.984 132.937L267.935 144.475L267.908 156.663L267.887 169.202L267.87 181.79L267.849 194.129" stroke="#5FFF00" stroke-width="0.8" stroke-linecap="round" stroke-linejoin="round" class="jeWJzOyL_33"></path>
<path d="M273.479 111.993L272.943 119.169L271.909 132.834L271.129 144.394L270.62 156.587L270.263 169.137L269.944 181.736L269.554 194.081" stroke="#5FFF00" stroke-width="0.8" stroke-linecap="round" stroke-linejoin="round" class="jeWJzOyL_34"></path>
<path d="M278.649 111.869L277.664 118.845L275.698 132.569L274.215 144.167L273.24 156.398L272.558 168.964L271.946 181.579L271.199 193.951" stroke="#5FFF00" stroke-width="0.8" stroke-linecap="round" stroke-linejoin="round" class="jeWJzOyL_35"></path>
<path d="M226.25 73.2929L222.336 67.5725" stroke="#5FFF00" stroke-width="0.8" stroke-linecap="round" stroke-linejoin="round" class="jeWJzOyL_36"></path>
<path d="M283.252 111.755L281.931 118.341L279.126 132.158L277.009 143.826L275.612 156.1L274.632 168.699L273.761 181.346L272.688 193.75" stroke="#5FFF00" stroke-width="0.8" stroke-linecap="round" stroke-linejoin="round" class="jeWJzOyL_37"></path>
<path d="M287.199 111.652L285.683 117.687L282.142 131.617L279.462 143.377L277.702 155.71L276.462 168.353L275.358 181.038L273.999 193.496" stroke="#5FFF00" stroke-width="0.8" stroke-linecap="round" stroke-linejoin="round" class="jeWJzOyL_38"></path>
<path d="M297.508 62.9617L303.469 64.1524L308.466 65.5649L318.921 56.8193L351.802 43.7279L385.002 36.0701L418.105 31.5079L450.747 27.7575L482.616 22.6162L506.216 30.4905L523.867 39.5013" stroke="#5FFF00" stroke-width="0.8" stroke-linecap="round" stroke-linejoin="round" class="jeWJzOyL_39"></path>
<path d="M269.023 76.5076L269.597 82.2929L270.209 91.8394L270.843 102.652L271.498 112.042" stroke="#5FFF00" stroke-width="0.8" stroke-linecap="round" stroke-linejoin="round" class="jeWJzOyL_40"></path>
<path d="M290.415 111.577L288.856 116.896L285.683 117.687L281.931 118.341L277.665 118.845L272.943 119.169L268.049 119.294L263.279 119.213L258.731 118.942L254.497 118.493L250.669 117.887L247.339 117.135L244.594 116.252L242.526 115.257L241.211 114.163L240.756 113.032L240.22 111.517" stroke="#5FFF00" stroke-width="0.8" stroke-linecap="round" stroke-linejoin="round" class="jeWJzOyL_41"></path>
<path d="M409.409 50.6226L409.035 55.818" stroke="#5FFF00" stroke-width="0.8" stroke-linecap="round" stroke-linejoin="round" class="jeWJzOyL_42"></path>
<path d="M292.846 111.517L291.395 115.998L291.303 116.29L286.739 130.226L286.566 130.821L283.214 142.224L283.176 142.413L280.892 154.709L279.473 155.24L277.703 155.71L275.613 156.1L273.241 156.398L270.621 156.587L267.908 156.663L265.261 156.614L262.738 156.452L260.388 156.187L258.255 155.83L256.398 155.386L254.865 154.861L253.701 154.265L252.959 153.616L252.391 150.851L250.393 141.483L250.269 140.887L250.047 140.189L246.63 129.614L246.365 128.673L245.661 126.6L241.617 115.295L241.411 114.721L241.211 114.163L240.279 111.517" stroke="#5FFF00" stroke-width="0.8" stroke-linecap="round" stroke-linejoin="round" class="jeWJzOyL_43"></path>
<path d="M321.606 69.8565L325.678 67.8L328.028 65.6082L329.739 65.2781L347.79 61.8091L367.877 57.945L409.036 55.8181" stroke="#5FFF00" stroke-width="0.8" stroke-linecap="round" stroke-linejoin="round" class="jeWJzOyL_44"></path>
<path d="M308.466 65.5647L312.337 67.172L314.914 68.9634L315.997 70.825L315.77 71.7613L315.764 71.7775" stroke="#5FFF00" stroke-width="0.8" stroke-linecap="round" stroke-linejoin="round" class="jeWJzOyL_45"></path>
<path d="M286.446 76.1017L287.832 76.0151L289.868 75.8852L290.506 75.8474L292.131 75.7499L297.691 75.4144L306.078 74.9111L307.242 74.7866L322.38 73.1306L345.813 77.4222L365.894 74.0939L396.458 80.8966L417.898 75.6579L434.314 69.7969L474.044 74.8029L487.168 66.9286L493.395 58.7512L492.61 50.4548L484.726 42.2234L470.346 34.5223L450.747 27.7574L426.783 21.9505L399.225 17.1177L376.198 22.6594L352.662 29.0779L328.861 38.6082L305.098 53.6045L297.507 62.9617L290.734 62.0038L283.311 61.3056L275.379 60.8781L267.084 60.7536L258.568 60.9485L250.327 61.4572L242.829 62.2419L236.174 63.2756L228.134 53.9942L202.98 39.2306L177.765 29.9168L152.806 23.7256L131.116 27.9739L101.749 23.4983L79.1828 29.473L61.2562 36.2378L48.6573 43.7008L42.1602 51.7699L42.6312 60.3315L50.6118 68.8823L65.7555 76.8702L87.5641 84.1275L115.442 90.454L148.642 95.6602L186.298 99.546L202.557 89.4041L218.199 80.4745L243.235 81.8708L269.597 82.2929L296.652 81.6597L322.602 79.9874L339.944 88.7493L357.957 98.7125L395.711 94.3614L427.974 88.7547L454.217 82.1576L474.044 74.8029L514.207 78.2123" stroke="#5FFF00" stroke-width="0.8" stroke-linecap="round" stroke-linejoin="round" class="jeWJzOyL_46"></path>
<path d="M167.955 58.643L166.802 54.8277L168.827 51.1638" stroke="#5FFF00" stroke-width="0.8" stroke-linecap="round" stroke-linejoin="round" class="jeWJzOyL_47"></path>
<path d="M323.831 58.8054L327.128 61.0189L328.547 63.3352L328.027 65.6081L323.533 68.1463L320.144 70.0567L318.926 70.7494" stroke="#5FFF00" stroke-width="0.8" stroke-linecap="round" stroke-linejoin="round" class="jeWJzOyL_48"></path>
<path d="M294.46 111.474L293.247 115.008L293.112 115.392L292.938 115.884L288.228 129.414L288.13 129.722L286.127 136.125L284.433 141.547L284.14 143.009L283.815 144.638L281.931 154.119L281.904 154.33L280.41 166.924L279.078 179.268L278.829 179.755L277.177 191.569L277.064 192.008L276.669 192.43L276.013 192.825L275.115 193.182L273.999 193.496L272.689 193.75L271.2 193.951L269.554 194.081L267.849 194.129L266.187 194.097L264.6 193.989L263.122 193.815L261.785 193.572L260.615 193.274L259.646 192.928L258.915 192.527L258.444 192.094L256.755 179.874L255.466 167.243L255.445 167.059L253.728 154.471L253.701 154.265L251.351 142.343L251.232 141.715L249.105 134.869L248.623 133.305L247.48 129.62L242.819 116.117L242.526 115.257L241.254 111.533" stroke="#5FFF00" stroke-width="0.8" stroke-linecap="round" stroke-linejoin="round" class="jeWJzOyL_49"></path>
<path d="M295.228 111.458L294.34 113.952L293.247 115.008L291.395 115.998L288.856 116.896L288.785 117.145L284.692 130.967L284.638 131.173L281.541 142.841L281.514 143.003L279.473 155.24L278.016 167.93L276.711 180.665L276.701 180.778L275.114 193.182" stroke="#5FFF00" stroke-width="0.8" stroke-linecap="round" stroke-linejoin="round" class="jeWJzOyL_50"></path>
<path d="M206.781 63.6977L207.832 61.4409L210.647 59.3033L215.07 57.3225" stroke="#5FFF00" stroke-width="0.8" stroke-linecap="round" stroke-linejoin="round" class="jeWJzOyL_51"></path>
<path d="M267.215 76.4805L267.199 74.3483L267.085 60.7536L266.928 50.8878L266.452 34.3166L265.975 23.2493L265.515 15.3426L265.06 8.38291L264.627 0.270508" stroke="#5FFF00" stroke-width="0.8" stroke-linecap="round" stroke-linejoin="round" class="jeWJzOyL_52"></path>
<path d="M273.825 76.394L273.955 74.4511L275.379 60.8782L277.328 51.0448L283.398 34.5656L289.445 23.5795L295.379 15.7594L301.156 8.88086L335.856 10.5423L368.715 13.3024L399.225 17.1177L421.526 10.3042" stroke="#5FFF00" stroke-width="0.8" stroke-linecap="round" stroke-linejoin="round" class="jeWJzOyL_53"></path>
<path d="M245.558 75.8908L247.463 75.5877L253.56 74.9329L260.268 74.5053L267.198 74.3484L273.955 74.4512L280.409 74.803L286.446 75.3875L289.868 75.8854" stroke="#5FFF00" stroke-width="0.8" stroke-linecap="round" stroke-linejoin="round" class="jeWJzOyL_54"></path>
<path d="M260.42 76.3724L260.268 74.5053L258.568 60.9485L256.251 51.126L249.044 34.6901L241.876 23.7527" stroke="#5FFF00" stroke-width="0.8" stroke-linecap="round" stroke-linejoin="round" class="jeWJzOyL_55"></path>
<path d="M280.209 76.2479L280.409 74.8029L283.311 61.3057L287.275 51.5643L299.635 35.3882L314.882 36.7466L328.861 38.6082L341.276 40.9462L351.802 43.7279L360.096 46.9155L365.803 50.4819L405.278 45.4002L409.409 50.6226L450.947 50.1464L492.61 50.4548L533.98 49.1993" stroke="#5FFF00" stroke-width="0.8" stroke-linecap="round" stroke-linejoin="round" class="jeWJzOyL_56"></path>
<path d="M253.766 76.2695L253.56 74.9328L250.328 61.4572L245.915 51.7483" stroke="#5FFF00" stroke-width="0.8" stroke-linecap="round" stroke-linejoin="round" class="jeWJzOyL_57"></path>
<path d="M289.121 128.543L288.227 129.414L286.738 130.226L284.692 130.967L282.142 131.617L279.126 132.158L275.699 132.569L271.909 132.834L267.983 132.937L264.156 132.872L260.506 132.65L257.112 132.282L254.036 131.785L251.356 131.162L249.147 130.437L247.48 129.62L246.364 128.673L246.045 127.785" stroke="#5FFF00" stroke-width="0.8" stroke-linecap="round" stroke-linejoin="round" class="jeWJzOyL_58"></path>
<path d="M285.163 140.822L284.432 141.548L283.214 142.224L281.541 142.841L279.462 143.377L277.009 143.826L274.215 144.167L271.129 144.394L267.935 144.475L264.821 144.421L261.849 144.232L259.082 143.929L256.581 143.518L254.399 143.003L252.596 142.397L251.232 141.715L250.268 140.887L250.046 140.189" stroke="#5FFF00" stroke-width="0.8" stroke-linecap="round" stroke-linejoin="round" class="jeWJzOyL_59"></path>
<path d="M219.905 71.8426L219.348 71.1174L218.974 70.8956L212.158 66.8745L206.781 63.6978" stroke="#5FFF00" stroke-width="0.8" stroke-linecap="round" stroke-linejoin="round" class="jeWJzOyL_60"></path>
<path d="M286.3 76.1071L286.446 75.3873L290.734 62.0037L296.592 52.4301L314.882 36.7465L333.144 26.5397L351.152 19.4718L368.716 13.3022L385.684 5.91504L421.526 10.3041L454.087 15.8783L482.615 22.6161" stroke="#5FFF00" stroke-width="0.8" stroke-linecap="round" stroke-linejoin="round" class="jeWJzOyL_61"></path>
<path d="M219.597 71.7505L219.348 71.1173L220.138 69.2989L222.336 67.5725" stroke="#5FFF00" stroke-width="0.8" stroke-linecap="round" stroke-linejoin="round" class="jeWJzOyL_62"></path>
<path d="M258.443 192.094L258.27 191.64L256.381 179.82L256.224 178.824" stroke="#5FFF00" stroke-width="0.8" stroke-linecap="round" stroke-linejoin="round" class="jeWJzOyL_63"></path>
<path d="M325.26 110.711L295.228 111.458L294.459 111.474L292.845 111.517L290.414 111.577L287.198 111.652L283.251 111.755L278.649 111.869L273.479 111.993L271.497 112.042L268.081 111.988L262.812 111.896L257.821 111.815L253.229 111.734L249.179 111.669L245.774 111.609L243.105 111.566L241.253 111.533L240.278 111.517H240.219L219.076 111.16" stroke="#5FFF00" stroke-width="0.8" stroke-linecap="round" stroke-linejoin="round" class="jeWJzOyL_64"></path>
<path d="M325.678 67.7999L327.6 67.486L330.778 66.9719L344.898 64.6773L364.249 61.5384L367.876 57.9449L368.445 54.2324L365.803 50.4819" stroke="#5FFF00" stroke-width="0.8" stroke-linecap="round" stroke-linejoin="round" class="jeWJzOyL_65"></path>
<path d="M315.927 71.7396L317.475 71.5665L318.45 71.4582L330.269 70.1161L348.418 68.0596L382.522 70.1431L417.899 75.6578L454.218 82.1575L491.132 87.0769" stroke="#5FFF00" stroke-width="0.8" stroke-linecap="round" stroke-linejoin="round" class="jeWJzOyL_66"></path>
<path d="M297.881 75.041L297.924 74.9545L303.468 64.1524L312.608 55.0766L341.276 40.9462L370.096 32.2656L385.002 36.0701L396.902 40.4592L433.789 37.0984L470.346 34.5223L506.221 30.4905" stroke="#5FFF00" stroke-width="0.8" stroke-linecap="round" stroke-linejoin="round" class="jeWJzOyL_67"></path>
<path d="M241.638 75.5119L241.584 75.3874L236.175 63.2756" stroke="#5FFF00" stroke-width="0.8" stroke-linecap="round" stroke-linejoin="round" class="jeWJzOyL_68"></path>
<path d="M258.915 192.527L257.025 180.048L256.755 179.874L256.43 179.366L254.827 166.74" stroke="#5FFF00" stroke-width="0.8" stroke-linecap="round" stroke-linejoin="round" class="jeWJzOyL_69"></path>
<path d="M259.646 192.928L257.913 180.486L257.892 180.356L256.484 167.736L256.468 167.589L254.887 155.018L254.865 154.861L252.629 142.587L252.597 142.397L249.148 130.437L244.686 116.534L244.594 116.252L243.105 111.566" stroke="#5FFF00" stroke-width="0.8" stroke-linecap="round" stroke-linejoin="round" class="jeWJzOyL_70"></path>
<path d="M260.615 193.274L259.083 180.881L259.072 180.778L257.81 168.06L256.397 155.386L254.399 143.003L251.411 131.357L251.357 131.168L247.404 117.367L247.339 117.135L245.774 111.609" stroke="#5FFF00" stroke-width="0.8" stroke-linecap="round" stroke-linejoin="round" class="jeWJzOyL_71"></path>
<path d="M230.847 74.1264L230.766 73.9965L225.818 65.9761L215.07 57.3225" stroke="#5FFF00" stroke-width="0.8" stroke-linecap="round" stroke-linejoin="round" class="jeWJzOyL_72"></path>
<path d="M222.499 72.5083L222.396 72.3676L220.138 69.299L207.831 61.441L168.827 51.1638" stroke="#5FFF00" stroke-width="0.8" stroke-linecap="round" stroke-linejoin="round" class="jeWJzOyL_73"></path>
<path d="M315.163 71.9183L315.239 71.8209L315.997 70.8251L316.441 70.5653L323.176 66.5389L328.547 63.3351L347.578 58.9947L368.445 54.2323L409.409 50.6226" stroke="#5FFF00" stroke-width="0.8" stroke-linecap="round" stroke-linejoin="round" class="jeWJzOyL_74"></path>
<path d="M250.609 76.2154L247.566 76.0476L246.641 75.9989L245.341 75.9285L241.735 75.7283L233.1 75.2521L218.2 80.4745L195.108 78.1907L174.517 75.1059L156.954 71.3285L142.887 66.9502L132.752 62.0741L126.91 56.803L125.719 51.4506L128.984 46.3418L136.228 41.5631L147.035 37.1849L160.998 33.283L191.069 41.693L202.98 39.2306L216.749 37.2066L236.505 52.7224L242.829 62.2419L247.464 75.5876L247.566 76.0476" stroke="#5FFF00" stroke-width="0.8" stroke-linecap="round" stroke-linejoin="round" class="jeWJzOyL_75"></path>
<path d="M215.85 70.625L215.546 70.4518L212.195 68.5793L207.658 66.0357L202.72 65.1157L188.724 62.5126L167.955 58.6431" stroke="#5FFF00" stroke-width="0.8" stroke-linecap="round" stroke-linejoin="round" class="jeWJzOyL_76"></path>
</g>
<defs>
<clipPath id="clip0">
<path width="536" height="194.4" fill="white" d="M0 0 L536 0 L536 194.4 L0 194.4 Z" class="jeWJzOyL_77"></path>
</clipPath>
</defs>
<style data-made-with="vivus-instant">.jeWJzOyL_0{stroke-dasharray:86 88;stroke-dashoffset:87;animation:jeWJzOyL_draw 2000ms ease-out 0ms forwards;}.jeWJzOyL_1{stroke-dasharray:241 243;stroke-dashoffset:242;animation:jeWJzOyL_draw 2000ms ease-out 12ms forwards;}.jeWJzOyL_2{stroke-dasharray:203 205;stroke-dashoffset:204;animation:jeWJzOyL_draw 2000ms ease-out 25ms forwards;}.jeWJzOyL_3{stroke-dasharray:251 253;stroke-dashoffset:252;animation:jeWJzOyL_draw 2000ms ease-out 38ms forwards;}.jeWJzOyL_4{stroke-dasharray:60 62;stroke-dashoffset:61;animation:jeWJzOyL_draw 2000ms ease-out 51ms forwards;}.jeWJzOyL_5{stroke-dasharray:190 192;stroke-dashoffset:191;animation:jeWJzOyL_draw 2000ms ease-out 64ms forwards;}.jeWJzOyL_6{stroke-dasharray:218 220;stroke-dashoffset:219;animation:jeWJzOyL_draw 2000ms ease-out 77ms forwards;}.jeWJzOyL_7{stroke-dasharray:172 174;stroke-dashoffset:173;animation:jeWJzOyL_draw 2000ms ease-out 90ms forwards;}.jeWJzOyL_8{stroke-dasharray:290 292;stroke-dashoffset:291;animation:jeWJzOyL_draw 2000ms ease-out 103ms forwards;}.jeWJzOyL_9{stroke-dasharray:205 207;stroke-dashoffset:206;animation:jeWJzOyL_draw 2000ms ease-out 116ms forwards;}.jeWJzOyL_10{stroke-dasharray:148 150;stroke-dashoffset:149;animation:jeWJzOyL_draw 2000ms ease-out 129ms forwards;}.jeWJzOyL_11{stroke-dasharray:391 393;stroke-dashoffset:392;animation:jeWJzOyL_draw 2000ms ease-out 142ms forwards;}.jeWJzOyL_12{stroke-dasharray:114 116;stroke-dashoffset:115;animation:jeWJzOyL_draw 2000ms ease-out 155ms forwards;}.jeWJzOyL_13{stroke-dasharray:212 214;stroke-dashoffset:213;animation:jeWJzOyL_draw 2000ms ease-out 168ms forwards;}.jeWJzOyL_14{stroke-dasharray:214 216;stroke-dashoffset:215;animation:jeWJzOyL_draw 2000ms ease-out 181ms forwards;}.jeWJzOyL_15{stroke-dasharray:1344 1346;stroke-dashoffset:1345;animation:jeWJzOyL_draw 2000ms ease-out 194ms forwards;}.jeWJzOyL_16{stroke-dasharray:160 162;stroke-dashoffset:161;animation:jeWJzOyL_draw 2000ms ease-out 207ms forwards;}.jeWJzOyL_17{stroke-dasharray:69 71;stroke-dashoffset:70;animation:jeWJzOyL_draw 2000ms ease-out 220ms forwards;}.jeWJzOyL_18{stroke-dasharray:22 24;stroke-dashoffset:23;animation:jeWJzOyL_draw 2000ms ease-out 233ms forwards;}.jeWJzOyL_19{stroke-dasharray:14 16;stroke-dashoffset:15;animation:jeWJzOyL_draw 2000ms ease-out 246ms forwards;}.jeWJzOyL_20{stroke-dasharray:42 44;stroke-dashoffset:43;animation:jeWJzOyL_draw 2000ms ease-out 259ms forwards;}.jeWJzOyL_21{stroke-dasharray:28 30;stroke-dashoffset:29;animation:jeWJzOyL_draw 2000ms ease-out 272ms forwards;}.jeWJzOyL_22{stroke-dasharray:14 16;stroke-dashoffset:15;animation:jeWJzOyL_draw 2000ms ease-out 285ms forwards;}.jeWJzOyL_23{stroke-dasharray:68 70;stroke-dashoffset:69;animation:jeWJzOyL_draw 2000ms ease-out 298ms forwards;}.jeWJzOyL_24{stroke-dasharray:84 86;stroke-dashoffset:85;animation:jeWJzOyL_draw 2000ms ease-out 311ms forwards;}.jeWJzOyL_25{stroke-dasharray:83 85;stroke-dashoffset:84;animation:jeWJzOyL_draw 2000ms ease-out 324ms forwards;}.jeWJzOyL_26{stroke-dasharray:83 85;stroke-dashoffset:84;animation:jeWJzOyL_draw 2000ms ease-out 337ms forwards;}.jeWJzOyL_27{stroke-dasharray:83 85;stroke-dashoffset:84;animation:jeWJzOyL_draw 2000ms ease-out 350ms forwards;}.jeWJzOyL_28{stroke-dasharray:243 245;stroke-dashoffset:244;animation:jeWJzOyL_draw 2000ms ease-out 363ms forwards;}.jeWJzOyL_29{stroke-dasharray:11 13;stroke-dashoffset:12;animation:jeWJzOyL_draw 2000ms ease-out 376ms forwards;}.jeWJzOyL_30{stroke-dasharray:924 926;stroke-dashoffset:925;animation:jeWJzOyL_draw 2000ms ease-out 389ms forwards;}.jeWJzOyL_31{stroke-dasharray:241 243;stroke-dashoffset:242;animation:jeWJzOyL_draw 2000ms ease-out 402ms forwards;}.jeWJzOyL_32{stroke-dasharray:223 225;stroke-dashoffset:224;animation:jeWJzOyL_draw 2000ms ease-out 415ms forwards;}.jeWJzOyL_33{stroke-dasharray:83 85;stroke-dashoffset:84;animation:jeWJzOyL_draw 2000ms ease-out 428ms forwards;}.jeWJzOyL_34{stroke-dasharray:83 85;stroke-dashoffset:84;animation:jeWJzOyL_draw 2000ms ease-out 441ms forwards;}.jeWJzOyL_35{stroke-dasharray:83 85;stroke-dashoffset:84;animation:jeWJzOyL_draw 2000ms ease-out 454ms forwards;}.jeWJzOyL_36{stroke-dasharray:7 9;stroke-dashoffset:8;animation:jeWJzOyL_draw 2000ms ease-out 467ms forwards;}.jeWJzOyL_37{stroke-dasharray:83 85;stroke-dashoffset:84;animation:jeWJzOyL_draw 2000ms ease-out 480ms forwards;}.jeWJzOyL_38{stroke-dasharray:84 86;stroke-dashoffset:85;animation:jeWJzOyL_draw 2000ms ease-out 493ms forwards;}.jeWJzOyL_39{stroke-dasharray:238 240;stroke-dashoffset:239;animation:jeWJzOyL_draw 2000ms ease-out 506ms forwards;}.jeWJzOyL_40{stroke-dasharray:36 38;stroke-dashoffset:37;animation:jeWJzOyL_draw 2000ms ease-out 519ms forwards;}.jeWJzOyL_41{stroke-dasharray:58 60;stroke-dashoffset:59;animation:jeWJzOyL_draw 2000ms ease-out 532ms forwards;}.jeWJzOyL_42{stroke-dasharray:6 8;stroke-dashoffset:7;animation:jeWJzOyL_draw 2000ms ease-out 545ms forwards;}.jeWJzOyL_43{stroke-dasharray:118 120;stroke-dashoffset:119;animation:jeWJzOyL_draw 2000ms ease-out 558ms forwards;}.jeWJzOyL_44{stroke-dasharray:90 92;stroke-dashoffset:91;animation:jeWJzOyL_draw 2000ms ease-out 571ms forwards;}.jeWJzOyL_45{stroke-dasharray:11 13;stroke-dashoffset:12;animation:jeWJzOyL_draw 2000ms ease-out 584ms forwards;}.jeWJzOyL_46{stroke-dasharray:1217 1219;stroke-dashoffset:1218;animation:jeWJzOyL_draw 2000ms ease-out 597ms forwards;}.jeWJzOyL_47{stroke-dasharray:9 11;stroke-dashoffset:10;animation:jeWJzOyL_draw 2000ms ease-out 610ms forwards;}.jeWJzOyL_48{stroke-dasharray:20 22;stroke-dashoffset:21;animation:jeWJzOyL_draw 2000ms ease-out 623ms forwards;}.jeWJzOyL_49{stroke-dasharray:185 187;stroke-dashoffset:186;animation:jeWJzOyL_draw 2000ms ease-out 636ms forwards;}.jeWJzOyL_50{stroke-dasharray:87 89;stroke-dashoffset:88;animation:jeWJzOyL_draw 2000ms ease-out 649ms forwards;}.jeWJzOyL_51{stroke-dasharray:11 13;stroke-dashoffset:12;animation:jeWJzOyL_draw 2000ms ease-out 662ms forwards;}.jeWJzOyL_52{stroke-dasharray:77 79;stroke-dashoffset:78;animation:jeWJzOyL_draw 2000ms ease-out 675ms forwards;}.jeWJzOyL_53{stroke-dasharray:197 199;stroke-dashoffset:198;animation:jeWJzOyL_draw 2000ms ease-out 688ms forwards;}.jeWJzOyL_54{stroke-dasharray:45 47;stroke-dashoffset:46;animation:jeWJzOyL_draw 2000ms ease-out 701ms forwards;}.jeWJzOyL_55{stroke-dasharray:57 59;stroke-dashoffset:58;animation:jeWJzOyL_draw 2000ms ease-out 714ms forwards;}.jeWJzOyL_56{stroke-dasharray:286 288;stroke-dashoffset:287;animation:jeWJzOyL_draw 2000ms ease-out 727ms forwards;}.jeWJzOyL_57{stroke-dasharray:26 28;stroke-dashoffset:27;animation:jeWJzOyL_draw 2000ms ease-out 740ms forwards;}.jeWJzOyL_58{stroke-dasharray:46 48;stroke-dashoffset:47;animation:jeWJzOyL_draw 2000ms ease-out 753ms forwards;}.jeWJzOyL_59{stroke-dasharray:38 40;stroke-dashoffset:39;animation:jeWJzOyL_draw 2000ms ease-out 766ms forwards;}.jeWJzOyL_60{stroke-dasharray:16 18;stroke-dashoffset:17;animation:jeWJzOyL_draw 2000ms ease-out 779ms forwards;}.jeWJzOyL_61{stroke-dasharray:226 228;stroke-dashoffset:227;animation:jeWJzOyL_draw 2000ms ease-out 792ms forwards;}.jeWJzOyL_62{stroke-dasharray:6 8;stroke-dashoffset:7;animation:jeWJzOyL_draw 2000ms ease-out 805ms forwards;}.jeWJzOyL_63{stroke-dasharray:14 16;stroke-dashoffset:15;animation:jeWJzOyL_draw 2000ms ease-out 818ms forwards;}.jeWJzOyL_64{stroke-dasharray:107 109;stroke-dashoffset:108;animation:jeWJzOyL_draw 2000ms ease-out 831ms forwards;}.jeWJzOyL_65{stroke-dasharray:53 55;stroke-dashoffset:54;animation:jeWJzOyL_draw 2000ms ease-out 844ms forwards;}.jeWJzOyL_66{stroke-dasharray:177 179;stroke-dashoffset:178;animation:jeWJzOyL_draw 2000ms ease-out 857ms forwards;}.jeWJzOyL_67{stroke-dasharray:226 228;stroke-dashoffset:227;animation:jeWJzOyL_draw 2000ms ease-out 870ms forwards;}.jeWJzOyL_68{stroke-dasharray:14 16;stroke-dashoffset:15;animation:jeWJzOyL_draw 2000ms ease-out 883ms forwards;}.jeWJzOyL_69{stroke-dasharray:27 29;stroke-dashoffset:28;animation:jeWJzOyL_draw 2000ms ease-out 896ms forwards;}.jeWJzOyL_70{stroke-dasharray:84 86;stroke-dashoffset:85;animation:jeWJzOyL_draw 2000ms ease-out 909ms forwards;}.jeWJzOyL_71{stroke-dasharray:84 86;stroke-dashoffset:85;animation:jeWJzOyL_draw 2000ms ease-out 922ms forwards;}.jeWJzOyL_72{stroke-dasharray:24 26;stroke-dashoffset:25;animation:jeWJzOyL_draw 2000ms ease-out 935ms forwards;}.jeWJzOyL_73{stroke-dasharray:59 61;stroke-dashoffset:60;animation:jeWJzOyL_draw 2000ms ease-out 948ms forwards;}.jeWJzOyL_74{stroke-dasharray:99 101;stroke-dashoffset:100;animation:jeWJzOyL_draw 2000ms ease-out 961ms forwards;}.jeWJzOyL_75{stroke-dasharray:284 286;stroke-dashoffset:285;animation:jeWJzOyL_draw 2000ms ease-out 974ms forwards;}.jeWJzOyL_76{stroke-dasharray:50 52;stroke-dashoffset:51;animation:jeWJzOyL_draw 2000ms ease-out 987ms forwards;}.jeWJzOyL_77{stroke-dasharray:1461 1463;stroke-dashoffset:1462;animation:jeWJzOyL_draw 2000ms ease-out 1000ms forwards;}@keyframes jeWJzOyL_draw{100%{stroke-dashoffset:0;}}@keyframes jeWJzOyL_fade{0%{stroke-opacity:1;}94.44444444444444%{stroke-opacity:1;}100%{stroke-opacity:0;}}</style></svg>
