<svg width="717" height="901" viewBox="0 0 717 901" fill="none" xmlns="http://www.w3.org/2000/svg" style="">
<g clip-path="url(#clip0_1629_4423)">
<path d="M367.831 809.06L316.301 894.64L238.721 898.42" stroke="#10E80C" stroke-linecap="round" stroke-linejoin="round" class="vDldulFC_0"></path>
<path d="M57.5703 816.14L113.71 734.51L168.68 651.66L222.23 567.74L274.14 482.89L324.2 397.26L372.22 310.99L440.48 306.5L483.58 219.28L524.12 131.82L583.13 125.43L638.1 118L688.66 109.62" stroke="#10E80C" stroke-linecap="round" stroke-linejoin="round" class="vDldulFC_1"></path>
<path d="M372.221 310.99L418.031 224.22L461.491 137.09L502.471 49.7199L562.001 44.2499L617.661 37.7899L669.081 30.4099" stroke="#10E80C" stroke-linecap="round" stroke-linejoin="round" class="vDldulFC_2"></path>
<path d="M561.999 44.25L524.119 131.82" stroke="#10E80C" stroke-linecap="round" stroke-linejoin="round" class="vDldulFC_3"></path>
<path d="M617.659 37.79L583.129 125.43L545.789 213.08" stroke="#10E80C" stroke-linecap="round" stroke-linejoin="round" class="vDldulFC_4"></path>
<path d="M669.08 30.41L638.1 118L604.21 205.72L567.47 293.48L527.95 381.16L485.72 468.65L440.91 555.82L370.29 561.52L297.19 565.52L222.23 567.74L210.35 553.59L198.81 539.84L187.58 526.47L176.66 513.47L166.03 500.81L155.69 488.49L145.61 476.49L135.79 464.8L126.23 453.4L116.9 442.3L122.66 369.31L127.26 296.03L130.71 222.49L133 148.72L134.16 74.72L134.19 0.5" stroke="#10E80C" stroke-linecap="round" stroke-linejoin="round" class="vDldulFC_5"></path>
<path d="M715.93 22.2L688.66 109.62L658.42 197.29L625.23 285.11L589.12 372.99L550.17 460.82L508.45 548.48L464.06 635.83L417.14 722.74L367.83 809.06L292.36 813.98L215.03 816.83L136.53 817.56L57.57 816.14L4 891.48L0.5 896.4" stroke="#10E80C" stroke-linecap="round" stroke-linejoin="round" class="vDldulFC_6"></path>
<path d="M417.141 722.74L344.061 728.63L268.691 732.6L191.671 734.57L113.711 734.51" stroke="#10E80C" stroke-linecap="round" stroke-linejoin="round" class="vDldulFC_7"></path>
<path d="M464.06 635.83L393.64 642.53L320.51 647.44L245.3 650.5L168.68 651.66" stroke="#10E80C" stroke-linecap="round" stroke-linejoin="round" class="vDldulFC_8"></path>
<path d="M508.45 548.48L440.91 555.82L393.64 642.53L344.06 728.63L292.36 813.98L238.72 898.42L159.75 900" stroke="#10E80C" stroke-linecap="round" stroke-linejoin="round" class="vDldulFC_9"></path>
<path d="M550.17 460.82L485.72 468.65L417.86 474.99L370.29 561.52L320.51 647.44L268.69 732.6L215.03 816.83L159.75 900L80.0996 899.32" stroke="#10E80C" stroke-linecap="round" stroke-linejoin="round" class="vDldulFC_10"></path>
<path d="M94.2402 648.55L102 587.31" stroke="#10E80C" stroke-linecap="round" stroke-linejoin="round" class="vDldulFC_11"></path>
<path d="M625.23 285.11L567.47 293.48L505.74 300.64L440.48 306.5L394.96 393.38L347.14 479.76L297.19 565.52L245.3 650.5L191.67 734.57L136.53 817.56L80.1 899.32L0.5 896.4" stroke="#10E80C" stroke-linecap="round" stroke-linejoin="round" class="vDldulFC_12"></path>
<path d="M658.42 197.29L604.21 205.72L545.79 213.08L505.74 300.64L463.06 387.98L417.86 474.99L347.14 479.76L274.14 482.89L257.08 470.1L240.49 457.66L224.36 445.56L208.66 433.79L193.37 422.33L178.49 411.17L163.99 400.3L149.86 389.7L136.08 379.38L144.75 305.02L152.2 230.37L158.43 155.45L163.44 80.2999L167.23 4.91992" stroke="#10E80C" stroke-linecap="round" stroke-linejoin="round" class="vDldulFC_13"></path>
<path d="M382.5 33.68L424.62 30.18L464.27 25.96L514.26 29.82L565.38 33.76L617.66 37.79" stroke="#10E80C" stroke-linecap="round" stroke-linejoin="round" class="vDldulFC_14"></path>
<path d="M461.48 44.24L502.47 49.72" stroke="#10E80C" stroke-linecap="round" stroke-linejoin="round" class="vDldulFC_15"></path>
<path d="M421.5 38.8999L461.48 44.2399L515.11 39.4499L562 44.2499" stroke="#10E80C" stroke-linecap="round" stroke-linejoin="round" class="vDldulFC_16"></path>
<path d="M344.449 28.6001L380.939 25.7001L415.359 22.1901L447.479 18.1101L501.179 21.0901L535.129 15.6001" stroke="#10E80C" stroke-linecap="round" stroke-linejoin="round" class="vDldulFC_17"></path>
<path d="M134.189 0.5L136.869 0.86L138.609 1.09L138.789 1.11L167.229 4.92L201.039 9.43L235.629 14.06L271.049 18.79L307.309 23.64L344.449 28.6L382.499 33.68L421.499 38.9L469.329 34.76L514.259 29.82L555.989 24.13L594.239 17.76L654.499 19.96L715.929 22.2" stroke="#10E80C" stroke-linecap="round" stroke-linejoin="round" class="vDldulFC_18"></path>
<path d="M307.311 23.6399L338.251 21.3299L367.501 18.4999L394.871 15.1799L420.181 11.4099" stroke="#10E80C" stroke-linecap="round" stroke-linejoin="round" class="vDldulFC_19"></path>
<path d="M134.16 74.72L163.44 80.3L193.41 86.01L224.1 91.86L255.54 97.85L287.76 103.98L320.77 110.28L354.62 116.73L389.34 123.34L424.95 130.13L461.49 137.09L524.12 131.82" stroke="#10E80C" stroke-linecap="round" stroke-linejoin="round" class="vDldulFC_20"></path>
<path d="M133 148.72L158.43 155.45L184.47 162.35L211.15 169.42L238.5 176.67L266.54 184.09L295.29 191.71L324.79 199.52L355.05 207.54L386.13 215.77L418.03 224.22L483.58 219.28L545.79 213.08" stroke="#10E80C" stroke-linecap="round" stroke-linejoin="round" class="vDldulFC_21"></path>
<path d="M271.051 18.7901L296.521 17.0601L320.651 14.8901L343.291 12.3201L364.281 9.37012" stroke="#10E80C" stroke-linecap="round" stroke-linejoin="round" class="vDldulFC_22"></path>
<path d="M130.711 222.49L152.201 230.37L174.221 238.44L196.801 246.71L219.951 255.19L243.691 263.89L268.061 272.82L293.071 281.99L318.751 291.4L345.121 301.06L372.221 310.99" stroke="#10E80C" stroke-linecap="round" stroke-linejoin="round" class="vDldulFC_23"></path>
<path d="M80.9395 709.47L86.5594 687.35L89.7694 673.12L94.2394 648.55L103.029 600.32L101.999 587.3L110.009 514.97L116.899 442.3" stroke="#10E80C" stroke-linecap="round" stroke-linejoin="round" class="vDldulFC_24"></path>
<path d="M0.5 896.4L9.78 877.7L12.96 872.84L50.07 816.01L61.56 798.42L112.39 717.89L162.06 636.24L210.35 553.59L257.08 470.1L302.06 385.88L345.12 301.06L386.13 215.77L424.95 130.13L461.48 44.24" stroke="#10E80C" stroke-linecap="round" stroke-linejoin="round" class="vDldulFC_25"></path>
<path d="M9.7793 877.7L18.7993 859.53L21.6593 854.73L31.8193 837.67L44.7693 815.91L65.4293 781.21L111.099 701.74L155.619 621.25L198.809 539.84L240.489 457.66L280.519 374.81L318.749 291.4L355.049 207.54L389.339 123.34L421.499 38.8999" stroke="#10E80C" stroke-linecap="round" stroke-linejoin="round" class="vDldulFC_26"></path>
<path d="M235.631 14.0601L255.721 12.8801L274.801 11.3601L292.731 9.51012L309.411 7.37012" stroke="#10E80C" stroke-linecap="round" stroke-linejoin="round" class="vDldulFC_27"></path>
<path d="M18.8008 859.53L27.5708 841.87L30.1308 837.12L39.1908 820.27L48.0108 803.86L69.2008 764.47L109.851 686.04L149.371 606.67L187.581 526.47L224.361 445.56L259.561 364.03L293.071 281.99L324.791 199.52L354.621 116.73L382.501 33.6799" stroke="#10E80C" stroke-linecap="round" stroke-linejoin="round" class="vDldulFC_28"></path>
<path d="M127.26 296.03L144.75 305.02L162.68 314.24L181.06 323.69L199.93 333.38L219.28 343.33L239.15 353.54L259.56 364.03L280.52 374.81L302.06 385.88L324.2 397.26L394.96 393.38L463.06 387.98L527.95 381.16L589.12 372.99" stroke="#10E80C" stroke-linecap="round" stroke-linejoin="round" class="vDldulFC_29"></path>
<path d="M27.5703 841.87L36.1003 824.69L46.3603 803.34L54.1503 787.13L72.8603 748.2L78.1903 736.68L108.64 670.77L143.28 592.49L176.66 513.47L208.66 433.79L239.15 353.54L268.06 272.82L295.29 191.71L320.77 110.28L344.45 28.6001" stroke="#10E80C" stroke-linecap="round" stroke-linejoin="round" class="vDldulFC_30"></path>
<path d="M57.5703 816.14L61.5603 798.42L65.4303 781.21L69.2003 764.47L72.8603 748.2L76.4303 732.37L81.0503 721L107.46 655.92L137.36 578.7L166.03 500.81L193.37 422.33L219.28 343.33L243.69 263.89L266.54 184.09L287.76 103.98L307.31 23.6399" stroke="#10E80C" stroke-linecap="round" stroke-linejoin="round" class="vDldulFC_31"></path>
<path d="M168.68 651.66L162.06 636.24L155.62 621.25L149.37 606.67L143.28 592.49L137.36 578.7L131.6 565.27L125.99 552.2L120.52 539.47L115.2 527.07L110.01 514.97" stroke="#10E80C" stroke-linecap="round" stroke-linejoin="round" class="vDldulFC_32"></path>
<path d="M136.08 379.38L122.65 369.31" stroke="#10E80C" stroke-linecap="round" stroke-linejoin="round" class="vDldulFC_33"></path>
<path d="M113.709 734.51L112.389 717.89L111.099 701.74L109.849 686.04L108.639 670.77L107.459 655.92L106.309 641.46L105.189 627.38L104.089 613.68L103.029 600.32L115.199 527.07L126.229 453.4L136.079 379.38" stroke="#10E80C" stroke-linecap="round" stroke-linejoin="round" class="vDldulFC_34"></path>
<path d="M201.039 9.4299L215.819 8.7899L229.889 7.8899L243.159 6.7599L255.519 5.3999" stroke="#10E80C" stroke-linecap="round" stroke-linejoin="round" class="vDldulFC_35"></path>
<path d="M167.23 4.91997L176.79 4.78997L185.91 4.49997L194.54 4.05997L202.6 3.46997" stroke="#10E80C" stroke-linecap="round" stroke-linejoin="round" class="vDldulFC_36"></path>
<path d="M134.189 0.5L138.599 0.88L142.469 1.21L176.789 4.79L215.819 8.79L255.719 12.88L296.519 17.06L338.249 21.33L380.939 25.7L424.619 30.18L469.329 34.76L515.109 39.45L565.379 33.76L611.939 27.24L669.079 30.41L715.929 22.2" stroke="#10E80C" stroke-linecap="round" stroke-linejoin="round" class="vDldulFC_37"></path>
<path d="M142.83 1.17993L146.84 1.40993L194.54 4.05993L243.16 6.75993L292.73 9.50993L343.29 12.3199L394.87 15.1799L447.48 18.1099L477.11 13.4799L535.13 15.5999L594.24 17.7599" stroke="#10E80C" stroke-linecap="round" stroke-linejoin="round" class="vDldulFC_38"></path>
<path d="M46.3594 803.34L60.1294 770.85L66.7394 755.25L76.4294 732.37L79.8994 716.96L88.8094 691.48L106.309 641.46L131.599 565.27L155.689 488.49L178.489 411.17L199.929 333.38L219.949 255.19L238.499 176.67L255.539 97.85L271.049 18.79" stroke="#10E80C" stroke-linecap="round" stroke-linejoin="round" class="vDldulFC_39"></path>
<path d="M60.1309 770.85L71.6009 739.58L79.9009 716.96L83.2709 701.96L86.5609 687.35L89.9209 676.59L105.191 627.38L125.991 552.2L145.611 476.49L163.991 400.3L181.061 323.69L196.801 246.71L211.151 169.42L224.101 91.8601L235.631 14.0601" stroke="#10E80C" stroke-linecap="round" stroke-linejoin="round" class="vDldulFC_40"></path>
<path d="M147.211 1.42993L150.621 1.54993L202.601 3.46993L255.521 5.39993L309.411 7.36993L364.281 9.36993L420.181 11.4099L477.111 13.4799" stroke="#10E80C" stroke-linecap="round" stroke-linejoin="round" class="vDldulFC_41"></path>
<path d="M71.5996 739.58L80.9396 709.47L83.2696 701.96L89.9196 676.59L92.4796 662.49L104.09 613.68L120.52 539.47L135.79 464.8L149.86 389.7L162.68 314.24L174.22 238.44L184.47 162.35L193.41 86.0099L201.04 9.42993" stroke="#10E80C" stroke-linecap="round" stroke-linejoin="round" class="vDldulFC_42"></path>
<path d="M138.6 0.879883L140.22 1.03988L142.64 1.21988L144.87 1.33988L185.91 4.49988L229.89 7.88988L274.8 11.3599L320.65 14.8899L367.5 18.4999L415.36 22.1899L464.27 25.9599L501.18 21.0899L555.99 24.1299L611.94 27.2399L654.5 19.9599" stroke="#10E80C" stroke-linecap="round" stroke-linejoin="round" class="vDldulFC_43"></path>
<path width="930" height="752" transform="rotate(-90 -1 930)" fill="url(#paint0_linear_1629_4423)" d="M 13,930 L 915,930 A 14,14,0,0,1,929,944 L 929,1668 A 14,14,0,0,1,915,1682 L 13,1682 A 14,14,0,0,1,-1,1668 L -1,944 A 14,14,0,0,1,13,930" class="vDldulFC_44"></path>
</g>
<defs>
<linearGradient id="paint0_linear_1629_4423" x1="-53.5" y1="1682" x2="929" y2="1682" gradientUnits="userSpaceOnUse">
<stop offset="0.121228" stop-color="#010C04"></stop>
<stop offset="1" stop-color="#010C04" stop-opacity="0"></stop>
</linearGradient>
<clipPath id="clip0_1629_4423">
<path width="716.43" height="900.5" fill="white" d="M0 0 L716.43 0 L716.43 900.5 L0 900.5 Z" class="vDldulFC_45"></path>
</clipPath>
</defs>
<style data-made-with="vivus-instant">.vDldulFC_0{stroke-dasharray:178 180;stroke-dashoffset:179;animation:vDldulFC_draw 2000ms linear 0ms forwards;}.vDldulFC_1{stroke-dasharray:1024 1026;stroke-dashoffset:1025;animation:vDldulFC_draw 2000ms linear 22ms forwards;}.vDldulFC_2{stroke-dasharray:460 462;stroke-dashoffset:461;animation:vDldulFC_draw 2000ms linear 44ms forwards;}.vDldulFC_3{stroke-dasharray:96 98;stroke-dashoffset:97;animation:vDldulFC_draw 2000ms linear 66ms forwards;}.vDldulFC_4{stroke-dasharray:190 192;stroke-dashoffset:191;animation:vDldulFC_draw 2000ms linear 88ms forwards;}.vDldulFC_5{stroke-dasharray:1399 1401;stroke-dashoffset:1400;animation:vDldulFC_draw 2000ms linear 111ms forwards;}.vDldulFC_6{stroke-dasharray:1272 1274;stroke-dashoffset:1273;animation:vDldulFC_draw 2000ms linear 133ms forwards;}.vDldulFC_7{stroke-dasharray:304 306;stroke-dashoffset:305;animation:vDldulFC_draw 2000ms linear 155ms forwards;}.vDldulFC_8{stroke-dasharray:296 298;stroke-dashoffset:297;animation:vDldulFC_draw 2000ms linear 177ms forwards;}.vDldulFC_9{stroke-dasharray:545 547;stroke-dashoffset:546;animation:vDldulFC_draw 2000ms linear 200ms forwards;}.vDldulFC_10{stroke-dasharray:711 713;stroke-dashoffset:712;animation:vDldulFC_draw 2000ms linear 222ms forwards;}.vDldulFC_11{stroke-dasharray:62 64;stroke-dashoffset:63;animation:vDldulFC_draw 2000ms linear 244ms forwards;}.vDldulFC_12{stroke-dasharray:961 963;stroke-dashoffset:962;animation:vDldulFC_draw 2000ms linear 266ms forwards;}.vDldulFC_13{stroke-dasharray:1098 1100;stroke-dashoffset:1099;animation:vDldulFC_draw 2000ms linear 288ms forwards;}.vDldulFC_14{stroke-dasharray:236 238;stroke-dashoffset:237;animation:vDldulFC_draw 2000ms linear 311ms forwards;}.vDldulFC_15{stroke-dasharray:42 44;stroke-dashoffset:43;animation:vDldulFC_draw 2000ms linear 333ms forwards;}.vDldulFC_16{stroke-dasharray:142 144;stroke-dashoffset:143;animation:vDldulFC_draw 2000ms linear 355ms forwards;}.vDldulFC_17{stroke-dasharray:192 194;stroke-dashoffset:193;animation:vDldulFC_draw 2000ms linear 377ms forwards;}.vDldulFC_18{stroke-dasharray:586 588;stroke-dashoffset:587;animation:vDldulFC_draw 2000ms linear 400ms forwards;}.vDldulFC_19{stroke-dasharray:114 116;stroke-dashoffset:115;animation:vDldulFC_draw 2000ms linear 422ms forwards;}.vDldulFC_20{stroke-dasharray:397 399;stroke-dashoffset:398;animation:vDldulFC_draw 2000ms linear 444ms forwards;}.vDldulFC_21{stroke-dasharray:424 426;stroke-dashoffset:425;animation:vDldulFC_draw 2000ms linear 466ms forwards;}.vDldulFC_22{stroke-dasharray:94 96;stroke-dashoffset:95;animation:vDldulFC_draw 2000ms linear 488ms forwards;}.vDldulFC_23{stroke-dasharray:258 260;stroke-dashoffset:259;animation:vDldulFC_draw 2000ms linear 511ms forwards;}.vDldulFC_24{stroke-dasharray:271 273;stroke-dashoffset:272;animation:vDldulFC_draw 2000ms linear 533ms forwards;}.vDldulFC_25{stroke-dasharray:971 973;stroke-dashoffset:972;animation:vDldulFC_draw 2000ms linear 555ms forwards;}.vDldulFC_26{stroke-dasharray:936 938;stroke-dashoffset:937;animation:vDldulFC_draw 2000ms linear 577ms forwards;}.vDldulFC_27{stroke-dasharray:75 77;stroke-dashoffset:76;animation:vDldulFC_draw 2000ms linear 600ms forwards;}.vDldulFC_28{stroke-dasharray:904 906;stroke-dashoffset:905;animation:vDldulFC_draw 2000ms linear 622ms forwards;}.vDldulFC_29{stroke-dasharray:488 490;stroke-dashoffset:489;animation:vDldulFC_draw 2000ms linear 644ms forwards;}.vDldulFC_30{stroke-dasharray:875 877;stroke-dashoffset:876;animation:vDldulFC_draw 2000ms linear 666ms forwards;}.vDldulFC_31{stroke-dasharray:833 835;stroke-dashoffset:834;animation:vDldulFC_draw 2000ms linear 688ms forwards;}.vDldulFC_32{stroke-dasharray:149 151;stroke-dashoffset:150;animation:vDldulFC_draw 2000ms linear 711ms forwards;}.vDldulFC_33{stroke-dasharray:17 19;stroke-dashoffset:18;animation:vDldulFC_draw 2000ms linear 733ms forwards;}.vDldulFC_34{stroke-dasharray:359 361;stroke-dashoffset:360;animation:vDldulFC_draw 2000ms linear 755ms forwards;}.vDldulFC_35{stroke-dasharray:55 57;stroke-dashoffset:56;animation:vDldulFC_draw 2000ms linear 777ms forwards;}.vDldulFC_36{stroke-dasharray:36 38;stroke-dashoffset:37;animation:vDldulFC_draw 2000ms linear 800ms forwards;}.vDldulFC_37{stroke-dasharray:586 588;stroke-dashoffset:587;animation:vDldulFC_draw 2000ms linear 822ms forwards;}.vDldulFC_38{stroke-dasharray:453 455;stroke-dashoffset:454;animation:vDldulFC_draw 2000ms linear 844ms forwards;}.vDldulFC_39{stroke-dasharray:818 820;stroke-dashoffset:819;animation:vDldulFC_draw 2000ms linear 866ms forwards;}.vDldulFC_40{stroke-dasharray:779 781;stroke-dashoffset:780;animation:vDldulFC_draw 2000ms linear 888ms forwards;}.vDldulFC_41{stroke-dasharray:331 333;stroke-dashoffset:332;animation:vDldulFC_draw 2000ms linear 911ms forwards;}.vDldulFC_42{stroke-dasharray:743 745;stroke-dashoffset:744;animation:vDldulFC_draw 2000ms linear 933ms forwards;}.vDldulFC_43{stroke-dasharray:518 520;stroke-dashoffset:519;animation:vDldulFC_draw 2000ms linear 955ms forwards;}.vDldulFC_44{stroke-dasharray:3340 3342;stroke-dashoffset:3341;animation:vDldulFC_draw 2000ms linear 977ms forwards;}.vDldulFC_45{stroke-dasharray:3234 3236;stroke-dashoffset:3235;animation:vDldulFC_draw 2000ms linear 1000ms forwards;}@keyframes vDldulFC_draw{100%{stroke-dashoffset:0;}}@keyframes vDldulFC_fade{0%{stroke-opacity:1;}94.44444444444444%{stroke-opacity:1;}100%{stroke-opacity:0;}}</style></svg>
