<svg xmlns="http://www.w3.org/2000/svg" xmlns:xlink="http://www.w3.org/1999/xlink" viewBox="0 0 278.64 199.16"><defs><style>.cls-1{fill:#757373;}.cls-2{fill:url(#linear-gradient);}.cls-3{fill:url(#linear-gradient-2);}</style><linearGradient id="linear-gradient" x1="96.04" y1="75.13" x2="183.45" y2="25.42" gradientUnits="userSpaceOnUse"><stop offset="0" stop-color="#f504fe"/><stop offset="1" stop-color="#0a64eb"/></linearGradient><linearGradient id="linear-gradient-2" x1="96.04" y1="75.13" x2="183.46" y2="25.43" xlink:href="#linear-gradient"/></defs><g id="Layer_2" data-name="Layer 2"><g id="Layer_1-2" data-name="Layer 1"><path class="cls-1" d="M24.59,138.57a6.09,6.09,0,0,1-3.9,5.79c3.51,1.07,4.8,4.81,4.8,6.69,0,6.7-5,8.85-11.24,8.85H0v-30H14.25C20.17,129.86,24.59,132.52,24.59,138.57Zm-19,3.35h8.67c3.56,0,4.72-1.51,4.72-3.22,0-1.38-1.12-3.69-4.72-3.69H5.58Zm0,12.7h8.67c2.32,0,5.62-.77,5.62-3.61s-3.3-4.12-5.62-4.12H5.58Z"/><path class="cls-1" d="M54,154.23H38.32l-2.57,5.67H29.61l13.48-30h6.17l13.48,30H56.56Zm-7.85-18.07L40.6,149H51.76Z"/><path class="cls-1" d="M86.6,137.24c-1-1.72-3.86-3.35-7.12-3.35-4.21,0-6.22,1.76-6.22,4,0,2.62,3.08,3.35,6.69,3.78,6.26.77,12.1,2.4,12.1,9.57,0,6.69-5.92,9.57-12.62,9.57-6.13,0-10.85-1.89-13.09-7.38L71.07,151c1.32,3.31,4.8,4.76,8.45,4.76s6.91-1.24,6.91-4.5c0-2.83-3-4-7-4.42-6.14-.73-11.81-2.36-11.81-9.1,0-6.18,6.1-8.71,11.63-8.75,4.68,0,9.53,1.33,11.81,6Z"/><path class="cls-1" d="M122.05,135.34v-5.49H99.56v30h22.49v-5.58H105.18v-6.78h16.87v-5.28H105.18v-6.91Z"/><path class="cls-1" d="M244.39,135.34v-5.49H221.9v30h22.49v-5.58H227.52v-6.78h16.87v-5.28H227.52v-6.91Z"/><path class="cls-1" d="M135.3,129.86v24.8h15.46v5.24H129.64v-30Z"/><path class="cls-1" d="M179.29,154.23h-15.7L161,159.9h-6.14l13.48-30h6.18l13.47,30h-6.18Zm-7.85-18.07L165.86,149H177Z"/><path class="cls-1" d="M201.48,142.26l8-12.4h6.83v.25l-12,17.38V159.9h-5.66V147.49L187.1,130.11v-.25h6.74Z"/><path class="cls-1" d="M278.64,159.92H271.9l-8.76-10h-5.45v10H252V129.83c4.76,0,9.52,0,14.29,0,7.08,0,10.81,4.76,10.81,10,0,4.12-1.88,8.29-7.59,9.44l9.1,10.26Zm-20.95-24.77v9.62h8.63c3.6,0,5.15-2.41,5.15-4.81s-1.59-4.81-5.15-4.81Z"/><path class="cls-1" d="M84,196a11.34,11.34,0,0,1-8.18,3.2c-8,0-11.39-5.51-11.42-11.11S68,176.7,75.83,176.7a11.11,11.11,0,0,1,7.9,3.29L81,182.61a7.38,7.38,0,0,0-5.2-2c-5.2,0-7.45,3.88-7.42,7.47s2.09,7.3,7.42,7.3a7.89,7.89,0,0,0,5.41-2.19Z"/><path class="cls-1" d="M103.7,194.64H92.44l-1.85,4.06h-4.4l9.66-21.54h4.43L110,198.7h-4.44Zm-5.63-12.95-4,9.16h8Z"/><path class="cls-1" d="M124.68,192.38h-6.1v6.33h-4.06V177.18c3.39,0,6.77,0,10.16,0C135.2,177.15,135.23,192.38,124.68,192.38Zm-6.1-3.73h6.1c5.2,0,5.17-7.63,0-7.63h-6.1Z"/><path class="cls-1" d="M138.43,198.7V177.16h4V198.7Z"/><path class="cls-1" d="M155.9,180.85h-6.83v-3.69h17.72v3.69H160V198.7H155.9Z"/><path class="cls-1" d="M187.62,194.64H176.36l-1.85,4.06h-4.4l9.66-21.54h4.43l9.66,21.54h-4.43ZM182,181.69l-4,9.16h8Z"/><path class="cls-1" d="M203.15,177.16v17.78h11.08v3.76H199.09V177.16Z"/><path class="cls-2" d="M139.32,0,95.56,25.26V75.78L139.32,101l43.75-25.26V25.28Zm.82,89.48a27.25,27.25,0,0,0-6,.69l-10.93-6.31a36.15,36.15,0,0,1,16.91-4.18,36.12,36.12,0,0,1,16,3.74l-11.25,6.5A25.86,25.86,0,0,0,140.14,89.48Zm0-16.66a43.62,43.62,0,0,0-11.23,1.48,43.06,43.06,0,0,0-12.53,5.6l-9.3-5.38A53,53,0,0,1,172.45,74l-9.39,5.42A43.17,43.17,0,0,0,140.16,72.82ZM102.42,35.87A26.35,26.35,0,0,0,108,26l11-6.33a37.21,37.21,0,0,1-1.2,7.92,36.36,36.36,0,0,1-15.3,21.07Zm21.92-6.48a43.32,43.32,0,0,0,1.42-13.63l9.32-5.39a52.51,52.51,0,0,1-1.25,21.56,53.12,53.12,0,0,1-31.41,35.5V56.61A43.29,43.29,0,0,0,124.34,29.39ZM139.47,37a59.48,59.48,0,0,0,11.95,20.26,59,59,0,0,0-23.55.22A59.7,59.7,0,0,0,139.47,37Zm19.11,17.88A52.77,52.77,0,0,1,143,17.28a55.31,55.31,0,0,1,.45-7l9.41,5.43c0,.51,0,1,0,1.52A43.15,43.15,0,0,0,176.22,55.7V66.51A52.7,52.7,0,0,1,158.58,54.83ZM170.37,43a36.18,36.18,0,0,1-10.53-23.27l11.25,6.5a26.5,26.5,0,0,0,5.13,8.64V47.75A36.37,36.37,0,0,1,170.37,43Z"/><circle class="cls-3" cx="139.32" cy="50.53" r="3.27"/></g></g></svg>