<svg width="238" height="256" viewBox="0 0 238 256" fill="none" xmlns="http://www.w3.org/2000/svg">
<path d="M122.309 22.2568C122.309 10.2481 132.044 0.513184 144.052 0.513184H180.744C192.753 0.513184 202.488 10.2481 202.488 22.2568V123.84C202.488 130.032 197.468 135.052 191.277 135.052H133.52C127.328 135.052 122.309 130.032 122.309 123.84V22.2568Z" fill="url(#paint0_linear_1500_1644)"/>
<path d="M228.307 179.897C233.561 179.897 237.82 184.156 237.82 189.41L237.82 243.769C237.82 249.023 233.561 253.282 228.307 253.282L196.032 253.282C189.84 253.282 184.82 248.262 184.82 242.07L184.82 191.109C184.82 184.917 189.84 179.897 196.032 179.897L228.307 179.897Z" fill="url(#paint1_linear_1500_1644)"/>
<path d="M9.51172 41.2824C9.51172 36.0286 13.7708 31.7695 19.0245 31.7695L73.3835 31.7695C78.6373 31.7695 82.8963 36.0286 82.8963 41.2824V65.4042C82.8963 71.5961 77.8768 76.6157 71.6848 76.6157H20.7233C14.5313 76.6157 9.51172 71.5961 9.51172 65.4042L9.51172 41.2824Z" fill="url(#paint2_linear_1500_1644)"/>
<path d="M159.004 222.875H192.129V239.437H159.004V222.875Z" fill="url(#paint3_linear_1500_1644)"/>
<path d="M16.5664 90.3745H49.6914V106.937H16.5664V90.3745Z" fill="url(#paint4_linear_1500_1644)"/>
<path d="M16.5664 173.187H76.1914V189.75H16.5664V173.187Z" fill="url(#paint5_linear_1500_1644)"/>
<path d="M142.439 239.437C136.961 239.437 132.502 234.978 132.502 229.5C132.502 224.021 136.961 219.562 142.439 219.562C147.918 219.562 152.377 224.021 152.377 229.5C152.377 234.978 147.918 239.437 142.439 239.437Z" fill="url(#paint6_linear_1500_1644)"/>
<path d="M76.1875 106.938H56.3125V87.063H76.1875V106.938Z" fill="url(#paint7_linear_1500_1644)"/>
<mask id="path-9-inside-1_1500_1644" fill="white">
<path d="M162.312 47.3125C157.566 47.3125 115.937 47.6835 115.937 60.5625V80.4375H89.4375V57.25C89.4375 51.7711 84.9789 47.3125 79.5 47.3125H13.25C7.77112 47.3125 3.3125 51.7711 3.3125 57.25V110.25C3.3125 115.729 7.77112 120.187 13.25 120.187H43.0625V133.437H13.25C7.77112 133.437 3.3125 137.896 3.3125 143.375V196.375C3.3125 201.854 7.77112 206.312 13.25 206.312H43.0625V213.547C39.2167 214.918 36.4375 218.562 36.4375 222.875C36.4375 228.354 40.8961 232.812 46.375 232.812C50.6879 232.812 54.3316 230.033 55.703 226.187H119.25V242.75C119.25 248.229 123.709 252.687 129.187 252.687H195.437C200.916 252.687 205.375 248.229 205.375 242.75V189.75C205.375 184.271 200.916 179.812 195.437 179.812H165.625V165.953C169.471 164.582 172.25 160.938 172.25 156.625C172.25 152.312 169.471 148.668 165.625 147.297V133.398C176.732 133.153 208.687 131.473 208.687 120.187V60.5625C208.687 47.6835 167.059 47.3125 162.312 47.3125ZM202.062 80.1824C200.456 82.6933 186.06 87.0625 162.312 87.0625C138.565 87.0625 124.169 82.6933 122.562 80.1824V68.0852C134.511 73.6038 158.758 73.8125 162.312 73.8125C165.867 73.8125 190.114 73.6038 202.062 68.0852V80.1824ZM202.062 100.057C200.456 102.568 186.06 106.937 162.312 106.937C138.565 106.937 124.169 102.568 122.562 100.057V87.9602C134.511 93.4788 158.758 93.6875 162.312 93.6875C165.867 93.6875 190.114 93.4788 202.062 87.9602V100.057ZM162.312 53.9375C185.268 53.9375 199.509 58.0218 201.88 60.5625C199.509 63.1032 185.268 67.1875 162.312 67.1875C139.357 67.1875 125.116 63.1032 122.745 60.5625C125.116 58.0218 139.357 53.9375 162.312 53.9375ZM13.25 53.9375H79.5C81.3285 53.9375 82.8125 55.4215 82.8125 57.25V73.8125H9.9375V57.25C9.9375 55.4215 11.4215 53.9375 13.25 53.9375ZM9.9375 110.25V80.4375H82.8125V110.25C82.8125 112.078 81.3285 113.562 79.5 113.562H13.25C11.4215 113.562 9.9375 112.078 9.9375 110.25ZM49.6875 120.187H79.5C84.9789 120.187 89.4375 115.729 89.4375 110.25V87.0625H115.937V120.187C115.937 131.47 147.893 133.153 159 133.398V147.297C156.194 148.297 153.985 150.507 152.984 153.312H89.4375V143.375C89.4375 137.896 84.9789 133.437 79.5 133.437H49.6875V120.187ZM13.25 140.062H79.5C81.3285 140.062 82.8125 141.546 82.8125 143.375V159.937H9.9375V143.375C9.9375 141.546 11.4215 140.062 13.25 140.062ZM9.9375 196.375V166.562H82.8125V196.375C82.8125 198.203 81.3285 199.687 79.5 199.687H13.25C11.4215 199.687 9.9375 198.203 9.9375 196.375ZM46.375 226.187C44.5465 226.187 43.0625 224.703 43.0625 222.875C43.0625 221.046 44.5465 219.562 46.375 219.562C48.2035 219.562 49.6875 221.046 49.6875 222.875C49.6875 224.703 48.2035 226.187 46.375 226.187ZM195.437 246.062H129.187C127.359 246.062 125.875 244.578 125.875 242.75V212.937H198.75V242.75C198.75 244.578 197.266 246.062 195.437 246.062ZM198.75 189.75V206.312H125.875V189.75C125.875 187.921 127.359 186.437 129.187 186.437H195.437C197.266 186.437 198.75 187.921 198.75 189.75ZM129.187 179.812C123.709 179.812 119.25 184.271 119.25 189.75V219.562H55.703C54.7026 216.757 52.4932 214.547 49.6875 213.547V206.312H79.5C84.9789 206.312 89.4375 201.854 89.4375 196.375V159.937H152.984C153.985 162.743 156.194 164.953 159 165.953V179.812H129.187ZM162.312 159.937C160.484 159.937 159 158.453 159 156.625C159 154.796 160.484 153.312 162.312 153.312C164.141 153.312 165.625 154.796 165.625 156.625C165.625 158.453 164.141 159.937 162.312 159.937ZM162.312 126.812C138.661 126.812 124.268 122.476 122.562 119.962V107.835C134.511 113.354 158.758 113.562 162.312 113.562C165.867 113.562 190.114 113.354 202.062 107.835V119.962C200.357 122.476 185.964 126.812 162.312 126.812Z"/>
</mask>
<path d="M162.312 47.3125C157.566 47.3125 115.937 47.6835 115.937 60.5625V80.4375H89.4375V57.25C89.4375 51.7711 84.9789 47.3125 79.5 47.3125H13.25C7.77112 47.3125 3.3125 51.7711 3.3125 57.25V110.25C3.3125 115.729 7.77112 120.187 13.25 120.187H43.0625V133.437H13.25C7.77112 133.437 3.3125 137.896 3.3125 143.375V196.375C3.3125 201.854 7.77112 206.312 13.25 206.312H43.0625V213.547C39.2167 214.918 36.4375 218.562 36.4375 222.875C36.4375 228.354 40.8961 232.812 46.375 232.812C50.6879 232.812 54.3316 230.033 55.703 226.187H119.25V242.75C119.25 248.229 123.709 252.687 129.187 252.687H195.437C200.916 252.687 205.375 248.229 205.375 242.75V189.75C205.375 184.271 200.916 179.812 195.437 179.812H165.625V165.953C169.471 164.582 172.25 160.938 172.25 156.625C172.25 152.312 169.471 148.668 165.625 147.297V133.398C176.732 133.153 208.687 131.473 208.687 120.187V60.5625C208.687 47.6835 167.059 47.3125 162.312 47.3125ZM202.062 80.1824C200.456 82.6933 186.06 87.0625 162.312 87.0625C138.565 87.0625 124.169 82.6933 122.562 80.1824V68.0852C134.511 73.6038 158.758 73.8125 162.312 73.8125C165.867 73.8125 190.114 73.6038 202.062 68.0852V80.1824ZM202.062 100.057C200.456 102.568 186.06 106.937 162.312 106.937C138.565 106.937 124.169 102.568 122.562 100.057V87.9602C134.511 93.4788 158.758 93.6875 162.312 93.6875C165.867 93.6875 190.114 93.4788 202.062 87.9602V100.057ZM162.312 53.9375C185.268 53.9375 199.509 58.0218 201.88 60.5625C199.509 63.1032 185.268 67.1875 162.312 67.1875C139.357 67.1875 125.116 63.1032 122.745 60.5625C125.116 58.0218 139.357 53.9375 162.312 53.9375ZM13.25 53.9375H79.5C81.3285 53.9375 82.8125 55.4215 82.8125 57.25V73.8125H9.9375V57.25C9.9375 55.4215 11.4215 53.9375 13.25 53.9375ZM9.9375 110.25V80.4375H82.8125V110.25C82.8125 112.078 81.3285 113.562 79.5 113.562H13.25C11.4215 113.562 9.9375 112.078 9.9375 110.25ZM49.6875 120.187H79.5C84.9789 120.187 89.4375 115.729 89.4375 110.25V87.0625H115.937V120.187C115.937 131.47 147.893 133.153 159 133.398V147.297C156.194 148.297 153.985 150.507 152.984 153.312H89.4375V143.375C89.4375 137.896 84.9789 133.437 79.5 133.437H49.6875V120.187ZM13.25 140.062H79.5C81.3285 140.062 82.8125 141.546 82.8125 143.375V159.937H9.9375V143.375C9.9375 141.546 11.4215 140.062 13.25 140.062ZM9.9375 196.375V166.562H82.8125V196.375C82.8125 198.203 81.3285 199.687 79.5 199.687H13.25C11.4215 199.687 9.9375 198.203 9.9375 196.375ZM46.375 226.187C44.5465 226.187 43.0625 224.703 43.0625 222.875C43.0625 221.046 44.5465 219.562 46.375 219.562C48.2035 219.562 49.6875 221.046 49.6875 222.875C49.6875 224.703 48.2035 226.187 46.375 226.187ZM195.437 246.062H129.187C127.359 246.062 125.875 244.578 125.875 242.75V212.937H198.75V242.75C198.75 244.578 197.266 246.062 195.437 246.062ZM198.75 189.75V206.312H125.875V189.75C125.875 187.921 127.359 186.437 129.187 186.437H195.437C197.266 186.437 198.75 187.921 198.75 189.75ZM129.187 179.812C123.709 179.812 119.25 184.271 119.25 189.75V219.562H55.703C54.7026 216.757 52.4932 214.547 49.6875 213.547V206.312H79.5C84.9789 206.312 89.4375 201.854 89.4375 196.375V159.937H152.984C153.985 162.743 156.194 164.953 159 165.953V179.812H129.187ZM162.312 159.937C160.484 159.937 159 158.453 159 156.625C159 154.796 160.484 153.312 162.312 153.312C164.141 153.312 165.625 154.796 165.625 156.625C165.625 158.453 164.141 159.937 162.312 159.937ZM162.312 126.812C138.661 126.812 124.268 122.476 122.562 119.962V107.835C134.511 113.354 158.758 113.562 162.312 113.562C165.867 113.562 190.114 113.354 202.062 107.835V119.962C200.357 122.476 185.964 126.812 162.312 126.812Z" stroke="white" stroke-width="2.74993" mask="url(#path-9-inside-1_1500_1644)"/>
<path d="M43.0605 60.5625H49.6855V67.1875H43.0605V60.5625Z" fill="white"/>
<path d="M16.5645 60.5625H23.1895V67.1875H16.5645V60.5625Z" fill="white"/>
<path d="M29.8125 60.5625H36.4375V67.1875H29.8125V60.5625Z" fill="white"/>
<path d="M43.0605 146.688H49.6855V153.312H43.0605V146.688Z" fill="white"/>
<path d="M29.8125 146.688H36.4375V153.312H29.8125V146.688Z" fill="white"/>
<path d="M16.5645 146.688H23.1895V153.312H16.5645V146.688Z" fill="white"/>
<path d="M158.998 193.062H165.623V199.688H158.998V193.062Z" fill="white"/>
<path d="M145.75 193.062H152.375V199.688H145.75V193.062Z" fill="white"/>
<path d="M132.5 193.062H139.125V199.688H132.5V193.062Z" fill="white"/>
<path d="M158.998 219.563H192.123V226.188H158.998V219.563Z" fill="white"/>
<path d="M158.998 232.812H178.873V239.437H158.998V232.812Z" fill="white"/>
<path d="M185.498 232.812H192.123V239.437H185.498V232.812Z" fill="white"/>
<path d="M16.5645 173.188H23.1895V179.812H16.5645V173.188Z" fill="white"/>
<path d="M29.8125 173.188H76.1875V179.812H29.8125V173.188Z" fill="white"/>
<path d="M16.5645 186.437H76.1894V193.062H16.5645V186.437Z" fill="white"/>
<path d="M16.5645 87.063H49.6894V93.688H16.5645V87.063Z" fill="white"/>
<path d="M16.5645 100.312H36.4395V106.938H16.5645V100.312Z" fill="white"/>
<path d="M43.0605 100.312H49.6855V106.938H43.0605V100.312Z" fill="white"/>
<defs>
<linearGradient id="paint0_linear_1500_1644" x1="162.398" y1="0.513184" x2="162.398" y2="135.052" gradientUnits="userSpaceOnUse">
<stop stop-color="#5FFF00"/>
<stop offset="0.0001" stop-color="#5FFF00" stop-opacity="0.9"/>
<stop offset="1" stop-color="#5FFF00" stop-opacity="0"/>
</linearGradient>
<linearGradient id="paint1_linear_1500_1644" x1="237.82" y1="216.589" x2="184.82" y2="216.589" gradientUnits="userSpaceOnUse">
<stop stop-color="#5FFF00"/>
<stop offset="0.0001" stop-color="#5FFF00" stop-opacity="0.9"/>
<stop offset="1" stop-color="#5FFF00" stop-opacity="0"/>
</linearGradient>
<linearGradient id="paint2_linear_1500_1644" x1="46.204" y1="31.7695" x2="46.204" y2="76.6157" gradientUnits="userSpaceOnUse">
<stop stop-color="#5FFF00"/>
<stop offset="0.0001" stop-color="#5FFF00" stop-opacity="0.9"/>
<stop offset="1" stop-color="#5FFF00" stop-opacity="0"/>
</linearGradient>
<linearGradient id="paint3_linear_1500_1644" x1="175.566" y1="222.875" x2="175.566" y2="239.437" gradientUnits="userSpaceOnUse">
<stop stop-color="#5FFF00"/>
<stop offset="0.0001" stop-color="#5FFF00" stop-opacity="0.9"/>
<stop offset="1" stop-color="#5FFF00" stop-opacity="0"/>
</linearGradient>
<linearGradient id="paint4_linear_1500_1644" x1="33.1289" y1="90.3745" x2="33.1289" y2="106.937" gradientUnits="userSpaceOnUse">
<stop stop-color="#5FFF00"/>
<stop offset="0.0001" stop-color="#5FFF00" stop-opacity="0.9"/>
<stop offset="1" stop-color="#5FFF00" stop-opacity="0"/>
</linearGradient>
<linearGradient id="paint5_linear_1500_1644" x1="46.3789" y1="173.187" x2="46.3789" y2="189.75" gradientUnits="userSpaceOnUse">
<stop stop-color="#5FFF00"/>
<stop offset="0.0001" stop-color="#5FFF00" stop-opacity="0.9"/>
<stop offset="1" stop-color="#5FFF00" stop-opacity="0"/>
</linearGradient>
<linearGradient id="paint6_linear_1500_1644" x1="142.439" y1="219.562" x2="142.439" y2="239.437" gradientUnits="userSpaceOnUse">
<stop stop-color="#5FFF00"/>
<stop offset="0.0001" stop-color="#5FFF00" stop-opacity="0.9"/>
<stop offset="1" stop-color="#5FFF00" stop-opacity="0"/>
</linearGradient>
<linearGradient id="paint7_linear_1500_1644" x1="66.25" y1="87.063" x2="66.25" y2="106.938" gradientUnits="userSpaceOnUse">
<stop stop-color="#5FFF00"/>
<stop offset="0.0001" stop-color="#5FFF00" stop-opacity="0.9"/>
<stop offset="1" stop-color="#5FFF00" stop-opacity="0"/>
</linearGradient>
</defs>
</svg>
