<svg width="408" height="366" viewBox="0 0 408 366" fill="none" xmlns="http://www.w3.org/2000/svg">
<g clip-path="url(#clip0_1466_2642)">
<path d="M156.457 353.915L149.047 325.453L138.88 306.269L117.564 298.262L99.869 304.147L88.1513 306.49L79.2056 308.477L75.5596 308.588L56.2586 298.412L46.6514 293.355" stroke="#10E80C" stroke-width="0.879808" stroke-linecap="round" stroke-linejoin="round"/>
<path d="M202.799 66.9176L216.8 41.154L236.621 24.8723" stroke="#10E80C" stroke-width="0.879808" stroke-linecap="round" stroke-linejoin="round"/>
<path d="M203.823 67.7223L216.99 43.0393L236.622 24.8723" stroke="#10E80C" stroke-width="0.879808" stroke-linecap="round" stroke-linejoin="round"/>
<path d="M204.957 68.6137L217.533 44.8142L236.621 24.8723" stroke="#10E80C" stroke-width="0.879808" stroke-linecap="round" stroke-linejoin="round"/>
<path d="M306.131 134.419L306.509 136.013L312.203 160.214L314.463 189.402L314.431 219.054L312.589 247.997L307.943 274.076L298.288 291.344L286.854 295.17L284.948 295.809" stroke="#10E80C" stroke-width="0.879808" stroke-linecap="round" stroke-linejoin="round"/>
<path d="M376.398 312.422L385.596 287.889L386.477 260.287L386.525 234.776L385.784 210.582L381.501 187.264L371.767 166.036L371.515 165.689L358.428 148.121L347.828 131.287L344.891 109.507L345.356 80.541L340.103 50.8568L326.519 26.7812L306.234 12.0062L282.342 8.0383L281.609 8.21185L269.317 11.2331L258.024 14.0098L255.796 16.7077L255.67 16.7629L249.15 19.5396L236.621 24.8722L236.085 28.1065L233.188 45.7056L233.14 46.2499L230.778 75.6265L229.849 82.4973" stroke="#10E80C" stroke-width="0.879808" stroke-linecap="round" stroke-linejoin="round"/>
<path d="M206.288 69.6707L218.399 46.4945L236.622 24.8722L246.544 17.2993L246.662 17.2126L247.095 16.8813" stroke="#10E80C" stroke-width="0.879808" stroke-linecap="round" stroke-linejoin="round"/>
<path d="M207.949 70.9802L219.564 48.0958L236.141 25.527L236.621 24.8723L250.512 16.2975" stroke="#10E80C" stroke-width="0.879808" stroke-linecap="round" stroke-linejoin="round"/>
<path d="M216.092 74.9718L224.447 50.9751L228.951 41.3039L231.156 36.5787L236.621 24.8723L250.733 16.1871L254.599 13.6155L255.686 13.0633L257.734 11.9116L258.655 11.3436L259.112 11.0833L259.206 11.0359L259.45 10.8861L260.356 10.3339" stroke="#10E80C" stroke-width="0.879808" stroke-linecap="round" stroke-linejoin="round"/>
<path d="M210.265 72.1161L221.014 49.6104L236.133 25.6374L236.621 24.8723L250.67 16.2581L250.875 16.1003L255.859 13.0396L258.009 11.8484L259.742 10.8703" stroke="#10E80C" stroke-width="0.879808" stroke-linecap="round" stroke-linejoin="round"/>
<path d="M213.013 73.4651L222.651 50.6201L231.692 33.9519L236.133 25.7637L236.621 24.8723L253.198 15.6112L253.646 15.3588L254.536 14.8618L259.686 11.9904" stroke="#10E80C" stroke-width="0.879808" stroke-linecap="round" stroke-linejoin="round"/>
<path d="M325.007 340.528L301.848 345.758L279.979 351.454L259.34 355.327L236.503 354.546" stroke="#10E80C" stroke-width="0.879808" stroke-linecap="round" stroke-linejoin="round"/>
<path d="M402.487 182.049L406.039 205.289L406.708 230.019" stroke="#10E80C" stroke-width="0.879808" stroke-linecap="round" stroke-linejoin="round"/>
<path d="M51.123 54.1857L72.7314 61.9006L100.805 73.7333L128.311 85.0532L149.235 89.6206L168.331 90.8275L187.774 90.4568L208.382 89.8336L229.943 90.228L251.165 92.9574L256.142 94.8033L262.844 97.2961L267.86 99.1498L269.521 99.773L276.089 107.614L277.814 109.673L283.523 131.232L286.366 159.473L287.24 189.693L287.011 219.859L285.838 249.298L283.176 276.427L277.428 295.462L268.71 300.4" stroke="#10E80C" stroke-width="0.879808" stroke-linecap="round" stroke-linejoin="round"/>
<path d="M198.216 356.715L190.317 335.196" stroke="#10E80C" stroke-width="0.879808" stroke-linecap="round" stroke-linejoin="round"/>
<path d="M259.198 356.66L236.503 354.546" stroke="#10E80C" stroke-width="0.879808" stroke-linecap="round" stroke-linejoin="round"/>
<path d="M217.509 37.0914L236.621 24.8723" stroke="#10E80C" stroke-width="0.879808" stroke-linecap="round" stroke-linejoin="round"/>
<path d="M236.503 354.546L258.607 357.859L264.356 357.133L274.577 355.848L279.31 355.256L280.098 353.457L279.979 351.454L278.987 349.206L277.152 346.697L274.546 343.905" stroke="#10E80C" stroke-width="0.879808" stroke-linecap="round" stroke-linejoin="round"/>
<path d="M188.861 362.979L177.568 344.275L176.757 308.919L173.702 286.69L163.528 276.379L147.778 268.799L132.493 255.988L122.784 236.361L117.665 213.225L114.751 188.534L113.224 162.51L114.184 135.492L119.169 109.058L128.312 85.0532L140.612 64.4643L156.393 50.1153" stroke="#10E80C" stroke-width="0.879808" stroke-linecap="round" stroke-linejoin="round"/>
<path d="M184.939 261.32L181.033 239.911L179.025 215.662L177.962 190.175L177.592 163.606L178.545 136.446L181.86 111.014L187.774 90.4568L195.318 76.1313L203.744 68.9292" stroke="#10E80C" stroke-width="0.879808" stroke-linecap="round" stroke-linejoin="round"/>
<path d="M188.002 279.969L190.357 300.518L190.317 335.196L177.568 344.275L165.851 350.87L156.456 353.915" stroke="#10E80C" stroke-width="0.879808" stroke-linecap="round" stroke-linejoin="round"/>
<path d="M240.591 86.9858L239.961 66.5311L238.536 39.4422L236.622 24.8722L243.953 17.962L244.001 17.9146" stroke="#10E80C" stroke-width="0.879808" stroke-linecap="round" stroke-linejoin="round"/>
<path d="M295.414 117.064L301.942 126.988L303.501 128.629L305.139 130.191L310.187 134.987L311.384 136.123L317.369 141.818L317.574 141.992L318.314 142.505L325.267 147.593L336.284 166.367L341.56 189.354L343.355 213.714L343.513 238.696L341.812 264.01L334.788 286.161L320.086 298.751L302.604 302.277L287.634 295.525L284.948 295.809L278.129 297.741" stroke="#10E80C" stroke-width="0.879808" stroke-linecap="round" stroke-linejoin="round"/>
<path d="M390.621 311.223L388.904 312.745L374.564 325.335L370.95 325.974L364.791 326.51L355.657 326.321L341.388 322.353L317.968 324.333L298.021 325.146L287.257 316.666L276.531 307.941" stroke="#10E80C" stroke-width="0.879808" stroke-linecap="round" stroke-linejoin="round"/>
<path d="M3.39453 111.953L10.7732 94.7086" stroke="#10E80C" stroke-width="0.879808" stroke-linecap="round" stroke-linejoin="round"/>
<path d="M274.546 343.905L257.237 350.988L236.503 354.546" stroke="#10E80C" stroke-width="0.879808" stroke-linecap="round" stroke-linejoin="round"/>
<path d="M188.861 362.979L206.697 358.056L211.816 355.666L212.06 355.532L217.785 351.312L218.84 350.397L223.691 346.184L229.44 340.915L234.897 336.15L240.031 332.403L244.898 330.021L249.591 329.161L254.19 329.784L258.742 331.646L263.183 334.375L267.404 337.554L271.247 340.812L274.546 343.904L293.611 338.406L297.698 341.491L300.462 343.889L301.848 345.758L301.887 347.344L300.643 348.858L290.737 351.824L279.31 355.256L277.625 356.865L275.05 358.261L271.609 359.35L257.647 360.131L254.269 360.32L252.056 360.636L236.503 354.546L229.652 348.914L223.691 346.184L217.525 339.306L213.588 320.152L211.879 296.314L208.162 286.145L200.602 281.783L199.83 281.239L198.712 280.466L198.232 280.284L188.003 279.969L179.726 271.047L167.024 264.539L147.778 268.799L118.902 279.787L90.521 289.143L68.6449 270.755L56.3682 244.66L50.1078 215.449L47.3516 184.937L47.0996 153.478L50.0763 121.348L58.077 89.9125L72.7319 61.9006L94.5293 41.0199L123.493 32.6108L142.25 39.8761L160.071 46.7706L168.772 50.139L178.734 53.9254" stroke="#10E80C" stroke-width="0.879808" stroke-linecap="round" stroke-linejoin="round"/>
<path d="M291.941 115.613L306.014 105.484L327.701 90.5041L345.356 80.541L357.373 75.3504L366.626 71.0117L373.036 67.2332L376.115 64.2198" stroke="#10E80C" stroke-width="0.879808" stroke-linecap="round" stroke-linejoin="round"/>
<path d="M187.908 62.1215L199.579 67.1385L200.965 67.7381L203.744 68.9292L206.083 70.073L207.949 70.9802" stroke="#10E80C" stroke-width="0.879808" stroke-linecap="round" stroke-linejoin="round"/>
<path d="M165.953 359.468L149.896 353.883L147.132 348.787L137.572 331.18L124.248 312.927" stroke="#10E80C" stroke-width="0.879808" stroke-linecap="round" stroke-linejoin="round"/>
<path d="M222.195 297.891L223.967 314.741L226.306 330.676L229.44 340.915L232.598 347.849L236.504 354.546L256.128 359.729L260.112 359.421L275.051 358.261L276.736 357.717L280.154 356.605L287.556 354.215L294.407 352.006L298.147 350.412L300.644 348.858L301.927 348.677L305.762 347.336L322.803 342.272L324.898 340.986L338.789 337.428" stroke="#10E80C" stroke-width="0.879808" stroke-linecap="round" stroke-linejoin="round"/>
<path d="M281.806 329.082L267.403 337.554L253.969 348.251L236.503 354.546" stroke="#10E80C" stroke-width="0.879808" stroke-linecap="round" stroke-linejoin="round"/>
<path d="M156.394 50.1153L171.804 55.5819L187.908 62.1215L200.469 65.4819L200.689 65.3873L201.547 65.9552L202.358 65.2453L203.02 62.0031L210.627 48.932L213.627 43.7572L215.423 40.2941L216.99 37.6515L217.51 37.0914L218.431 34.9379L219.73 32.737L236.622 24.8722L250.402 23.618L264.167 30.828L274.901 49.003L281.114 74.6246L283.776 100.396L276.594 107.141" stroke="#10E80C" stroke-width="0.879808" stroke-linecap="round" stroke-linejoin="round"/>
<path d="M221.407 30.5283L236.621 24.8723" stroke="#10E80C" stroke-width="0.879808" stroke-linecap="round" stroke-linejoin="round"/>
<path d="M188.003 279.969L173.702 286.69L156.197 296.945L138.88 306.269L124.249 312.927L99.8686 304.147L70.9052 293.008L48.8401 272.38L36.902 244.786L30.7125 214.668L27.8539 183.422L27.1846 151.166L29.2163 117.798L36.1224 84.3432L51.1238 54.1857" stroke="#10E80C" stroke-width="0.879808" stroke-linecap="round" stroke-linejoin="round"/>
<path d="M137.856 343.202L124.524 335.172" stroke="#10E80C" stroke-width="0.879808" stroke-linecap="round" stroke-linejoin="round"/>
<path d="M269.521 99.773L276.593 107.141L277.349 107.93L279.137 109.791L279.837 110.525" stroke="#10E80C" stroke-width="0.879808" stroke-linecap="round" stroke-linejoin="round"/>
<path d="M249.52 360.628L236.503 354.546" stroke="#10E80C" stroke-width="0.879808" stroke-linecap="round" stroke-linejoin="round"/>
<path d="M223.432 28.3353L236.622 24.8723L248.395 16.8339L248.584 16.6998L250.048 15.698" stroke="#10E80C" stroke-width="0.879808" stroke-linecap="round" stroke-linejoin="round"/>
<path d="M376.398 312.422L362.901 312.075L342.662 306.718L320.086 298.751L300.745 294.12" stroke="#10E80C" stroke-width="0.879808" stroke-linecap="round" stroke-linejoin="round"/>
<path d="M276.53 307.941L267.569 317.549L258.741 331.646L249.559 346.224L236.503 354.546L231.424 353.489" stroke="#10E80C" stroke-width="0.879808" stroke-linecap="round" stroke-linejoin="round"/>
<path d="M250.748 300.408L247.913 312.887L244.897 330.021L241.488 345.553L237.928 351.974L236.503 354.546" stroke="#10E80C" stroke-width="0.879808" stroke-linecap="round" stroke-linejoin="round"/>
<path d="M178.97 268.649L167.024 264.539L154.873 252.761L132.493 255.988L99.5297 264.381L68.6449 270.755L48.8399 272.38L37.0986 271.749" stroke="#10E80C" stroke-width="0.879808" stroke-linecap="round" stroke-linejoin="round"/>
<path d="M234.936 84.4536L235.18 72.0057L235.778 42.8263L236.621 24.8722L250.197 16.3764L250.488 16.2502L250.756 16.1792L250.976 16.0687L251.835 15.5244L251.858 15.5166L256.001 12.9765L257.733 11.9115L258.654 11.3436L259.347 10.9176L259.741 10.6809L260.371 10.3181L261.253 9.78955L261.662 9.52134L262.009 9.32413" stroke="#10E80C" stroke-width="0.879808" stroke-linecap="round" stroke-linejoin="round"/>
<path d="M124.249 312.927L112.736 317.565L104.184 321.036L102.145 320.468L75.5596 308.588" stroke="#10E80C" stroke-width="0.879808" stroke-linecap="round" stroke-linejoin="round"/>
<path d="M258.048 300.352L254.221 311.672L249.591 329.161L244.323 345.411L240.551 349.805L236.503 354.546" stroke="#10E80C" stroke-width="0.879808" stroke-linecap="round" stroke-linejoin="round"/>
<path d="M246.724 360.265L236.503 354.546" stroke="#10E80C" stroke-width="0.879808" stroke-linecap="round" stroke-linejoin="round"/>
<path d="M225.793 26.2212L236.621 24.8723L249.551 16.5421L249.795 16.3843" stroke="#10E80C" stroke-width="0.879808" stroke-linecap="round" stroke-linejoin="round"/>
<path d="M222.194 297.891L211.878 296.314L201.681 296.511L190.357 300.518L176.757 308.919L162.433 317.912L149.046 325.453L137.572 331.18L129.178 334.454L124.524 335.172L108.026 323.71L103.892 321.154L92.6389 315.238L79.2045 308.477L52.0445 293.726L51.3752 293.355L42.3192 283.976L30.1685 271.378L29.6093 270.802L24.6719 270.266" stroke="#10E80C" stroke-width="0.879808" stroke-linecap="round" stroke-linejoin="round"/>
<path d="M317.369 141.818L317.574 141.992L325.268 147.593L336.639 148.815L349.38 148.208L358.428 148.121L365.61 147.758L374.06 146.007L382.399 143.388L385.714 141.574" stroke="#10E80C" stroke-width="0.879808" stroke-linecap="round" stroke-linejoin="round"/>
<path d="M311.384 136.123L321.03 136.36L335.803 133.394L347.828 131.287L357.309 129.568L367.216 126.483L376.453 122.563L379.39 120.559" stroke="#10E80C" stroke-width="0.879808" stroke-linecap="round" stroke-linejoin="round"/>
<path d="M243.74 359.539L236.503 354.546" stroke="#10E80C" stroke-width="0.879808" stroke-linecap="round" stroke-linejoin="round"/>
<path d="M302.273 126.87L310.195 124.101L329.158 115.526L344.892 109.507L356.326 105.831L366.531 101.666L374.981 97.1619L377.997 94.7165" stroke="#10E80C" stroke-width="0.879808" stroke-linecap="round" stroke-linejoin="round"/>
<path d="M228.447 24.2175L236.621 24.8722" stroke="#10E80C" stroke-width="0.879808" stroke-linecap="round" stroke-linejoin="round"/>
<path d="M68.5029 32.737L76.6376 33.2892" stroke="#10E80C" stroke-width="0.879808" stroke-linecap="round" stroke-linejoin="round"/>
<path d="M14.2061 79.4997L21.9784 81.2825L36.1215 84.3432L58.0763 89.9124L88.2209 99.2445L119.169 109.058L142.281 113.191L161.653 112.923L181.86 111.014L204.358 108.995L228.84 107.63L254.055 107.464L277.813 109.673L279.837 110.525L285.775 113.018" stroke="#10E80C" stroke-width="0.879808" stroke-linecap="round" stroke-linejoin="round"/>
<path d="M249.765 300.313L252.978 293.158L255.127 273.918L256.175 247.65L256.679 219.259L256.86 190.048L256.687 160.38L255.883 131.587L254.056 107.464L251.166 92.9574L247.591 90.1097L247.292 87.9088L254.946 78.1508L251.096 50.4071L244.41 31.6563L247.434 27.578L250.403 23.618L253.222 19.942L270.822 21.7011L286.256 33.802L297.344 54.9667L303.313 80.8013L306.014 105.484L310.196 124.101L321.031 136.36L336.639 148.815L350.357 166.478L358.428 188.699L361.728 212.964L362.508 238.128L361.704 264.208L356.665 289.309L342.663 306.718L322.386 313.313L302.896 314.488L287.753 303.602L278.13 297.741L268.711 300.4H268.326L266.908 301.417L260.695 313.376L254.19 329.784L247.016 345.632L237.764 353.473L236.504 354.546L234.338 355.28L231.424 353.489L221.959 351.525" stroke="#10E80C" stroke-width="0.879808" stroke-linecap="round" stroke-linejoin="round"/>
<path d="M231.306 82.8286L229.944 90.228L228.842 107.63L228.172 132.849L227.905 161.445L227.865 190.238L227.952 218.328L228.18 245.48L228.637 270.4L229.558 288.575L230.873 296.093" stroke="#10E80C" stroke-width="0.879808" stroke-linecap="round" stroke-linejoin="round"/>
<path d="M262.844 97.296L267.23 92.4288L281.113 74.6246L297.343 54.9666L313.313 38.1327L326.519 26.7812L335.788 20.8176L342.127 17.1416L345.891 14.633L347.08 13.0396" stroke="#10E80C" stroke-width="0.879808" stroke-linecap="round" stroke-linejoin="round"/>
<path d="M243.952 299.027L242.614 304.573L233.676 309.645L223.966 314.741L213.587 320.152L202.437 326.81L190.317 335.196" stroke="#10E80C" stroke-width="0.879808" stroke-linecap="round" stroke-linejoin="round"/>
<path d="M240.629 358.443L236.503 354.546" stroke="#10E80C" stroke-width="0.879808" stroke-linecap="round" stroke-linejoin="round"/>
<path d="M244.409 31.6563L241.425 35.6636L238.535 39.4422L235.779 42.8263L233.188 45.7056L230.762 47.9933L226.628 77.6144L225.242 80.5331" stroke="#10E80C" stroke-width="0.879808" stroke-linecap="round" stroke-linejoin="round"/>
<path d="M1.1582 145.944L5.75706 147.758L14.3405 149.47L27.1843 151.166L47.0995 153.478L78.2363 157.627L113.224 162.51L138.998 164.971L157.63 164.703L177.592 163.606L201.208 162.486L227.904 161.445L256.686 160.38L286.366 159.473L312.203 160.214L325.779 163.953L336.284 166.367L350.356 166.478L363.869 165.973L371.768 166.036L377.327 165.91L384.147 164.908L391.179 163.275L395.006 161.674" stroke="#10E80C" stroke-width="0.879808" stroke-linecap="round" stroke-linejoin="round"/>
<path d="M234.416 20.8334L236.621 24.8723L244.409 31.6563" stroke="#10E80C" stroke-width="0.879808" stroke-linecap="round" stroke-linejoin="round"/>
<path d="M402.416 183.272L398.25 184.526L392.061 185.678L386.289 186.593L381.501 187.264L373.595 187.911L358.428 188.699L341.56 189.354L328.96 189.528L314.463 189.401L287.24 189.693L256.859 190.048L227.864 190.238L201.248 190.261L177.962 190.175L158.653 189.993L140.754 189.591L114.751 188.534L78.8582 186.767L47.3513 184.937L27.8534 183.422L15.6003 181.994L7.50508 180.495L2.66211 178.894" stroke="#10E80C" stroke-width="0.879808" stroke-linecap="round" stroke-linejoin="round"/>
<path d="M405.936 206.22L401.692 207.056L395.81 207.947L390.376 209.075L385.785 210.582L377.737 212.104L361.728 212.964L343.356 213.714L329.402 215.804L314.432 219.054L287.012 219.859L256.678 219.259L227.951 218.328L201.744 217.153L179.025 215.662L160.441 213.974L143.29 212.735L117.665 213.225L81.7643 214.834L50.1078 215.449L30.7123 214.668L18.7427 213.382L10.9309 212.01L6.08008 210.692" stroke="#10E80C" stroke-width="0.879808" stroke-linecap="round" stroke-linejoin="round"/>
<path d="M271.609 359.35L267.348 359.981L254.568 360.415L236.503 354.546" stroke="#10E80C" stroke-width="0.879808" stroke-linecap="round" stroke-linejoin="round"/>
<path d="M406.708 230.019L402.66 230.445L396.809 231.084L391.266 232.433L386.525 234.776L378.446 237.182L362.507 238.128L343.513 238.696L328.165 241.97L312.589 247.997L285.838 249.298L256.174 247.65L228.179 245.48L202.799 242.964L181.033 239.911L163.457 236.559L147.306 234.389L122.784 236.361L87.8199 241.386L56.3681 244.66L36.9017 244.786L25.1132 243.698L17.4983 242.475L12.6475 241.481" stroke="#10E80C" stroke-width="0.879808" stroke-linecap="round" stroke-linejoin="round"/>
<path d="M35.1064 51.9927L38.6658 51.0461L39.2407 50.77" stroke="#10E80C" stroke-width="0.879808" stroke-linecap="round" stroke-linejoin="round"/>
<path d="M237.472 356.991L234.338 355.28" stroke="#10E80C" stroke-width="0.879808" stroke-linecap="round" stroke-linejoin="round"/>
<path d="M406.841 255.215L403.329 255.38L397.565 255.783L391.714 257.266L386.477 260.287L377.87 263.371L361.703 264.208L341.811 264.01L324.503 266.976L307.942 274.076L283.176 276.427L255.126 273.918L228.635 270.4L204.901 266.259L184.938 261.32" stroke="#10E80C" stroke-width="0.879808" stroke-linecap="round" stroke-linejoin="round"/>
<path d="M3.39453 111.953L6.52868 113.483L15.4744 115.526L29.2158 117.798L50.0761 121.348L80.8427 127.927L114.184 135.492L138.998 138.994L158.189 138.395L178.545 136.446L202.027 134.49L228.171 132.849L255.883 131.587L283.523 131.232L306.132 134.419" stroke="#10E80C" stroke-width="0.879808" stroke-linecap="round" stroke-linejoin="round"/>
<path d="M231.338 22.4111L234.417 20.8334L237.606 19.5712L240.827 18.7587" stroke="#10E80C" stroke-width="0.879808" stroke-linecap="round" stroke-linejoin="round"/>
<path d="M366.2 35.2771L363.995 37.8803L359.082 40.941L351.199 44.9878L340.103 50.8568L323.621 62.7052L303.313 80.8013L283.775 100.396L285.775 113.018L291.941 115.613L295.414 117.064L301.942 126.988L306.132 134.419L308.604 136.06L317.582 142.023L319.432 146.97L325.779 163.953L328.961 189.528L329.402 215.804L328.165 241.97L324.503 266.976L315.4 286.09L298.288 291.344L277.428 295.462L252.977 293.158L229.558 288.575L208.839 282.73L203.933 280.71L197.791 278.178L191.916 275.764L188.554 273.918L179.726 271.047L163.528 276.379L140.62 287.841L117.563 298.262L90.5209 289.143L70.9049 293.008L59.1715 293.45L59.0691 293.355L38.5869 273.216L37.0986 271.749L29.6097 270.802L17.7346 243.019L17.4983 242.475L10.9308 212.01L7.50526 180.495L5.75706 147.758L6.52879 113.483L10.7733 94.7086L14.2067 79.4997L35.1063 51.9927L38.2168 51.0776L38.6657 51.0461L51.1235 54.1857L76.6456 33.2892L77.3701 33.2024L112.547 29.1083L123.493 32.6108L139.581 41.3354L156.393 50.1153L178.387 53.8623L178.734 53.9254L189.577 58.3035L200.468 65.4819L201.13 65.8606L201.657 66.0105L201.894 66.1998L202.303 66.5232L202.799 66.9176L203.823 67.7223L204.957 68.6137L206.288 69.6707L207.949 70.9802L207.973 70.996L210.264 72.1161L213.013 73.465L216.092 74.9717L218.856 76.3207L219.281 76.6046L221.817 78.277L222.667 78.3164L226.628 77.6144L230.778 75.6265L235.18 72.0057L239.96 66.5311L245.236 59.2264L241.425 35.6636L236.621 24.8722L240.826 18.7587L244 17.9146L247.095 16.8813L250.048 15.698L252.82 14.4358L255.332 13.1579L257.529 11.9589L259.348 10.9176L259.387 10.9018L259.741 10.7756L261.828 9.60811L272.38 6.38174L281.373 3.51034L288.319 1.38835L290.894 0.709947L291.201 0.394409L320.881 0.938712L338.316 8.98492L345.781 12.1403L347.08 13.0396L366.2 35.2771ZM366.2 35.2771L376.115 64.2198L377.997 94.7165L379.391 120.559L385.714 141.574L393.612 158.66L395.006 161.674L395.179 162.186L402.487 182.049L402.416 183.264L405.984 205.754L406.157 213.043L406.708 230.019L406.842 255.215L405.275 282.154L405.212 282.312L402.936 288.046L398.227 299.895L395.431 306.916L394.431 307.87L390.415 308.738L385.982 312.666L371.5 325.485L370.949 325.974L369.035 326.597L363.31 328.451L345.403 334.257L320.212 338.028L314.881 335.574L293.611 338.406L288.248 334.312L271.247 340.812L255.773 349.568L236.503 354.546L229.621 352.385L224.124 350.657L222.588 351.272L221.958 351.525L212.753 355.232L211.997 355.532L198.216 356.715L188.861 362.979L180.994 365.606L175.159 364.848L165.953 359.468L156.456 353.915L149.897 353.883L146.195 351.611L137.856 343.202L129.178 334.454L112.736 317.565L88.1506 306.49L59.1715 293.45L51.3755 293.355H46.6507L46.0679 292.74L25.4912 271.126L24.6722 270.266L22.2389 264.436L12.742 241.71L12.6475 241.481L6.19017 211.181L6.07992 210.692L2.66228 178.894L1.1582 145.944L3.39463 111.953L14.2067 79.4997" stroke="#10E80C" stroke-width="0.879808" stroke-linecap="round" stroke-linejoin="round"/>
<path d="M405.275 282.154L402.999 282.54L397.967 283.061L392.006 284.686L385.596 287.889L374.878 290.374L356.664 289.309L334.788 286.161L315.4 286.09L300.745 294.121L287.634 295.525" stroke="#10E80C" stroke-width="0.879808" stroke-linecap="round" stroke-linejoin="round"/>
<path d="M245.621 89.234L247.291 87.9088L245.235 59.2264L251.094 50.4071L257.473 40.6728L264.166 30.828L270.82 21.7011L277.01 13.9625L282.341 8.03832L286.515 4.01522L289.35 1.78279L290.893 0.709961" stroke="#10E80C" stroke-width="0.879808" stroke-linecap="round" stroke-linejoin="round"/>
<path d="M393.612 158.66L394.494 160.333L394.998 161.65" stroke="#10E80C" stroke-width="0.879808" stroke-linecap="round" stroke-linejoin="round"/>
<path d="M325.007 340.528L323.558 339.534L300.462 343.889L278.987 349.206L259.056 353.915L236.503 354.546" stroke="#10E80C" stroke-width="0.879808" stroke-linecap="round" stroke-linejoin="round"/>
<path d="M199.83 281.239L198.232 280.284L191.916 275.764" stroke="#10E80C" stroke-width="0.879808" stroke-linecap="round" stroke-linejoin="round"/>
<path d="M350.388 334.817L348.986 334.62L345.403 334.257L339.3 333.137L330.433 330.526L307.502 331.599L288.248 334.312L281.807 329.082" stroke="#10E80C" stroke-width="0.879808" stroke-linecap="round" stroke-linejoin="round"/>
<path d="M259.198 356.66L259.34 355.327L259.056 353.915L258.348 352.456L257.237 350.988L255.773 349.568L253.969 348.251L251.89 347.115L249.559 346.224L247.016 345.632L244.323 345.411L241.488 345.553L238.566 346.05L235.582 346.847L232.597 347.849L229.652 348.914L226.801 349.9L224.124 350.657" stroke="#10E80C" stroke-width="0.879808" stroke-linecap="round" stroke-linejoin="round"/>
<path d="M202.303 66.5232L202.358 65.2453L216.651 39.7262L216.966 39.1661L236.621 24.8722L237.605 19.5712" stroke="#10E80C" stroke-width="0.879808" stroke-linecap="round" stroke-linejoin="round"/>
<path d="M320.881 0.938721L320.251 1.79856L317.613 3.6839L313.069 6.6184L306.234 12.0062L297.075 21.0858L286.255 33.802L274.9 49.003L264.198 64.5748L254.945 78.1508L256.142 94.8033" stroke="#10E80C" stroke-width="0.879808" stroke-linecap="round" stroke-linejoin="round"/>
<path d="M406.039 205.289L405.937 206.22L406.157 213.043" stroke="#10E80C" stroke-width="0.879808" stroke-linecap="round" stroke-linejoin="round"/>
<path d="M222.226 78.5452L222.667 78.3164L227.667 53.7282L228.494 49.6577L232.03 38.8663L234.29 31.9718L236.621 24.8722L247.456 19.3661L251.654 17.2441L256.528 14.7672L257.221 14.4122L258.024 14.0099L259.804 11.9194L260.733 10.3812L261.623 9.52923L261.702 9.50556L261.985 9.3399" stroke="#10E80C" stroke-width="0.879808" stroke-linecap="round" stroke-linejoin="round"/>
<path d="M338.315 8.98492L347.08 13.0396" stroke="#10E80C" stroke-width="0.879808" stroke-linecap="round" stroke-linejoin="round"/>
<path d="M368.264 327.623L348.987 334.62L347.711 334.864L323.559 339.534L320.212 338.028L297.698 341.491L277.153 346.697L258.348 352.456L236.504 354.546L231.054 353.26L222.589 351.272" stroke="#10E80C" stroke-width="0.879808" stroke-linecap="round" stroke-linejoin="round"/>
<path d="M108.027 323.71L103.893 321.154L102.145 320.468" stroke="#10E80C" stroke-width="0.879808" stroke-linecap="round" stroke-linejoin="round"/>
<path d="M305.761 347.336L301.926 348.677L298.147 350.412L296.406 350.957L285.035 354.53L278.759 356.51L277.625 356.865L262.316 358.419L257.576 358.893L236.503 354.546" stroke="#10E80C" stroke-width="0.879808" stroke-linecap="round" stroke-linejoin="round"/>
<path d="M395.18 162.186L402.417 183.272" stroke="#10E80C" stroke-width="0.879808" stroke-linecap="round" stroke-linejoin="round"/>
<path d="M123.492 32.6108L141.762 40.1364L158.527 47.0546L168.772 50.139" stroke="#10E80C" stroke-width="0.879808" stroke-linecap="round" stroke-linejoin="round"/>
<path d="M251.009 16.0609L252.056 15.4771L257.316 12.2192L257.71 11.9194" stroke="#10E80C" stroke-width="0.879808" stroke-linecap="round" stroke-linejoin="round"/>
<path d="M261.356 10.3733L273.672 6.59473L283.138 3.6839L289.351 1.78278L317.613 3.6839L342.127 17.1416L359.082 40.941L366.626 71.0117L366.531 101.666L367.216 126.483L374.059 146.007L384.147 164.908L392.061 185.678L395.81 207.947L396.81 231.084L397.566 255.783L397.967 283.061L390.415 308.738L384.438 310.276L381.682 312.556L373.957 318.938L364.791 326.51L339.3 333.137L314.881 335.574L307.502 331.598L298.021 325.146L281.807 329.082L274.743 323.182L267.569 317.549L260.694 313.376L254.221 311.672L247.914 312.887L241.37 316.863L234.243 323.008L234.897 336.15L235.582 346.847L236.503 354.546L237.472 356.991L240.63 358.435L243.74 359.539L246.725 360.265L249.52 360.628L252.056 360.636L254.568 360.415L256.127 359.729L257.576 358.892L258.608 357.859L259.198 356.66L266.317 355.564L280.098 353.457L301.887 347.344L312.479 344.622L324.779 341.451L325.905 341.128L338.788 337.428L350.388 334.817L368.264 327.623L369.657 327.118L373.398 325.761L374.563 325.335L375.595 324.672L388.903 312.745L390.62 311.223L394.431 307.87L398.18 296.803L402.999 282.54L403.33 255.38L402.661 230.445L401.692 207.056L398.251 184.526L391.179 163.275L382.399 143.388L376.453 122.563L374.981 97.1619L373.036 67.2332L363.996 37.8803L345.891 14.6331L320.251 1.79856L291.044 0.552185L290.248 0.686289L288.319 1.38836L281.374 3.51035L271.9 6.29497L262.01 9.32413L261.828 9.60812L261.096 10.4601L261.025 10.4995L259.159 11.3357L258.009 11.8484L257.253 12.5505L252.103 15.3193L250.253 16.3133L236.621 24.8722L230.298 40.8069L226.392 50.6517L226.211 51.3143L219.069 76.4627L213.43 78.774L208.383 89.8336L204.359 108.995L202.028 134.49L201.209 162.486L201.248 190.261L201.744 217.153L202.799 242.964L204.902 266.259L208.839 282.73L214.139 289.593L219.037 291.502L222.195 297.891L233.093 299.145L241.299 298.428L243.953 299.011L249.764 300.313L250.78 300.36L251.198 300.321L258.049 300.352L263.466 300.376L266.908 301.417L276.531 307.941L287.752 303.602L302.604 302.277L322.385 313.313L341.387 322.353L362.901 312.075L374.878 290.373L377.871 263.371L378.446 237.182L377.737 212.104L373.595 187.911L363.87 165.973L349.38 148.208L335.804 133.394L329.158 115.526L327.701 90.5041L323.622 62.7052L313.314 38.1327L297.076 21.0858L277.011 13.9625L255.796 16.7077L253.221 19.942L253.135 19.9735L246.945 21.8115L236.621 24.8722L234.046 35.0247L230.763 47.9933L228.495 49.6577L226.392 50.6517L224.447 50.9751L222.652 50.6201L221.014 49.6104L219.565 48.0958L218.399 46.4945L217.533 44.8142L216.99 43.0393L216.801 41.154L216.966 39.1661L217.139 37.3281L217.816 35.9082L218.391 34.9616L218.541 34.6776L219.73 32.737L221.407 30.5283L223.431 28.3353L225.794 26.2212L228.447 24.2175L231.337 22.4111L236.621 24.8722L251.497 15.9899L252.056 15.4771L255.859 13.0396L257.466 12.2981L259.458 11.7695L259.805 11.9194L259.828 11.9115L260.545 11.6986L276.318 7.03648L286.516 4.01521L313.069 6.6184L335.788 20.8176L351.199 44.9878L357.373 75.3504L356.325 105.831L357.31 129.568L365.61 147.758L377.327 165.91L386.289 186.593L390.376 209.075L391.266 232.433L391.715 257.266L392.006 284.686L391.463 286.524L384.942 308.588L384.438 310.276L376.398 312.422L355.656 326.321L330.433 330.526L317.968 324.333L302.895 314.488L287.256 316.666L274.743 323.182L263.183 334.375L251.891 347.115L236.503 354.546L226.802 349.9L223.4 350.428L220.754 350.846L217.785 351.312L208.028 348.298L202.437 326.81L201.681 296.511L198.271 280.45L191.909 275.764L191.483 274.865L184.939 261.32L169.221 256.043L154.874 252.761L147.306 234.389L143.29 212.735L140.754 189.591L138.998 164.971V138.994L142.282 113.191L149.235 89.6206L159.079 69.576L171.804 55.5819L189.578 58.3035" stroke="#10E80C" stroke-width="0.879808" stroke-linecap="round" stroke-linejoin="round"/>
<path d="M250.984 16.1713L251.496 15.9899L252.103 15.3194L252.819 14.4359" stroke="#10E80C" stroke-width="0.879808" stroke-linecap="round" stroke-linejoin="round"/>
<path d="M180.994 365.606L179.553 364.201L165.851 350.87L162.433 317.912L156.196 296.945L140.62 287.841L118.902 279.787L99.5297 264.381L87.8199 241.386L81.7642 214.834L78.8584 186.767L78.2363 157.627L80.8429 127.927L88.2215 99.2445L100.805 73.7333L117.854 53.2154L139.581 41.3354L158.527 47.0546" stroke="#10E80C" stroke-width="0.879808" stroke-linecap="round" stroke-linejoin="round"/>
<path d="M251.197 300.321L250.922 300.313H250.819L250.748 300.408L242.614 304.573L241.37 316.863L240.031 332.403L238.566 346.05L236.503 354.546" stroke="#10E80C" stroke-width="0.879808" stroke-linecap="round" stroke-linejoin="round"/>
<path d="M219.037 291.502L230.872 296.093L232.172 296.4L233.093 299.145L233.676 309.645L234.243 323.008L226.305 330.676L217.525 339.306L208.028 348.298L198.216 356.715" stroke="#10E80C" stroke-width="0.879808" stroke-linecap="round" stroke-linejoin="round"/>
<path d="M188.554 273.918L181.987 270.305L178.97 268.649L169.222 256.043L163.457 236.559L160.441 213.974L158.654 189.993L157.63 164.703L158.189 138.395L161.654 112.923L168.332 90.8275L177.254 73.3467L187.908 62.1215" stroke="#10E80C" stroke-width="0.879808" stroke-linecap="round" stroke-linejoin="round"/>
<path d="M214.139 289.593L209.895 287.147L208.162 286.145" stroke="#10E80C" stroke-width="0.879808" stroke-linecap="round" stroke-linejoin="round"/>
<path d="M212.753 355.232L212.06 355.532L206.697 358.056" stroke="#10E80C" stroke-width="0.879808" stroke-linecap="round" stroke-linejoin="round"/>
<path d="M35.1064 51.9927L37.1539 50.8173L39.5557 49.429L68.5033 32.7449L112.547 29.1083" stroke="#10E80C" stroke-width="0.879808" stroke-linecap="round" stroke-linejoin="round"/>
<path d="M241.331 298.428L232.952 296.558L232.574 296.471L232.18 296.416L230.873 296.093" stroke="#10E80C" stroke-width="0.879808" stroke-linecap="round" stroke-linejoin="round"/>
<path d="M37.0989 271.749L37.0359 271.607L25.6096 244.865L25.1135 243.698L18.7428 213.382L15.6008 181.994L14.3408 149.47L15.4748 115.526L21.9793 81.2825L38.6029 51.1644L39.2408 50.77L68.5034 32.7449L77.0081 33.2419L94.5294 41.0199L117.854 53.2154L140.612 64.4643L159.079 69.576L177.254 73.3467L195.318 76.1313L213.43 78.774L224.849 81.3693L227.369 81.9372L229.849 82.4973L231.306 82.8286L234.936 84.4536L240.59 86.9858L245.622 89.234L246.087 89.4391L247.441 90.0465L247.473 90.0623L247.717 90.1649" stroke="#10E80C" stroke-width="0.879808" stroke-linecap="round" stroke-linejoin="round"/>
<path d="M201.201 65.7186L202.453 63.1627L202.768 61.9322L203.398 60.1494L204.312 58.3902L206.296 54.6196L208.958 50.4702L212.62 44.5855L215.423 40.2942L217.085 37.8251" stroke="#10E80C" stroke-width="0.879808" stroke-linecap="round" stroke-linejoin="round"/>
<path d="M268.325 300.4L263.458 300.376" stroke="#10E80C" stroke-width="0.879808" stroke-linecap="round" stroke-linejoin="round"/>
<path d="M200.688 65.3873L202.767 61.9321L204.35 58.2798L205.437 56.2209L206.295 54.6195" stroke="#10E80C" stroke-width="0.879808" stroke-linecap="round" stroke-linejoin="round"/>
<path d="M200.562 65.3084L202.523 61.6561L203.445 59.9364L203.949 58.9898L204.35 58.2798L208.957 50.4702L212.288 44.8616L214.824 40.728L216.832 37.5174L217.816 35.9082L218.391 34.9616L236.621 24.8723L247.433 27.578L257.473 40.6728L264.198 64.5748L267.23 92.4289L267.86 99.1498" stroke="#10E80C" stroke-width="0.879808" stroke-linecap="round" stroke-linejoin="round"/>
<path d="M221.817 78.277L222.054 78.4269L222.227 78.5452L225.243 80.5331L226.141 81.1247L227.369 81.9372" stroke="#10E80C" stroke-width="0.879808" stroke-linecap="round" stroke-linejoin="round"/>
<path d="M286.027 158.873L287.445 190.072L287.043 220.261L285.626 250.253L255.891 247.618L227.982 245.181L228.628 270.518" stroke="#10E80C" stroke-width="3.51923" stroke-linecap="round" stroke-linejoin="round"/>
<path d="M82.2598 215.023L117.948 212.972L122.799 236.677L147.077 234.65L163.661 236.874L180.647 239.312L179.033 215.402L177.82 190.885" stroke="#10E80C" stroke-width="3.51923" stroke-linecap="round" stroke-linejoin="round"/>
<path d="M326.574 27.2546L339.63 50.6754L345.694 81.0695L327.495 90.1807L329.11 115.305L309.895 124.022L302.005 127.264" stroke="#10E80C" stroke-width="3.51923" stroke-linejoin="round"/>
<path d="M82.2597 219.464C84.7082 219.464 86.6931 217.476 86.6931 215.023C86.6931 212.57 84.7082 210.582 82.2597 210.582C79.8111 210.582 77.8262 212.57 77.8262 215.023C77.8262 217.476 79.8111 219.464 82.2597 219.464Z" fill="#10E80C"/>
<g opacity="0.6">
<path opacity="0.6" d="M82.2594 222.036C86.1258 222.036 89.2601 218.896 89.2601 215.023C89.2601 211.15 86.1258 208.01 82.2594 208.01C78.3931 208.01 75.2588 211.15 75.2588 215.023C75.2588 218.896 78.3931 222.036 82.2594 222.036Z" stroke="#10E80C" stroke-width="0.879808" stroke-miterlimit="10"/>
</g>
<g opacity="0.3">
<path opacity="0.3" d="M82.2599 225.68C88.1355 225.68 92.8987 220.909 92.8987 215.023C92.8987 209.137 88.1355 204.366 82.2599 204.366C76.3842 204.366 71.6211 209.137 71.6211 215.023C71.6211 220.909 76.3842 225.68 82.2599 225.68Z" stroke="#10E80C" stroke-width="0.879808" stroke-miterlimit="10"/>
</g>
<path d="M58.2822 89.7941L88.4583 99.56L80.7725 128.093L114.13 135.232L138.872 138.986L139.054 165.46L140.558 190.048L178.041 190.238" stroke="#10E80C" stroke-width="3.51923" stroke-linecap="round" stroke-linejoin="round"/>
<path d="M58.9433 94.2669C61.3918 94.2669 63.3767 92.2785 63.3767 89.8257C63.3767 87.3729 61.3918 85.3845 58.9433 85.3845C56.4947 85.3845 54.5098 87.3729 54.5098 89.8257C54.5098 92.2785 56.4947 94.2669 58.9433 94.2669Z" fill="#10E80C"/>
<g opacity="0.6">
<path opacity="0.6" d="M58.944 96.8385C62.8104 96.8385 65.9447 93.6988 65.9447 89.8257C65.9447 85.9526 62.8104 82.8129 58.944 82.8129C55.0777 82.8129 51.9434 85.9526 51.9434 89.8257C51.9434 93.6988 55.0777 96.8385 58.944 96.8385Z" stroke="#10E80C" stroke-width="0.879808" stroke-miterlimit="10"/>
</g>
<g opacity="0.3">
<path opacity="0.3" d="M58.9435 100.483C64.8191 100.483 69.5823 95.7116 69.5823 89.8257C69.5823 83.9399 64.8191 79.1684 58.9435 79.1684C53.0678 79.1684 48.3047 83.9399 48.3047 89.8257C48.3047 95.7116 53.0678 100.483 58.9435 100.483Z" stroke="#10E80C" stroke-width="0.879808" stroke-miterlimit="10"/>
</g>
<path d="M177.726 194.537C180.175 194.537 182.16 192.548 182.16 190.096C182.16 187.643 180.175 185.654 177.726 185.654C175.278 185.654 173.293 187.643 173.293 190.096C173.293 192.548 175.278 194.537 177.726 194.537Z" fill="#10E80C"/>
<g opacity="0.6">
<path opacity="0.6" d="M177.726 197.108C181.593 197.108 184.727 193.969 184.727 190.096C184.727 186.223 181.593 183.083 177.726 183.083C173.86 183.083 170.726 186.223 170.726 190.096C170.726 193.969 173.86 197.108 177.726 197.108Z" stroke="#10E80C" stroke-width="0.879808" stroke-miterlimit="10"/>
</g>
<g opacity="0.3">
<path opacity="0.3" d="M177.726 200.753C183.601 200.753 188.364 195.981 188.364 190.096C188.364 184.21 183.601 179.438 177.726 179.438C171.85 179.438 167.087 184.21 167.087 190.096C167.087 195.981 171.85 200.753 177.726 200.753Z" stroke="#10E80C" stroke-width="0.879808" stroke-miterlimit="10"/>
</g>
<path d="M286.484 163.827C288.933 163.827 290.918 161.839 290.918 159.386C290.918 156.933 288.933 154.945 286.484 154.945C284.036 154.945 282.051 156.933 282.051 159.386C282.051 161.839 284.036 163.827 286.484 163.827Z" fill="#10E80C"/>
<g opacity="0.6">
<path opacity="0.6" d="M286.483 166.399C290.349 166.399 293.484 163.259 293.484 159.386C293.484 155.513 290.349 152.373 286.483 152.373C282.617 152.373 279.482 155.513 279.482 159.386C279.482 163.259 282.617 166.399 286.483 166.399Z" stroke="#10E80C" stroke-width="0.879808" stroke-miterlimit="10"/>
</g>
<g opacity="0.3">
<path opacity="0.3" d="M286.484 170.043C292.359 170.043 297.122 165.272 297.122 159.386C297.122 153.5 292.359 148.729 286.484 148.729C280.608 148.729 275.845 153.5 275.845 159.386C275.845 165.272 280.608 170.043 286.484 170.043Z" stroke="#10E80C" stroke-width="0.879808" stroke-miterlimit="10"/>
</g>
<path d="M228.629 274.96C231.077 274.96 233.062 272.971 233.062 270.518C233.062 268.066 231.077 266.077 228.629 266.077C226.18 266.077 224.195 268.066 224.195 270.518C224.195 272.971 226.18 274.96 228.629 274.96Z" fill="#10E80C"/>
<g opacity="0.6">
<path opacity="0.6" d="M228.629 277.531C232.495 277.531 235.629 274.391 235.629 270.518C235.629 266.645 232.495 263.505 228.629 263.505C224.762 263.505 221.628 266.645 221.628 270.518C221.628 274.391 224.762 277.531 228.629 277.531Z" stroke="#10E80C" stroke-width="0.879808" stroke-miterlimit="10"/>
</g>
<g opacity="0.3">
<path opacity="0.3" d="M228.628 281.176C234.504 281.176 239.267 276.404 239.267 270.518C239.267 264.632 234.504 259.861 228.628 259.861C222.752 259.861 217.989 264.632 217.989 270.518C217.989 276.404 222.752 281.176 228.628 281.176Z" stroke="#10E80C" stroke-width="0.879808" stroke-miterlimit="10"/>
</g>
<path d="M378.532 242.404C380.981 242.404 382.966 240.415 382.966 237.963C382.966 235.51 380.981 233.521 378.532 233.521C376.084 233.521 374.099 235.51 374.099 237.963C374.099 240.415 376.084 242.404 378.532 242.404Z" fill="#10E80C"/>
<g opacity="0.6">
<path opacity="0.6" d="M378.532 244.975C382.398 244.975 385.533 241.836 385.533 237.963C385.533 234.09 382.398 230.95 378.532 230.95C374.666 230.95 371.531 234.09 371.531 237.963C371.531 241.836 374.666 244.975 378.532 244.975Z" stroke="#10E80C" stroke-width="0.879808" stroke-miterlimit="10"/>
</g>
<g opacity="0.3">
<path opacity="0.3" d="M378.532 248.62C384.408 248.62 389.171 243.849 389.171 237.963C389.171 232.077 384.408 227.305 378.532 227.305C372.657 227.305 367.894 232.077 367.894 237.963C367.894 243.849 372.657 248.62 378.532 248.62Z" stroke="#10E80C" stroke-width="0.879808" stroke-miterlimit="10"/>
</g>
<path d="M326.574 31.6958C329.023 31.6958 331.008 29.7074 331.008 27.2546C331.008 24.8018 329.023 22.8134 326.574 22.8134C324.126 22.8134 322.141 24.8018 322.141 27.2546C322.141 29.7074 324.126 31.6958 326.574 31.6958Z" fill="#10E80C"/>
<g opacity="0.6">
<path opacity="0.6" d="M326.575 34.2674C330.441 34.2674 333.576 31.1277 333.576 27.2546C333.576 23.3815 330.441 20.2418 326.575 20.2418C322.709 20.2418 319.574 23.3815 319.574 27.2546C319.574 31.1277 322.709 34.2674 326.575 34.2674Z" stroke="#10E80C" stroke-width="0.879808" stroke-miterlimit="10"/>
</g>
<g opacity="0.3">
<path opacity="0.3" d="M326.574 37.9118C332.45 37.9118 337.213 33.1404 337.213 27.2545C337.213 21.3687 332.45 16.5973 326.574 16.5973C320.699 16.5973 315.936 21.3687 315.936 27.2545C315.936 33.1404 320.699 37.9118 326.574 37.9118Z" stroke="#10E80C" stroke-width="0.879808" stroke-miterlimit="10"/>
</g>
<path d="M377.76 236.795L362.475 237.687L361.766 213.477L358.033 188.904L340.977 189.796L336.354 166.296L325.511 163.985L311.297 160.601L286.483 159.386" stroke="#10E80C" stroke-width="3.51923" stroke-linecap="round" stroke-linejoin="round"/>
</g>
<defs>
<clipPath id="clip0_1466_2642">
<rect width="406.471" height="366" fill="white" transform="translate(0.764648)"/>
</clipPath>
</defs>
</svg>
