<svg width="989" height="611" viewBox="0 0 989 611" fill="none" xmlns="http://www.w3.org/2000/svg">
<g clip-path="url(#clip0_1466_2940)">
<path d="M987.669 610.307L947.871 609.947L908.095 609.598L868.387 609.261L828.757 608.923L789.184 608.586L749.633 608.238L710.071 607.9L670.464 607.574L630.823 607.27L591.205 606.944L551.643 606.607L512.16 606.27L472.721 605.932L433.306 605.617L393.89 605.314L354.474 605.01L315.047 604.729L275.642 604.437L236.271 604.122L196.923 603.818L157.62 603.481L118.339 603.166L79.0578 602.851L39.7994 602.525L0.563477 602.21" stroke="#10E80C" stroke-width="1.12456" stroke-linecap="round" stroke-linejoin="round"/>
<path d="M979.245 586.927L940.223 586.612L901.167 586.354L862.246 586.151L823.482 585.926L784.798 585.6L746.135 585.173L707.394 584.689L668.496 584.262L629.552 583.902L590.687 583.565L551.946 583.227L513.295 582.89L474.723 582.564L436.161 582.26L397.589 581.99L358.96 581.754L320.275 581.54L281.624 581.349L242.984 581.102L204.412 580.809L165.907 580.438L127.368 580.101L88.8409 579.775L50.3584 579.471L11.8984 579.156" stroke="#10E80C" stroke-width="1.12456" stroke-linecap="round" stroke-linejoin="round"/>
<path d="M971.069 564.65L932.722 564.526L894.273 564.728L855.97 565.189L818.107 565.515L780.569 565.268L742.986 564.402L704.987 563.188L666.595 562.209L628.18 561.557L589.99 561.118L552.058 560.781L514.329 560.455L476.69 560.14L439.073 559.836L401.356 559.589L363.481 559.465L325.47 559.488L287.393 559.589L249.506 559.567L211.744 559.128L173.891 558.554L136.049 558.06L98.2529 557.655L60.5014 557.317L22.7949 557.014" stroke="#10E80C" stroke-width="1.12456" stroke-linecap="round" stroke-linejoin="round"/>
<path d="M963.141 543.789L925.423 544.261L887.503 545.959L849.504 548.928L812.349 551.582L776.644 551.886L771.932 550.311L770.639 549.907L769.874 549.67L760.304 546.735L753.838 544.756L751.78 544.115L746.573 542.518L736.767 539.504L699.87 530.204L662.062 524.851L624.345 523.164L587.234 523.862L551.023 525.369L519.974 526.235L515.881 526.291L512.338 526.268L482.83 526.178L480.873 526.167L445.72 524.649L409.835 522.389L373.253 520.735L336.187 520.848L299.066 523.761L288.27 525.526L288.146 525.616L287.899 525.886L285.054 527.955L280.87 529.754L275.607 531.205L269.557 532.206L263.08 532.69L256.557 532.645L250.383 532.049L244.929 530.969L240.51 529.44L238.969 523.457L238.778 516.889L239.959 510.153L242.444 503.62L246.076 497.693L250.653 492.734L255.894 489L261.483 486.74L268.388 487.583L274.933 489.956L280.735 493.723L285.447 498.672L286.954 501.269L288.956 504.261L289.642 505.925L290.384 508.545L290.609 510.851L290.766 517.373L289.327 519.69L286.302 521.871L281.871 523.783L276.271 525.312L269.838 526.369L262.945 526.887L256.017 526.831L249.461 526.212L243.67 525.065L238.969 523.457L235.652 521.489L235.46 514.933L236.832 508.309L239.678 502.023L243.85 496.411L249.09 491.834L254.859 488.281L261.483 486.74L268.343 487.032L268.691 487.134L271.615 487.662L273.988 487.887L274.854 488.899L275.416 489.225L278.677 491.103L279.689 491.688L280.6 492.205L281.331 492.801L283.738 494.983L285.278 496.771L285.942 497.896L287.966 501.269L288.596 502.326L288.81 504.486L287.449 506.645L284.593 508.68L280.409 510.457L275.135 511.874L269.062 512.864L262.574 513.347L256.04 513.291L249.855 512.717L244.39 511.649L239.959 510.153L236.832 508.309L235.168 506.251L235.078 504.081L237.327 499.83L238.126 498.312L239.408 496.434L241.589 494.095L242.579 493.251L248.191 489.754L254.612 487.482L254.983 486.931L261.483 486.74L267.915 486.234L270.209 486.279L271.728 486.774L272.414 486.999L273.954 487.842L274.157 487.932L274.798 488.303L277.069 489.506L279.375 490.777L280.6 492.205L280.735 493.723L279.757 495.242L277.733 496.67L274.753 497.918L271.008 498.908L266.701 499.594L262.101 499.931L257.479 499.897L253.094 499.492L249.225 498.75L246.076 497.693L243.85 496.411L242.669 494.961L242.59 493.442L243.614 491.935L245.716 490.575L248.168 489.461L248.966 488.607L250.35 487.718L253.397 486.987L255.242 486.549L255.725 486.425L261.483 486.74L266.105 485.66L267.297 485.919L267.904 486.515L268.343 487.032L268.388 487.583L268.028 488.123L267.297 488.629L266.217 489.079L264.868 489.439L261.483 486.74L256.793 485.987L254.825 486.38L252.441 486.852L250.35 487.718L248.899 488.697L248.146 489.102L245.716 490.575L243.614 491.935L242.568 493.049" stroke="#10E80C" stroke-width="1.12456" stroke-linecap="round" stroke-linejoin="round"/>
<path d="M955.539 524.345L918.541 525.897L881.34 530.35L844.038 538.177L832.613 541.124L819.962 544.396L812.416 546.342L811.539 546.567L807.535 547.601L802.385 547.995" stroke="#10E80C" stroke-width="1.12456" stroke-linecap="round" stroke-linejoin="round"/>
<path d="M948.521 504.958L912.378 507.173L876.437 513.64L840.89 524.84L834.828 527.798" stroke="#10E80C" stroke-width="1.12456" stroke-linecap="round" stroke-linejoin="round"/>
<path d="M941.843 484.401L906.25 485.323L870.399 488.506L841.689 493.15" stroke="#10E80C" stroke-width="1.12456" stroke-linecap="round" stroke-linejoin="round"/>
<path d="M935.232 464.867L900.27 465.013L865.116 465.969L831.57 467.308" stroke="#10E80C" stroke-width="1.12456" stroke-linecap="round" stroke-linejoin="round"/>
<path d="M727.063 495.984L694.215 492.273L657.307 494.162L621.141 502.675L589.023 515.349L585.953 516.181" stroke="#10E80C" stroke-width="1.12456" stroke-linecap="round" stroke-linejoin="round"/>
<path d="M177.422 392.918L145.406 385.012L113.12 381.425" stroke="#10E80C" stroke-width="1.12456" stroke-linecap="round" stroke-linejoin="round"/>
<path d="M97.5332 407.402L130.382 407.931L163.016 408.954L195.224 409.843L227.307 410.124L259.819 409.921L292.959 409.82L326.584 410.99L360.365 414.408L393.81 420.245L399.354 421.437" stroke="#10E80C" stroke-width="1.12456" stroke-linecap="round" stroke-linejoin="round"/>
<path d="M105.63 393.559L138.276 395.144L170.731 398.631L199.497 401.678L202.286 401.971" stroke="#10E80C" stroke-width="1.12456" stroke-linecap="round" stroke-linejoin="round"/>
<path d="M586.65 380.098L617.846 379.772L649.761 379.547L681.844 379.468L713.962 379.513L746.034 379.626L778.039 379.783L809.988 379.952L841.914 380.154L873.829 380.345L905.722 380.559" stroke="#10E80C" stroke-width="1.12456" stroke-linecap="round" stroke-linejoin="round"/>
<path d="M127.335 349.724L158.283 352.209L178.21 355.751L178.435 355.796" stroke="#10E80C" stroke-width="1.12456" stroke-linecap="round" stroke-linejoin="round"/>
<path d="M134.79 333.721L165.221 334.823L184.822 335.936" stroke="#10E80C" stroke-width="1.12456" stroke-linecap="round" stroke-linejoin="round"/>
<path d="M528.408 348.779L527.992 348.599L502.892 343.64L487.598 352.692L482.999 351.467L479.58 349.96L477.533 348.273L476.96 346.496L477.893 344.731L480.277 343.089L483.954 341.649L488.711 340.513L502.892 343.64L525.687 350.263L528.206 348.689L551.687 359.339L557.579 363.837L572.536 375.229L576.674 380.199L589.27 395.313L591.519 399.789L600.886 418.378L602.292 424.327L606.712 443.006L606.419 467.713L601.37 486.864L600.088 491.047L597.321 495.815L589.112 509.962L589.078 512.391L586.042 516.069L585.345 516.282L584.321 516.462L571.153 518.745L555.105 521.523L549.876 522.434L534.931 524.109L516.061 526.223L515.69 526.347L512.338 526.268L489.262 526.145L482.83 526.122L467.041 524.053L449.172 521.703L447.53 521.377L442.818 509.67L438.848 487.134L438.68 462.011L442.357 435.854L449.655 410.326L460.103 387.037L473.035 367.435L487.598 352.692L493.097 353.581L499.181 354.053L505.49 354.087L511.63 353.693L517.264 352.895L522.043 351.725L540.239 365.501L547.278 362.622L551.687 359.339L553.227 355.864L551.833 352.389L540.396 348.846L537.202 347.857L529.477 345.462L528.161 345.057L526.036 343.381L525.428 342.841L522.797 341.874L517.984 340.705L512.541 339.85L506.547 339.389L502.892 343.64L505.49 354.087L507.964 370.202L510.157 391.096L511.934 415.499L513.182 441.893L513.8 468.578L513.755 493.847L513.069 516.102L512.338 526.212" stroke="#10E80C" stroke-width="1.12456" stroke-linecap="round" stroke-linejoin="round"/>
<path d="M0.563477 602.21L11.899 579.156L22.796 557.014L33.2769 535.726L43.3642 515.248L53.0917 495.467L62.4818 476.405L71.5795 458.019L80.441 440.273L89.0889 423.247L97.5343 407.402L105.631 393.559L113.121 381.425L120.082 367.357L127.335 349.724L134.791 333.721" stroke="#10E80C" stroke-width="1.12456" stroke-linecap="round" stroke-linejoin="round"/>
<path d="M39.7979 602.525L50.3575 579.471L60.501 557.317L70.2622 536.052L79.6635 515.607L88.7162 495.77L97.4541 476.675L105.922 458.266L114.176 440.498L122.284 423.495L130.381 407.931L138.276 395.145L145.405 385.012L151.433 371.855L158.282 352.209L165.22 334.823" stroke="#10E80C" stroke-width="1.12456" stroke-linecap="round" stroke-linejoin="round"/>
<path d="M79.0566 602.851L88.8403 579.775L98.2529 557.655L107.294 536.502L115.998 516.181L124.376 496.198L132.473 476.968L140.311 458.525L147.913 440.757L155.403 423.866L163.016 408.954L170.731 398.631L177.422 392.918L196.663 399.463L202.488 401.746L204.108 402.004L211.744 402.128" stroke="#10E80C" stroke-width="1.12456" stroke-linecap="round" stroke-linejoin="round"/>
<path d="M118.339 603.166L127.369 580.101L136.051 558.06L144.384 537.177L152.379 517.249L160.105 496.861L167.55 477.361L174.724 458.817L181.64 441.038L188.421 424.237L195.225 409.843L202.49 401.746L204.109 402.004" stroke="#10E80C" stroke-width="1.12456" stroke-linecap="round" stroke-linejoin="round"/>
<path d="M540.238 365.501L556.342 384.214L569.342 406.728L578.395 431.648L582.949 457.434L582.724 482.467L577.776 505.194L571.164 518.734" stroke="#10E80C" stroke-width="1.12456" stroke-linecap="round" stroke-linejoin="round"/>
<path d="M157.619 603.481L165.907 580.438L173.892 558.554L181.606 538.245L188.848 519.307L195.944 497.929L202.703 477.912L209.135 459.222L215.422 441.42L221.494 424.552L227.308 410.124L232.886 402.454" stroke="#10E80C" stroke-width="1.12456" stroke-linecap="round" stroke-linejoin="round"/>
<path d="M196.922 603.818L204.411 580.809L211.744 559.128L218.941 539.785L225.441 523.378L231.952 499.594L237.901 478.654L243.715 460.043L249.349 442.185L254.758 425.002L259.819 409.921L264.654 399.766L297.356 396.629L330.317 395.167L363.256 395.459L395.935 397.214L408.474 398.203" stroke="#10E80C" stroke-width="1.12456" stroke-linecap="round" stroke-linejoin="round"/>
<path d="M236.27 604.122L242.983 581.102L249.506 559.567L255.904 541.326L257.681 538.099L257.715 537.694L257.423 537.334L256.557 532.645L256.017 526.831L255.848 520.252L256.039 513.291L256.602 506.375L257.479 499.897L258.637 494.263L259.998 489.788L261.482 486.74L264.563 485.424L265.958 485.694L267.296 485.919L270.209 486.279" stroke="#10E80C" stroke-width="1.12456" stroke-linecap="round" stroke-linejoin="round"/>
<path d="M275.643 604.437L281.625 581.349L287.394 559.589L293.073 540.134L299.067 523.761L304.443 501.359L309.683 482.917L313.945 466.757L318.14 448.921L322.503 429.399L326.585 410.99L330.319 395.167L334.007 381.402L337.763 366.873L340.957 350.005L343.926 334.531" stroke="#10E80C" stroke-width="1.12456" stroke-linecap="round" stroke-linejoin="round"/>
<path d="M315.047 604.729L320.276 581.54L325.472 559.488L330.701 539.088L336.189 520.848L341.609 503.012L346.231 489.461L349.245 476.439L352.573 458.502L356.802 436.27L360.367 414.408L363.257 395.459L366.057 379.356L368.992 364.118L371.815 348.621L374.547 334.002" stroke="#10E80C" stroke-width="1.12456" stroke-linecap="round" stroke-linejoin="round"/>
<path d="M354.475 605.01L358.962 581.754L363.482 559.465L368.172 538.661L373.255 520.735L378.495 507.612L382.33 500.707L383.634 491.879L386.064 473.571L390.517 447.436L393.812 420.245L395.937 397.214L397.95 378.984L400.199 363.218L402.561 348.205L404.99 333.912" stroke="#10E80C" stroke-width="1.12456" stroke-linecap="round" stroke-linejoin="round"/>
<path d="M393.889 605.314L397.588 581.99L401.356 559.589L405.382 538.83L409.835 522.389L414.446 514.652" stroke="#10E80C" stroke-width="1.12456" stroke-linecap="round" stroke-linejoin="round"/>
<path d="M433.307 605.617L436.163 582.26L439.076 559.836L442.213 539.313L445.722 524.649L449.174 521.703" stroke="#10E80C" stroke-width="1.12456" stroke-linecap="round" stroke-linejoin="round"/>
<path d="M472.721 605.932L474.722 582.564L476.69 560.14L478.726 539.786L480.874 526.167" stroke="#10E80C" stroke-width="1.12456" stroke-linecap="round" stroke-linejoin="round"/>
<path d="M601.551 486.763L601.832 486.605L621.939 475.629L655.372 461.617L689.626 452.655L724.038 448.426L758.27 447.032L762.397 446.987" stroke="#10E80C" stroke-width="1.12456" stroke-linecap="round" stroke-linejoin="round"/>
<path d="M419.81 379.288L397.949 378.985L366.056 379.356L334.006 381.402L302.013 386.182L270.3 394.357L264.655 399.767L251.036 400.925L238.857 401.948L232.886 402.454L229.591 402.409L220.212 402.252L211.744 402.128L210.091 399.452L207.156 390.736L205.447 380.21L205.075 368.504L206.076 356.336L208.37 344.416L211.834 333.496L216.242 324.219L221.337 317.145L224.081 317.347L226.993 317.37L229.883 317.19L232.605 316.83L234.989 316.313L242.804 322.61L249.799 331.168L255.546 341.492L259.673 352.951L261.967 364.883L262.259 376.544L260.561 387.25L256.985 396.359L248.843 398.305L239.521 399.654L229.546 400.318L219.537 400.25L210.091 399.452L201.78 397.99L197.698 389.083L195.393 378.467L195.011 366.794L196.574 354.728L200.015 343.032L205.098 332.394L211.53 323.454L218.919 316.751L221.337 317.145L226.802 312.658L238.857 314.131L250.283 318.337L260.404 325.017L268.647 333.777L270.739 337.466L274.719 343.808L275.698 346.181L277.328 351.928L277.666 355.358L275.113 358.788L275.394 370.382L270.064 373.654L267.905 384.506L260.561 387.25L251.306 389.443L240.679 390.961L229.321 391.703L217.918 391.625L207.156 390.736L197.698 389.083L190.096 386.778L184.8 383.944L184.282 383.022L183.529 379.536L181.685 373.069L181.28 361.453L178.412 358.158L178.671 355.83L180.92 346.699L186.194 336.049L193.931 326.839L203.681 319.597L214.859 314.783L226.802 312.658L238.801 313.344L239.363 313.513L243.164 314.66L250.148 316.459L251.272 317.111L256.749 320.721L260.224 322.802L261.303 323.881L266.33 328.919L268.388 331L269.423 332.765L272.155 337.421L274.202 340.896L274.506 344.09L272.088 347.295L267.05 350.308L259.673 352.951L250.384 355.077L239.712 356.55L228.309 357.269L216.861 357.191L206.076 356.336L196.574 354.728L188.949 352.501L183.63 349.769L180.92 346.699L180.942 343.494L184.822 335.936L186.194 333.26L188.589 330.494L193.751 324.713L193.92 324.567L195.82 322.397L201.196 318.944L203.647 317.707L214.825 313.985L215.5 313.198L226.802 312.658L238.07 312.591L238.801 313.344L238.857 314.131L238.205 314.93L236.889 315.661L234.989 316.313L226.802 312.658L216.827 312.456L215.703 312.962L213.959 313.265L209.214 314.604L207.561 315.076L204.974 316.515L203.647 318.045L203.681 319.597L205.064 321.081L207.729 322.386L211.53 323.454L216.242 324.219L221.595 324.635L227.252 324.668L232.897 324.331L238.183 323.623L242.804 322.61L246.493 321.34L249.035 319.889L250.283 318.337L250.17 316.796L248.72 315.335L246.009 314.041L244.3 313.659L239.914 312.579L237.542 312.051L236.676 311.927L226.802 312.658L223.811 310.949L221.112 311.297L218.739 311.815L217.288 312.208L216.377 312.444L216.062 312.534L213.195 313.31L211.272 313.828L207.561 315.076" stroke="#10E80C" stroke-width="1.12456" stroke-linecap="round" stroke-linejoin="round"/>
<path d="M478.533 343.538L480.276 343.089L502.891 343.64" stroke="#10E80C" stroke-width="1.12456" stroke-linecap="round" stroke-linejoin="round"/>
<path d="M805.568 446.616L826.305 446.526L860.368 446.458H894.6L928.854 446.627" stroke="#10E80C" stroke-width="1.12456" stroke-linecap="round" stroke-linejoin="round"/>
<path d="M306.781 372.901L309.93 353.12L313.259 335.7" stroke="#10E80C" stroke-width="1.12456" stroke-linecap="round" stroke-linejoin="round"/>
<path d="M403.144 483.839L386.062 473.571L352.573 458.502L318.139 448.921L283.57 444.153L249.349 442.185L215.421 441.42L181.64 441.038L147.914 440.757L114.177 440.498L80.4404 440.273" stroke="#10E80C" stroke-width="1.12456" stroke-linecap="round" stroke-linejoin="round"/>
<path d="M598.119 399.373L617.754 398.136L650.524 396.494L683.44 395.561L716.265 395.257L748.934 395.28L781.467 395.415L813.945 395.594L846.411 395.797L878.843 395.999L911.253 396.224" stroke="#10E80C" stroke-width="1.12456" stroke-linecap="round" stroke-linejoin="round"/>
<path d="M432.235 518.261L425.094 504.047L419.977 481.263L419.764 456.253L424.498 430.568L433.899 405.794L447.383 383.483L464.105 365.006" stroke="#10E80C" stroke-width="1.12456" stroke-linecap="round" stroke-linejoin="round"/>
<path d="M570.826 363.87L586.458 363.904L617.653 363.983L648.949 364.084L680.336 364.208L711.79 364.343L743.266 364.489L774.72 364.658L806.152 364.826L837.561 365.018L868.958 365.209L900.345 365.411" stroke="#10E80C" stroke-width="1.12456" stroke-linecap="round" stroke-linejoin="round"/>
<path d="M890.068 336.544L895.14 350.747L900.347 365.411L905.722 380.559L911.255 396.224L916.934 412.44L922.771 429.219L928.854 446.627L935.231 464.867L941.843 484.401L948.523 504.958L955.54 524.345L963.142 543.789L971.07 564.65L979.246 586.927L987.669 610.307" stroke="#10E80C" stroke-width="1.12456" stroke-linecap="round" stroke-linejoin="round"/>
<path d="M859.637 336.364L864.236 350.556L868.959 365.209L873.829 380.345L878.844 395.999L883.983 412.193L889.224 428.971L894.599 446.458L900.267 465.013L906.25 485.323L912.379 507.173L918.541 525.897L925.423 544.261L932.722 564.526L940.223 586.612L947.87 609.947" stroke="#10E80C" stroke-width="1.12456" stroke-linecap="round" stroke-linejoin="round"/>
<path d="M829.207 336.184L833.334 350.365L837.563 365.018L841.915 380.154L846.413 395.797L851.012 411.979L855.69 428.769L860.369 446.458L865.114 465.969L870.4 488.506L876.439 513.64L881.342 530.35L887.504 545.959L894.274 564.728L901.168 586.354L908.095 609.598" stroke="#10E80C" stroke-width="1.12456" stroke-linecap="round" stroke-linejoin="round"/>
<path d="M798.777 336.004L802.432 350.185L806.154 364.826L809.989 379.952L813.948 395.594L818.03 411.777L822.179 428.611L826.307 446.526L829.725 464.834" stroke="#10E80C" stroke-width="1.12456" stroke-linecap="round" stroke-linejoin="round"/>
<path d="M768.344 335.835L771.515 350.005L774.72 364.658L778.037 379.783L781.467 395.415L785.032 411.608L788.653 428.51L791.386 442.106L791.6 443.13L791.622 443.265" stroke="#10E80C" stroke-width="1.12456" stroke-linecap="round" stroke-linejoin="round"/>
<path d="M737.924 335.678L740.6 349.847L743.265 364.489L746.032 379.626L748.933 395.279L751.958 411.541L755.073 428.623L758.267 447.032L758.559 448.988" stroke="#10E80C" stroke-width="1.12456" stroke-linecap="round" stroke-linejoin="round"/>
<path d="M707.529 335.52L709.7 349.69L711.791 364.343L713.962 379.513L716.267 395.257L718.741 411.811L721.328 429.489L724.038 448.426L727.142 469.512L729.098 485.289" stroke="#10E80C" stroke-width="1.12456" stroke-linecap="round" stroke-linejoin="round"/>
<path d="M677.154 335.363L678.83 349.532L680.337 364.208L681.844 379.468L683.441 395.561L685.262 413.014L687.32 432.266L689.626 452.655L691.931 472.424L694.214 492.273L696.294 514.314L699.87 530.204L702.637 544.902L704.987 563.188L707.394 584.689L710.07 607.9" stroke="#10E80C" stroke-width="1.12456" stroke-linecap="round" stroke-linejoin="round"/>
<path d="M646.826 335.217L647.996 349.375L648.952 364.084L649.761 379.547L650.526 396.494L651.516 416.084L653.191 438.451L655.373 461.617L656.542 480.285L657.307 494.162L659.365 509.231L662.064 524.851L664.527 542.181L666.596 562.209L668.496 584.262L670.464 607.574" stroke="#10E80C" stroke-width="1.12456" stroke-linecap="round" stroke-linejoin="round"/>
<path d="M616.518 335.059L617.215 349.229L617.653 363.983L617.845 379.772L617.755 398.136L617.878 421.347L619.329 448.719L621.938 475.629L622.242 494.061L621.14 502.675L622.118 510.558L624.345 523.165L626.492 540.798L628.179 561.557L629.551 583.902L630.822 607.27" stroke="#10E80C" stroke-width="1.12456" stroke-linecap="round" stroke-linejoin="round"/>
<path d="M556.017 334.744L555.781 348.925L555.635 353.952" stroke="#10E80C" stroke-width="1.12456" stroke-linecap="round" stroke-linejoin="round"/>
<path d="M586.244 334.902L586.48 349.083L586.458 363.904L586.154 379.581" stroke="#10E80C" stroke-width="1.12456" stroke-linecap="round" stroke-linejoin="round"/>
<path d="M776.643 551.886L780.567 565.268L784.796 585.6L789.181 608.586" stroke="#10E80C" stroke-width="1.12456" stroke-linecap="round" stroke-linejoin="round"/>
<path d="M733.023 484.682L739.557 472.514L748.722 461.955L759.979 453.622L772.642 448.01L785.979 445.457L796.988 450.045L798.698 449.191L810.618 455.927L821.02 465.272L829.275 476.675L834.897 489.461L837.529 502.866" stroke="#10E80C" stroke-width="1.12456" stroke-linecap="round" stroke-linejoin="round"/>
<path d="M515.689 526.347L515.161 540.078L514.329 560.455L513.294 582.89L512.158 606.269" stroke="#10E80C" stroke-width="1.12456" stroke-linecap="round" stroke-linejoin="round"/>
<path d="M726.816 506.251L729.043 515.652L729.819 518.959L731.562 522.4L731.742 526.718L736.769 539.504L740.221 548.906L742.988 564.402L746.136 585.173L749.634 608.237" stroke="#10E80C" stroke-width="1.12456" stroke-linecap="round" stroke-linejoin="round"/>
<path d="M731.706 476.214L730.604 480.049L730.211 481.421L729.142 485.649L727.141 493.15L729.491 497.727L735.08 502.09L743.615 506.004L754.625 509.197L767.456 511.492L781.333 512.729L795.424 512.83L808.84 511.806L820.794 509.692L830.544 506.656L837.528 502.866" stroke="#10E80C" stroke-width="1.12456" stroke-linecap="round" stroke-linejoin="round"/>
<path d="M464.072 346.653L465.5 334.216" stroke="#10E80C" stroke-width="1.12456" stroke-linecap="round" stroke-linejoin="round"/>
<path d="M750.487 453.329L747.698 456.039L746.247 457.456L741.839 461.73L740.141 463.383" stroke="#10E80C" stroke-width="1.12456" stroke-linecap="round" stroke-linejoin="round"/>
<path d="M181.278 361.453L183.629 349.769L188.599 338.714L195.886 328.964L205.063 321.081L215.577 315.537L226.801 312.658L232.3 310.994" stroke="#10E80C" stroke-width="1.12456" stroke-linecap="round" stroke-linejoin="round"/>
<path d="M275.114 358.788L272.089 347.295L266.5 336.566L258.651 327.244L249.036 319.889L238.206 314.93L226.803 312.658L216.963 316.2L207.731 322.386L199.679 330.853L193.291 341.087L188.95 352.501L186.915 364.388L187.309 376.038L190.098 386.778L195.102 395.943L201.782 397.99L204.975 401.791" stroke="#10E80C" stroke-width="1.12456" stroke-linecap="round" stroke-linejoin="round"/>
<path d="M177.422 392.918L182.449 381.92L182.516 381.481L182.089 380.784" stroke="#10E80C" stroke-width="1.12456" stroke-linecap="round" stroke-linejoin="round"/>
<path d="M270.063 373.654L269.782 362.026L267.049 350.308L262.045 339.186L255.05 329.335L246.492 321.34L236.888 315.661L226.801 312.658L214.825 313.693L211.991 314.3L204.973 316.515L203.646 317.707L193.919 324.601L193.93 326.839L195.887 328.964L199.677 330.853L205.097 332.394L211.833 333.496L219.469 334.092L227.577 334.148L235.64 333.654L243.197 332.641L249.798 331.168L255.05 329.335L258.649 327.244L260.403 325.017L260.223 322.802L258.131 320.699L251.272 317.111L250.147 316.459L248.719 315.334L241.904 313.243L239.913 312.579L237.844 312.366L236.877 311.905L234.718 311.387L232.3 310.994L229.579 310.791L226.801 312.658L218.918 316.751L216.961 316.2L215.578 315.537L214.858 314.783L214.825 313.693L215.702 312.962L216.826 312.456L218.738 311.815L226.801 312.658L232.604 316.83L238.182 323.622L243.197 332.641L247.358 343.336L250.383 355.076L252.104 367.165L252.419 378.85L251.305 389.443L248.842 398.305L248.415 399.092" stroke="#10E80C" stroke-width="1.12456" stroke-linecap="round" stroke-linejoin="round"/>
<path d="M270.008 388.195L271.391 385.563L276.373 382.965L306.781 372.901" stroke="#10E80C" stroke-width="1.12456" stroke-linecap="round" stroke-linejoin="round"/>
<path d="M606.689 423.483L617.879 421.347L651.514 416.084L685.262 413.014L718.741 411.81L751.96 411.541L785.034 411.608L818.028 411.777L851.011 411.979L883.984 412.193L916.933 412.44" stroke="#10E80C" stroke-width="1.12456" stroke-linecap="round" stroke-linejoin="round"/>
<path d="M798.729 445.345L797.773 445.098L785.976 445.457L781.86 451.148L777.857 459.762L774.202 470.816L771.143 483.659L768.838 497.491L767.455 511.492L767.072 524.784L767.691 536.581L769.288 546.173L770.57 549.704" stroke="#10E80C" stroke-width="1.12456" stroke-linecap="round" stroke-linejoin="round"/>
<path d="M238.068 312.591L238.766 312.771L241.903 313.243L246.008 314.041" stroke="#10E80C" stroke-width="1.12456" stroke-linecap="round" stroke-linejoin="round"/>
<path d="M272.156 337.421L283.076 337.061L313.259 335.7L343.926 334.531L374.547 334.002L404.989 333.912L435.296 334.036L465.502 334.216L495.674 334.407L525.835 334.587L556.018 334.744L586.246 334.902L616.519 335.059L646.826 335.217L677.155 335.363L707.53 335.52L737.927 335.678L768.346 335.835L798.777 336.004L829.207 336.184L859.638 336.364L890.068 336.544" stroke="#10E80C" stroke-width="1.12456" stroke-linecap="round" stroke-linejoin="round"/>
<path d="M609.311 452.542L619.33 448.719L653.191 438.451L687.321 432.266L721.328 429.489L755.076 428.623L788.655 428.51L822.179 428.612L855.69 428.769L889.225 428.971L922.771 429.219" stroke="#10E80C" stroke-width="1.12456" stroke-linecap="round" stroke-linejoin="round"/>
<path d="M467.04 524.053L464.297 513.718L461.744 491.362L461.643 466.138L464.015 439.655L468.716 413.576L475.441 389.589L483.751 369.178L493.097 353.581L502.891 343.64L528.16 345.057" stroke="#10E80C" stroke-width="1.12456" stroke-linecap="round" stroke-linejoin="round"/>
<path d="M489.264 526.145L488.218 515.922L487.251 493.656L487.217 468.387L488.128 441.713L489.916 415.342L492.48 390.972L495.64 370.123L499.182 354.053L502.893 343.64L517.985 340.705L522.798 341.874L525.441 342.493L529.05 343.347L531.997 343.932L540.881 346.26" stroke="#10E80C" stroke-width="1.12456" stroke-linecap="round" stroke-linejoin="round"/>
<path d="M791.758 451.215L797.144 459.908L801.8 471.019L805.444 483.906L807.839 497.783L808.84 511.806L808.39 525.099L806.523 536.884L803.363 546.443L802.385 547.983L801.721 548.051" stroke="#10E80C" stroke-width="1.12456" stroke-linecap="round" stroke-linejoin="round"/>
<path d="M466.344 345.776L475.565 343.572L477.904 343.021" stroke="#10E80C" stroke-width="1.12456" stroke-linecap="round" stroke-linejoin="round"/>
<path d="M464.105 365.006L473.034 367.435L483.752 369.178L495.638 370.123L507.963 370.202L519.974 369.426L530.949 367.818L540.238 365.501" stroke="#10E80C" stroke-width="1.12456" stroke-linecap="round" stroke-linejoin="round"/>
<path d="M547.057 348.88L555.783 348.925L586.484 349.083L617.218 349.229L647.997 349.375L678.833 349.532L709.702 349.69L740.605 349.847L771.519 350.005L802.433 350.185L833.336 350.365L864.239 350.556L895.142 350.747" stroke="#10E80C" stroke-width="1.12456" stroke-linecap="round" stroke-linejoin="round"/>
<path d="M735.811 469.377L727.141 469.512L691.931 472.424L656.541 480.285L622.242 494.061L595.916 508.613L589.079 512.391L585.21 515.697L584.355 516.44" stroke="#10E80C" stroke-width="1.12456" stroke-linecap="round" stroke-linejoin="round"/>
<path d="M270.064 373.654L262.259 376.544L252.419 378.85L241.106 380.446L229.029 381.234L216.895 381.155L205.447 380.21L195.393 378.467L187.307 376.038L181.685 373.069L178.817 369.752L178.412 358.158L178.671 355.83L178.446 354.717L179.66 349.24L180.369 346.08L180.942 343.493" stroke="#10E80C" stroke-width="1.12456" stroke-linecap="round" stroke-linejoin="round"/>
<path d="M422.522 516.293L416.742 510.333L416.607 510.108L414.571 506.611L407.779 494.882L404.709 489.596" stroke="#10E80C" stroke-width="1.12456" stroke-linecap="round" stroke-linejoin="round"/>
<path d="M525.835 334.587L525.441 342.425" stroke="#10E80C" stroke-width="1.12456" stroke-linecap="round" stroke-linejoin="round"/>
<path d="M585.346 516.282L587.235 523.862L588.911 540.303L589.99 561.118L590.687 583.565L591.205 606.944" stroke="#10E80C" stroke-width="1.12456" stroke-linecap="round" stroke-linejoin="round"/>
<path d="M271.729 486.774L273.494 480.026L278.622 462.011L283.57 444.153L288.383 426.194L292.96 409.82L297.357 396.629L302.013 386.182L306.781 372.901L337.763 366.873L368.992 364.118L400.198 363.218L431.304 363.128L435.689 363.151" stroke="#10E80C" stroke-width="1.12456" stroke-linecap="round" stroke-linejoin="round"/>
<path d="M589.023 382.606L591.733 388.937L589.27 395.313L581.68 401.375L569.343 406.727L552.925 411.035L533.391 414.026L511.934 415.499L489.915 415.342L468.717 413.576L449.656 410.326L433.901 405.794L422.363 400.284L415.683 394.144L414.143 387.745L417.752 381.47L419.81 379.288L426.198 372.552L430.82 367.683L434.059 364.275L435.88 363.151L452.029 353.266L454.492 351.759L465.681 348.397L469.179 347.351L476.533 345.135L477.894 344.73L502.893 343.64L517.265 352.895L530.951 367.818L543.096 387.599L552.925 411.035L559.773 436.675L563.214 462.911L563.046 488.056L559.29 510.558L555.106 521.523" stroke="#10E80C" stroke-width="1.12456" stroke-linecap="round" stroke-linejoin="round"/>
<path d="M733.023 484.682L738.309 488.753L746.372 492.385L756.752 495.354L768.841 497.491L781.919 498.649L795.189 498.739L807.84 497.783L819.097 495.826L828.296 492.993L834.897 489.461L838.518 485.458L839.002 481.218" stroke="#10E80C" stroke-width="1.12456" stroke-linecap="round" stroke-linejoin="round"/>
<path d="M396.554 449.922L390.515 447.437L356.801 436.27L322.502 429.399L288.382 426.194L254.758 425.002L221.494 424.552L188.42 424.237L155.403 423.866L122.285 423.495L89.0879 423.247" stroke="#10E80C" stroke-width="1.12456" stroke-linecap="round" stroke-linejoin="round"/>
<path d="M778.375 549.817L771.932 550.311L771.65 550.03" stroke="#10E80C" stroke-width="1.12456" stroke-linecap="round" stroke-linejoin="round"/>
<path d="M181.278 361.453L186.912 364.388L195.009 366.794L205.074 368.504L216.533 369.437L228.679 369.516L240.779 368.74L252.103 367.166L261.966 364.883L269.781 362.026L275.112 358.788" stroke="#10E80C" stroke-width="1.12456" stroke-linecap="round" stroke-linejoin="round"/>
<path d="M286.314 529.17L287.765 526.471L288.08 525.627L289.328 519.69L289.171 513.156L287.45 506.645L284.256 500.561L279.758 495.242L274.248 491.013L268.029 488.123L261.484 486.74L259.696 485.391L258.155 485.627L256.446 485.93L255.389 486.301L254.984 486.931L254.602 487.269L254.647 488.022L255.085 488.539L255.895 489L257.031 489.383L258.425 489.641L261.484 486.74L263.002 485.278L264.565 485.424L266.106 485.66L267.917 486.234L268.31 486.616L270.638 487.134L271.616 487.662L274.821 488.584L277.07 489.506L277.239 489.63L279.376 490.777L280.579 491.935L281.243 492.576L281.333 492.801L284.976 496.479L285.28 496.771L285.448 498.672L284.256 500.561L281.737 502.338L278.049 503.89L273.393 505.138L268.063 505.992L262.339 506.42L256.603 506.375L251.161 505.869L246.347 504.935L242.445 503.62L239.679 502.023L238.217 500.212L238.127 498.312L242.591 493.442" stroke="#10E80C" stroke-width="1.12456" stroke-linecap="round" stroke-linejoin="round"/>
<path d="M459.182 348.554L454.492 351.759L452.592 355.211L453.604 358.698L457.517 362.038L464.107 365.006L483 351.467L502.893 343.64L522.573 341.897L525.43 342.763L529.051 343.347L538.182 345.608L540.881 346.26L547.055 348.88L547.64 349.128L551.452 351.433L554.32 353.165L555.624 354.334L563.766 359.766L570.401 363.859L572.526 365.175L574.618 370.191L572.537 375.229L566.341 380.008L556.344 384.214L543.096 387.599L527.386 389.938L510.158 391.096L492.48 390.972L475.443 389.589L460.104 387.036L447.385 383.483L438.04 379.153L432.563 374.306L431.236 369.246L434.059 364.275L435.69 363.151L440.806 359.653L448.959 354.728L453.267 352.13L454.807 351.197L459.182 348.554ZM459.182 348.554L459.789 348.363L464.04 346.98L473.138 344.933L478.299 343.28L483.911 341.649L484.169 341.57L488.713 340.513L494.29 339.726L502.893 343.64L528.837 346.822L534.201 348.813L553.229 355.864L565.149 363.848L574.618 370.191L583.682 380.12L591.734 388.937L597.75 399.395L600.438 403.635L603.586 410.967L606.69 423.483L609.524 434.965L606.713 443.006L597.716 450.653L582.951 457.434L563.215 462.911L539.678 466.712L513.802 468.578L487.217 468.387L461.644 466.138L438.681 462.011L419.766 456.253L405.979 449.281L398.073 441.521L402.718 422.156L403.955 417.006L413.401 398.586L415.684 394.144L428.223 379.401L432.563 374.306L447.509 363.23L453.604 358.698L477.096 348.464L477.535 348.273L502.893 343.64L522.045 351.725L525.688 350.263L547.28 362.622L566.341 380.008L581.68 401.375L592.363 425.418L597.716 450.653L597.446 475.528L591.632 498.548L577.778 505.194L559.29 510.558L537.271 514.28L513.071 516.102L488.218 515.922L464.298 513.718L442.819 509.67L425.096 504.047L412.164 497.198L404.708 489.596L403.145 483.839L398.343 466.206L398.073 441.521L396.375 433.458L399.355 421.437L402.301 409.584L408.475 398.203L414.143 387.745L421.936 379.311L431.236 369.246L440.469 363.185L452.592 355.211L471.541 348.43L476.961 346.496L502.893 343.64L526.037 343.381L527.701 343.82L533.425 345.349L546.695 348.88L547.64 349.128L551.834 352.389L554.128 353.806L555.624 354.334L566.442 360.474L570.828 363.871L572.526 365.175L575.416 368.234L581.882 375.06L586.156 379.581L586.651 380.098L589.023 382.606L592.037 388.15L593.533 390.916L597.75 399.395L603.586 410.967L600.888 418.378L592.363 425.418L578.396 431.648L559.774 436.675L537.575 440.172L513.183 441.893L488.128 441.713L464.017 439.655L442.358 435.854L424.5 430.568L411.455 424.147L403.955 417.006L402.301 409.584" stroke="#10E80C" stroke-width="1.12456" stroke-linecap="round" stroke-linejoin="round"/>
<path d="M420.643 515.911L416.392 512.268L383.633 491.879L349.244 476.439L313.944 466.757L278.622 462.011L243.716 460.043L209.135 459.222L174.724 458.817L140.312 458.525L105.923 458.266L71.5791 458.019" stroke="#10E80C" stroke-width="1.12456" stroke-linecap="round" stroke-linejoin="round"/>
<path d="M285.314 530.744L287.901 525.886L288.036 525.571L289.25 523.693L289.408 523.063L290.769 517.373" stroke="#10E80C" stroke-width="1.12456" stroke-linecap="round" stroke-linejoin="round"/>
<path d="M837.09 524.165L833.469 528.304L827.914 537.413" stroke="#10E80C" stroke-width="1.12456" stroke-linecap="round" stroke-linejoin="round"/>
<path d="M237.328 499.83L231.952 499.594L195.944 497.929L160.104 496.861L124.377 496.198L88.7169 495.77L53.0908 495.467" stroke="#10E80C" stroke-width="1.12456" stroke-linecap="round" stroke-linejoin="round"/>
<path d="M495.236 339.67L495.675 334.407" stroke="#10E80C" stroke-width="1.12456" stroke-linecap="round" stroke-linejoin="round"/>
<path d="M500.34 339.344L502.893 343.64" stroke="#10E80C" stroke-width="1.12456" stroke-linecap="round" stroke-linejoin="round"/>
<path d="M282.917 532.296L285.054 527.955L286.302 521.871L286.156 515.315L284.592 508.68L281.736 502.338L277.733 496.67L272.818 492.014L267.297 488.629L261.483 486.74L257.029 489.383L252.857 493.454L249.225 498.75L246.346 504.935L244.389 511.649L243.479 518.486L243.67 525.065L244.929 530.969L247.201 535.861L252.003 536.817L257.423 537.334L260.516 537.356" stroke="#10E80C" stroke-width="1.12456" stroke-linecap="round" stroke-linejoin="round"/>
<path d="M764.5 445.952L769.077 444.625L774.767 443.894L777.286 443.388L780.143 442.916L783.325 442.691L785.979 445.457L799.665 448.201L812.474 453.993L823.641 462.495L827.745 467.454L832.491 473.189L838.519 485.458L841.375 498.559L840.88 511.717L839.261 517.069L840.891 524.84L844.04 538.177L849.505 548.928L855.972 565.189L862.247 586.151L868.387 609.261" stroke="#10E80C" stroke-width="1.12456" stroke-linecap="round" stroke-linejoin="round"/>
<path d="M430.818 367.683L431.302 363.128L433.236 348.217L435.294 334.036" stroke="#10E80C" stroke-width="1.12456" stroke-linecap="round" stroke-linejoin="round"/>
<path d="M263.148 536.985L263.081 532.69L262.946 526.887L262.777 520.308L262.575 513.347L262.339 506.42L262.103 499.931L261.878 494.286L261.664 489.799L261.484 486.74L261.338 485.267" stroke="#10E80C" stroke-width="1.12456" stroke-linecap="round" stroke-linejoin="round"/>
<path d="M279.241 533.724L280.872 529.754L281.872 523.783L281.715 517.216L280.41 510.457L278.049 503.89L274.754 497.918L270.728 492.88L266.219 489.079L261.484 486.74L254.86 488.281L248.248 490.822" stroke="#10E80C" stroke-width="1.12456" stroke-linecap="round" stroke-linejoin="round"/>
<path d="M816.972 543.44L813.204 544.655L812.676 545.262" stroke="#10E80C" stroke-width="1.12456" stroke-linecap="round" stroke-linejoin="round"/>
<path d="M274.505 534.927L275.607 531.205L276.27 525.312L276.102 518.745L275.134 511.874L273.391 505.138L271.007 498.908L268.106 493.577L264.867 489.439" stroke="#10E80C" stroke-width="1.12456" stroke-linecap="round" stroke-linejoin="round"/>
<path d="M738.354 465.137L737.578 468.803L739.557 472.514L744.236 476.057L751.354 479.217L760.497 481.803L771.146 483.659L782.651 484.648L794.312 484.738L805.445 483.906L815.353 482.208L823.461 479.745L829.275 476.675L832.491 473.189L832.941 469.501L831.277 467.319L830.298 466.003L829.725 464.834L826.272 461.066L824.136 458.727L822.179 456.591L817.939 453.779L812.924 450.788L811.372 449.697L808.729 447.943L805.569 446.616L804.658 446.233L799.508 444.839" stroke="#10E80C" stroke-width="1.12456" stroke-linecap="round" stroke-linejoin="round"/>
<path d="M269.008 535.872L269.559 532.206L269.84 526.369L269.671 519.791L269.064 512.864L268.063 505.992L266.702 499.594L265.094 494.05L263.317 489.686L261.484 486.74L258.156 485.627L256.795 485.987L255.727 486.425" stroke="#10E80C" stroke-width="1.12456" stroke-linecap="round" stroke-linejoin="round"/>
<path d="M197.675 398.574L195.1 395.943L190.433 393.435L188.037 390.624L185.518 386.452L183.618 383.325L183.235 382.673L182.448 381.92L181.987 382.122L151.433 371.855L120.08 367.357" stroke="#10E80C" stroke-width="1.12456" stroke-linecap="round" stroke-linejoin="round"/>
<path d="M192.885 395.808L190.433 393.435L185.676 385.428L184.799 383.944L184.282 383.022L182.662 381.447L182.089 380.784L181.931 380.244L179.446 371.9L178.816 369.752" stroke="#10E80C" stroke-width="1.12456" stroke-linecap="round" stroke-linejoin="round"/>
<path d="M783.324 442.691L786.664 442.714L789.959 442.983" stroke="#10E80C" stroke-width="1.12456" stroke-linecap="round" stroke-linejoin="round"/>
<path d="M791.758 451.215L788.542 451.451L785.18 451.429L781.862 451.148L778.781 450.63L771.865 458.75L765.635 469.354L760.496 481.803L756.751 495.354L754.625 509.197L754.266 522.467L755.66 534.388L758.719 544.228L760.023 546.285" stroke="#10E80C" stroke-width="1.12456" stroke-linecap="round" stroke-linejoin="round"/>
<path d="M549.879 522.433L551.026 525.369L551.847 540.19L552.061 560.781L551.948 583.227L551.644 606.607" stroke="#10E80C" stroke-width="1.12456" stroke-linecap="round" stroke-linejoin="round"/>
<path d="M587.673 512.065L585.469 514.033" stroke="#10E80C" stroke-width="1.12456" stroke-linecap="round" stroke-linejoin="round"/>
<path d="M416.784 515.124L416.391 512.268L416.604 510.108" stroke="#10E80C" stroke-width="1.12456" stroke-linecap="round" stroke-linejoin="round"/>
<path d="M223.811 310.949L226.689 310.769L229.58 310.791" stroke="#10E80C" stroke-width="1.12456" stroke-linecap="round" stroke-linejoin="round"/>
<path d="M786.664 442.713L785.978 445.457L785.179 451.429L784.325 460.313L783.459 471.615L782.649 484.648L781.918 498.649L781.333 512.729L780.929 526.043L780.715 537.772V547.23L780.794 549.67" stroke="#10E80C" stroke-width="1.12456" stroke-linecap="round" stroke-linejoin="round"/>
<path d="M268.388 330.999L268.647 333.777L266.499 336.566L262.046 339.186L255.546 341.492L247.359 343.336L237.969 344.607L227.938 345.236L217.873 345.169L208.371 344.415L200.015 343.032L193.29 341.087L188.601 338.714L186.194 336.049V333.26L187.994 331.236L192.908 325.725L193.92 324.567L195.821 322.397" stroke="#10E80C" stroke-width="1.12456" stroke-linecap="round" stroke-linejoin="round"/>
<path d="M252.441 486.852L255.062 486.166" stroke="#10E80C" stroke-width="1.12456" stroke-linecap="round" stroke-linejoin="round"/>
<path d="M242.321 534.523L240.567 532.869L237.98 528.574L237.092 527.404L235.731 525.481L235.63 525.155L233.898 519.273L233.797 516.946L233.684 512.796L233.605 510.412" stroke="#10E80C" stroke-width="1.12456" stroke-linecap="round" stroke-linejoin="round"/>
<path d="M220.212 402.252L219.538 400.25L217.918 391.625L216.895 381.155L216.535 369.437L216.861 357.191L217.873 345.169L219.47 334.092L221.596 324.635L224.081 317.347L226.802 312.658L234.719 311.387L236.878 311.905L237.463 311.972" stroke="#10E80C" stroke-width="1.12456" stroke-linecap="round" stroke-linejoin="round"/>
<path d="M744.009 539.729L742.58 538.177L737.295 527.561L734.742 515.292L735.08 502.09L738.307 488.753L744.233 476.057L752.521 464.777L762.654 455.578L774.034 449.011L785.977 445.457L799.832 447.144" stroke="#10E80C" stroke-width="1.12456" stroke-linecap="round" stroke-linejoin="round"/>
<path d="M229.591 402.409L229.546 400.318L229.321 391.703L229.029 381.234L228.68 369.516L228.309 357.269L227.938 345.237L227.578 334.148L227.252 324.668L226.993 317.37L226.802 312.658L226.689 310.769" stroke="#10E80C" stroke-width="1.12456" stroke-linecap="round" stroke-linejoin="round"/>
<path d="M750.926 543.069L749.644 541.506L745.326 531.306L743.268 519.24L743.616 506.004L746.371 492.385L751.353 479.217L758.269 467.296L766.692 457.321L776.116 449.899L785.978 445.457L798.697 449.191" stroke="#10E80C" stroke-width="1.12456" stroke-linecap="round" stroke-linejoin="round"/>
<path d="M482.83 526.122L480.873 526.167" stroke="#10E80C" stroke-width="1.12456" stroke-linecap="round" stroke-linejoin="round"/>
<path d="M527.992 348.599L528.836 346.822L528.161 345.057" stroke="#10E80C" stroke-width="1.12456" stroke-linecap="round" stroke-linejoin="round"/>
<path d="M263.002 485.278L261.337 485.267L259.695 485.391" stroke="#10E80C" stroke-width="1.12456" stroke-linecap="round" stroke-linejoin="round"/>
<path d="M264.87 489.439L263.318 489.686L261.665 489.799L260 489.788L258.426 489.641" stroke="#10E80C" stroke-width="1.12456" stroke-linecap="round" stroke-linejoin="round"/>
<path d="M239.102 401.116L239.518 399.654L240.677 390.961L241.104 380.447L240.778 368.74L239.71 356.55L237.967 344.607L235.639 333.654L232.895 324.331L229.881 317.19L226.8 312.658L221.109 311.297" stroke="#10E80C" stroke-width="1.12456" stroke-linecap="round" stroke-linejoin="round"/>
<path d="M244.345 535.535L243.322 534.511L240.51 529.44L237.384 527.584L235.652 521.489L233.898 519.273L233.684 512.796L233.605 510.412L235.079 504.081" stroke="#10E80C" stroke-width="1.12456" stroke-linecap="round" stroke-linejoin="round"/>
<path d="M277.734 358.428L279.084 358.225L309.931 353.12L340.957 350.005L371.815 348.622L402.561 348.205L433.239 348.217L459.677 348.363" stroke="#10E80C" stroke-width="1.12456" stroke-linecap="round" stroke-linejoin="round"/>
<path d="M256.197 397.416L256.984 396.359L263.439 393.93L267.904 384.506L272.919 381.391L275.326 378.085L275.551 377.129L277.946 366.907L277.733 358.428L277.665 355.358L274.719 343.808L274.201 340.896" stroke="#10E80C" stroke-width="1.12456" stroke-linecap="round" stroke-linejoin="round"/>
<path d="M248.248 490.822L249.091 491.834L250.654 492.734L252.858 493.454L255.568 493.982L258.639 494.263L261.877 494.286L265.093 494.05L268.107 493.577L270.728 492.88L272.819 492.014L274.247 491.013L274.933 489.956L274.821 488.607L273.955 487.842L272.414 486.999L271.695 486.875L269.389 486.47L267.095 486.065L261.484 486.74L254.601 487.269L252.229 487.741L248.967 488.607L248.529 488.809L248.169 489.394L248.248 490.822ZM248.248 490.822L242.67 494.961L238.217 500.212L235.169 506.251L233.707 512.729L235.461 514.933L238.779 516.889L243.479 518.486L249.282 519.633L255.85 520.252L262.777 520.308L269.67 519.791L276.103 518.745L281.714 517.216L286.157 515.315L289.17 513.156L290.61 510.851L288.957 504.261L288.597 502.326" stroke="#10E80C" stroke-width="1.12456" stroke-linecap="round" stroke-linejoin="round"/>
<path d="M799.833 447.144L799.664 448.201L798.697 449.191" stroke="#10E80C" stroke-width="1.12456" stroke-linecap="round" stroke-linejoin="round"/>
<path d="M247.718 536.457L247.201 535.861L243.321 534.511L240.566 532.869L239.104 531.014L237.721 528.754L237.091 527.404L235.674 525.312L225.441 523.378L188.848 519.307L152.378 517.249L115.999 516.181L79.6641 515.607L43.3633 515.248" stroke="#10E80C" stroke-width="1.12456" stroke-linecap="round" stroke-linejoin="round"/>
<path d="M252.239 537.199L252.003 536.817L250.383 532.049L249.461 526.212L249.281 519.633L249.855 512.717L251.159 505.869L253.094 499.493L255.568 493.982L258.424 489.641" stroke="#10E80C" stroke-width="1.12456" stroke-linecap="round" stroke-linejoin="round"/>
<path d="M807.391 547.309L807.537 547.601L812.35 551.582L818.108 565.515L823.483 585.926L828.757 608.923" stroke="#10E80C" stroke-width="1.12456" stroke-linecap="round" stroke-linejoin="round"/>
<path d="M251.037 400.925L254.433 399.767L262.463 397.023L270.301 394.357L276.373 382.966L277.982 368.358L279.084 358.225L283.076 337.061" stroke="#10E80C" stroke-width="1.12456" stroke-linecap="round" stroke-linejoin="round"/>
<path d="M422.912 516.372L422.867 516.293L418.302 508.152L412.162 497.198L406.235 474.134L405.977 449.281L411.453 424.147L422.361 400.284L438.038 379.153L457.515 362.038L479.579 349.96L502.891 343.64L512.54 339.85" stroke="#10E80C" stroke-width="1.12456" stroke-linecap="round" stroke-linejoin="round"/>
<path d="M416.729 515.113L416.65 515.079L414.559 514.449L378.494 507.612L341.608 503.012L304.442 501.359L287.967 501.269" stroke="#10E80C" stroke-width="1.12456" stroke-linecap="round" stroke-linejoin="round"/>
<path d="M776.644 551.886L771.19 551.436L740.22 548.906L702.637 544.902L664.526 542.181L626.493 540.798L588.91 540.303L551.845 540.19L515.162 540.078L478.726 539.786L442.212 539.313L405.382 538.83L368.17 538.661L330.7 539.088L293.072 540.134L255.906 541.326L218.941 539.786L181.606 538.245L144.383 537.177L107.295 536.502L70.2632 536.052L33.2764 535.726" stroke="#10E80C" stroke-width="1.12456" stroke-linecap="round" stroke-linejoin="round"/>
<path d="M459.182 348.554L459.789 348.363L464.04 346.98L466.345 345.776L469.19 345.113L477.984 343.032L483.911 341.649L502.893 343.64L511.631 353.693L519.975 369.426L527.386 389.938L533.391 414.026L537.575 440.172L539.678 466.712L539.576 491.947L537.271 514.281L534.932 524.109" stroke="#10E80C" stroke-width="1.12456" stroke-linecap="round" stroke-linejoin="round"/>
<path d="M609.524 434.965L609.311 452.542L609.232 459.492L606.42 467.713L597.446 475.528L582.726 482.467L563.046 488.056L539.577 491.947L513.757 493.847L487.251 493.656L461.746 491.362L438.85 487.134L419.98 481.263L406.237 474.134L398.343 466.206L396.645 457.963L396.555 449.922L396.375 433.458" stroke="#10E80C" stroke-width="1.12456" stroke-linecap="round" stroke-linejoin="round"/>
<path d="M447.53 521.376L432.236 518.261L422.913 516.372L422.52 516.293L420.642 515.911L416.784 515.124L416.728 515.113L414.558 514.449L382.328 500.707L346.23 489.461L309.681 482.916L273.493 480.026L237.901 478.654L202.702 477.912L167.548 477.361L132.473 476.968L97.4543 476.675L62.4805 476.405" stroke="#10E80C" stroke-width="1.12456" stroke-linecap="round" stroke-linejoin="round"/>
<path d="M841.869 494.005L841.655 499.852L841.385 507.106L840.879 511.716L837.045 516.069L833.469 528.304L826.901 531.936L821.672 541.315" stroke="#10E80C" stroke-width="1.12456" stroke-linecap="round" stroke-linejoin="round"/>
<path d="M839.26 517.069L837.09 524.165L834.829 527.798L832.547 531.464L831.006 533.949" stroke="#10E80C" stroke-width="1.12456" stroke-linecap="round" stroke-linejoin="round"/>
<path d="M609.23 459.492L607.161 467.06L606.397 469.894L602.775 483.153L601.37 486.864L600.088 491.047L591.631 498.548L582.072 515.776" stroke="#10E80C" stroke-width="1.12456" stroke-linecap="round" stroke-linejoin="round"/>
<path d="M804.658 446.233L799.451 444.951L795.931 444.187L793.018 443.501L785.979 445.457L778.781 450.63L776.116 449.899L774.036 449.011L772.641 448.01L772.023 446.953L772.225 445.907L773.215 444.917L774.767 443.894L777.151 443.354L780.142 442.916L785.979 445.457L789.959 442.983L791.624 443.264L793.018 443.501L795.931 444.187L797.775 445.097L799.181 446.098L800.946 446.638L811.495 449.888L812.766 451.946L812.473 453.993L810.618 455.927L807.311 457.614L802.723 458.974L797.145 459.908L790.882 460.358L784.325 460.313L777.859 459.762L771.865 458.75L766.692 457.321L762.655 455.578L759.979 453.622L758.809 451.552L759.214 449.517L761.148 447.605L762.397 446.987L764.499 445.952L770.752 444.816L774.935 444.063L785.979 445.457L795.683 444.209L799.057 445.199L802.172 446.233L803.645 446.627L808.728 447.943L811.371 449.697L812.248 450.124L812.957 450.563L817.939 453.779L822.178 456.59L824.022 459.537L823.64 462.494L821.02 465.272L816.319 467.712L809.786 469.669L801.801 471.019L792.85 471.682L783.46 471.615L774.204 470.816L765.635 469.354L758.269 467.296L752.523 464.777L748.722 461.955L747.091 458.986L747.698 456.062L750.487 453.329L757.64 449.494L758.562 448.988L759.394 448.55L761.148 447.605L763.993 446.975L768.222 446.031L772.371 445.109L773.215 444.917L785.979 445.457L799.181 446.098L799.833 447.144L812.766 451.946L824.022 459.537L830.297 466.003L831.276 467.319L832.94 469.5L839.002 481.218L841.689 493.15L841.869 494.005L841.374 498.559L837.528 502.866L837.045 516.068L830.061 519.903L820.323 522.973L808.391 525.099L794.986 526.144L780.929 526.043L767.075 524.784L754.266 522.467L743.268 519.24L734.744 515.292L729.155 510.873L729.492 497.727L733.023 484.682L730.796 480.42L731.707 476.214L733.855 472.627L735.812 469.377L736.903 467.555L738.353 465.137L740.141 463.394L746.248 457.456L747.654 456.084L747.698 456.039L750.566 454.42L758.033 450.18L759.214 449.517L766.175 447.583L771.528 446.098L772.225 445.907L785.979 445.457L794.626 450.743L796.988 450.045L807.311 457.614L816.319 467.712L823.46 479.745L828.296 492.992L830.545 506.656L830.061 519.903L826.901 531.936L817.736 534.86L806.524 536.884L793.929 537.874L780.716 537.772L767.693 536.58L755.66 534.388L745.326 531.306L737.296 527.561L732.045 523.356L731.505 521.017L729.155 510.873L726.815 506.251L727.063 495.984L727.141 493.15L728.131 488.64L729.143 485.649L730.796 480.42L737.251 469.354L737.577 468.803L747.091 458.986L758.809 451.552L772.023 446.953L785.979 445.457L791.759 451.215L794.626 450.743L802.723 458.974L809.786 469.669L815.352 482.208L819.097 495.826L820.795 509.692L820.323 522.973L817.736 534.86L813.204 544.655L803.364 546.443L792.31 547.32L780.716 547.23L769.29 546.173L758.719 544.227L749.644 541.506L742.582 538.177L737.949 534.444L734.631 528.214L731.741 526.718L731.651 526.696L696.295 514.314L659.364 509.231L622.119 510.558L589.023 515.349L585.964 516.17L585.852 516.203L585.346 516.282" stroke="#10E80C" stroke-width="1.12456" stroke-linecap="round" stroke-linejoin="round"/>
<path d="M271.391 385.563L272.425 383.606L273.921 380.773L275.327 378.085" stroke="#10E80C" stroke-width="1.12456" stroke-linecap="round" stroke-linejoin="round"/>
<path d="M769.078 444.625L773.756 443.917L777.287 443.388L785.98 445.457L788.544 451.451L790.883 460.358L792.851 471.682L794.313 484.738L795.19 498.739L795.427 512.83L794.988 526.145L793.931 537.874L792.312 547.32L791.817 548.872" stroke="#10E80C" stroke-width="1.12456" stroke-linecap="round" stroke-linejoin="round"/>
<path d="M288.27 525.526L289.248 523.693" stroke="#10E80C" stroke-width="1.12456" stroke-linecap="round" stroke-linejoin="round"/>
<path d="M268.117 390.68L270.524 386.024L272.919 381.391L275.393 370.382L277.946 366.907" stroke="#10E80C" stroke-width="1.12456" stroke-linecap="round" stroke-linejoin="round"/>
<path d="M494.289 339.726L495.234 339.67L500.339 339.344L506.547 339.389" stroke="#10E80C" stroke-width="1.12456" stroke-linecap="round" stroke-linejoin="round"/>
<path d="M731.561 522.4L732.044 523.356L733.27 525.672L734.631 528.214" stroke="#10E80C" stroke-width="1.12456" stroke-linecap="round" stroke-linejoin="round"/>
<path d="M288.191 271.803L281.849 265.37L277.103 258.184L272.605 250.65L269.805 242.497L269.04 233.5L266.701 226.022L266.049 217.914L267.691 210.121L271.537 202.474L272.268 196.109L278.07 190.272L285.864 185.279L295.445 181.332L306.51 178.61L317.385 180.86L329.035 184.469L341.046 189.305L352.966 195.186L364.324 201.934L374.715 209.232L383.712 216.834L391.089 224.448L396.576 231.802L400.051 238.64L401.468 244.757M300.854 241.44L299.606 228.462V215.204L300.787 202.159L303.126 189.789L306.499 178.543L312.684 168.962L319.522 161.191L326.764 155.445L331.656 156.569L340.427 153.263L345.96 155.726L355.496 155.017L361.119 159.144L370.61 160.989L375.559 166.915L378.932 173.977L380.619 181.984L380.507 190.711L378.539 199.876L374.749 209.176L369.238 218.307L362.176 226.944L353.787 234.76L344.363 241.507L334.242 246.916L323.784 250.796L313.348 253.045L303.306 253.607L293.994 252.483L285.695 249.773L278.655 245.567L273.032 240.068L269.029 233.467L270.378 223.874L273.853 214.012L279.397 204.205L286.853 194.804L285.83 191.88L285.493 188.664L285.852 185.29L286.876 181.782L295.94 179.533L306.499 178.599L318.206 179.015L330.644 180.826L343.362 183.941L355.867 188.349L367.72 193.747L378.471 199.977L387.737 206.803L395.216 213.978L400.681 221.231L404.055 228.305L405.179 234.973L404.224 241.046L401.974 247.017L400.85 250.009L395.812 258.758L389.278 266.967L381.462 274.356L372.635 280.664L363.11 285.657L353.225 289.188L351.324 289.56L343.317 291.123L340.124 291.224L333.725 291.426L327.675 290.358L324.717 290.021L317.891 288.896L313.202 287.221L309.131 285.781L302.181 282.284L298.099 279.731L294.343 277.392L288.259 271.882M300.854 241.44L303.249 253.63L306.702 264.628L311.065 274.029L316.137 281.564L321.76 287.029L327.697 290.302L338.201 289.953L349.075 287.817L359.95 283.937L370.43 278.426L380.147 271.488L388.75 263.357L395.947 254.361L401.491 244.768L405.224 234.94L405.854 232.038L407.046 225.235L405.989 218.015L402.728 210.717L397.296 203.587L389.795 196.84L380.462 190.767L369.565 185.583L357.487 181.501L344.656 178.689L331.566 177.239H318.69L306.499 178.633L295.254 183.131L285.481 188.754L277.497 195.299L277.935 200.011L279.386 204.295L281.804 208.029L285.178 211.088L289.327 213.337L294.197 214.754L299.617 215.237L305.431 214.776L311.447 213.359L317.475 211.043L323.311 207.894L328.754 204.003L333.635 199.505L337.785 194.568L341.068 189.339L343.396 183.986L344.689 178.712L344.937 173.651L344.127 168.995L342.316 164.846L339.573 161.348L335.985 158.593L331.689 156.648L322.895 162.023L314.405 169.423L306.533 178.599M300.854 241.44L292.577 240.518L285.2 238.19L278.925 234.535L273.943 229.722L270.367 223.908L268.264 217.307L267.668 210.121L268.568 202.564L272.245 196.109L274.202 189.597L279.566 185.167L281.995 180.095L285.256 175.169L290.789 174.854L297.93 175.979L306.488 178.599L316.204 182.636L326.753 188.012L337.74 194.523L348.839 202.001L359.455 210.053L369.272 218.409L377.92 226.764L385.106 234.805L390.605 242.249L394.26 248.839L396.025 254.395L395.913 258.758L393.99 261.839L391.572 264.887L389.458 267.541L388.334 269.014L386.017 271.207L381.935 275.064L381.53 275.446L373.838 280.945L368.373 283.813L365.539 285.298L363.773 285.927L360.579 287.052L356.913 288.368L353.371 289.177L349.199 287.862L344.532 284.398L339.483 278.775L334.231 271.162L328.957 261.749L323.863 250.852L319.139 238.853L314.978 226.191L311.537 213.359L308.951 200.854L307.298 189.136L306.623 178.644L306.927 169.648L308.175 162.529L310.266 157.412L313.134 154.387L320.376 152.487L327.506 151.655L334.253 151.925L341.552 150.541L348.985 152.15L356.857 153.139M300.854 241.44L309.76 240.866L319.004 238.819L328.271 235.333L337.267 230.52L345.634 224.549L353.09 217.621L359.387 209.997L364.324 201.923L367.698 193.691L369.52 185.571L369.7 177.846L368.283 170.727M306.533 178.599L295.49 184.694L285.864 191.903L277.992 199.943L272.099 208.501L273.898 214.034L276.946 218.881L281.174 222.873L286.482 225.864L292.701 227.754L299.662 228.451L307.14 227.911L314.9 226.146L322.67 223.188L330.194 219.14L337.211 214.124L343.486 208.321L348.805 201.934L353 195.186L355.935 188.293L357.532 181.489L357.757 175.001L356.632 169.018L354.226 163.721L350.638 159.223L345.994 155.726L335.985 158.515L325.864 163.35L315.923 170.098L306.556 178.565L299.583 189.181L293.769 200.899L289.35 213.269L286.493 225.842L285.268 238.212L285.706 249.829L287.764 260.344L291.318 269.419L296.221 276.807L302.26 282.295L311.481 285.567L321.816 287.052L332.938 286.658L344.464 284.409L355.991 280.271L367.124 274.412L377.448 267.035L386.59 258.409L394.237 248.839L400.13 238.718L404.1 228.339L406.045 218.083L405.944 208.31L403.864 199.314L400.603 191.655L395.283 184.739L387.996 178.813L378.943 174.112L368.384 170.817L365.449 164.553L361.119 159.279L350.661 159.358L339.595 161.405L328.282 165.397L317.486 171.02L317.138 171.2L306.556 178.678L296.929 187.528L288.596 197.436L281.849 208.04L276.935 218.96L273.988 229.789L273.066 240.169L274.191 249.761L277.171 258.263L283.446 264.594L288.259 271.882M306.533 178.599L318.622 173.82L331.285 170.66L344.105 169.04H356.61L368.339 170.75M306.533 178.599L296.03 186.179L286.864 194.86L288.551 197.391L290.8 199.449L293.668 200.967L297.042 201.889L300.753 202.181L304.711 201.833L308.816 200.843L312.909 199.246L316.879 197.098L320.579 194.456L323.952 191.397L326.798 188.023L329.047 184.469L330.666 180.837L331.588 177.227L331.802 173.775L331.296 170.581L330.092 167.725L328.248 165.307L325.83 163.395L322.895 162.034L319.522 161.259L315.856 161.09L310.806 168.962L306.499 178.644L311.234 187.247L316.857 197.11L323.244 207.894L330.115 219.14L337.222 230.509L344.284 241.518L351.032 251.752L357.206 260.827L362.604 268.429L367.046 274.344L370.419 278.415L372.668 280.597M288.259 271.882L296.255 276.852L305.678 280.147L316.238 281.631L327.63 281.193L339.449 278.809L351.234 274.479M351.234 274.479L362.671 268.452L373.287 260.872L382.722 251.988M351.234 274.479L345.938 266.81L340.202 257.521L334.276 246.894L328.361 235.288L322.738 223.154L317.554 210.964L313.056 199.179L309.367 188.248L306.634 178.565L304.914 170.424L304.25 164.081L304.61 159.662L305.959 157.255M351.234 274.479L355.98 280.226L359.995 283.948L363.177 285.612M382.722 251.988L390.594 242.182L396.667 231.78L400.771 221.164L402.795 210.683L402.728 200.719L400.614 191.554L396.599 183.469L391.347 176.654L384.285 171.031L375.57 166.904L365.449 164.407L354.203 163.665L342.294 164.79L330.081 167.702L318.015 172.358L306.51 178.588L298.065 188.462L290.857 199.404L285.155 211.009L281.14 222.862L278.891 234.512L278.565 245.578L280.072 255.699L283.311 264.527L291.183 269.396L300.517 272.624L310.997 274.029L322.243 273.546L333.984 271.128L345.735 266.855L357.104 260.838L367.675 253.293L377.043 244.487L384.915 234.749L390.999 224.436L395.126 213.922L397.184 203.564V193.702L395.137 184.649L391.19 176.665L385.567 169.974L378.82 164.688L371.971 159.673L364.403 156.423L363.964 156.187L356.857 153.139M382.722 251.988L386.411 258.409L388.66 263.414L389.211 266.967L388.086 269.014M382.722 251.988L377.245 244.476L370.329 236.042L362.21 226.978L353.214 217.61L343.576 208.321L333.736 199.46L324.054 191.363L314.911 184.334L306.634 178.599L299.493 174.326L293.702 171.638L289.406 170.514M356.857 153.139L348.502 151.329L341.518 150.541L333.489 150.238L328.855 150.789L325.088 151.227L320.331 152.487H320.219L316.553 153.454L313.067 154.376L305.881 157.278L298.953 161.09L292.476 165.712L286.617 171.02L281.534 176.867L279.521 179.87L277.418 183.03V183.12L274.686 187.225L273.032 190.598L271.008 194.804L268.692 202.496L267.162 209.356L266.15 217.846L266.69 225.55L266.78 226.056L267.398 234.276L269.906 242.384L274.213 249.57L280.23 255.575L287.82 260.197L296.817 263.211L306.87 264.504L317.722 263.965L328.968 261.592L340.214 257.442L351.144 251.639L361.265 244.375L370.262 235.929L377.853 226.584L383.745 216.699L387.771 206.578L389.807 196.66V187.213L387.906 178.554L384.184 170.918L378.786 164.52L370.521 160.865L364.212 156.232L356.857 153.139ZM381.44 274.266L380.102 271.454L377.347 266.956L373.197 260.838L367.754 253.27L361.175 244.476L353.697 234.782L345.578 224.526L337.121 214.113L328.676 203.992L320.545 194.456L313.056 185.898L306.454 178.633L296.738 177.756L288.506 178.273L281.961 180.117L277.272 183.154L274.168 189.62L270.794 194.894M364.302 156.445L355.395 155.085L348.794 152.183L340.326 153.308L334.062 151.936L326.663 155.512L321.355 155.298L315.732 155.939L311.875 161.562L308.715 169.187L306.376 178.655L304.981 189.665L304.599 201.855L305.273 214.788L306.972 227.967L309.648 240.911L313.179 253.113L317.441 264.133L322.243 273.591L327.416 281.17L332.758 286.681L338.077 289.998L343.216 291.123M333.466 150.238L327.416 151.655L321.49 155.287L315.867 161.079L312.01 161.506L308.062 162.529L304.126 164.115L300.337 166.195L296.783 168.726L293.578 171.638L290.812 174.843L288.563 178.217L286.887 181.737L279.589 185.11L278.07 190.216L277.519 195.186L271.537 202.417L272.065 208.456L268.287 217.25L266.679 226.123M405.326 235.378L405.595 233.894L405.865 231.96L407.057 225.156L407.001 220.174V215.867L405.944 208.164L402.717 200.674L397.33 193.646L389.897 187.326L380.63 181.973L369.801 177.79L357.768 174.944L344.959 173.561L331.836 173.719L318.869 175.405L306.499 178.554L301.225 189.62L297.053 201.81L294.163 214.664L292.656 227.709L292.588 240.461L293.949 252.46L296.659 263.279L300.595 272.567L305.588 280.023L311.425 285.489L317.914 288.862L324.74 289.987L326.651 290.358L328.158 290.583L333.781 291.393M325.066 151.261L320.309 152.521L315.889 155.962L310.177 157.446L304.554 159.695L299.088 162.709L293.972 166.353L289.35 170.547L285.346 175.158L281.557 176.879L277.384 183.131L274.652 187.236M298.875 161.124L298.987 162.732L300.303 166.218L302.811 171.548L306.477 178.622L298.875 161.124ZM318.701 177.227L318.825 175.473L318.6 173.842L318.015 172.392L317.093 171.143L315.878 170.154L314.394 169.445L312.696 169.04L310.818 168.939L308.85 169.153L306.814 169.67L304.79 170.48L302.844 171.548L301.011 172.853L299.37 174.348L297.953 176.001L296.828 177.745L295.985 179.555L295.479 181.343L295.31 183.086L295.501 184.717L296.041 186.201L296.918 187.472L298.043 188.495L299.516 189.238L301.214 189.687L303.092 189.822L305.094 189.631L307.163 189.114L309.221 188.304L311.222 187.18L313.089 185.841L314.765 184.312L316.204 182.614L317.329 180.826L318.161 178.993L318.645 177.182L318.701 177.227ZM306.454 178.577L300.955 172.808L296.727 168.703L293.848 166.33L292.375 165.7L306.454 178.577Z" stroke="#10E80C" stroke-width="1.12456" stroke-linecap="round" stroke-linejoin="round"/>
<path d="M632.103 219.038L608.487 220.534L586.862 219.41L567.992 215.755L552.462 209.783L540.676 201.776L536.538 186.033M536.538 186.033L528.194 174.393M536.538 186.033L535.571 170.21L527.08 156.637L529.554 139.262M536.538 186.033L549.009 196.468L565.349 205.307L585.085 212.212L606.857 216.711L607.61 216.868L632.137 219.05M563.516 115.343L572.13 137.069L583.747 159.111L597.973 180.657L614.29 200.899L632.069 219.061L653.436 232.016L674.803 241.856L695.483 248.266M547.716 216.935L558.377 222.637L566.721 234.726L579.091 235.367L594.43 232.96L612.266 227.473L632.036 219.027M569.611 35.735L582.206 27.031L596.05 17.5509L609.038 11.7932L614.965 9.1617L635.825 4.04495L657.957 2.40308L680.594 4.33732L702.984 9.80269L724.351 18.6305L743.941 30.5058L761.09 45.0014L769.772 55.1787L775.215 61.5662L777.273 70.5627L788.687 89.8264M569.611 35.735L562.133 46.0248M569.611 35.735L563.449 42.1001L555.487 50.3431L547.615 60.9702L543.533 67.5601L536.875 78.1422L532.557 90.0513L531.567 92.7615L530.106 96.7649L525.753 109.799L525.54 124.125M562.133 46.0248L547.671 60.9702L543.173 74.3299L532.478 91.2883L525.731 109.832L524.348 119.83L523.021 129.355L522.863 142.849L524.134 161.967L526.968 172.673L528.419 178.127L529.161 180.927L532.838 191.981L535.897 198.493L540.822 208.985L545.467 215.676L550.719 223.256L551.843 224.875L557.59 231.116L569.892 244.116M562.133 46.0248L579.912 33.7896L600.492 24.7256L623.242 19.204L647.408 17.4722L672.149 19.6201L696.642 25.6253L720.01 35.2852L741.455 48.2402L760.292 63.984L775.777 82.0557L787.495 101.736L782.232 115.23L772.943 129.85M562.133 46.0248L557.635 59.5195L556.274 75.9156L558.253 94.7182L563.606 115.331L552.023 126.858L543.375 140.139L537.854 154.759L535.605 170.21L548.278 183.109L564.854 194.86L584.815 204.981L607.52 213.157L632.171 218.993L657.001 214.889L682.09 208.288L706.493 199.449L729.276 188.698L749.642 176.463L766.859 163.215L780.354 149.462L789.834 135.686L782.198 115.219L770.458 95.6741L754.995 77.6812L736.26 61.9373L714.893 49.0499L691.581 39.4236L667.167 33.4297L642.494 31.1806L618.428 32.8562L595.78 38.2878L575.29 47.2843L557.59 59.3846L543.207 74.3075L542.341 90.0513M569.892 244.116L572.895 246.455L584.242 255.328L600.255 264.561L603.022 263.155M569.892 244.116L577.191 245.747L589.392 255.283L603.022 263.155M603.022 263.155L607.711 257.813L614.234 248.547L622.443 235.524L632.103 219.095L650.22 204.756L668.887 188.124L687.42 169.794L705.076 150.463L721.213 130.839M603.022 263.155L617.641 269.126L632.958 273.062L648.488 274.839M721.213 130.839L735.203 111.722M721.213 130.839L733.718 145.009L743.255 160.415L749.597 176.553L752.566 192.904L752.15 208.94L748.416 224.178L741.545 238.156L731.795 250.526L719.526 260.883L705.132 268.991L689.051 274.614L671.755 277.752L663.883 274.378L648.555 274.828L643.63 267.012L639.132 254.912L635.241 238.786L632.103 219.083L625.536 196.592L620.059 172.009L615.921 146.246L613.267 120.257L612.21 95.0556L612.761 71.586L614.864 50.6917M721.213 130.839L706.178 118.469L689.073 108.28L670.484 100.633L651.041 95.7978L631.395 93.9198L612.21 95.0444L594.138 99.1265L577.753 105.986L563.561 115.343M735.203 111.722L746.583 93.8298L754.995 77.7599L760.235 64.0177L762.237 53.0083L761.113 44.979L756.918 40.0646L749.732 33.9807L743.941 29.0889L741.343 26.8398M735.203 111.722L749.159 127.668L759.786 145.042L766.792 163.238L770.008 181.658L769.412 199.651L765.094 216.756L748.394 224.065L728.545 228.8L706.189 230.723L682.079 229.71L657.08 225.752L632.103 219.005L609.488 206.342L588.594 191.532L570.207 175.136L554.947 157.784L543.319 140.117L535.627 122.765L532.028 106.301M735.203 111.722L718.334 97.7546L699.138 86.2616L678.266 77.6812L656.405 72.2608L634.318 70.2141L612.761 71.5748L592.519 76.2755L574.143 84.0912L558.152 94.7295L545.22 107.786L535.661 122.799L529.554 139.262M695.54 248.198L701.848 239.989L706.234 230.723L708.483 220.669L708.573 210.132L706.437 199.426L702.096 189.013M702.096 189.013L695.697 178.993L687.42 169.805L677.502 161.765L666.256 155.141L654.077 150.137L641.369 146.887L628.505 145.593L615.921 146.234L604.023 148.765L593.205 153.117L583.781 159.111L576.044 166.544L570.207 175.169L566.429 184.717L564.787 194.838L565.315 205.285L567.958 215.721L572.625 225.842L579.159 235.356L587.357 243.992L596.961 251.527L607.711 257.734L619.283 262.458L631.372 265.55L643.619 266.945L655.696 266.574L667.234 264.471M702.096 189.013L678.829 201.135L655.213 211.256L631.946 218.993L609.904 224.065L589.853 226.314L572.468 225.797L558.264 222.581L552.271 209.705L548.818 196.401L548.053 183.041L550.055 170.019L554.79 157.75L562.167 146.628L572.007 137.002L584.028 129.209L597.871 123.529L613.109 120.156L629.269 119.267L645.8 120.887L662.174 124.98L677.817 131.401L692.233 139.948L704.918 150.328L715.501 162.181L723.62 175.102L729.051 188.653L731.672 202.406L731.435 215.901L728.388 228.766L722.675 240.585L714.522 251.032L704.187 259.815L687.319 255.081L669.225 246.534L650.557 234.366L631.979 218.937L617.506 198.751L604.371 176.508L593.126 153.015L584.129 129.175L577.686 105.885L574.031 83.9899L573.221 64.2539L575.223 47.3855L579.856 33.7446L586.885 23.7248L606.935 14.852L629.067 9.43158L652.559 7.71101L676.624 9.78019L700.42 15.6054L723.125 24.9843L743.952 37.6018L762.181 52.9858L777.216 70.5852L775.665 82.0669L770.402 95.6741L761.484 111.036L749.114 127.645L733.651 144.919L715.658 162.226L695.697 178.892L674.645 194.377L653.177 207.871L632.171 219.05L630.945 238.268L630.709 253.922L631.44 265.584L633.081 273.017L635.522 276.155M702.096 189.013L723.777 175.248L743.232 160.426L759.786 145.121L772.943 129.85M667.234 264.471L677.918 260.636L687.431 255.182L695.483 248.266M667.234 264.471L655.471 253.101L643.619 237.807L632.137 218.993L629.888 196.345L628.662 171.604L628.516 145.593L629.438 119.357L631.406 93.9086L634.33 70.2141L638.074 49.1398L642.494 31.3718L647.352 17.4947L652.57 7.77848L657.912 2.42558M667.234 264.471L678.548 271.657L689.017 274.58L698.351 273.321M695.483 248.266L714.668 251.133L731.762 250.436L746.291 246.365M746.291 246.365L757.289 232.556L765.094 216.868L778.195 207.32L782.929 188.878L792.364 176.732L797.537 163.732L798.448 150.339L798.695 144.885L799.336 130.378L796.064 110.001L792.927 98.7554L791.296 94.2572L788.878 87.6673M746.291 246.365L732.448 257.926L719.448 260.816L704.289 259.939L692.121 266.843L678.502 271.679L663.816 274.356L655.64 266.619L647.431 254.619L639.469 238.606L632.047 219.061L642.843 199.718L654.369 178.127L666.222 155.107L677.918 131.491L689.017 108.269L699.138 86.284L707.831 66.3568L714.859 49.1848L719.999 35.2852L723.159 25.0292L724.283 18.6305M746.291 246.365L757.84 239.078L769.716 224.211L778.195 207.343L787.382 195.951L792.499 183.12L797.537 163.755L798.437 143.333L795.063 122.472L796.064 110.024L788.687 89.8264M536.92 78.0522L532.512 91.2546L532.028 106.301M532.028 106.301L525.54 124.125M532.028 106.301L542.341 90.0513M525.54 124.125L529.554 139.262M525.54 124.125L522.886 142.906L527.047 156.659L528.171 174.427L532.838 192.06L540.62 201.788L547.739 216.969L557.59 231.195L566.744 234.76L577.168 245.713L587.289 244.037L600.076 238.977L615.156 230.588L632.024 219.061L638.614 197.998L646.036 174.719L654.021 150.103L662.253 125.093L670.406 100.645L678.188 77.7036L685.306 57.1129L691.491 39.581L696.574 25.6477L700.398 15.6729L702.905 9.82518L704.03 8.12709M529.554 139.262L537.831 154.759L550.201 170.086L566.417 184.706L585.929 198.065L608.083 209.66L632.092 219.027L655.606 229.069L679.121 236.154L701.792 240.045L722.821 240.675L741.512 238.1L757.255 232.477L769.952 223.953M600.278 264.549L617.506 271.567L635.522 276.155M635.522 276.155L653.773 278.235L671.766 277.729L679.087 276.818L689.973 274.85L698.396 273.332L709.113 269.554L716.389 266.99L732.538 257.914L743.019 251.504L750.654 245.106L757.874 239.044L766.196 228.923L769.333 225.01L770.019 223.986L778.566 213.449L787.349 195.861L792.33 176.665L793.185 156.423L789.811 135.731L795.097 122.405L787.472 101.792L788.687 89.8264M788.687 89.8264L785.977 79.7053L777.925 66.1094L775.248 61.6112M772.943 129.85L780.41 149.473L783.784 169.344L770.109 181.647L752.645 192.825L731.93 202.462L708.663 210.166L683.664 215.62L657.799 218.6L632.148 219.005L611.625 203.373L592.71 185.661L576.089 166.544L562.369 146.695L552.012 126.869L545.265 107.752L542.341 90.0513M772.943 129.85L761.596 111.081L746.64 93.8523L728.489 78.8057L707.853 66.4355L685.362 57.1692L661.825 51.3664L638.041 49.2185L614.864 50.6917M542.341 90.0513L556.195 75.9268L573.255 64.3551L593.013 55.831M614.864 50.6917L593.013 55.831M614.864 50.6917L618.327 33.0249L623.152 19.1815L629.033 9.45408L635.78 4.02245L643.068 2.89789L654.021 2.07696L663.186 1.40222L683.754 3.15653L704.075 8.11585L723.462 16.134L724.587 16.8312L734.708 22.9488L741.264 26.9185L743.884 30.5171L743.974 37.6581L741.433 48.2514L736.226 62.0835L728.455 78.772L718.334 97.7883L706.155 118.469L692.368 140.049L677.479 161.72L662.073 182.625L646.756 201.968L632.137 219.05M593.013 55.831L595.78 38.479L600.503 24.7256L607.003 14.8969M593.013 55.831L592.44 76.2755L594.104 99.1265L598.006 123.597L604 148.765L611.872 173.685L621.352 197.402L632.047 219.038L657.743 222.3L683.518 222.873L708.416 220.736L731.537 216.002L752.071 208.895L769.356 199.718L782.85 188.833L783.604 169.378L793.185 156.4L798.403 143.243L799.303 130.311M632.137 219.05L626.604 237.166L622.297 251.786L619.317 262.503L617.731 269.093L617.518 271.544L632.137 219.05ZM680.56 4.31483L676.647 9.80269L672.149 19.5976L667.144 33.5422L661.836 51.2652L656.394 72.2383L651.029 95.7641L645.946 120.954L641.358 146.819L637.422 172.448L634.307 196.885M634.307 196.885L632.058 219.061L647.318 236.447L662.781 250.447L677.884 260.658L692.132 266.843L705.065 268.924L716.31 267.001M634.307 196.885L638.693 198.009L638.749 198.065L642.955 199.786L646.835 202.035L650.276 204.79L653.166 207.939L655.415 211.38L656.978 215.012L657.799 218.712V222.378L657.08 225.898L655.618 229.159L653.458 232.072L650.681 234.546L647.307 236.503L643.551 237.886L639.469 238.662L635.184 238.819L630.821 238.336L626.514 237.211L622.387 235.524L618.575 233.275L615.201 230.588L612.311 227.506L610.062 224.133L608.454 220.557L607.576 216.879L607.453 213.224L608.094 209.693L609.488 206.398L611.58 203.43L614.324 200.899L617.63 198.875L621.409 197.424L625.536 196.603L629.876 196.412L634.307 196.885ZM584.242 255.272H589.392L596.961 251.594L606.789 244.229L618.631 233.298L632.126 219.083L584.242 255.272ZM646.104 174.697L637.422 172.515L628.64 171.604L620.048 171.998L611.917 173.685L604.484 176.609L597.995 180.657L592.654 185.695L588.583 191.565L585.929 198.077L584.737 205.026L585.04 212.212L586.817 219.398L589.999 226.382L594.498 232.972L600.121 238.954L606.767 244.184L614.211 248.491L622.241 251.763L630.619 253.911L639.109 254.867L647.465 254.597L655.438 253.101L662.804 250.425L669.326 246.635L674.825 241.833L679.11 236.21L682.056 229.823L683.552 222.918V215.698L682.011 208.378L678.986 201.192L674.567 194.366L668.876 188.124L662.129 182.659L654.459 178.161L646.149 174.787L646.104 174.697Z" stroke="#10E80C" stroke-width="1.12456" stroke-linecap="round" stroke-linejoin="round"/>
</g>
<defs>
<clipPath id="clip0_1466_2940">
<rect width="988.23" height="610.04" fill="white" transform="translate(0 0.828735)"/>
</clipPath>
</defs>
</svg>
