<svg width="362" height="375" viewBox="0 0 362 375" fill="none" xmlns="http://www.w3.org/2000/svg">
<g clip-path="url(#clip0_1471_3879)">
<g filter="url(#filter0_d_1471_3879)">
<path d="M357.134 1.27625H228.321C226.559 1.27625 225.131 2.7047 225.131 4.46678V181.52C225.131 183.283 226.559 184.711 228.321 184.711H357.134C358.896 184.711 360.325 183.283 360.325 181.52V4.46678C360.325 2.7047 358.896 1.27625 357.134 1.27625Z" fill="#010201"/>
<path d="M357.134 1.27625H228.321C226.559 1.27625 225.131 2.7047 225.131 4.46678V181.52C225.131 183.283 226.559 184.711 228.321 184.711H357.134C358.896 184.711 360.325 183.283 360.325 181.52V4.46678C360.325 2.7047 358.896 1.27625 357.134 1.27625Z" stroke="#10E80C" stroke-width="2.55243" stroke-linecap="round" stroke-linejoin="round"/>
</g>
<path d="M234.705 175.233V92.8233V10.4138" stroke="#10E80C" stroke-width="0.85081" stroke-linecap="round" stroke-linejoin="round"/>
<path d="M350.756 10.4138V92.8233V175.233" stroke="#10E80C" stroke-width="0.85081" stroke-linecap="round" stroke-linejoin="round"/>
<path d="M234.705 10.4138L269.503 56.8681L279.687 70.464V94.576V118.688L269.503 131.493L234.705 175.233" stroke="#10E80C" stroke-width="0.85081" stroke-linecap="round" stroke-linejoin="round"/>
<path d="M350.755 10.4138L322.049 56.8681L313.643 70.464V94.576V118.688L322.049 131.493L350.755 175.233" stroke="#10E80C" stroke-width="0.85081" stroke-linecap="round" stroke-linejoin="round"/>
<path d="M292.73 10.4138L295.776 56.8681L296.67 70.464" stroke="#10E80C" stroke-width="0.85081" stroke-linecap="round" stroke-linejoin="round"/>
<path d="M234.705 10.4138H292.73H350.756" stroke="#10E80C" stroke-width="0.85081" stroke-linecap="round" stroke-linejoin="round"/>
<path d="M350.756 175.233H292.73H234.705" stroke="#10E80C" stroke-width="0.85081" stroke-linecap="round" stroke-linejoin="round"/>
<path d="M322.049 56.8682V94.1762V131.493" stroke="#10E80C" stroke-width="0.85081" stroke-linecap="round" stroke-linejoin="round"/>
<path d="M269.502 131.493V94.1762V56.8682" stroke="#10E80C" stroke-width="0.85081" stroke-linecap="round" stroke-linejoin="round"/>
<path d="M350.755 92.8236L322.049 94.1764L313.643 94.5763" stroke="#10E80C" stroke-width="0.85081" stroke-linecap="round" stroke-linejoin="round"/>
<path d="M269.502 56.8682H295.775H322.048" stroke="#10E80C" stroke-width="0.85081" stroke-linecap="round" stroke-linejoin="round"/>
<path d="M322.048 131.493H295.775H269.502" stroke="#10E80C" stroke-width="0.85081" stroke-linecap="round" stroke-linejoin="round"/>
<path d="M296.67 118.688L295.776 131.493L292.73 175.233" stroke="#10E80C" stroke-width="0.85081" stroke-linecap="round" stroke-linejoin="round"/>
<path d="M313.641 118.688H296.668H279.686" stroke="#10E80C" stroke-width="0.85081" stroke-linecap="round" stroke-linejoin="round"/>
<path d="M279.686 70.4642H296.668H313.641" stroke="#10E80C" stroke-width="0.85081" stroke-linecap="round" stroke-linejoin="round"/>
<path d="M279.687 94.5763L269.503 94.1764L234.705 92.8236" stroke="#10E80C" stroke-width="0.85081" stroke-linecap="round" stroke-linejoin="round"/>
<g filter="url(#filter1_d_1471_3879)">
<path d="M282.521 64.015H153.708C151.946 64.015 150.518 65.4435 150.518 67.2056V244.259C150.518 246.021 151.946 247.45 153.708 247.45H282.521C284.283 247.45 285.711 246.021 285.711 244.259V67.2056C285.711 65.4435 284.283 64.015 282.521 64.015Z" fill="#010201"/>
<path d="M282.521 64.015H153.708C151.946 64.015 150.518 65.4435 150.518 67.2056V244.259C150.518 246.021 151.946 247.45 153.708 247.45H282.521C284.283 247.45 285.711 246.021 285.711 244.259V67.2056C285.711 65.4435 284.283 64.015 282.521 64.015Z" stroke="#10E80C" stroke-width="2.55243" stroke-linecap="round" stroke-linejoin="round"/>
</g>
<path d="M276.3 72.6761V114L256.485 130.506L247.509 137.976L242.396 142.238L239.086 144.987V157.085V169.175L242.396 171.617L247.509 175.394L256.485 182.014L276.3 196.648V237.972" stroke="#10E80C" stroke-width="0.85081" stroke-linecap="round" stroke-linejoin="round"/>
<path d="M159.928 237.972V196.648L183.946 182.014L194.819 175.394L201.022 171.617L205.038 169.175V157.085V144.987V132.897L201.022 127.545L194.819 119.267L183.946 104.743L159.928 72.6761" stroke="#10E80C" stroke-width="0.85081" stroke-linecap="round" stroke-linejoin="round"/>
<path d="M159.928 196.648V155.324V114" stroke="#10E80C" stroke-width="0.85081" stroke-linecap="round" stroke-linejoin="round"/>
<path d="M159.928 72.6761V114L183.946 130.506L194.819 137.976L201.022 142.238L205.038 144.987" stroke="#10E80C" stroke-width="0.85081" stroke-linecap="round" stroke-linejoin="round"/>
<path d="M276.301 114V155.324V196.648" stroke="#10E80C" stroke-width="0.85081" stroke-linecap="round" stroke-linejoin="round"/>
<path d="M276.302 72.6761L256.486 104.743V130.506V156.26V182.014V207.776L276.302 237.972" stroke="#10E80C" stroke-width="0.85081" stroke-linecap="round" stroke-linejoin="round"/>
<path d="M159.928 237.972L183.946 207.776L194.819 194.104L201.022 186.302V171.617V156.923V142.238V127.545" stroke="#10E80C" stroke-width="0.85081" stroke-linecap="round" stroke-linejoin="round"/>
<path d="M189.018 72.6761L202.078 104.743L207.999 119.267L211.368 127.545L213.546 132.897" stroke="#10E80C" stroke-width="0.85081" stroke-linecap="round" stroke-linejoin="round"/>
<path d="M247.212 72.6761L238.347 104.743L234.339 119.267L232.051 127.545L230.57 132.897" stroke="#10E80C" stroke-width="0.85081" stroke-linecap="round" stroke-linejoin="round"/>
<path d="M218.113 72.6761L220.215 104.743L221.168 119.267L221.704 127.545L222.061 132.897" stroke="#10E80C" stroke-width="0.85081" stroke-linecap="round" stroke-linejoin="round"/>
<path d="M183.943 207.776V182.014V156.26V130.506V104.743" stroke="#10E80C" stroke-width="0.85081" stroke-linecap="round" stroke-linejoin="round"/>
<path d="M159.928 72.6761H189.017H218.115H247.212H276.302" stroke="#10E80C" stroke-width="0.85081" stroke-linecap="round" stroke-linejoin="round"/>
<path d="M276.302 237.972H247.212H218.115H189.017H159.928" stroke="#10E80C" stroke-width="0.85081" stroke-linecap="round" stroke-linejoin="round"/>
<path d="M194.818 194.104V175.394V156.685V137.976V119.266" stroke="#10E80C" stroke-width="0.85081" stroke-linecap="round" stroke-linejoin="round"/>
<path d="M256.486 104.743L247.51 119.267V137.976V156.685V175.395V194.104L256.486 207.776" stroke="#10E80C" stroke-width="0.85081" stroke-linecap="round" stroke-linejoin="round"/>
<path d="M276.3 155.324L256.485 156.26L247.509 156.685L242.396 156.924L239.086 157.085" stroke="#10E80C" stroke-width="0.85081" stroke-linecap="round" stroke-linejoin="round"/>
<path d="M183.943 104.743H202.074H220.213H238.344H256.483" stroke="#10E80C" stroke-width="0.85081" stroke-linecap="round" stroke-linejoin="round"/>
<path d="M256.483 207.776H238.344H220.213H202.074H183.943" stroke="#10E80C" stroke-width="0.85081" stroke-linecap="round" stroke-linejoin="round"/>
<path d="M239.086 169.175V181.265L242.396 186.302" stroke="#10E80C" stroke-width="0.85081" stroke-linecap="round" stroke-linejoin="round"/>
<path d="M205.029 181.265V169.175" stroke="#10E80C" stroke-width="0.85081" stroke-linecap="round" stroke-linejoin="round"/>
<path d="M247.509 194.104H234.339H221.168H207.997H194.818" stroke="#10E80C" stroke-width="0.85081" stroke-linecap="round" stroke-linejoin="round"/>
<path d="M194.818 119.266H207.997H221.168H234.339H247.509" stroke="#10E80C" stroke-width="0.85081" stroke-linecap="round" stroke-linejoin="round"/>
<path d="M247.51 119.266L242.396 127.545V142.238V156.923V171.617V186.302L247.51 194.104" stroke="#10E80C" stroke-width="0.85081" stroke-linecap="round" stroke-linejoin="round"/>
<path d="M201.021 127.545H211.367H221.705H232.051H242.396" stroke="#10E80C" stroke-width="0.85081" stroke-linecap="round" stroke-linejoin="round"/>
<path d="M242.396 186.302H232.051H221.705H211.367H201.021" stroke="#10E80C" stroke-width="0.85081" stroke-linecap="round" stroke-linejoin="round"/>
<path d="M239.087 181.265H230.57H222.062H213.545H205.037L201.021 186.302" stroke="#10E80C" stroke-width="0.85081" stroke-linecap="round" stroke-linejoin="round"/>
<path d="M205.035 132.897H213.543H222.06H230.568H239.085" stroke="#10E80C" stroke-width="0.85081" stroke-linecap="round" stroke-linejoin="round"/>
<path d="M242.396 127.545L239.086 132.897V144.987" stroke="#10E80C" stroke-width="0.85081" stroke-linecap="round" stroke-linejoin="round"/>
<path d="M213.546 181.265L211.368 186.302L207.999 194.104L202.078 207.777L189.018 237.972" stroke="#10E80C" stroke-width="0.85081" stroke-linecap="round" stroke-linejoin="round"/>
<path d="M230.57 181.265L232.051 186.302L234.339 194.104L238.347 207.777L247.212 237.972" stroke="#10E80C" stroke-width="0.85081" stroke-linecap="round" stroke-linejoin="round"/>
<path d="M222.061 181.265L221.704 186.302L221.168 194.104L220.215 207.777L218.113 237.972" stroke="#10E80C" stroke-width="0.85081" stroke-linecap="round" stroke-linejoin="round"/>
<path d="M205.038 157.085L201.022 156.924L194.819 156.685L183.946 156.26L159.928 155.324" stroke="#10E80C" stroke-width="0.85081" stroke-linecap="round" stroke-linejoin="round"/>
<g filter="url(#filter2_d_1471_3879)">
<path d="M207.894 126.754H79.0812C77.3191 126.754 75.8906 128.182 75.8906 129.944V306.998C75.8906 308.76 77.3191 310.189 79.0812 310.189H207.894C209.656 310.189 211.084 308.76 211.084 306.998V129.944C211.084 128.182 209.656 126.754 207.894 126.754Z" fill="#010201"/>
<path d="M207.894 126.754H79.0812C77.3191 126.754 75.8906 128.182 75.8906 129.944V306.998C75.8906 308.76 77.3191 310.189 79.0812 310.189H207.894C209.656 310.189 211.084 308.76 211.084 306.998V129.944C211.084 128.182 209.656 126.754 207.894 126.754Z" stroke="#10E80C" stroke-width="2.55243" stroke-linecap="round" stroke-linejoin="round"/>
</g>
<path d="M85.2754 135.355L100.088 155.111L109.311 167.431L115.615 175.846L120.193 181.954L123.664 186.6L126.395 190.241L128.599 193.177V199.813V206.449V213.086V219.722V226.35V232.986V239.622L126.395 241.673L123.664 244.225L120.193 247.467L115.615 251.738L109.311 257.617L100.088 266.227V282.103L85.2754 300.711" stroke="#10E80C" stroke-width="0.85081" stroke-linecap="round" stroke-linejoin="round"/>
<path d="M201.701 135.355L189.492 155.111L181.878 167.431L176.679 175.846L172.902 181.954L170.034 186.6L167.788 190.241L165.967 193.177L164.479 195.593V201.642" stroke="#10E80C" stroke-width="0.85081" stroke-linecap="round" stroke-linejoin="round"/>
<path d="M99.832 135.355L111.258 155.111L118.38 167.431L123.246 175.846L126.777 181.954L129.466 186.6L131.567 190.241L133.269 193.177L134.664 195.593" stroke="#10E80C" stroke-width="0.85081" stroke-linecap="round" stroke-linejoin="round"/>
<path d="M187.153 135.355L178.322 155.111L172.809 167.431L169.048 175.846L166.317 181.954L164.241 186.6L162.616 190.241L161.297 193.177L160.217 195.593" stroke="#10E80C" stroke-width="0.85081" stroke-linecap="round" stroke-linejoin="round"/>
<path d="M201.701 135.355V156.022L189.492 170.987L181.878 180.321L176.679 186.685L172.902 191.313L170.034 194.827L167.788 197.592L165.967 199.813L164.479 201.642V207.691V213.741V219.79V225.839V231.888L165.967 232.986L167.788 234.33L170.034 235.989L172.902 238.108L176.679 240.899L181.878 244.736L189.492 250.351L201.701 259.37V280.044V300.711" stroke="#10E80C" stroke-width="0.85081" stroke-linecap="round" stroke-linejoin="round"/>
<path d="M201.703 156.022V176.696L189.494 186.863V202.731L181.879 206.083L176.68 208.372L172.903 210.031L170.036 211.29L167.789 212.286L165.969 213.085V219.722V226.35V232.986V239.622L167.789 241.673L170.036 244.225L172.903 247.467L176.68 251.738L181.879 257.617L189.494 266.227V282.103L201.703 300.71" stroke="#10E80C" stroke-width="0.85081" stroke-linecap="round" stroke-linejoin="round"/>
<path d="M201.701 176.696V197.362V218.029V238.703V259.37" stroke="#10E80C" stroke-width="0.85081" stroke-linecap="round" stroke-linejoin="round"/>
<path d="M85.2754 300.711V280.044V259.37L100.088 250.351L109.311 244.736L115.615 240.899L120.193 238.108L123.664 235.989L126.395 234.33L128.599 232.986L130.411 231.888V225.839V219.79V213.741V207.691V201.642L128.599 199.813L126.395 197.592L123.664 194.827L120.193 191.313L115.615 186.685L109.311 180.321L100.088 170.987L85.2754 156.022V135.355" stroke="#10E80C" stroke-width="0.85081" stroke-linecap="round" stroke-linejoin="round"/>
<path d="M85.2754 259.37V238.703V218.029V197.362V176.696" stroke="#10E80C" stroke-width="0.85081" stroke-linecap="round" stroke-linejoin="round"/>
<path d="M114.383 135.355L122.44 155.111L127.451 167.431L130.88 175.846L133.373 181.954L135.262 186.6L136.742 190.241L137.942 193.177L138.929 195.593" stroke="#10E80C" stroke-width="0.85081" stroke-linecap="round" stroke-linejoin="round"/>
<path d="M172.605 135.355L167.143 155.111L163.739 167.431L161.417 175.846L159.723 181.954L158.447 186.6L157.435 190.241L156.627 193.177L155.963 195.593" stroke="#10E80C" stroke-width="0.85081" stroke-linecap="round" stroke-linejoin="round"/>
<path d="M128.941 135.355L133.612 155.111L136.531 167.431L138.513 175.846L139.959 181.954L141.057 186.6L141.916 190.241L142.614 193.177L143.184 195.593" stroke="#10E80C" stroke-width="0.85081" stroke-linecap="round" stroke-linejoin="round"/>
<path d="M158.048 135.355L155.964 155.111L154.67 167.431L153.786 175.846L153.139 181.954L152.646 186.6L152.263 190.241L151.956 193.177L151.701 195.593" stroke="#10E80C" stroke-width="0.85081" stroke-linecap="round" stroke-linejoin="round"/>
<path d="M143.498 135.355L144.791 155.111L145.6 167.431L146.153 175.846L146.552 181.954L146.85 186.6L147.088 190.241L147.284 193.177L147.446 195.593" stroke="#10E80C" stroke-width="0.85081" stroke-linecap="round" stroke-linejoin="round"/>
<path d="M85.2754 280.044L100.088 266.227V250.351V234.483V218.607V202.731V186.864V170.987V155.111" stroke="#10E80C" stroke-width="0.85081" stroke-linecap="round" stroke-linejoin="round"/>
<path d="M189.492 155.111V170.987V186.864L181.877 193.202V206.083V218.965V231.854V244.736V257.617V270.498" stroke="#10E80C" stroke-width="0.85081" stroke-linecap="round" stroke-linejoin="round"/>
<path d="M181.878 167.431V180.321V193.202L176.68 197.533V208.372V219.211V230.051V240.899V251.738V262.577" stroke="#10E80C" stroke-width="0.85081" stroke-linecap="round" stroke-linejoin="round"/>
<path d="M109.312 270.498V257.617V244.736V231.855V218.965V206.083V193.202V180.321V167.431" stroke="#10E80C" stroke-width="0.85081" stroke-linecap="round" stroke-linejoin="round"/>
<path d="M176.68 175.845V186.685V197.533L172.902 200.672V210.031V219.39V228.749V238.108V247.467V256.826" stroke="#10E80C" stroke-width="0.85081" stroke-linecap="round" stroke-linejoin="round"/>
<path d="M115.617 262.577V251.738V240.898V230.051V219.211V208.372V197.533V186.685V175.845" stroke="#10E80C" stroke-width="0.85081" stroke-linecap="round" stroke-linejoin="round"/>
<path d="M85.2754 135.355H99.8328H114.382H128.939H143.496H158.045H172.603H187.151H201.7" stroke="#10E80C" stroke-width="0.85081" stroke-linecap="round" stroke-linejoin="round"/>
<path d="M201.7 300.71H187.151H172.603H158.045H143.496H128.939H114.382H99.8328H85.2754" stroke="#10E80C" stroke-width="0.85081" stroke-linecap="round" stroke-linejoin="round"/>
<path d="M201.703 197.363L189.494 202.731V218.607V234.483V250.351V266.227L201.703 280.044" stroke="#10E80C" stroke-width="0.85081" stroke-linecap="round" stroke-linejoin="round"/>
<path d="M201.701 238.703L189.492 234.483L181.878 231.854L176.679 230.051L172.902 228.749L170.034 227.753L167.788 226.979L165.967 226.35L164.479 225.839" stroke="#10E80C" stroke-width="0.85081" stroke-linecap="round" stroke-linejoin="round"/>
<path d="M172.902 181.954V191.313V200.672L170.034 203.063L167.788 204.935L165.967 206.449L164.479 207.691" stroke="#10E80C" stroke-width="0.85081" stroke-linecap="round" stroke-linejoin="round"/>
<path d="M120.193 256.826V247.467V238.108V228.749V219.39V210.031V200.672V191.313V181.954" stroke="#10E80C" stroke-width="0.85081" stroke-linecap="round" stroke-linejoin="round"/>
<path d="M201.701 218.029L189.492 218.607L181.878 218.965L176.679 219.211L172.902 219.39L170.034 219.526L167.788 219.628L165.967 219.722L164.479 219.79" stroke="#10E80C" stroke-width="0.85081" stroke-linecap="round" stroke-linejoin="round"/>
<path d="M100.09 155.111H111.261H122.441H133.612H144.791H155.963H167.142H178.322H189.493" stroke="#10E80C" stroke-width="0.85081" stroke-linecap="round" stroke-linejoin="round"/>
<path d="M189.493 282.103H178.322H167.142H155.963H144.791H133.612H122.441H111.261H100.09" stroke="#10E80C" stroke-width="0.85081" stroke-linecap="round" stroke-linejoin="round"/>
<path d="M170.035 186.6V194.827V203.063V211.29V219.526V227.753V235.989V244.225V252.452" stroke="#10E80C" stroke-width="0.85081" stroke-linecap="round" stroke-linejoin="round"/>
<path d="M123.664 252.452V244.225V235.989V227.753V219.526V211.29V203.063V194.827V186.6" stroke="#10E80C" stroke-width="0.85081" stroke-linecap="round" stroke-linejoin="round"/>
<path d="M126.397 190.241V197.592V204.935V212.286V219.628V226.979V234.33V241.673V249.024L123.666 252.453L120.195 256.826L115.617 262.577L109.313 270.498L100.09 282.103" stroke="#10E80C" stroke-width="0.85081" stroke-linecap="round" stroke-linejoin="round"/>
<path d="M167.789 190.241V197.592V204.935V212.286V219.628V226.979V234.33V241.673V249.024L170.035 252.453L172.902 256.826L176.68 262.577L181.878 270.498L189.493 282.103" stroke="#10E80C" stroke-width="0.85081" stroke-linecap="round" stroke-linejoin="round"/>
<path d="M109.312 167.431H118.382H127.452H136.53H145.6H154.669H163.739H172.808H181.878" stroke="#10E80C" stroke-width="0.85081" stroke-linecap="round" stroke-linejoin="round"/>
<path d="M181.878 270.498H172.808H163.739H154.669H145.6H136.53H127.452H118.382H109.312" stroke="#10E80C" stroke-width="0.85081" stroke-linecap="round" stroke-linejoin="round"/>
<path d="M165.967 193.177V199.813V206.449V213.085L164.479 213.741" stroke="#10E80C" stroke-width="0.85081" stroke-linecap="round" stroke-linejoin="round"/>
<path d="M130.412 201.642V195.593L128.6 193.177" stroke="#10E80C" stroke-width="0.85081" stroke-linecap="round" stroke-linejoin="round"/>
<path d="M130.412 231.888V237.929V243.978L128.6 246.259L126.396 249.024" stroke="#10E80C" stroke-width="0.85081" stroke-linecap="round" stroke-linejoin="round"/>
<path d="M164.479 231.888V237.929V243.978L165.967 246.259L167.788 249.024" stroke="#10E80C" stroke-width="0.85081" stroke-linecap="round" stroke-linejoin="round"/>
<path d="M115.617 175.845H123.249H130.881H138.513H146.153H153.785H161.416H169.048H176.68" stroke="#10E80C" stroke-width="0.85081" stroke-linecap="round" stroke-linejoin="round"/>
<path d="M176.68 262.577H169.048H161.416H153.785H146.153H138.513H130.881H123.249H115.617" stroke="#10E80C" stroke-width="0.85081" stroke-linecap="round" stroke-linejoin="round"/>
<path d="M172.901 256.826H166.316H159.722H153.137H146.551H139.958H133.372H126.779H120.193" stroke="#10E80C" stroke-width="0.85081" stroke-linecap="round" stroke-linejoin="round"/>
<path d="M120.193 181.954H126.779H133.372H139.958H146.551H153.137H159.722H166.316H172.901" stroke="#10E80C" stroke-width="0.85081" stroke-linecap="round" stroke-linejoin="round"/>
<path d="M123.664 186.6H129.467H135.261H141.055H146.849H152.643H158.445H164.239H170.033" stroke="#10E80C" stroke-width="0.85081" stroke-linecap="round" stroke-linejoin="round"/>
<path d="M170.033 252.452H164.239H158.445H152.643H146.849H141.055H135.261H129.467H123.664" stroke="#10E80C" stroke-width="0.85081" stroke-linecap="round" stroke-linejoin="round"/>
<path d="M126.396 190.241H131.569H136.742H141.915H147.088H152.261H157.434H162.615H167.788" stroke="#10E80C" stroke-width="0.85081" stroke-linecap="round" stroke-linejoin="round"/>
<path d="M167.788 249.024H162.615H157.434H152.261H147.088H141.915H136.742H131.569H126.396" stroke="#10E80C" stroke-width="0.85081" stroke-linecap="round" stroke-linejoin="round"/>
<path d="M128.6 193.177H133.271H137.942H142.612H147.283H151.954H156.625H161.296H165.967" stroke="#10E80C" stroke-width="0.85081" stroke-linecap="round" stroke-linejoin="round"/>
<path d="M165.967 246.259H161.296H156.625H151.954H147.283H142.612H137.942H133.271H128.6" stroke="#10E80C" stroke-width="0.85081" stroke-linecap="round" stroke-linejoin="round"/>
<path d="M130.412 195.593H134.666H138.929H143.183H147.445H151.699H155.962H160.216H164.479" stroke="#10E80C" stroke-width="0.85081" stroke-linecap="round" stroke-linejoin="round"/>
<path d="M164.479 243.978H160.216H155.962H151.699H147.445H143.183H138.929H134.666H130.412" stroke="#10E80C" stroke-width="0.85081" stroke-linecap="round" stroke-linejoin="round"/>
<path d="M134.664 243.978L133.269 246.259L131.567 249.024L129.466 252.452L126.777 256.826L123.246 262.577L118.38 270.498L111.258 282.103L99.832 300.71" stroke="#10E80C" stroke-width="0.85081" stroke-linecap="round" stroke-linejoin="round"/>
<path d="M160.217 243.978L161.297 246.259L162.616 249.024L164.241 252.452L166.317 256.826L169.048 262.577L172.809 270.498L178.322 282.103L187.153 300.71" stroke="#10E80C" stroke-width="0.85081" stroke-linecap="round" stroke-linejoin="round"/>
<path d="M138.929 243.978L137.942 246.259L136.742 249.024L135.262 252.452L133.373 256.826L130.88 262.577L127.451 270.498L122.44 282.103L114.383 300.71" stroke="#10E80C" stroke-width="0.85081" stroke-linecap="round" stroke-linejoin="round"/>
<path d="M155.963 243.978L156.627 246.259L157.435 249.024L158.447 252.452L159.723 256.826L161.417 262.577L163.739 270.498L167.143 282.103L172.605 300.71" stroke="#10E80C" stroke-width="0.85081" stroke-linecap="round" stroke-linejoin="round"/>
<path d="M143.184 243.978L142.614 246.259L141.916 249.024L141.057 252.452L139.959 256.826L138.513 262.577L136.531 270.498L133.612 282.103L128.941 300.71" stroke="#10E80C" stroke-width="0.85081" stroke-linecap="round" stroke-linejoin="round"/>
<path d="M151.701 243.978L151.956 246.259L152.263 249.024L152.646 252.452L153.139 256.826L153.786 262.577L154.67 270.498L155.964 282.103L158.048 300.71" stroke="#10E80C" stroke-width="0.85081" stroke-linecap="round" stroke-linejoin="round"/>
<path d="M147.446 243.978L147.284 246.259L147.088 249.024L146.85 252.452L146.552 256.826L146.153 262.577L145.6 270.498L144.791 282.103L143.498 300.71" stroke="#10E80C" stroke-width="0.85081" stroke-linecap="round" stroke-linejoin="round"/>
<path d="M130.412 237.929L128.6 239.622V246.259" stroke="#10E80C" stroke-width="0.85081" stroke-linecap="round" stroke-linejoin="round"/>
<path d="M164.479 237.929L165.967 239.622V246.259" stroke="#10E80C" stroke-width="0.85081" stroke-linecap="round" stroke-linejoin="round"/>
<path d="M130.411 207.691L128.599 206.449L126.395 204.935L123.664 203.063L120.193 200.672L115.615 197.533L109.311 193.202L100.088 186.863L85.2754 176.696V156.022" stroke="#10E80C" stroke-width="0.85081" stroke-linecap="round" stroke-linejoin="round"/>
<path d="M130.411 213.741L128.599 213.086L126.395 212.286L123.664 211.29L120.193 210.031L115.615 208.372L109.311 206.083L100.088 202.731L85.2754 197.363" stroke="#10E80C" stroke-width="0.85081" stroke-linecap="round" stroke-linejoin="round"/>
<path d="M130.411 225.839L128.599 226.35L126.395 226.979L123.664 227.753L120.193 228.749L115.615 230.051L109.311 231.854L100.088 234.483L85.2754 238.703" stroke="#10E80C" stroke-width="0.85081" stroke-linecap="round" stroke-linejoin="round"/>
<path d="M130.411 219.79L128.599 219.722L126.395 219.628L123.664 219.526L120.193 219.39L115.615 219.211L109.311 218.965L100.088 218.607L85.2754 218.029" stroke="#10E80C" stroke-width="0.85081" stroke-linecap="round" stroke-linejoin="round"/>
<g filter="url(#filter3_d_1471_3879)">
<path d="M133.281 189.492H4.46788C2.7058 189.492 1.27734 190.921 1.27734 192.683V369.737C1.27734 371.499 2.7058 372.927 4.46788 372.927H133.281C135.043 372.927 136.471 371.499 136.471 369.737V192.683C136.471 190.921 135.043 189.492 133.281 189.492Z" fill="#010201"/>
<path d="M133.281 189.492H4.46788C2.7058 189.492 1.27734 190.921 1.27734 192.683V369.737C1.27734 371.499 2.7058 372.927 4.46788 372.927H133.281C135.043 372.927 136.471 371.499 136.471 369.737V192.683C136.471 190.921 135.043 189.492 133.281 189.492Z" stroke="#10E80C" stroke-width="2.55243" stroke-linecap="round" stroke-linejoin="round"/>
</g>
<path d="M17.9688 198.188L25.3793 209.359L25.4899 209.521L31.0797 217.935L35.589 224.733L39.2475 230.246L42.2764 234.815L44.8288 238.661L46.9984 241.937L48.8787 244.77L50.5208 247.229L51.9586 249.398L53.2348 251.329L54.3749 253.048L55.3959 254.588L56.3233 255.983L57.1571 257.243L57.9228 258.391" stroke="#10E80C" stroke-width="0.85081" stroke-linecap="round" stroke-linejoin="round"/>
<path d="M127.052 198.188L120.152 209.359V218.335V227.303L114.851 233.803L110.648 238.95L107.236 243.128L104.42 246.582L102.046 249.492L100.022 251.976L98.2689 254.12L96.7459 255.983V260.365V264.738V269.12L95.4017 269.971L94.2105 270.728L93.1555 271.4L92.2026 272.013L91.3433 272.557L90.5605 273.051V276.216V279.381V282.537V285.702V288.867V292.024V295.189L91.3433 295.767L92.2026 296.405L93.1555 297.103L94.2105 297.886L95.4017 298.762L96.7459 299.758L98.2689 300.881L100.022 302.174L102.046 303.671L104.42 305.424L107.236 307.509L110.648 310.018L114.851 313.124L120.152 317.038V326.014V334.981V343.957V352.933L127.052 363.449" stroke="#10E80C" stroke-width="0.85081" stroke-linecap="round" stroke-linejoin="round"/>
<path d="M10.6953 363.449L19.0673 352.933V343.957V334.981V326.014V317.038L25.4909 313.124L30.5873 310.018L34.7137 307.509L38.134 305.424L41.0097 303.671L43.4685 302.174L45.5871 300.881L47.4333 299.758L49.0584 298.762L50.5047 297.886L51.7895 297.103L52.9466 296.405L53.9846 295.767L54.9375 295.189V292.024V288.867V285.702V282.537V279.381V276.216V273.051V269.894V266.729V263.564L53.9846 262.611L52.9466 261.556L51.7895 260.391L50.5047 259.089L49.0584 257.634L47.4333 255.983L45.5871 254.12L43.4685 251.976L41.0097 249.492L38.134 246.582L34.7137 243.128L30.5873 238.95L25.4909 233.803L19.0673 227.303V218.335V209.359L10.6953 198.188" stroke="#10E80C" stroke-width="0.85081" stroke-linecap="round" stroke-linejoin="round"/>
<path d="M25.2441 198.188L31.7018 209.359L36.662 217.935L40.5928 224.733L43.7833 230.246L46.4208 234.815L48.6414 238.661L50.5387 241.937L52.1723 244.77L53.6017 247.229L54.8523 249.398L55.9669 251.329L56.9624 253.048L57.8557 254.588L58.6555 255.983L59.3872 257.243L60.0508 258.391" stroke="#10E80C" stroke-width="0.85081" stroke-linecap="round" stroke-linejoin="round"/>
<path d="M119.777 198.188L113.83 209.359L109.261 217.935L105.645 224.733L102.71 230.246L100.277 234.815L98.2263 238.661L96.4821 241.937L94.9762 244.77L93.6659 247.229L92.5088 249.398L91.4793 251.329L90.569 253.048L89.7437 254.588L89.0035 255.983L88.3313 257.243L87.7188 258.391" stroke="#10E80C" stroke-width="0.85081" stroke-linecap="round" stroke-linejoin="round"/>
<path d="M32.5176 198.188L38.0223 209.359L42.2423 217.935L45.5945 224.733L48.3086 230.246L50.5633 234.815L52.4521 238.661L54.0686 241.937L55.4639 244.77L56.6806 247.229L57.7526 249.398L58.697 251.329L59.5478 253.048L60.305 254.588L60.9942 255.983L61.6153 257.243L62.1768 258.391" stroke="#10E80C" stroke-width="0.85081" stroke-linecap="round" stroke-linejoin="round"/>
<path d="M112.509 198.188L107.515 209.359L103.678 217.935L100.641 224.733L98.1733 230.246L96.1314 234.815L94.4128 238.661L92.9494 241.937L91.6816 244.77L90.5756 247.229L89.6057 249.398L88.7463 251.329L87.9806 253.048L87.2915 254.588L86.6704 255.983L86.1003 257.243L85.5898 258.391" stroke="#10E80C" stroke-width="0.85081" stroke-linecap="round" stroke-linejoin="round"/>
<path d="M39.7852 198.188L44.337 209.359L47.8338 217.935L50.599 224.733L52.8451 230.246L54.7084 234.815L56.2739 238.661L57.6096 241.937L58.7582 244.77L59.7622 247.229L60.647 249.398L61.4298 251.329L62.1359 253.048L62.757 254.588L63.3271 255.983L63.8376 257.243L64.314 258.391" stroke="#10E80C" stroke-width="0.85081" stroke-linecap="round" stroke-linejoin="round"/>
<path d="M10.6953 208.517L19.0673 218.335L25.4909 225.873V233.803V241.732V249.662L30.5873 253.167L34.7137 256L38.134 258.349L41.0097 260.331L43.4685 262.016L45.5871 263.471L47.4333 264.738L49.0584 265.861L50.5047 266.848L51.7895 267.733L52.9466 268.524L53.9846 269.239L54.9375 269.894L55.7968 270.481" stroke="#10E80C" stroke-width="0.85081" stroke-linecap="round" stroke-linejoin="round"/>
<path d="M105.237 198.188L101.196 209.359L98.0903 217.935L95.6399 224.733L93.6405 230.246L91.99 234.815L90.6031 238.661L89.412 241.937L88.391 244.77L87.4977 247.229L86.7149 249.398L86.0173 251.329L85.3962 253.048L84.8432 254.588L84.3327 255.983L83.8817 257.243L83.4648 258.391" stroke="#10E80C" stroke-width="0.85081" stroke-linecap="round" stroke-linejoin="round"/>
<path d="M47.0586 198.188L50.6575 209.359L53.4141 217.935L55.6007 224.733L57.3789 230.246L58.8508 234.815L60.0845 238.661L61.1395 241.937L62.0499 244.77L62.8411 247.229L63.5473 249.398L64.1599 251.329L64.7129 253.048L65.2149 254.588L65.6573 255.983L66.0657 257.243L66.4401 258.391" stroke="#10E80C" stroke-width="0.85081" stroke-linecap="round" stroke-linejoin="round"/>
<path d="M97.9615 198.188L94.8815 209.359L92.5078 217.935L90.6275 224.733L89.1045 230.246L87.8453 234.815L86.7818 238.661L85.88 241.937L85.0972 244.77L84.4166 247.229L83.821 249.398L83.285 251.329L82.8085 253.048L82.3831 254.588L82.0003 255.983L81.6514 257.243L81.3281 258.391" stroke="#10E80C" stroke-width="0.85081" stroke-linecap="round" stroke-linejoin="round"/>
<path d="M54.334 198.188L56.9715 209.359L59.0049 217.935L60.6045 224.733L61.9147 230.246L62.9952 234.815L63.8971 238.661L64.6798 241.937L65.3435 244.77L65.9305 247.229L66.441 249.398L66.9005 251.329L67.3003 253.048L67.6662 254.588L67.998 255.983L68.2958 257.243L68.568 258.391" stroke="#10E80C" stroke-width="0.85081" stroke-linecap="round" stroke-linejoin="round"/>
<path d="M90.6891 198.188L88.562 209.359L86.9285 217.935L85.6267 224.733L84.5803 230.246L83.7039 234.815L82.9722 238.661L82.3426 241.937L81.8066 244.77L81.3387 247.229L80.9218 249.398L80.5559 251.329L80.2241 253.048L79.9348 254.588L79.6711 255.983L79.4243 257.243L79.2031 258.391" stroke="#10E80C" stroke-width="0.85081" stroke-linecap="round" stroke-linejoin="round"/>
<path d="M61.6074 198.188L63.292 209.359L64.5853 217.935L65.6147 224.733L66.44 230.246L67.1377 234.815L67.7162 238.661L68.2097 241.937L68.6351 244.77L69.0095 247.229L69.3328 249.398L69.6221 251.329L69.8858 253.048L70.1155 254.588L70.3282 255.983L70.5239 257.243L70.6941 258.391" stroke="#10E80C" stroke-width="0.85081" stroke-linecap="round" stroke-linejoin="round"/>
<path d="M83.4232 198.188L82.2406 209.359L81.3387 217.935L80.6241 224.733L80.0455 230.246L79.5605 234.815L79.1607 238.661L78.8118 241.937L78.514 244.77L78.2503 247.229L78.0291 249.398L77.8249 251.329L77.6462 253.048L77.4761 254.588L77.3314 255.983L77.2038 257.243L77.0762 258.391" stroke="#10E80C" stroke-width="0.85081" stroke-linecap="round" stroke-linejoin="round"/>
<path d="M68.873 198.188L69.6047 209.359L70.1663 217.935L70.6172 224.733L70.9745 230.246L71.2723 234.815L71.5276 238.661L71.7403 241.937L71.9275 244.77L72.0891 247.229L72.2338 249.398L72.3614 251.329L72.472 253.048L72.5741 254.588L72.6677 255.983L72.7442 257.243L72.8208 258.391" stroke="#10E80C" stroke-width="0.85081" stroke-linecap="round" stroke-linejoin="round"/>
<path d="M76.1469 198.188L75.9257 209.359L75.7555 217.935L75.6194 224.733L75.5088 230.246L75.4152 234.815L75.3386 238.661L75.2791 241.937L75.2195 244.77L75.1685 247.229L75.1259 249.398L75.0919 251.329L75.0579 253.048L75.0238 254.588L74.9983 255.983L74.9728 257.243L74.9473 258.391" stroke="#10E80C" stroke-width="0.85081" stroke-linecap="round" stroke-linejoin="round"/>
<path d="M127.05 208.517L126.455 209.359L120.15 218.335L114.85 225.873L110.647 231.837L107.235 236.687L104.419 240.703L102.045 244.072L100.02 246.956L98.2674 249.441V254.12V258.791V263.471L96.7444 264.738L95.4002 265.861L94.209 266.848L93.154 267.733L92.2011 268.524L91.3418 269.239V272.557V275.875V279.185V282.503V285.821V289.131V292.449V295.767V299.077L92.2011 299.885L93.154 300.779L94.209 301.766L95.4002 302.88L96.7444 304.131L98.2674 305.56L100.02 307.194L102.045 309.091L104.419 311.303L107.235 313.941L110.647 317.131L114.85 321.053V328.991V336.921L120.15 343.957L126.906 352.933L127.05 353.12" stroke="#10E80C" stroke-width="0.85081" stroke-linecap="round" stroke-linejoin="round"/>
<path d="M10.6953 218.845L19.0673 227.302V236.278V245.255V254.222L25.4909 257.6V265.529V273.459V281.397V289.326V297.256V305.194V313.124V321.053L19.0673 326.013L10.6953 332.463" stroke="#10E80C" stroke-width="0.85081" stroke-linecap="round" stroke-linejoin="round"/>
<path d="M127.052 229.174V239.503L120.152 245.254V254.222V263.198L114.851 265.529L110.648 267.375V274.488V281.593V288.697V295.81V302.914V310.018V317.131V324.235L114.851 328.991L120.152 334.981L127.052 342.791" stroke="#10E80C" stroke-width="0.85081" stroke-linecap="round" stroke-linejoin="round"/>
<path d="M127.052 239.503V249.832V260.161L120.152 263.198V272.174V281.142V290.118V299.094V308.061V317.038L127.052 322.134" stroke="#10E80C" stroke-width="0.85081" stroke-linecap="round" stroke-linejoin="round"/>
<path d="M127.052 198.188V208.517V218.846V229.174L120.152 236.279L114.851 241.732L110.648 246.054L107.236 249.56L104.42 252.47L102.046 254.911L100.021 256.996L98.2687 258.791L96.7458 260.365L95.4015 261.743V265.861V269.971V274.08L94.2104 274.608L93.1554 275.076L92.2025 275.492L91.3431 275.875L90.5604 276.216L89.8457 276.53V279.551V282.571V285.6V288.621V291.641L90.5604 292.024L91.3431 292.449L92.2025 292.917L93.1554 293.436L94.2104 294.006L95.4015 294.653L96.7458 295.376L98.2687 296.201L100.021 297.154L102.046 298.252L104.42 299.536L107.236 301.068L110.648 302.914L114.851 305.194L120.152 308.062L127.052 311.805V322.134V332.463V342.792V353.12V363.449" stroke="#10E80C" stroke-width="0.85081" stroke-linecap="round" stroke-linejoin="round"/>
<path d="M127.051 260.161V270.49V280.819V291.147V301.476V311.805" stroke="#10E80C" stroke-width="0.85081" stroke-linecap="round" stroke-linejoin="round"/>
<path d="M10.6953 363.449V353.12V342.792V332.463V322.134V311.805L19.0673 308.062L25.4909 305.194L30.5873 302.914L34.7137 301.068L38.134 299.536L41.0097 298.252L43.4685 297.154L45.5871 296.201L47.4333 295.376L49.0584 294.653L50.5047 294.006L51.7895 293.436L52.9466 292.917L53.9846 292.449L54.9375 292.024L55.7968 291.641V288.621V285.6V282.571V279.551V276.53V273.51V270.481V267.461L54.9375 266.729L53.9846 265.929L52.9466 265.036L51.7895 264.058L50.5047 262.969L49.0584 261.743L47.4333 260.365L45.5871 258.791L43.4685 256.996L41.0097 254.911L38.134 252.47L34.7137 249.56L30.5873 246.054L25.4909 241.732L19.0673 236.279L10.6953 229.174V218.846V208.517V198.188" stroke="#10E80C" stroke-width="0.85081" stroke-linecap="round" stroke-linejoin="round"/>
<path d="M10.6953 311.805V301.476V291.148V280.819V270.49V260.161V249.832" stroke="#10E80C" stroke-width="0.85081" stroke-linecap="round" stroke-linejoin="round"/>
<path d="M127.052 218.845L120.152 227.302V236.278V245.255L114.851 249.662V257.6L110.648 260.271V267.376L107.236 268.873V275.314V281.754V288.195V294.627V301.068V307.508V313.94V320.381V326.822V333.254" stroke="#10E80C" stroke-width="0.85081" stroke-linecap="round" stroke-linejoin="round"/>
<path d="M19.0673 209.359L25.4909 217.935V225.873L30.5873 231.838L34.7137 236.687L38.134 240.703L41.0097 244.072L43.4685 246.956L45.5871 249.441L47.4333 251.61L49.0584 253.516L50.5047 255.209L51.7895 256.715L52.9466 258.068L53.9846 259.293V262.611V265.93V269.239V272.557V275.875V279.185V282.503V285.821V289.131V292.449V295.767V299.077L52.9466 299.885L51.7895 300.779L50.5047 301.766L49.0584 302.88L47.4333 304.131L45.5871 305.56L43.4685 307.194L41.0097 309.091L38.134 311.303L34.7137 313.941L30.5873 317.131L25.4909 321.054V328.992V336.921L19.0673 343.957L10.6953 353.121" stroke="#10E80C" stroke-width="0.85081" stroke-linecap="round" stroke-linejoin="round"/>
<path d="M120.15 209.359L114.85 217.935L110.647 224.733L107.235 230.247L104.419 234.815L102.045 238.661L100.02 241.937L98.2674 244.77V249.441L96.7445 251.61V255.984L95.4002 257.634V261.744L94.2091 262.969L93.1541 264.058L92.2012 265.036V268.524V272.013V275.493V278.981V282.461V285.949V289.429V292.917V296.406V299.885V303.374L93.1541 304.446L94.2091 305.645L95.4002 306.99L96.7445 308.513L98.2674 310.231L100.02 312.214L102.045 314.502L104.419 317.191L107.235 320.381L110.647 324.236V331.34L114.85 336.921V344.851L120.15 352.933" stroke="#10E80C" stroke-width="0.85081" stroke-linecap="round" stroke-linejoin="round"/>
<path d="M10.6953 239.503L19.0673 245.255L25.4909 249.662V257.6L30.5873 260.271L34.7137 262.441L38.134 264.236L41.0097 265.742L43.4685 267.035L45.5871 268.15L47.4333 269.12L49.0584 269.971L50.5047 270.728L51.7895 271.4L52.9466 272.013L53.9846 272.557L54.9375 273.051L55.7968 273.51" stroke="#10E80C" stroke-width="0.85081" stroke-linecap="round" stroke-linejoin="round"/>
<path d="M10.6953 322.134L19.0673 317.037V308.061V299.094V290.118V281.142V272.174V263.198V254.222L10.6953 249.832V239.503V229.174" stroke="#10E80C" stroke-width="0.85081" stroke-linecap="round" stroke-linejoin="round"/>
<path d="M114.851 217.935V225.873V233.803V241.732V249.662L110.648 253.167V260.271L107.236 262.441V268.873L104.42 270.115L102.046 271.162L100.021 272.055V277.075V282.095V287.114V292.134V297.154V302.174V307.193V312.213V317.233V322.253" stroke="#10E80C" stroke-width="0.85081" stroke-linecap="round" stroke-linejoin="round"/>
<path d="M30.5873 224.733V231.838V238.95V246.055V253.167V260.272V267.376V274.489V281.593V288.697V295.81V302.914V310.019V317.131V324.236L25.4909 328.992L19.0673 334.981L10.6953 342.792" stroke="#10E80C" stroke-width="0.85081" stroke-linecap="round" stroke-linejoin="round"/>
<path d="M110.648 224.733V231.838V238.95V246.055V253.167L107.237 256.001L104.42 258.349L102.047 260.331L100.022 262.016L98.269 263.471V268.15L96.7461 269.12V273.493V277.875V282.248V286.621V291.003V295.376V299.758V304.131V308.513V312.886V317.267" stroke="#10E80C" stroke-width="0.85081" stroke-linecap="round" stroke-linejoin="round"/>
<path d="M127.052 249.832L120.152 254.222L114.852 257.6V265.53V273.459V281.397V289.327V297.256V305.194V313.124V321.053L120.152 326.014L127.052 332.463" stroke="#10E80C" stroke-width="0.85081" stroke-linecap="round" stroke-linejoin="round"/>
<path d="M107.235 230.246V236.687V243.128V249.56V256.001V262.441L104.419 264.236L102.045 265.742L100.02 267.035L98.2676 268.15V272.821V277.5V282.18V286.851V291.53V296.201V300.881V305.56V310.231V314.911V319.59" stroke="#10E80C" stroke-width="0.85081" stroke-linecap="round" stroke-linejoin="round"/>
<path d="M34.7148 333.254V326.822V320.381V313.941V307.509V301.068V294.627V288.195V281.755V275.314V268.873V262.441V256.001V249.56V243.128V236.687V230.246" stroke="#10E80C" stroke-width="0.85081" stroke-linecap="round" stroke-linejoin="round"/>
<path d="M38.1348 328.957V323.078V317.191V311.303V305.424V299.536V293.657V287.77V281.882V276.003V270.115V264.236V258.349V252.47V246.582V240.703V234.815" stroke="#10E80C" stroke-width="0.85081" stroke-linecap="round" stroke-linejoin="round"/>
<path d="M104.422 234.815V240.703V246.582V252.47V258.349V264.236V270.115V276.003V281.882V287.77V293.657V299.536V305.424V311.303V317.191V323.078V328.957" stroke="#10E80C" stroke-width="0.85081" stroke-linecap="round" stroke-linejoin="round"/>
<path d="M127.052 301.476L120.152 299.094L114.851 297.256L110.648 295.81L107.236 294.627L104.42 293.657L102.046 292.832L100.021 292.134L98.2687 291.53L96.7458 291.003L95.4015 290.543L94.2104 290.126L93.1554 289.76L92.2025 289.429L91.3431 289.131L90.5604 288.867L89.8457 288.62" stroke="#10E80C" stroke-width="0.85081" stroke-linecap="round" stroke-linejoin="round"/>
<path d="M102.045 238.661V244.072V249.492V254.911V260.331V265.742V271.162V276.581V282.001V287.412V292.832V298.252V303.671V309.091V314.502V319.922V325.341" stroke="#10E80C" stroke-width="0.85081" stroke-linecap="round" stroke-linejoin="round"/>
<path d="M41.0078 325.341V319.922V314.502V309.091V303.671V298.252V292.832V287.412V282.001V276.581V271.162V265.742V260.331V254.911V249.492V244.072V238.661" stroke="#10E80C" stroke-width="0.85081" stroke-linecap="round" stroke-linejoin="round"/>
<path d="M10.6953 198.188H17.9697H25.2442H32.5186H39.7845H47.059H54.3334H61.6078H68.8737H76.1482H83.4226H90.6885H97.963H105.237H112.512H119.778H127.052" stroke="#10E80C" stroke-width="0.85081" stroke-linecap="round" stroke-linejoin="round"/>
<path d="M127.052 363.449H119.778H112.512H105.237H97.963H90.6885H83.4226H76.1482H68.8737H61.6078H54.3334H47.059H39.7845H32.5186H25.2442H17.9697H10.6953" stroke="#10E80C" stroke-width="0.85081" stroke-linecap="round" stroke-linejoin="round"/>
<path d="M127.052 270.49L120.152 272.174L114.851 273.459L110.648 274.488L107.236 275.314L104.42 276.003L102.046 276.581L100.021 277.075L98.2687 277.5L96.7458 277.875L95.4015 278.198L94.2104 278.487L93.1554 278.742L92.2025 278.981L91.3431 279.185L90.5604 279.381L89.8457 279.551" stroke="#10E80C" stroke-width="0.85081" stroke-linecap="round" stroke-linejoin="round"/>
<path d="M127.052 291.147L120.152 290.118L114.851 289.327L110.648 288.697L107.236 288.195L104.42 287.77L102.046 287.412L100.021 287.115L98.2687 286.851L96.7458 286.621L95.4015 286.425L94.2104 286.247L93.1554 286.085L92.2025 285.949L91.3431 285.821L90.5604 285.702L89.8457 285.6" stroke="#10E80C" stroke-width="0.85081" stroke-linecap="round" stroke-linejoin="round"/>
<path d="M127.052 280.819L120.152 281.142L114.851 281.397L110.648 281.593L107.236 281.755L104.42 281.882L102.046 282.001L100.021 282.095L98.2687 282.18L96.7458 282.248L95.4015 282.308L94.2104 282.367L93.1554 282.418L92.2025 282.461L91.3431 282.503L90.5604 282.537L89.8457 282.571" stroke="#10E80C" stroke-width="0.85081" stroke-linecap="round" stroke-linejoin="round"/>
<path d="M43.4668 322.253V317.233V312.213V307.194V302.174V297.154V292.134V287.114V282.095V277.075V272.055V267.035V262.016V256.996V251.976V246.956V241.936" stroke="#10E80C" stroke-width="0.85081" stroke-linecap="round" stroke-linejoin="round"/>
<path d="M100.022 241.936V246.956V251.976V256.996V262.016V267.035V272.055L98.2696 272.821L96.7466 273.493L95.4023 274.08V278.198V282.307V286.425V290.543V294.653V298.762V302.88V306.989V311.107V315.225L96.7466 317.267L98.2696 319.59L100.022 322.253L102.047 325.341L104.421 328.957L107.237 333.254L110.649 338.452" stroke="#10E80C" stroke-width="0.85081" stroke-linecap="round" stroke-linejoin="round"/>
<path d="M45.5859 319.59V314.91V310.231V305.56V300.881V296.201V291.53V286.851V282.18V277.5V272.821V268.15V263.47V258.791V254.12V249.441V244.77" stroke="#10E80C" stroke-width="0.85081" stroke-linecap="round" stroke-linejoin="round"/>
<path d="M19.0684 209.359H25.3814H31.7029H38.0244H44.3374H50.659H56.972H63.2935H69.6065H75.928H82.241H88.5626H94.8841H101.197H107.519H113.832H120.153" stroke="#10E80C" stroke-width="0.85081" stroke-linecap="round" stroke-linejoin="round"/>
<path d="M120.153 352.933H113.832H107.519H101.197H94.8841H88.5626H82.241H75.928H69.6065H63.2935H56.972H50.659H44.3374H38.0244H31.7029H25.3814H19.0684" stroke="#10E80C" stroke-width="0.85081" stroke-linecap="round" stroke-linejoin="round"/>
<path d="M47.4316 317.267V312.886V308.513V304.131V299.758V295.376V291.003V286.621V282.248V277.875V273.493V269.12V264.738V260.365V255.983V251.61V247.229" stroke="#10E80C" stroke-width="0.85081" stroke-linecap="round" stroke-linejoin="round"/>
<path d="M25.4902 217.935H31.0801H36.6614H42.2427H47.8325H53.4138H59.0037H64.585H70.1663H75.7561H81.3374H86.9273H92.5086H98.0899H103.68H109.261H114.851" stroke="#10E80C" stroke-width="0.85081" stroke-linecap="round" stroke-linejoin="round"/>
<path d="M114.851 344.851H109.261H103.68H98.0899H92.5086H86.9273H81.3374H75.7561H70.1663H64.585H59.0037H53.4138H47.8325H42.2427H36.6614H31.0801H25.4902" stroke="#10E80C" stroke-width="0.85081" stroke-linecap="round" stroke-linejoin="round"/>
<path d="M49.0586 315.225V311.107V306.989V302.88V298.762V294.653V290.543V286.425V282.307V278.198V274.08V269.971V265.861V261.743V257.634V253.516V249.398" stroke="#10E80C" stroke-width="0.85081" stroke-linecap="round" stroke-linejoin="round"/>
<path d="M50.5034 251.329V255.209V259.089V262.968V266.848V270.728V274.608V278.487V282.367V286.247V290.126V294.006V297.886V301.765V305.645V309.533V313.413L49.057 315.225L47.432 317.267L45.5857 319.59L43.4672 322.253L41.0084 325.341L38.1326 328.957L34.7124 333.254L30.5859 338.452" stroke="#10E80C" stroke-width="0.85081" stroke-linecap="round" stroke-linejoin="round"/>
<path d="M94.2113 251.329V255.209L93.1562 256.715V260.39V264.057V267.733V271.4V275.075V278.742V282.418V286.085V289.76V293.436V297.103V300.778V304.445V308.121L94.2113 309.533V313.413L95.4024 315.225" stroke="#10E80C" stroke-width="0.85081" stroke-linecap="round" stroke-linejoin="round"/>
<path d="M30.5859 224.733H35.5887H40.5915H45.5942H50.597H55.5998H60.6025H65.6138H70.6166H75.6193H80.6221H85.6249H90.6276H95.6389H100.642H105.644H110.647" stroke="#10E80C" stroke-width="0.85081" stroke-linecap="round" stroke-linejoin="round"/>
<path d="M110.647 338.453H105.644H100.642H95.6389H90.6276H85.6249H80.6221H75.6193H70.6166H65.6138H60.6025H55.5998H50.597H45.5942H40.5915H35.5887H30.5859" stroke="#10E80C" stroke-width="0.85081" stroke-linecap="round" stroke-linejoin="round"/>
<path d="M51.7888 253.048V256.715V260.391V264.058V267.733V271.4V275.076V278.743V282.418V286.085V289.761V293.436V297.103V300.779V304.446V308.121L50.5041 309.533L49.0577 311.107L47.4326 312.886L45.5864 314.911L43.4679 317.233L41.009 319.922L38.1333 323.078L34.713 326.822L30.5866 331.34V338.452L25.4902 344.851" stroke="#10E80C" stroke-width="0.85081" stroke-linecap="round" stroke-linejoin="round"/>
<path d="M93.1554 253.048V256.715L92.2025 258.068L91.3431 259.293L90.5604 260.408V263.564V266.729V269.894V273.051L89.8457 273.51" stroke="#10E80C" stroke-width="0.85081" stroke-linecap="round" stroke-linejoin="round"/>
<path d="M92.2025 254.588V258.068V261.556V265.036L91.3431 265.929V269.239L90.5604 269.894L89.8457 270.481" stroke="#10E80C" stroke-width="0.85081" stroke-linecap="round" stroke-linejoin="round"/>
<path d="M52.9476 254.588V258.068V261.556V265.036V268.524V272.013V275.492V278.981V282.461V285.949V289.429V292.917V296.405V299.885V303.373L51.7905 304.445L50.5058 305.645L49.0594 306.989L47.4344 308.512L45.5881 310.231L43.4696 312.213L41.0108 314.502L38.135 317.191L34.7148 320.381L30.5883 324.235V331.34L25.492 336.921V344.85L19.0684 352.933" stroke="#10E80C" stroke-width="0.85081" stroke-linecap="round" stroke-linejoin="round"/>
<path d="M34.7148 230.246H39.2497H43.7845H48.3108H52.8456H57.3804H61.9153H66.4416H70.9764H75.5112H80.046H84.5809H89.1072H93.642H98.1768H102.712H107.238" stroke="#10E80C" stroke-width="0.85081" stroke-linecap="round" stroke-linejoin="round"/>
<path d="M107.238 333.254H102.712H98.1768H93.642H89.1072H84.5809H80.046H75.5112H70.9764H66.4416H61.9153H57.3804H52.8456H48.3108H43.7845H39.2497H34.7148" stroke="#10E80C" stroke-width="0.85081" stroke-linecap="round" stroke-linejoin="round"/>
<path d="M91.3431 255.983V259.293V262.611V265.929L90.5604 266.729L89.8457 267.461" stroke="#10E80C" stroke-width="0.85081" stroke-linecap="round" stroke-linejoin="round"/>
<path d="M90.5604 257.243V260.408L89.8457 261.42" stroke="#10E80C" stroke-width="0.85081" stroke-linecap="round" stroke-linejoin="round"/>
<path d="M38.1348 234.815H42.2782H46.4217H50.5651H54.7086H58.852H62.9955H67.1389H71.2738H75.4173H79.5607H83.7042H87.8476H91.9911H96.1345H100.278H104.421" stroke="#10E80C" stroke-width="0.85081" stroke-linecap="round" stroke-linejoin="round"/>
<path d="M104.421 328.958H100.278H96.1345H91.9911H87.8476H83.7042H79.5607H75.4173H71.2738H67.1389H62.9955H58.852H54.7086H50.5651H46.4217H42.2782H38.1348" stroke="#10E80C" stroke-width="0.85081" stroke-linecap="round" stroke-linejoin="round"/>
<path d="M89.8457 303.731V306.751L90.5604 307.84" stroke="#10E80C" stroke-width="0.85081" stroke-linecap="round" stroke-linejoin="round"/>
<path d="M55.7961 267.461V264.44V261.42L54.9368 260.407L53.9839 259.293V255.983L52.9459 254.588L51.7888 253.048L50.5041 251.329L49.0577 249.398L47.4326 247.228L45.5864 244.77L43.4679 241.936L41.009 238.661L38.1333 234.815L34.713 230.246L30.5866 224.733L25.4902 217.935" stroke="#10E80C" stroke-width="0.85081" stroke-linecap="round" stroke-linejoin="round"/>
<path d="M55.7949 306.751V303.731" stroke="#10E80C" stroke-width="0.85081" stroke-linecap="round" stroke-linejoin="round"/>
<path d="M89.8457 291.641V294.661V297.682L90.5604 298.354L91.3431 299.077V302.395L92.2025 303.374V306.853L93.1554 308.121V311.788L94.2104 313.413" stroke="#10E80C" stroke-width="0.85081" stroke-linecap="round" stroke-linejoin="round"/>
<path d="M55.7968 261.42V258.391L54.9375 257.243" stroke="#10E80C" stroke-width="0.85081" stroke-linecap="round" stroke-linejoin="round"/>
<path d="M55.7975 297.682V300.71V303.731L54.9382 304.675L53.9853 305.713V309.031L52.9473 310.342" stroke="#10E80C" stroke-width="0.85081" stroke-linecap="round" stroke-linejoin="round"/>
<path d="M89.8457 297.682V300.71V303.731L90.5604 304.675L91.3431 305.713V309.031L92.2025 310.342" stroke="#10E80C" stroke-width="0.85081" stroke-linecap="round" stroke-linejoin="round"/>
<path d="M41.0078 238.661H44.8279H48.6396H52.4512H56.2714H60.083H63.8946H67.7148H71.5264H75.338H79.1582H82.9698H86.7814H90.6016H94.4132H98.2248H102.045" stroke="#10E80C" stroke-width="0.85081" stroke-linecap="round" stroke-linejoin="round"/>
<path d="M102.045 325.342H98.2248H94.4132H90.6016H86.7814H82.9698H79.1582H75.338H71.5264H67.7148H63.8946H60.083H56.2714H52.4512H48.6396H44.8279H41.0078" stroke="#10E80C" stroke-width="0.85081" stroke-linecap="round" stroke-linejoin="round"/>
<path d="M98.2693 244.77L96.7463 247.228V251.61L95.4021 253.516V257.634L94.2109 259.089V262.968V266.848V270.728V274.608V278.487V282.367V286.247V290.126V294.006V297.886V301.765V305.645V309.533L95.4021 311.107L96.7463 312.886L98.2693 314.91L100.022 317.233L102.047 319.922L104.421 323.078L107.237 326.822L110.649 331.34V338.452L114.852 344.85" stroke="#10E80C" stroke-width="0.85081" stroke-linecap="round" stroke-linejoin="round"/>
<path d="M43.4668 241.936H46.9977H50.537H54.0679H57.6073H61.1381H64.6775H68.2084H71.7392H75.2786H78.8095H82.3403H85.8797H89.4106H92.9499H96.4808H100.02" stroke="#10E80C" stroke-width="0.85081" stroke-linecap="round" stroke-linejoin="round"/>
<path d="M100.02 322.253H96.4808H92.9499H89.4106H85.8797H82.3403H78.8095H75.2786H71.7392H68.2084H64.6775H61.1381H57.6073H54.0679H50.537H46.9977H43.4668" stroke="#10E80C" stroke-width="0.85081" stroke-linecap="round" stroke-linejoin="round"/>
<path d="M45.5859 244.77H48.8786H52.1712H55.4638H58.7565H62.0491H65.3418H68.6344H71.927H75.2197H78.5123H81.8049H85.0976H88.3902H91.6829H94.9755H98.2681" stroke="#10E80C" stroke-width="0.85081" stroke-linecap="round" stroke-linejoin="round"/>
<path d="M98.2681 319.59H94.9755H91.6829H88.3902H85.0976H81.8049H78.5123H75.2197H71.927H68.6344H65.3418H62.0491H58.7565H55.4638H52.1712H48.8786H45.5859" stroke="#10E80C" stroke-width="0.85081" stroke-linecap="round" stroke-linejoin="round"/>
<path d="M96.7458 247.229L95.4015 249.398V253.516L94.2104 255.209V259.089L93.1554 260.391L92.2025 261.556L91.3431 262.611L90.5604 263.564L89.8457 264.441V267.461V270.481V273.51V276.531" stroke="#10E80C" stroke-width="0.85081" stroke-linecap="round" stroke-linejoin="round"/>
<path d="M96.7446 317.267H93.6647H90.5762H87.4963H84.4164H81.3364H78.248H75.1681H72.0881H69.0082H65.9283H62.8398H59.7599H56.68H53.6H50.5201H47.4316" stroke="#10E80C" stroke-width="0.85081" stroke-linecap="round" stroke-linejoin="round"/>
<path d="M47.4316 247.229H50.5201H53.6H56.68H59.7599H62.8398H65.9283H69.0082H72.0881H75.1681H78.248H81.3364H84.4164H87.4963H90.5762H93.6647H96.7446" stroke="#10E80C" stroke-width="0.85081" stroke-linecap="round" stroke-linejoin="round"/>
<path d="M49.0586 249.398H51.9599H54.8526H57.7539H60.6466H63.5479H66.4406H69.3334H72.2347H75.1274H78.0287H80.9214H83.8227H86.7155H89.6082H92.5095H95.4022" stroke="#10E80C" stroke-width="0.85081" stroke-linecap="round" stroke-linejoin="round"/>
<path d="M95.4022 315.225H92.5095H89.6082H86.7155H83.8227H80.9214H78.0287H75.1274H72.2347H69.3334H66.4406H63.5479H60.6466H57.7539H54.8526H51.9599H49.0586" stroke="#10E80C" stroke-width="0.85081" stroke-linecap="round" stroke-linejoin="round"/>
<path d="M95.4015 249.398L94.2104 251.329L93.1554 253.048L92.2025 254.588L91.3431 255.983L90.5604 257.242L89.8457 258.391V261.42V264.44" stroke="#10E80C" stroke-width="0.85081" stroke-linecap="round" stroke-linejoin="round"/>
<path d="M50.5039 251.329H53.235H55.9661H58.6972H61.4283H64.1594H66.899H69.6216H72.3612H75.0923H77.8234H80.5545H83.2856H86.0167H88.7478H91.4789H94.21" stroke="#10E80C" stroke-width="0.85081" stroke-linecap="round" stroke-linejoin="round"/>
<path d="M94.21 313.413H91.4789H88.7478H86.0167H83.2856H80.5545H77.8234H75.0923H72.3612H69.6216H66.899H64.1594H61.4283H58.6972H55.9661H53.235H50.5039" stroke="#10E80C" stroke-width="0.85081" stroke-linecap="round" stroke-linejoin="round"/>
<path d="M51.7871 253.048H54.3736H56.96H59.5465H62.133H64.7109H67.2974H69.8839H72.4703H75.0568H77.6432H80.2212H82.8077H85.3941H87.9806H90.5671H93.1535" stroke="#10E80C" stroke-width="0.85081" stroke-linecap="round" stroke-linejoin="round"/>
<path d="M93.1535 311.788H90.5671H87.9806H85.3941H82.8077H80.2212H77.6432H75.0568H72.4703H69.8839H67.2974H64.7109H62.133H59.5465H56.96H54.3736H51.7871" stroke="#10E80C" stroke-width="0.85081" stroke-linecap="round" stroke-linejoin="round"/>
<path d="M50.5039 313.413L51.7886 311.788V308.121L52.9457 306.853V303.374L53.9837 302.395V299.077L54.9366 298.354L55.7959 297.682V294.661V291.641" stroke="#10E80C" stroke-width="0.85081" stroke-linecap="round" stroke-linejoin="round"/>
<path d="M92.2037 310.342H89.7448H87.2945H84.8442H82.3853H79.935H77.4761H75.0258H72.5755H70.1166H67.6663H65.216H62.7571H60.3068H57.8564H55.3976H52.9473" stroke="#10E80C" stroke-width="0.85081" stroke-linecap="round" stroke-linejoin="round"/>
<path d="M52.9473 254.588H55.3976H57.8564H60.3068H62.7571H65.216H67.6663H70.1166H72.5755H75.0258H77.4761H79.935H82.3853H84.8442H87.2945H89.7448H92.2037" stroke="#10E80C" stroke-width="0.85081" stroke-linecap="round" stroke-linejoin="round"/>
<path d="M53.9824 255.983H56.3221H58.6534H60.9931H63.3243H65.6555H67.9953H70.3265H72.6662H74.9974H77.3287H79.6684H81.9996H84.3308H86.6706H89.0018H91.3415" stroke="#10E80C" stroke-width="0.85081" stroke-linecap="round" stroke-linejoin="round"/>
<path d="M91.3415 309.031H89.0018H86.6706H84.3308H81.9996H79.6684H77.3287H74.9974H72.6662H70.3265H67.9953H65.6555H63.3243H60.9931H58.6534H56.3221H53.9824" stroke="#10E80C" stroke-width="0.85081" stroke-linecap="round" stroke-linejoin="round"/>
<path d="M51.7871 311.788L52.9442 310.342V306.854L53.9822 305.713V302.395L54.9351 301.51V298.354V295.189L55.7944 294.661" stroke="#10E80C" stroke-width="0.85081" stroke-linecap="round" stroke-linejoin="round"/>
<path d="M54.9375 257.243H57.1581H59.3872H61.6164H63.837H66.0661H68.2952H70.5243H72.745H74.9741H77.2032H79.4238H81.6529H83.8821H86.1027H88.3318H90.5609" stroke="#10E80C" stroke-width="0.85081" stroke-linecap="round" stroke-linejoin="round"/>
<path d="M90.5609 307.84H88.3318H86.1027H83.8821H81.6529H79.4238H77.2032H74.9741H72.745H70.5243H68.2952H66.0661H63.837H61.6164H59.3872H57.1581H54.9375" stroke="#10E80C" stroke-width="0.85081" stroke-linecap="round" stroke-linejoin="round"/>
<path d="M89.8463 306.751H87.7192H85.5922H83.4652H81.3296H79.2026H77.0756H74.9486H72.8215H70.6945H68.5675H66.4405H64.3134H62.1779H60.0509H57.9238H55.7968L54.9375 307.84" stroke="#10E80C" stroke-width="0.85081" stroke-linecap="round" stroke-linejoin="round"/>
<path d="M55.7949 258.391H57.9219H60.049H62.176H64.3115H66.4386H68.5656H70.6926H72.8196H74.9467H77.0737H79.2007H81.3277H83.4633H85.5903H87.7173H89.8444" stroke="#10E80C" stroke-width="0.85081" stroke-linecap="round" stroke-linejoin="round"/>
<path d="M53.9824 255.983L54.9353 257.243V260.408V263.564L55.7946 264.44" stroke="#10E80C" stroke-width="0.85081" stroke-linecap="round" stroke-linejoin="round"/>
<path d="M57.9228 306.751L57.1571 307.84L56.3233 309.032L55.3959 310.342L54.3749 311.788L53.2348 313.413L51.9586 315.225L50.5208 317.267L48.8787 319.59L46.9984 322.253L44.8288 325.342L42.2764 328.958L39.2475 333.254L35.589 338.453L31.0797 344.851L25.3793 352.933L17.9688 363.449" stroke="#10E80C" stroke-width="0.85081" stroke-linecap="round" stroke-linejoin="round"/>
<path d="M60.0508 306.751L59.3872 307.84L58.6555 309.032L57.8557 310.342L56.9624 311.788L55.9669 313.413L54.8523 315.225L53.6017 317.267L52.1723 319.59L50.5387 322.253L48.6414 325.342L46.4208 328.958L43.7833 333.254L40.5928 338.453L36.662 344.851L31.7018 352.933L25.2441 363.449" stroke="#10E80C" stroke-width="0.85081" stroke-linecap="round" stroke-linejoin="round"/>
<path d="M87.7188 306.751L88.3313 307.84L89.0035 309.032L89.7437 310.342L90.569 311.788L91.4793 313.413L92.5088 315.225L93.6659 317.267L94.9762 319.59L96.4821 322.253L98.2263 325.342L100.277 328.958L102.71 333.254L105.645 338.453L109.261 344.851L113.83 352.933L119.777 363.449" stroke="#10E80C" stroke-width="0.85081" stroke-linecap="round" stroke-linejoin="round"/>
<path d="M62.1768 306.751L61.6153 307.84L60.9942 309.032L60.305 310.342L59.5478 311.788L58.697 313.413L57.7526 315.225L56.6806 317.267L55.4639 319.59L54.0686 322.253L52.4521 325.342L50.5633 328.958L48.3086 333.254L45.5945 338.453L42.2423 344.851L38.0223 352.933L32.5176 363.449" stroke="#10E80C" stroke-width="0.85081" stroke-linecap="round" stroke-linejoin="round"/>
<path d="M85.5898 306.751L86.1003 307.84L86.6704 309.032L87.2915 310.342L87.9806 311.788L88.7463 313.413L89.6057 315.225L90.5756 317.267L91.6816 319.59L92.9494 322.253L94.4128 325.342L96.1314 328.958L98.1733 333.254L100.641 338.453L103.678 344.851L107.515 352.933L112.509 363.449" stroke="#10E80C" stroke-width="0.85081" stroke-linecap="round" stroke-linejoin="round"/>
<path d="M64.314 306.751L63.8376 307.84L63.3271 309.032L62.757 310.342L62.1359 311.788L61.4298 313.413L60.647 315.225L59.7622 317.267L58.7582 319.59L57.6096 322.253L56.2739 325.342L54.7084 328.958L52.8451 333.254L50.599 338.453L47.8338 344.851L44.337 352.933L39.7852 363.449" stroke="#10E80C" stroke-width="0.85081" stroke-linecap="round" stroke-linejoin="round"/>
<path d="M83.4648 306.751L83.8817 307.84L84.3327 309.032L84.8432 310.342L85.3962 311.788L86.0173 313.413L86.7149 315.225L87.4977 317.267L88.391 319.59L89.412 322.253L90.6031 325.342L91.99 328.958L93.6405 333.254L95.6399 338.453L98.0903 344.851L101.196 352.933L105.237 363.449" stroke="#10E80C" stroke-width="0.85081" stroke-linecap="round" stroke-linejoin="round"/>
<path d="M66.4401 306.751L66.0657 307.84L65.6573 309.032L65.2149 310.342L64.7129 311.788L64.1599 313.413L63.5473 315.225L62.8411 317.267L62.0499 319.59L61.1395 322.253L60.0845 325.342L58.8508 328.958L57.3789 333.254L55.6007 338.453L53.4141 344.851L50.6575 352.933L47.0586 363.449" stroke="#10E80C" stroke-width="0.85081" stroke-linecap="round" stroke-linejoin="round"/>
<path d="M81.3281 306.751L81.6514 307.84L82.0003 309.032L82.3831 310.342L82.8085 311.788L83.285 313.413L83.821 315.225L84.4166 317.267L85.0972 319.59L85.88 322.253L86.7818 325.342L87.8453 328.958L89.1045 333.254L90.6275 338.453L92.5078 344.851L94.8815 352.933L97.9615 363.449" stroke="#10E80C" stroke-width="0.85081" stroke-linecap="round" stroke-linejoin="round"/>
<path d="M68.568 306.751L68.2958 307.84L67.998 309.032L67.6662 310.342L67.3003 311.788L66.9005 313.413L66.441 315.225L65.9305 317.267L65.3435 319.59L64.6798 322.253L63.8971 325.342L62.9952 328.958L61.9147 333.254L60.6045 338.453L59.0049 344.851L56.9715 352.933L54.334 363.449" stroke="#10E80C" stroke-width="0.85081" stroke-linecap="round" stroke-linejoin="round"/>
<path d="M79.2031 306.751L79.4243 307.84L79.6711 309.032L79.9348 310.342L80.2241 311.788L80.5559 313.413L80.9218 315.225L81.3387 317.267L81.8066 319.59L82.3426 322.253L82.9722 325.342L83.7039 328.958L84.5803 333.254L85.6267 338.453L86.9285 344.851L88.562 352.933L90.6891 363.449" stroke="#10E80C" stroke-width="0.85081" stroke-linecap="round" stroke-linejoin="round"/>
<path d="M70.6941 306.751L70.5239 307.84L70.3282 309.032L70.1155 310.342L69.8858 311.788L69.6221 313.413L69.3328 315.225L69.0095 317.267L68.6351 319.59L68.2097 322.253L67.7162 325.342L67.1377 328.958L66.44 333.254L65.6147 338.453L64.5853 344.851L63.292 352.933L61.6074 363.449" stroke="#10E80C" stroke-width="0.85081" stroke-linecap="round" stroke-linejoin="round"/>
<path d="M77.0762 306.751L77.2038 307.84L77.3314 309.032L77.4761 310.342L77.6462 311.788L77.8249 313.413L78.0291 315.225L78.2503 317.267L78.514 319.59L78.8118 322.253L79.1607 325.342L79.5605 328.958L80.0455 333.254L80.6241 338.453L81.3387 344.851L82.2406 352.933L83.4232 363.449" stroke="#10E80C" stroke-width="0.85081" stroke-linecap="round" stroke-linejoin="round"/>
<path d="M72.8208 306.751L72.7442 307.84L72.6677 309.032L72.5741 310.342L72.472 311.788L72.3614 313.413L72.2338 315.225L72.0891 317.267L71.9275 319.59L71.7403 322.253L71.5276 325.342L71.2723 328.958L70.9745 333.254L70.6172 338.453L70.1663 344.851L69.6047 352.933L68.873 363.449" stroke="#10E80C" stroke-width="0.85081" stroke-linecap="round" stroke-linejoin="round"/>
<path d="M74.9473 306.751L74.9728 307.84L74.9983 309.032L75.0238 310.342L75.0579 311.788L75.0919 313.413L75.1259 315.225L75.1685 317.267L75.2195 319.59L75.2791 322.253L75.3386 325.342L75.4152 328.958L75.5088 333.254L75.6194 338.453L75.7555 344.851L75.9257 352.933L76.1469 363.449" stroke="#10E80C" stroke-width="0.85081" stroke-linecap="round" stroke-linejoin="round"/>
<path d="M55.7946 300.71L54.9353 301.51V304.675V307.84L53.9824 309.031" stroke="#10E80C" stroke-width="0.85081" stroke-linecap="round" stroke-linejoin="round"/>
<path d="M89.8457 300.71L90.5604 301.51V304.675V307.84L91.3431 309.031" stroke="#10E80C" stroke-width="0.85081" stroke-linecap="round" stroke-linejoin="round"/>
<path d="M89.8457 294.661L90.5604 295.189V298.354V301.51L91.3431 302.395V305.713L92.2025 306.854V310.342L93.1554 311.788" stroke="#10E80C" stroke-width="0.85081" stroke-linecap="round" stroke-linejoin="round"/>
<path d="M55.7968 276.53L54.9375 276.216L53.9846 275.875L52.9466 275.492L51.7895 275.076L50.5047 274.608L49.0584 274.08L47.4333 273.493L45.5871 272.821L43.4685 272.055L41.0097 271.162L38.134 270.115L34.7137 268.873L30.5873 267.376L25.4909 265.53L19.0673 263.198L10.6953 260.161" stroke="#10E80C" stroke-width="0.85081" stroke-linecap="round" stroke-linejoin="round"/>
<path d="M55.7968 288.62L54.9375 288.867L53.9846 289.131L52.9466 289.429L51.7895 289.76L50.5047 290.126L49.0584 290.543L47.4333 291.003L45.5871 291.53L43.4685 292.134L41.0097 292.832L38.134 293.657L34.7137 294.627L30.5873 295.81L25.4909 297.256L19.0673 299.094L10.6953 301.476" stroke="#10E80C" stroke-width="0.85081" stroke-linecap="round" stroke-linejoin="round"/>
<path d="M55.7968 279.551L54.9375 279.381L53.9846 279.185L52.9466 278.981L51.7895 278.742L50.5047 278.487L49.0584 278.198L47.4333 277.875L45.5871 277.5L43.4685 277.075L41.0097 276.581L38.134 276.003L34.7137 275.314L30.5873 274.488L25.4909 273.459L19.0673 272.174L10.6953 270.49" stroke="#10E80C" stroke-width="0.85081" stroke-linecap="round" stroke-linejoin="round"/>
<path d="M55.7968 285.6L54.9375 285.702L53.9846 285.821L52.9466 285.949L51.7895 286.085L50.5047 286.247L49.0584 286.425L47.4333 286.621L45.5871 286.851L43.4685 287.115L41.0097 287.412L38.134 287.77L34.7137 288.195L30.5873 288.697L25.4909 289.327L19.0673 290.118L10.6953 291.147" stroke="#10E80C" stroke-width="0.85081" stroke-linecap="round" stroke-linejoin="round"/>
<path d="M55.7968 282.571L54.9375 282.537L53.9846 282.503L52.9466 282.461L51.7895 282.418L50.5047 282.367L49.0584 282.308L47.4333 282.248L45.5871 282.18L43.4685 282.095L41.0097 282.001L38.134 281.882L34.7137 281.755L30.5873 281.593L25.4909 281.397L19.0673 281.142L10.6953 280.819" stroke="#10E80C" stroke-width="0.85081" stroke-linecap="round" stroke-linejoin="round"/>
</g>
<defs>
<filter id="filter0_d_1471_3879" x="205.438" y="-18.4175" width="174.581" height="222.822" filterUnits="userSpaceOnUse" color-interpolation-filters="sRGB">
<feFlood flood-opacity="0" result="BackgroundImageFix"/>
<feColorMatrix in="SourceAlpha" type="matrix" values="0 0 0 0 0 0 0 0 0 0 0 0 0 0 0 0 0 0 127 0" result="hardAlpha"/>
<feOffset/>
<feGaussianBlur stdDeviation="9.20875"/>
<feComposite in2="hardAlpha" operator="out"/>
<feColorMatrix type="matrix" values="0 0 0 0 0.372549 0 0 0 0 1 0 0 0 0 0 0 0 0 0.3 0"/>
<feBlend mode="normal" in2="BackgroundImageFix" result="effect1_dropShadow_1471_3879"/>
<feBlend mode="normal" in="SourceGraphic" in2="effect1_dropShadow_1471_3879" result="shape"/>
</filter>
<filter id="filter1_d_1471_3879" x="130.825" y="44.3213" width="174.581" height="222.822" filterUnits="userSpaceOnUse" color-interpolation-filters="sRGB">
<feFlood flood-opacity="0" result="BackgroundImageFix"/>
<feColorMatrix in="SourceAlpha" type="matrix" values="0 0 0 0 0 0 0 0 0 0 0 0 0 0 0 0 0 0 127 0" result="hardAlpha"/>
<feOffset/>
<feGaussianBlur stdDeviation="9.20875"/>
<feComposite in2="hardAlpha" operator="out"/>
<feColorMatrix type="matrix" values="0 0 0 0 0.372549 0 0 0 0 1 0 0 0 0 0 0 0 0 0.3 0"/>
<feBlend mode="normal" in2="BackgroundImageFix" result="effect1_dropShadow_1471_3879"/>
<feBlend mode="normal" in="SourceGraphic" in2="effect1_dropShadow_1471_3879" result="shape"/>
</filter>
<filter id="filter2_d_1471_3879" x="56.1977" y="107.06" width="174.581" height="222.822" filterUnits="userSpaceOnUse" color-interpolation-filters="sRGB">
<feFlood flood-opacity="0" result="BackgroundImageFix"/>
<feColorMatrix in="SourceAlpha" type="matrix" values="0 0 0 0 0 0 0 0 0 0 0 0 0 0 0 0 0 0 127 0" result="hardAlpha"/>
<feOffset/>
<feGaussianBlur stdDeviation="9.20875"/>
<feComposite in2="hardAlpha" operator="out"/>
<feColorMatrix type="matrix" values="0 0 0 0 0.372549 0 0 0 0 1 0 0 0 0 0 0 0 0 0.3 0"/>
<feBlend mode="normal" in2="BackgroundImageFix" result="effect1_dropShadow_1471_3879"/>
<feBlend mode="normal" in="SourceGraphic" in2="effect1_dropShadow_1471_3879" result="shape"/>
</filter>
<filter id="filter3_d_1471_3879" x="-18.4155" y="169.799" width="174.581" height="222.822" filterUnits="userSpaceOnUse" color-interpolation-filters="sRGB">
<feFlood flood-opacity="0" result="BackgroundImageFix"/>
<feColorMatrix in="SourceAlpha" type="matrix" values="0 0 0 0 0 0 0 0 0 0 0 0 0 0 0 0 0 0 127 0" result="hardAlpha"/>
<feOffset/>
<feGaussianBlur stdDeviation="9.20875"/>
<feComposite in2="hardAlpha" operator="out"/>
<feColorMatrix type="matrix" values="0 0 0 0 0.372549 0 0 0 0 1 0 0 0 0 0 0 0 0 0.3 0"/>
<feBlend mode="normal" in2="BackgroundImageFix" result="effect1_dropShadow_1471_3879"/>
<feBlend mode="normal" in="SourceGraphic" in2="effect1_dropShadow_1471_3879" result="shape"/>
</filter>
<clipPath id="clip0_1471_3879">
<rect width="361.603" height="374.203" fill="white"/>
</clipPath>
</defs>
</svg>
