<svg width="341" height="341" viewBox="0 0 341 341" fill="none" xmlns="http://www.w3.org/2000/svg">
<g clip-path="url(#clip0_1477_5430)">
<path d="M91.894 341H51.106L47.5585 330.957C46.695 330.616 45.8315 330.259 44.968 329.879L35.365 334.471L6.523 305.64L11.121 296.021C10.7415 295.168 10.384 294.3 10.043 293.431L0 289.894V249.106L10.043 245.564C10.384 244.695 10.7415 243.831 11.121 242.973L6.523 233.354L35.365 204.523L44.979 209.121C45.8425 208.741 46.706 208.379 47.5695 208.043L51.106 198H91.8885L95.436 208.043C96.2995 208.384 97.163 208.741 98.0265 209.121L107.64 204.523L136.483 233.354L131.885 242.973C132.264 243.826 132.621 244.695 132.962 245.564L143 249.106V289.894L132.957 293.436C132.616 294.305 132.259 295.169 131.879 296.027L136.477 305.646L107.635 334.477L98.021 329.879C97.1575 330.259 96.294 330.621 95.4305 330.957L91.894 341Z" fill="url(#paint0_linear_1477_5430)"/>
<path d="M110.002 126.5H220.002V176H110.002V126.5Z" fill="url(#paint1_linear_1477_5430)"/>
<path d="M144 193H219V236H144V193Z" fill="url(#paint2_linear_1477_5430)"/>
<path d="M308 127H341V248H308V127Z" fill="url(#paint3_linear_1477_5430)"/>
<path d="M99.0039 115H98.5039V115.5V186.5H88.5039V105H241.504V258H143.504V249.106V248.752L143.17 248.634L141.369 248H231.004H231.504V247.5V115.5V115H231.004H99.0039Z" stroke="white"/>
<path d="M55.3477 306.622L77.3697 229.585L87.9517 232.61L65.9297 309.647L55.3477 306.622Z" fill="white"/>
<path d="M89.6152 256.889L102.227 269.5L89.6152 282.112L97.3922 289.889L117.781 269.5L97.3922 249.112L89.6152 256.889Z" fill="white"/>
<path d="M45.6131 249.112L25.2246 269.5L45.6131 289.889L53.3901 282.112L40.7786 269.5L53.3901 256.889L45.6131 249.112Z" fill="white"/>
<path d="M316.726 313H149.003V303H165.003C231.999 303 286.503 248.497 286.503 181.5C286.503 114.503 231.999 60 165.003 60C102.81 60 51.411 106.982 44.3584 167.312L44.1914 168.741L45.2086 167.724L62.114 150.819L69.1839 157.888L38.0875 188.985L12.9099 157.51L20.7198 151.265L33.4426 167.171L34.1969 168.114L34.33 166.914C41.1241 105.63 90.1908 56.9036 151.638 50.6739L151.918 50.6456L152.039 50.3916C166.526 19.9956 197.13 0.5 231.003 0.5C279.247 0.5 318.503 39.7551 318.503 88V91.223V92.4301L319.356 91.5765L331.614 79.3186L338.684 86.3885L313.503 111.57L288.321 86.3885L295.391 79.3186L307.649 91.5765L308.503 92.4301V91.223V88C308.503 45.2639 273.739 10.5 231.003 10.5C203.069 10.5 177.649 25.4746 163.915 49.2665L163.482 50.0165H164.348C164.468 50.0165 164.584 50.0121 164.69 50.008L164.694 50.0079C164.804 50.0037 164.904 50 165.003 50C237.508 50 296.503 108.995 296.503 181.5C296.503 235.358 263.941 281.735 217.481 302.042L217.682 303H316.726H317.933L317.079 302.146L299.321 284.388L306.391 277.319L337.072 308L306.391 338.681L299.321 331.611L317.079 313.854L317.933 313H316.726Z" stroke="white"/>
<path d="M330.002 149H330.502V148.5V137.5V137H330.002H319.002H318.502V137.5V148.5V149H319.002H330.002ZM340.502 159H308.502V127H340.502V159Z" stroke="white"/>
<path d="M319.002 181H318.502V181.5V192.5V193H319.002H330.002H330.502V192.5V181.5V181H330.002H319.002ZM340.502 171V203H308.502V171H340.502Z" stroke="white"/>
<path d="M319.002 225H318.502V225.5V236.5V237H319.002H330.002H330.502V236.5V225.5V225H330.002H319.002ZM340.502 215V247H308.502V215H340.502Z" stroke="white"/>
<path d="M110 127H121V133H110V127Z" fill="white"/>
<path d="M132 127H220V133H132V127Z" fill="white"/>
<path d="M143 149H220V155H143V149Z" fill="white"/>
<path d="M110 149H132V155H110V149Z" fill="white"/>
<path d="M110 171H220V177H110V171Z" fill="white"/>
<path d="M154.004 202.5H153.004V203.5V225.5V226.5H154.004H209.004H210.004V225.5V203.5V202.5H209.004H154.004ZM144.004 193.5H219.004V235.5H144.004V193.5Z" stroke="white" stroke-width="2"/>
</g>
<defs>
<linearGradient id="paint0_linear_1477_5430" x1="71.5" y1="198" x2="71.5" y2="341" gradientUnits="userSpaceOnUse">
<stop stop-color="#5FFF00"/>
<stop offset="0.0001" stop-color="#5FFF00" stop-opacity="0.9"/>
<stop offset="1" stop-color="#5FFF00" stop-opacity="0"/>
</linearGradient>
<linearGradient id="paint1_linear_1477_5430" x1="165.002" y1="126.5" x2="165.002" y2="176" gradientUnits="userSpaceOnUse">
<stop stop-color="#5FFF00"/>
<stop offset="0.0001" stop-color="#5FFF00" stop-opacity="0.9"/>
<stop offset="1" stop-color="#5FFF00" stop-opacity="0"/>
</linearGradient>
<linearGradient id="paint2_linear_1477_5430" x1="181.5" y1="193" x2="181.5" y2="236" gradientUnits="userSpaceOnUse">
<stop stop-color="#5FFF00"/>
<stop offset="0.0001" stop-color="#5FFF00" stop-opacity="0.9"/>
<stop offset="1" stop-color="#5FFF00" stop-opacity="0"/>
</linearGradient>
<linearGradient id="paint3_linear_1477_5430" x1="324.5" y1="127" x2="324.5" y2="248" gradientUnits="userSpaceOnUse">
<stop stop-color="#5FFF00"/>
<stop offset="0.0001" stop-color="#5FFF00" stop-opacity="0.9"/>
<stop offset="1" stop-color="#5FFF00" stop-opacity="0"/>
</linearGradient>
<clipPath id="clip0_1477_5430">
<rect width="341" height="341" fill="white"/>
</clipPath>
</defs>
</svg>
