<svg width="561" height="305" viewBox="0 0 561 305" fill="none" xmlns="http://www.w3.org/2000/svg">
<g clip-path="url(#clip0_1468_3125)">
<g filter="url(#filter0_d_1468_3125)">
<path d="M186.908 115.106C189.621 115.106 191.82 112.906 191.82 110.194C191.82 107.481 189.621 105.282 186.908 105.282C184.195 105.282 181.996 107.481 181.996 110.194C181.996 112.906 184.195 115.106 186.908 115.106Z" fill="#10E80C"/>
</g>
<g opacity="0.6">
<path opacity="0.6" d="M186.909 117.95C191.192 117.95 194.665 114.477 194.665 110.194C194.665 105.91 191.192 102.437 186.909 102.437C182.625 102.437 179.152 105.91 179.152 110.194C179.152 114.477 182.625 117.95 186.909 117.95Z" stroke="#10E80C" stroke-width="0.872469" stroke-miterlimit="10"/>
</g>
<g opacity="0.3">
<path opacity="0.3" d="M186.908 121.981C193.418 121.981 198.695 116.703 198.695 110.194C198.695 103.684 193.418 98.4065 186.908 98.4065C180.398 98.4065 175.121 103.684 175.121 110.194C175.121 116.703 180.398 121.981 186.908 121.981Z" stroke="#10E80C" stroke-width="0.872469" stroke-miterlimit="10"/>
</g>
<g filter="url(#filter1_d_1468_3125)">
<path d="M241.42 146.052C244.133 146.052 246.332 143.853 246.332 141.14C246.332 138.427 244.133 136.228 241.42 136.228C238.707 136.228 236.508 138.427 236.508 141.14C236.508 143.853 238.707 146.052 241.42 146.052Z" fill="#10E80C"/>
</g>
<g opacity="0.6">
<path opacity="0.6" d="M241.42 148.896C245.704 148.896 249.177 145.424 249.177 141.14C249.177 136.856 245.704 133.384 241.42 133.384C237.137 133.384 233.664 136.856 233.664 141.14C233.664 145.424 237.137 148.896 241.42 148.896Z" stroke="#10E80C" stroke-width="0.872469" stroke-miterlimit="10"/>
</g>
<g opacity="0.3">
<path opacity="0.3" d="M241.422 152.927C247.932 152.927 253.209 147.65 253.209 141.14C253.209 134.63 247.932 129.353 241.422 129.353C234.912 129.353 229.635 134.63 229.635 141.14C229.635 147.65 234.912 152.927 241.422 152.927Z" stroke="#10E80C" stroke-width="0.872469" stroke-miterlimit="10"/>
</g>
<g filter="url(#filter2_d_1468_3125)">
<path d="M125.101 197.423C127.814 197.423 130.013 195.224 130.013 192.511C130.013 189.798 127.814 187.599 125.101 187.599C122.389 187.599 120.189 189.798 120.189 192.511C120.189 195.224 122.389 197.423 125.101 197.423Z" fill="#10E80C"/>
</g>
<g opacity="0.6">
<path opacity="0.6" d="M125.104 200.267C129.388 200.267 132.86 196.795 132.86 192.511C132.86 188.227 129.388 184.755 125.104 184.755C120.82 184.755 117.348 188.227 117.348 192.511C117.348 196.795 120.82 200.267 125.104 200.267Z" stroke="#10E80C" stroke-width="0.872469" stroke-miterlimit="10"/>
</g>
<g opacity="0.3">
<path opacity="0.3" d="M125.103 204.298C131.613 204.298 136.891 199.021 136.891 192.511C136.891 186.001 131.613 180.724 125.103 180.724C118.594 180.724 113.316 186.001 113.316 192.511C113.316 199.021 118.594 204.298 125.103 204.298Z" stroke="#10E80C" stroke-width="0.872469" stroke-miterlimit="10"/>
</g>
<g filter="url(#filter3_d_1468_3125)">
<path d="M288.952 87.7886C292.238 87.7886 294.902 85.1246 294.902 81.8384C294.902 78.5521 292.238 75.8881 288.952 75.8881C285.666 75.8881 283.002 78.5521 283.002 81.8384C283.002 85.1246 285.666 87.7886 288.952 87.7886Z" fill="#10E80C"/>
</g>
<g opacity="0.6">
<path opacity="0.6" d="M288.95 91.2261C294.135 91.2261 298.338 87.0231 298.338 81.8384C298.338 76.6536 294.135 72.4506 288.95 72.4506C283.766 72.4506 279.562 76.6536 279.562 81.8384C279.562 87.0231 283.766 91.2261 288.95 91.2261Z" stroke="#10E80C" stroke-width="0.872469" stroke-miterlimit="10"/>
</g>
<g opacity="0.3">
<path opacity="0.3" d="M288.954 96.1032C296.833 96.1032 303.219 89.7166 303.219 81.8384C303.219 73.9601 296.833 67.5735 288.954 67.5735C281.076 67.5735 274.689 73.9601 274.689 81.8384C274.689 89.7166 281.076 96.1032 288.954 96.1032Z" stroke="#10E80C" stroke-width="0.872469" stroke-miterlimit="10"/>
</g>
<g filter="url(#filter4_d_1468_3125)">
<path d="M351.92 24.552C355.679 24.552 358.726 21.5052 358.726 17.7468C358.726 13.9883 355.679 10.9415 351.92 10.9415C348.162 10.9415 345.115 13.9883 345.115 17.7468C345.115 21.5052 348.162 24.552 351.92 24.552Z" fill="#10E80C"/>
</g>
<g opacity="0.6">
<path opacity="0.6" d="M351.921 28.4956C357.857 28.4956 362.669 23.6832 362.669 17.7468C362.669 11.8104 357.857 6.99797 351.921 6.99797C345.984 6.99797 341.172 11.8104 341.172 17.7468C341.172 23.6832 345.984 28.4956 351.921 28.4956Z" stroke="#10E80C" stroke-width="0.872469" stroke-miterlimit="10"/>
</g>
<g opacity="0.3">
<path opacity="0.3" d="M351.92 34.0794C360.941 34.0794 368.253 26.767 368.253 17.7468C368.253 8.72653 360.941 1.41417 351.92 1.41417C342.9 1.41417 335.588 8.72653 335.588 17.7468C335.588 26.767 342.9 34.0794 351.92 34.0794Z" stroke="#10E80C" stroke-width="0.872469" stroke-miterlimit="10"/>
</g>
<path d="M560.543 302.364L516.047 286.781H489.978H463.908H437.83H411.761H385.692H359.622L349.371 275.544L341.632 267.063L335.586 260.433L330.726 255.102L326.739 250.731L323.406 247.075L320.579 243.978H308.365H296.159H283.944H271.738H259.533H247.318L244.125 247.075L240.364 250.731L235.854 255.102L230.366 260.433L223.526 267.063L214.784 275.544L203.206 286.781H177.128H151.059H124.989H98.9198H72.8505H46.7811L0.435547 302.364" stroke="#10E80C" stroke-width="0.872469" stroke-linecap="round" stroke-linejoin="round"/>
<path d="M31.5586 302.364L72.8525 286.781L102.621 275.544H125.052H147.484H169.923H192.355L203.845 267.064H223.528H243.211H262.894H282.585H302.268H321.951H341.634H361.326L371.813 275.544H394.244H416.675H439.106H461.537L489.98 286.781L529.424 302.364" stroke="#10E80C" stroke-width="0.872469" stroke-linecap="round" stroke-linejoin="round"/>
<path d="M62.6699 302.364L98.921 286.781L125.051 275.544L144.787 267.063L160.212 260.433H177.749H195.285L204.228 255.102H220.046H235.855H251.664H267.482H283.291H299.1H314.918H330.727H346.536H362.354L370.66 260.433H388.197H405.733L420.373 267.063L439.105 275.544L463.91 286.781L498.311 302.364" stroke="#10E80C" stroke-width="0.872469" stroke-linecap="round" stroke-linejoin="round"/>
<path d="M46.7812 286.781L80.1881 275.544H102.619L125.103 267.063H144.786H164.469H184.151H203.843L212.821 260.433L220.045 255.102L225.969 250.731H240.365H254.76H269.156H283.552H297.948H312.343H326.739H341.135L346.535 255.102L353.122 260.433L361.324 267.063H381.007H400.689H420.372H440.064L461.535 275.544H483.967L516.047 286.781" stroke="#10E80C" stroke-width="0.872469" stroke-linecap="round" stroke-linejoin="round"/>
<path d="M93.791 302.364L124.99 286.781L147.483 275.544L164.47 267.063L177.749 260.433L188.419 255.102L197.17 250.731H211.566L217.699 247.075H230.917H244.126H257.344H270.553H283.771H296.98H310.189H323.407H336.617H349.834H363.044H376.253L384.323 250.731H398.719L409.79 255.102H425.6L440.815 260.433" stroke="#10E80C" stroke-width="0.872469" stroke-linecap="round" stroke-linejoin="round"/>
<path d="M560.543 302.364H529.422H498.31H467.189H436.077H404.956H373.843H342.723L333.553 286.781L326.94 275.544L321.949 267.064L318.049 260.433L314.917 255.102L312.343 250.731L310.188 247.075L308.365 243.978L306.803 241.317L305.442 239.005H294.841H284.241H273.64H263.049L261.408 241.317L259.533 243.978L257.343 247.075L254.76 250.731L251.663 255.102L247.903 260.433L243.209 267.064L237.215 275.544L229.275 286.781L218.256 302.364H187.135H156.023H124.902H93.7897H62.6687H31.5565H0.435547" stroke="#10E80C" stroke-width="0.872469" stroke-linecap="round" stroke-linejoin="round"/>
<path d="M342.724 302.364H311.612H280.491H249.37H218.258" stroke="#10E80C" stroke-width="0.872469" stroke-linecap="round" stroke-linejoin="round"/>
<path d="M124.902 302.364L151.059 286.781L169.922 275.544L184.152 267.063L195.284 260.433H212.821H230.366H247.903H265.44H282.976H300.513H318.049H335.586H353.123H370.659L381.007 267.063L394.242 275.544L411.761 286.781L436.077 302.364" stroke="#10E80C" stroke-width="0.872469" stroke-linecap="round" stroke-linejoin="round"/>
<path d="M80.1875 275.544L105.419 267.064H125.102L142.674 260.433H160.21L172.608 255.102H188.417H204.226L211.564 250.731H225.968L230.915 247.075L235.112 243.978H247.318L250.066 241.317H261.408H272.759H284.11H295.452H306.803H318.145L320.579 243.978H332.785L336.615 247.075L341.134 250.731H355.53L362.353 255.102H378.162H393.971L405.732 260.433H423.268L440.063 267.064H459.746L483.966 275.544" stroke="#10E80C" stroke-width="0.872469" stroke-linecap="round" stroke-linejoin="round"/>
<path d="M156.023 302.364L177.128 286.781L192.353 275.544H214.784H237.215H259.647H282.078H304.509H326.94H349.371H371.811L385.692 286.781L404.956 302.364" stroke="#10E80C" stroke-width="0.872469" stroke-linecap="round" stroke-linejoin="round"/>
<path d="M187.135 302.364L203.206 286.781H229.275H255.344H281.414H307.483H333.552H359.622L373.843 302.364" stroke="#10E80C" stroke-width="0.872469" stroke-linecap="round" stroke-linejoin="round"/>
<path d="M105.42 267.063L125.138 260.433H142.674L156.791 255.102H172.609L182.773 250.731H197.169L204.489 247.075H217.698L222.907 243.978H235.112L238.716 241.317L241.848 239.005H252.448H263.049" stroke="#10E80C" stroke-width="0.872469" stroke-linecap="round" stroke-linejoin="round"/>
<path d="M125.139 260.433L140.983 255.102H156.792L168.378 250.731H182.774L191.281 247.075H204.49L210.693 243.978H222.908L227.375 241.317H238.717H250.067L252.449 239.005" stroke="#10E80C" stroke-width="0.872469" stroke-linecap="round" stroke-linejoin="round"/>
<path d="M249.369 302.364L255.346 286.781L259.647 275.544L262.892 267.064L265.44 260.433L267.482 255.102L269.157 250.731L270.553 247.075L271.739 243.978L272.76 241.317L273.641 239.005" stroke="#10E80C" stroke-width="0.872469" stroke-linecap="round" stroke-linejoin="round"/>
<path d="M140.982 255.102L153.982 250.731H168.378L178.062 247.075H191.28L198.487 243.978H210.693L216.023 241.317L220.648 239.005H231.248H241.849" stroke="#10E80C" stroke-width="0.872469" stroke-linecap="round" stroke-linejoin="round"/>
<path d="M153.982 250.731L164.853 247.075H178.063L186.272 243.978H198.487L204.673 241.317H216.024H227.374L231.248 239.005" stroke="#10E80C" stroke-width="0.872469" stroke-linecap="round" stroke-linejoin="round"/>
<path d="M358.436 239.005H369.036H379.637L386.232 241.317L393.832 243.978" stroke="#10E80C" stroke-width="0.872469" stroke-linecap="round" stroke-linejoin="round"/>
<path d="M305.443 239.005H316.044L318.147 241.317H329.497L332.787 243.978H344.992L349.835 247.075L355.532 250.731H369.928L378.164 255.102L388.197 260.433L400.691 267.064L416.674 275.544L437.832 286.781L467.19 302.364" stroke="#10E80C" stroke-width="0.872469" stroke-linecap="round" stroke-linejoin="round"/>
<path d="M337.244 239.005H347.836H358.436L363.54 241.317L369.412 243.978H381.627L389.47 247.075H402.679L413.114 250.731" stroke="#10E80C" stroke-width="0.872469" stroke-linecap="round" stroke-linejoin="round"/>
<path d="M316.043 239.005H326.643H337.244L340.847 241.317L344.992 243.978H357.206L363.043 247.075L369.927 250.731H384.322L393.972 255.102H409.79L423.269 260.433H440.815L459.747 267.063" stroke="#10E80C" stroke-width="0.872469" stroke-linecap="round" stroke-linejoin="round"/>
<path d="M164.854 247.075L174.067 243.978H186.273L193.331 241.317L199.447 239.005H210.047H220.648" stroke="#10E80C" stroke-width="0.872469" stroke-linecap="round" stroke-linejoin="round"/>
<path d="M174.066 243.978L181.98 241.317H193.331H204.673L210.047 239.005" stroke="#10E80C" stroke-width="0.872469" stroke-linecap="round" stroke-linejoin="round"/>
<path d="M181.979 241.317L188.854 239.005H199.445" stroke="#10E80C" stroke-width="0.872469" stroke-linecap="round" stroke-linejoin="round"/>
<path d="M369.037 239.005L374.883 241.317H386.233" stroke="#10E80C" stroke-width="0.872469" stroke-linecap="round" stroke-linejoin="round"/>
<path d="M347.836 239.005L352.19 241.317H363.54H374.882L381.627 243.978H393.832L402.679 247.075" stroke="#10E80C" stroke-width="0.872469" stroke-linecap="round" stroke-linejoin="round"/>
<path d="M326.643 239.005L329.496 241.317H340.846H352.188L357.205 243.978H369.411L376.251 247.075H389.469L398.717 250.731H413.113L425.598 255.102" stroke="#10E80C" stroke-width="0.872469" stroke-linecap="round" stroke-linejoin="round"/>
<path d="M294.842 239.005L295.453 241.317L296.159 243.978L296.979 247.075L297.948 250.731L299.099 255.102L300.513 260.433L302.267 267.064L304.509 275.544L307.484 286.781L311.611 302.364" stroke="#10E80C" stroke-width="0.872469" stroke-linecap="round" stroke-linejoin="round"/>
<path d="M284.242 239.005L284.111 241.317L283.945 243.978L283.771 247.075L283.553 250.731L283.291 255.102L282.977 260.433L282.584 267.064L282.078 275.544L281.415 286.781L280.49 302.364" stroke="#10E80C" stroke-width="0.872469" stroke-linecap="round" stroke-linejoin="round"/>
<path d="M151.059 286.781L185.512 266.872L203.843 267.063V207.893L187.153 191.202V110.516" stroke="url(#paint0_linear_1468_3125)" stroke-width="3.48988" stroke-linecap="round" stroke-linejoin="round"/>
<path d="M341.887 301.744L333.005 285.891H281.111L282.777 259.988H265.424V180.445L289.076 156.792V81.8383" stroke="url(#paint1_linear_1468_3125)" stroke-width="3.48988" stroke-linecap="round" stroke-linejoin="round"/>
<path d="M264.873 224.888L241.578 201.593V142.178" stroke="url(#paint2_linear_1468_3125)" stroke-width="3.48988" stroke-linecap="round" stroke-linejoin="round"/>
<path d="M125.433 195.591V275.875L98.6136 287.235H71.8637L32.6113 302.329" stroke="url(#paint3_linear_1468_3125)" stroke-width="3.48988" stroke-linecap="round" stroke-linejoin="round"/>
<path d="M351.814 17.7032V97.9877L330.465 119.337V254.884H362.493L392.969 275.273" stroke="url(#paint4_linear_1468_3125)" stroke-width="3.48988" stroke-linecap="round" stroke-linejoin="round"/>
<g filter="url(#filter5_d_1468_3125)">
<path d="M401.887 132.171C404.599 132.171 406.799 129.972 406.799 127.259C406.799 124.546 404.599 122.347 401.887 122.347C399.174 122.347 396.975 124.546 396.975 127.259C396.975 129.972 399.174 132.171 401.887 132.171Z" fill="#10E80C"/>
</g>
<g opacity="0.6">
<path opacity="0.6" d="M401.887 135.015C406.171 135.015 409.643 131.543 409.643 127.259C409.643 122.975 406.171 119.503 401.887 119.503C397.603 119.503 394.131 122.975 394.131 127.259C394.131 131.543 397.603 135.015 401.887 135.015Z" stroke="#10E80C" stroke-width="0.872469" stroke-miterlimit="10"/>
</g>
<g opacity="0.3">
<path opacity="0.3" d="M401.885 139.046C408.395 139.046 413.672 133.769 413.672 127.259C413.672 120.749 408.395 115.472 401.885 115.472C395.375 115.472 390.098 120.749 390.098 127.259C390.098 133.769 395.375 139.046 401.885 139.046Z" stroke="#10E80C" stroke-width="0.872469" stroke-miterlimit="10"/>
</g>
<path d="M402.217 130.339V191.281L422.955 212.019V260.66L460.393 275.378H416.874L465.733 301.43" stroke="url(#paint5_linear_1468_3125)" stroke-width="3.48988" stroke-linecap="round" stroke-linejoin="round"/>
</g>
<defs>
<filter id="filter0_d_1468_3125" x="171.996" y="95.2816" width="29.8242" height="29.824" filterUnits="userSpaceOnUse" color-interpolation-filters="sRGB">
<feFlood flood-opacity="0" result="BackgroundImageFix"/>
<feColorMatrix in="SourceAlpha" type="matrix" values="0 0 0 0 0 0 0 0 0 0 0 0 0 0 0 0 0 0 127 0" result="hardAlpha"/>
<feOffset/>
<feGaussianBlur stdDeviation="5"/>
<feComposite in2="hardAlpha" operator="out"/>
<feColorMatrix type="matrix" values="0 0 0 0 0.372549 0 0 0 0 1 0 0 0 0 0 0 0 0 1 0"/>
<feBlend mode="normal" in2="BackgroundImageFix" result="effect1_dropShadow_1468_3125"/>
<feBlend mode="normal" in="SourceGraphic" in2="effect1_dropShadow_1468_3125" result="shape"/>
</filter>
<filter id="filter1_d_1468_3125" x="226.508" y="126.228" width="29.8242" height="29.824" filterUnits="userSpaceOnUse" color-interpolation-filters="sRGB">
<feFlood flood-opacity="0" result="BackgroundImageFix"/>
<feColorMatrix in="SourceAlpha" type="matrix" values="0 0 0 0 0 0 0 0 0 0 0 0 0 0 0 0 0 0 127 0" result="hardAlpha"/>
<feOffset/>
<feGaussianBlur stdDeviation="5"/>
<feComposite in2="hardAlpha" operator="out"/>
<feColorMatrix type="matrix" values="0 0 0 0 0.372549 0 0 0 0 1 0 0 0 0 0 0 0 0 1 0"/>
<feBlend mode="normal" in2="BackgroundImageFix" result="effect1_dropShadow_1468_3125"/>
<feBlend mode="normal" in="SourceGraphic" in2="effect1_dropShadow_1468_3125" result="shape"/>
</filter>
<filter id="filter2_d_1468_3125" x="110.189" y="177.599" width="29.8242" height="29.824" filterUnits="userSpaceOnUse" color-interpolation-filters="sRGB">
<feFlood flood-opacity="0" result="BackgroundImageFix"/>
<feColorMatrix in="SourceAlpha" type="matrix" values="0 0 0 0 0 0 0 0 0 0 0 0 0 0 0 0 0 0 127 0" result="hardAlpha"/>
<feOffset/>
<feGaussianBlur stdDeviation="5"/>
<feComposite in2="hardAlpha" operator="out"/>
<feColorMatrix type="matrix" values="0 0 0 0 0.372549 0 0 0 0 1 0 0 0 0 0 0 0 0 1 0"/>
<feBlend mode="normal" in2="BackgroundImageFix" result="effect1_dropShadow_1468_3125"/>
<feBlend mode="normal" in="SourceGraphic" in2="effect1_dropShadow_1468_3125" result="shape"/>
</filter>
<filter id="filter3_d_1468_3125" x="273.002" y="65.8881" width="31.9004" height="31.9005" filterUnits="userSpaceOnUse" color-interpolation-filters="sRGB">
<feFlood flood-opacity="0" result="BackgroundImageFix"/>
<feColorMatrix in="SourceAlpha" type="matrix" values="0 0 0 0 0 0 0 0 0 0 0 0 0 0 0 0 0 0 127 0" result="hardAlpha"/>
<feOffset/>
<feGaussianBlur stdDeviation="5"/>
<feComposite in2="hardAlpha" operator="out"/>
<feColorMatrix type="matrix" values="0 0 0 0 0.372549 0 0 0 0 1 0 0 0 0 0 0 0 0 1 0"/>
<feBlend mode="normal" in2="BackgroundImageFix" result="effect1_dropShadow_1468_3125"/>
<feBlend mode="normal" in="SourceGraphic" in2="effect1_dropShadow_1468_3125" result="shape"/>
</filter>
<filter id="filter4_d_1468_3125" x="335.115" y="0.941528" width="33.6113" height="33.6105" filterUnits="userSpaceOnUse" color-interpolation-filters="sRGB">
<feFlood flood-opacity="0" result="BackgroundImageFix"/>
<feColorMatrix in="SourceAlpha" type="matrix" values="0 0 0 0 0 0 0 0 0 0 0 0 0 0 0 0 0 0 127 0" result="hardAlpha"/>
<feOffset/>
<feGaussianBlur stdDeviation="5"/>
<feComposite in2="hardAlpha" operator="out"/>
<feColorMatrix type="matrix" values="0 0 0 0 0.372549 0 0 0 0 1 0 0 0 0 0 0 0 0 1 0"/>
<feBlend mode="normal" in2="BackgroundImageFix" result="effect1_dropShadow_1468_3125"/>
<feBlend mode="normal" in="SourceGraphic" in2="effect1_dropShadow_1468_3125" result="shape"/>
</filter>
<filter id="filter5_d_1468_3125" x="386.975" y="112.347" width="29.8242" height="29.824" filterUnits="userSpaceOnUse" color-interpolation-filters="sRGB">
<feFlood flood-opacity="0" result="BackgroundImageFix"/>
<feColorMatrix in="SourceAlpha" type="matrix" values="0 0 0 0 0 0 0 0 0 0 0 0 0 0 0 0 0 0 127 0" result="hardAlpha"/>
<feOffset/>
<feGaussianBlur stdDeviation="5"/>
<feComposite in2="hardAlpha" operator="out"/>
<feColorMatrix type="matrix" values="0 0 0 0 0.372549 0 0 0 0 1 0 0 0 0 0 0 0 0 1 0"/>
<feBlend mode="normal" in2="BackgroundImageFix" result="effect1_dropShadow_1468_3125"/>
<feBlend mode="normal" in="SourceGraphic" in2="effect1_dropShadow_1468_3125" result="shape"/>
</filter>
<linearGradient id="paint0_linear_1468_3125" x1="177.451" y1="286.781" x2="177.451" y2="110.516" gradientUnits="userSpaceOnUse">
<stop stop-color="#10E80C" stop-opacity="0"/>
<stop offset="0.01" stop-color="#10E80C" stop-opacity="0.12"/>
<stop offset="0.03" stop-color="#10E80C" stop-opacity="0.34"/>
<stop offset="0.05" stop-color="#10E80C" stop-opacity="0.48"/>
<stop offset="0.06" stop-color="#10E80C" stop-opacity="0.54"/>
<stop offset="0.1" stop-color="#10E80C" stop-opacity="0.63"/>
<stop offset="0.16" stop-color="#10E80C" stop-opacity="0.74"/>
<stop offset="0.24" stop-color="#10E80C" stop-opacity="0.84"/>
<stop offset="0.32" stop-color="#10E80C" stop-opacity="0.91"/>
<stop offset="0.43" stop-color="#10E80C" stop-opacity="0.96"/>
<stop offset="0.58" stop-color="#10E80C" stop-opacity="0.99"/>
<stop offset="1" stop-color="#10E80C"/>
</linearGradient>
<linearGradient id="paint1_linear_1468_3125" x1="303.655" y1="301.744" x2="303.655" y2="81.8383" gradientUnits="userSpaceOnUse">
<stop stop-color="#10E80C" stop-opacity="0"/>
<stop offset="0.01" stop-color="#10E80C" stop-opacity="0.12"/>
<stop offset="0.03" stop-color="#10E80C" stop-opacity="0.34"/>
<stop offset="0.05" stop-color="#10E80C" stop-opacity="0.48"/>
<stop offset="0.06" stop-color="#10E80C" stop-opacity="0.54"/>
<stop offset="0.1" stop-color="#10E80C" stop-opacity="0.63"/>
<stop offset="0.16" stop-color="#10E80C" stop-opacity="0.74"/>
<stop offset="0.24" stop-color="#10E80C" stop-opacity="0.84"/>
<stop offset="0.32" stop-color="#10E80C" stop-opacity="0.91"/>
<stop offset="0.43" stop-color="#10E80C" stop-opacity="0.96"/>
<stop offset="0.58" stop-color="#10E80C" stop-opacity="0.99"/>
<stop offset="1" stop-color="#10E80C"/>
</linearGradient>
<linearGradient id="paint2_linear_1468_3125" x1="253.226" y1="224.888" x2="253.226" y2="142.178" gradientUnits="userSpaceOnUse">
<stop stop-color="#10E80C" stop-opacity="0"/>
<stop offset="0.01" stop-color="#10E80C" stop-opacity="0.12"/>
<stop offset="0.03" stop-color="#10E80C" stop-opacity="0.34"/>
<stop offset="0.05" stop-color="#10E80C" stop-opacity="0.48"/>
<stop offset="0.06" stop-color="#10E80C" stop-opacity="0.54"/>
<stop offset="0.1" stop-color="#10E80C" stop-opacity="0.63"/>
<stop offset="0.16" stop-color="#10E80C" stop-opacity="0.74"/>
<stop offset="0.24" stop-color="#10E80C" stop-opacity="0.84"/>
<stop offset="0.32" stop-color="#10E80C" stop-opacity="0.91"/>
<stop offset="0.43" stop-color="#10E80C" stop-opacity="0.96"/>
<stop offset="0.58" stop-color="#10E80C" stop-opacity="0.99"/>
<stop offset="1" stop-color="#10E80C"/>
</linearGradient>
<linearGradient id="paint3_linear_1468_3125" x1="79.0179" y1="302.329" x2="79.0179" y2="195.591" gradientUnits="userSpaceOnUse">
<stop stop-color="#10E80C" stop-opacity="0"/>
<stop offset="0.01" stop-color="#10E80C" stop-opacity="0.12"/>
<stop offset="0.03" stop-color="#10E80C" stop-opacity="0.34"/>
<stop offset="0.05" stop-color="#10E80C" stop-opacity="0.48"/>
<stop offset="0.06" stop-color="#10E80C" stop-opacity="0.54"/>
<stop offset="0.1" stop-color="#10E80C" stop-opacity="0.63"/>
<stop offset="0.16" stop-color="#10E80C" stop-opacity="0.74"/>
<stop offset="0.24" stop-color="#10E80C" stop-opacity="0.84"/>
<stop offset="0.32" stop-color="#10E80C" stop-opacity="0.91"/>
<stop offset="0.43" stop-color="#10E80C" stop-opacity="0.96"/>
<stop offset="0.58" stop-color="#10E80C" stop-opacity="0.99"/>
<stop offset="1" stop-color="#10E80C"/>
</linearGradient>
<linearGradient id="paint4_linear_1468_3125" x1="361.717" y1="275.273" x2="361.717" y2="17.7032" gradientUnits="userSpaceOnUse">
<stop stop-color="#10E80C" stop-opacity="0"/>
<stop offset="0.01" stop-color="#10E80C" stop-opacity="0.12"/>
<stop offset="0.03" stop-color="#10E80C" stop-opacity="0.34"/>
<stop offset="0.05" stop-color="#10E80C" stop-opacity="0.48"/>
<stop offset="0.06" stop-color="#10E80C" stop-opacity="0.54"/>
<stop offset="0.1" stop-color="#10E80C" stop-opacity="0.63"/>
<stop offset="0.16" stop-color="#10E80C" stop-opacity="0.74"/>
<stop offset="0.24" stop-color="#10E80C" stop-opacity="0.84"/>
<stop offset="0.32" stop-color="#10E80C" stop-opacity="0.91"/>
<stop offset="0.43" stop-color="#10E80C" stop-opacity="0.96"/>
<stop offset="0.58" stop-color="#10E80C" stop-opacity="0.99"/>
<stop offset="1" stop-color="#10E80C"/>
</linearGradient>
<linearGradient id="paint5_linear_1468_3125" x1="433.975" y1="301.43" x2="433.975" y2="130.339" gradientUnits="userSpaceOnUse">
<stop stop-color="#10E80C" stop-opacity="0"/>
<stop offset="0.01" stop-color="#10E80C" stop-opacity="0.12"/>
<stop offset="0.03" stop-color="#10E80C" stop-opacity="0.34"/>
<stop offset="0.05" stop-color="#10E80C" stop-opacity="0.48"/>
<stop offset="0.06" stop-color="#10E80C" stop-opacity="0.54"/>
<stop offset="0.1" stop-color="#10E80C" stop-opacity="0.63"/>
<stop offset="0.16" stop-color="#10E80C" stop-opacity="0.74"/>
<stop offset="0.24" stop-color="#10E80C" stop-opacity="0.84"/>
<stop offset="0.32" stop-color="#10E80C" stop-opacity="0.91"/>
<stop offset="0.43" stop-color="#10E80C" stop-opacity="0.96"/>
<stop offset="0.58" stop-color="#10E80C" stop-opacity="0.99"/>
<stop offset="1" stop-color="#10E80C"/>
</linearGradient>
<clipPath id="clip0_1468_3125">
<rect width="560.98" height="303.096" fill="white" transform="translate(0 0.977936)"/>
</clipPath>
</defs>
</svg>
