<svg width="258" height="258" viewBox="0 0 258 258" fill="none" xmlns="http://www.w3.org/2000/svg">
<g clip-path="url(#clip0_1471_4219)">
<path d="M148.452 184.064H55.549C52.134 184.064 49.3555 181.286 49.3555 177.871V128.322C49.3555 124.907 52.134 122.129 55.549 122.129H148.452C151.867 122.129 154.646 124.907 154.646 128.322V177.871C154.646 181.286 151.867 184.064 148.452 184.064Z" fill="url(#paint0_linear_1471_4219)"/>
<path d="M49.3555 98.8754V113.229C50.3453 112.974 51.3831 112.839 52.4522 112.839H71.6534C71.2469 110.837 71.0329 108.766 71.0329 106.645C71.0329 89.5421 84.8975 75.6774 102.001 75.6774C119.104 75.6774 132.968 89.5421 132.968 106.645C132.968 108.766 132.754 110.837 132.348 112.839H151.549C152.618 112.839 153.656 112.974 154.646 113.229V98.8754L146.368 92.8506C145.588 90.3406 144.589 87.8911 143.387 85.5399L147.374 77.5672L131.079 61.272L123.106 65.2583C120.925 64.1439 118.659 63.2036 116.34 62.4507L113.523 54H90.4783L87.6614 62.4507C85.3419 63.2036 83.0766 64.1439 80.8953 65.2583L72.9227 61.272L56.6275 77.5672L60.6138 85.5399C59.4122 87.8915 58.4135 90.3406 57.6331 92.8506L49.3555 98.8754Z" fill="url(#paint1_linear_1471_4219)"/>
<path d="M162.046 191.627L161.572 192.094L162.144 192.434C165.061 194.167 167.183 197.125 167.778 200.693L172.522 229.158L172.522 229.158C172.648 229.916 172.713 230.692 172.713 231.463C172.713 239.195 166.421 245.487 158.689 245.487H45.3114C37.5794 245.487 31.2878 239.195 31.2878 231.463C31.2878 230.692 31.3524 229.916 31.479 229.157L30.9726 229.072L31.479 229.157L36.2225 200.693C36.8171 197.125 38.9393 194.167 41.8556 192.434L42.4278 192.094L41.9536 191.627C39.1946 188.909 37.4813 185.135 37.4813 180.968V125.226C37.4813 116.971 44.1976 110.255 52.4518 110.255H68.0824H68.6444L68.5937 109.696C68.5016 108.679 68.4491 107.661 68.4491 106.645C68.4491 88.1455 83.5006 73.0939 102 73.0939C120.5 73.0939 135.551 88.1455 135.551 106.645C135.551 107.661 135.499 108.679 135.407 109.696L135.356 110.255H135.918H151.549C159.803 110.255 166.519 116.971 166.519 125.226V180.968C166.519 185.135 164.806 188.909 162.046 191.627ZM129.694 110.255H130.154L130.205 109.798C130.32 108.754 130.385 107.701 130.385 106.645C130.385 90.9934 117.652 78.2607 102 78.2607C86.3486 78.2607 73.6159 90.9934 73.6159 106.645C73.6159 107.701 73.6802 108.754 73.7951 109.798L73.8454 110.255H74.3054H80.5481H81.1406L81.0562 109.669C80.9124 108.669 80.8358 107.66 80.8358 106.645C80.8358 94.9758 90.3306 85.481 102 85.481C113.669 85.481 123.164 94.9758 123.164 106.645C123.164 107.66 123.087 108.669 122.943 109.669L122.859 110.255H123.452H129.694ZM86.3277 109.844L86.4114 110.255H86.8307H117.17H117.589L117.673 109.844C117.887 108.796 117.997 107.726 117.997 106.645C117.997 97.8237 110.822 90.6478 102 90.6478C93.1789 90.6478 86.003 97.8237 86.003 106.645C86.003 107.726 86.1138 108.796 86.3277 109.844ZM36.575 230.007L36.575 230.007C36.4953 230.487 36.4546 230.976 36.4546 231.463C36.4546 236.347 40.4273 240.32 45.3114 240.32H158.689C163.573 240.32 167.546 236.347 167.546 231.463C167.546 230.976 167.505 230.487 167.425 230.008L162.681 201.542C162.14 198.296 159.357 195.938 156.066 195.938H151.549H52.4518H47.9348C44.644 195.938 41.8603 198.296 41.3189 201.543L41.8253 201.627L41.3189 201.543L36.575 230.007ZM52.4518 115.422C47.0455 115.422 42.6481 119.819 42.6481 125.226V180.968C42.6481 186.374 47.0455 190.771 52.4518 190.771H151.549C156.955 190.771 161.352 186.374 161.352 180.968V125.226C161.352 119.819 156.955 115.422 151.549 115.422H52.4518Z" stroke="white" stroke-width="1.02674"/>
<path d="M62.2546 227.933H141.744V233.1H62.2546V227.933Z" stroke="white" stroke-width="1.02674"/>
<path d="M148.966 227.933H154.132V233.1H148.966V227.933Z" stroke="white" stroke-width="1.02674"/>
<path d="M49.8679 227.933H55.0347V233.1H49.8679V227.933Z" stroke="white" stroke-width="1.02674"/>
<path d="M62.2546 215.546H67.4214V220.712H62.2546V215.546Z" stroke="white" stroke-width="1.02674"/>
<path d="M74.6423 215.546H79.8091V220.712H74.6423V215.546Z" stroke="white" stroke-width="1.02674"/>
<path d="M87.03 215.546H92.1968V220.712H87.03V215.546Z" stroke="white" stroke-width="1.02674"/>
<path d="M111.804 215.546H116.971V220.712H111.804V215.546Z" stroke="white" stroke-width="1.02674"/>
<path d="M148.966 215.546H154.132V220.712H148.966V215.546Z" stroke="white" stroke-width="1.02674"/>
<path d="M99.4167 215.546H104.583V220.712H99.4167V215.546Z" stroke="white" stroke-width="1.02674"/>
<path d="M136.578 215.546H141.745V220.712H136.578V215.546Z" stroke="white" stroke-width="1.02674"/>
<path d="M49.8679 215.546H55.0347V220.712H49.8679V215.546Z" stroke="white" stroke-width="1.02674"/>
<path d="M124.191 215.546H129.358V220.712H124.191V215.546Z" stroke="white" stroke-width="1.02674"/>
<path d="M99.4167 203.159H104.583V208.326H99.4167V203.159Z" stroke="white" stroke-width="1.02674"/>
<path d="M111.804 203.159H116.971V208.326H111.804V203.159Z" stroke="white" stroke-width="1.02674"/>
<path d="M124.191 203.159H129.358V208.326H124.191V203.159Z" stroke="white" stroke-width="1.02674"/>
<path d="M136.578 203.159H141.745V208.326H136.578V203.159Z" stroke="white" stroke-width="1.02674"/>
<path d="M87.03 203.159H92.1968V208.326H87.03V203.159Z" stroke="white" stroke-width="1.02674"/>
<path d="M148.966 203.159H154.132V208.326H148.966V203.159Z" stroke="white" stroke-width="1.02674"/>
<path d="M49.8679 203.159H55.0347V208.326H49.8679V203.159Z" stroke="white" stroke-width="1.02674"/>
<path d="M74.6423 203.159H79.8091V208.326H74.6423V203.159Z" stroke="white" stroke-width="1.02674"/>
<path d="M62.2546 203.159H67.4214V208.326H62.2546V203.159Z" stroke="white" stroke-width="1.02674"/>
<path d="M18.9001 100.965H42.6475V106.132H18.9001V100.965Z" stroke="white" stroke-width="1.02674"/>
<path d="M6.51337 100.965H11.6802V106.132H6.51337V100.965Z" stroke="white" stroke-width="1.02674"/>
<path d="M21.9968 88.5778H45.7442V93.7446H21.9968V88.5778Z" stroke="white" stroke-width="1.02674"/>
<path d="M9.61005 88.5778H14.7769V93.7446H9.61005V88.5778Z" stroke="white" stroke-width="1.02674"/>
<path d="M25.0934 76.1911H48.8409V81.3579H25.0934V76.1911Z" stroke="white" stroke-width="1.02674"/>
<path d="M12.7067 76.1911H17.8735V81.3579H12.7067V76.1911Z" stroke="white" stroke-width="1.02674"/>
<path d="M89.2107 161.759C89.6703 162.181 90.3199 162.325 90.9147 162.138C91.5096 161.951 91.9594 161.46 92.0947 160.851C92.23 160.243 92.0302 159.608 91.5706 159.186L83.4088 151.798L91.5793 144.304C92.0389 143.883 92.2387 143.248 92.1034 142.639C91.9681 142.031 91.5183 141.54 90.9235 141.353C90.3286 141.166 89.679 141.31 89.2194 141.732L81.0489 149.225C80.334 149.868 79.9258 150.784 79.9258 151.745C79.9258 152.707 80.334 153.623 81.0489 154.266L89.2107 161.759Z" fill="white"/>
<path d="M113.539 161.653C113.852 161.994 114.288 162.197 114.751 162.217C115.213 162.237 115.665 162.072 116.006 161.759L124.176 154.266C124.891 153.623 125.299 152.707 125.299 151.745C125.299 150.784 124.891 149.868 124.176 149.225L116.008 141.732C115.548 141.31 114.898 141.166 114.304 141.353C113.709 141.54 113.259 142.031 113.124 142.639C112.988 143.248 113.188 143.883 113.648 144.304L121.818 151.693L113.648 159.186C113.306 159.499 113.103 159.935 113.083 160.397C113.062 160.86 113.227 161.311 113.539 161.653V161.653Z" fill="white"/>
<path d="M96.4734 161.968C97.2995 162.464 98.3716 162.197 98.8682 161.371L109.341 143.916C109.816 143.092 109.544 142.039 108.728 141.548C107.912 141.058 106.854 141.312 106.349 142.119L95.8764 159.573C95.3801 160.399 95.6474 161.471 96.4734 161.968Z" fill="white"/>
<path d="M191.936 44.5483H238.065V107.452H191.936V44.5483Z" fill="url(#paint2_linear_1471_4219)"/>
<path d="M242.259 36.6609H242.759V36.1609V27.7738C242.759 25.1849 240.654 23.0803 238.065 23.0803H191.936C189.347 23.0803 187.242 25.1849 187.242 27.7738V36.1609V36.6609H187.742H242.259ZM242.759 40.3545V39.8545H242.259H187.742H187.242V40.3545V111.645V112.145H187.742H242.259H242.759V111.645V40.3545ZM187.742 115.338H187.242V115.838V124.225C187.242 126.814 189.347 128.919 191.936 128.919H238.065C240.654 128.919 242.759 126.814 242.759 124.225V115.838V115.338H242.259H187.742ZM191.936 19.8867H238.065C242.414 19.8867 245.952 23.4244 245.952 27.7738V124.225C245.952 128.575 242.414 132.113 238.065 132.113H191.936C187.586 132.113 184.049 128.575 184.049 124.225V27.7738C184.049 23.4244 187.586 19.8867 191.936 19.8867Z" stroke="white"/>
<path d="M205.017 120.532H224.984V123.726H205.017V120.532Z" stroke="white"/>
<path d="M192.436 45.0483H195.629V48.2419H192.436V45.0483Z" stroke="white"/>
<path d="M192.436 53.4355H195.629V106.952H192.436V53.4355Z" stroke="white"/>
<path d="M208.456 75.3624C208.275 76.0579 208.183 76.7798 208.183 77.5163C208.183 82.2121 212.003 86.0325 216.699 86.0325V83.1937C213.568 83.1937 211.022 80.6469 211.022 77.5163C211.022 76.2761 211.414 75.0982 212.156 74.1102L214.561 70.9092L205 73.3006L205.689 76.0544L208.456 75.3624Z" fill="white"/>
<path d="M222.377 77.516C222.377 78.7561 221.985 79.934 221.242 80.9221L218.837 84.1231L228.398 81.7317L227.71 78.9779L224.942 79.67C225.123 78.9745 225.215 78.2526 225.215 77.5162C225.215 72.8204 221.395 69 216.699 69V71.8387C219.83 71.8385 222.377 74.3854 222.377 77.516V77.516Z" fill="white"/>
<path d="M205.532 152.532L205.532 175.661L200.5 175.661L200.5 152.532L205.532 152.532Z" stroke="white"/>
<path d="M205.532 182.693L205.532 187.726L200.5 187.726L200.5 182.693L205.532 182.693Z" stroke="white"/>
<path d="M217.597 149.516L217.597 172.645L212.564 172.645L212.564 149.516L217.597 149.516Z" stroke="white"/>
<path d="M217.597 179.677L217.597 184.709L212.564 184.709L212.564 179.677L217.597 179.677Z" stroke="white"/>
<path d="M229.661 146.5L229.661 169.629L224.629 169.629L224.629 146.5L229.661 146.5Z" stroke="white"/>
<path d="M229.661 176.661L229.661 181.693L224.629 181.693L224.629 176.661L229.661 176.661Z" stroke="white"/>
</g>
<defs>
<linearGradient id="paint0_linear_1471_4219" x1="102.001" y1="122.129" x2="102.001" y2="184.064" gradientUnits="userSpaceOnUse">
<stop stop-color="#5FFF00"/>
<stop offset="0.0001" stop-color="#5FFF00" stop-opacity="0.9"/>
<stop offset="1" stop-color="#5FFF00" stop-opacity="0"/>
</linearGradient>
<linearGradient id="paint1_linear_1471_4219" x1="102.001" y1="54" x2="102.001" y2="113.229" gradientUnits="userSpaceOnUse">
<stop stop-color="#5FFF00"/>
<stop offset="0.0001" stop-color="#5FFF00" stop-opacity="0.9"/>
<stop offset="1" stop-color="#5FFF00" stop-opacity="0"/>
</linearGradient>
<linearGradient id="paint2_linear_1471_4219" x1="215" y1="44.5483" x2="215" y2="107.452" gradientUnits="userSpaceOnUse">
<stop stop-color="#5FFF00"/>
<stop offset="0.0001" stop-color="#5FFF00" stop-opacity="0.9"/>
<stop offset="1" stop-color="#5FFF00" stop-opacity="0"/>
</linearGradient>
<clipPath id="clip0_1471_4219">
<rect width="258" height="258" fill="white"/>
</clipPath>
</defs>
</svg>
