<svg width="258" height="258" viewBox="0 0 258 258" fill="none" xmlns="http://www.w3.org/2000/svg">
<path d="M191.419 150.985V95.7097H166.451V138.696C175.814 140.742 184.336 145.03 191.419 150.985Z" fill="url(#paint0_linear_1471_4145)"/>
<path d="M153.967 137.323C155.373 137.323 156.746 137.434 158.128 137.53V116.516H133.16V141.218C139.632 138.737 146.625 137.323 153.967 137.323Z" fill="url(#paint1_linear_1471_4145)"/>
<path d="M212.043 199.742H224.71V74.9031H199.742V159.618C207.536 169.526 212.226 181.993 212.226 195.58C212.226 196.982 212.143 198.364 212.043 199.742Z" fill="url(#paint2_linear_1471_4145)"/>
<path d="M233.031 41.613H257.999V199.742H233.031V41.613Z" fill="url(#paint3_linear_1471_4145)"/>
<path d="M95.7097 195.581C95.7097 174.969 106.442 156.902 122.596 146.543C121.543 142.79 120.149 139.161 118.402 135.742L124.981 126.527L102.348 103.894L93.1332 110.473C90.3577 109.051 87.4582 107.852 84.4571 106.891L82.5939 95.7097H50.5715L48.7123 106.891C45.7112 107.852 42.8117 109.055 40.0362 110.473L30.8236 103.894L8.18848 126.527L14.7677 135.742C13.3454 138.517 12.1466 141.417 11.1855 144.418L0 146.277V178.3L11.1814 180.159C12.1425 183.16 13.3454 186.059 14.7636 188.835L8.18441 198.047L30.8175 220.683L40.0321 214.103C42.8076 215.526 45.7071 216.724 48.7082 217.686L50.5674 228.871H82.5898L84.449 217.69C87.4501 216.729 90.3496 215.526 93.1211 214.107L95.8377 216.054L98.2597 212.667C96.6118 207.262 95.7097 201.528 95.7097 195.581ZM66.5806 183.097C55.0904 183.097 45.7742 173.781 45.7742 162.29C45.7742 150.8 55.0904 141.484 66.5806 141.484C78.0709 141.484 87.3871 150.8 87.3871 162.29C87.3871 173.781 78.0709 183.097 66.5806 183.097Z" fill="url(#paint4_linear_1471_4145)"/>
<path d="M83.7253 162.29C83.7253 159.098 82.8337 155.993 81.1407 153.268L87.2494 149.224C89.7362 153.154 91.0479 157.658 91.0479 162.29C91.0479 175.784 80.074 186.758 66.5801 186.758C61.948 186.758 57.4439 185.447 53.5179 182.96L57.5612 176.851C60.2827 178.544 63.3878 179.436 66.5801 179.436C76.0363 179.436 83.7253 171.747 83.7253 162.29Z" stroke="white"/>
<path d="M75.5963 147.726C72.8812 146.036 69.7727 145.145 66.581 145.145C57.1248 145.145 49.4359 152.834 49.4359 162.29C49.4359 165.483 50.3274 168.588 52.0205 171.313L45.9118 175.357C43.4249 171.427 42.1133 166.923 42.1133 162.29C42.1133 148.797 53.0871 137.823 66.581 137.823C71.2189 137.823 75.7211 139.134 79.643 141.621L75.5963 147.726Z" stroke="white"/>
<path d="M106.897 154.272L107.093 155.258L107.761 154.507C119.111 141.75 135.592 133.661 153.969 133.661C188.111 133.661 215.888 161.439 215.888 195.58C215.888 229.722 188.111 257.5 153.969 257.5C119.827 257.5 92.0494 229.722 92.0494 195.58L92.0494 195.579L92.0496 195.573L92.0507 195.552C92.0516 195.535 92.0535 195.503 92.0535 195.469V194.468L91.2533 195.069C84.1959 200.367 75.5571 203.403 66.5816 203.403C43.9118 203.403 25.4688 184.96 25.4688 162.29C25.4688 139.62 43.9118 121.177 66.5816 121.177C86.5043 121.177 103.155 135.426 106.897 154.272ZM100.203 164.988L100.259 164.889L100.267 164.776C100.324 163.962 100.372 163.137 100.372 162.29C100.372 143.658 85.2138 128.5 66.5816 128.5C47.9495 128.5 32.7913 143.658 32.7913 162.29C32.7913 180.922 47.9495 196.08 66.5816 196.08C77.0299 196.08 86.9488 191.147 93.3269 182.882L93.3963 182.792L93.4201 182.681C94.7661 176.372 97.0938 170.436 100.203 164.988ZM99.372 195.58C99.372 225.685 123.865 250.177 153.969 250.177C184.073 250.177 208.566 225.685 208.566 195.58C208.566 165.476 184.073 140.984 153.969 140.984C123.865 140.984 99.372 165.476 99.372 195.58Z" stroke="white"/>
<path d="M149.807 174.774V199.742H166.452V191.419H158.129V174.774H149.807Z" fill="url(#paint5_linear_1471_4145)"/>
<path d="M153.968 149.806C143.437 149.806 133.15 153.476 125.002 160.143L130.279 166.586C135.858 162.016 142.679 159.194 149.807 158.391V166.452H158.13V158.375C175.462 160.301 189.248 174.091 191.174 191.419H183.097V199.742H191.158C190.355 206.874 187.533 213.691 182.963 219.274L189.402 224.547C196.069 216.399 199.743 206.112 199.743 195.581C199.743 170.343 179.206 149.806 153.968 149.806Z" fill="url(#paint6_linear_1471_4145)"/>
<path d="M158.129 232.77V224.71H149.806V232.786C132.474 230.86 118.688 217.07 116.762 199.742H124.839V191.419H116.778C117.581 184.287 120.403 177.47 124.973 171.887L118.534 166.614C111.867 174.762 108.193 185.049 108.193 195.58C108.193 220.818 128.73 241.355 153.968 241.355C164.499 241.355 174.786 237.685 182.934 231.019L177.657 224.575C172.078 229.145 165.261 231.967 158.129 232.77Z" fill="url(#paint7_linear_1471_4145)"/>
<path d="M180.476 39.0568L199.742 19.7905L212.181 32.2297L212.498 32.5461L212.847 32.2666L242.287 8.713L243.4 7.82258H241.975H233.532V0.5H257.5V24.4677H250.177V12.8212V11.7809L249.365 12.4307L211.954 42.3571L200.095 30.4985L199.742 30.145L199.388 30.4985L185.653 44.234L185.402 44.4847L185.556 44.8042C186.309 46.3719 186.758 48.0965 186.758 49.9355C186.758 56.5413 181.38 61.9194 174.774 61.9194C173.148 61.9194 171.604 61.5881 170.189 61.0006L169.862 60.8649L169.626 61.1279L147.874 85.2971L147.637 85.5603L147.807 85.8711C148.738 87.5754 149.306 89.4911 149.306 91.5484C149.306 98.1542 143.928 103.532 137.323 103.532C130.717 103.532 125.339 98.1542 125.339 91.5484C125.339 87.8835 127.028 84.6362 129.64 82.4292L129.909 82.2017L129.785 81.8717L113.053 37.2517L112.924 36.9092L112.559 36.9279C112.497 36.9311 112.438 36.9401 112.406 36.9449L112.396 36.9464C112.36 36.9518 112.354 36.9516 112.355 36.9516C109.521 36.9516 106.942 35.9208 104.887 34.2589L104.612 34.0364L104.311 34.2218L70.1975 55.2111L69.8963 55.3964L69.9707 55.7422C70.1469 56.5604 70.246 57.3987 70.246 58.2581C70.246 64.8639 64.868 70.2419 58.2621 70.2419C53.0672 70.2419 48.6709 66.8943 47.0152 62.2514L46.8968 61.9194H46.5443H24.2017H23.8492L23.7308 62.2514C22.0751 66.8943 17.6788 70.2419 12.4839 70.2419C5.87804 70.2419 0.5 64.8639 0.5 58.2581C0.5 51.6522 5.87804 46.2742 12.4839 46.2742C17.6788 46.2742 22.0751 49.6218 23.7308 54.2647L23.8492 54.5968H24.2017H46.5402H46.8927L47.0112 54.2647C48.6668 49.6218 53.0631 46.2742 58.2581 46.2742C61.0916 46.2742 63.6709 47.305 65.7302 48.9672L66.0052 49.1893L66.3062 49.004L100.419 28.0147L100.721 27.8294L100.646 27.4836C100.47 26.6654 100.371 25.8271 100.371 24.9677C100.371 18.3619 105.749 12.9839 112.355 12.9839C118.961 12.9839 124.339 18.3619 124.339 24.9677C124.339 28.6327 122.649 31.8798 120.038 34.0826L119.768 34.31L119.892 34.6403L136.625 79.2644L136.753 79.607L137.119 79.5882C137.181 79.5851 137.24 79.5761 137.271 79.5713L137.281 79.5697C137.318 79.5643 137.323 79.5645 137.323 79.5645C138.948 79.5645 140.493 79.8958 141.908 80.4833L142.235 80.619L142.471 80.356L164.222 56.1868L164.459 55.924L164.29 55.6135C163.363 53.9081 162.79 51.9922 162.79 49.9355C162.79 43.3296 168.168 37.9516 174.774 37.9516C176.613 37.9516 178.338 38.4004 179.906 39.1539L180.225 39.3075L180.476 39.0568ZM7.82258 58.2581C7.82258 60.8258 9.91139 62.9194 12.4839 62.9194C15.0564 62.9194 17.1452 60.8258 17.1452 58.2581C17.1452 55.6903 15.0564 53.5968 12.4839 53.5968C9.91139 53.5968 7.82258 55.6903 7.82258 58.2581ZM53.5968 58.2581C53.5968 60.8258 55.6856 62.9194 58.2581 62.9194C60.8305 62.9194 62.9194 60.8258 62.9194 58.2581C62.9194 55.6903 60.8305 53.5968 58.2581 53.5968C55.6856 53.5968 53.5968 55.6903 53.5968 58.2581ZM112.355 20.3064C109.782 20.3064 107.694 22.4 107.694 24.9677C107.694 27.5355 109.782 29.629 112.355 29.629C114.927 29.629 117.016 27.5355 117.016 24.9677C117.016 22.4 114.927 20.3064 112.355 20.3064ZM132.661 91.5484C132.661 94.1162 134.75 96.2097 137.323 96.2097C139.895 96.2097 141.984 94.1162 141.984 91.5484C141.984 88.9806 139.895 86.8871 137.323 86.8871C134.75 86.8871 132.661 88.9806 132.661 91.5484ZM170.113 49.9355C170.113 52.5033 172.202 54.5968 174.774 54.5968C177.347 54.5968 179.435 52.5033 179.435 49.9355C179.435 47.3677 177.347 45.2742 174.774 45.2742C172.202 45.2742 170.113 47.3677 170.113 49.9355Z" stroke="white"/>
<defs>
<linearGradient id="paint0_linear_1471_4145" x1="178.935" y1="95.7097" x2="178.935" y2="150.985" gradientUnits="userSpaceOnUse">
<stop stop-color="#5FFF00"/>
<stop offset="0.0001" stop-color="#5FFF00" stop-opacity="0.9"/>
<stop offset="1" stop-color="#5FFF00" stop-opacity="0"/>
</linearGradient>
<linearGradient id="paint1_linear_1471_4145" x1="145.644" y1="116.516" x2="145.644" y2="141.218" gradientUnits="userSpaceOnUse">
<stop stop-color="#5FFF00"/>
<stop offset="0.0001" stop-color="#5FFF00" stop-opacity="0.9"/>
<stop offset="1" stop-color="#5FFF00" stop-opacity="0"/>
</linearGradient>
<linearGradient id="paint2_linear_1471_4145" x1="212.226" y1="74.9031" x2="212.226" y2="199.742" gradientUnits="userSpaceOnUse">
<stop stop-color="#5FFF00"/>
<stop offset="0.0001" stop-color="#5FFF00" stop-opacity="0.9"/>
<stop offset="1" stop-color="#5FFF00" stop-opacity="0"/>
</linearGradient>
<linearGradient id="paint3_linear_1471_4145" x1="245.515" y1="41.613" x2="245.515" y2="199.742" gradientUnits="userSpaceOnUse">
<stop stop-color="#5FFF00"/>
<stop offset="0.0001" stop-color="#5FFF00" stop-opacity="0.9"/>
<stop offset="1" stop-color="#5FFF00" stop-opacity="0"/>
</linearGradient>
<linearGradient id="paint4_linear_1471_4145" x1="62.4905" y1="95.7097" x2="62.4905" y2="228.871" gradientUnits="userSpaceOnUse">
<stop stop-color="#5FFF00"/>
<stop offset="0.0001" stop-color="#5FFF00" stop-opacity="0.9"/>
<stop offset="1" stop-color="#5FFF00" stop-opacity="0"/>
</linearGradient>
<linearGradient id="paint5_linear_1471_4145" x1="158.129" y1="174.774" x2="158.129" y2="199.742" gradientUnits="userSpaceOnUse">
<stop stop-color="#5FFF00"/>
<stop offset="0.0001" stop-color="#5FFF00" stop-opacity="0.9"/>
<stop offset="1" stop-color="#5FFF00" stop-opacity="0"/>
</linearGradient>
<linearGradient id="paint6_linear_1471_4145" x1="162.372" y1="149.806" x2="162.372" y2="224.547" gradientUnits="userSpaceOnUse">
<stop stop-color="#5FFF00"/>
<stop offset="0.0001" stop-color="#5FFF00" stop-opacity="0.9"/>
<stop offset="1" stop-color="#5FFF00" stop-opacity="0"/>
</linearGradient>
<linearGradient id="paint7_linear_1471_4145" x1="145.564" y1="166.614" x2="145.564" y2="241.355" gradientUnits="userSpaceOnUse">
<stop stop-color="#5FFF00"/>
<stop offset="0.0001" stop-color="#5FFF00" stop-opacity="0.9"/>
<stop offset="1" stop-color="#5FFF00" stop-opacity="0"/>
</linearGradient>
</defs>
</svg>
