<svg xmlns="http://www.w3.org/2000/svg" width="1800" height="638" viewBox="0 5 110 10" fill="none">
<path d="M33.2378 15.2426L25.3688 1.80805C23.9448 -0.590966 20.46 -0.590966 19.0361 1.80805L11.167 15.2426C9.74308 17.6416 11.5043 20.6311 14.3521 20.6311H30.0902C32.9006 20.6311 34.6243 17.6416 33.2378 15.2426Z" fill="#00B897"/>
<path d="M22.7455 15.5019L22.2958 14.7268C21.8837 13.9887 20.9469 12.4385 20.9469 12.4385L14.6891 1.80903C13.2652 -0.58999 9.7803 -0.58999 8.35637 1.80903L0.487319 15.2435C-0.936605 17.6426 0.824565 20.6321 3.67241 20.6321H19.2606H25.7432H30.09C26.1929 20.6321 24.5441 18.5653 22.7455 15.5019Z" fill="#76FCB2"/>
<path d="M22.7458 15.5011L22.2961 14.726C21.8839 13.9879 20.9471 12.4377 20.9471 12.4377L16.8627 5.49902L11.167 15.2427C9.74308 17.6418 11.5043 20.6313 14.3521 20.6313H19.2609H25.7435H30.0902C26.1932 20.6313 24.5444 18.5645 22.7458 15.5011Z" fill="url(#paint0_linear)"/>
<path d="M54.1097 5.05566L48.5264 13.0278L42.7932 5.05566H39.2334V18.3056H42.456V8.85719L48.1517 16.7555H48.9011L54.4094 9.11555V18.3056H57.5945V5.05566H54.1097Z" fill="white"/>
<path d="M74.9432 7.49159V5.05566H60.5166V18.3056H75.0931V15.8697H63.8141V12.7325H74.0814V10.2597H63.8141V7.49159H74.9432Z" fill="white"/>
<path d="M94.2036 5.01953H90.1191L85.9598 9.52231L81.763 5.01953H77.716L83.9363 11.4046L77.1914 18.3064H81.2758L85.8474 13.3238L90.6437 18.3064H94.6907L87.9833 11.4046L94.2036 5.01953Z" fill="white"/>
<path d="M100.35 7.49217H111.104V4.98242H99.1881C97.8391 4.98242 96.7524 6.05275 96.7524 7.38144V15.9441C96.7524 17.2728 97.8391 18.3431 99.1881 18.3431H111.104V15.8334H100.35C100.087 15.8334 99.8626 15.6119 99.8626 15.3536V7.97197C99.8626 7.71361 100.087 7.49217 100.35 7.49217Z" fill="white"/>
<defs>
<linearGradient id="paint0_linear" x1="9.02535" y1="10.8255" x2="27.1321" y2="17.5165" gradientUnits="userSpaceOnUse">
<stop stop-color="#53E57A" stop-opacity="0"/>
<stop offset="1" stop-color="#00A977"/>
</linearGradient>
</defs>
</svg>