<svg width="180" height="37" viewBox="0 0 180 37" fill="none" xmlns="http://www.w3.org/2000/svg">
<path d="M58.7953 25.9207L45.8729 3.50529C43.0399 -1.16665 36.1314 -1.21636 33.3977 3.70408L19.8293 27.0142C17.2944 31.2885 20.4256 36.6562 25.4953 36.6562H52.6819C57.8013 36.6562 61.6283 31.1392 58.7953 25.9207Z" fill="#666666"/>
<path d="M40.1591 27.6604L39.3639 26.2688C38.6184 24.9765 36.9782 22.1932 36.9782 22.1932L26.0439 3.20731C23.2109 -1.01732 16.5013 -1.36524 13.6683 3.95282L0.944701 25.9706C-1.68948 30.5928 1.44171 36.6066 7.1574 36.6565H34.1949H45.7257H52.5846C45.5767 36.7062 43.3402 33.0778 40.1591 27.6604Z" fill="#999999"/>
<path d="M40.1599 27.66L39.3648 26.2686C38.6193 24.9763 36.979 22.193 36.979 22.193L29.9215 9.76758L19.7823 27.0637C17.2477 31.338 20.3788 36.7057 25.4485 36.7057H34.1461H45.6769H52.5854C45.5278 36.6561 43.3408 33.0776 40.1599 27.66Z" fill="url(#paint0_linear_831_1972)"/>
<path d="M102.666 34.6677V8.77319H124.187V10.4133C124.187 11.7056 123.143 12.7493 121.851 12.7493H108.034V19.7075H121.851V23.6837H108.034V30.6418H121.851C123.143 30.6418 124.187 31.6855 124.187 32.9778V34.618L102.666 34.6677Z" fill="#999999"/>
<path d="M155.098 8.77319H150.028C149.084 8.77319 148.239 9.1708 147.643 9.91632L141.53 17.6201L135.416 9.96603C134.82 9.22051 133.975 8.82289 133.031 8.82289H127.961L138.249 21.7453L127.961 34.6677H133.031C133.975 34.6677 134.82 34.2701 135.416 33.5246L141.53 25.8705L147.692 33.5743C148.289 34.2701 149.134 34.7174 150.078 34.7174H155.148L144.859 21.7949L155.098 8.77319Z" fill="#999999"/>
<path d="M85.8179 31.9359L92.8755 19.61V34.6198H98.2434V8.72534H94.9133C93.8696 8.72534 92.8755 9.27205 92.3786 10.2164L83.9293 25.6238L75.4801 10.2164C74.983 9.27205 73.9889 8.72534 72.9452 8.72534H69.6152V34.6198H74.983V19.61L82.0405 31.9359H85.8179Z" fill="#999999"/>
<path d="M169.117 34.9662C161.662 35.0656 155.599 29.2007 155.549 21.7455C155.549 17.67 156.791 14.2903 159.127 11.9544C161.463 9.66809 164.843 8.42554 168.869 8.42554C173.59 8.42554 177.318 10.0657 180.002 13.2466L178.312 14.6879C177.268 15.5826 175.728 15.6323 174.584 14.7873C173.093 13.6442 171.205 13.0975 169.068 13.0975C163.799 13.0975 160.668 16.2784 160.668 21.6462C160.668 27.0636 163.899 30.3937 169.068 30.3937C171.254 30.3937 173.093 29.7972 174.584 28.7038C175.678 27.8588 177.219 27.9086 178.312 28.8031L180.002 30.2445C177.318 33.3757 173.74 34.9662 169.117 34.9662Z" fill="#999999"/>
<defs>
<linearGradient id="paint0_linear_831_1972" x1="16.1739" y1="19.2049" x2="47.5843" y2="30.8123" gradientUnits="userSpaceOnUse">
<stop stop-color="#666666" stop-opacity="0"/>
<stop offset="1" stop-color="#666666"/>
</linearGradient>
</defs>
</svg>
