<svg width="183" height="50" viewBox="0 0 183 50" fill="none" xmlns="http://www.w3.org/2000/svg">
<path fill-rule="evenodd" clip-rule="evenodd" d="M62.6977 30.8605L60.4487 26.956H57.1612V30.8605H55.2246V19.1316H61.0578C61.7684 19.1238 62.4712 19.319 63.0803 19.686C63.6894 20.053 64.1892 20.5762 64.5249 21.2087C64.8607 21.8412 65.0091 22.5518 64.97 23.2625C64.931 23.9731 64.6967 24.668 64.2907 25.2537C63.869 25.8784 63.2755 26.3626 62.5805 26.6515L64.97 30.8605H62.6977ZM61.05 21.1228H57.1612V25.0194H61.0578C61.3155 25.0194 61.5654 24.9648 61.7997 24.8633C62.0339 24.7617 62.2448 24.6134 62.4165 24.426C62.682 24.1527 62.8695 23.8091 62.9397 23.4264C63.01 23.0516 62.971 22.6612 62.8304 22.302C62.682 21.9506 62.44 21.646 62.1198 21.4274C61.7997 21.2087 61.4326 21.0916 61.05 21.0916V21.1228ZM81.7903 19.1316L75.9415 30.8605H78.1123L81.7825 23.5123L85.4448 30.8605H87.6157L81.7903 19.1316ZM106.404 19.1316H103.928L100.602 23.4577L97.2908 19.1316H94.8076L99.6803 25.3865V30.8605H101.617V25.2927L106.404 19.1316ZM116.329 19.1316H120.21C121.756 19.1394 123.232 19.7641 124.317 20.8651C125.41 21.9584 126.027 23.4499 126.035 24.996C126.027 26.55 125.41 28.0337 124.317 29.1347C123.224 30.2357 121.748 30.8526 120.202 30.8605H116.321V19.1316H116.329ZM120.21 28.8692C121.241 28.8692 122.224 28.4553 122.951 27.7213C123.677 26.9873 124.091 25.9955 124.091 24.9648C124.075 23.934 123.669 22.9423 122.943 22.2161C122.217 21.4898 121.233 21.0682 120.21 21.0604H118.25V28.8692H120.21ZM138.99 19.1316H137.053V30.8605H138.99V19.1316ZM159.715 25.9643C159.723 26.6124 159.605 27.2528 159.355 27.8462C159.113 28.4397 158.746 28.9785 158.278 29.4236C157.598 30.1108 156.732 30.5715 155.787 30.7589C154.842 30.9463 153.866 30.8526 152.976 30.4778C152.085 30.1108 151.328 29.4783 150.797 28.674C150.266 27.8697 149.985 26.9248 149.985 25.9565V19.1316H151.921V25.9565C151.921 26.7374 152.226 27.4792 152.78 28.0258C153.327 28.5725 154.069 28.8848 154.842 28.8848C155.615 28.8848 156.357 28.5725 156.904 28.0258C157.45 27.4792 157.755 26.7296 157.755 25.9565V19.1316H159.707V25.9643H159.715ZM172.654 30.8605V23.8481L176.558 27.7603L180.447 23.8481V30.8605H182.415V19.1316L176.558 24.996L170.725 19.1316V30.8605H172.654Z" fill="#999999"/>
<path d="M40.8324 18.7646V36.2018L21.5368 47.3997L2.23333 36.2018V13.806L21.5446 2.59254L36.3736 11.2057L38.6147 9.90942L21.5446 0L0 12.502V37.498L21.5446 50L43.0892 37.498V17.4684L40.8324 18.7646Z" fill="url(#paint0_linear_831_2009)"/>
<path d="M16.143 36.2177H12.918V25.3322H23.6786C24.6937 25.3244 25.6698 24.9105 26.3882 24.1765C27.1066 23.4503 27.5049 22.4664 27.5127 21.4434C27.5205 20.9358 27.419 20.4361 27.2238 19.9675C27.0285 19.499 26.7396 19.0773 26.3804 18.7259C26.029 18.3667 25.6073 18.0778 25.1466 17.8826C24.6859 17.6874 24.1861 17.5859 23.6786 17.5937H12.918V14.2827H23.6864C25.5683 14.2905 27.3799 15.0558 28.7074 16.3911C30.0428 17.7342 30.7924 19.5459 30.808 21.4434C30.8158 22.8959 30.3785 24.3093 29.5508 25.4962C28.7855 26.6285 27.7079 27.5187 26.4507 28.0497C25.2013 28.4479 23.905 28.6432 22.6009 28.6354H16.143V36.2177Z" fill="url(#paint1_linear_831_2009)"/>
<path d="M30.7293 35.9441H26.9654L24.0605 30.8527C25.2084 30.7824 26.3407 30.5482 27.4262 30.1577L30.7293 35.9441Z" fill="url(#paint2_linear_831_2009)"/>
<path d="M38.582 15.1412L40.8076 16.3828L43.0331 15.1412V12.5096L40.8076 11.2134L38.582 12.5096V15.1412Z" fill="#333333"/>
<defs>
<linearGradient id="paint0_linear_831_2009" x1="44.3955" y1="15.9132" x2="-1.35135" y2="34.1099" gradientUnits="userSpaceOnUse">
<stop stop-color="#333333"/>
<stop offset="0.525" stop-color="#666666"/>
<stop offset="1" stop-color="#999999"/>
</linearGradient>
<linearGradient id="paint1_linear_831_2009" x1="43.5247" y1="13.719" x2="-2.22211" y2="31.9158" gradientUnits="userSpaceOnUse">
<stop stop-color="#333333"/>
<stop offset="0.48" stop-color="#666666"/>
<stop offset="1" stop-color="#999999"/>
</linearGradient>
<linearGradient id="paint2_linear_831_2009" x1="48.0794" y1="25.1713" x2="2.33262" y2="43.368" gradientUnits="userSpaceOnUse">
<stop stop-color="#333333"/>
<stop offset="0.48" stop-color="#666666"/>
<stop offset="1" stop-color="#999999"/>
</linearGradient>
</defs>
</svg>
